solid SIM_ECUB_R_UPPERARM_ROLL
  facet normal -7.263807e-01 -5.643014e-01 -3.923454e-01
    outer loop
      vertex -1.847930e+02 -4.473204e+01 1.572929e+02
      vertex -1.942216e+02 -2.572730e+01 1.474147e+02
      vertex -1.812411e+02 -3.299336e+01 1.338335e+02
    endloop
  endfacet
  facet normal -7.503652e-01 -4.680782e-01 -4.667491e-01
    outer loop
      vertex -1.881515e+02 -2.224584e+01 1.341648e+02
      vertex -1.812411e+02 -3.299336e+01 1.338335e+02
      vertex -1.942216e+02 -2.572730e+01 1.474147e+02
    endloop
  endfacet
  facet normal -2.419679e-01 -8.525604e-01 -4.632411e-01
    outer loop
      vertex -1.599000e+02 -4.888223e+01 1.519285e+02
      vertex -1.847930e+02 -4.473204e+01 1.572929e+02
      vertex -1.812411e+02 -3.299336e+01 1.338335e+02
    endloop
  endfacet
  facet normal -2.277714e-01 -1.166481e-01 -9.667024e-01
    outer loop
      vertex -1.765153e+02 -5.228145e+00 1.293697e+02
      vertex -1.812411e+02 -3.299336e+01 1.338335e+02
      vertex -1.881515e+02 -2.224584e+01 1.341648e+02
    endloop
  endfacet
  facet normal -2.651340e-01 -8.577298e-01 -4.404583e-01
    outer loop
      vertex -1.697936e+02 -3.528910e+01 1.314133e+02
      vertex -1.599000e+02 -4.888223e+01 1.519285e+02
      vertex -1.812411e+02 -3.299336e+01 1.338335e+02
    endloop
  endfacet
  facet normal -2.277714e-01 -1.166481e-01 -9.667024e-01
    outer loop
      vertex -1.765153e+02 -5.228145e+00 1.293697e+02
      vertex -1.697936e+02 -3.528910e+01 1.314133e+02
      vertex -1.812411e+02 -3.299336e+01 1.338335e+02
    endloop
  endfacet
  facet normal -8.586363e-01 -4.950584e-01 -1.328938e-01
    outer loop
      vertex -1.970596e+02 -2.610191e+01 1.671464e+02
      vertex -1.942216e+02 -2.572730e+01 1.474147e+02
      vertex -1.847930e+02 -4.473204e+01 1.572929e+02
    endloop
  endfacet
  facet normal -9.112384e-01 1.813384e-01 -3.698120e-01
    outer loop
      vertex -1.899083e+02 6.053139e+00 1.523701e+02
      vertex -1.881515e+02 -2.224584e+01 1.341648e+02
      vertex -1.942216e+02 -2.572730e+01 1.474147e+02
    endloop
  endfacet
  facet normal -9.831846e-01 1.182431e-01 -1.391636e-01
    outer loop
      vertex -1.942817e+02 -3.464628e+00 1.667555e+02
      vertex -1.942216e+02 -2.572730e+01 1.474147e+02
      vertex -1.970596e+02 -2.610191e+01 1.671464e+02
    endloop
  endfacet
  facet normal -9.688824e-01 1.608352e-01 -1.881458e-01
    outer loop
      vertex -1.942817e+02 -3.464628e+00 1.667555e+02
      vertex -1.899083e+02 6.053139e+00 1.523701e+02
      vertex -1.942216e+02 -2.572730e+01 1.474147e+02
    endloop
  endfacet
  facet normal -1.570903e-01 -9.869774e-01 3.461542e-02
    outer loop
      vertex -1.601020e+02 -4.843355e+01 1.638050e+02
      vertex -1.847930e+02 -4.473204e+01 1.572929e+02
      vertex -1.599000e+02 -4.888223e+01 1.519285e+02
    endloop
  endfacet
  facet normal -8.063241e-01 -5.831622e-01 9.880904e-02
    outer loop
      vertex -1.842633e+02 -4.401064e+01 1.658738e+02
      vertex -1.970596e+02 -2.610191e+01 1.671464e+02
      vertex -1.847930e+02 -4.473204e+01 1.572929e+02
    endloop
  endfacet
  facet normal -1.715704e-01 -9.807680e-01 9.304684e-02
    outer loop
      vertex -1.601020e+02 -4.843355e+01 1.638050e+02
      vertex -1.842633e+02 -4.401064e+01 1.658738e+02
      vertex -1.847930e+02 -4.473204e+01 1.572929e+02
    endloop
  endfacet
  facet normal -7.335310e-01 3.349246e-01 -5.914032e-01
    outer loop
      vertex -1.899083e+02 6.053139e+00 1.523701e+02
      vertex -1.765153e+02 -5.228145e+00 1.293697e+02
      vertex -1.881515e+02 -2.224584e+01 1.341648e+02
    endloop
  endfacet
  facet normal 4.273571e-01 -6.450310e-01 -6.334832e-01
    outer loop
      vertex -1.412980e+02 -3.796840e+01 1.533649e+02
      vertex -1.599000e+02 -4.888223e+01 1.519285e+02
      vertex -1.697936e+02 -3.528910e+01 1.314133e+02
    endloop
  endfacet
  facet normal 4.070757e-01 -9.124559e-01 4.139545e-02
    outer loop
      vertex -1.450441e+02 -4.204856e+01 1.564681e+02
      vertex -1.601020e+02 -4.843355e+01 1.638050e+02
      vertex -1.599000e+02 -4.888223e+01 1.519285e+02
    endloop
  endfacet
  facet normal 4.822452e-01 -7.660202e-01 -4.250326e-01
    outer loop
      vertex -1.450441e+02 -4.204856e+01 1.564681e+02
      vertex -1.599000e+02 -4.888223e+01 1.519285e+02
      vertex -1.412980e+02 -3.796840e+01 1.533649e+02
    endloop
  endfacet
  facet normal -2.277714e-01 -1.166481e-01 -9.667024e-01
    outer loop
      vertex -1.646657e+02 -7.682887e+00 1.268739e+02
      vertex -1.582730e+02 -1.912706e+01 1.267486e+02
      vertex -1.697936e+02 -3.528910e+01 1.314133e+02
    endloop
  endfacet
  facet normal 4.893416e-01 -5.452514e-01 -6.806215e-01
    outer loop
      vertex -1.371380e+02 -2.064236e+01 1.431578e+02
      vertex -1.697936e+02 -3.528910e+01 1.314133e+02
      vertex -1.582730e+02 -1.912706e+01 1.267486e+02
    endloop
  endfacet
  facet normal -2.277714e-01 -1.166481e-01 -9.667024e-01
    outer loop
      vertex -1.765153e+02 -5.228145e+00 1.293697e+02
      vertex -1.646657e+02 -7.682887e+00 1.268739e+02
      vertex -1.697936e+02 -3.528910e+01 1.314133e+02
    endloop
  endfacet
  facet normal 4.451883e-01 -3.228534e-01 -8.352084e-01
    outer loop
      vertex -1.371380e+02 -2.064236e+01 1.431578e+02
      vertex -1.427978e+02 -3.700392e+01 1.464656e+02
      vertex -1.697936e+02 -3.528910e+01 1.314133e+02
    endloop
  endfacet
  facet normal 1.624563e-02 -9.897489e-01 -1.418918e-01
    outer loop
      vertex -1.412980e+02 -3.796840e+01 1.533649e+02
      vertex -1.697936e+02 -3.528910e+01 1.314133e+02
      vertex -1.427978e+02 -3.700392e+01 1.464656e+02
    endloop
  endfacet
  facet normal 4.785296e-01 2.764291e-01 -8.334245e-01
    outer loop
      vertex -1.408419e+02 -3.451913e+00 1.419562e+02
      vertex -1.582730e+02 -1.912706e+01 1.267486e+02
      vertex -1.646657e+02 -7.682887e+00 1.268739e+02
    endloop
  endfacet
  facet normal 6.148780e-01 7.762527e-02 -7.847926e-01
    outer loop
      vertex -1.408419e+02 -3.451913e+00 1.419562e+02
      vertex -1.371380e+02 -2.064236e+01 1.431578e+02
      vertex -1.582730e+02 -1.912706e+01 1.267486e+02
    endloop
  endfacet
  facet normal 1.051084e-02 7.374019e-01 -6.753725e-01
    outer loop
      vertex -1.549372e+02 1.302679e+01 1.496370e+02
      vertex -1.646657e+02 -7.682887e+00 1.268739e+02
      vertex -1.765153e+02 -5.228145e+00 1.293697e+02
    endloop
  endfacet
  facet normal 4.692836e-01 5.440581e-01 -6.955385e-01
    outer loop
      vertex -1.390287e+02 -2.915373e-01 1.499529e+02
      vertex -1.646657e+02 -7.682887e+00 1.268739e+02
      vertex -1.549372e+02 1.302679e+01 1.496370e+02
    endloop
  endfacet
  facet normal 7.807415e-02 9.209887e-01 -3.816861e-01
    outer loop
      vertex -1.408419e+02 -3.451913e+00 1.419562e+02
      vertex -1.646657e+02 -7.682887e+00 1.268739e+02
      vertex -1.390287e+02 -2.915373e-01 1.499529e+02
    endloop
  endfacet
  facet normal -2.057226e-01 8.259322e-01 -5.248945e-01
    outer loop
      vertex -1.549372e+02 1.302679e+01 1.496370e+02
      vertex -1.765153e+02 -5.228145e+00 1.293697e+02
      vertex -1.899083e+02 6.053139e+00 1.523701e+02
    endloop
  endfacet
  facet normal 7.252987e-02 -1.903306e-02 9.971846e-01
    outer loop
      vertex -1.629810e+02 -3.106515e+01 1.645730e+02
      vertex -1.970596e+02 -2.610191e+01 1.671464e+02
      vertex -1.842633e+02 -4.401064e+01 1.658738e+02
    endloop
  endfacet
  facet normal 9.559842e-02 1.458447e-01 9.846778e-01
    outer loop
      vertex -1.676196e+02 1.336083e+01 1.584432e+02
      vertex -1.970596e+02 -2.610191e+01 1.671464e+02
      vertex -1.629810e+02 -3.106515e+01 1.645730e+02
    endloop
  endfacet
  facet normal 3.099780e-01 -2.162455e-02 9.504978e-01
    outer loop
      vertex -1.676196e+02 1.336083e+01 1.584432e+02
      vertex -1.942817e+02 -3.464628e+00 1.667555e+02
      vertex -1.970596e+02 -2.610191e+01 1.671464e+02
    endloop
  endfacet
  facet normal 7.966506e-02 -3.084768e-02 9.963443e-01
    outer loop
      vertex -1.629810e+02 -3.106515e+01 1.645730e+02
      vertex -1.842633e+02 -4.401064e+01 1.658738e+02
      vertex -1.601020e+02 -4.843355e+01 1.638050e+02
    endloop
  endfacet
  facet normal 3.046049e-01 8.379368e-03 9.524419e-01
    outer loop
      vertex -1.364114e+02 -2.771206e+01 1.560461e+02
      vertex -1.629810e+02 -3.106515e+01 1.645730e+02
      vertex -1.601020e+02 -4.843355e+01 1.638050e+02
    endloop
  endfacet
  facet normal 5.150697e-01 -2.863655e-01 8.078973e-01
    outer loop
      vertex -1.450441e+02 -4.204856e+01 1.564681e+02
      vertex -1.364114e+02 -2.771206e+01 1.560461e+02
      vertex -1.601020e+02 -4.843355e+01 1.638050e+02
    endloop
  endfacet
  facet normal 2.437137e-01 1.574874e-01 9.569751e-01
    outer loop
      vertex -1.412807e+02 2.239591e+00 1.535656e+02
      vertex -1.676196e+02 1.336083e+01 1.584432e+02
      vertex -1.629810e+02 -3.106515e+01 1.645730e+02
    endloop
  endfacet
  facet normal 2.887570e-01 1.255474e-01 9.491350e-01
    outer loop
      vertex -1.412807e+02 2.239591e+00 1.535656e+02
      vertex -1.629810e+02 -3.106515e+01 1.645730e+02
      vertex -1.364114e+02 -2.771206e+01 1.560461e+02
    endloop
  endfacet
  facet normal -2.093800e-01 9.181577e-01 -3.363724e-01
    outer loop
      vertex -1.676196e+02 1.336083e+01 1.584432e+02
      vertex -1.549372e+02 1.302679e+01 1.496370e+02
      vertex -1.899083e+02 6.053139e+00 1.523701e+02
    endloop
  endfacet
  facet normal -3.845000e-01 8.193600e-01 4.252163e-01
    outer loop
      vertex -1.676196e+02 1.336083e+01 1.584432e+02
      vertex -1.899083e+02 6.053139e+00 1.523701e+02
      vertex -1.942817e+02 -3.464628e+00 1.667555e+02
    endloop
  endfacet
  facet normal 4.080881e-01 7.207223e-01 5.603780e-01
    outer loop
      vertex -1.412807e+02 2.239591e+00 1.535656e+02
      vertex -1.549372e+02 1.302679e+01 1.496370e+02
      vertex -1.676196e+02 1.336083e+01 1.584432e+02
    endloop
  endfacet
  facet normal 6.377016e-01 7.585501e-01 -1.339346e-01
    outer loop
      vertex -1.412807e+02 2.239591e+00 1.535656e+02
      vertex -1.390287e+02 -2.915373e-01 1.499529e+02
      vertex -1.549372e+02 1.302679e+01 1.496370e+02
    endloop
  endfacet
  facet normal 8.690350e-01 -3.675679e-01 -3.311677e-01
    outer loop
      vertex -1.371380e+02 -2.064236e+01 1.431578e+02
      vertex -1.343891e+02 -2.158410e+01 1.514165e+02
      vertex -1.427978e+02 -3.700392e+01 1.464656e+02
    endloop
  endfacet
  facet normal 8.817953e-01 -4.012994e-01 -2.477816e-01
    outer loop
      vertex -1.412980e+02 -3.796840e+01 1.533649e+02
      vertex -1.427978e+02 -3.700392e+01 1.464656e+02
      vertex -1.343891e+02 -2.158410e+01 1.514165e+02
    endloop
  endfacet
  facet normal 9.386454e-01 1.844973e-01 -2.913857e-01
    outer loop
      vertex -1.390287e+02 -2.915373e-01 1.499529e+02
      vertex -1.343891e+02 -2.158410e+01 1.514165e+02
      vertex -1.371380e+02 -2.064236e+01 1.431578e+02
    endloop
  endfacet
  facet normal 9.078599e-01 -3.983709e-01 -1.307329e-01
    outer loop
      vertex -1.364114e+02 -2.771206e+01 1.560461e+02
      vertex -1.412980e+02 -3.796840e+01 1.533649e+02
      vertex -1.343891e+02 -2.158410e+01 1.514165e+02
    endloop
  endfacet
  facet normal 7.940363e-01 1.772416e-01 5.814566e-01
    outer loop
      vertex -1.412807e+02 2.239591e+00 1.535656e+02
      vertex -1.364114e+02 -2.771206e+01 1.560461e+02
      vertex -1.343891e+02 -2.158410e+01 1.514165e+02
    endloop
  endfacet
  facet normal 8.896199e-01 2.213056e-01 3.995000e-01
    outer loop
      vertex -1.412807e+02 2.239591e+00 1.535656e+02
      vertex -1.343891e+02 -2.158410e+01 1.514165e+02
      vertex -1.390287e+02 -2.915373e-01 1.499529e+02
    endloop
  endfacet
  facet normal 9.407835e-01 1.827430e-01 -2.855370e-01
    outer loop
      vertex -1.408419e+02 -3.451913e+00 1.419562e+02
      vertex -1.390287e+02 -2.915373e-01 1.499529e+02
      vertex -1.371380e+02 -2.064236e+01 1.431578e+02
    endloop
  endfacet
  facet normal 8.073456e-01 -4.758691e-01 3.489151e-01
    outer loop
      vertex -1.450441e+02 -4.204856e+01 1.564681e+02
      vertex -1.412980e+02 -3.796840e+01 1.533649e+02
      vertex -1.364114e+02 -2.771206e+01 1.560461e+02
    endloop
  endfacet
endsolid SIM_ECUB_R_UPPERARM_ROLL
