solid SIM_ECUB_L_FOOT_REAR
  facet normal -9.998704e-01 -1.244122e-02 1.022225e-02
    outer loop
      vertex 2.464177e+01 -3.934530e+01 -9.498000e+02
      vertex 2.440000e+01 -1.991454e+01 -9.498000e+02
      vertex 2.457037e+01 -3.919410e+01 -9.566000e+02
    endloop
  endfacet
  facet normal -9.999610e-01 -8.836582e-03 3.831896e-16
    outer loop
      vertex 2.440000e+01 -1.991454e+01 -9.566000e+02
      vertex 2.457037e+01 -3.919410e+01 -9.566000e+02
      vertex 2.440000e+01 -1.991454e+01 -9.498000e+02
    endloop
  endfacet
  facet normal -6.948067e-01 -7.191440e-01 -8.694960e-03
    outer loop
      vertex 2.813664e+01 -4.272189e+01 -9.498000e+02
      vertex 2.464177e+01 -3.934530e+01 -9.498000e+02
      vertex 2.457037e+01 -3.919410e+01 -9.566000e+02
    endloop
  endfacet
  facet normal -5.144904e-01 -4.546515e-03 -8.574841e-01
    outer loop
      vertex 2.640000e+01 -1.991454e+01 -9.578000e+02
      vertex 2.457037e+01 -3.919410e+01 -9.566000e+02
      vertex 2.440000e+01 -1.991454e+01 -9.566000e+02
    endloop
  endfacet
  facet normal -7.071011e-01 -7.071011e-01 4.000608e-03
    outer loop
      vertex 2.810591e+01 -4.272963e+01 -9.566000e+02
      vertex 2.813664e+01 -4.272189e+01 -9.498000e+02
      vertex 2.457037e+01 -3.919410e+01 -9.566000e+02
    endloop
  endfacet
  facet normal -5.666448e-02 -5.666448e-02 -9.967840e-01
    outer loop
      vertex 2.640000e+01 -1.991454e+01 -9.578000e+02
      vertex 2.810591e+01 -4.272963e+01 -9.566000e+02
      vertex 2.457037e+01 -3.919410e+01 -9.566000e+02
    endloop
  endfacet
  facet normal -7.882124e-15 -1.179982e-14 1.000000e+00
    outer loop
      vertex 5.324675e+01 -1.991454e+01 -9.498000e+02
      vertex 2.440000e+01 -1.991454e+01 -9.498000e+02
      vertex 2.464177e+01 -3.934530e+01 -9.498000e+02
    endloop
  endfacet
  facet normal -1.000000e+00 -3.800975e-15 1.675970e-28
    outer loop
      vertex 2.440000e+01 6.514177e+01 -9.498000e+02
      vertex 2.440000e+01 -1.991454e+01 -9.566000e+02
      vertex 2.440000e+01 -1.991454e+01 -9.498000e+02
    endloop
  endfacet
  facet normal 2.109485e-14 -1.069285e-14 1.000000e+00
    outer loop
      vertex 2.619644e+01 3.678967e+01 -9.498000e+02
      vertex 2.440000e+01 6.514177e+01 -9.498000e+02
      vertex 2.440000e+01 -1.991454e+01 -9.498000e+02
    endloop
  endfacet
  facet normal -6.328456e-14 -8.019640e-15 1.000000e+00
    outer loop
      vertex 2.619644e+01 8.437561e+00 -9.498000e+02
      vertex 2.619644e+01 3.678967e+01 -9.498000e+02
      vertex 2.440000e+01 -1.991454e+01 -9.498000e+02
    endloop
  endfacet
  facet normal -8.665070e-15 -1.148043e-14 1.000000e+00
    outer loop
      vertex 5.268996e+01 8.246410e+00 -9.498000e+02
      vertex 2.619644e+01 8.437561e+00 -9.498000e+02
      vertex 2.440000e+01 -1.991454e+01 -9.498000e+02
    endloop
  endfacet
  facet normal -7.882124e-15 -1.226696e-14 1.000000e+00
    outer loop
      vertex 5.324675e+01 -1.991454e+01 -9.498000e+02
      vertex 5.268996e+01 8.246410e+00 -9.498000e+02
      vertex 2.440000e+01 -1.991454e+01 -9.498000e+02
    endloop
  endfacet
  facet normal -1.055516e-14 -1.092488e-14 1.000000e+00
    outer loop
      vertex 1.233092e+02 -4.101745e+01 -9.498000e+02
      vertex 2.464177e+01 -3.934530e+01 -9.498000e+02
      vertex 2.813664e+01 -4.272189e+01 -9.498000e+02
    endloop
  endfacet
  facet normal -1.054337e-14 -1.022952e-14 1.000000e+00
    outer loop
      vertex 1.233092e+02 -4.101745e+01 -9.498000e+02
      vertex 1.244000e+02 -1.991454e+01 -9.498000e+02
      vertex 2.464177e+01 -3.934530e+01 -9.498000e+02
    endloop
  endfacet
  facet normal -1.031105e-14 -1.142228e-14 1.000000e+00
    outer loop
      vertex 8.029707e+01 -1.991454e+01 -9.498000e+02
      vertex 2.464177e+01 -3.934530e+01 -9.498000e+02
      vertex 1.244000e+02 -1.991454e+01 -9.498000e+02
    endloop
  endfacet
  facet normal -1.260838e-14 -4.842068e-15 1.000000e+00
    outer loop
      vertex 8.029707e+01 -1.991454e+01 -9.498000e+02
      vertex 5.324675e+01 -1.991454e+01 -9.498000e+02
      vertex 2.464177e+01 -3.934530e+01 -9.498000e+02
    endloop
  endfacet
  facet normal -5.144958e-01 1.067334e-14 -8.574929e-01
    outer loop
      vertex 2.440000e+01 6.514177e+01 -9.566000e+02
      vertex 2.640000e+01 -1.991454e+01 -9.578000e+02
      vertex 2.440000e+01 -1.991454e+01 -9.566000e+02
    endloop
  endfacet
  facet normal -1.000000e+00 -3.759206e-15 -5.224579e-16
    outer loop
      vertex 2.440000e+01 6.514177e+01 -9.566000e+02
      vertex 2.440000e+01 -1.991454e+01 -9.566000e+02
      vertex 2.440000e+01 6.514177e+01 -9.498000e+02
    endloop
  endfacet
  facet normal -7.093098e-03 -9.999742e-01 1.170706e-03
    outer loop
      vertex 5.324675e+01 -4.290000e+01 -9.498000e+02
      vertex 2.813664e+01 -4.272189e+01 -9.498000e+02
      vertex 2.810591e+01 -4.272963e+01 -9.566000e+02
    endloop
  endfacet
  facet normal -9.536156e-15 -6.782385e-14 1.000000e+00
    outer loop
      vertex 5.324675e+01 -4.290000e+01 -9.498000e+02
      vertex 1.233092e+02 -4.101745e+01 -9.498000e+02
      vertex 2.813664e+01 -4.272189e+01 -9.498000e+02
    endloop
  endfacet
  facet normal 2.780274e-17 -5.252417e-02 -9.986197e-01
    outer loop
      vertex 5.324675e+01 -1.991454e+01 -9.578000e+02
      vertex 2.810591e+01 -4.272963e+01 -9.566000e+02
      vertex 2.640000e+01 -1.991454e+01 -9.578000e+02
    endloop
  endfacet
  facet normal -6.776470e-03 -9.999770e-01 -1.462849e-14
    outer loop
      vertex 5.324675e+01 -4.290000e+01 -9.566000e+02
      vertex 5.324675e+01 -4.290000e+01 -9.498000e+02
      vertex 2.810591e+01 -4.272963e+01 -9.566000e+02
    endloop
  endfacet
  facet normal -3.533056e-04 -5.213592e-02 -9.986399e-01
    outer loop
      vertex 5.324675e+01 -1.991454e+01 -9.578000e+02
      vertex 5.324675e+01 -4.290000e+01 -9.566000e+02
      vertex 2.810591e+01 -4.272963e+01 -9.566000e+02
    endloop
  endfacet
  facet normal -5.144958e-01 1.080228e-14 -8.574929e-01
    outer loop
      vertex 2.640000e+01 6.514177e+01 -9.578000e+02
      vertex 2.640000e+01 -1.991454e+01 -9.578000e+02
      vertex 2.440000e+01 6.514177e+01 -9.566000e+02
    endloop
  endfacet
  facet normal -7.782601e-30 1.470267e-14 -1.000000e+00
    outer loop
      vertex 5.324675e+01 -1.991454e+01 -9.578000e+02
      vertex 2.640000e+01 -1.991454e+01 -9.578000e+02
      vertex 2.640000e+01 6.514177e+01 -9.578000e+02
    endloop
  endfacet
  facet normal -1.043730e-14 -1.445817e-14 1.000000e+00
    outer loop
      vertex 1.218069e+02 7.345565e+01 -9.498000e+02
      vertex 2.549084e+01 7.221745e+01 -9.498000e+02
      vertex 2.440000e+01 6.514177e+01 -9.498000e+02
    endloop
  endfacet
  facet normal -9.883238e-01 1.523679e-01 -7.203247e-15
    outer loop
      vertex 2.440000e+01 6.514177e+01 -9.566000e+02
      vertex 2.440000e+01 6.514177e+01 -9.498000e+02
      vertex 2.549084e+01 7.221745e+01 -9.498000e+02
    endloop
  endfacet
  facet normal -1.182319e-14 1.779065e-15 1.000000e+00
    outer loop
      vertex 5.324675e+01 6.514177e+01 -9.498000e+02
      vertex 1.218069e+02 7.345565e+01 -9.498000e+02
      vertex 2.440000e+01 6.514177e+01 -9.498000e+02
    endloop
  endfacet
  facet normal -1.182319e-14 -1.277860e-14 1.000000e+00
    outer loop
      vertex 2.619644e+01 3.678967e+01 -9.498000e+02
      vertex 5.324675e+01 6.514177e+01 -9.498000e+02
      vertex 2.440000e+01 6.514177e+01 -9.498000e+02
    endloop
  endfacet
  facet normal -1.085212e-14 1.780933e-14 1.000000e+00
    outer loop
      vertex 1.218069e+02 7.345565e+01 -9.498000e+02
      vertex 2.839434e+01 7.398669e+01 -9.498000e+02
      vertex 2.549084e+01 7.221745e+01 -9.498000e+02
    endloop
  endfacet
  facet normal -5.202061e-01 8.537061e-01 2.390673e-02
    outer loop
      vertex 2.586447e+01 7.263554e+01 -9.566000e+02
      vertex 2.549084e+01 7.221745e+01 -9.498000e+02
      vertex 2.839434e+01 7.398669e+01 -9.498000e+02
    endloop
  endfacet
  facet normal -9.805648e-01 1.916264e-01 -4.209474e-02
    outer loop
      vertex 2.586447e+01 7.263554e+01 -9.566000e+02
      vertex 2.440000e+01 6.514177e+01 -9.566000e+02
      vertex 2.549084e+01 7.221745e+01 -9.498000e+02
    endloop
  endfacet
  facet normal -1.050698e-14 2.978585e-13 1.000000e+00
    outer loop
      vertex 1.073474e+02 7.410000e+01 -9.498000e+02
      vertex 5.324675e+01 7.410000e+01 -9.498000e+02
      vertex 2.839434e+01 7.398669e+01 -9.498000e+02
    endloop
  endfacet
  facet normal -4.559206e-03 9.999814e-01 4.041733e-03
    outer loop
      vertex 2.876079e+01 7.401585e+01 -9.566000e+02
      vertex 2.839434e+01 7.398669e+01 -9.498000e+02
      vertex 5.324675e+01 7.410000e+01 -9.498000e+02
    endloop
  endfacet
  facet normal -1.025565e-14 1.227327e-13 1.000000e+00
    outer loop
      vertex 1.218069e+02 7.345565e+01 -9.498000e+02
      vertex 1.073474e+02 7.410000e+01 -9.498000e+02
      vertex 2.839434e+01 7.398669e+01 -9.498000e+02
    endloop
  endfacet
  facet normal -4.301344e-01 9.025583e-01 -1.931035e-02
    outer loop
      vertex 2.876079e+01 7.401585e+01 -9.566000e+02
      vertex 2.586447e+01 7.263554e+01 -9.566000e+02
      vertex 2.839434e+01 7.398669e+01 -9.498000e+02
    endloop
  endfacet
  facet normal -3.940117e-15 1.000000e+00 1.462882e-14
    outer loop
      vertex 5.324675e+01 7.410000e+01 -9.566000e+02
      vertex 5.324675e+01 7.410000e+01 -9.498000e+02
      vertex 1.073474e+02 7.410000e+01 -9.498000e+02
    endloop
  endfacet
  facet normal -3.436819e-03 9.999941e-01 1.463233e-14
    outer loop
      vertex 5.324675e+01 7.410000e+01 -9.566000e+02
      vertex 2.876079e+01 7.401585e+01 -9.566000e+02
      vertex 5.324675e+01 7.410000e+01 -9.498000e+02
    endloop
  endfacet
  facet normal 4.451807e-02 9.990086e-01 1.461432e-14
    outer loop
      vertex 1.073474e+02 7.410000e+01 -9.566000e+02
      vertex 1.073474e+02 7.410000e+01 -9.498000e+02
      vertex 1.218069e+02 7.345565e+01 -9.498000e+02
    endloop
  endfacet
  facet normal -3.940117e-15 1.000000e+00 1.462882e-14
    outer loop
      vertex 1.073474e+02 7.410000e+01 -9.566000e+02
      vertex 5.324675e+01 7.410000e+01 -9.566000e+02
      vertex 1.073474e+02 7.410000e+01 -9.498000e+02
    endloop
  endfacet
  facet normal -1.031105e-14 -1.689041e-14 1.000000e+00
    outer loop
      vertex 8.029707e+01 6.514177e+01 -9.498000e+02
      vertex 1.244000e+02 6.514177e+01 -9.498000e+02
      vertex 1.218069e+02 7.345565e+01 -9.498000e+02
    endloop
  endfacet
  facet normal 9.546415e-01 2.977578e-01 -1.231702e-14
    outer loop
      vertex 1.244000e+02 6.514177e+01 -9.566000e+02
      vertex 1.218069e+02 7.345565e+01 -9.498000e+02
      vertex 1.244000e+02 6.514177e+01 -9.498000e+02
    endloop
  endfacet
  facet normal -8.405584e-15 -2.640405e-14 1.000000e+00
    outer loop
      vertex 5.324675e+01 6.514177e+01 -9.498000e+02
      vertex 8.029707e+01 6.514177e+01 -9.498000e+02
      vertex 1.218069e+02 7.345565e+01 -9.498000e+02
    endloop
  endfacet
  facet normal 4.598240e-02 9.989374e-01 -3.120473e-03
    outer loop
      vertex 1.219000e+02 7.343012e+01 -9.566000e+02
      vertex 1.073474e+02 7.410000e+01 -9.566000e+02
      vertex 1.218069e+02 7.345565e+01 -9.498000e+02
    endloop
  endfacet
  facet normal 9.573270e-01 2.887566e-01 1.202915e-02
    outer loop
      vertex 1.219000e+02 7.343012e+01 -9.566000e+02
      vertex 1.218069e+02 7.345565e+01 -9.498000e+02
      vertex 1.244000e+02 6.514177e+01 -9.566000e+02
    endloop
  endfacet
  facet normal -1.111138e-14 -1.069285e-14 1.000000e+00
    outer loop
      vertex 1.073474e+02 8.437561e+00 -9.498000e+02
      vertex 1.244000e+02 -1.991454e+01 -9.498000e+02
      vertex 1.244000e+02 6.514177e+01 -9.498000e+02
    endloop
  endfacet
  facet normal 1.000000e+00 3.675668e-15 2.089832e-15
    outer loop
      vertex 1.244000e+02 6.514177e+01 -9.566000e+02
      vertex 1.244000e+02 6.514177e+01 -9.498000e+02
      vertex 1.244000e+02 -1.991454e+01 -9.498000e+02
    endloop
  endfacet
  facet normal -1.031105e-14 -8.369762e-15 1.000000e+00
    outer loop
      vertex 8.029707e+01 6.514177e+01 -9.498000e+02
      vertex 8.052598e+01 3.769368e+01 -9.498000e+02
      vertex 1.244000e+02 6.514177e+01 -9.498000e+02
    endloop
  endfacet
  facet normal -8.838744e-15 -1.072314e-14 1.000000e+00
    outer loop
      vertex 1.073474e+02 3.678967e+01 -9.498000e+02
      vertex 1.244000e+02 6.514177e+01 -9.498000e+02
      vertex 8.052598e+01 3.769368e+01 -9.498000e+02
    endloop
  endfacet
  facet normal -6.666826e-15 -1.202946e-14 1.000000e+00
    outer loop
      vertex 1.073474e+02 3.678967e+01 -9.498000e+02
      vertex 1.073474e+02 8.437561e+00 -9.498000e+02
      vertex 1.244000e+02 6.514177e+01 -9.498000e+02
    endloop
  endfacet
  facet normal 9.970405e-01 -5.153863e-02 5.704450e-02
    outer loop
      vertex 1.237301e+02 -4.040000e+01 -9.566000e+02
      vertex 1.244000e+02 -1.991454e+01 -9.498000e+02
      vertex 1.233092e+02 -4.101745e+01 -9.498000e+02
    endloop
  endfacet
  facet normal -1.031105e-14 -1.021149e-14 1.000000e+00
    outer loop
      vertex 1.073474e+02 8.437561e+00 -9.498000e+02
      vertex 8.029707e+01 -1.991454e+01 -9.498000e+02
      vertex 1.244000e+02 -1.991454e+01 -9.498000e+02
    endloop
  endfacet
  facet normal 9.994658e-01 -3.268243e-02 1.451391e-15
    outer loop
      vertex 1.244000e+02 -1.991454e+01 -9.566000e+02
      vertex 1.244000e+02 -1.991454e+01 -9.498000e+02
      vertex 1.237301e+02 -4.040000e+01 -9.566000e+02
    endloop
  endfacet
  facet normal 1.000000e+00 3.508593e-15 -1.564238e-28
    outer loop
      vertex 1.244000e+02 6.514177e+01 -9.566000e+02
      vertex 1.244000e+02 -1.991454e+01 -9.498000e+02
      vertex 1.244000e+02 -1.991454e+01 -9.566000e+02
    endloop
  endfacet
  facet normal -1.050698e-14 -3.169297e-14 1.000000e+00
    outer loop
      vertex 5.324675e+01 -4.290000e+01 -9.498000e+02
      vertex 1.073474e+02 -4.290000e+01 -9.498000e+02
      vertex 1.233092e+02 -4.101745e+01 -9.498000e+02
    endloop
  endfacet
  facet normal 1.171294e-01 -9.931167e-01 -1.373518e-14
    outer loop
      vertex 1.073474e+02 -4.290000e+01 -9.566000e+02
      vertex 1.233092e+02 -4.101745e+01 -9.498000e+02
      vertex 1.073474e+02 -4.290000e+01 -9.498000e+02
    endloop
  endfacet
  facet normal 1.503677e-01 -9.853747e-01 -8.016441e-02
    outer loop
      vertex 1.237301e+02 -4.040000e+01 -9.566000e+02
      vertex 1.233092e+02 -4.101745e+01 -9.498000e+02
      vertex 1.073474e+02 -4.290000e+01 -9.566000e+02
    endloop
  endfacet
  facet normal 3.808780e-15 -1.000000e+00 -1.358391e-14
    outer loop
      vertex 1.073474e+02 -4.290000e+01 -9.566000e+02
      vertex 1.073474e+02 -4.290000e+01 -9.498000e+02
      vertex 5.324675e+01 -4.290000e+01 -9.498000e+02
    endloop
  endfacet
  facet normal 3.677443e-15 -1.000000e+00 -1.462882e-14
    outer loop
      vertex 1.073474e+02 -4.290000e+01 -9.566000e+02
      vertex 5.324675e+01 -4.290000e+01 -9.498000e+02
      vertex 5.324675e+01 -4.290000e+01 -9.566000e+02
    endloop
  endfacet
  facet normal 1.919800e-01 1.601076e-03 9.813975e-01
    outer loop
      vertex 5.861446e+01 2.930225e+01 -9.455000e+02
      vertex 8.052598e+01 3.769368e+01 -9.498000e+02
      vertex 8.029707e+01 6.514177e+01 -9.498000e+02
    endloop
  endfacet
  facet normal 2.832682e-01 -2.677689e-01 9.209012e-01
    outer loop
      vertex 5.861446e+01 2.930225e+01 -9.455000e+02
      vertex 5.268996e+01 8.246410e+00 -9.498000e+02
      vertex 8.052598e+01 3.769368e+01 -9.498000e+02
    endloop
  endfacet
  facet normal -1.191394e-01 1.126206e-01 9.864697e-01
    outer loop
      vertex 7.806473e+01 -2.574731e+00 -9.455000e+02
      vertex 8.052598e+01 3.769368e+01 -9.498000e+02
      vertex 5.268996e+01 8.246410e+00 -9.498000e+02
    endloop
  endfacet
  facet normal 3.571477e-03 1.059633e-01 9.943636e-01
    outer loop
      vertex 7.806473e+01 -2.574731e+00 -9.455000e+02
      vertex 1.073474e+02 3.678967e+01 -9.498000e+02
      vertex 8.052598e+01 3.769368e+01 -9.498000e+02
    endloop
  endfacet
  facet normal -8.353992e-15 1.191250e-01 9.928793e-01
    outer loop
      vertex 5.861446e+01 2.930225e+01 -9.455000e+02
      vertex 8.029707e+01 6.514177e+01 -9.498000e+02
      vertex 5.324675e+01 6.514177e+01 -9.498000e+02
    endloop
  endfacet
  facet normal -1.074850e-01 1.025499e-01 9.889037e-01
    outer loop
      vertex 5.861446e+01 2.930225e+01 -9.455000e+02
      vertex 5.324675e+01 6.514177e+01 -9.498000e+02
      vertex 2.619644e+01 3.678967e+01 -9.498000e+02
    endloop
  endfacet
  facet normal -1.314906e-01 -7.939458e-15 9.913174e-01
    outer loop
      vertex 5.861446e+01 2.930225e+01 -9.455000e+02
      vertex 2.619644e+01 3.678967e+01 -9.498000e+02
      vertex 2.619644e+01 8.437561e+00 -9.498000e+02
    endloop
  endfacet
  facet normal -1.440835e-03 -1.996997e-01 9.798561e-01
    outer loop
      vertex 5.861446e+01 2.930225e+01 -9.455000e+02
      vertex 2.619644e+01 8.437561e+00 -9.498000e+02
      vertex 5.268996e+01 8.246410e+00 -9.498000e+02
    endloop
  endfacet
  facet normal -1.684573e-01 -3.330735e-03 9.857033e-01
    outer loop
      vertex 7.806473e+01 -2.574731e+00 -9.455000e+02
      vertex 5.268996e+01 8.246410e+00 -9.498000e+02
      vertex 5.324675e+01 -1.991454e+01 -9.498000e+02
    endloop
  endfacet
  facet normal -1.217432e-14 -2.406938e-01 9.706011e-01
    outer loop
      vertex 7.806473e+01 -2.574731e+00 -9.455000e+02
      vertex 5.324675e+01 -1.991454e+01 -9.498000e+02
      vertex 8.029707e+01 -1.991454e+01 -9.498000e+02
    endloop
  endfacet
  facet normal 2.183392e-01 -2.083141e-01 9.533799e-01
    outer loop
      vertex 7.806473e+01 -2.574731e+00 -9.455000e+02
      vertex 8.029707e+01 -1.991454e+01 -9.498000e+02
      vertex 1.073474e+02 8.437561e+00 -9.498000e+02
    endloop
  endfacet
  facet normal 1.452866e-01 -1.320950e-14 9.893896e-01
    outer loop
      vertex 7.806473e+01 -2.574731e+00 -9.455000e+02
      vertex 1.073474e+02 8.437561e+00 -9.498000e+02
      vertex 1.073474e+02 3.678967e+01 -9.498000e+02
    endloop
  endfacet
  facet normal -4.988006e-01 2.451145e-01 -8.313344e-01
    outer loop
      vertex 2.876079e+01 7.401585e+01 -9.566000e+02
      vertex 2.640000e+01 6.514177e+01 -9.578000e+02
      vertex 2.440000e+01 6.514177e+01 -9.566000e+02
    endloop
  endfacet
  facet normal -7.972522e-15 1.672888e-14 -1.000000e+00
    outer loop
      vertex 2.876079e+01 7.401585e+01 -9.566000e+02
      vertex 2.440000e+01 6.514177e+01 -9.566000e+02
      vertex 2.586447e+01 7.263554e+01 -9.566000e+02
    endloop
  endfacet
  facet normal -4.609698e-04 1.341261e-01 -9.909642e-01
    outer loop
      vertex 5.324675e+01 7.410000e+01 -9.566000e+02
      vertex 2.640000e+01 6.514177e+01 -9.578000e+02
      vertex 2.876079e+01 7.401585e+01 -9.566000e+02
    endloop
  endfacet
  facet normal 6.304188e-15 1.669250e-14 -1.000000e+00
    outer loop
      vertex 1.073474e+02 -1.991454e+01 -9.578000e+02
      vertex 5.324675e+01 -1.991454e+01 -9.578000e+02
      vertex 2.640000e+01 6.514177e+01 -9.578000e+02
    endloop
  endfacet
  facet normal 1.404454e-15 1.202946e-14 -1.000000e+00
    outer loop
      vertex 1.073474e+02 6.514177e+01 -9.578000e+02
      vertex 1.073474e+02 -1.991454e+01 -9.578000e+02
      vertex 2.640000e+01 6.514177e+01 -9.578000e+02
    endloop
  endfacet
  facet normal 1.345095e-15 1.327691e-01 -9.911470e-01
    outer loop
      vertex 1.073474e+02 7.410000e+01 -9.566000e+02
      vertex 1.073474e+02 6.514177e+01 -9.578000e+02
      vertex 2.640000e+01 6.514177e+01 -9.578000e+02
    endloop
  endfacet
  facet normal -5.231259e-16 1.327691e-01 -9.911470e-01
    outer loop
      vertex 1.073474e+02 7.410000e+01 -9.566000e+02
      vertex 2.640000e+01 6.514177e+01 -9.578000e+02
      vertex 5.324675e+01 7.410000e+01 -9.566000e+02
    endloop
  endfacet
  facet normal 6.292190e-15 -5.213592e-02 -9.986400e-01
    outer loop
      vertex 1.073474e+02 -1.991454e+01 -9.578000e+02
      vertex 5.324675e+01 -4.290000e+01 -9.566000e+02
      vertex 5.324675e+01 -1.991454e+01 -9.578000e+02
    endloop
  endfacet
  facet normal 1.917269e-16 -5.213592e-02 -9.986400e-01
    outer loop
      vertex 1.073474e+02 -4.290000e+01 -9.566000e+02
      vertex 5.324675e+01 -4.290000e+01 -9.566000e+02
      vertex 1.073474e+02 -1.991454e+01 -9.578000e+02
    endloop
  endfacet
  facet normal 7.019683e-02 1.199941e-14 -9.975332e-01
    outer loop
      vertex 1.244000e+02 -1.991454e+01 -9.566000e+02
      vertex 1.073474e+02 -1.991454e+01 -9.578000e+02
      vertex 1.073474e+02 6.514177e+01 -9.578000e+02
    endloop
  endfacet
  facet normal 7.010183e-02 -5.200766e-02 -9.961832e-01
    outer loop
      vertex 1.244000e+02 -1.991454e+01 -9.566000e+02
      vertex 1.073474e+02 -4.290000e+01 -9.566000e+02
      vertex 1.073474e+02 -1.991454e+01 -9.578000e+02
    endloop
  endfacet
  facet normal 6.111422e-03 1.327666e-01 -9.911285e-01
    outer loop
      vertex 1.219000e+02 7.343012e+01 -9.566000e+02
      vertex 1.073474e+02 6.514177e+01 -9.578000e+02
      vertex 1.073474e+02 7.410000e+01 -9.566000e+02
    endloop
  endfacet
  facet normal 7.019683e-02 1.491270e-14 -9.975332e-01
    outer loop
      vertex 1.244000e+02 6.514177e+01 -9.566000e+02
      vertex 1.244000e+02 -1.991454e+01 -9.566000e+02
      vertex 1.073474e+02 6.514177e+01 -9.578000e+02
    endloop
  endfacet
  facet normal 7.018110e-02 2.116859e-02 -9.973096e-01
    outer loop
      vertex 1.219000e+02 7.343012e+01 -9.566000e+02
      vertex 1.244000e+02 6.514177e+01 -9.566000e+02
      vertex 1.073474e+02 6.514177e+01 -9.578000e+02
    endloop
  endfacet
  facet normal -1.702238e-15 1.115494e-14 -1.000000e+00
    outer loop
      vertex 1.244000e+02 -1.991454e+01 -9.566000e+02
      vertex 1.237301e+02 -4.040000e+01 -9.566000e+02
      vertex 1.073474e+02 -4.290000e+01 -9.566000e+02
    endloop
  endfacet
endsolid SIM_ECUB_L_FOOT_REAR
