solid SIM_ECUB_L_FOOT_FRONT
  facet normal -9.999634e-01 -5.607194e-03 -6.469723e-03
    outer loop
      vertex 2.452536e+01 -1.582626e+02 -9.498000e+02
      vertex 2.440000e+01 -1.359067e+02 -9.498000e+02
      vertex 2.457037e+01 -1.584441e+02 -9.566000e+02
    endloop
  endfacet
  facet normal -9.999714e-01 -7.559303e-03 3.159534e-16
    outer loop
      vertex 2.440000e+01 -1.359067e+02 -9.566000e+02
      vertex 2.457037e+01 -1.584441e+02 -9.566000e+02
      vertex 2.440000e+01 -1.359067e+02 -9.498000e+02
    endloop
  endfacet
  facet normal -7.797531e-01 -6.259807e-01 1.154574e-02
    outer loop
      vertex 2.725568e+01 -1.616636e+02 -9.498000e+02
      vertex 2.452536e+01 -1.582626e+02 -9.498000e+02
      vertex 2.457037e+01 -1.584441e+02 -9.566000e+02
    endloop
  endfacet
  facet normal -5.144919e-01 -3.889311e-03 -8.574864e-01
    outer loop
      vertex 2.640000e+01 -1.359067e+02 -9.578000e+02
      vertex 2.457037e+01 -1.584441e+02 -9.566000e+02
      vertex 2.440000e+01 -1.359067e+02 -9.566000e+02
    endloop
  endfacet
  facet normal -3.919583e-01 -8.816901e-01 -2.626618e-01
    outer loop
      vertex 2.825372e+01 -1.597241e+02 -9.578000e+02
      vertex 2.725568e+01 -1.616636e+02 -9.498000e+02
      vertex 2.457037e+01 -1.584441e+02 -9.566000e+02
    endloop
  endfacet
  facet normal -3.174224e-01 -2.470514e-02 -9.479624e-01
    outer loop
      vertex 2.640000e+01 -1.359067e+02 -9.578000e+02
      vertex 2.825372e+01 -1.597241e+02 -9.578000e+02
      vertex 2.457037e+01 -1.584441e+02 -9.566000e+02
    endloop
  endfacet
  facet normal -9.654651e-28 -1.525594e-14 1.000000e+00
    outer loop
      vertex 2.619644e+01 -1.359067e+02 -9.498000e+02
      vertex 2.440000e+01 -1.359067e+02 -9.498000e+02
      vertex 2.452536e+01 -1.582626e+02 -9.498000e+02
    endloop
  endfacet
  facet normal -1.000000e+00 -4.847057e-15 1.994739e-28
    outer loop
      vertex 2.440000e+01 -5.015000e+01 -9.498000e+02
      vertex 2.440000e+01 -1.359067e+02 -9.566000e+02
      vertex 2.440000e+01 -1.359067e+02 -9.498000e+02
    endloop
  endfacet
  facet normal -4.072480e-14 -1.325691e-14 1.000000e+00
    outer loop
      vertex 2.619644e+01 -1.071226e+02 -9.498000e+02
      vertex 2.440000e+01 -5.015000e+01 -9.498000e+02
      vertex 2.440000e+01 -1.359067e+02 -9.498000e+02
    endloop
  endfacet
  facet normal -9.998060e-28 -1.579858e-14 1.000000e+00
    outer loop
      vertex 2.619644e+01 -1.359067e+02 -9.498000e+02
      vertex 2.619644e+01 -1.071226e+02 -9.498000e+02
      vertex 2.440000e+01 -1.359067e+02 -9.498000e+02
    endloop
  endfacet
  facet normal -1.730725e-14 -1.389415e-14 1.000000e+00
    outer loop
      vertex 1.239048e+02 -1.593194e+02 -9.498000e+02
      vertex 2.452536e+01 -1.582626e+02 -9.498000e+02
      vertex 2.725568e+01 -1.616636e+02 -9.498000e+02
    endloop
  endfacet
  facet normal -1.731052e-14 -1.420121e-14 1.000000e+00
    outer loop
      vertex 1.239048e+02 -1.593194e+02 -9.498000e+02
      vertex 1.244000e+02 -1.359067e+02 -9.498000e+02
      vertex 2.452536e+01 -1.582626e+02 -9.498000e+02
    endloop
  endfacet
  facet normal -1.804433e-14 -1.092293e-14 1.000000e+00
    outer loop
      vertex 8.029707e+01 -1.359067e+02 -9.498000e+02
      vertex 2.452536e+01 -1.582626e+02 -9.498000e+02
      vertex 1.244000e+02 -1.359067e+02 -9.498000e+02
    endloop
  endfacet
  facet normal -1.681117e-14 -1.399932e-14 1.000000e+00
    outer loop
      vertex 5.324675e+01 -1.359067e+02 -9.498000e+02
      vertex 2.619644e+01 -1.359067e+02 -9.498000e+02
      vertex 2.452536e+01 -1.582626e+02 -9.498000e+02
    endloop
  endfacet
  facet normal -1.681117e-14 -1.399932e-14 1.000000e+00
    outer loop
      vertex 8.029707e+01 -1.359067e+02 -9.498000e+02
      vertex 5.324675e+01 -1.359067e+02 -9.498000e+02
      vertex 2.452536e+01 -1.582626e+02 -9.498000e+02
    endloop
  endfacet
  facet normal -5.144958e-01 9.377181e-15 -8.574929e-01
    outer loop
      vertex 2.440000e+01 -7.833854e+01 -9.566000e+02
      vertex 2.640000e+01 -1.359067e+02 -9.578000e+02
      vertex 2.440000e+01 -1.359067e+02 -9.566000e+02
    endloop
  endfacet
  facet normal -1.000000e+00 -4.813629e-15 -4.215652e-16
    outer loop
      vertex 2.440000e+01 -7.833854e+01 -9.566000e+02
      vertex 2.440000e+01 -1.359067e+02 -9.566000e+02
      vertex 2.440000e+01 -5.015000e+01 -9.498000e+02
    endloop
  endfacet
  facet normal -1.817349e-02 -9.711630e-01 -2.377227e-01
    outer loop
      vertex 5.324675e+01 -1.621500e+02 -9.498000e+02
      vertex 2.725568e+01 -1.616636e+02 -9.498000e+02
      vertex 2.825372e+01 -1.597241e+02 -9.578000e+02
    endloop
  endfacet
  facet normal -1.756073e-14 -3.443670e-15 1.000000e+00
    outer loop
      vertex 5.324675e+01 -1.621500e+02 -9.498000e+02
      vertex 1.239048e+02 -1.593194e+02 -9.498000e+02
      vertex 2.725568e+01 -1.616636e+02 -9.498000e+02
    endloop
  endfacet
  facet normal 4.391067e-15 1.466158e-14 -1.000000e+00
    outer loop
      vertex 1.073474e+02 -1.601500e+02 -9.578000e+02
      vertex 2.825372e+01 -1.597241e+02 -9.578000e+02
      vertex 2.640000e+01 -1.359067e+02 -9.578000e+02
    endloop
  endfacet
  facet normal -1.653160e-02 -9.700099e-01 -2.425025e-01
    outer loop
      vertex 5.324675e+01 -1.601500e+02 -9.578000e+02
      vertex 5.324675e+01 -1.621500e+02 -9.498000e+02
      vertex 2.825372e+01 -1.597241e+02 -9.578000e+02
    endloop
  endfacet
  facet normal 6.304188e-15 3.699052e-13 -1.000000e+00
    outer loop
      vertex 1.073474e+02 -1.601500e+02 -9.578000e+02
      vertex 5.324675e+01 -1.601500e+02 -9.578000e+02
      vertex 2.825372e+01 -1.597241e+02 -9.578000e+02
    endloop
  endfacet
  facet normal -5.144958e-01 9.377181e-15 -8.574929e-01
    outer loop
      vertex 2.640000e+01 -7.833854e+01 -9.578000e+02
      vertex 2.640000e+01 -1.359067e+02 -9.578000e+02
      vertex 2.440000e+01 -7.833854e+01 -9.566000e+02
    endloop
  endfacet
  facet normal 4.140143e-15 1.382376e-14 -1.000000e+00
    outer loop
      vertex 1.073474e+02 -1.601500e+02 -9.578000e+02
      vertex 2.640000e+01 -1.359067e+02 -9.578000e+02
      vertex 2.640000e+01 -7.833854e+01 -9.578000e+02
    endloop
  endfacet
  facet normal -1.730990e-14 -3.041093e-14 1.000000e+00
    outer loop
      vertex 1.215694e+02 -4.564516e+01 -9.498000e+02
      vertex 2.549084e+01 -4.703255e+01 -9.498000e+02
      vertex 2.440000e+01 -5.015000e+01 -9.498000e+02
    endloop
  endfacet
  facet normal -9.438832e-01 3.302794e-01 4.338459e-15
    outer loop
      vertex 2.440000e+01 -5.015000e+01 -9.566000e+02
      vertex 2.440000e+01 -5.015000e+01 -9.498000e+02
      vertex 2.549084e+01 -4.703255e+01 -9.498000e+02
    endloop
  endfacet
  facet normal -1.818989e-14 -1.142947e-14 1.000000e+00
    outer loop
      vertex 1.244000e+02 -5.015000e+01 -9.498000e+02
      vertex 1.215694e+02 -4.564516e+01 -9.498000e+02
      vertex 2.440000e+01 -5.015000e+01 -9.498000e+02
    endloop
  endfacet
  facet normal -1.818989e-14 -1.269600e-14 1.000000e+00
    outer loop
      vertex 5.007535e+01 -7.798121e+01 -9.498000e+02
      vertex 1.244000e+02 -5.015000e+01 -9.498000e+02
      vertex 2.440000e+01 -5.015000e+01 -9.498000e+02
    endloop
  endfacet
  facet normal -1.802193e-14 -1.254105e-14 1.000000e+00
    outer loop
      vertex 2.619644e+01 -1.071226e+02 -9.498000e+02
      vertex 5.007535e+01 -7.798121e+01 -9.498000e+02
      vertex 2.440000e+01 -5.015000e+01 -9.498000e+02
    endloop
  endfacet
  facet normal -1.000000e+00 -4.789290e-15 -5.224579e-16
    outer loop
      vertex 2.440000e+01 -5.015000e+01 -9.566000e+02
      vertex 2.440000e+01 -7.833854e+01 -9.566000e+02
      vertex 2.440000e+01 -5.015000e+01 -9.498000e+02
    endloop
  endfacet
  facet normal -1.732513e-14 -2.935626e-14 1.000000e+00
    outer loop
      vertex 1.215694e+02 -4.564516e+01 -9.498000e+02
      vertex 2.894904e+01 -4.520081e+01 -9.498000e+02
      vertex 2.549084e+01 -4.703255e+01 -9.498000e+02
    endloop
  endfacet
  facet normal -4.678824e-01 8.833278e-01 2.860289e-02
    outer loop
      vertex 2.586447e+01 -4.661446e+01 -9.566000e+02
      vertex 2.549084e+01 -4.703255e+01 -9.498000e+02
      vertex 2.894904e+01 -4.520081e+01 -9.498000e+02
    endloop
  endfacet
  facet normal -9.235373e-01 3.825413e-01 -2.722319e-02
    outer loop
      vertex 2.586447e+01 -4.661446e+01 -9.566000e+02
      vertex 2.440000e+01 -5.015000e+01 -9.566000e+02
      vertex 2.549084e+01 -4.703255e+01 -9.498000e+02
    endloop
  endfacet
  facet normal -1.891256e-14 2.331651e-12 1.000000e+00
    outer loop
      vertex 1.073474e+02 -4.515000e+01 -9.498000e+02
      vertex 5.324675e+01 -4.515000e+01 -9.498000e+02
      vertex 2.894904e+01 -4.520081e+01 -9.498000e+02
    endloop
  endfacet
  facet normal -2.091088e-03 9.999709e-01 7.333185e-03
    outer loop
      vertex 2.940000e+01 -4.515000e+01 -9.566000e+02
      vertex 2.894904e+01 -4.520081e+01 -9.498000e+02
      vertex 5.324675e+01 -4.515000e+01 -9.498000e+02
    endloop
  endfacet
  facet normal -1.737557e-14 -3.987108e-14 1.000000e+00
    outer loop
      vertex 1.215694e+02 -4.564516e+01 -9.498000e+02
      vertex 1.073474e+02 -4.515000e+01 -9.498000e+02
      vertex 2.894904e+01 -4.520081e+01 -9.498000e+02
    endloop
  endfacet
  facet normal -3.826173e-01 9.237222e-01 -1.847213e-02
    outer loop
      vertex 2.940000e+01 -4.515000e+01 -9.566000e+02
      vertex 2.586447e+01 -4.661446e+01 -9.566000e+02
      vertex 2.894904e+01 -4.520081e+01 -9.498000e+02
    endloop
  endfacet
  facet normal -4.728141e-15 1.000000e+00 1.462882e-14
    outer loop
      vertex 5.324675e+01 -4.515000e+01 -9.566000e+02
      vertex 5.324675e+01 -4.515000e+01 -9.498000e+02
      vertex 1.073474e+02 -4.515000e+01 -9.498000e+02
    endloop
  endfacet
  facet normal -4.767393e-15 1.000000e+00 1.462882e-14
    outer loop
      vertex 5.324675e+01 -4.515000e+01 -9.566000e+02
      vertex 2.940000e+01 -4.515000e+01 -9.566000e+02
      vertex 5.324675e+01 -4.515000e+01 -9.498000e+02
    endloop
  endfacet
  facet normal 3.479498e-02 9.993945e-01 1.461996e-14
    outer loop
      vertex 1.073474e+02 -4.515000e+01 -9.566000e+02
      vertex 1.073474e+02 -4.515000e+01 -9.498000e+02
      vertex 1.215694e+02 -4.564516e+01 -9.498000e+02
    endloop
  endfacet
  facet normal -4.728141e-15 1.000000e+00 1.462882e-14
    outer loop
      vertex 1.073474e+02 -4.515000e+01 -9.566000e+02
      vertex 5.324675e+01 -4.515000e+01 -9.566000e+02
      vertex 1.073474e+02 -4.515000e+01 -9.498000e+02
    endloop
  endfacet
  facet normal 8.467242e-01 5.320321e-01 3.335572e-15
    outer loop
      vertex 1.244000e+02 -5.015000e+01 -9.566000e+02
      vertex 1.215694e+02 -4.564516e+01 -9.498000e+02
      vertex 1.244000e+02 -5.015000e+01 -9.498000e+02
    endloop
  endfacet
  facet normal 4.597000e-02 9.986681e-01 -2.342518e-02
    outer loop
      vertex 1.219000e+02 -4.581988e+01 -9.566000e+02
      vertex 1.073474e+02 -4.515000e+01 -9.566000e+02
      vertex 1.215694e+02 -4.564516e+01 -9.498000e+02
    endloop
  endfacet
  facet normal 8.656549e-01 4.997864e-01 2.924214e-02
    outer loop
      vertex 1.219000e+02 -4.581988e+01 -9.566000e+02
      vertex 1.215694e+02 -4.564516e+01 -9.498000e+02
      vertex 1.244000e+02 -5.015000e+01 -9.566000e+02
    endloop
  endfacet
  facet normal -1.794796e-14 -1.458260e-14 1.000000e+00
    outer loop
      vertex 1.073474e+02 -1.071226e+02 -9.498000e+02
      vertex 1.244000e+02 -1.359067e+02 -9.498000e+02
      vertex 1.244000e+02 -5.015000e+01 -9.498000e+02
    endloop
  endfacet
  facet normal 1.000000e+00 4.971340e-15 3.116779e-29
    outer loop
      vertex 1.244000e+02 -5.015000e+01 -9.566000e+02
      vertex 1.244000e+02 -5.015000e+01 -9.498000e+02
      vertex 1.244000e+02 -1.359067e+02 -9.498000e+02
    endloop
  endfacet
  facet normal -1.681117e-14 -1.806172e-14 1.000000e+00
    outer loop
      vertex 8.029707e+01 -7.833854e+01 -9.498000e+02
      vertex 1.073474e+02 -7.833854e+01 -9.498000e+02
      vertex 1.244000e+02 -5.015000e+01 -9.498000e+02
    endloop
  endfacet
  facet normal -2.708110e-14 -1.184893e-14 1.000000e+00
    outer loop
      vertex 1.073474e+02 -1.071226e+02 -9.498000e+02
      vertex 1.244000e+02 -5.015000e+01 -9.498000e+02
      vertex 1.073474e+02 -7.833854e+01 -9.498000e+02
    endloop
  endfacet
  facet normal -1.528876e-14 -2.044363e-14 1.000000e+00
    outer loop
      vertex 5.007535e+01 -7.798121e+01 -9.498000e+02
      vertex 8.029707e+01 -7.833854e+01 -9.498000e+02
      vertex 1.244000e+02 -5.015000e+01 -9.498000e+02
    endloop
  endfacet
  facet normal 9.994726e-01 -2.113782e-02 -2.465250e-02
    outer loop
      vertex 1.237301e+02 -1.596500e+02 -9.566000e+02
      vertex 1.244000e+02 -1.359067e+02 -9.498000e+02
      vertex 1.239048e+02 -1.593194e+02 -9.498000e+02
    endloop
  endfacet
  facet normal -1.804433e-14 -1.463969e-14 1.000000e+00
    outer loop
      vertex 1.073474e+02 -1.071226e+02 -9.498000e+02
      vertex 8.029707e+01 -1.359067e+02 -9.498000e+02
      vertex 1.244000e+02 -1.359067e+02 -9.498000e+02
    endloop
  endfacet
  facet normal 9.996022e-01 -2.820186e-02 1.178743e-15
    outer loop
      vertex 1.244000e+02 -1.359067e+02 -9.566000e+02
      vertex 1.244000e+02 -1.359067e+02 -9.498000e+02
      vertex 1.237301e+02 -1.596500e+02 -9.566000e+02
    endloop
  endfacet
  facet normal 1.000000e+00 4.971340e-15 -2.105557e-28
    outer loop
      vertex 1.244000e+02 -5.015000e+01 -9.566000e+02
      vertex 1.244000e+02 -1.359067e+02 -9.498000e+02
      vertex 1.244000e+02 -1.359067e+02 -9.566000e+02
    endloop
  endfacet
  facet normal -1.681117e-14 -2.215454e-14 1.000000e+00
    outer loop
      vertex 5.324675e+01 -1.621500e+02 -9.498000e+02
      vertex 1.073474e+02 -1.621500e+02 -9.498000e+02
      vertex 1.239048e+02 -1.593194e+02 -9.498000e+02
    endloop
  endfacet
  facet normal 1.636158e-01 -9.570690e-01 -2.392672e-01
    outer loop
      vertex 1.073474e+02 -1.601500e+02 -9.578000e+02
      vertex 1.239048e+02 -1.593194e+02 -9.498000e+02
      vertex 1.073474e+02 -1.621500e+02 -9.498000e+02
    endloop
  endfacet
  facet normal 2.696904e-02 -9.984905e-01 4.784863e-02
    outer loop
      vertex 1.237301e+02 -1.596500e+02 -9.566000e+02
      vertex 1.239048e+02 -1.593194e+02 -9.498000e+02
      vertex 1.073474e+02 -1.601500e+02 -9.578000e+02
    endloop
  endfacet
  facet normal 8.664277e-15 -9.701425e-01 -2.425356e-01
    outer loop
      vertex 1.073474e+02 -1.601500e+02 -9.578000e+02
      vertex 1.073474e+02 -1.621500e+02 -9.498000e+02
      vertex 5.324675e+01 -1.621500e+02 -9.498000e+02
    endloop
  endfacet
  facet normal 5.606297e-15 -9.701425e-01 -2.425356e-01
    outer loop
      vertex 1.073474e+02 -1.601500e+02 -9.578000e+02
      vertex 5.324675e+01 -1.621500e+02 -9.498000e+02
      vertex 5.324675e+01 -1.601500e+02 -9.578000e+02
    endloop
  endfacet
  facet normal -1.596796e-14 -6.931576e-02 9.975948e-01
    outer loop
      vertex 8.029707e+01 -1.071226e+02 -9.518000e+02
      vertex 1.073474e+02 -7.833854e+01 -9.498000e+02
      vertex 8.029707e+01 -7.833854e+01 -9.498000e+02
    endloop
  endfacet
  facet normal -7.373503e-02 -1.233165e-14 9.972779e-01
    outer loop
      vertex 8.029707e+01 -1.071226e+02 -9.518000e+02
      vertex 1.073474e+02 -1.071226e+02 -9.498000e+02
      vertex 1.073474e+02 -7.833854e+01 -9.498000e+02
    endloop
  endfacet
  facet normal 2.474508e-03 2.092845e-01 9.778517e-01
    outer loop
      vertex 5.564419e+01 -9.813818e+01 -9.455000e+02
      vertex 8.029707e+01 -7.833854e+01 -9.498000e+02
      vertex 5.007535e+01 -7.798121e+01 -9.498000e+02
    endloop
  endfacet
  facet normal 2.238444e-01 -6.755686e-02 9.722807e-01
    outer loop
      vertex 8.029707e+01 -1.071226e+02 -9.518000e+02
      vertex 8.029707e+01 -7.833854e+01 -9.498000e+02
      vertex 5.564419e+01 -9.813818e+01 -9.455000e+02
    endloop
  endfacet
  facet normal -1.888061e-01 1.547107e-01 9.697509e-01
    outer loop
      vertex 5.564419e+01 -9.813818e+01 -9.455000e+02
      vertex 5.007535e+01 -7.798121e+01 -9.498000e+02
      vertex 2.619644e+01 -1.071226e+02 -9.498000e+02
    endloop
  endfacet
  facet normal -1.444890e-01 -1.562735e-14 9.895064e-01
    outer loop
      vertex 5.564419e+01 -9.813818e+01 -9.455000e+02
      vertex 2.619644e+01 -1.071226e+02 -9.498000e+02
      vertex 2.619644e+01 -1.359067e+02 -9.498000e+02
    endloop
  endfacet
  facet normal -1.683328e-14 -1.131207e-01 9.935813e-01
    outer loop
      vertex 5.564419e+01 -9.813818e+01 -9.455000e+02
      vertex 2.619644e+01 -1.359067e+02 -9.498000e+02
      vertex 5.324675e+01 -1.359067e+02 -9.498000e+02
    endloop
  endfacet
  facet normal -1.684192e-14 6.931576e-02 9.975948e-01
    outer loop
      vertex 8.029707e+01 -1.071226e+02 -9.518000e+02
      vertex 5.324675e+01 -1.359067e+02 -9.498000e+02
      vertex 8.029707e+01 -1.359067e+02 -9.498000e+02
    endloop
  endfacet
  facet normal 2.032155e-01 -1.234853e-01 9.713160e-01
    outer loop
      vertex 8.029707e+01 -1.071226e+02 -9.518000e+02
      vertex 5.564419e+01 -9.813818e+01 -9.455000e+02
      vertex 5.324675e+01 -1.359067e+02 -9.498000e+02
    endloop
  endfacet
  facet normal -7.355864e-02 6.912797e-02 9.948922e-01
    outer loop
      vertex 8.029707e+01 -1.071226e+02 -9.518000e+02
      vertex 8.029707e+01 -1.359067e+02 -9.498000e+02
      vertex 1.073474e+02 -1.071226e+02 -9.498000e+02
    endloop
  endfacet
  facet normal -4.892672e-01 8.209058e-15 -8.721339e-01
    outer loop
      vertex 2.653904e+01 -4.969638e+01 -9.578000e+02
      vertex 2.440000e+01 -7.833854e+01 -9.566000e+02
      vertex 2.440000e+01 -5.015000e+01 -9.566000e+02
    endloop
  endfacet
  facet normal -5.144941e-01 2.497499e-03 -8.574903e-01
    outer loop
      vertex 2.653904e+01 -4.969638e+01 -9.578000e+02
      vertex 2.640000e+01 -7.833854e+01 -9.578000e+02
      vertex 2.440000e+01 -7.833854e+01 -9.566000e+02
    endloop
  endfacet
  facet normal -5.017171e-01 5.017171e-01 -7.046700e-01
    outer loop
      vertex 2.940000e+01 -4.515000e+01 -9.566000e+02
      vertex 2.653904e+01 -4.969638e+01 -9.578000e+02
      vertex 2.440000e+01 -5.015000e+01 -9.566000e+02
    endloop
  endfacet
  facet normal -1.607768e-14 3.881504e-14 -1.000000e+00
    outer loop
      vertex 2.940000e+01 -4.515000e+01 -9.566000e+02
      vertex 2.440000e+01 -5.015000e+01 -9.566000e+02
      vertex 2.586447e+01 -4.661446e+01 -9.566000e+02
    endloop
  endfacet
  facet normal 6.184812e-15 1.584683e-14 -1.000000e+00
    outer loop
      vertex 1.073474e+02 -1.601500e+02 -9.578000e+02
      vertex 2.640000e+01 -7.833854e+01 -9.578000e+02
      vertex 2.653904e+01 -4.969638e+01 -9.578000e+02
    endloop
  endfacet
  facet normal -1.216667e-15 2.552060e-01 -9.668867e-01
    outer loop
      vertex 5.324675e+01 -4.515000e+01 -9.566000e+02
      vertex 2.653904e+01 -4.969638e+01 -9.578000e+02
      vertex 2.940000e+01 -4.515000e+01 -9.566000e+02
    endloop
  endfacet
  facet normal 4.180295e-15 1.438032e-14 -1.000000e+00
    outer loop
      vertex 5.324675e+01 -4.955447e+01 -9.578000e+02
      vertex 1.073474e+02 -1.601500e+02 -9.578000e+02
      vertex 2.653904e+01 -4.969638e+01 -9.578000e+02
    endloop
  endfacet
  facet normal -1.396728e-03 2.628684e-01 -9.648307e-01
    outer loop
      vertex 5.324675e+01 -4.515000e+01 -9.566000e+02
      vertex 5.324675e+01 -4.955447e+01 -9.578000e+02
      vertex 2.653904e+01 -4.969638e+01 -9.578000e+02
    endloop
  endfacet
  facet normal 4.202792e-15 1.439132e-14 -1.000000e+00
    outer loop
      vertex 5.324675e+01 -4.955447e+01 -9.578000e+02
      vertex 1.073474e+02 -4.955447e+01 -9.578000e+02
      vertex 1.073474e+02 -1.601500e+02 -9.578000e+02
    endloop
  endfacet
  facet normal 7.019683e-02 1.433783e-14 -9.975332e-01
    outer loop
      vertex 1.244000e+02 -1.359067e+02 -9.566000e+02
      vertex 1.073474e+02 -1.601500e+02 -9.578000e+02
      vertex 1.073474e+02 -4.955447e+01 -9.578000e+02
    endloop
  endfacet
  facet normal 7.311455e-02 -2.062787e-03 -9.973214e-01
    outer loop
      vertex 1.244000e+02 -1.359067e+02 -9.566000e+02
      vertex 1.237301e+02 -1.596500e+02 -9.566000e+02
      vertex 1.073474e+02 -1.601500e+02 -9.578000e+02
    endloop
  endfacet
  facet normal 9.300021e-15 2.628686e-01 -9.648316e-01
    outer loop
      vertex 1.073474e+02 -4.515000e+01 -9.566000e+02
      vertex 1.073474e+02 -4.955447e+01 -9.578000e+02
      vertex 5.324675e+01 -4.955447e+01 -9.578000e+02
    endloop
  endfacet
  facet normal 1.209930e-02 2.628494e-01 -9.647610e-01
    outer loop
      vertex 1.219000e+02 -4.581988e+01 -9.566000e+02
      vertex 1.073474e+02 -4.955447e+01 -9.578000e+02
      vertex 1.073474e+02 -4.515000e+01 -9.566000e+02
    endloop
  endfacet
  facet normal 7.019683e-02 1.357318e-14 -9.975332e-01
    outer loop
      vertex 1.244000e+02 -5.015000e+01 -9.566000e+02
      vertex 1.244000e+02 -1.359067e+02 -9.566000e+02
      vertex 1.073474e+02 -4.955447e+01 -9.578000e+02
    endloop
  endfacet
  facet normal 7.157279e-02 4.132260e-02 -9.965790e-01
    outer loop
      vertex 1.219000e+02 -4.581988e+01 -9.566000e+02
      vertex 1.244000e+02 -5.015000e+01 -9.566000e+02
      vertex 1.073474e+02 -4.955447e+01 -9.578000e+02
    endloop
  endfacet
  facet normal -1.242880e-15 2.628686e-01 -9.648316e-01
    outer loop
      vertex 1.073474e+02 -4.515000e+01 -9.566000e+02
      vertex 5.324675e+01 -4.955447e+01 -9.578000e+02
      vertex 5.324675e+01 -4.515000e+01 -9.566000e+02
    endloop
  endfacet
endsolid SIM_ECUB_L_FOOT_FRONT
