solid SIM_ECUB_TORSO_1
  facet normal -9.606231e-01 -2.053401e-01 1.871865e-01
    outer loop
      vertex -3.720000e+01 -2.648293e+01 2.302872e+01
      vertex -4.620000e+01 2.880386e+00 9.052595e+00
      vertex -4.620000e+01 -8.748097e+00 -3.703635e+00
    endloop
  endfacet
  facet normal -1.000000e+00 0.000000e+00 0.000000e+00
    outer loop
      vertex -4.620000e+01 5.423890e+00 -7.796731e+00
      vertex -4.620000e+01 -8.748097e+00 -3.703635e+00
      vertex -4.620000e+01 2.880386e+00 9.052595e+00
    endloop
  endfacet
  facet normal -9.232148e-01 -3.797455e-01 5.888777e-02
    outer loop
      vertex -3.720000e+01 -3.221429e+01 -1.393072e+01
      vertex -3.720000e+01 -2.648293e+01 2.302872e+01
      vertex -4.620000e+01 -8.748097e+00 -3.703635e+00
    endloop
  endfacet
  facet normal -4.822323e-01 -2.430801e-01 -8.416437e-01
    outer loop
      vertex -3.720000e+01 9.652825e+00 -1.417480e+01
      vertex -4.620000e+01 -8.748097e+00 -3.703635e+00
      vertex -4.620000e+01 5.423890e+00 -7.796731e+00
    endloop
  endfacet
  facet normal -7.550355e-01 -3.822558e-03 -6.556728e-01
    outer loop
      vertex -3.720000e+01 9.652825e+00 -1.417480e+01
      vertex -3.720000e+01 -3.221429e+01 -1.393072e+01
      vertex -4.620000e+01 -8.748097e+00 -3.703635e+00
    endloop
  endfacet
  facet normal -8.962658e-01 -6.595505e-02 4.385859e-01
    outer loop
      vertex -3.720000e+01 9.652825e+00 2.846286e+01
      vertex -4.620000e+01 2.880386e+00 9.052595e+00
      vertex -3.720000e+01 -2.648293e+01 2.302872e+01
    endloop
  endfacet
  facet normal -9.941287e-01 1.069919e-01 1.615106e-02
    outer loop
      vertex -4.140280e+01 4.868571e+01 8.944849e-01
      vertex -4.620000e+01 5.423890e+00 -7.796731e+00
      vertex -4.620000e+01 2.880386e+00 9.052595e+00
    endloop
  endfacet
  facet normal -9.117980e-01 2.224735e-01 3.451521e-01
    outer loop
      vertex -3.367003e+01 5.507040e+01 8.513445e+00
      vertex -4.620000e+01 2.880386e+00 9.052595e+00
      vertex -3.720000e+01 9.652825e+00 2.846286e+01
    endloop
  endfacet
  facet normal -7.641432e-01 1.898269e-01 6.164827e-01
    outer loop
      vertex -3.367003e+01 5.507040e+01 8.513445e+00
      vertex -4.140280e+01 4.868571e+01 8.944849e-01
      vertex -4.620000e+01 2.880386e+00 9.052595e+00
    endloop
  endfacet
  facet normal -8.952014e-01 -4.403981e-01 6.829328e-02
    outer loop
      vertex -2.978771e+01 -5.037801e+01 -3.390000e+01
      vertex -3.720000e+01 -2.648293e+01 2.302872e+01
      vertex -3.720000e+01 -3.221429e+01 -1.393072e+01
    endloop
  endfacet
  facet normal -1.000000e+00 -5.280834e-16 -4.110288e-16
    outer loop
      vertex -3.720000e+01 4.736842e+00 3.477884e+01
      vertex -3.720000e+01 9.652825e+00 2.846286e+01
      vertex -3.720000e+01 -2.648293e+01 2.302872e+01
    endloop
  endfacet
  facet normal -7.595595e-01 5.585322e-01 -3.333334e-01
    outer loop
      vertex -3.720000e+01 -3.285456e+01 1.235244e+01
      vertex -3.720000e+01 -2.648293e+01 2.302872e+01
      vertex -2.978771e+01 -5.037801e+01 -3.390000e+01
    endloop
  endfacet
  facet normal 2.773782e-03 -8.586986e-01 5.124735e-01
    outer loop
      vertex 2.872894e+00 -2.636548e+01 2.300862e+01
      vertex -3.720000e+01 -2.648293e+01 2.302872e+01
      vertex -3.720000e+01 -3.285456e+01 1.235244e+01
    endloop
  endfacet
  facet normal 2.159479e-03 -5.998810e-01 8.000864e-01
    outer loop
      vertex 2.872894e+00 -1.467118e+01 3.177667e+01
      vertex -3.720000e+01 -2.648293e+01 2.302872e+01
      vertex 2.872894e+00 -2.636548e+01 2.300862e+01
    endloop
  endfacet
  facet normal -1.000000e+00 4.621574e-16 -3.042075e-15
    outer loop
      vertex -3.720000e+01 -1.485229e+01 3.180282e+01
      vertex -3.720000e+01 4.736842e+00 3.477884e+01
      vertex -3.720000e+01 -2.648293e+01 2.302872e+01
    endloop
  endfacet
  facet normal 3.242915e-03 -6.022400e-01 7.983085e-01
    outer loop
      vertex 2.872894e+00 -1.467118e+01 3.177667e+01
      vertex -3.720000e+01 -1.485229e+01 3.180282e+01
      vertex -3.720000e+01 -2.648293e+01 2.302872e+01
    endloop
  endfacet
  facet normal 4.254305e-01 -9.049911e-01 2.706160e-04
    outer loop
      vertex -3.717772e+01 9.652825e+00 -4.920937e+01
      vertex -3.720000e+01 9.652825e+00 -1.417480e+01
      vertex -4.620000e+01 5.423890e+00 -7.796731e+00
    endloop
  endfacet
  facet normal -9.643392e-01 -1.403034e-01 -2.244213e-01
    outer loop
      vertex -4.975451e+01 4.851159e+01 -1.946051e+01
      vertex -3.717772e+01 9.652825e+00 -4.920937e+01
      vertex -4.620000e+01 5.423890e+00 -7.796731e+00
    endloop
  endfacet
  facet normal -9.249112e-01 2.636708e-02 3.792679e-01
    outer loop
      vertex -4.140280e+01 4.868571e+01 8.944849e-01
      vertex -4.975451e+01 4.851159e+01 -1.946051e+01
      vertex -4.620000e+01 5.423890e+00 -7.796731e+00
    endloop
  endfacet
  facet normal -9.972258e-01 -4.339561e-04 -7.443528e-02
    outer loop
      vertex -3.450000e+01 -3.276631e+01 -5.010000e+01
      vertex -3.720000e+01 -3.221429e+01 -1.393072e+01
      vertex -3.720000e+01 9.652825e+00 -1.417480e+01
    endloop
  endfacet
  facet normal -9.552215e-01 -2.882278e-01 -6.690740e-02
    outer loop
      vertex -2.901229e+01 -5.064224e+01 -5.143971e+01
      vertex -3.720000e+01 -3.221429e+01 -1.393072e+01
      vertex -3.450000e+01 -3.276631e+01 -5.010000e+01
    endloop
  endfacet
  facet normal -9.386001e-01 -3.430894e-01 -3.632599e-02
    outer loop
      vertex -2.978771e+01 -5.037801e+01 -3.390000e+01
      vertex -3.720000e+01 -3.221429e+01 -1.393072e+01
      vertex -2.901229e+01 -5.064224e+01 -5.143971e+01
    endloop
  endfacet
  facet normal 4.691685e-16 -1.000000e+00 4.059222e-16
    outer loop
      vertex -3.654953e+01 9.652825e+00 -4.993544e+01
      vertex -3.720000e+01 9.652825e+00 -1.417480e+01
      vertex -3.717772e+01 9.652825e+00 -4.920937e+01
    endloop
  endfacet
  facet normal -9.986734e-01 -4.818160e-02 -1.816544e-02
    outer loop
      vertex -3.450000e+01 -3.276631e+01 -5.010000e+01
      vertex -3.720000e+01 9.652825e+00 -1.417480e+01
      vertex -3.654953e+01 9.652825e+00 -4.993544e+01
    endloop
  endfacet
  facet normal -9.825999e-01 -5.180983e-03 -1.856625e-01
    outer loop
      vertex -3.720000e+01 2.097015e+01 2.814705e+01
      vertex -3.367003e+01 5.507040e+01 8.513445e+00
      vertex -3.720000e+01 9.652825e+00 2.846286e+01
    endloop
  endfacet
  facet normal -1.000000e+00 0.000000e+00 0.000000e+00
    outer loop
      vertex -3.720000e+01 4.736842e+00 3.477884e+01
      vertex -3.720000e+01 2.097015e+01 2.814705e+01
      vertex -3.720000e+01 9.652825e+00 2.846286e+01
    endloop
  endfacet
  facet normal -8.190804e-01 4.079343e-01 -4.033570e-01
    outer loop
      vertex -4.846298e+01 4.851159e+01 -1.321994e+02
      vertex -3.896193e+01 4.990934e+01 -1.500792e+02
      vertex -4.096889e+01 4.852150e+01 -1.474073e+02
    endloop
  endfacet
  facet normal 8.141952e-01 -4.331838e-01 3.865722e-01
    outer loop
      vertex -3.345974e+01 5.608745e+01 -1.547448e+02
      vertex -4.096889e+01 4.852150e+01 -1.474073e+02
      vertex -3.896193e+01 4.990934e+01 -1.500792e+02
    endloop
  endfacet
  facet normal -6.045734e-01 -7.385446e-01 -2.984004e-01
    outer loop
      vertex -2.159741e+01 2.614000e+01 -1.312604e+02
      vertex -4.846298e+01 4.851159e+01 -1.321994e+02
      vertex -4.096889e+01 4.852150e+01 -1.474073e+02
    endloop
  endfacet
  facet normal -3.945607e-01 -7.372061e-01 -5.484971e-01
    outer loop
      vertex -8.908076e+00 3.510000e+01 -1.524311e+02
      vertex -2.159741e+01 2.614000e+01 -1.312604e+02
      vertex -4.096889e+01 4.852150e+01 -1.474073e+02
    endloop
  endfacet
  facet normal -3.257733e-01 -4.714432e-01 -8.195200e-01
    outer loop
      vertex -3.345974e+01 5.608745e+01 -1.547448e+02
      vertex -8.908076e+00 3.510000e+01 -1.524311e+02
      vertex -4.096889e+01 4.852150e+01 -1.474073e+02
    endloop
  endfacet
  facet normal -8.724902e-01 1.940196e-01 -4.484610e-01
    outer loop
      vertex -4.530239e+01 6.422296e+01 -1.315511e+02
      vertex -3.896193e+01 4.990934e+01 -1.500792e+02
      vertex -4.846298e+01 4.851159e+01 -1.321994e+02
    endloop
  endfacet
  facet normal -7.869581e-01 6.033426e-01 -1.291303e-01
    outer loop
      vertex -2.385675e+01 6.874343e+01 -1.541350e+02
      vertex -3.345974e+01 5.608745e+01 -1.547448e+02
      vertex -3.896193e+01 4.990934e+01 -1.500792e+02
    endloop
  endfacet
  facet normal -8.619556e-01 2.134448e-01 -4.598628e-01
    outer loop
      vertex -3.647524e+01 6.422296e+01 -1.480965e+02
      vertex -3.896193e+01 4.990934e+01 -1.500792e+02
      vertex -4.530239e+01 6.422296e+01 -1.315511e+02
    endloop
  endfacet
  facet normal -4.806499e-01 2.017117e-01 -8.533979e-01
    outer loop
      vertex -2.385675e+01 6.874343e+01 -1.541350e+02
      vertex -3.896193e+01 4.990934e+01 -1.500792e+02
      vertex -3.647524e+01 6.422296e+01 -1.480965e+02
    endloop
  endfacet
  facet normal -6.387171e-01 -7.685641e-01 -3.673868e-02
    outer loop
      vertex -2.297573e+01 2.614000e+01 -1.072978e+02
      vertex -4.846298e+01 4.851159e+01 -1.321994e+02
      vertex -2.159741e+01 2.614000e+01 -1.312604e+02
    endloop
  endfacet
  facet normal -9.971103e-01 -5.068373e-02 -5.658791e-02
    outer loop
      vertex -5.030095e+01 4.810595e+01 -9.945012e+01
      vertex -5.043088e+01 5.066221e+01 -9.945012e+01
      vertex -4.846298e+01 4.851159e+01 -1.321994e+02
    endloop
  endfacet
  facet normal -9.693612e-01 2.343423e-01 -7.363795e-02
    outer loop
      vertex -4.707174e+01 6.455737e+01 -9.945012e+01
      vertex -4.846298e+01 4.851159e+01 -1.321994e+02
      vertex -5.043088e+01 5.066221e+01 -9.945012e+01
    endloop
  endfacet
  facet normal -6.337362e-01 -7.722315e-01 -4.513158e-02
    outer loop
      vertex -2.297573e+01 2.614000e+01 -1.072978e+02
      vertex -5.030095e+01 4.810595e+01 -9.945012e+01
      vertex -4.846298e+01 4.851159e+01 -1.321994e+02
    endloop
  endfacet
  facet normal -9.783726e-01 1.991256e-01 -5.600041e-02
    outer loop
      vertex -4.707174e+01 6.455737e+01 -9.945012e+01
      vertex -4.530239e+01 6.422296e+01 -1.315511e+02
      vertex -4.846298e+01 4.851159e+01 -1.321994e+02
    endloop
  endfacet
  facet normal -3.849238e-01 -7.443191e-01 -5.457314e-01
    outer loop
      vertex 5.488777e+00 1.560000e+01 -1.359898e+02
      vertex -2.159741e+01 2.614000e+01 -1.312604e+02
      vertex -8.908076e+00 3.510000e+01 -1.524311e+02
    endloop
  endfacet
  facet normal -3.534615e-01 -9.352281e-01 -2.033092e-02
    outer loop
      vertex 4.535837e+00 1.560000e+01 -1.007547e+02
      vertex -2.297573e+01 2.614000e+01 -1.072978e+02
      vertex -2.159741e+01 2.614000e+01 -1.312604e+02
    endloop
  endfacet
  facet normal -3.641153e-01 -9.313018e-01 -9.847570e-03
    outer loop
      vertex 5.488777e+00 1.560000e+01 -1.359898e+02
      vertex 4.535837e+00 1.560000e+01 -1.007547e+02
      vertex -2.159741e+01 2.614000e+01 -1.312604e+02
    endloop
  endfacet
  facet normal -1.547814e-03 -1.113663e-01 -9.937782e-01
    outer loop
      vertex 1.119608e+00 4.610000e+01 -1.536794e+02
      vertex -8.908076e+00 3.510000e+01 -1.524311e+02
      vertex -3.345974e+01 5.608745e+01 -1.547448e+02
    endloop
  endfacet
  facet normal -8.406793e-02 -6.778673e-01 -7.303619e-01
    outer loop
      vertex 1.744987e+00 3.510000e+01 -1.536573e+02
      vertex 5.488777e+00 1.560000e+01 -1.359898e+02
      vertex -8.908076e+00 3.510000e+01 -1.524311e+02
    endloop
  endfacet
  facet normal -1.143453e-01 -8.496794e-03 -9.934047e-01
    outer loop
      vertex 1.119608e+00 4.610000e+01 -1.536794e+02
      vertex 1.744987e+00 3.510000e+01 -1.536573e+02
      vertex -8.908076e+00 3.510000e+01 -1.524311e+02
    endloop
  endfacet
  facet normal -7.834570e-03 5.405325e-02 -9.985073e-01
    outer loop
      vertex 2.874429e+00 7.496531e+01 -1.540080e+02
      vertex -3.345974e+01 5.608745e+01 -1.547448e+02
      vertex -2.385675e+01 6.874343e+01 -1.541350e+02
    endloop
  endfacet
  facet normal 2.703514e-02 -1.301972e-02 -9.995497e-01
    outer loop
      vertex 2.874429e+00 7.496531e+01 -1.540080e+02
      vertex 1.119608e+00 4.610000e+01 -1.536794e+02
      vertex -3.345974e+01 5.608745e+01 -1.547448e+02
    endloop
  endfacet
  facet normal -9.987106e-01 -5.076507e-02 1.495122e-16
    outer loop
      vertex -5.043088e+01 5.066221e+01 -5.681246e+01
      vertex -5.043088e+01 5.066221e+01 -9.945012e+01
      vertex -5.030095e+01 4.810595e+01 -9.945012e+01
    endloop
  endfacet
  facet normal -9.720001e-01 2.349803e-01 2.448044e-16
    outer loop
      vertex -4.707174e+01 6.455737e+01 -9.945012e+01
      vertex -5.043088e+01 5.066221e+01 -9.945012e+01
      vertex -5.043088e+01 5.066221e+01 -5.681246e+01
    endloop
  endfacet
  facet normal -6.460432e-01 -6.792948e-01 -3.481190e-01
    outer loop
      vertex -3.654953e+01 9.652825e+00 -4.993544e+01
      vertex -5.030095e+01 4.810595e+01 -9.945012e+01
      vertex -2.297573e+01 2.614000e+01 -1.072978e+02
    endloop
  endfacet
  facet normal -9.522617e-01 -3.048952e-01 1.537744e-02
    outer loop
      vertex -3.717772e+01 9.652825e+00 -4.920937e+01
      vertex -5.043088e+01 5.066221e+01 -5.681246e+01
      vertex -5.030095e+01 4.810595e+01 -9.945012e+01
    endloop
  endfacet
  facet normal -5.054344e-01 -7.438451e-01 -4.372992e-01
    outer loop
      vertex -3.654953e+01 9.652825e+00 -4.993544e+01
      vertex -3.717772e+01 9.652825e+00 -4.920937e+01
      vertex -5.030095e+01 4.810595e+01 -9.945012e+01
    endloop
  endfacet
  facet normal -9.736145e-01 1.142100e-01 -1.975626e-01
    outer loop
      vertex -3.204467e+01 -4.130000e+01 -1.015916e+02
      vertex -3.654953e+01 9.652825e+00 -4.993544e+01
      vertex -2.297573e+01 2.614000e+01 -1.072978e+02
    endloop
  endfacet
  facet normal 1.905996e-01 -1.081848e-01 -9.756884e-01
    outer loop
      vertex 4.535837e+00 1.560000e+01 -1.007547e+02
      vertex -3.204467e+01 -4.130000e+01 -1.015916e+02
      vertex -2.297573e+01 2.614000e+01 -1.072978e+02
    endloop
  endfacet
  facet normal -9.515174e-01 -3.075947e-01 -4.802435e-04
    outer loop
      vertex -4.975451e+01 4.851159e+01 -1.946051e+01
      vertex -5.043088e+01 5.066221e+01 -5.681246e+01
      vertex -3.717772e+01 9.652825e+00 -4.920937e+01
    endloop
  endfacet
  facet normal -9.762210e-01 2.146864e-01 3.003867e-02
    outer loop
      vertex -4.620338e+01 6.470074e+01 -1.975701e+01
      vertex -5.043088e+01 5.066221e+01 -5.681246e+01
      vertex -4.975451e+01 4.851159e+01 -1.946051e+01
    endloop
  endfacet
  facet normal -9.720001e-01 2.349803e-01 3.239613e-16
    outer loop
      vertex -4.707174e+01 6.455737e+01 -5.681246e+01
      vertex -4.707174e+01 6.455737e+01 -9.945012e+01
      vertex -5.043088e+01 5.066221e+01 -5.681246e+01
    endloop
  endfacet
  facet normal -9.717678e-01 2.349241e-01 2.186354e-02
    outer loop
      vertex -4.620338e+01 6.470074e+01 -1.975701e+01
      vertex -4.707174e+01 6.455737e+01 -5.681246e+01
      vertex -5.043088e+01 5.066221e+01 -5.681246e+01
    endloop
  endfacet
  facet normal -9.980577e-01 -4.806860e-02 -3.962513e-02
    outer loop
      vertex -3.450000e+01 -3.276631e+01 -5.010000e+01
      vertex -3.654953e+01 9.652825e+00 -4.993544e+01
      vertex -3.204467e+01 -4.130000e+01 -1.015916e+02
    endloop
  endfacet
  facet normal -9.078824e-01 1.955296e-01 3.708339e-01
    outer loop
      vertex -3.886212e+01 6.422296e+01 -1.077698e+00
      vertex -4.975451e+01 4.851159e+01 -1.946051e+01
      vertex -4.140280e+01 4.868571e+01 8.944849e-01
    endloop
  endfacet
  facet normal -9.089313e-01 2.060149e-01 3.624938e-01
    outer loop
      vertex -3.886212e+01 6.422296e+01 -1.077698e+00
      vertex -4.620338e+01 6.470074e+01 -1.975701e+01
      vertex -4.975451e+01 4.851159e+01 -1.946051e+01
    endloop
  endfacet
  facet normal -7.716112e-01 5.468979e-01 3.248367e-01
    outer loop
      vertex -2.337049e+01 7.125996e+01 5.721886e+00
      vertex -4.140280e+01 4.868571e+01 8.944849e-01
      vertex -3.367003e+01 5.507040e+01 8.513445e+00
    endloop
  endfacet
  facet normal -4.644710e-01 1.858578e-01 8.658658e-01
    outer loop
      vertex -2.337049e+01 7.125996e+01 5.721886e+00
      vertex -3.886212e+01 6.422296e+01 -1.077698e+00
      vertex -4.140280e+01 4.868571e+01 8.944849e-01
    endloop
  endfacet
  facet normal -1.160129e-01 2.399961e-01 9.638168e-01
    outer loop
      vertex 2.109641e+00 7.521492e+01 7.804075e+00
      vertex -2.337049e+01 7.125996e+01 5.721886e+00
      vertex -3.367003e+01 5.507040e+01 8.513445e+00
    endloop
  endfacet
  facet normal 1.068440e-03 4.988835e-01 8.666684e-01
    outer loop
      vertex 2.872894e+00 2.044856e+01 2.839788e+01
      vertex -3.367003e+01 5.507040e+01 8.513445e+00
      vertex -3.720000e+01 2.097015e+01 2.814705e+01
    endloop
  endfacet
  facet normal -1.083749e-01 4.066163e-01 9.071483e-01
    outer loop
      vertex 2.872894e+00 4.610000e+01 1.689999e+01
      vertex -3.367003e+01 5.507040e+01 8.513445e+00
      vertex 2.872894e+00 2.044856e+01 2.839788e+01
    endloop
  endfacet
  facet normal -1.454066e-01 2.915564e-01 9.454374e-01
    outer loop
      vertex 2.109641e+00 7.521492e+01 7.804075e+00
      vertex -3.367003e+01 5.507040e+01 8.513445e+00
      vertex 2.872894e+00 4.610000e+01 1.689999e+01
    endloop
  endfacet
  facet normal -6.341773e-01 6.952301e-01 -3.383405e-01
    outer loop
      vertex -2.956252e+01 7.632729e+01 -1.361813e+02
      vertex -3.647524e+01 6.422296e+01 -1.480965e+02
      vertex -4.530239e+01 6.422296e+01 -1.315511e+02
    endloop
  endfacet
  facet normal -6.204580e-01 7.814265e-01 -6.636645e-02
    outer loop
      vertex -3.062424e+01 7.860385e+01 -9.945012e+01
      vertex -2.956252e+01 7.632729e+01 -1.361813e+02
      vertex -4.530239e+01 6.422296e+01 -1.315511e+02
    endloop
  endfacet
  facet normal -6.488014e-01 7.597034e-01 -4.367474e-02
    outer loop
      vertex -3.062424e+01 7.860385e+01 -9.945012e+01
      vertex -4.530239e+01 6.422296e+01 -1.315511e+02
      vertex -4.707174e+01 6.455737e+01 -9.945012e+01
    endloop
  endfacet
  facet normal -4.876465e-01 7.378574e-01 -4.666555e-01
    outer loop
      vertex -2.385675e+01 6.874343e+01 -1.541350e+02
      vertex -3.647524e+01 6.422296e+01 -1.480965e+02
      vertex -2.956252e+01 7.632729e+01 -1.361813e+02
    endloop
  endfacet
  facet normal -1.954264e-01 8.796240e-01 -4.336705e-01
    outer loop
      vertex 2.719307e+00 8.141675e+01 -1.404055e+02
      vertex -2.385675e+01 6.874343e+01 -1.541350e+02
      vertex -2.956252e+01 7.632729e+01 -1.361813e+02
    endloop
  endfacet
  facet normal -1.876706e-01 9.800010e-01 -6.616419e-02
    outer loop
      vertex 2.636927e+00 8.497338e+01 -9.945012e+01
      vertex -2.956252e+01 7.632729e+01 -1.361813e+02
      vertex -3.062424e+01 7.860385e+01 -9.945012e+01
    endloop
  endfacet
  facet normal -1.660871e-01 9.823848e-01 -8.564594e-02
    outer loop
      vertex 2.636927e+00 8.497338e+01 -9.945012e+01
      vertex 2.719307e+00 8.141675e+01 -1.404055e+02
      vertex -2.956252e+01 7.632729e+01 -1.361813e+02
    endloop
  endfacet
  facet normal -2.036810e-01 8.836860e-01 -4.214418e-01
    outer loop
      vertex 2.874429e+00 7.496531e+01 -1.540080e+02
      vertex -2.385675e+01 6.874343e+01 -1.541350e+02
      vertex 2.719307e+00 8.141675e+01 -1.404055e+02
    endloop
  endfacet
  facet normal -6.494211e-01 7.604290e-01 2.164478e-16
    outer loop
      vertex -4.707174e+01 6.455737e+01 -5.681246e+01
      vertex -3.062424e+01 7.860385e+01 -9.945012e+01
      vertex -4.707174e+01 6.455737e+01 -9.945012e+01
    endloop
  endfacet
  facet normal -6.494211e-01 7.604290e-01 -2.164478e-16
    outer loop
      vertex -3.062424e+01 7.860385e+01 -5.681246e+01
      vertex -3.062424e+01 7.860385e+01 -9.945012e+01
      vertex -4.707174e+01 6.455737e+01 -5.681246e+01
    endloop
  endfacet
  facet normal -1.880828e-01 9.821532e-01 -5.905000e-17
    outer loop
      vertex 2.636927e+00 8.497338e+01 -9.945012e+01
      vertex -3.062424e+01 7.860385e+01 -9.945012e+01
      vertex -3.062424e+01 7.860385e+01 -5.681246e+01
    endloop
  endfacet
  facet normal -6.493555e-01 7.603521e-01 1.421816e-02
    outer loop
      vertex -3.172357e+01 7.691403e+01 -1.665249e+01
      vertex -3.062424e+01 7.860385e+01 -5.681246e+01
      vertex -4.707174e+01 6.455737e+01 -5.681246e+01
    endloop
  endfacet
  facet normal -6.462241e-01 7.630503e-01 1.219122e-02
    outer loop
      vertex -3.172357e+01 7.691403e+01 -1.665249e+01
      vertex -4.707174e+01 6.455737e+01 -5.681246e+01
      vertex -4.620338e+01 6.470074e+01 -1.975701e+01
    endloop
  endfacet
  facet normal -1.841977e-01 9.822192e-01 3.628685e-02
    outer loop
      vertex 2.668314e+00 8.329782e+01 -1.487153e+01
      vertex -3.062424e+01 7.860385e+01 -5.681246e+01
      vertex -3.172357e+01 7.691403e+01 -1.665249e+01
    endloop
  endfacet
  facet normal -1.880828e-01 9.821532e-01 4.527188e-16
    outer loop
      vertex 2.636927e+00 8.497338e+01 -5.681246e+01
      vertex 2.636927e+00 8.497338e+01 -9.945012e+01
      vertex -3.062424e+01 7.860385e+01 -5.681246e+01
    endloop
  endfacet
  facet normal -1.879371e-01 9.813926e-01 3.934771e-02
    outer loop
      vertex 2.668314e+00 8.329782e+01 -1.487153e+01
      vertex 2.636927e+00 8.497338e+01 -5.681246e+01
      vertex -3.062424e+01 7.860385e+01 -5.681246e+01
    endloop
  endfacet
  facet normal -6.388586e-01 6.547337e-01 4.039597e-01
    outer loop
      vertex -2.337049e+01 7.125996e+01 5.721886e+00
      vertex -3.172357e+01 7.691403e+01 -1.665249e+01
      vertex -4.620338e+01 6.470074e+01 -1.975701e+01
    endloop
  endfacet
  facet normal -4.793145e-01 8.521060e-01 2.101735e-01
    outer loop
      vertex -2.337049e+01 7.125996e+01 5.721886e+00
      vertex -4.620338e+01 6.470074e+01 -1.975701e+01
      vertex -3.886212e+01 6.422296e+01 -1.077698e+00
    endloop
  endfacet
  facet normal -1.702290e-01 9.384068e-01 3.006904e-01
    outer loop
      vertex 2.109641e+00 7.521492e+01 7.804075e+00
      vertex -3.172357e+01 7.691403e+01 -1.665249e+01
      vertex -2.337049e+01 7.125996e+01 5.721886e+00
    endloop
  endfacet
  facet normal -1.888297e-01 9.264625e-01 3.255926e-01
    outer loop
      vertex 2.109641e+00 7.521492e+01 7.804075e+00
      vertex 2.668314e+00 8.329782e+01 -1.487153e+01
      vertex -3.172357e+01 7.691403e+01 -1.665249e+01
    endloop
  endfacet
  facet normal -7.266183e-01 -9.317298e-02 -6.806942e-01
    outer loop
      vertex -2.928637e+01 -5.100000e+01 -1.362353e+02
      vertex -3.031945e+01 -4.130000e+01 -1.364603e+02
      vertex -1.763423e+01 -5.000000e+01 -1.488105e+02
    endloop
  endfacet
  facet normal -7.025771e-01 -1.444371e-02 -7.114610e-01
    outer loop
      vertex -1.809201e+01 -4.130000e+01 -1.485350e+02
      vertex -1.763423e+01 -5.000000e+01 -1.488105e+02
      vertex -3.031945e+01 -4.130000e+01 -1.364603e+02
    endloop
  endfacet
  facet normal -1.732532e-02 -9.953072e-01 -9.520236e-02
    outer loop
      vertex 2.872894e+00 -5.100000e+01 -1.420878e+02
      vertex -2.928637e+01 -5.100000e+01 -1.362353e+02
      vertex -1.763423e+01 -5.000000e+01 -1.488105e+02
    endloop
  endfacet
  facet normal -5.371613e-01 -1.560186e-03 -8.434781e-01
    outer loop
      vertex 6.328787e-01 -4.130000e+01 -1.604598e+02
      vertex -1.763423e+01 -5.000000e+01 -1.488105e+02
      vertex -1.809201e+01 -4.130000e+01 -1.485350e+02
    endloop
  endfacet
  facet normal -3.962698e-02 -9.988306e-01 -2.769660e-02
    outer loop
      vertex 4.252347e-01 -5.040410e+01 -1.600760e+02
      vertex 2.872894e+00 -5.100000e+01 -1.420878e+02
      vertex -1.763423e+01 -5.000000e+01 -1.488105e+02
    endloop
  endfacet
  facet normal -5.295017e-01 -2.366912e-02 -8.479786e-01
    outer loop
      vertex 6.328787e-01 -4.130000e+01 -1.604598e+02
      vertex 4.252347e-01 -5.040410e+01 -1.600760e+02
      vertex -1.763423e+01 -5.000000e+01 -1.488105e+02
    endloop
  endfacet
  facet normal -9.930548e-01 -1.069021e-01 -4.913409e-02
    outer loop
      vertex -3.204467e+01 -4.130000e+01 -1.015916e+02
      vertex -3.031945e+01 -4.130000e+01 -1.364603e+02
      vertex -2.928637e+01 -5.100000e+01 -1.362353e+02
    endloop
  endfacet
  facet normal -3.016293e-16 1.000000e+00 -3.054433e-16
    outer loop
      vertex 2.872894e+00 -4.130000e+01 -9.945012e+01
      vertex -1.809201e+01 -4.130000e+01 -1.485350e+02
      vertex -3.031945e+01 -4.130000e+01 -1.364603e+02
    endloop
  endfacet
  facet normal 3.737901e-17 1.000000e+00 -6.094810e-16
    outer loop
      vertex -3.204467e+01 -4.130000e+01 -1.015916e+02
      vertex 2.872894e+00 -4.130000e+01 -9.945012e+01
      vertex -3.031945e+01 -4.130000e+01 -1.364603e+02
    endloop
  endfacet
  facet normal 2.800313e-16 -1.000000e+00 2.752856e-15
    outer loop
      vertex 3.026930e+01 -5.100000e+01 -1.345502e+02
      vertex -2.928637e+01 -5.100000e+01 -1.362353e+02
      vertex 2.872894e+00 -5.100000e+01 -1.420878e+02
    endloop
  endfacet
  facet normal -9.936806e-01 -9.991790e-02 -5.113944e-02
    outer loop
      vertex -3.105968e+01 -5.100000e+01 -1.017786e+02
      vertex -3.204467e+01 -4.130000e+01 -1.015916e+02
      vertex -2.928637e+01 -5.100000e+01 -1.362353e+02
    endloop
  endfacet
  facet normal 2.332014e-16 -1.000000e+00 2.182148e-16
    outer loop
      vertex 3.164467e+01 -5.100000e+01 -1.036661e+02
      vertex -3.105968e+01 -5.100000e+01 -1.017786e+02
      vertex -2.928637e+01 -5.100000e+01 -1.362353e+02
    endloop
  endfacet
  facet normal 3.583735e-16 -1.000000e+00 -1.595949e-17
    outer loop
      vertex 3.026930e+01 -5.100000e+01 -1.345502e+02
      vertex 3.164467e+01 -5.100000e+01 -1.036661e+02
      vertex -2.928637e+01 -5.100000e+01 -1.362353e+02
    endloop
  endfacet
  facet normal -1.112383e-15 1.000000e+00 4.084197e-17
    outer loop
      vertex 2.872894e+00 -4.130000e+01 -9.945012e+01
      vertex 6.328787e-01 -4.130000e+01 -1.604598e+02
      vertex -1.809201e+01 -4.130000e+01 -1.485350e+02
    endloop
  endfacet
  facet normal 9.462790e-03 -9.993636e-01 -3.439390e-02
    outer loop
      vertex 3.026930e+01 -5.100000e+01 -1.345502e+02
      vertex 2.872894e+00 -5.100000e+01 -1.420878e+02
      vertex 4.252347e-01 -5.040410e+01 -1.600760e+02
    endloop
  endfacet
  facet normal 5.605134e-01 -4.763605e-02 -8.267742e-01
    outer loop
      vertex 1.984410e+01 -4.130000e+01 -1.474355e+02
      vertex 4.252347e-01 -5.040410e+01 -1.600760e+02
      vertex 6.328787e-01 -4.130000e+01 -1.604598e+02
    endloop
  endfacet
  facet normal 5.455735e-01 -9.567784e-05 -8.380630e-01
    outer loop
      vertex 1.947932e+01 -5.000000e+01 -1.476720e+02
      vertex 4.252347e-01 -5.040410e+01 -1.600760e+02
      vertex 1.984410e+01 -4.130000e+01 -1.474355e+02
    endloop
  endfacet
  facet normal 1.477573e-01 -9.695316e-01 -1.953876e-01
    outer loop
      vertex 1.947932e+01 -5.000000e+01 -1.476720e+02
      vertex 3.026930e+01 -5.100000e+01 -1.345502e+02
      vertex 4.252347e-01 -5.040410e+01 -1.600760e+02
    endloop
  endfacet
  facet normal 0.000000e+00 1.000000e+00 0.000000e+00
    outer loop
      vertex 2.872894e+00 -4.130000e+01 -9.945012e+01
      vertex 1.984410e+01 -4.130000e+01 -1.474355e+02
      vertex 6.328787e-01 -4.130000e+01 -1.604598e+02
    endloop
  endfacet
  facet normal 0.000000e+00 1.000000e+00 0.000000e+00
    outer loop
      vertex 3.257067e+01 -4.130000e+01 -1.033184e+02
      vertex 3.118389e+01 -4.130000e+01 -1.349627e+02
      vertex 1.984410e+01 -4.130000e+01 -1.474355e+02
    endloop
  endfacet
  facet normal 7.398532e-01 -1.273769e-02 -6.726478e-01
    outer loop
      vertex 1.947932e+01 -5.000000e+01 -1.476720e+02
      vertex 1.984410e+01 -4.130000e+01 -1.474355e+02
      vertex 3.118389e+01 -4.130000e+01 -1.349627e+02
    endloop
  endfacet
  facet normal 0.000000e+00 1.000000e+00 0.000000e+00
    outer loop
      vertex 2.872894e+00 -4.130000e+01 -9.945012e+01
      vertex 3.257067e+01 -4.130000e+01 -1.033184e+02
      vertex 1.984410e+01 -4.130000e+01 -1.474355e+02
    endloop
  endfacet
  facet normal 9.944636e-01 -9.561841e-02 -4.358134e-02
    outer loop
      vertex 3.026930e+01 -5.100000e+01 -1.345502e+02
      vertex 3.118389e+01 -4.130000e+01 -1.349627e+02
      vertex 3.257067e+01 -4.130000e+01 -1.033184e+02
    endloop
  endfacet
  facet normal 7.648670e-01 -9.918645e-02 -6.365065e-01
    outer loop
      vertex 1.947932e+01 -5.000000e+01 -1.476720e+02
      vertex 3.118389e+01 -4.130000e+01 -1.349627e+02
      vertex 3.026930e+01 -5.100000e+01 -1.345502e+02
    endloop
  endfacet
  facet normal -1.291559e-01 -1.180199e-02 -9.915541e-01
    outer loop
      vertex 3.175951e+01 2.510000e+01 -1.040031e+02
      vertex 3.257067e+01 -4.130000e+01 -1.033184e+02
      vertex 2.872894e+00 -4.130000e+01 -9.945012e+01
    endloop
  endfacet
  facet normal 9.946462e-01 -9.336483e-02 -4.429471e-02
    outer loop
      vertex 3.026930e+01 -5.100000e+01 -1.345502e+02
      vertex 3.257067e+01 -4.130000e+01 -1.033184e+02
      vertex 3.164467e+01 -5.100000e+01 -1.036661e+02
    endloop
  endfacet
  facet normal 9.948474e-01 -9.357305e-02 -3.902207e-02
    outer loop
      vertex 3.550000e+01 -3.276631e+01 -4.910000e+01
      vertex 3.164467e+01 -5.100000e+01 -1.036661e+02
      vertex 3.257067e+01 -4.130000e+01 -1.033184e+02
    endloop
  endfacet
  facet normal 9.985694e-01 -1.258016e-02 -5.197101e-02
    outer loop
      vertex 3.600902e+01 9.652825e+00 -4.958778e+01
      vertex 3.550000e+01 -3.276631e+01 -4.910000e+01
      vertex 3.257067e+01 -4.130000e+01 -1.033184e+02
    endloop
  endfacet
  facet normal 9.971459e-01 1.141174e-02 -7.463146e-02
    outer loop
      vertex 3.175951e+01 2.510000e+01 -1.040031e+02
      vertex 3.600902e+01 9.652825e+00 -4.958778e+01
      vertex 3.257067e+01 -4.130000e+01 -1.033184e+02
    endloop
  endfacet
  facet normal 6.119560e-02 -2.466660e-02 -9.978210e-01
    outer loop
      vertex 4.535837e+00 1.560000e+01 -1.007547e+02
      vertex 2.872894e+00 -4.130000e+01 -9.945012e+01
      vertex -3.204467e+01 -4.130000e+01 -1.015916e+02
    endloop
  endfacet
  facet normal -1.117418e-01 -1.951436e-02 -9.935457e-01
    outer loop
      vertex 3.175951e+01 2.510000e+01 -1.040031e+02
      vertex 2.872894e+00 -4.130000e+01 -9.945012e+01
      vertex 4.535837e+00 1.560000e+01 -1.007547e+02
    endloop
  endfacet
  facet normal -9.944718e-01 -1.003907e-01 -3.078281e-02
    outer loop
      vertex -3.450000e+01 -3.276631e+01 -5.010000e+01
      vertex -3.204467e+01 -4.130000e+01 -1.015916e+02
      vertex -3.105968e+01 -5.100000e+01 -1.017786e+02
    endloop
  endfacet
  facet normal 4.187969e-16 -1.000000e+00 0.000000e+00
    outer loop
      vertex 2.872894e+00 -5.100000e+01 -9.945012e+01
      vertex 2.872894e+00 -5.100000e+01 -4.900000e+01
      vertex -3.105968e+01 -5.100000e+01 -1.017786e+02
    endloop
  endfacet
  facet normal -1.179946e-02 -9.999016e-01 7.586144e-03
    outer loop
      vertex -2.901229e+01 -5.064224e+01 -5.143971e+01
      vertex -3.105968e+01 -5.100000e+01 -1.017786e+02
      vertex 2.872894e+00 -5.100000e+01 -4.900000e+01
    endloop
  endfacet
  facet normal 2.852267e-16 -1.000000e+00 1.946502e-15
    outer loop
      vertex 3.164467e+01 -5.100000e+01 -1.036661e+02
      vertex 2.872894e+00 -5.100000e+01 -9.945012e+01
      vertex -3.105968e+01 -5.100000e+01 -1.017786e+02
    endloop
  endfacet
  facet normal -9.543029e-01 -2.960267e-01 4.091729e-02
    outer loop
      vertex -2.901229e+01 -5.064224e+01 -5.143971e+01
      vertex -3.450000e+01 -3.276631e+01 -5.010000e+01
      vertex -3.105968e+01 -5.100000e+01 -1.017786e+02
    endloop
  endfacet
  facet normal 2.821030e-02 -9.996020e-01 0.000000e+00
    outer loop
      vertex 3.013722e+01 -5.023056e+01 -5.077555e+01
      vertex 2.872894e+00 -5.100000e+01 -4.900000e+01
      vertex 2.872894e+00 -5.100000e+01 -9.945012e+01
    endloop
  endfacet
  facet normal -1.121940e-02 -9.999371e-01 -9.252189e-16
    outer loop
      vertex 2.872894e+00 -5.100000e+01 -3.390000e+01
      vertex -2.901229e+01 -5.064224e+01 -5.143971e+01
      vertex 2.872894e+00 -5.100000e+01 -4.900000e+01
    endloop
  endfacet
  facet normal 4.282439e-02 -9.990826e-01 -1.002871e-15
    outer loop
      vertex 3.099974e+01 -4.979438e+01 -3.390000e+01
      vertex 2.872894e+00 -5.100000e+01 -3.390000e+01
      vertex 2.872894e+00 -5.100000e+01 -4.900000e+01
    endloop
  endfacet
  facet normal 2.978353e-02 -9.992608e-01 2.430549e-02
    outer loop
      vertex 3.099974e+01 -4.979438e+01 -3.390000e+01
      vertex 2.872894e+00 -5.100000e+01 -4.900000e+01
      vertex 3.013722e+01 -5.023056e+01 -5.077555e+01
    endloop
  endfacet
  facet normal 2.140438e-03 -9.998910e-01 1.460721e-02
    outer loop
      vertex 3.013722e+01 -5.023056e+01 -5.077555e+01
      vertex 2.872894e+00 -5.100000e+01 -9.945012e+01
      vertex 3.164467e+01 -5.100000e+01 -1.036661e+02
    endloop
  endfacet
  facet normal 9.546182e-01 -2.961600e-01 3.151627e-02
    outer loop
      vertex 3.013722e+01 -5.023056e+01 -5.077555e+01
      vertex 3.164467e+01 -5.100000e+01 -1.036661e+02
      vertex 3.550000e+01 -3.276631e+01 -4.910000e+01
    endloop
  endfacet
  facet normal -1.903879e-02 -9.997176e-01 1.421923e-02
    outer loop
      vertex 2.872894e+00 -5.100000e+01 -3.390000e+01
      vertex -2.978771e+01 -5.037801e+01 -3.390000e+01
      vertex -2.901229e+01 -5.064224e+01 -5.143971e+01
    endloop
  endfacet
  facet normal -1.771218e-02 -9.300581e-01 3.669853e-01
    outer loop
      vertex 2.872894e+00 -3.270378e+01 1.246846e+01
      vertex -2.978771e+01 -5.037801e+01 -3.390000e+01
      vertex 2.872894e+00 -5.100000e+01 -3.390000e+01
    endloop
  endfacet
  facet normal 2.491315e-03 -9.350002e-01 3.546383e-01
    outer loop
      vertex 2.872894e+00 -3.270378e+01 1.246846e+01
      vertex -3.720000e+01 -3.285456e+01 1.235244e+01
      vertex -2.978771e+01 -5.037801e+01 -3.390000e+01
    endloop
  endfacet
  facet normal -1.505629e-02 -9.300986e-01 3.670013e-01
    outer loop
      vertex 3.620000e+01 -3.309165e+01 1.285274e+01
      vertex 2.872894e+00 -3.270378e+01 1.246846e+01
      vertex 2.872894e+00 -5.100000e+01 -3.390000e+01
    endloop
  endfacet
  facet normal 4.039280e-02 -9.423544e-01 3.321696e-01
    outer loop
      vertex 3.620000e+01 -3.309165e+01 1.285274e+01
      vertex 2.872894e+00 -5.100000e+01 -3.390000e+01
      vertex 3.099974e+01 -4.979438e+01 -3.390000e+01
    endloop
  endfacet
  facet normal 1.732485e-03 -8.569818e-01 5.153438e-01
    outer loop
      vertex 2.872894e+00 -2.636548e+01 2.300862e+01
      vertex -3.720000e+01 -3.285456e+01 1.235244e+01
      vertex 2.872894e+00 -3.270378e+01 1.246846e+01
    endloop
  endfacet
  facet normal -1.497189e-02 -8.568870e-01 5.152868e-01
    outer loop
      vertex 3.620000e+01 -2.674861e+01 2.333985e+01
      vertex 2.872894e+00 -2.636548e+01 2.300862e+01
      vertex 2.872894e+00 -3.270378e+01 1.246846e+01
    endloop
  endfacet
  facet normal -1.592373e-02 -8.555513e-01 5.174731e-01
    outer loop
      vertex 3.620000e+01 -3.309165e+01 1.285274e+01
      vertex 3.620000e+01 -2.674861e+01 2.333985e+01
      vertex 2.872894e+00 -3.270378e+01 1.246846e+01
    endloop
  endfacet
  facet normal -1.183305e-02 -5.998404e-01 8.000322e-01
    outer loop
      vertex 3.620000e+01 -1.448246e+01 3.241110e+01
      vertex 2.872894e+00 -1.467118e+01 3.177667e+01
      vertex 2.872894e+00 -2.636548e+01 2.300862e+01
    endloop
  endfacet
  facet normal -1.482469e-02 -5.945360e-01 8.039323e-01
    outer loop
      vertex 3.620000e+01 -1.448246e+01 3.241110e+01
      vertex 2.872894e+00 -2.636548e+01 2.300862e+01
      vertex 3.620000e+01 -2.674861e+01 2.333985e+01
    endloop
  endfacet
  facet normal 3.304135e-01 -9.437940e-01 8.936099e-03
    outer loop
      vertex 3.175951e+01 2.510000e+01 -1.040031e+02
      vertex 4.535837e+00 1.560000e+01 -1.007547e+02
      vertex 5.488777e+00 1.560000e+01 -1.359898e+02
    endloop
  endfacet
  facet normal -8.722100e-04 3.781879e-01 9.257284e-01
    outer loop
      vertex 2.872894e+00 2.044856e+01 2.839788e+01
      vertex -3.720000e+01 2.097015e+01 2.814705e+01
      vertex -3.720000e+01 4.736842e+00 3.477884e+01
    endloop
  endfacet
  facet normal 2.073005e-03 -1.501980e-01 9.886538e-01
    outer loop
      vertex 2.872894e+00 4.647076e+00 3.468118e+01
      vertex -3.720000e+01 4.736842e+00 3.477884e+01
      vertex -3.720000e+01 -1.485229e+01 3.180282e+01
    endloop
  endfacet
  facet normal 3.092333e-03 3.694971e-01 9.292267e-01
    outer loop
      vertex 2.872894e+00 2.044856e+01 2.839788e+01
      vertex -3.720000e+01 4.736842e+00 3.477884e+01
      vertex 2.872894e+00 4.647076e+00 3.468118e+01
    endloop
  endfacet
  facet normal 1.317446e-03 -1.486794e-01 9.888846e-01
    outer loop
      vertex 2.872894e+00 4.647076e+00 3.468118e+01
      vertex -3.720000e+01 -1.485229e+01 3.180282e+01
      vertex 2.872894e+00 -1.467118e+01 3.177667e+01
    endloop
  endfacet
  facet normal -6.035186e-03 -1.486768e-01 9.888674e-01
    outer loop
      vertex 3.620000e+01 7.778175e+00 3.535534e+01
      vertex 2.872894e+00 4.647076e+00 3.468118e+01
      vertex 2.872894e+00 -1.467118e+01 3.177667e+01
    endloop
  endfacet
  facet normal -1.812661e-02 -1.310989e-01 9.912036e-01
    outer loop
      vertex 3.620000e+01 7.778175e+00 3.535534e+01
      vertex 2.872894e+00 -1.467118e+01 3.177667e+01
      vertex 3.620000e+01 -1.448246e+01 3.241110e+01
    endloop
  endfacet
  facet normal -7.723436e-02 3.683951e-01 9.264555e-01
    outer loop
      vertex 3.620000e+01 1.527351e+01 3.323402e+01
      vertex 2.872894e+00 2.044856e+01 2.839788e+01
      vertex 2.872894e+00 4.647076e+00 3.468118e+01
    endloop
  endfacet
  facet normal -4.500332e-02 2.720466e-01 9.612312e-01
    outer loop
      vertex 3.620000e+01 1.527351e+01 3.323402e+01
      vertex 2.872894e+00 4.647076e+00 3.468118e+01
      vertex 3.620000e+01 7.778175e+00 3.535534e+01
    endloop
  endfacet
  facet normal 3.278441e-01 -5.989792e-01 -7.305766e-01
    outer loop
      vertex 3.309350e+01 2.510000e+01 -1.313911e+02
      vertex 5.488777e+00 1.560000e+01 -1.359898e+02
      vertex 1.744987e+00 3.510000e+01 -1.536573e+02
    endloop
  endfacet
  facet normal 3.230281e-01 -9.462586e-01 1.573368e-02
    outer loop
      vertex 3.309350e+01 2.510000e+01 -1.313911e+02
      vertex 3.175951e+01 2.510000e+01 -1.040031e+02
      vertex 5.488777e+00 1.560000e+01 -1.359898e+02
    endloop
  endfacet
  facet normal -2.638004e-02 -3.508274e-03 -9.996458e-01
    outer loop
      vertex 3.376038e+01 5.557690e+01 -1.545741e+02
      vertex 1.744987e+00 3.510000e+01 -1.536573e+02
      vertex 1.119608e+00 4.610000e+01 -1.536794e+02
    endloop
  endfacet
  facet normal 2.748428e-01 -4.673316e-01 -8.402753e-01
    outer loop
      vertex 3.376038e+01 5.557690e+01 -1.545741e+02
      vertex 1.964704e+01 3.510000e+01 -1.478018e+02
      vertex 1.744987e+00 3.510000e+01 -1.536573e+02
    endloop
  endfacet
  facet normal 2.048292e-01 -7.522563e-01 -6.262232e-01
    outer loop
      vertex 3.309350e+01 2.510000e+01 -1.313911e+02
      vertex 1.744987e+00 3.510000e+01 -1.536573e+02
      vertex 1.964704e+01 3.510000e+01 -1.478018e+02
    endloop
  endfacet
  facet normal -2.084804e-02 -1.011081e-02 -9.997315e-01
    outer loop
      vertex 2.943704e+01 6.472668e+01 -1.544583e+02
      vertex 1.119608e+00 4.610000e+01 -1.536794e+02
      vertex 2.874429e+00 7.496531e+01 -1.540080e+02
    endloop
  endfacet
  facet normal -2.732086e-02 -2.660405e-04 -9.996267e-01
    outer loop
      vertex 2.943704e+01 6.472668e+01 -1.544583e+02
      vertex 3.376038e+01 5.557690e+01 -1.545741e+02
      vertex 1.119608e+00 4.610000e+01 -1.536794e+02
    endloop
  endfacet
  facet normal -6.874050e-02 4.080579e-01 9.103645e-01
    outer loop
      vertex 3.620000e+01 1.527351e+01 3.323402e+01
      vertex 2.872894e+00 4.610000e+01 1.689999e+01
      vertex 2.872894e+00 2.044856e+01 2.839788e+01
    endloop
  endfacet
  facet normal 1.580571e-01 2.982248e-01 9.413182e-01
    outer loop
      vertex 2.661159e+01 6.908871e+01 5.630826e+00
      vertex 2.109641e+00 7.521492e+01 7.804075e+00
      vertex 2.872894e+00 4.610000e+01 1.689999e+01
    endloop
  endfacet
  facet normal 9.933080e-02 5.476123e-01 8.308154e-01
    outer loop
      vertex 3.477678e+01 5.385141e+01 7.976465e+00
      vertex 2.872894e+00 4.610000e+01 1.689999e+01
      vertex 3.620000e+01 1.527351e+01 3.323402e+01
    endloop
  endfacet
  facet normal 2.027368e-01 2.542156e-01 9.456597e-01
    outer loop
      vertex 2.661159e+01 6.908871e+01 5.630826e+00
      vertex 2.872894e+00 4.610000e+01 1.689999e+01
      vertex 3.477678e+01 5.385141e+01 7.976465e+00
    endloop
  endfacet
  facet normal 2.615618e-01 8.732245e-01 -4.111745e-01
    outer loop
      vertex 3.270339e+01 7.469841e+01 -1.355996e+02
      vertex 2.874429e+00 7.496531e+01 -1.540080e+02
      vertex 2.719307e+00 8.141675e+01 -1.404055e+02
    endloop
  endfacet
  facet normal 2.522453e-01 9.640786e-01 -8.321475e-02
    outer loop
      vertex 3.431477e+01 7.668507e+01 -9.945012e+01
      vertex 2.719307e+00 8.141675e+01 -1.404055e+02
      vertex 2.636927e+00 8.497338e+01 -9.945012e+01
    endloop
  endfacet
  facet normal 2.278892e-01 9.716107e-01 -6.355479e-02
    outer loop
      vertex 3.431477e+01 7.668507e+01 -9.945012e+01
      vertex 3.270339e+01 7.469841e+01 -1.355996e+02
      vertex 2.719307e+00 8.141675e+01 -1.404055e+02
    endloop
  endfacet
  facet normal 3.071686e-01 8.182759e-01 -4.858725e-01
    outer loop
      vertex 2.943704e+01 6.472668e+01 -1.544583e+02
      vertex 2.874429e+00 7.496531e+01 -1.540080e+02
      vertex 3.270339e+01 7.469841e+01 -1.355996e+02
    endloop
  endfacet
  facet normal 2.531232e-01 9.674340e-01 1.628593e-16
    outer loop
      vertex 3.431477e+01 7.668507e+01 -9.945012e+01
      vertex 2.636927e+00 8.497338e+01 -9.945012e+01
      vertex 2.636927e+00 8.497338e+01 -5.681246e+01
    endloop
  endfacet
  facet normal 2.262241e-01 9.733056e-01 3.871469e-02
    outer loop
      vertex 3.316945e+01 7.632729e+01 -1.785828e+01
      vertex 2.636927e+00 8.497338e+01 -5.681246e+01
      vertex 2.668314e+00 8.329782e+01 -1.487153e+01
    endloop
  endfacet
  facet normal 2.531232e-01 9.674340e-01 1.265465e-16
    outer loop
      vertex 3.431477e+01 7.668507e+01 -5.681246e+01
      vertex 3.431477e+01 7.668507e+01 -9.945012e+01
      vertex 2.636927e+00 8.497338e+01 -5.681246e+01
    endloop
  endfacet
  facet normal 2.530895e-01 9.673051e-01 1.632559e-02
    outer loop
      vertex 3.316945e+01 7.632729e+01 -1.785828e+01
      vertex 3.431477e+01 7.668507e+01 -5.681246e+01
      vertex 2.636927e+00 8.497338e+01 -5.681246e+01
    endloop
  endfacet
  facet normal 2.564184e-01 9.084376e-01 3.301374e-01
    outer loop
      vertex 2.661159e+01 6.908871e+01 5.630826e+00
      vertex 2.668314e+00 8.329782e+01 -1.487153e+01
      vertex 2.109641e+00 7.521492e+01 7.804075e+00
    endloop
  endfacet
  facet normal 2.411056e-01 9.064741e-01 3.466594e-01
    outer loop
      vertex 2.661159e+01 6.908871e+01 5.630826e+00
      vertex 3.316945e+01 7.632729e+01 -1.785828e+01
      vertex 2.668314e+00 8.329782e+01 -1.487153e+01
    endloop
  endfacet
  facet normal 9.562698e-01 -2.919584e-01 -1.756261e-02
    outer loop
      vertex 3.620000e+01 -3.257907e+01 -1.409818e+01
      vertex 3.013722e+01 -5.023056e+01 -5.077555e+01
      vertex 3.550000e+01 -3.276631e+01 -4.910000e+01
    endloop
  endfacet
  facet normal 9.989210e-01 4.181694e-02 -2.020108e-02
    outer loop
      vertex 3.422000e+01 1.260814e+01 -1.846789e+01
      vertex 3.620000e+01 -3.257907e+01 -1.409818e+01
      vertex 3.550000e+01 -3.276631e+01 -4.910000e+01
    endloop
  endfacet
  facet normal 9.982257e-01 -1.130618e-02 5.845959e-02
    outer loop
      vertex 3.422000e+01 1.260814e+01 -1.846789e+01
      vertex 3.550000e+01 -3.276631e+01 -4.910000e+01
      vertex 3.600902e+01 9.652825e+00 -4.958778e+01
    endloop
  endfacet
  facet normal 9.690665e-01 -2.429808e-01 -4.324905e-02
    outer loop
      vertex 3.099974e+01 -4.979438e+01 -3.390000e+01
      vertex 3.013722e+01 -5.023056e+01 -5.077555e+01
      vertex 3.620000e+01 -3.257907e+01 -1.409818e+01
    endloop
  endfacet
  facet normal 9.371192e-01 -3.448526e-01 5.370611e-02
    outer loop
      vertex 3.620000e+01 -2.674861e+01 2.333985e+01
      vertex 3.099974e+01 -4.979438e+01 -3.390000e+01
      vertex 3.620000e+01 -3.257907e+01 -1.409818e+01
    endloop
  endfacet
  facet normal 1.000000e+00 6.725025e-17 1.061786e-14
    outer loop
      vertex 3.620000e+01 9.652825e+00 2.846286e+01
      vertex 3.620000e+01 -2.674861e+01 2.333985e+01
      vertex 3.620000e+01 -3.257907e+01 -1.409818e+01
    endloop
  endfacet
  facet normal 9.984176e-01 3.991805e-02 -3.960935e-02
    outer loop
      vertex 3.620000e+01 9.652825e+00 2.846286e+01
      vertex 3.620000e+01 -3.257907e+01 -1.409818e+01
      vertex 3.422000e+01 1.260814e+01 -1.846789e+01
    endloop
  endfacet
  facet normal 8.853832e-01 3.977636e-01 -2.405840e-01
    outer loop
      vertex 3.620000e+01 -3.309165e+01 1.285274e+01
      vertex 3.099974e+01 -4.979438e+01 -3.390000e+01
      vertex 3.620000e+01 -2.674861e+01 2.333985e+01
    endloop
  endfacet
  facet normal 1.000000e+00 -7.943501e-16 1.673994e-14
    outer loop
      vertex 3.620000e+01 -1.448246e+01 3.241110e+01
      vertex 3.620000e+01 -2.674861e+01 2.333985e+01
      vertex 3.620000e+01 9.652825e+00 2.846286e+01
    endloop
  endfacet
  facet normal 9.423869e-01 -2.951865e-01 -1.573908e-01
    outer loop
      vertex 4.456750e+01 3.595975e+01 -4.768197e+01
      vertex 3.600902e+01 9.652825e+00 -4.958778e+01
      vertex 3.175951e+01 2.510000e+01 -1.040031e+02
    endloop
  endfacet
  facet normal 8.970296e-01 -4.321593e-01 9.260850e-02
    outer loop
      vertex 4.471109e+01 3.605803e+01 -1.065794e+01
      vertex 3.422000e+01 1.260814e+01 -1.846789e+01
      vertex 3.600902e+01 9.652825e+00 -4.958778e+01
    endloop
  endfacet
  facet normal 9.509984e-01 -3.091826e-01 -2.867514e-03
    outer loop
      vertex 4.471109e+01 3.605803e+01 -1.065794e+01
      vertex 3.600902e+01 9.652825e+00 -4.958778e+01
      vertex 4.456750e+01 3.595975e+01 -4.768197e+01
    endloop
  endfacet
  facet normal 7.741647e-01 -6.318601e-01 3.770711e-02
    outer loop
      vertex 5.035089e+01 4.815014e+01 -9.945012e+01
      vertex 3.175951e+01 2.510000e+01 -1.040031e+02
      vertex 3.309350e+01 2.510000e+01 -1.313911e+02
    endloop
  endfacet
  facet normal 7.826527e-01 -6.197043e-01 -5.849270e-02
    outer loop
      vertex 4.456750e+01 3.595975e+01 -4.768197e+01
      vertex 3.175951e+01 2.510000e+01 -1.040031e+02
      vertex 5.035089e+01 4.815014e+01 -9.945012e+01
    endloop
  endfacet
  facet normal 9.186727e-01 -3.899129e-01 -6.331214e-02
    outer loop
      vertex 4.471109e+01 3.605803e+01 -1.065794e+01
      vertex 3.620000e+01 9.652825e+00 2.846286e+01
      vertex 3.422000e+01 1.260814e+01 -1.846789e+01
    endloop
  endfacet
  facet normal 1.000000e+00 -3.066196e-16 1.972141e-14
    outer loop
      vertex 3.620000e+01 1.527351e+01 3.323402e+01
      vertex 3.620000e+01 -1.448246e+01 3.241110e+01
      vertex 3.620000e+01 9.652825e+00 2.846286e+01
    endloop
  endfacet
  facet normal 9.994825e-01 2.081711e-02 -2.452367e-02
    outer loop
      vertex 3.477678e+01 5.385141e+01 7.976465e+00
      vertex 3.620000e+01 1.527351e+01 3.323402e+01
      vertex 3.620000e+01 9.652825e+00 2.846286e+01
    endloop
  endfacet
  facet normal 7.966736e-01 2.751011e-01 5.381734e-01
    outer loop
      vertex 4.237549e+01 4.852330e+01 -5.485291e-01
      vertex 3.477678e+01 5.385141e+01 7.976465e+00
      vertex 3.620000e+01 9.652825e+00 2.846286e+01
    endloop
  endfacet
  facet normal 9.761425e-01 6.893215e-03 2.170216e-01
    outer loop
      vertex 4.237549e+01 4.852330e+01 -5.485291e-01
      vertex 3.620000e+01 9.652825e+00 2.846286e+01
      vertex 4.471109e+01 3.605803e+01 -1.065794e+01
    endloop
  endfacet
  facet normal 1.000000e+00 -1.200170e-16 1.297406e-14
    outer loop
      vertex 3.620000e+01 1.527351e+01 3.323402e+01
      vertex 3.620000e+01 7.778175e+00 3.535534e+01
      vertex 3.620000e+01 -1.448246e+01 3.241110e+01
    endloop
  endfacet
  facet normal 5.499736e-01 -5.783359e-01 -6.025418e-01
    outer loop
      vertex 3.376038e+01 5.557690e+01 -1.545741e+02
      vertex 4.414254e+01 5.193173e+01 -1.415989e+02
      vertex 1.964704e+01 3.510000e+01 -1.478018e+02
    endloop
  endfacet
  facet normal 5.110851e-01 -4.813689e-01 -7.120927e-01
    outer loop
      vertex 3.309350e+01 2.510000e+01 -1.313911e+02
      vertex 1.964704e+01 3.510000e+01 -1.478018e+02
      vertex 4.414254e+01 5.193173e+01 -1.415989e+02
    endloop
  endfacet
  facet normal 7.417466e-01 4.926228e-01 -4.551206e-01
    outer loop
      vertex 3.270339e+01 7.469841e+01 -1.355996e+02
      vertex 4.414254e+01 5.193173e+01 -1.415989e+02
      vertex 3.376038e+01 5.557690e+01 -1.545741e+02
    endloop
  endfacet
  facet normal 7.206048e-01 -4.851748e-01 -4.953121e-01
    outer loop
      vertex 4.856623e+01 4.851159e+01 -1.318130e+02
      vertex 3.309350e+01 2.510000e+01 -1.313911e+02
      vertex 4.414254e+01 5.193173e+01 -1.415989e+02
    endloop
  endfacet
  facet normal 6.264943e-01 4.771823e-01 -6.162808e-01
    outer loop
      vertex 4.556530e+01 6.422296e+01 -1.306356e+02
      vertex 4.414254e+01 5.193173e+01 -1.415989e+02
      vertex 3.270339e+01 7.469841e+01 -1.355996e+02
    endloop
  endfacet
  facet normal 9.170878e-01 2.009707e-01 -3.443265e-01
    outer loop
      vertex 4.556530e+01 6.422296e+01 -1.306356e+02
      vertex 4.856623e+01 4.851159e+01 -1.318130e+02
      vertex 4.414254e+01 5.193173e+01 -1.415989e+02
    endloop
  endfacet
  facet normal 8.422219e-01 4.024925e-01 -3.586949e-01
    outer loop
      vertex 2.943704e+01 6.472668e+01 -1.544583e+02
      vertex 3.270339e+01 7.469841e+01 -1.355996e+02
      vertex 3.376038e+01 5.557690e+01 -1.545741e+02
    endloop
  endfacet
  facet normal 8.326998e-01 -5.512704e-01 -5.207628e-02
    outer loop
      vertex 5.035089e+01 4.815014e+01 -9.945012e+01
      vertex 3.309350e+01 2.510000e+01 -1.313911e+02
      vertex 4.856623e+01 4.851159e+01 -1.318130e+02
    endloop
  endfacet
  facet normal 5.809391e-01 4.187520e-01 6.979659e-01
    outer loop
      vertex 3.972171e+01 6.422296e+01 -2.361887e+00
      vertex 2.661159e+01 6.908871e+01 5.630826e+00
      vertex 3.477678e+01 5.385141e+01 7.976465e+00
    endloop
  endfacet
  facet normal 7.902373e-01 2.004628e-01 5.790852e-01
    outer loop
      vertex 3.972171e+01 6.422296e+01 -2.361887e+00
      vertex 3.477678e+01 5.385141e+01 7.976465e+00
      vertex 4.237549e+01 4.852330e+01 -5.485291e-01
    endloop
  endfacet
  facet normal 6.881458e-01 7.221527e-01 -7.036154e-02
    outer loop
      vertex 4.715208e+01 6.445227e+01 -9.945012e+01
      vertex 3.270339e+01 7.469841e+01 -1.355996e+02
      vertex 3.431477e+01 7.668507e+01 -9.945012e+01
    endloop
  endfacet
  facet normal 6.398669e-01 7.675356e-01 -3.820154e-02
    outer loop
      vertex 4.556530e+01 6.422296e+01 -1.306356e+02
      vertex 3.270339e+01 7.469841e+01 -1.355996e+02
      vertex 4.715208e+01 6.445227e+01 -9.945012e+01
    endloop
  endfacet
  facet normal 6.898556e-01 7.239470e-01 3.383232e-16
    outer loop
      vertex 4.715208e+01 6.445227e+01 -9.945012e+01
      vertex 3.431477e+01 7.668507e+01 -9.945012e+01
      vertex 3.431477e+01 7.668507e+01 -5.681246e+01
    endloop
  endfacet
  facet normal 6.689352e-01 7.428486e-01 2.649057e-02
    outer loop
      vertex 4.670120e+01 6.424374e+01 -2.071283e+01
      vertex 3.431477e+01 7.668507e+01 -5.681246e+01
      vertex 3.316945e+01 7.632729e+01 -1.785828e+01
    endloop
  endfacet
  facet normal 6.898556e-01 7.239470e-01 1.149622e-16
    outer loop
      vertex 4.715208e+01 6.445227e+01 -5.681246e+01
      vertex 4.715208e+01 6.445227e+01 -9.945012e+01
      vertex 3.431477e+01 7.668507e+01 -5.681246e+01
    endloop
  endfacet
  facet normal 6.897991e-01 7.238877e-01 1.279714e-02
    outer loop
      vertex 4.670120e+01 6.424374e+01 -2.071283e+01
      vertex 4.715208e+01 6.445227e+01 -5.681246e+01
      vertex 3.431477e+01 7.668507e+01 -5.681246e+01
    endloop
  endfacet
  facet normal 5.166774e-01 7.669368e-01 3.805947e-01
    outer loop
      vertex 3.972171e+01 6.422296e+01 -2.361887e+00
      vertex 3.316945e+01 7.632729e+01 -1.785828e+01
      vertex 2.661159e+01 6.908871e+01 5.630826e+00
    endloop
  endfacet
  facet normal 6.733011e-01 6.933155e-01 2.568642e-01
    outer loop
      vertex 3.972171e+01 6.422296e+01 -2.361887e+00
      vertex 4.670120e+01 6.424374e+01 -2.071283e+01
      vertex 3.316945e+01 7.632729e+01 -1.785828e+01
    endloop
  endfacet
  facet normal 9.979591e-01 -3.177895e-02 -5.538764e-02
    outer loop
      vertex 5.043088e+01 5.066221e+01 -9.945012e+01
      vertex 5.035089e+01 4.815014e+01 -9.945012e+01
      vertex 4.856623e+01 4.851159e+01 -1.318130e+02
    endloop
  endfacet
  facet normal 9.704063e-01 2.307289e-01 -7.124470e-02
    outer loop
      vertex 4.715208e+01 6.445227e+01 -9.945012e+01
      vertex 5.043088e+01 5.066221e+01 -9.945012e+01
      vertex 4.856623e+01 4.851159e+01 -1.318130e+02
    endloop
  endfacet
  facet normal 9.802357e-01 1.910714e-01 -5.128145e-02
    outer loop
      vertex 4.556530e+01 6.422296e+01 -1.306356e+02
      vertex 4.715208e+01 6.445227e+01 -9.945012e+01
      vertex 4.856623e+01 4.851159e+01 -1.318130e+02
    endloop
  endfacet
  facet normal 9.994934e-01 -3.182781e-02 -1.665623e-16
    outer loop
      vertex 5.043088e+01 5.066221e+01 -5.681246e+01
      vertex 5.035089e+01 4.815014e+01 -9.945012e+01
      vertex 5.043088e+01 5.066221e+01 -9.945012e+01
    endloop
  endfacet
  facet normal 9.327826e-01 -3.599141e-01 1.945492e-02
    outer loop
      vertex 4.456750e+01 3.595975e+01 -4.768197e+01
      vertex 5.035089e+01 4.815014e+01 -9.945012e+01
      vertex 5.043088e+01 5.066221e+01 -5.681246e+01
    endloop
  endfacet
  facet normal 9.728785e-01 2.313167e-01 -1.645953e-16
    outer loop
      vertex 4.715208e+01 6.445227e+01 -5.681246e+01
      vertex 5.043088e+01 5.066221e+01 -5.681246e+01
      vertex 5.043088e+01 5.066221e+01 -9.945012e+01
    endloop
  endfacet
  facet normal 9.728785e-01 2.313167e-01 1.621270e-16
    outer loop
      vertex 4.715208e+01 6.445227e+01 -5.681246e+01
      vertex 5.043088e+01 5.066221e+01 -9.945012e+01
      vertex 4.715208e+01 6.445227e+01 -9.945012e+01
    endloop
  endfacet
  facet normal 9.270277e-01 -3.748994e-01 -8.370967e-03
    outer loop
      vertex 4.990763e+01 4.855527e+01 -2.039834e+01
      vertex 4.456750e+01 3.595975e+01 -4.768197e+01
      vertex 5.043088e+01 5.066221e+01 -5.681246e+01
    endloop
  endfacet
  facet normal 9.793223e-01 2.006696e-01 2.568327e-02
    outer loop
      vertex 4.670120e+01 6.424374e+01 -2.071283e+01
      vertex 4.990763e+01 4.855527e+01 -2.039834e+01
      vertex 5.043088e+01 5.066221e+01 -5.681246e+01
    endloop
  endfacet
  facet normal 9.727900e-01 2.312957e-01 1.348613e-02
    outer loop
      vertex 4.670120e+01 6.424374e+01 -2.071283e+01
      vertex 5.043088e+01 5.066221e+01 -5.681246e+01
      vertex 4.715208e+01 6.445227e+01 -5.681246e+01
    endloop
  endfacet
  facet normal 9.226456e-01 -3.856405e-01 -2.554597e-03
    outer loop
      vertex 4.471109e+01 3.605803e+01 -1.065794e+01
      vertex 4.456750e+01 3.595975e+01 -4.768197e+01
      vertex 4.990763e+01 4.855527e+01 -2.039834e+01
    endloop
  endfacet
  facet normal 9.291609e-01 -1.116995e-01 3.523965e-01
    outer loop
      vertex 4.237549e+01 4.852330e+01 -5.485291e-01
      vertex 4.471109e+01 3.605803e+01 -1.065794e+01
      vertex 4.990763e+01 4.855527e+01 -2.039834e+01
    endloop
  endfacet
  facet normal 9.168623e-01 1.952015e-01 3.482239e-01
    outer loop
      vertex 3.972171e+01 6.422296e+01 -2.361887e+00
      vertex 4.237549e+01 4.852330e+01 -5.485291e-01
      vertex 4.990763e+01 4.855527e+01 -2.039834e+01
    endloop
  endfacet
  facet normal 9.167814e-01 1.943669e-01 3.489032e-01
    outer loop
      vertex 3.972171e+01 6.422296e+01 -2.361887e+00
      vertex 4.990763e+01 4.855527e+01 -2.039834e+01
      vertex 4.670120e+01 6.424374e+01 -2.071283e+01
    endloop
  endfacet
endsolid SIM_ECUB_TORSO_1
