solid SIM_ECUB_L_HIP_ROLL_1
  facet normal -9.764205e-01 -1.696414e-01 -1.335099e-01
    outer loop
      vertex 5.406521e+01 -2.397477e+01 -2.485000e+02
      vertex 5.110000e+01 -6.907674e+00 -2.485000e+02
      vertex 5.699131e+01 -2.201802e+01 -2.723863e+02
    endloop
  endfacet
  facet normal -9.753298e-01 -1.813978e-01 -1.258039e-01
    outer loop
      vertex 5.463531e+01 -9.122888e+00 -2.727144e+02
      vertex 5.699131e+01 -2.201802e+01 -2.723863e+02
      vertex 5.110000e+01 -6.907674e+00 -2.485000e+02
    endloop
  endfacet
  facet normal -9.386317e-01 -3.148839e-01 -1.407789e-01
    outer loop
      vertex 5.960000e+01 -4.405000e+01 -2.405000e+02
      vertex 5.406521e+01 -2.397477e+01 -2.485000e+02
      vertex 5.699131e+01 -2.201802e+01 -2.723863e+02
    endloop
  endfacet
  facet normal 1.097864e-01 -5.226021e-03 -9.939415e-01
    outer loop
      vertex 5.482862e+01 -7.238467e+00 -2.727029e+02
      vertex 5.699131e+01 -2.201802e+01 -2.723863e+02
      vertex 5.463531e+01 -9.122888e+00 -2.727144e+02
    endloop
  endfacet
  facet normal -8.002936e-01 -5.219316e-01 -2.951570e-01
    outer loop
      vertex 6.284318e+01 -3.080225e+01 -2.727198e+02
      vertex 5.960000e+01 -4.405000e+01 -2.405000e+02
      vertex 5.699131e+01 -2.201802e+01 -2.723863e+02
    endloop
  endfacet
  facet normal -1.134228e-01 -3.786438e-02 -9.928250e-01
    outer loop
      vertex 5.482862e+01 -7.238467e+00 -2.727029e+02
      vertex 6.284318e+01 -3.080225e+01 -2.727198e+02
      vertex 5.699131e+01 -2.201802e+01 -2.723863e+02
    endloop
  endfacet
  facet normal -7.018304e-01 -1.219347e-01 7.018304e-01
    outer loop
      vertex 5.510000e+01 -6.907674e+00 -2.445000e+02
      vertex 5.110000e+01 -6.907674e+00 -2.485000e+02
      vertex 5.406521e+01 -2.397477e+01 -2.485000e+02
    endloop
  endfacet
  facet normal -9.894705e-01 -2.890560e-02 -1.418189e-01
    outer loop
      vertex 4.962623e+01 2.679564e+01 -2.450869e+02
      vertex 5.463531e+01 -9.122888e+00 -2.727144e+02
      vertex 5.110000e+01 -6.907674e+00 -2.485000e+02
    endloop
  endfacet
  facet normal -4.889053e-01 -7.224564e-01 4.889053e-01
    outer loop
      vertex 5.193497e+01 2.615000e+01 -1.988156e+02
      vertex 5.110000e+01 -6.907674e+00 -2.485000e+02
      vertex 5.510000e+01 -6.907674e+00 -2.445000e+02
    endloop
  endfacet
  facet normal -9.990307e-01 -4.253949e-02 -1.131521e-02
    outer loop
      vertex 4.902699e+01 2.693746e+01 -1.927130e+02
      vertex 4.962623e+01 2.679564e+01 -2.450869e+02
      vertex 5.110000e+01 -6.907674e+00 -2.485000e+02
    endloop
  endfacet
  facet normal -9.994045e-01 -4.918379e-03 -3.415326e-02
    outer loop
      vertex 4.903085e+01 2.615000e+01 -1.927123e+02
      vertex 4.902699e+01 2.693746e+01 -1.927130e+02
      vertex 5.110000e+01 -6.907674e+00 -2.485000e+02
    endloop
  endfacet
  facet normal 7.506700e-01 -5.557984e-01 3.571871e-01
    outer loop
      vertex 5.193497e+01 2.615000e+01 -1.988156e+02
      vertex 4.903085e+01 2.615000e+01 -1.927123e+02
      vertex 5.110000e+01 -6.907674e+00 -2.485000e+02
    endloop
  endfacet
  facet normal -8.816421e-01 -5.635683e-02 4.685415e-01
    outer loop
      vertex 5.510000e+01 -6.907674e+00 -2.445000e+02
      vertex 5.406521e+01 -2.397477e+01 -2.485000e+02
      vertex 5.960000e+01 -4.405000e+01 -2.405000e+02
    endloop
  endfacet
  facet normal -9.353391e-01 9.801232e-02 -3.399033e-01
    outer loop
      vertex 5.639339e+01 3.045000e+01 -2.661412e+02
      vertex 5.482862e+01 -7.238467e+00 -2.727029e+02
      vertex 5.463531e+01 -9.122888e+00 -2.727144e+02
    endloop
  endfacet
  facet normal -9.881496e-01 -1.523280e-01 1.888249e-02
    outer loop
      vertex 4.942702e+01 2.615000e+01 -2.607205e+02
      vertex 5.463531e+01 -9.122888e+00 -2.727144e+02
      vertex 4.962623e+01 2.679564e+01 -2.450869e+02
    endloop
  endfacet
  facet normal -6.634924e-01 1.511876e-01 -7.327483e-01
    outer loop
      vertex 5.639339e+01 3.045000e+01 -2.661412e+02
      vertex 5.463531e+01 -9.122888e+00 -2.727144e+02
      vertex 4.942702e+01 2.615000e+01 -2.607205e+02
    endloop
  endfacet
  facet normal -9.956600e-01 2.753993e-02 -8.889743e-02
    outer loop
      vertex 6.020000e+01 -6.033183e+01 -2.522641e+02
      vertex 5.960000e+01 -4.405000e+01 -2.405000e+02
      vertex 6.284318e+01 -3.080225e+01 -2.727198e+02
    endloop
  endfacet
  facet normal -3.365636e-15 1.070747e-01 9.942510e-01
    outer loop
      vertex 8.710215e+01 -6.907674e+00 -2.445000e+02
      vertex 5.510000e+01 -6.907674e+00 -2.445000e+02
      vertex 5.960000e+01 -4.405000e+01 -2.405000e+02
    endloop
  endfacet
  facet normal -9.991634e-01 -7.816861e-03 -4.014130e-02
    outer loop
      vertex 6.020000e+01 -6.033183e+01 -2.522641e+02
      vertex 5.960000e+01 -7.213597e+01 -2.350307e+02
      vertex 5.960000e+01 -4.405000e+01 -2.405000e+02
    endloop
  endfacet
  facet normal -9.976844e-01 1.300027e-02 6.675925e-02
    outer loop
      vertex 6.210000e+01 -6.625000e+01 -1.988156e+02
      vertex 5.960000e+01 -4.405000e+01 -2.405000e+02
      vertex 5.960000e+01 -7.213597e+01 -2.350307e+02
    endloop
  endfacet
  facet normal 1.497910e-02 8.829046e-01 4.693135e-01
    outer loop
      vertex 8.736153e+01 -6.620000e+01 -1.997160e+02
      vertex 5.960000e+01 -4.405000e+01 -2.405000e+02
      vertex 6.210000e+01 -6.625000e+01 -1.988156e+02
    endloop
  endfacet
  facet normal -2.199907e-15 8.787622e-01 4.772599e-01
    outer loop
      vertex 8.710215e+01 -4.405000e+01 -2.405000e+02
      vertex 5.960000e+01 -4.405000e+01 -2.405000e+02
      vertex 8.736153e+01 -6.620000e+01 -1.997160e+02
    endloop
  endfacet
  facet normal -4.121894e-15 1.070747e-01 9.942510e-01
    outer loop
      vertex 8.710215e+01 -6.907674e+00 -2.445000e+02
      vertex 5.960000e+01 -4.405000e+01 -2.405000e+02
      vertex 8.710215e+01 -4.405000e+01 -2.405000e+02
    endloop
  endfacet
  facet normal -9.417522e-01 -3.202368e-01 -1.027193e-01
    outer loop
      vertex 6.321955e+01 -3.047203e+01 -2.772000e+02
      vertex 6.284318e+01 -3.080225e+01 -2.727198e+02
      vertex 5.482862e+01 -7.238467e+00 -2.727029e+02
    endloop
  endfacet
  facet normal -1.923184e-01 -5.471191e-01 -8.146621e-01
    outer loop
      vertex 8.700987e+01 -3.931127e+01 -2.727103e+02
      vertex 6.020000e+01 -6.033183e+01 -2.522641e+02
      vertex 6.284318e+01 -3.080225e+01 -2.727198e+02
    endloop
  endfacet
  facet normal -3.305129e-01 -9.388074e-01 -9.696341e-02
    outer loop
      vertex 6.321955e+01 -3.047203e+01 -2.772000e+02
      vertex 8.700987e+01 -3.931127e+01 -2.727103e+02
      vertex 6.284318e+01 -3.080225e+01 -2.727198e+02
    endloop
  endfacet
  facet normal -9.913011e-01 6.142331e-02 -1.164017e-01
    outer loop
      vertex 5.535297e+01 -7.298408e+00 -2.772000e+02
      vertex 5.482862e+01 -7.238467e+00 -2.727029e+02
      vertex 5.639339e+01 3.045000e+01 -2.661412e+02
    endloop
  endfacet
  facet normal -9.416399e-01 -3.196518e-01 -1.055320e-01
    outer loop
      vertex 5.535297e+01 -7.298408e+00 -2.772000e+02
      vertex 6.321955e+01 -3.047203e+01 -2.772000e+02
      vertex 5.482862e+01 -7.238467e+00 -2.727029e+02
    endloop
  endfacet
  facet normal 2.131869e-01 -7.844471e-01 5.824036e-01
    outer loop
      vertex 9.215655e+01 2.615000e+01 -2.135386e+02
      vertex 5.193497e+01 2.615000e+01 -1.988156e+02
      vertex 5.510000e+01 -6.907674e+00 -2.445000e+02
    endloop
  endfacet
  facet normal -3.607961e-15 -6.835864e-01 7.298696e-01
    outer loop
      vertex 9.215655e+01 2.615000e+01 -2.135386e+02
      vertex 5.510000e+01 -6.907674e+00 -2.445000e+02
      vertex 8.710215e+01 -6.907674e+00 -2.445000e+02
    endloop
  endfacet
  facet normal -9.915099e-01 1.298277e-01 7.272664e-03
    outer loop
      vertex 5.408288e+01 6.045584e+01 -2.383791e+02
      vertex 4.942702e+01 2.615000e+01 -2.607205e+02
      vertex 4.962623e+01 2.679564e+01 -2.450869e+02
    endloop
  endfacet
  facet normal -9.999150e-01 6.230118e-03 -1.145738e-02
    outer loop
      vertex 4.925322e+01 6.045584e+01 -1.942305e+02
      vertex 4.962623e+01 2.679564e+01 -2.450869e+02
      vertex 4.902699e+01 2.693746e+01 -1.927130e+02
    endloop
  endfacet
  facet normal -9.825926e-01 1.515171e-01 -1.074909e-01
    outer loop
      vertex 4.925322e+01 6.045584e+01 -1.942305e+02
      vertex 5.408288e+01 6.045584e+01 -2.383791e+02
      vertex 4.962623e+01 2.679564e+01 -2.450869e+02
    endloop
  endfacet
  facet normal -5.900446e-01 -5.914124e-02 -8.052016e-01
    outer loop
      vertex 5.742733e+01 6.065000e+01 -2.691170e+02
      vertex 5.639339e+01 3.045000e+01 -2.661412e+02
      vertex 4.942702e+01 2.615000e+01 -2.607205e+02
    endloop
  endfacet
  facet normal -9.898569e-01 1.416268e-01 -1.118966e-02
    outer loop
      vertex 5.431516e+01 6.021930e+01 -2.619211e+02
      vertex 4.942702e+01 2.615000e+01 -2.607205e+02
      vertex 5.408288e+01 6.045584e+01 -2.383791e+02
    endloop
  endfacet
  facet normal -9.140266e-01 1.174584e-01 -3.882769e-01
    outer loop
      vertex 5.742733e+01 6.065000e+01 -2.691170e+02
      vertex 4.942702e+01 2.615000e+01 -2.607205e+02
      vertex 5.431516e+01 6.021930e+01 -2.619211e+02
    endloop
  endfacet
  facet normal -7.797290e-01 -3.490464e-02 -6.251434e-01
    outer loop
      vertex 6.521442e+01 3.045000e+01 -2.771435e+02
      vertex 5.639339e+01 3.045000e+01 -2.661412e+02
      vertex 5.742733e+01 6.065000e+01 -2.691170e+02
    endloop
  endfacet
  facet normal -7.643461e-01 2.005960e-01 -6.128102e-01
    outer loop
      vertex 6.521442e+01 3.045000e+01 -2.771435e+02
      vertex 5.535297e+01 -7.298408e+00 -2.772000e+02
      vertex 5.639339e+01 3.045000e+01 -2.661412e+02
    endloop
  endfacet
  facet normal -9.928618e-01 -4.744556e-03 1.191759e-01
    outer loop
      vertex 5.124276e+01 2.689385e+01 -1.742551e+02
      vertex 4.902699e+01 2.693746e+01 -1.927130e+02
      vertex 4.903085e+01 2.615000e+01 -1.927123e+02
    endloop
  endfacet
  facet normal -9.928218e-01 -1.030568e-02 1.191580e-01
    outer loop
      vertex 5.075641e+01 6.045584e+01 -1.754046e+02
      vertex 4.902699e+01 2.693746e+01 -1.927130e+02
      vertex 5.124276e+01 2.689385e+01 -1.742551e+02
    endloop
  endfacet
  facet normal -9.967742e-01 1.033081e-02 7.958956e-02
    outer loop
      vertex 5.075641e+01 6.045584e+01 -1.754046e+02
      vertex 4.925322e+01 6.045584e+01 -1.942305e+02
      vertex 4.902699e+01 2.693746e+01 -1.927130e+02
    endloop
  endfacet
  facet normal 1.639811e-15 -1.000000e+00 -5.040652e-15
    outer loop
      vertex 5.624555e+01 2.615000e+01 -1.656968e+02
      vertex 4.903085e+01 2.615000e+01 -1.927123e+02
      vertex 5.193497e+01 2.615000e+01 -1.988156e+02
    endloop
  endfacet
  facet normal -9.929066e-01 5.664040e-03 1.187618e-01
    outer loop
      vertex 5.123541e+01 2.615000e+01 -1.742811e+02
      vertex 5.124276e+01 2.689385e+01 -1.742551e+02
      vertex 4.903085e+01 2.615000e+01 -1.927123e+02
    endloop
  endfacet
  facet normal 1.587040e-16 -1.000000e+00 -4.645111e-15
    outer loop
      vertex 5.624555e+01 2.615000e+01 -1.656968e+02
      vertex 5.123541e+01 2.615000e+01 -1.742811e+02
      vertex 4.903085e+01 2.615000e+01 -1.927123e+02
    endloop
  endfacet
  facet normal 4.969689e-03 -9.999874e-01 -6.468284e-04
    outer loop
      vertex 8.710215e+01 2.630000e+01 -1.605186e+02
      vertex 5.624555e+01 2.615000e+01 -1.656968e+02
      vertex 5.193497e+01 2.615000e+01 -1.988156e+02
    endloop
  endfacet
  facet normal 1.073030e-03 -9.999951e-01 2.931401e-03
    outer loop
      vertex 8.710215e+01 2.630000e+01 -1.605186e+02
      vertex 5.193497e+01 2.615000e+01 -1.988156e+02
      vertex 9.215655e+01 2.615000e+01 -2.135386e+02
    endloop
  endfacet
  facet normal -8.633995e-01 -9.093405e-03 5.044389e-01
    outer loop
      vertex 5.624457e+01 2.678599e+01 -1.656959e+02
      vertex 5.124276e+01 2.689385e+01 -1.742551e+02
      vertex 5.123541e+01 2.615000e+01 -1.742811e+02
    endloop
  endfacet
  facet normal -8.633685e-01 2.552612e-03 5.045675e-01
    outer loop
      vertex 5.640825e+01 6.045584e+01 -1.655862e+02
      vertex 5.124276e+01 2.689385e+01 -1.742551e+02
      vertex 5.624457e+01 2.678599e+01 -1.656959e+02
    endloop
  endfacet
  facet normal -8.666594e-01 4.528236e-03 4.988798e-01
    outer loop
      vertex 5.640825e+01 6.045584e+01 -1.655862e+02
      vertex 5.075641e+01 6.045584e+01 -1.754046e+02
      vertex 5.124276e+01 2.689385e+01 -1.742551e+02
    endloop
  endfacet
  facet normal -8.636616e-01 -2.023181e-03 5.040681e-01
    outer loop
      vertex 5.624457e+01 2.678599e+01 -1.656959e+02
      vertex 5.123541e+01 2.615000e+01 -1.742811e+02
      vertex 5.624555e+01 2.615000e+01 -1.656968e+02
    endloop
  endfacet
  facet normal -6.577004e-01 -2.047499e-03 7.532769e-01
    outer loop
      vertex 7.090000e+01 2.677408e+01 -1.529000e+02
      vertex 5.624457e+01 2.678599e+01 -1.656959e+02
      vertex 5.624555e+01 2.615000e+01 -1.656968e+02
    endloop
  endfacet
  facet normal -5.570576e-03 -9.980540e-01 6.210602e-02
    outer loop
      vertex 8.710215e+01 2.677408e+01 -1.529000e+02
      vertex 5.624555e+01 2.615000e+01 -1.656968e+02
      vertex 8.710215e+01 2.630000e+01 -1.605186e+02
    endloop
  endfacet
  facet normal 1.436947e-14 -9.988129e-01 4.871082e-02
    outer loop
      vertex 8.710215e+01 2.677408e+01 -1.529000e+02
      vertex 7.090000e+01 2.677408e+01 -1.529000e+02
      vertex 5.624555e+01 2.615000e+01 -1.656968e+02
    endloop
  endfacet
  facet normal -6.295401e-01 5.279178e-04 7.769678e-01
    outer loop
      vertex 6.778503e+01 6.045584e+01 -1.563681e+02
      vertex 5.640825e+01 6.045584e+01 -1.655862e+02
      vertex 5.624457e+01 2.678599e+01 -1.656959e+02
    endloop
  endfacet
  facet normal -6.576010e-01 1.673588e-02 7.531805e-01
    outer loop
      vertex 6.778503e+01 6.045584e+01 -1.563681e+02
      vertex 5.624457e+01 2.678599e+01 -1.656959e+02
      vertex 7.090000e+01 2.677408e+01 -1.529000e+02
    endloop
  endfacet
  facet normal 1.249281e-01 9.921273e-01 -8.735824e-03
    outer loop
      vertex 5.425400e+01 6.045584e+01 -2.359320e+02
      vertex 5.431516e+01 6.021930e+01 -2.619211e+02
      vertex 5.408288e+01 6.045584e+01 -2.383791e+02
    endloop
  endfacet
  facet normal 9.679241e-01 -2.419542e-01 -6.768384e-02
    outer loop
      vertex 5.986474e+01 8.305000e+01 -2.364636e+02
      vertex 5.425400e+01 6.045584e+01 -2.359320e+02
      vertex 5.408288e+01 6.045584e+01 -2.383791e+02
    endloop
  endfacet
  facet normal -9.940596e-01 4.465532e-03 -1.087453e-01
    outer loop
      vertex 4.926837e+01 7.682135e+01 -1.936968e+02
      vertex 5.408288e+01 6.045584e+01 -2.383791e+02
      vertex 4.925322e+01 6.045584e+01 -1.942305e+02
    endloop
  endfacet
  facet normal -9.931013e-01 2.220249e-02 -1.151385e-01
    outer loop
      vertex 5.448931e+01 7.681966e+01 -2.387293e+02
      vertex 5.408288e+01 6.045584e+01 -2.383791e+02
      vertex 4.926837e+01 7.682135e+01 -1.936968e+02
    endloop
  endfacet
  facet normal 4.173618e-01 -2.980054e-02 -9.082517e-01
    outer loop
      vertex 5.986474e+01 8.305000e+01 -2.364636e+02
      vertex 5.408288e+01 6.045584e+01 -2.383791e+02
      vertex 5.448931e+01 7.681966e+01 -2.387293e+02
    endloop
  endfacet
  facet normal -1.582808e-01 9.873498e-01 -9.358816e-03
    outer loop
      vertex 5.742733e+01 6.065000e+01 -2.691170e+02
      vertex 5.431516e+01 6.021930e+01 -2.619211e+02
      vertex 5.425400e+01 6.045584e+01 -2.359320e+02
    endloop
  endfacet
  facet normal -9.669889e-01 2.379866e-01 -9.107625e-02
    outer loop
      vertex 5.986474e+01 8.305000e+01 -2.364636e+02
      vertex 5.742733e+01 6.065000e+01 -2.691170e+02
      vertex 5.425400e+01 6.045584e+01 -2.359320e+02
    endloop
  endfacet
  facet normal -9.736854e-01 2.152167e-01 -7.495640e-02
    outer loop
      vertex 6.218120e+01 8.305000e+01 -2.665544e+02
      vertex 5.742733e+01 6.065000e+01 -2.691170e+02
      vertex 5.986474e+01 8.305000e+01 -2.364636e+02
    endloop
  endfacet
  facet normal -7.072679e-01 5.514939e-03 -7.069241e-01
    outer loop
      vertex 6.802498e+01 6.033695e+01 -2.797223e+02
      vertex 6.521442e+01 3.045000e+01 -2.771435e+02
      vertex 5.742733e+01 6.065000e+01 -2.691170e+02
    endloop
  endfacet
  facet normal -6.859383e-01 2.247495e-01 -6.920812e-01
    outer loop
      vertex 6.218120e+01 8.305000e+01 -2.665544e+02
      vertex 6.802498e+01 6.033695e+01 -2.797223e+02
      vertex 5.742733e+01 6.065000e+01 -2.691170e+02
    endloop
  endfacet
  facet normal -9.968021e-01 7.127407e-03 7.959179e-02
    outer loop
      vertex 5.085691e+01 7.692314e+01 -1.756207e+02
      vertex 4.925322e+01 6.045584e+01 -1.942305e+02
      vertex 5.075641e+01 6.045584e+01 -1.754046e+02
    endloop
  endfacet
  facet normal -9.961579e-01 -1.933089e-03 8.755368e-02
    outer loop
      vertex 5.085691e+01 7.692314e+01 -1.756207e+02
      vertex 4.926837e+01 7.682135e+01 -1.936968e+02
      vertex 4.925322e+01 6.045584e+01 -1.942305e+02
    endloop
  endfacet
  facet normal -8.449065e-01 2.226857e-01 4.863580e-01
    outer loop
      vertex 6.050179e+01 8.305000e+01 -1.688199e+02
      vertex 5.075641e+01 6.045584e+01 -1.754046e+02
      vertex 5.640825e+01 6.045584e+01 -1.655862e+02
    endloop
  endfacet
  facet normal -5.822279e-01 1.422033e-02 8.129012e-01
    outer loop
      vertex 6.050179e+01 8.305000e+01 -1.688199e+02
      vertex 5.085691e+01 7.692314e+01 -1.756207e+02
      vertex 5.075641e+01 6.045584e+01 -1.754046e+02
    endloop
  endfacet
  facet normal -7.864437e-01 2.248220e-01 5.752925e-01
    outer loop
      vertex 6.766878e+01 7.716135e+01 -1.567211e+02
      vertex 6.050179e+01 8.305000e+01 -1.688199e+02
      vertex 5.640825e+01 6.045584e+01 -1.655862e+02
    endloop
  endfacet
  facet normal -6.294946e-01 1.203625e-02 7.769117e-01
    outer loop
      vertex 6.766878e+01 7.716135e+01 -1.567211e+02
      vertex 5.640825e+01 6.045584e+01 -1.655862e+02
      vertex 6.778503e+01 6.045584e+01 -1.563681e+02
    endloop
  endfacet
  facet normal -7.236886e-01 6.850043e-01 -8.392831e-02
    outer loop
      vertex 5.559618e+01 8.305000e+01 -1.974228e+02
      vertex 5.448931e+01 7.681966e+01 -2.387293e+02
      vertex 4.926837e+01 7.682135e+01 -1.936968e+02
    endloop
  endfacet
  facet normal -6.621951e-01 7.406748e-01 1.135715e-01
    outer loop
      vertex 6.050179e+01 8.305000e+01 -1.688199e+02
      vertex 5.559618e+01 8.305000e+01 -1.974228e+02
      vertex 4.926837e+01 7.682135e+01 -1.936968e+02
    endloop
  endfacet
  facet normal -5.577691e-01 8.288104e-01 4.434975e-02
    outer loop
      vertex 6.050179e+01 8.305000e+01 -1.688199e+02
      vertex 4.926837e+01 7.682135e+01 -1.936968e+02
      vertex 5.085691e+01 7.692314e+01 -1.756207e+02
    endloop
  endfacet
  facet normal -7.399216e-01 6.678108e-01 -8.090001e-02
    outer loop
      vertex 5.986474e+01 8.305000e+01 -2.364636e+02
      vertex 5.448931e+01 7.681966e+01 -2.387293e+02
      vertex 5.559618e+01 8.305000e+01 -1.974228e+02
    endloop
  endfacet
  facet normal -1.077566e-15 1.000000e+00 1.338183e-15
    outer loop
      vertex 8.710215e+01 8.305000e+01 -2.357698e+02
      vertex 5.986474e+01 8.305000e+01 -2.364636e+02
      vertex 5.559618e+01 8.305000e+01 -1.974228e+02
    endloop
  endfacet
  facet normal -3.168614e-16 1.000000e+00 3.035340e-15
    outer loop
      vertex 8.710215e+01 8.305000e+01 -1.988156e+02
      vertex 5.559618e+01 8.305000e+01 -1.974228e+02
      vertex 6.050179e+01 8.305000e+01 -1.688199e+02
    endloop
  endfacet
  facet normal -3.660479e-16 1.000000e+00 1.922767e-15
    outer loop
      vertex 8.710215e+01 8.305000e+01 -1.988156e+02
      vertex 8.710215e+01 8.305000e+01 -2.357698e+02
      vertex 5.559618e+01 8.305000e+01 -1.974228e+02
    endloop
  endfacet
  facet normal -6.858804e-16 1.000000e+00 1.836259e-15
    outer loop
      vertex 8.710215e+01 8.305000e+01 -2.727240e+02
      vertex 6.218120e+01 8.305000e+01 -2.665544e+02
      vertex 5.986474e+01 8.305000e+01 -2.364636e+02
    endloop
  endfacet
  facet normal -1.082661e-15 1.000000e+00 1.538214e-15
    outer loop
      vertex 8.710215e+01 8.305000e+01 -2.357698e+02
      vertex 8.710215e+01 8.305000e+01 -2.727240e+02
      vertex 5.986474e+01 8.305000e+01 -2.364636e+02
    endloop
  endfacet
  facet normal -2.005089e-15 1.000000e+00 1.538214e-15
    outer loop
      vertex 8.710215e+01 8.305000e+01 -1.618615e+02
      vertex 8.710215e+01 8.305000e+01 -1.988156e+02
      vertex 6.050179e+01 8.305000e+01 -1.688199e+02
    endloop
  endfacet
  facet normal -1.377046e-01 8.390037e-01 5.264125e-01
    outer loop
      vertex 8.565325e+01 7.720763e+01 -1.529288e+02
      vertex 8.710215e+01 8.305000e+01 -1.618615e+02
      vertex 6.050179e+01 8.305000e+01 -1.688199e+02
    endloop
  endfacet
  facet normal -1.044119e-01 8.685022e-01 4.845637e-01
    outer loop
      vertex 8.565325e+01 7.720763e+01 -1.529288e+02
      vertex 6.050179e+01 8.305000e+01 -1.688199e+02
      vertex 6.766878e+01 7.716135e+01 -1.567211e+02
    endloop
  endfacet
  facet normal -7.070592e-01 -7.070597e-01 -1.157091e-02
    outer loop
      vertex 6.020000e+01 -7.475000e+01 -1.988156e+02
      vertex 5.960000e+01 -7.415000e+01 -1.988156e+02
      vertex 6.020000e+01 -7.425378e+01 -2.291378e+02
    endloop
  endfacet
  facet normal -9.480091e-01 -3.177523e-01 -1.767119e-02
    outer loop
      vertex 5.960000e+01 -7.213597e+01 -2.350307e+02
      vertex 6.020000e+01 -7.425378e+01 -2.291378e+02
      vertex 5.960000e+01 -7.415000e+01 -1.988156e+02
    endloop
  endfacet
  facet normal -2.610859e-03 -9.998627e-01 -1.636259e-02
    outer loop
      vertex 8.823495e+01 -7.475000e+01 -2.032890e+02
      vertex 6.020000e+01 -7.475000e+01 -1.988156e+02
      vertex 6.020000e+01 -7.425378e+01 -2.291378e+02
    endloop
  endfacet
  facet normal -2.197803e-02 -9.415552e-01 -3.361411e-01
    outer loop
      vertex 8.710215e+01 -7.270221e+01 -2.352428e+02
      vertex 6.020000e+01 -7.425378e+01 -2.291378e+02
      vertex 5.960000e+01 -7.213597e+01 -2.350307e+02
    endloop
  endfacet
  facet normal -2.027749e-17 -9.998158e-01 -1.919335e-02
    outer loop
      vertex 8.710215e+01 -7.425378e+01 -2.291378e+02
      vertex 8.823495e+01 -7.475000e+01 -2.032890e+02
      vertex 6.020000e+01 -7.425378e+01 -2.291378e+02
    endloop
  endfacet
  facet normal -2.620630e-16 -9.691894e-01 -2.463166e-01
    outer loop
      vertex 8.710215e+01 -7.270221e+01 -2.352428e+02
      vertex 8.710215e+01 -7.425378e+01 -2.291378e+02
      vertex 6.020000e+01 -7.425378e+01 -2.291378e+02
    endloop
  endfacet
  facet normal -6.996376e-01 -6.996382e-01 1.449610e-01
    outer loop
      vertex 6.507699e+01 -7.414172e+01 -1.723416e+02
      vertex 5.960000e+01 -7.415000e+01 -1.988156e+02
      vertex 6.020000e+01 -7.475000e+01 -1.988156e+02
    endloop
  endfacet
  facet normal -9.532659e-01 3.016664e-01 1.677660e-02
    outer loop
      vertex 6.210000e+01 -6.625000e+01 -1.988156e+02
      vertex 5.960000e+01 -7.213597e+01 -2.350307e+02
      vertex 5.960000e+01 -7.415000e+01 -1.988156e+02
    endloop
  endfacet
  facet normal -9.516864e-01 2.357070e-01 1.968128e-01
    outer loop
      vertex 6.660735e+01 -6.625000e+01 -1.743929e+02
      vertex 5.960000e+01 -7.415000e+01 -1.988156e+02
      vertex 6.507699e+01 -7.414172e+01 -1.723416e+02
    endloop
  endfacet
  facet normal -9.389755e-01 2.971441e-01 1.732929e-01
    outer loop
      vertex 6.660735e+01 -6.625000e+01 -1.743929e+02
      vertex 6.210000e+01 -6.625000e+01 -1.988156e+02
      vertex 5.960000e+01 -7.415000e+01 -1.988156e+02
    endloop
  endfacet
  facet normal -2.662788e-16 -1.000000e+00 -4.845596e-15
    outer loop
      vertex 6.554483e+01 -7.475000e+01 -1.727147e+02
      vertex 6.020000e+01 -7.475000e+01 -1.988156e+02
      vertex 8.823495e+01 -7.475000e+01 -2.032890e+02
    endloop
  endfacet
  facet normal -7.367176e-01 -6.591569e-01 1.508617e-01
    outer loop
      vertex 6.554483e+01 -7.475000e+01 -1.727147e+02
      vertex 6.507699e+01 -7.414172e+01 -1.723416e+02
      vertex 6.020000e+01 -7.475000e+01 -1.988156e+02
    endloop
  endfacet
  facet normal -2.133625e-02 -8.244854e-01 -5.654808e-01
    outer loop
      vertex 6.020000e+01 -6.033183e+01 -2.522641e+02
      vertex 8.710215e+01 -7.270221e+01 -2.352428e+02
      vertex 5.960000e+01 -7.213597e+01 -2.350307e+02
    endloop
  endfacet
  facet normal 4.623673e-03 -9.998012e-01 -1.939570e-02
    outer loop
      vertex 1.070000e+02 -7.475000e+01 -1.988156e+02
      vertex 8.823495e+01 -7.475000e+01 -2.032890e+02
      vertex 8.710215e+01 -7.425378e+01 -2.291378e+02
    endloop
  endfacet
  facet normal -1.409899e-16 -1.000000e+00 -4.752616e-15
    outer loop
      vertex 8.672364e+01 -7.475000e+01 -1.643727e+02
      vertex 6.554483e+01 -7.475000e+01 -1.727147e+02
      vertex 8.823495e+01 -7.475000e+01 -2.032890e+02
    endloop
  endfacet
  facet normal -2.895416e-16 -1.000000e+00 -4.758385e-15
    outer loop
      vertex 1.029341e+02 -7.475000e+01 -1.743185e+02
      vertex 8.672364e+01 -7.475000e+01 -1.643727e+02
      vertex 8.823495e+01 -7.475000e+01 -2.032890e+02
    endloop
  endfacet
  facet normal -3.927590e-16 -1.000000e+00 -4.706014e-15
    outer loop
      vertex 1.070000e+02 -7.475000e+01 -1.988156e+02
      vertex 1.029341e+02 -7.475000e+01 -1.743185e+02
      vertex 8.823495e+01 -7.475000e+01 -2.032890e+02
    endloop
  endfacet
  facet normal 2.930950e-02 -9.687730e-01 -2.462108e-01
    outer loop
      vertex 1.076000e+02 -7.213597e+01 -2.350307e+02
      vertex 8.710215e+01 -7.425378e+01 -2.291378e+02
      vertex 8.710215e+01 -7.270221e+01 -2.352428e+02
    endloop
  endfacet
  facet normal 0.000000e+00 -9.998661e-01 -1.636264e-02
    outer loop
      vertex 1.070000e+02 -7.425378e+01 -2.291378e+02
      vertex 1.070000e+02 -7.475000e+01 -1.988156e+02
      vertex 8.710215e+01 -7.425378e+01 -2.291378e+02
    endloop
  endfacet
  facet normal 0.000000e+00 -9.410723e-01 -3.382054e-01
    outer loop
      vertex 1.076000e+02 -7.213597e+01 -2.350307e+02
      vertex 1.070000e+02 -7.425378e+01 -2.291378e+02
      vertex 8.710215e+01 -7.425378e+01 -2.291378e+02
    endloop
  endfacet
  facet normal 6.805551e-03 -8.037687e-01 -5.949029e-01
    outer loop
      vertex 8.710217e+01 -5.975614e+01 -2.527341e+02
      vertex 8.710215e+01 -7.270221e+01 -2.352428e+02
      vertex 6.020000e+01 -6.033183e+01 -2.522641e+02
    endloop
  endfacet
  facet normal 2.834842e-02 -8.034643e-01 -5.946776e-01
    outer loop
      vertex 1.076000e+02 -7.213597e+01 -2.350307e+02
      vertex 8.710215e+01 -7.270221e+01 -2.352428e+02
      vertex 8.710217e+01 -5.975614e+01 -2.527341e+02
    endloop
  endfacet
  facet normal -2.790594e-01 -6.488273e-01 7.079188e-01
    outer loop
      vertex 8.681281e+01 -7.415000e+01 -1.637810e+02
      vertex 6.507699e+01 -7.414172e+01 -1.723416e+02
      vertex 6.554483e+01 -7.475000e+01 -1.727147e+02
    endloop
  endfacet
  facet normal -3.520444e-01 2.767714e-01 8.941266e-01
    outer loop
      vertex 8.675688e+01 -6.625000e+01 -1.662485e+02
      vertex 6.507699e+01 -7.414172e+01 -1.723416e+02
      vertex 8.681281e+01 -7.415000e+01 -1.637810e+02
    endloop
  endfacet
  facet normal -3.575680e-01 2.992734e-01 8.846358e-01
    outer loop
      vertex 8.675688e+01 -6.625000e+01 -1.662485e+02
      vertex 6.660735e+01 -6.625000e+01 -1.743929e+02
      vertex 6.507699e+01 -7.414172e+01 -1.723416e+02
    endloop
  endfacet
  facet normal -2.774506e-01 -6.533400e-01 7.043919e-01
    outer loop
      vertex 8.681281e+01 -7.415000e+01 -1.637810e+02
      vertex 6.554483e+01 -7.475000e+01 -1.727147e+02
      vertex 8.672364e+01 -7.475000e+01 -1.643727e+02
    endloop
  endfacet
  facet normal 3.863531e-01 -6.739436e-01 6.297073e-01
    outer loop
      vertex 1.034299e+02 -7.415000e+01 -1.739805e+02
      vertex 8.672364e+01 -7.475000e+01 -1.643727e+02
      vertex 1.029341e+02 -7.475000e+01 -1.743185e+02
    endloop
  endfacet
  facet normal 3.853348e-01 -6.763123e-01 6.277888e-01
    outer loop
      vertex 1.034299e+02 -7.415000e+01 -1.739805e+02
      vertex 8.681281e+01 -7.415000e+01 -1.637810e+02
      vertex 8.672364e+01 -7.475000e+01 -1.643727e+02
    endloop
  endfacet
  facet normal 7.305954e-01 -6.719572e-01 1.212594e-01
    outer loop
      vertex 1.034299e+02 -7.415000e+01 -1.739805e+02
      vertex 1.029341e+02 -7.475000e+01 -1.743185e+02
      vertex 1.070000e+02 -7.475000e+01 -1.988156e+02
    endloop
  endfacet
  facet normal 7.070592e-01 -7.070597e-01 -1.157091e-02
    outer loop
      vertex 1.076000e+02 -7.415000e+01 -1.988156e+02
      vertex 1.070000e+02 -7.475000e+01 -1.988156e+02
      vertex 1.070000e+02 -7.425378e+01 -2.291378e+02
    endloop
  endfacet
  facet normal 7.021744e-01 -7.021750e-01 1.179038e-01
    outer loop
      vertex 1.034299e+02 -7.415000e+01 -1.739805e+02
      vertex 1.070000e+02 -7.475000e+01 -1.988156e+02
      vertex 1.076000e+02 -7.415000e+01 -1.988156e+02
    endloop
  endfacet
  facet normal 5.003879e-01 2.613458e-01 8.254152e-01
    outer loop
      vertex 1.010101e+02 -6.625000e+01 -1.748891e+02
      vertex 8.675688e+01 -6.625000e+01 -1.662485e+02
      vertex 8.681281e+01 -7.415000e+01 -1.637810e+02
    endloop
  endfacet
  facet normal 5.064982e-01 2.500463e-01 8.251887e-01
    outer loop
      vertex 1.010101e+02 -6.625000e+01 -1.748891e+02
      vertex 8.681281e+01 -7.415000e+01 -1.637810e+02
      vertex 1.034299e+02 -7.415000e+01 -1.739805e+02
    endloop
  endfacet
  facet normal 2.457438e-03 -6.988531e-01 -7.152610e-01
    outer loop
      vertex 8.700987e+01 -3.931127e+01 -2.727103e+02
      vertex 8.710217e+01 -5.975614e+01 -2.527341e+02
      vertex 6.020000e+01 -6.033183e+01 -2.522641e+02
    endloop
  endfacet
  facet normal 3.755172e-01 -6.468472e-01 -6.637587e-01
    outer loop
      vertex 1.066249e+02 -2.809400e+01 -2.725447e+02
      vertex 8.710217e+01 -5.975614e+01 -2.527341e+02
      vertex 8.700987e+01 -3.931127e+01 -2.727103e+02
    endloop
  endfacet
  facet normal -1.053025e-02 -8.251449e-01 -5.648230e-01
    outer loop
      vertex 1.070000e+02 -6.033183e+01 -2.522641e+02
      vertex 1.076000e+02 -7.213597e+01 -2.350307e+02
      vertex 8.710217e+01 -5.975614e+01 -2.527341e+02
    endloop
  endfacet
  facet normal 4.591259e-03 -5.324447e-01 -8.464523e-01
    outer loop
      vertex 1.066249e+02 -2.809400e+01 -2.725447e+02
      vertex 1.070000e+02 -6.033183e+01 -2.522641e+02
      vertex 8.710217e+01 -5.975614e+01 -2.527341e+02
    endloop
  endfacet
  facet normal -3.294413e-01 -9.386205e-01 -1.022739e-01
    outer loop
      vertex 8.693849e+01 -3.879701e+01 -2.772000e+02
      vertex 8.700987e+01 -3.931127e+01 -2.727103e+02
      vertex 6.321955e+01 -3.047203e+01 -2.772000e+02
    endloop
  endfacet
  facet normal 4.942739e-01 -8.627358e-01 -1.066782e-01
    outer loop
      vertex 1.066249e+02 -2.809400e+01 -2.725447e+02
      vertex 8.700987e+01 -3.931127e+01 -2.727103e+02
      vertex 8.693849e+01 -3.879701e+01 -2.772000e+02
    endloop
  endfacet
  facet normal -1.927283e-03 9.999971e-01 1.459162e-03
    outer loop
      vertex 8.675688e+01 -6.625000e+01 -1.662485e+02
      vertex 8.736153e+01 -6.620000e+01 -1.997160e+02
      vertex 6.210000e+01 -6.625000e+01 -1.988156e+02
    endloop
  endfacet
  facet normal 2.531742e-16 1.000000e+00 4.608225e-15
    outer loop
      vertex 8.675688e+01 -6.625000e+01 -1.662485e+02
      vertex 6.210000e+01 -6.625000e+01 -1.988156e+02
      vertex 6.660735e+01 -6.625000e+01 -1.743929e+02
    endloop
  endfacet
  facet normal -2.174732e-02 8.784963e-01 4.772539e-01
    outer loop
      vertex 1.051000e+02 -6.625000e+01 -1.988156e+02
      vertex 8.710215e+01 -4.405000e+01 -2.405000e+02
      vertex 8.736153e+01 -6.620000e+01 -1.997160e+02
    endloop
  endfacet
  facet normal 9.157205e-04 9.999984e-01 1.510528e-03
    outer loop
      vertex 1.010101e+02 -6.625000e+01 -1.748891e+02
      vertex 8.736153e+01 -6.620000e+01 -1.997160e+02
      vertex 8.675688e+01 -6.625000e+01 -1.662485e+02
    endloop
  endfacet
  facet normal 2.794476e-03 9.999960e-01 4.776753e-04
    outer loop
      vertex 1.010101e+02 -6.625000e+01 -1.748891e+02
      vertex 1.051000e+02 -6.625000e+01 -1.988156e+02
      vertex 8.736153e+01 -6.620000e+01 -1.997160e+02
    endloop
  endfacet
  facet normal 2.780813e-02 1.070333e-01 9.938665e-01
    outer loop
      vertex 1.128196e+02 -6.907674e+00 -2.452196e+02
      vertex 8.710215e+01 -6.907674e+00 -2.445000e+02
      vertex 8.710215e+01 -4.405000e+01 -2.405000e+02
    endloop
  endfacet
  facet normal 2.348756e-15 8.826311e-01 4.700662e-01
    outer loop
      vertex 1.051000e+02 -6.625000e+01 -1.988156e+02
      vertex 1.076000e+02 -4.405000e+01 -2.405000e+02
      vertex 8.710215e+01 -4.405000e+01 -2.405000e+02
    endloop
  endfacet
  facet normal 4.110718e-15 1.260535e-01 9.920234e-01
    outer loop
      vertex 1.128196e+02 -6.907674e+00 -2.452196e+02
      vertex 8.710215e+01 -4.405000e+01 -2.405000e+02
      vertex 1.076000e+02 -4.405000e+01 -2.405000e+02
    endloop
  endfacet
  facet normal 1.568077e-02 5.323039e-03 -9.998629e-01
    outer loop
      vertex 8.710215e+01 -6.907674e+00 -2.767000e+02
      vertex 6.321955e+01 -3.047203e+01 -2.772000e+02
      vertex 5.535297e+01 -7.298408e+00 -2.772000e+02
    endloop
  endfacet
  facet normal 5.492515e-03 1.564888e-02 -9.998625e-01
    outer loop
      vertex 8.710215e+01 -6.907674e+00 -2.767000e+02
      vertex 8.693849e+01 -3.879701e+01 -2.772000e+02
      vertex 6.321955e+01 -3.047203e+01 -2.772000e+02
    endloop
  endfacet
  facet normal 1.749885e-02 -1.586321e-01 -9.871827e-01
    outer loop
      vertex 8.512460e+01 3.495000e+01 -2.834612e+02
      vertex 8.710215e+01 -6.907674e+00 -2.767000e+02
      vertex 5.535297e+01 -7.298408e+00 -2.772000e+02
    endloop
  endfacet
  facet normal -3.186999e-01 8.467054e-02 -9.440664e-01
    outer loop
      vertex 8.512460e+01 3.495000e+01 -2.834612e+02
      vertex 5.535297e+01 -7.298408e+00 -2.772000e+02
      vertex 6.521442e+01 3.045000e+01 -2.771435e+02
    endloop
  endfacet
  facet normal -1.942431e-02 1.577400e-02 -9.996869e-01
    outer loop
      vertex 1.119819e+02 -7.958216e+00 -2.772000e+02
      vertex 8.693849e+01 -3.879701e+01 -2.772000e+02
      vertex 8.710215e+01 -6.907674e+00 -2.767000e+02
    endloop
  endfacet
  facet normal 4.904291e-01 -8.679433e-01 -7.844632e-02
    outer loop
      vertex 1.060511e+02 -2.799746e+01 -2.772000e+02
      vertex 1.066249e+02 -2.809400e+01 -2.725447e+02
      vertex 8.693849e+01 -3.879701e+01 -2.772000e+02
    endloop
  endfacet
  facet normal -2.779978e-16 5.755487e-15 -1.000000e+00
    outer loop
      vertex 1.119819e+02 -7.958216e+00 -2.772000e+02
      vertex 1.060511e+02 -2.799746e+01 -2.772000e+02
      vertex 8.693849e+01 -3.879701e+01 -2.772000e+02
    endloop
  endfacet
  facet normal 2.674658e-01 -1.413248e-01 -9.531471e-01
    outer loop
      vertex 1.023864e+02 2.945000e+01 -2.778018e+02
      vertex 8.710215e+01 -6.907674e+00 -2.767000e+02
      vertex 8.512460e+01 3.495000e+01 -2.834612e+02
    endloop
  endfacet
  facet normal -2.099401e-02 -2.146647e-02 -9.995491e-01
    outer loop
      vertex 1.023864e+02 2.945000e+01 -2.778018e+02
      vertex 1.119819e+02 -7.958216e+00 -2.772000e+02
      vertex 8.710215e+01 -6.907674e+00 -2.767000e+02
    endloop
  endfacet
  facet normal -4.479354e-01 -5.737312e-01 6.857013e-01
    outer loop
      vertex 1.171773e+02 2.615000e+01 -1.971938e+02
      vertex 9.215655e+01 2.615000e+01 -2.135386e+02
      vertex 8.710215e+01 -6.907674e+00 -2.445000e+02
    endloop
  endfacet
  facet normal 1.583507e-02 -8.242891e-01 5.659476e-01
    outer loop
      vertex 1.171773e+02 2.615000e+01 -1.971938e+02
      vertex 8.710215e+01 -6.907674e+00 -2.445000e+02
      vertex 1.128196e+02 -6.907674e+00 -2.452196e+02
    endloop
  endfacet
  facet normal -2.994483e-01 -1.445830e-02 -9.540030e-01
    outer loop
      vertex 8.527078e+01 6.044573e+01 -2.838935e+02
      vertex 8.512460e+01 3.495000e+01 -2.834612e+02
      vertex 6.521442e+01 3.045000e+01 -2.771435e+02
    endloop
  endfacet
  facet normal -2.342757e-01 -6.168276e-02 -9.702114e-01
    outer loop
      vertex 8.527078e+01 6.044573e+01 -2.838935e+02
      vertex 6.521442e+01 3.045000e+01 -2.771435e+02
      vertex 6.802498e+01 6.033695e+01 -2.797223e+02
    endloop
  endfacet
  facet normal 3.334925e-01 -1.789357e-02 -9.425829e-01
    outer loop
      vertex 1.015560e+02 6.076394e+01 -2.781377e+02
      vertex 8.512460e+01 3.495000e+01 -2.834612e+02
      vertex 8.527078e+01 6.044573e+01 -2.838935e+02
    endloop
  endfacet
  facet normal 3.109787e-01 -1.947651e-03 -9.504149e-01
    outer loop
      vertex 1.015560e+02 6.076394e+01 -2.781377e+02
      vertex 1.023864e+02 2.945000e+01 -2.778018e+02
      vertex 8.512460e+01 3.495000e+01 -2.834612e+02
    endloop
  endfacet
  facet normal -5.123319e-03 -9.999841e-01 2.340672e-03
    outer loop
      vertex 1.128091e+02 2.615000e+01 -1.683338e+02
      vertex 8.710215e+01 2.630000e+01 -1.605186e+02
      vertex 9.215655e+01 2.615000e+01 -2.135386e+02
    endloop
  endfacet
  facet normal 2.868976e-16 -1.000000e+00 -5.003747e-15
    outer loop
      vertex 1.128091e+02 2.615000e+01 -1.683338e+02
      vertex 9.215655e+01 2.615000e+01 -2.135386e+02
      vertex 1.171773e+02 2.615000e+01 -1.971938e+02
    endloop
  endfacet
  facet normal -1.482289e-02 -9.979598e-01 6.210016e-02
    outer loop
      vertex 1.031000e+02 2.630000e+01 -1.567000e+02
      vertex 8.710215e+01 2.677408e+01 -1.529000e+02
      vertex 8.710215e+01 2.630000e+01 -1.605186e+02
    endloop
  endfacet
  facet normal -2.566201e-03 -9.999389e-01 1.075104e-02
    outer loop
      vertex 1.031000e+02 2.630000e+01 -1.567000e+02
      vertex 8.710215e+01 2.630000e+01 -1.605186e+02
      vertex 1.128091e+02 2.615000e+01 -1.683338e+02
    endloop
  endfacet
  facet normal -1.614449e-15 -9.687200e-03 9.999531e-01
    outer loop
      vertex 8.489305e+01 6.045584e+01 -1.525737e+02
      vertex 7.090000e+01 2.677408e+01 -1.529000e+02
      vertex 8.710215e+01 2.677408e+01 -1.529000e+02
    endloop
  endfacet
  facet normal -2.158305e-01 8.023918e-02 9.731284e-01
    outer loop
      vertex 8.489305e+01 6.045584e+01 -1.525737e+02
      vertex 6.778503e+01 6.045584e+01 -1.563681e+02
      vertex 7.090000e+01 2.677408e+01 -1.529000e+02
    endloop
  endfacet
  facet normal 2.904437e-01 9.779900e-03 9.568421e-01
    outer loop
      vertex 1.021246e+02 6.045584e+01 -1.578043e+02
      vertex 8.489305e+01 6.045584e+01 -1.525737e+02
      vertex 8.710215e+01 2.677408e+01 -1.529000e+02
    endloop
  endfacet
  facet normal 2.304971e-01 -1.992014e-02 9.728691e-01
    outer loop
      vertex 1.031000e+02 2.630000e+01 -1.567000e+02
      vertex 1.034524e+02 3.037721e+01 -1.567000e+02
      vertex 8.710215e+01 2.677408e+01 -1.529000e+02
    endloop
  endfacet
  facet normal 2.166506e-01 4.536478e-02 9.751946e-01
    outer loop
      vertex 1.021246e+02 6.045584e+01 -1.578043e+02
      vertex 8.710215e+01 2.677408e+01 -1.529000e+02
      vertex 1.034524e+02 3.037721e+01 -1.567000e+02
    endloop
  endfacet
  facet normal -2.351557e-01 1.580356e-02 -9.718292e-01
    outer loop
      vertex 8.536086e+01 7.685493e+01 -2.836485e+02
      vertex 8.527078e+01 6.044573e+01 -2.838935e+02
      vertex 6.802498e+01 6.033695e+01 -2.797223e+02
    endloop
  endfacet
  facet normal -8.726909e-01 5.663249e-02 -4.849776e-01
    outer loop
      vertex 6.938390e+01 7.682138e+01 -2.802426e+02
      vertex 6.802498e+01 6.033695e+01 -2.797223e+02
      vertex 6.218120e+01 8.305000e+01 -2.665544e+02
    endloop
  endfacet
  facet normal -2.084402e-01 -1.368716e-02 -9.779393e-01
    outer loop
      vertex 8.536086e+01 7.685493e+01 -2.836485e+02
      vertex 6.802498e+01 6.033695e+01 -2.797223e+02
      vertex 6.938390e+01 7.682138e+01 -2.802426e+02
    endloop
  endfacet
  facet normal 3.485320e-01 1.208236e-02 -9.372190e-01
    outer loop
      vertex 1.014252e+02 7.719973e+01 -2.776700e+02
      vertex 8.527078e+01 6.044573e+01 -2.838935e+02
      vertex 8.536086e+01 7.685493e+01 -2.836485e+02
    endloop
  endfacet
  facet normal 3.325784e-01 2.946941e-02 -9.426151e-01
    outer loop
      vertex 1.014252e+02 7.719973e+01 -2.776700e+02
      vertex 1.015560e+02 6.076394e+01 -2.781377e+02
      vertex 8.527078e+01 6.044573e+01 -2.838935e+02
    endloop
  endfacet
  facet normal -2.164279e-01 3.050838e-02 9.758218e-01
    outer loop
      vertex 8.565325e+01 7.720763e+01 -1.529288e+02
      vertex 6.778503e+01 6.045584e+01 -1.563681e+02
      vertex 8.489305e+01 6.045584e+01 -1.525737e+02
    endloop
  endfacet
  facet normal -2.063355e-01 1.923622e-02 9.782922e-01
    outer loop
      vertex 8.565325e+01 7.720763e+01 -1.529288e+02
      vertex 6.766878e+01 7.716135e+01 -1.567211e+02
      vertex 6.778503e+01 6.045584e+01 -1.563681e+02
    endloop
  endfacet
  facet normal 2.808776e-01 7.598852e-03 9.597135e-01
    outer loop
      vertex 1.014592e+02 7.681966e+01 -1.575517e+02
      vertex 8.565325e+01 7.720763e+01 -1.529288e+02
      vertex 8.489305e+01 6.045584e+01 -1.525737e+02
    endloop
  endfacet
  facet normal 2.904563e-01 -2.959140e-03 9.568837e-01
    outer loop
      vertex 1.014592e+02 7.681966e+01 -1.575517e+02
      vertex 8.489305e+01 6.045584e+01 -1.525737e+02
      vertex 1.021246e+02 6.045584e+01 -1.578043e+02
    endloop
  endfacet
  facet normal -1.140171e-01 8.802786e-01 -4.605537e-01
    outer loop
      vertex 8.710215e+01 8.305000e+01 -2.727240e+02
      vertex 6.938390e+01 7.682138e+01 -2.802426e+02
      vertex 6.218120e+01 8.305000e+01 -2.665544e+02
    endloop
  endfacet
  facet normal -1.037409e-01 8.721789e-01 -4.780605e-01
    outer loop
      vertex 8.536086e+01 7.685493e+01 -2.836485e+02
      vertex 6.938390e+01 7.682138e+01 -2.802426e+02
      vertex 8.710215e+01 8.305000e+01 -2.727240e+02
    endloop
  endfacet
  facet normal 2.536975e-01 8.235006e-01 -5.074291e-01
    outer loop
      vertex 1.074657e+02 8.059666e+01 -2.665244e+02
      vertex 8.536086e+01 7.685493e+01 -2.836485e+02
      vertex 8.710215e+01 8.305000e+01 -2.727240e+02
    endloop
  endfacet
  facet normal 4.039911e-02 9.991836e-01 1.518955e-15
    outer loop
      vertex 1.080981e+02 8.220109e+01 -2.370096e+02
      vertex 8.710215e+01 8.305000e+01 -2.727240e+02
      vertex 8.710215e+01 8.305000e+01 -2.357698e+02
    endloop
  endfacet
  facet normal 1.364135e-01 9.890288e-01 -5.668675e-02
    outer loop
      vertex 1.080981e+02 8.220109e+01 -2.370096e+02
      vertex 1.074657e+02 8.059666e+01 -2.665244e+02
      vertex 8.710215e+01 8.305000e+01 -2.727240e+02
    endloop
  endfacet
  facet normal 1.075086e-01 9.332712e-01 -3.427051e-01
    outer loop
      vertex 1.014252e+02 7.719973e+01 -2.776700e+02
      vertex 8.536086e+01 7.685493e+01 -2.836485e+02
      vertex 1.074657e+02 8.059666e+01 -2.665244e+02
    endloop
  endfacet
  facet normal -1.302038e-15 1.000000e+00 1.922767e-15
    outer loop
      vertex 8.710215e+01 8.305000e+01 -1.988156e+02
      vertex 1.118176e+02 8.305000e+01 -1.968607e+02
      vertex 8.710215e+01 8.305000e+01 -2.357698e+02
    endloop
  endfacet
  facet normal 3.892890e-02 9.989360e-01 -2.472809e-02
    outer loop
      vertex 1.080981e+02 8.220109e+01 -2.370096e+02
      vertex 8.710215e+01 8.305000e+01 -2.357698e+02
      vertex 1.118176e+02 8.305000e+01 -1.968607e+02
    endloop
  endfacet
  facet normal -5.025473e-03 9.979669e-01 6.353636e-02
    outer loop
      vertex 1.096214e+02 8.135406e+01 -1.703962e+02
      vertex 1.118176e+02 8.305000e+01 -1.968607e+02
      vertex 8.710215e+01 8.305000e+01 -1.988156e+02
    endloop
  endfacet
  facet normal 9.680611e-01 2.288984e-01 -1.022900e-01
    outer loop
      vertex 1.171128e+02 6.045584e+01 -1.973074e+02
      vertex 1.129801e+02 6.045584e+01 -2.364194e+02
      vertex 1.118176e+02 8.305000e+01 -1.968607e+02
    endloop
  endfacet
  facet normal 9.718824e-01 2.156288e-01 -9.459864e-02
    outer loop
      vertex 1.080981e+02 8.220109e+01 -2.370096e+02
      vertex 1.118176e+02 8.305000e+01 -1.968607e+02
      vertex 1.129801e+02 6.045584e+01 -2.364194e+02
    endloop
  endfacet
  facet normal 9.696391e-01 2.253702e-01 9.491209e-02
    outer loop
      vertex 1.096214e+02 8.135406e+01 -1.703962e+02
      vertex 1.171128e+02 6.045584e+01 -1.973074e+02
      vertex 1.118176e+02 8.305000e+01 -1.968607e+02
    endloop
  endfacet
  facet normal 7.509824e-02 9.971761e-01 1.532560e-15
    outer loop
      vertex 1.096214e+02 8.135406e+01 -1.703962e+02
      vertex 8.710215e+01 8.305000e+01 -1.988156e+02
      vertex 8.710215e+01 8.305000e+01 -1.618615e+02
    endloop
  endfacet
  facet normal 1.832721e-01 8.088361e-01 5.587446e-01
    outer loop
      vertex 1.014592e+02 7.681966e+01 -1.575517e+02
      vertex 8.710215e+01 8.305000e+01 -1.618615e+02
      vertex 8.565325e+01 7.720763e+01 -1.529288e+02
    endloop
  endfacet
  facet normal 2.366509e-01 8.591662e-01 4.536847e-01
    outer loop
      vertex 1.014592e+02 7.681966e+01 -1.575517e+02
      vertex 1.096214e+02 8.135406e+01 -1.703962e+02
      vertex 8.710215e+01 8.305000e+01 -1.618615e+02
    endloop
  endfacet
  facet normal 9.480091e-01 -3.177523e-01 -1.767119e-02
    outer loop
      vertex 1.076000e+02 -7.213597e+01 -2.350307e+02
      vertex 1.076000e+02 -7.415000e+01 -1.988156e+02
      vertex 1.070000e+02 -7.425378e+01 -2.291378e+02
    endloop
  endfacet
  facet normal 9.532659e-01 3.016664e-01 1.677660e-02
    outer loop
      vertex 1.051000e+02 -6.625000e+01 -1.988156e+02
      vertex 1.076000e+02 -7.415000e+01 -1.988156e+02
      vertex 1.076000e+02 -7.213597e+01 -2.350307e+02
    endloop
  endfacet
  facet normal 9.389702e-01 3.057397e-01 1.576648e-01
    outer loop
      vertex 1.010101e+02 -6.625000e+01 -1.748891e+02
      vertex 1.034299e+02 -7.415000e+01 -1.739805e+02
      vertex 1.076000e+02 -7.415000e+01 -1.988156e+02
    endloop
  endfacet
  facet normal 9.409861e-01 2.977804e-01 1.608480e-01
    outer loop
      vertex 1.010101e+02 -6.625000e+01 -1.748891e+02
      vertex 1.076000e+02 -7.415000e+01 -1.988156e+02
      vertex 1.051000e+02 -6.625000e+01 -1.988156e+02
    endloop
  endfacet
  facet normal 9.991634e-01 -7.816861e-03 -4.014130e-02
    outer loop
      vertex 1.076000e+02 -4.405000e+01 -2.405000e+02
      vertex 1.076000e+02 -7.213597e+01 -2.350307e+02
      vertex 1.070000e+02 -6.033183e+01 -2.522641e+02
    endloop
  endfacet
  facet normal 9.976844e-01 1.300027e-02 6.675925e-02
    outer loop
      vertex 1.051000e+02 -6.625000e+01 -1.988156e+02
      vertex 1.076000e+02 -7.213597e+01 -2.350307e+02
      vertex 1.076000e+02 -4.405000e+01 -2.405000e+02
    endloop
  endfacet
  facet normal 9.992976e-01 -1.092448e-02 -3.584710e-02
    outer loop
      vertex 1.066249e+02 -2.809400e+01 -2.725447e+02
      vertex 1.076000e+02 -4.405000e+01 -2.405000e+02
      vertex 1.070000e+02 -6.033183e+01 -2.522641e+02
    endloop
  endfacet
  facet normal 9.828276e-01 -1.515013e-01 -1.053432e-01
    outer loop
      vertex 1.128196e+02 -6.907674e+00 -2.452196e+02
      vertex 1.076000e+02 -4.405000e+01 -2.405000e+02
      vertex 1.066249e+02 -2.809400e+01 -2.725447e+02
    endloop
  endfacet
  facet normal 9.538029e-01 -2.739922e-01 -1.232407e-01
    outer loop
      vertex 1.124589e+02 -7.700224e+00 -2.727332e+02
      vertex 1.066249e+02 -2.809400e+01 -2.725447e+02
      vertex 1.060511e+02 -2.799746e+01 -2.772000e+02
    endloop
  endfacet
  facet normal 9.614119e-01 -2.750730e-01 -4.677918e-03
    outer loop
      vertex 1.128196e+02 -6.907674e+00 -2.452196e+02
      vertex 1.066249e+02 -2.809400e+01 -2.725447e+02
      vertex 1.124589e+02 -7.700224e+00 -2.727332e+02
    endloop
  endfacet
  facet normal 9.553591e-01 -2.827459e-01 -8.569614e-02
    outer loop
      vertex 1.119819e+02 -7.958216e+00 -2.772000e+02
      vertex 1.124589e+02 -7.700224e+00 -2.727332e+02
      vertex 1.060511e+02 -2.799746e+01 -2.772000e+02
    endloop
  endfacet
  facet normal 9.910077e-01 -8.805441e-02 -1.007482e-01
    outer loop
      vertex 1.166079e+02 2.677408e+01 -2.620531e+02
      vertex 1.124589e+02 -7.700224e+00 -2.727332e+02
      vertex 1.119819e+02 -7.958216e+00 -2.772000e+02
    endloop
  endfacet
  facet normal 9.971998e-01 -7.397884e-02 -1.093965e-02
    outer loop
      vertex 1.153878e+02 2.677779e+01 -2.389098e+02
      vertex 1.128196e+02 -6.907674e+00 -2.452196e+02
      vertex 1.124589e+02 -7.700224e+00 -2.727332e+02
    endloop
  endfacet
  facet normal 9.894373e-01 -1.352436e-01 5.218288e-02
    outer loop
      vertex 1.153878e+02 2.677779e+01 -2.389098e+02
      vertex 1.124589e+02 -7.700224e+00 -2.727332e+02
      vertex 1.166079e+02 2.677408e+01 -2.620531e+02
    endloop
  endfacet
  facet normal 7.450334e-01 1.807769e-01 -6.420630e-01
    outer loop
      vertex 1.023864e+02 2.945000e+01 -2.778018e+02
      vertex 1.166079e+02 2.677408e+01 -2.620531e+02
      vertex 1.119819e+02 -7.958216e+00 -2.772000e+02
    endloop
  endfacet
  facet normal 9.967686e-01 -6.797956e-02 -4.279190e-02
    outer loop
      vertex 1.171800e+02 2.679784e+01 -1.971947e+02
      vertex 1.128196e+02 -6.907674e+00 -2.452196e+02
      vertex 1.153878e+02 2.677779e+01 -2.389098e+02
    endloop
  endfacet
  facet normal 9.961637e-01 -4.339177e-03 -8.740195e-02
    outer loop
      vertex 1.171773e+02 2.615000e+01 -1.971938e+02
      vertex 1.128196e+02 -6.907674e+00 -2.452196e+02
      vertex 1.171800e+02 2.679784e+01 -1.971947e+02
    endloop
  endfacet
  facet normal 7.442379e-01 2.781216e-02 -6.673353e-01
    outer loop
      vertex 1.109652e+02 6.050573e+01 -2.669402e+02
      vertex 1.166079e+02 2.677408e+01 -2.620531e+02
      vertex 1.023864e+02 2.945000e+01 -2.778018e+02
    endloop
  endfacet
  facet normal 9.963466e-01 6.734756e-02 5.251465e-02
    outer loop
      vertex 1.129801e+02 6.045584e+01 -2.364194e+02
      vertex 1.153878e+02 2.677779e+01 -2.389098e+02
      vertex 1.166079e+02 2.677408e+01 -2.620531e+02
    endloop
  endfacet
  facet normal 9.857069e-01 1.554998e-01 -6.482007e-02
    outer loop
      vertex 1.129801e+02 6.045584e+01 -2.364194e+02
      vertex 1.166079e+02 2.677408e+01 -2.620531e+02
      vertex 1.109652e+02 6.050573e+01 -2.669402e+02
    endloop
  endfacet
  facet normal 7.656791e-01 1.340717e-02 -6.430830e-01
    outer loop
      vertex 1.015560e+02 6.076394e+01 -2.781377e+02
      vertex 1.109652e+02 6.050573e+01 -2.669402e+02
      vertex 1.023864e+02 2.945000e+01 -2.778018e+02
    endloop
  endfacet
  facet normal 9.990766e-01 1.850145e-03 -4.292461e-02
    outer loop
      vertex 1.171128e+02 6.045584e+01 -1.973074e+02
      vertex 1.171800e+02 2.679784e+01 -1.971947e+02
      vertex 1.153878e+02 2.677779e+01 -2.389098e+02
    endloop
  endfacet
  facet normal 9.913854e-01 7.862247e-02 -1.047545e-01
    outer loop
      vertex 1.171128e+02 6.045584e+01 -1.973074e+02
      vertex 1.153878e+02 2.677779e+01 -2.389098e+02
      vertex 1.129801e+02 6.045584e+01 -2.364194e+02
    endloop
  endfacet
  facet normal 9.887332e-01 -3.987770e-03 1.496354e-01
    outer loop
      vertex 1.128120e+02 2.683376e+01 -1.683318e+02
      vertex 1.171773e+02 2.615000e+01 -1.971938e+02
      vertex 1.171800e+02 2.679784e+01 -1.971947e+02
    endloop
  endfacet
  facet normal 9.887125e-01 7.887063e-03 1.496175e-01
    outer loop
      vertex 1.124457e+02 6.045584e+01 -1.676832e+02
      vertex 1.128120e+02 2.683376e+01 -1.683318e+02
      vertex 1.171800e+02 2.679784e+01 -1.971947e+02
    endloop
  endfacet
  facet normal 9.878129e-01 2.492453e-03 1.556258e-01
    outer loop
      vertex 1.124457e+02 6.045584e+01 -1.676832e+02
      vertex 1.171800e+02 2.679784e+01 -1.971947e+02
      vertex 1.171128e+02 6.045584e+01 -1.973074e+02
    endloop
  endfacet
  facet normal 9.887277e-01 -4.689913e-03 1.496512e-01
    outer loop
      vertex 1.128091e+02 2.615000e+01 -1.683338e+02
      vertex 1.171773e+02 2.615000e+01 -1.971938e+02
      vertex 1.128120e+02 2.683376e+01 -1.683318e+02
    endloop
  endfacet
  facet normal 7.783097e-01 -5.191758e-03 6.278591e-01
    outer loop
      vertex 1.034524e+02 3.037721e+01 -1.567000e+02
      vertex 1.128091e+02 2.615000e+01 -1.683338e+02
      vertex 1.128120e+02 2.683376e+01 -1.683318e+02
    endloop
  endfacet
  facet normal 7.862661e-01 5.729330e-02 6.152261e-01
    outer loop
      vertex 1.021246e+02 6.045584e+01 -1.578043e+02
      vertex 1.034524e+02 3.037721e+01 -1.567000e+02
      vertex 1.128120e+02 2.683376e+01 -1.683318e+02
    endloop
  endfacet
  facet normal 6.914519e-01 -6.400933e-03 7.223941e-01
    outer loop
      vertex 1.021246e+02 6.045584e+01 -1.578043e+02
      vertex 1.128120e+02 2.683376e+01 -1.683318e+02
      vertex 1.124457e+02 6.045584e+01 -1.676832e+02
    endloop
  endfacet
  facet normal 7.656555e-01 -6.616991e-02 6.398384e-01
    outer loop
      vertex 1.031000e+02 2.630000e+01 -1.567000e+02
      vertex 1.128091e+02 2.615000e+01 -1.683338e+02
      vertex 1.034524e+02 3.037721e+01 -1.567000e+02
    endloop
  endfacet
  facet normal 7.591128e-01 1.453566e-01 -6.345228e-01
    outer loop
      vertex 1.074657e+02 8.059666e+01 -2.665244e+02
      vertex 1.109652e+02 6.050573e+01 -2.669402e+02
      vertex 1.015560e+02 6.076394e+01 -2.781377e+02
    endloop
  endfacet
  facet normal 9.740845e-01 2.169550e-01 -6.395233e-02
    outer loop
      vertex 1.080981e+02 8.220109e+01 -2.370096e+02
      vertex 1.129801e+02 6.045584e+01 -2.364194e+02
      vertex 1.109652e+02 6.050573e+01 -2.669402e+02
    endloop
  endfacet
  facet normal 9.846030e-01 1.721320e-01 -3.045449e-02
    outer loop
      vertex 1.080981e+02 8.220109e+01 -2.370096e+02
      vertex 1.109652e+02 6.050573e+01 -2.669402e+02
      vertex 1.074657e+02 8.059666e+01 -2.665244e+02
    endloop
  endfacet
  facet normal 8.763440e-01 2.066896e-02 -4.812420e-01
    outer loop
      vertex 1.014252e+02 7.719973e+01 -2.776700e+02
      vertex 1.074657e+02 8.059666e+01 -2.665244e+02
      vertex 1.015560e+02 6.076394e+01 -2.781377e+02
    endloop
  endfacet
  facet normal 9.763504e-01 1.519190e-01 1.538199e-01
    outer loop
      vertex 1.096214e+02 8.135406e+01 -1.703962e+02
      vertex 1.124457e+02 6.045584e+01 -1.676832e+02
      vertex 1.171128e+02 6.045584e+01 -1.973074e+02
    endloop
  endfacet
  facet normal 6.913666e-01 1.696540e-02 7.223050e-01
    outer loop
      vertex 1.014592e+02 7.681966e+01 -1.575517e+02
      vertex 1.021246e+02 6.045584e+01 -1.578043e+02
      vertex 1.124457e+02 6.045584e+01 -1.676832e+02
    endloop
  endfacet
  facet normal 7.994491e-01 1.823504e-01 5.723892e-01
    outer loop
      vertex 1.014592e+02 7.681966e+01 -1.575517e+02
      vertex 1.124457e+02 6.045584e+01 -1.676832e+02
      vertex 1.096214e+02 8.135406e+01 -1.703962e+02
    endloop
  endfacet
endsolid SIM_ECUB_L_HIP_ROLL_1
