solid SIM_ECUB_L_HIP_1
  facet normal -7.403007e-01 -5.307673e-01 -4.126027e-01
    outer loop
      vertex 4.368285e+01 -5.896735e+01 -2.043904e+02
      vertex 2.488579e+01 -3.539757e+01 -2.009842e+02
      vertex 4.461649e+01 -5.110552e+01 -2.161789e+02
    endloop
  endfacet
  facet normal -7.261218e-01 -3.270240e-01 -6.048160e-01
    outer loop
      vertex 4.443842e+01 -3.637543e+01 -2.239297e+02
      vertex 4.461649e+01 -5.110552e+01 -2.161789e+02
      vertex 2.488579e+01 -3.539757e+01 -2.009842e+02
    endloop
  endfacet
  facet normal -8.387512e-01 -4.200111e-01 -3.465358e-01
    outer loop
      vertex 4.560520e+01 -6.127757e+01 -2.062432e+02
      vertex 4.368285e+01 -5.896735e+01 -2.043904e+02
      vertex 4.461649e+01 -5.110552e+01 -2.161789e+02
    endloop
  endfacet
  facet normal -6.181152e-01 -3.718861e-01 -6.925563e-01
    outer loop
      vertex 4.581615e+01 -3.708673e+01 -2.247774e+02
      vertex 4.461649e+01 -5.110552e+01 -2.161789e+02
      vertex 4.443842e+01 -3.637543e+01 -2.239297e+02
    endloop
  endfacet
  facet normal -4.046320e-01 -6.588156e-01 -6.342200e-01
    outer loop
      vertex 4.620944e+01 -5.094399e+01 -2.173630e+02
      vertex 4.560520e+01 -6.127757e+01 -2.062432e+02
      vertex 4.461649e+01 -5.110552e+01 -2.161789e+02
    endloop
  endfacet
  facet normal -5.150572e-01 -4.156978e-01 -7.496075e-01
    outer loop
      vertex 4.581615e+01 -3.708673e+01 -2.247774e+02
      vertex 4.620944e+01 -5.094399e+01 -2.173630e+02
      vertex 4.461649e+01 -5.110552e+01 -2.161789e+02
    endloop
  endfacet
  facet normal -7.838820e-01 -6.198078e-01 -3.697690e-02
    outer loop
      vertex 2.430000e+01 -3.582873e+01 -1.813390e+02
      vertex 2.488579e+01 -3.539757e+01 -2.009842e+02
      vertex 4.368285e+01 -5.896735e+01 -2.043904e+02
    endloop
  endfacet
  facet normal -7.610600e-01 3.462316e-03 -6.486723e-01
    outer loop
      vertex 2.684000e+01 -1.529441e+01 -2.031697e+02
      vertex 4.443842e+01 -3.637543e+01 -2.239297e+02
      vertex 2.488579e+01 -3.539757e+01 -2.009842e+02
    endloop
  endfacet
  facet normal -9.995544e-01 -1.093809e-03 -2.982899e-02
    outer loop
      vertex 2.430000e+01 -1.359792e+01 -1.821542e+02
      vertex 2.488579e+01 -3.539757e+01 -2.009842e+02
      vertex 2.430000e+01 -3.582873e+01 -1.813390e+02
    endloop
  endfacet
  facet normal -9.885861e-01 8.238714e-02 -1.261342e-01
    outer loop
      vertex 2.430000e+01 -1.359792e+01 -1.821542e+02
      vertex 2.684000e+01 -1.529441e+01 -2.031697e+02
      vertex 2.488579e+01 -3.539757e+01 -2.009842e+02
    endloop
  endfacet
  facet normal -7.595994e-01 -6.500065e-01 2.236698e-02
    outer loop
      vertex 4.730000e+01 -6.250021e+01 -1.842178e+02
      vertex 4.368285e+01 -5.896735e+01 -2.043904e+02
      vertex 4.560520e+01 -6.127757e+01 -2.062432e+02
    endloop
  endfacet
  facet normal -8.480025e-01 -2.391941e-01 -4.729461e-01
    outer loop
      vertex 2.684000e+01 -4.635921e+01 -1.805674e+02
      vertex 2.430000e+01 -3.582873e+01 -1.813390e+02
      vertex 4.368285e+01 -5.896735e+01 -2.043904e+02
    endloop
  endfacet
  facet normal -6.219717e-01 -7.826232e-01 -2.553637e-02
    outer loop
      vertex 4.730000e+01 -6.250021e+01 -1.842178e+02
      vertex 2.684000e+01 -4.635921e+01 -1.805674e+02
      vertex 4.368285e+01 -5.896735e+01 -2.043904e+02
    endloop
  endfacet
  facet normal -4.710828e-01 1.277055e-01 -8.727957e-01
    outer loop
      vertex 5.050000e+01 -1.538228e+01 -2.241297e+02
      vertex 4.581615e+01 -3.708673e+01 -2.247774e+02
      vertex 4.443842e+01 -3.637543e+01 -2.239297e+02
    endloop
  endfacet
  facet normal 6.880768e-01 -1.288300e-01 7.141101e-01
    outer loop
      vertex 2.684000e+01 -1.803038e+01 -2.036633e+02
      vertex 4.443842e+01 -3.637543e+01 -2.239297e+02
      vertex 2.684000e+01 -1.529441e+01 -2.031697e+02
    endloop
  endfacet
  facet normal -6.548606e-01 1.820969e-01 -7.334837e-01
    outer loop
      vertex 5.050000e+01 -1.538228e+01 -2.241297e+02
      vertex 4.443842e+01 -3.637543e+01 -2.239297e+02
      vertex 2.684000e+01 -1.803038e+01 -2.036633e+02
    endloop
  endfacet
  facet normal 1.105132e-01 -7.310301e-01 -6.733363e-01
    outer loop
      vertex 7.083425e+01 -5.896013e+01 -2.046184e+02
      vertex 4.560520e+01 -6.127757e+01 -2.062432e+02
      vertex 4.620944e+01 -5.094399e+01 -2.173630e+02
    endloop
  endfacet
  facet normal -9.094641e-01 -4.131118e-01 4.704879e-02
    outer loop
      vertex 5.000000e+01 -6.990000e+01 -1.970000e+02
      vertex 4.730000e+01 -6.250021e+01 -1.842178e+02
      vertex 4.560520e+01 -6.127757e+01 -2.062432e+02
    endloop
  endfacet
  facet normal 1.097516e-01 -7.002542e-01 -7.054067e-01
    outer loop
      vertex 7.083425e+01 -5.896013e+01 -2.046184e+02
      vertex 5.000000e+01 -6.990000e+01 -1.970000e+02
      vertex 4.560520e+01 -6.127757e+01 -2.062432e+02
    endloop
  endfacet
  facet normal 1.222655e-01 -4.655287e-01 -8.765467e-01
    outer loop
      vertex 7.083940e+01 -3.526072e+01 -2.222568e+02
      vertex 4.620944e+01 -5.094399e+01 -2.173630e+02
      vertex 4.581615e+01 -3.708673e+01 -2.247774e+02
    endloop
  endfacet
  facet normal 1.185938e-01 -7.210418e-01 -6.826670e-01
    outer loop
      vertex 7.083486e+01 -4.926447e+01 -2.148590e+02
      vertex 7.083425e+01 -5.896013e+01 -2.046184e+02
      vertex 4.620944e+01 -5.094399e+01 -2.173630e+02
    endloop
  endfacet
  facet normal 1.208754e-01 -4.637068e-01 -8.777045e-01
    outer loop
      vertex 7.083940e+01 -3.526072e+01 -2.222568e+02
      vertex 7.083486e+01 -4.926447e+01 -2.148590e+02
      vertex 4.620944e+01 -5.094399e+01 -2.173630e+02
    endloop
  endfacet
  facet normal -1.005849e-04 2.984935e-02 -9.995544e-01
    outer loop
      vertex 7.083721e+01 -1.538203e+01 -2.241318e+02
      vertex 4.581615e+01 -3.708673e+01 -2.247774e+02
      vertex 5.050000e+01 -1.538228e+01 -2.241297e+02
    endloop
  endfacet
  facet normal 1.065271e-01 -9.335711e-02 -9.899174e-01
    outer loop
      vertex 7.083721e+01 -1.538203e+01 -2.241318e+02
      vertex 7.083940e+01 -3.526072e+01 -2.222568e+02
      vertex 4.581615e+01 -3.708673e+01 -2.247774e+02
    endloop
  endfacet
  facet normal -9.690087e-01 -2.265071e-01 9.857309e-02
    outer loop
      vertex 2.684000e+01 -3.679695e+01 -1.585947e+02
      vertex 2.430000e+01 -3.582873e+01 -1.813390e+02
      vertex 2.684000e+01 -4.635921e+01 -1.805674e+02
    endloop
  endfacet
  facet normal -9.937076e-01 -2.058576e-02 1.100974e-01
    outer loop
      vertex 2.684000e+01 -1.366477e+01 -1.542695e+02
      vertex 2.430000e+01 -3.582873e+01 -1.813390e+02
      vertex 2.684000e+01 -3.679695e+01 -1.585947e+02
    endloop
  endfacet
  facet normal -9.958708e-01 3.326691e-03 9.072133e-02
    outer loop
      vertex 2.684000e+01 -1.366477e+01 -1.542695e+02
      vertex 2.430000e+01 -1.359792e+01 -1.821542e+02
      vertex 2.430000e+01 -3.582873e+01 -1.813390e+02
    endloop
  endfacet
  facet normal -6.062174e-01 -7.897115e-01 9.410775e-02
    outer loop
      vertex 5.000000e+01 -6.136702e+01 -1.573158e+02
      vertex 2.684000e+01 -4.635921e+01 -1.805674e+02
      vertex 4.730000e+01 -6.250021e+01 -1.842178e+02
    endloop
  endfacet
  facet normal -1.000000e+00 -1.754581e-16 1.046482e-15
    outer loop
      vertex 2.684000e+01 -4.342767e+01 -1.664963e+02
      vertex 2.684000e+01 -3.679695e+01 -1.585947e+02
      vertex 2.684000e+01 -4.635921e+01 -1.805674e+02
    endloop
  endfacet
  facet normal -6.428093e-01 -7.499243e-01 1.562363e-01
    outer loop
      vertex 5.000000e+01 -6.136702e+01 -1.573158e+02
      vertex 2.684000e+01 -4.342767e+01 -1.664963e+02
      vertex 2.684000e+01 -4.635921e+01 -1.805674e+02
    endloop
  endfacet
  facet normal -9.432463e-01 -3.140771e-01 1.078983e-01
    outer loop
      vertex 5.000000e+01 -6.990000e+01 -1.821542e+02
      vertex 5.000000e+01 -6.136702e+01 -1.573158e+02
      vertex 4.730000e+01 -6.250021e+01 -1.842178e+02
    endloop
  endfacet
  facet normal -9.394190e-01 -3.427709e-01 -3.250210e-09
    outer loop
      vertex 5.000000e+01 -6.990000e+01 -1.821542e+02
      vertex 4.730000e+01 -6.250021e+01 -1.842178e+02
      vertex 5.000000e+01 -6.990000e+01 -1.970000e+02
    endloop
  endfacet
  facet normal -1.346539e-01 -7.590427e-01 6.369634e-01
    outer loop
      vertex 4.950000e+01 -3.875523e+01 -1.561380e+02
      vertex 2.684000e+01 -3.679695e+01 -1.585947e+02
      vertex 2.684000e+01 -4.342767e+01 -1.664963e+02
    endloop
  endfacet
  facet normal -9.543327e-02 -9.913568e-01 9.002272e-02
    outer loop
      vertex 5.050000e+01 -3.696115e+01 -1.353210e+02
      vertex 2.684000e+01 -3.679695e+01 -1.585947e+02
      vertex 4.950000e+01 -3.875523e+01 -1.561380e+02
    endloop
  endfacet
  facet normal -1.000000e+00 1.308315e-15 -2.890177e-15
    outer loop
      vertex 2.684000e+01 -1.726689e+01 -1.534416e+02
      vertex 2.684000e+01 -1.366477e+01 -1.542695e+02
      vertex 2.684000e+01 -3.679695e+01 -1.585947e+02
    endloop
  endfacet
  facet normal -1.000000e+00 1.271865e-16 1.586270e-15
    outer loop
      vertex 2.684000e+01 -2.977021e+01 -1.546788e+02
      vertex 2.684000e+01 -1.726689e+01 -1.534416e+02
      vertex 2.684000e+01 -3.679695e+01 -1.585947e+02
    endloop
  endfacet
  facet normal -6.531831e-01 -3.686052e-01 6.614242e-01
    outer loop
      vertex 5.050000e+01 -3.696115e+01 -1.353210e+02
      vertex 2.684000e+01 -2.977021e+01 -1.546788e+02
      vertex 2.684000e+01 -3.679695e+01 -1.585947e+02
    endloop
  endfacet
  facet normal -4.054183e-01 -5.649053e-02 9.123841e-01
    outer loop
      vertex 4.950000e+01 -3.875523e+01 -1.561380e+02
      vertex 2.684000e+01 -4.342767e+01 -1.664963e+02
      vertex 5.000000e+01 -6.136702e+01 -1.573158e+02
    endloop
  endfacet
  facet normal -9.984395e-01 -2.468711e-02 5.009043e-02
    outer loop
      vertex 5.050000e+01 -3.696115e+01 -1.353210e+02
      vertex 4.950000e+01 -3.875523e+01 -1.561380e+02
      vertex 5.000000e+01 -6.136702e+01 -1.573158e+02
    endloop
  endfacet
  facet normal -9.970036e-01 -3.950871e-02 6.650411e-02
    outer loop
      vertex 5.050000e+01 -5.138525e+01 -1.438901e+02
      vertex 5.050000e+01 -3.696115e+01 -1.353210e+02
      vertex 5.000000e+01 -6.136702e+01 -1.573158e+02
    endloop
  endfacet
  facet normal -8.984185e-01 -4.153158e-01 1.426779e-01
    outer loop
      vertex 5.050000e+01 -6.469171e+01 -1.638451e+02
      vertex 5.000000e+01 -6.136702e+01 -1.573158e+02
      vertex 5.000000e+01 -6.990000e+01 -1.821542e+02
    endloop
  endfacet
  facet normal -2.370010e-02 -8.916078e-01 4.521878e-01
    outer loop
      vertex 7.083666e+01 -6.177120e+01 -1.570207e+02
      vertex 5.000000e+01 -6.136702e+01 -1.573158e+02
      vertex 5.050000e+01 -6.469171e+01 -1.638451e+02
    endloop
  endfacet
  facet normal -2.399419e-02 -7.841856e-01 6.200623e-01
    outer loop
      vertex 7.083907e+01 -5.138711e+01 -1.438880e+02
      vertex 5.000000e+01 -6.136702e+01 -1.573158e+02
      vertex 7.083666e+01 -6.177120e+01 -1.570207e+02
    endloop
  endfacet
  facet normal -1.351368e-04 -8.025027e-01 5.966485e-01
    outer loop
      vertex 7.083907e+01 -5.138711e+01 -1.438880e+02
      vertex 5.050000e+01 -5.138525e+01 -1.438901e+02
      vertex 5.000000e+01 -6.136702e+01 -1.573158e+02
    endloop
  endfacet
  facet normal -4.873661e-01 1.550278e-01 -8.593257e-01
    outer loop
      vertex 4.730000e+01 -9.606097e+00 -2.137474e+02
      vertex 2.684000e+01 -1.803038e+01 -2.036633e+02
      vertex 2.684000e+01 -1.529441e+01 -2.031697e+02
    endloop
  endfacet
  facet normal -4.964383e-01 2.281398e-01 -8.375567e-01
    outer loop
      vertex 5.000000e+01 1.231573e+01 -2.093765e+02
      vertex 4.730000e+01 -9.606097e+00 -2.137474e+02
      vertex 2.684000e+01 -1.529441e+01 -2.031697e+02
    endloop
  endfacet
  facet normal -9.803718e-01 1.478519e-01 -1.304261e-01
    outer loop
      vertex 2.684000e+01 4.100935e+00 -1.811830e+02
      vertex 2.684000e+01 -1.529441e+01 -2.031697e+02
      vertex 2.430000e+01 -1.359792e+01 -1.821542e+02
    endloop
  endfacet
  facet normal -1.000000e+00 2.631285e-15 2.641938e-16
    outer loop
      vertex 2.684000e+01 -2.537113e+00 -1.957545e+02
      vertex 2.684000e+01 -1.529441e+01 -2.031697e+02
      vertex 2.684000e+01 4.100935e+00 -1.811830e+02
    endloop
  endfacet
  facet normal -6.390283e-01 3.865372e-01 -6.650051e-01
    outer loop
      vertex 5.000000e+01 1.231573e+01 -2.093765e+02
      vertex 2.684000e+01 -1.529441e+01 -2.031697e+02
      vertex 2.684000e+01 -2.537113e+00 -1.957545e+02
    endloop
  endfacet
  facet normal -5.329434e-01 6.589171e-01 -5.308480e-01
    outer loop
      vertex 5.050000e+01 -1.538228e+01 -2.241297e+02
      vertex 2.684000e+01 -1.803038e+01 -2.036633e+02
      vertex 4.730000e+01 -9.606097e+00 -2.137474e+02
    endloop
  endfacet
  facet normal -9.043656e-01 1.877940e-01 -3.832182e-01
    outer loop
      vertex 5.000000e+01 1.231573e+01 -2.093765e+02
      vertex 5.050000e+01 -1.538228e+01 -2.241297e+02
      vertex 4.730000e+01 -9.606097e+00 -2.137474e+02
    endloop
  endfacet
  facet normal -7.791457e-01 2.836743e-01 -5.589820e-01
    outer loop
      vertex 6.028872e+01 6.480178e+00 -2.266790e+02
      vertex 5.050000e+01 -1.538228e+01 -2.241297e+02
      vertex 5.000000e+01 1.231573e+01 -2.093765e+02
    endloop
  endfacet
  facet normal -9.594146e-05 -1.929292e-01 -9.812127e-01
    outer loop
      vertex 7.083576e+01 7.627348e+00 -2.286559e+02
      vertex 7.083721e+01 -1.538203e+01 -2.241318e+02
      vertex 5.050000e+01 -1.538228e+01 -2.241297e+02
    endloop
  endfacet
  facet normal -1.805734e-01 -3.377242e-02 -9.829815e-01
    outer loop
      vertex 7.083576e+01 7.627348e+00 -2.286559e+02
      vertex 5.050000e+01 -1.538228e+01 -2.241297e+02
      vertex 6.028872e+01 6.480178e+00 -2.266790e+02
    endloop
  endfacet
  facet normal -9.937194e-01 6.557350e-02 9.067461e-02
    outer loop
      vertex 2.684000e+01 -4.223913e-01 -1.638461e+02
      vertex 2.430000e+01 -1.359792e+01 -1.821542e+02
      vertex 2.684000e+01 -1.366477e+01 -1.542695e+02
    endloop
  endfacet
  facet normal -9.894779e-01 1.399978e-01 3.652633e-02
    outer loop
      vertex 2.684000e+01 -4.223913e-01 -1.638461e+02
      vertex 2.684000e+01 4.100935e+00 -1.811830e+02
      vertex 2.430000e+01 -1.359792e+01 -1.821542e+02
    endloop
  endfacet
  facet normal -6.553746e-01 1.691826e-01 7.361123e-01
    outer loop
      vertex 5.034774e+01 -1.470979e+01 -1.331000e+02
      vertex 2.684000e+01 -1.366477e+01 -1.542695e+02
      vertex 2.684000e+01 -1.726689e+01 -1.534416e+02
    endloop
  endfacet
  facet normal -3.433744e-03 9.985829e-01 5.310697e-02
    outer loop
      vertex 4.950000e+01 -1.359792e+01 -1.540615e+02
      vertex 2.684000e+01 -1.366477e+01 -1.542695e+02
      vertex 5.034774e+01 -1.470979e+01 -1.331000e+02
    endloop
  endfacet
  facet normal -9.391428e-03 8.262578e-02 9.965364e-01
    outer loop
      vertex 4.700000e+01 1.312409e+01 -1.563007e+02
      vertex 2.684000e+01 -1.366477e+01 -1.542695e+02
      vertex 4.950000e+01 -1.359792e+01 -1.540615e+02
    endloop
  endfacet
  facet normal -5.718316e-01 4.807351e-01 6.647574e-01
    outer loop
      vertex 4.700000e+01 1.312409e+01 -1.563007e+02
      vertex 2.684000e+01 -4.223913e-01 -1.638461e+02
      vertex 2.684000e+01 -1.366477e+01 -1.542695e+02
    endloop
  endfacet
  facet normal -6.478264e-01 -7.500959e-02 7.580861e-01
    outer loop
      vertex 5.034774e+01 -1.470979e+01 -1.331000e+02
      vertex 2.684000e+01 -1.726689e+01 -1.534416e+02
      vertex 2.684000e+01 -2.977021e+01 -1.546788e+02
    endloop
  endfacet
  facet normal -6.456802e-01 -8.021756e-02 7.593828e-01
    outer loop
      vertex 5.034774e+01 -1.470979e+01 -1.331000e+02
      vertex 2.684000e+01 -2.977021e+01 -1.546788e+02
      vertex 5.050000e+01 -3.696115e+01 -1.353210e+02
    endloop
  endfacet
  facet normal -5.631885e-03 -9.935990e-02 9.950356e-01
    outer loop
      vertex 7.083422e+01 -1.457015e+01 -1.329701e+02
      vertex 5.034774e+01 -1.470979e+01 -1.331000e+02
      vertex 5.050000e+01 -3.696115e+01 -1.353210e+02
    endloop
  endfacet
  facet normal 1.005009e-03 -5.107477e-01 8.597300e-01
    outer loop
      vertex 7.083489e+01 -3.685817e+01 -1.352836e+02
      vertex 5.050000e+01 -3.696115e+01 -1.353210e+02
      vertex 5.050000e+01 -5.138525e+01 -1.438901e+02
    endloop
  endfacet
  facet normal -1.306916e-03 -1.032476e-01 9.946548e-01
    outer loop
      vertex 7.083422e+01 -1.457015e+01 -1.329701e+02
      vertex 5.050000e+01 -3.696115e+01 -1.353210e+02
      vertex 7.083489e+01 -3.685817e+01 -1.352836e+02
    endloop
  endfacet
  facet normal -9.988596e-01 2.336628e-02 4.163581e-02
    outer loop
      vertex 5.050000e+01 3.951544e+00 -1.399200e+02
      vertex 4.950000e+01 -1.359792e+01 -1.540615e+02
      vertex 5.034774e+01 -1.470979e+01 -1.331000e+02
    endloop
  endfacet
  facet normal -6.635613e-03 4.421686e-02 9.989999e-01
    outer loop
      vertex 7.083576e+01 1.321817e+01 -1.342000e+02
      vertex 5.034774e+01 -1.470979e+01 -1.331000e+02
      vertex 7.083422e+01 -1.457015e+01 -1.329701e+02
    endloop
  endfacet
  facet normal -3.885401e-01 3.190822e-01 8.644207e-01
    outer loop
      vertex 7.083576e+01 1.321817e+01 -1.342000e+02
      vertex 5.050000e+01 3.951544e+00 -1.399200e+02
      vertex 5.034774e+01 -1.470979e+01 -1.331000e+02
    endloop
  endfacet
  facet normal -9.829770e-01 -7.802503e-02 1.663377e-01
    outer loop
      vertex 5.050000e+01 3.951544e+00 -1.399200e+02
      vertex 4.700000e+01 1.312409e+01 -1.563007e+02
      vertex 4.950000e+01 -1.359792e+01 -1.540615e+02
    endloop
  endfacet
  facet normal -5.046931e-01 7.856202e-01 -3.578907e-01
    outer loop
      vertex 4.700000e+01 1.578360e+01 -1.839673e+02
      vertex 2.684000e+01 -2.537113e+00 -1.957545e+02
      vertex 2.684000e+01 4.100935e+00 -1.811830e+02
    endloop
  endfacet
  facet normal -4.910042e-01 8.671600e-01 8.335714e-02
    outer loop
      vertex 4.700000e+01 1.312409e+01 -1.563007e+02
      vertex 4.700000e+01 1.578360e+01 -1.839673e+02
      vertex 2.684000e+01 4.100935e+00 -1.811830e+02
    endloop
  endfacet
  facet normal -5.972611e-01 7.760674e-01 2.024810e-01
    outer loop
      vertex 4.700000e+01 1.312409e+01 -1.563007e+02
      vertex 2.684000e+01 4.100935e+00 -1.811830e+02
      vertex 2.684000e+01 -4.223913e-01 -1.638461e+02
    endloop
  endfacet
  facet normal -6.030741e-01 7.777207e-01 -1.773476e-01
    outer loop
      vertex 5.000000e+01 1.231573e+01 -2.093765e+02
      vertex 2.684000e+01 -2.537113e+00 -1.957545e+02
      vertex 4.700000e+01 1.578360e+01 -1.839673e+02
    endloop
  endfacet
  facet normal -8.255084e-01 5.378999e-01 -1.708789e-01
    outer loop
      vertex 5.846277e+01 3.328000e+01 -1.842676e+02
      vertex 5.000000e+01 1.231573e+01 -2.093765e+02
      vertex 4.700000e+01 1.578360e+01 -1.839673e+02
    endloop
  endfacet
  facet normal -9.163503e-01 3.985405e-01 3.831034e-02
    outer loop
      vertex 5.050000e+01 2.168309e+01 -1.616224e+02
      vertex 4.700000e+01 1.578360e+01 -1.839673e+02
      vertex 4.700000e+01 1.312409e+01 -1.563007e+02
    endloop
  endfacet
  facet normal -8.364993e-01 5.477992e-01 -1.360437e-02
    outer loop
      vertex 5.050000e+01 2.168309e+01 -1.616224e+02
      vertex 5.846277e+01 3.328000e+01 -1.842676e+02
      vertex 4.700000e+01 1.578360e+01 -1.839673e+02
    endloop
  endfacet
  facet normal -7.024392e-01 4.340393e-01 -5.640825e-01
    outer loop
      vertex 5.900000e+01 2.575000e+01 -2.102469e+02
      vertex 6.028872e+01 6.480178e+00 -2.266790e+02
      vertex 5.000000e+01 1.231573e+01 -2.093765e+02
    endloop
  endfacet
  facet normal -8.233421e-01 5.403308e-01 -1.736387e-01
    outer loop
      vertex 5.846277e+01 3.328000e+01 -1.842676e+02
      vertex 5.900000e+01 2.575000e+01 -2.102469e+02
      vertex 5.000000e+01 1.231573e+01 -2.093765e+02
    endloop
  endfacet
  facet normal -8.696115e-01 3.277022e-01 3.693063e-01
    outer loop
      vertex 6.001118e+01 2.575000e+01 -1.368666e+02
      vertex 4.700000e+01 1.312409e+01 -1.563007e+02
      vertex 5.050000e+01 3.951544e+00 -1.399200e+02
    endloop
  endfacet
  facet normal -8.367647e-01 4.918280e-01 2.406864e-01
    outer loop
      vertex 6.001118e+01 2.575000e+01 -1.368666e+02
      vertex 5.050000e+01 2.168309e+01 -1.616224e+02
      vertex 4.700000e+01 1.312409e+01 -1.563007e+02
    endloop
  endfacet
  facet normal -2.377528e-01 -9.713257e-01 -9.210269e-09
    outer loop
      vertex 7.083576e+01 -7.500000e+01 -1.821542e+02
      vertex 5.000000e+01 -6.990000e+01 -1.821542e+02
      vertex 5.000000e+01 -6.990000e+01 -1.970000e+02
    endloop
  endfacet
  facet normal -1.934068e-01 -9.789721e-01 -6.486538e-02
    outer loop
      vertex 7.671677e+01 -7.500000e+01 -1.996894e+02
      vertex 7.083576e+01 -7.500000e+01 -1.821542e+02
      vertex 5.000000e+01 -6.990000e+01 -1.970000e+02
    endloop
  endfacet
  facet normal -1.586309e-01 -3.427206e-01 -9.259475e-01
    outer loop
      vertex 7.083425e+01 -5.896013e+01 -2.046184e+02
      vertex 7.671677e+01 -7.500000e+01 -1.996894e+02
      vertex 5.000000e+01 -6.990000e+01 -1.970000e+02
    endloop
  endfacet
  facet normal -2.313082e-01 -9.449966e-01 2.312529e-01
    outer loop
      vertex 7.854275e+01 -7.500000e+01 -1.744454e+02
      vertex 5.000000e+01 -6.990000e+01 -1.821542e+02
      vertex 7.083576e+01 -7.500000e+01 -1.821542e+02
    endloop
  endfacet
  facet normal -2.399047e-01 -9.320075e-01 2.716757e-01
    outer loop
      vertex 7.854275e+01 -7.500000e+01 -1.744454e+02
      vertex 5.050000e+01 -6.469171e+01 -1.638451e+02
      vertex 5.000000e+01 -6.990000e+01 -1.821542e+02
    endloop
  endfacet
  facet normal 1.131488e-15 -1.000000e+00 -4.483031e-15
    outer loop
      vertex 9.133356e+01 -7.500000e+01 -1.991701e+02
      vertex 7.083576e+01 -7.500000e+01 -1.821542e+02
      vertex 7.671677e+01 -7.500000e+01 -1.996894e+02
    endloop
  endfacet
  facet normal 5.232623e-01 -6.726990e-01 -5.231373e-01
    outer loop
      vertex 1.046895e+02 -6.615117e+01 -1.596710e+02
      vertex 7.854275e+01 -7.500000e+01 -1.744454e+02
      vertex 7.083576e+01 -7.500000e+01 -1.821542e+02
    endloop
  endfacet
  facet normal 4.108810e-16 -1.000000e+00 -5.351092e-15
    outer loop
      vertex 9.679297e+01 -7.500000e+01 -1.828168e+02
      vertex 7.083576e+01 -7.500000e+01 -1.821542e+02
      vertex 9.133356e+01 -7.500000e+01 -1.991701e+02
    endloop
  endfacet
  facet normal 9.046206e-03 -9.350527e-01 3.543932e-01
    outer loop
      vertex 1.046895e+02 -6.615117e+01 -1.596710e+02
      vertex 7.083576e+01 -7.500000e+01 -1.821542e+02
      vertex 9.679297e+01 -7.500000e+01 -1.828168e+02
    endloop
  endfacet
  facet normal 1.182495e-04 -2.937037e-01 -9.558965e-01
    outer loop
      vertex 9.858300e+01 -5.895666e+01 -2.046161e+02
      vertex 7.671677e+01 -7.500000e+01 -1.996894e+02
      vertex 7.083425e+01 -5.896013e+01 -2.046184e+02
    endloop
  endfacet
  facet normal 3.345404e-02 -3.347798e-01 -9.417024e-01
    outer loop
      vertex 9.858300e+01 -5.895666e+01 -2.046161e+02
      vertex 9.133356e+01 -7.500000e+01 -1.991701e+02
      vertex 7.671677e+01 -7.500000e+01 -1.996894e+02
    endloop
  endfacet
  facet normal 1.495324e-04 -7.261629e-01 -6.875227e-01
    outer loop
      vertex 9.858300e+01 -5.895666e+01 -2.046161e+02
      vertex 7.083425e+01 -5.896013e+01 -2.046184e+02
      vertex 7.083486e+01 -4.926447e+01 -2.148590e+02
    endloop
  endfacet
  facet normal -7.844375e-02 -8.104175e-01 5.805773e-01
    outer loop
      vertex 7.083666e+01 -6.177120e+01 -1.570207e+02
      vertex 5.050000e+01 -6.469171e+01 -1.638451e+02
      vertex 7.854275e+01 -7.500000e+01 -1.744454e+02
    endloop
  endfacet
  facet normal -1.425925e-04 -7.964993e-01 6.046395e-01
    outer loop
      vertex 9.858541e+01 -6.177472e+01 -1.570188e+02
      vertex 7.083666e+01 -6.177120e+01 -1.570207e+02
      vertex 7.854275e+01 -7.500000e+01 -1.744454e+02
    endloop
  endfacet
  facet normal -1.748099e-01 -6.770487e-01 7.148752e-01
    outer loop
      vertex 1.046895e+02 -6.615117e+01 -1.596710e+02
      vertex 9.858541e+01 -6.177472e+01 -1.570188e+02
      vertex 7.854275e+01 -7.500000e+01 -1.744454e+02
    endloop
  endfacet
  facet normal -9.195452e-02 -7.810819e-01 6.176207e-01
    outer loop
      vertex 1.057889e+02 -5.282701e+01 -1.405054e+02
      vertex 7.083907e+01 -5.138711e+01 -1.438880e+02
      vertex 7.083666e+01 -6.177120e+01 -1.570207e+02
    endloop
  endfacet
  facet normal -1.442682e-04 -8.791992e-01 4.764544e-01
    outer loop
      vertex 1.057889e+02 -5.282701e+01 -1.405054e+02
      vertex 7.083666e+01 -6.177120e+01 -1.570207e+02
      vertex 9.858541e+01 -6.177472e+01 -1.570188e+02
    endloop
  endfacet
  facet normal -2.119358e-04 -4.671011e-01 -8.842039e-01
    outer loop
      vertex 9.858815e+01 -3.526255e+01 -2.222625e+02
      vertex 7.083486e+01 -4.926447e+01 -2.148590e+02
      vertex 7.083940e+01 -3.526072e+01 -2.222568e+02
    endloop
  endfacet
  facet normal 2.863100e-04 -7.259778e-01 -6.877181e-01
    outer loop
      vertex 9.858244e+01 -4.923293e+01 -2.148808e+02
      vertex 9.858300e+01 -5.895666e+01 -2.046161e+02
      vertex 7.083486e+01 -4.926447e+01 -2.148590e+02
    endloop
  endfacet
  facet normal -1.618485e-04 -4.671787e-01 -8.841629e-01
    outer loop
      vertex 9.858815e+01 -3.526255e+01 -2.222625e+02
      vertex 9.858244e+01 -4.923293e+01 -2.148808e+02
      vertex 7.083486e+01 -4.926447e+01 -2.148590e+02
    endloop
  endfacet
  facet normal 5.287409e-04 -9.390299e-02 -9.955812e-01
    outer loop
      vertex 9.858369e+01 -1.530986e+01 -2.241238e+02
      vertex 7.083940e+01 -3.526072e+01 -2.222568e+02
      vertex 7.083721e+01 -1.538203e+01 -2.241318e+02
    endloop
  endfacet
  facet normal -2.102067e-04 -9.288434e-02 -9.956769e-01
    outer loop
      vertex 9.858369e+01 -1.530986e+01 -2.241238e+02
      vertex 9.858815e+01 -3.526255e+01 -2.222625e+02
      vertex 7.083940e+01 -3.526072e+01 -2.222568e+02
    endloop
  endfacet
  facet normal -1.356320e-04 -5.095665e-01 8.604313e-01
    outer loop
      vertex 7.083489e+01 -3.685817e+01 -1.352836e+02
      vertex 5.050000e+01 -5.138525e+01 -1.438901e+02
      vertex 7.083907e+01 -5.138711e+01 -1.438880e+02
    endloop
  endfacet
  facet normal -1.135839e-01 -5.062929e-01 8.548486e-01
    outer loop
      vertex 1.061101e+02 -3.849741e+01 -1.315675e+02
      vertex 7.083489e+01 -3.685817e+01 -1.352836e+02
      vertex 7.083907e+01 -5.138711e+01 -1.438880e+02
    endloop
  endfacet
  facet normal -1.033961e-01 -5.247265e-01 8.449683e-01
    outer loop
      vertex 1.061101e+02 -3.849741e+01 -1.315675e+02
      vertex 7.083907e+01 -5.138711e+01 -1.438880e+02
      vertex 1.057889e+02 -5.282701e+01 -1.405054e+02
    endloop
  endfacet
  facet normal 2.125228e-04 -1.032476e-01 9.946557e-01
    outer loop
      vertex 9.858296e+01 -1.457099e+01 -1.329761e+02
      vertex 7.083422e+01 -1.457015e+01 -1.329701e+02
      vertex 7.083489e+01 -3.685817e+01 -1.352836e+02
    endloop
  endfacet
  facet normal -1.035394e-01 2.596422e-02 9.942864e-01
    outer loop
      vertex 9.858296e+01 -1.457099e+01 -1.329761e+02
      vertex 7.083489e+01 -3.685817e+01 -1.352836e+02
      vertex 1.061101e+02 -3.849741e+01 -1.315675e+02
    endloop
  endfacet
  facet normal -7.410305e-17 -1.929292e-01 -9.812127e-01
    outer loop
      vertex 9.858451e+01 7.627348e+00 -2.286559e+02
      vertex 7.083721e+01 -1.538203e+01 -2.241318e+02
      vertex 7.083576e+01 7.627348e+00 -2.286559e+02
    endloop
  endfacet
  facet normal 7.845201e-04 -1.938399e-01 -9.810329e-01
    outer loop
      vertex 9.858451e+01 7.627348e+00 -2.286559e+02
      vertex 9.858369e+01 -1.530986e+01 -2.241238e+02
      vertex 7.083721e+01 -1.538203e+01 -2.241318e+02
    endloop
  endfacet
  facet normal 1.132246e-17 4.421747e-02 9.990219e-01
    outer loop
      vertex 9.858451e+01 1.321817e+01 -1.342000e+02
      vertex 7.083576e+01 1.321817e+01 -1.342000e+02
      vertex 7.083422e+01 -1.457015e+01 -1.329701e+02
    endloop
  endfacet
  facet normal 2.179043e-04 4.400029e-02 9.990315e-01
    outer loop
      vertex 9.858451e+01 1.321817e+01 -1.342000e+02
      vertex 7.083422e+01 -1.457015e+01 -1.329701e+02
      vertex 9.858296e+01 -1.457099e+01 -1.329761e+02
    endloop
  endfacet
  facet normal -2.117905e-01 4.865547e-01 -8.475903e-01
    outer loop
      vertex 7.083576e+01 2.575000e+01 -2.182527e+02
      vertex 7.083576e+01 7.627348e+00 -2.286559e+02
      vertex 6.028872e+01 6.480178e+00 -2.266790e+02
    endloop
  endfacet
  facet normal -9.097565e-01 2.324618e-01 -3.439544e-01
    outer loop
      vertex 6.155044e+01 2.575000e+01 -2.169928e+02
      vertex 6.028872e+01 6.480178e+00 -2.266790e+02
      vertex 5.900000e+01 2.575000e+01 -2.102469e+02
    endloop
  endfacet
  facet normal -1.199347e-01 4.521343e-01 -8.838497e-01
    outer loop
      vertex 7.083576e+01 2.575000e+01 -2.182527e+02
      vertex 6.028872e+01 6.480178e+00 -2.266790e+02
      vertex 6.155044e+01 2.575000e+01 -2.169928e+02
    endloop
  endfacet
  facet normal -6.374027e-17 4.978484e-01 -8.672641e-01
    outer loop
      vertex 9.858451e+01 2.575000e+01 -2.182527e+02
      vertex 7.083576e+01 7.627348e+00 -2.286559e+02
      vertex 7.083576e+01 2.575000e+01 -2.182527e+02
    endloop
  endfacet
  facet normal 1.470475e-16 4.978484e-01 -8.672641e-01
    outer loop
      vertex 9.858451e+01 2.575000e+01 -2.182527e+02
      vertex 9.858451e+01 7.627348e+00 -2.286559e+02
      vertex 7.083576e+01 7.627348e+00 -2.286559e+02
    endloop
  endfacet
  facet normal -2.707683e-01 3.639058e-08 9.626445e-01
    outer loop
      vertex 7.083576e+01 2.575000e+01 -1.342000e+02
      vertex 5.050000e+01 3.951544e+00 -1.399200e+02
      vertex 7.083576e+01 1.321817e+01 -1.342000e+02
    endloop
  endfacet
  facet normal -2.390740e-01 -3.162523e-02 9.704862e-01
    outer loop
      vertex 7.083576e+01 2.575000e+01 -1.342000e+02
      vertex 6.001118e+01 2.575000e+01 -1.368666e+02
      vertex 5.050000e+01 3.951544e+00 -1.399200e+02
    endloop
  endfacet
  facet normal 9.679876e-24 3.780272e-08 1.000000e+00
    outer loop
      vertex 9.858451e+01 1.321817e+01 -1.342000e+02
      vertex 7.083576e+01 2.575000e+01 -1.342000e+02
      vertex 7.083576e+01 1.321817e+01 -1.342000e+02
    endloop
  endfacet
  facet normal -5.986592e-01 7.683611e-01 -2.263369e-01
    outer loop
      vertex 7.278652e+01 3.755000e+01 -2.066538e+02
      vertex 6.155044e+01 2.575000e+01 -2.169928e+02
      vertex 5.900000e+01 2.575000e+01 -2.102469e+02
    endloop
  endfacet
  facet normal -1.107516e-01 4.056601e-01 -9.072893e-01
    outer loop
      vertex 7.141592e+01 4.755000e+01 -2.020154e+02
      vertex 7.278652e+01 3.755000e+01 -2.066538e+02
      vertex 5.900000e+01 2.575000e+01 -2.102469e+02
    endloop
  endfacet
  facet normal -9.299971e-01 3.474482e-01 -1.199380e-01
    outer loop
      vertex 6.414804e+01 4.755000e+01 -1.870123e+02
      vertex 5.900000e+01 2.575000e+01 -2.102469e+02
      vertex 5.846277e+01 3.328000e+01 -1.842676e+02
    endloop
  endfacet
  facet normal -8.016021e-01 5.142647e-01 -3.049029e-01
    outer loop
      vertex 6.924514e+01 4.755000e+01 -2.004128e+02
      vertex 5.900000e+01 2.575000e+01 -2.102469e+02
      vertex 6.414804e+01 4.755000e+01 -1.870123e+02
    endloop
  endfacet
  facet normal -4.998029e-01 5.402761e-01 -6.769777e-01
    outer loop
      vertex 7.141592e+01 4.755000e+01 -2.020154e+02
      vertex 5.900000e+01 2.575000e+01 -2.102469e+02
      vertex 6.924514e+01 4.755000e+01 -2.004128e+02
    endloop
  endfacet
  facet normal -9.525802e-02 7.057808e-01 -7.019967e-01
    outer loop
      vertex 7.083576e+01 2.575000e+01 -2.182527e+02
      vertex 6.155044e+01 2.575000e+01 -2.169928e+02
      vertex 7.278652e+01 3.755000e+01 -2.066538e+02
    endloop
  endfacet
  facet normal 2.274592e-02 6.989073e-01 -7.148505e-01
    outer loop
      vertex 9.561598e+01 3.755000e+01 -2.059274e+02
      vertex 7.083576e+01 2.575000e+01 -2.182527e+02
      vertex 7.278652e+01 3.755000e+01 -2.066538e+02
    endloop
  endfacet
  facet normal 2.911896e-03 4.211075e-01 -9.070061e-01
    outer loop
      vertex 9.626762e+01 4.755000e+01 -2.019356e+02
      vertex 7.278652e+01 3.755000e+01 -2.066538e+02
      vertex 7.141592e+01 4.755000e+01 -2.020154e+02
    endloop
  endfacet
  facet normal 2.955981e-02 3.689100e-01 -9.289949e-01
    outer loop
      vertex 9.561598e+01 3.755000e+01 -2.059274e+02
      vertex 7.278652e+01 3.755000e+01 -2.066538e+02
      vertex 9.626762e+01 4.755000e+01 -2.019356e+02
    endloop
  endfacet
  facet normal -9.248128e-17 7.223323e-01 -6.915461e-01
    outer loop
      vertex 9.858451e+01 2.575000e+01 -2.182527e+02
      vertex 7.083576e+01 2.575000e+01 -2.182527e+02
      vertex 9.561598e+01 3.755000e+01 -2.059274e+02
    endloop
  endfacet
  facet normal -7.978074e-01 6.022668e-01 2.789468e-02
    outer loop
      vertex 6.959571e+01 4.755000e+01 -1.739575e+02
      vertex 5.846277e+01 3.328000e+01 -1.842676e+02
      vertex 5.050000e+01 2.168309e+01 -1.616224e+02
    endloop
  endfacet
  facet normal -8.441722e-01 4.040798e-01 3.522681e-01
    outer loop
      vertex 6.959571e+01 4.755000e+01 -1.739575e+02
      vertex 6.414804e+01 4.755000e+01 -1.870123e+02
      vertex 5.846277e+01 3.328000e+01 -1.842676e+02
    endloop
  endfacet
  facet normal 4.393968e-02 9.829825e-01 -1.783667e-01
    outer loop
      vertex 7.083576e+01 2.575000e+01 -1.342000e+02
      vertex 5.050000e+01 2.168309e+01 -1.616224e+02
      vertex 6.001118e+01 2.575000e+01 -1.368666e+02
    endloop
  endfacet
  facet normal -4.144143e-01 8.931316e-01 1.748620e-01
    outer loop
      vertex 7.456876e+01 3.328000e+01 -1.638135e+02
      vertex 5.050000e+01 2.168309e+01 -1.616224e+02
      vertex 7.083576e+01 2.575000e+01 -1.342000e+02
    endloop
  endfacet
  facet normal -8.463269e-02 3.517837e-01 9.322476e-01
    outer loop
      vertex 8.207832e+01 4.755000e+01 -1.685165e+02
      vertex 5.050000e+01 2.168309e+01 -1.616224e+02
      vertex 7.456876e+01 3.328000e+01 -1.638135e+02
    endloop
  endfacet
  facet normal -3.224059e-01 5.907281e-01 7.396586e-01
    outer loop
      vertex 6.959571e+01 4.755000e+01 -1.739575e+02
      vertex 5.050000e+01 2.168309e+01 -1.616224e+02
      vertex 8.207832e+01 4.755000e+01 -1.685165e+02
    endloop
  endfacet
  facet normal -6.204147e-16 9.691596e-01 2.464340e-01
    outer loop
      vertex 9.858451e+01 2.575000e+01 -1.342000e+02
      vertex 7.456876e+01 3.328000e+01 -1.638135e+02
      vertex 7.083576e+01 2.575000e+01 -1.342000e+02
    endloop
  endfacet
  facet normal -2.419969e-23 3.780272e-08 1.000000e+00
    outer loop
      vertex 9.858451e+01 2.575000e+01 -1.342000e+02
      vertex 7.083576e+01 2.575000e+01 -1.342000e+02
      vertex 9.858451e+01 1.321817e+01 -1.342000e+02
    endloop
  endfacet
  facet normal 3.041607e-01 1.499807e-01 9.407402e-01
    outer loop
      vertex 8.207832e+01 4.755000e+01 -1.685165e+02
      vertex 7.456876e+01 3.328000e+01 -1.638135e+02
      vertex 9.594735e+01 4.755000e+01 -1.730007e+02
    endloop
  endfacet
  facet normal 2.235640e-02 5.172963e-01 8.555143e-01
    outer loop
      vertex 9.384800e+01 3.328000e+01 -1.643173e+02
      vertex 9.594735e+01 4.755000e+01 -1.730007e+02
      vertex 7.456876e+01 3.328000e+01 -1.638135e+02
    endloop
  endfacet
  facet normal 6.313952e-03 9.703513e-01 2.416166e-01
    outer loop
      vertex 9.384800e+01 3.328000e+01 -1.643173e+02
      vertex 7.456876e+01 3.328000e+01 -1.638135e+02
      vertex 9.858451e+01 2.575000e+01 -1.342000e+02
    endloop
  endfacet
  facet normal -2.767280e-15 1.000000e+00 5.310260e-15
    outer loop
      vertex 7.125265e+01 4.755000e+01 -1.779577e+02
      vertex 6.924514e+01 4.755000e+01 -2.004128e+02
      vertex 6.414804e+01 4.755000e+01 -1.870123e+02
    endloop
  endfacet
  facet normal -1.723932e-15 -1.000000e+00 -1.786262e-15
    outer loop
      vertex 7.125265e+01 4.755000e+01 -1.779577e+02
      vertex 6.414804e+01 4.755000e+01 -1.870123e+02
      vertex 8.207832e+01 4.755000e+01 -1.685165e+02
    endloop
  endfacet
  facet normal 3.474137e-16 1.000000e+00 3.120697e-15
    outer loop
      vertex 6.959571e+01 4.755000e+01 -1.739575e+02
      vertex 8.207832e+01 4.755000e+01 -1.685165e+02
      vertex 6.414804e+01 4.755000e+01 -1.870123e+02
    endloop
  endfacet
  facet normal 4.358544e-16 1.000000e+00 5.023895e-15
    outer loop
      vertex 7.125265e+01 4.755000e+01 -1.779577e+02
      vertex 7.141592e+01 4.755000e+01 -2.020154e+02
      vertex 6.924514e+01 4.755000e+01 -2.004128e+02
    endloop
  endfacet
  facet normal -1.160167e-15 1.000000e+00 5.144035e-15
    outer loop
      vertex 9.594735e+01 4.755000e+01 -1.730007e+02
      vertex 9.626762e+01 4.755000e+01 -2.019356e+02
      vertex 7.141592e+01 4.755000e+01 -2.020154e+02
    endloop
  endfacet
  facet normal -9.546301e-16 1.000000e+00 4.970257e-15
    outer loop
      vertex 8.207832e+01 4.755000e+01 -1.685165e+02
      vertex 9.594735e+01 4.755000e+01 -1.730007e+02
      vertex 7.141592e+01 4.755000e+01 -2.020154e+02
    endloop
  endfacet
  facet normal -1.090602e-15 1.000000e+00 5.013536e-15
    outer loop
      vertex 7.125265e+01 4.755000e+01 -1.779577e+02
      vertex 8.207832e+01 4.755000e+01 -1.685165e+02
      vertex 7.141592e+01 4.755000e+01 -2.020154e+02
    endloop
  endfacet
  facet normal -2.892666e-16 1.000000e+00 4.719446e-15
    outer loop
      vertex 9.971570e+01 4.755000e+01 -1.851631e+02
      vertex 9.798800e+01 4.755000e+01 -2.003246e+02
      vertex 9.626762e+01 4.755000e+01 -2.019356e+02
    endloop
  endfacet
  facet normal 6.636073e-01 2.396396e-01 -7.086595e-01
    outer loop
      vertex 9.561598e+01 3.755000e+01 -2.059274e+02
      vertex 9.626762e+01 4.755000e+01 -2.019356e+02
      vertex 9.798800e+01 4.755000e+01 -2.003246e+02
    endloop
  endfacet
  facet normal -2.293579e-15 1.000000e+00 5.131490e-15
    outer loop
      vertex 9.594735e+01 4.755000e+01 -1.730007e+02
      vertex 9.971570e+01 4.755000e+01 -1.851631e+02
      vertex 9.626762e+01 4.755000e+01 -2.019356e+02
    endloop
  endfacet
  facet normal 4.400337e-16 1.000000e+00 4.636340e-15
    outer loop
      vertex 9.971570e+01 4.755000e+01 -1.851631e+02
      vertex 1.030520e+02 4.755000e+01 -1.870123e+02
      vertex 9.798800e+01 4.755000e+01 -2.003246e+02
    endloop
  endfacet
  facet normal 8.015861e-01 5.142794e-01 -3.049203e-01
    outer loop
      vertex 1.082000e+02 2.575000e+01 -2.102469e+02
      vertex 9.798800e+01 4.755000e+01 -2.003246e+02
      vertex 1.030520e+02 4.755000e+01 -1.870123e+02
    endloop
  endfacet
  facet normal 1.307838e-01 4.608007e-01 -8.778145e-01
    outer loop
      vertex 1.082000e+02 2.575000e+01 -2.102469e+02
      vertex 9.561598e+01 3.755000e+01 -2.059274e+02
      vertex 9.798800e+01 4.755000e+01 -2.003246e+02
    endloop
  endfacet
  facet normal 4.737572e-01 2.120738e-01 8.547390e-01
    outer loop
      vertex 9.858451e+01 3.795000e+01 -1.821542e+02
      vertex 1.030520e+02 4.755000e+01 -1.870123e+02
      vertex 9.971570e+01 4.755000e+01 -1.851631e+02
    endloop
  endfacet
  facet normal 3.446486e-01 2.912223e-01 8.924163e-01
    outer loop
      vertex 1.087784e+02 3.328000e+01 -1.845671e+02
      vertex 1.030520e+02 4.755000e+01 -1.870123e+02
      vertex 9.858451e+01 3.795000e+01 -1.821542e+02
    endloop
  endfacet
  facet normal 9.280691e-01 3.511986e-01 -1.238841e-01
    outer loop
      vertex 1.087784e+02 3.328000e+01 -1.845671e+02
      vertex 1.082000e+02 2.575000e+01 -2.102469e+02
      vertex 1.030520e+02 4.755000e+01 -1.870123e+02
    endloop
  endfacet
  facet normal 9.550147e-01 -1.978937e-02 2.958974e-01
    outer loop
      vertex 9.858451e+01 3.795000e+01 -1.821542e+02
      vertex 9.971570e+01 4.755000e+01 -1.851631e+02
      vertex 9.594735e+01 4.755000e+01 -1.730007e+02
    endloop
  endfacet
  facet normal 9.652832e-01 1.661394e-02 2.606768e-01
    outer loop
      vertex 9.858451e+01 3.795000e+01 -1.821542e+02
      vertex 9.594735e+01 4.755000e+01 -1.730007e+02
      vertex 9.384800e+01 3.328000e+01 -1.643173e+02
    endloop
  endfacet
  facet normal 8.858173e-01 -4.449637e-01 -1.316626e-01
    outer loop
      vertex 9.858300e+01 -5.895666e+01 -2.046161e+02
      vertex 9.858451e+01 -6.560000e+01 -1.821542e+02
      vertex 9.133356e+01 -7.500000e+01 -1.991701e+02
    endloop
  endfacet
  facet normal 9.368497e-01 -1.565083e-01 -3.127584e-01
    outer loop
      vertex 9.679297e+01 -7.500000e+01 -1.828168e+02
      vertex 9.133356e+01 -7.500000e+01 -1.991701e+02
      vertex 9.858451e+01 -6.560000e+01 -1.821542e+02
    endloop
  endfacet
  facet normal 1.916341e-01 -9.411618e-01 -2.783717e-01
    outer loop
      vertex 1.221000e+02 -6.096391e+01 -1.816403e+02
      vertex 9.858451e+01 -6.560000e+01 -1.821542e+02
      vertex 9.858300e+01 -5.895666e+01 -2.046161e+02
    endloop
  endfacet
  facet normal 9.815377e-01 -1.890970e-01 2.874318e-02
    outer loop
      vertex 9.858541e+01 -6.177472e+01 -1.570188e+02
      vertex 9.679297e+01 -7.500000e+01 -1.828168e+02
      vertex 9.858451e+01 -6.560000e+01 -1.821542e+02
    endloop
  endfacet
  facet normal 6.317733e-02 -9.866423e-01 1.501519e-01
    outer loop
      vertex 1.229505e+02 -6.033702e+01 -1.578235e+02
      vertex 9.858541e+01 -6.177472e+01 -1.570188e+02
      vertex 9.858451e+01 -6.560000e+01 -1.821542e+02
    endloop
  endfacet
  facet normal 1.929943e-01 -9.810173e-01 1.892980e-02
    outer loop
      vertex 1.229505e+02 -6.033702e+01 -1.578235e+02
      vertex 9.858451e+01 -6.560000e+01 -1.821542e+02
      vertex 1.221000e+02 -6.096391e+01 -1.816403e+02
    endloop
  endfacet
  facet normal 1.801844e-01 -7.140908e-01 -6.764673e-01
    outer loop
      vertex 1.181606e+02 -5.595314e+01 -2.025719e+02
      vertex 9.858300e+01 -5.895666e+01 -2.046161e+02
      vertex 9.858244e+01 -4.923293e+01 -2.148808e+02
    endloop
  endfacet
  facet normal 1.728904e-01 -9.500157e-01 -2.599599e-01
    outer loop
      vertex 1.221000e+02 -6.096391e+01 -1.816403e+02
      vertex 9.858300e+01 -5.895666e+01 -2.046161e+02
      vertex 1.181606e+02 -5.595314e+01 -2.025719e+02
    endloop
  endfacet
  facet normal 3.880706e-01 8.089157e-01 -4.416522e-01
    outer loop
      vertex 1.046895e+02 -6.615117e+01 -1.596710e+02
      vertex 9.679297e+01 -7.500000e+01 -1.828168e+02
      vertex 9.858541e+01 -6.177472e+01 -1.570188e+02
    endloop
  endfacet
  facet normal 1.645893e-01 -8.955308e-01 4.134428e-01
    outer loop
      vertex 1.180578e+02 -5.199466e+01 -1.435867e+02
      vertex 1.057889e+02 -5.282701e+01 -1.405054e+02
      vertex 9.858541e+01 -6.177472e+01 -1.570188e+02
    endloop
  endfacet
  facet normal 6.741337e-02 -8.505449e-01 5.215638e-01
    outer loop
      vertex 1.180578e+02 -5.199466e+01 -1.435867e+02
      vertex 9.858541e+01 -6.177472e+01 -1.570188e+02
      vertex 1.229505e+02 -6.033702e+01 -1.578235e+02
    endloop
  endfacet
  facet normal 1.078074e-01 -4.644904e-01 -8.789916e-01
    outer loop
      vertex 1.151179e+02 -3.464226e+01 -2.205629e+02
      vertex 9.858244e+01 -4.923293e+01 -2.148808e+02
      vertex 9.858815e+01 -3.526255e+01 -2.222625e+02
    endloop
  endfacet
  facet normal 6.735564e-05 -3.629577e-01 -9.318056e-01
    outer loop
      vertex 1.151179e+02 -3.464226e+01 -2.205629e+02
      vertex 1.121000e+02 -4.923235e+01 -2.148800e+02
      vertex 9.858244e+01 -4.923293e+01 -2.148808e+02
    endloop
  endfacet
  facet normal 6.414690e-05 -8.776637e-01 -4.792770e-01
    outer loop
      vertex 1.181606e+02 -5.595314e+01 -2.025719e+02
      vertex 9.858244e+01 -4.923293e+01 -2.148808e+02
      vertex 1.121000e+02 -4.923235e+01 -2.148800e+02
    endloop
  endfacet
  facet normal 1.366113e-01 -9.198323e-02 -9.863450e-01
    outer loop
      vertex 1.162478e+02 -1.559754e+01 -2.216505e+02
      vertex 9.858815e+01 -3.526255e+01 -2.222625e+02
      vertex 9.858369e+01 -1.530986e+01 -2.241238e+02
    endloop
  endfacet
  facet normal 1.044120e-01 -6.287447e-02 -9.925447e-01
    outer loop
      vertex 1.162478e+02 -1.559754e+01 -2.216505e+02
      vertex 1.151179e+02 -3.464226e+01 -2.205629e+02
      vertex 9.858815e+01 -3.526255e+01 -2.222625e+02
    endloop
  endfacet
  facet normal 2.450095e-01 -5.170483e-01 8.201411e-01
    outer loop
      vertex 1.219863e+02 -3.669516e+01 -1.351741e+02
      vertex 1.061101e+02 -3.849741e+01 -1.315675e+02
      vertex 1.057889e+02 -5.282701e+01 -1.405054e+02
    endloop
  endfacet
  facet normal 2.415447e-01 -5.144480e-01 8.227997e-01
    outer loop
      vertex 1.180578e+02 -5.199466e+01 -1.435867e+02
      vertex 1.219863e+02 -3.669516e+01 -1.351741e+02
      vertex 1.057889e+02 -5.282701e+01 -1.405054e+02
    endloop
  endfacet
  facet normal -6.270654e-02 3.898564e-02 9.972703e-01
    outer loop
      vertex 1.237115e+02 -1.616581e+01 -1.313337e+02
      vertex 9.858296e+01 -1.457099e+01 -1.329761e+02
      vertex 1.061101e+02 -3.849741e+01 -1.315675e+02
    endloop
  endfacet
  facet normal 2.384569e-01 -1.978997e-01 9.507755e-01
    outer loop
      vertex 1.237115e+02 -1.616581e+01 -1.313337e+02
      vertex 1.061101e+02 -3.849741e+01 -1.315675e+02
      vertex 1.219863e+02 -3.669516e+01 -1.351741e+02
    endloop
  endfacet
  facet normal 2.220848e-01 -1.890069e-01 -9.565326e-01
    outer loop
      vertex 1.071331e+02 6.334426e+00 -2.264157e+02
      vertex 9.858369e+01 -1.530986e+01 -2.241238e+02
      vertex 9.858451e+01 7.627348e+00 -2.286559e+02
    endloop
  endfacet
  facet normal 1.344516e-01 -1.567127e-01 -9.784497e-01
    outer loop
      vertex 1.071331e+02 6.334426e+00 -2.264157e+02
      vertex 1.162478e+02 -1.559754e+01 -2.216505e+02
      vertex 9.858369e+01 -1.530986e+01 -2.241238e+02
    endloop
  endfacet
  facet normal 4.281304e-01 3.974001e-02 9.028428e-01
    outer loop
      vertex 1.151864e+02 3.170362e+00 -1.416304e+02
      vertex 9.858451e+01 1.321817e+01 -1.342000e+02
      vertex 9.858296e+01 -1.457099e+01 -1.329761e+02
    endloop
  endfacet
  facet normal -2.881836e-02 4.598987e-01 8.875036e-01
    outer loop
      vertex 1.151864e+02 3.170362e+00 -1.416304e+02
      vertex 9.858296e+01 -1.457099e+01 -1.329761e+02
      vertex 1.237115e+02 -1.616581e+01 -1.313337e+02
    endloop
  endfacet
  facet normal 1.767969e-01 4.900059e-01 -8.536024e-01
    outer loop
      vertex 1.059583e+02 2.575000e+01 -2.167255e+02
      vertex 9.858451e+01 7.627348e+00 -2.286559e+02
      vertex 9.858451e+01 2.575000e+01 -2.182527e+02
    endloop
  endfacet
  facet normal 2.893488e-01 4.414222e-01 -8.493667e-01
    outer loop
      vertex 1.059583e+02 2.575000e+01 -2.167255e+02
      vertex 1.071331e+02 6.334426e+00 -2.264157e+02
      vertex 9.858451e+01 7.627348e+00 -2.286559e+02
    endloop
  endfacet
  facet normal 3.222669e-01 3.578590e-08 9.466488e-01
    outer loop
      vertex 1.073957e+02 2.575000e+01 -1.371996e+02
      vertex 9.858451e+01 2.575000e+01 -1.342000e+02
      vertex 9.858451e+01 1.321817e+01 -1.342000e+02
    endloop
  endfacet
  facet normal 3.833062e-01 -4.873696e-02 9.223346e-01
    outer loop
      vertex 1.073957e+02 2.575000e+01 -1.371996e+02
      vertex 9.858451e+01 1.321817e+01 -1.342000e+02
      vertex 1.151864e+02 3.170362e+00 -1.416304e+02
    endloop
  endfacet
  facet normal 4.607343e-01 6.939086e-01 -5.533668e-01
    outer loop
      vertex 1.082000e+02 2.575000e+01 -2.102469e+02
      vertex 9.858451e+01 2.575000e+01 -2.182527e+02
      vertex 9.561598e+01 3.755000e+01 -2.059274e+02
    endloop
  endfacet
  facet normal -6.312127e-17 1.000000e+00 4.957208e-15
    outer loop
      vertex 1.059583e+02 2.575000e+01 -2.167255e+02
      vertex 9.858451e+01 2.575000e+01 -2.182527e+02
      vertex 1.082000e+02 2.575000e+01 -2.102469e+02
    endloop
  endfacet
  facet normal 7.836460e-02 9.699845e-01 2.301935e-01
    outer loop
      vertex 1.073957e+02 2.575000e+01 -1.371996e+02
      vertex 9.384800e+01 3.328000e+01 -1.643173e+02
      vertex 9.858451e+01 2.575000e+01 -1.342000e+02
    endloop
  endfacet
  facet normal 2.596424e-01 9.150918e-01 3.085334e-01
    outer loop
      vertex 1.082000e+02 2.575000e+01 -1.540615e+02
      vertex 9.858451e+01 3.795000e+01 -1.821542e+02
      vertex 9.384800e+01 3.328000e+01 -1.643173e+02
    endloop
  endfacet
  facet normal 4.523599e-01 8.915744e-01 2.157645e-02
    outer loop
      vertex 1.073957e+02 2.575000e+01 -1.371996e+02
      vertex 1.082000e+02 2.575000e+01 -1.540615e+02
      vertex 9.384800e+01 3.328000e+01 -1.643173e+02
    endloop
  endfacet
  facet normal 4.490578e-01 8.654480e-01 2.221416e-01
    outer loop
      vertex 1.082000e+02 2.575000e+01 -1.540615e+02
      vertex 1.087784e+02 3.328000e+01 -1.845671e+02
      vertex 9.858451e+01 3.795000e+01 -1.821542e+02
    endloop
  endfacet
  facet normal 6.408011e-01 -3.900918e-01 -6.612127e-01
    outer loop
      vertex 1.151179e+02 -3.464226e+01 -2.205629e+02
      vertex 1.221000e+02 -4.071779e+01 -2.102120e+02
      vertex 1.121000e+02 -4.923235e+01 -2.148800e+02
    endloop
  endfacet
  facet normal 6.672813e-01 -4.645014e-01 -5.822148e-01
    outer loop
      vertex 1.181606e+02 -5.595314e+01 -2.025719e+02
      vertex 1.121000e+02 -4.923235e+01 -2.148800e+02
      vertex 1.221000e+02 -4.071779e+01 -2.102120e+02
    endloop
  endfacet
  facet normal 8.288291e-01 -7.193330e-04 -5.595014e-01
    outer loop
      vertex 1.221000e+02 -1.359792e+01 -2.102469e+02
      vertex 1.221000e+02 -4.071779e+01 -2.102120e+02
      vertex 1.151179e+02 -3.464226e+01 -2.205629e+02
    endloop
  endfacet
  facet normal 9.684824e-01 -2.490672e-01 2.696679e-03
    outer loop
      vertex 1.221000e+02 -4.041400e+01 -1.821542e+02
      vertex 1.181606e+02 -5.595314e+01 -2.025719e+02
      vertex 1.221000e+02 -4.071779e+01 -2.102120e+02
    endloop
  endfacet
  facet normal 9.954851e-01 -9.491186e-02 1.027621e-03
    outer loop
      vertex 1.246500e+02 -1.366827e+01 -1.821542e+02
      vertex 1.221000e+02 -4.041400e+01 -1.821542e+02
      vertex 1.221000e+02 -4.071779e+01 -2.102120e+02
    endloop
  endfacet
  facet normal 9.959056e-01 -1.162239e-04 -9.039964e-02
    outer loop
      vertex 1.246500e+02 -1.366827e+01 -1.821542e+02
      vertex 1.221000e+02 -4.071779e+01 -2.102120e+02
      vertex 1.221000e+02 -1.359792e+01 -2.102469e+02
    endloop
  endfacet
  facet normal 8.924642e-01 -7.832077e-02 -4.442674e-01
    outer loop
      vertex 1.162478e+02 -1.559754e+01 -2.216505e+02
      vertex 1.221000e+02 -1.359792e+01 -2.102469e+02
      vertex 1.151179e+02 -3.464226e+01 -2.205629e+02
    endloop
  endfacet
  facet normal 9.825332e-01 -4.652253e-03 -1.860290e-01
    outer loop
      vertex 1.221000e+02 -6.096391e+01 -1.816403e+02
      vertex 1.181606e+02 -5.595314e+01 -2.025719e+02
      vertex 1.221000e+02 -4.041400e+01 -1.821542e+02
    endloop
  endfacet
  facet normal 9.974738e-01 -1.775911e-03 -7.101310e-02
    outer loop
      vertex 1.241000e+02 -4.041400e+01 -1.540615e+02
      vertex 1.221000e+02 -6.096391e+01 -1.816403e+02
      vertex 1.221000e+02 -4.041400e+01 -1.821542e+02
    endloop
  endfacet
  facet normal 9.947265e-01 7.418880e-02 -7.081751e-02
    outer loop
      vertex 1.221000e+02 -1.359792e+01 -1.540615e+02
      vertex 1.241000e+02 -4.041400e+01 -1.540615e+02
      vertex 1.221000e+02 -4.041400e+01 -1.821542e+02
    endloop
  endfacet
  facet normal 9.914251e-01 -9.452477e-02 9.022937e-02
    outer loop
      vertex 1.221000e+02 -1.359792e+01 -1.540615e+02
      vertex 1.221000e+02 -4.041400e+01 -1.821542e+02
      vertex 1.246500e+02 -1.366827e+01 -1.821542e+02
    endloop
  endfacet
  facet normal 9.981039e-01 -5.111140e-02 -3.429717e-02
    outer loop
      vertex 1.229505e+02 -6.033702e+01 -1.578235e+02
      vertex 1.221000e+02 -6.096391e+01 -1.816403e+02
      vertex 1.241000e+02 -4.041400e+01 -1.540615e+02
    endloop
  endfacet
  facet normal 9.886485e-01 -8.094356e-02 1.265791e-01
    outer loop
      vertex 1.219863e+02 -3.669516e+01 -1.351741e+02
      vertex 1.229505e+02 -6.033702e+01 -1.578235e+02
      vertex 1.241000e+02 -4.041400e+01 -1.540615e+02
    endloop
  endfacet
  facet normal 9.854894e-01 -1.074031e-01 1.314354e-01
    outer loop
      vertex 1.237115e+02 -1.616581e+01 -1.313337e+02
      vertex 1.219863e+02 -3.669516e+01 -1.351741e+02
      vertex 1.241000e+02 -4.041400e+01 -1.540615e+02
    endloop
  endfacet
  facet normal 9.953005e-01 7.423160e-02 -6.218213e-02
    outer loop
      vertex 1.237115e+02 -1.616581e+01 -1.313337e+02
      vertex 1.241000e+02 -4.041400e+01 -1.540615e+02
      vertex 1.221000e+02 -1.359792e+01 -1.540615e+02
    endloop
  endfacet
  facet normal 7.135693e-01 -4.692626e-01 5.202033e-01
    outer loop
      vertex 1.180578e+02 -5.199466e+01 -1.435867e+02
      vertex 1.229505e+02 -6.033702e+01 -1.578235e+02
      vertex 1.219863e+02 -3.669516e+01 -1.351741e+02
    endloop
  endfacet
  facet normal 8.782443e-01 9.845462e-02 -4.679675e-01
    outer loop
      vertex 1.221000e+02 8.258358e+00 -2.056486e+02
      vertex 1.221000e+02 -1.359792e+01 -2.102469e+02
      vertex 1.162478e+02 -1.559754e+01 -2.216505e+02
    endloop
  endfacet
  facet normal 9.915135e-01 9.403846e-02 -8.976517e-02
    outer loop
      vertex 1.221000e+02 1.321817e+01 -1.821542e+02
      vertex 1.246500e+02 -1.366827e+01 -1.821542e+02
      vertex 1.221000e+02 -1.359792e+01 -2.102469e+02
    endloop
  endfacet
  facet normal 1.000000e+00 0.000000e+00 0.000000e+00
    outer loop
      vertex 1.221000e+02 1.321817e+01 -1.821542e+02
      vertex 1.221000e+02 -1.359792e+01 -2.102469e+02
      vertex 1.221000e+02 8.258358e+00 -2.056486e+02
    endloop
  endfacet
  facet normal 7.860805e-01 1.995781e-01 -5.850179e-01
    outer loop
      vertex 1.071331e+02 6.334426e+00 -2.264157e+02
      vertex 1.221000e+02 8.258358e+00 -2.056486e+02
      vertex 1.162478e+02 -1.559754e+01 -2.216505e+02
    endloop
  endfacet
  facet normal 9.958969e-01 4.423546e-03 9.038748e-02
    outer loop
      vertex 1.221000e+02 1.146230e+01 -1.552880e+02
      vertex 1.221000e+02 -1.359792e+01 -1.540615e+02
      vertex 1.246500e+02 -1.366827e+01 -1.821542e+02
    endloop
  endfacet
  facet normal 9.955135e-01 9.441784e-02 6.170756e-03
    outer loop
      vertex 1.221000e+02 1.146230e+01 -1.552880e+02
      vertex 1.246500e+02 -1.366827e+01 -1.821542e+02
      vertex 1.221000e+02 1.321817e+01 -1.821542e+02
    endloop
  endfacet
  facet normal 9.188283e-01 3.941185e-01 -2.061778e-02
    outer loop
      vertex 1.151864e+02 3.170362e+00 -1.416304e+02
      vertex 1.237115e+02 -1.616581e+01 -1.313337e+02
      vertex 1.221000e+02 -1.359792e+01 -1.540615e+02
    endloop
  endfacet
  facet normal 8.863683e-01 2.263111e-02 4.624274e-01
    outer loop
      vertex 1.151864e+02 3.170362e+00 -1.416304e+02
      vertex 1.221000e+02 -1.359792e+01 -1.540615e+02
      vertex 1.221000e+02 1.146230e+01 -1.552880e+02
    endloop
  endfacet
  facet normal 7.160484e-01 4.230520e-01 -5.552491e-01
    outer loop
      vertex 1.082000e+02 2.575000e+01 -2.102469e+02
      vertex 1.221000e+02 8.258358e+00 -2.056486e+02
      vertex 1.071331e+02 6.334426e+00 -2.264157e+02
    endloop
  endfacet
  facet normal 8.338965e-01 5.400188e-01 -1.140013e-01
    outer loop
      vertex 1.087784e+02 3.328000e+01 -1.845671e+02
      vertex 1.221000e+02 1.321817e+01 -1.821542e+02
      vertex 1.221000e+02 8.258358e+00 -2.056486e+02
    endloop
  endfacet
  facet normal 7.924177e-01 5.802837e-01 -1.880026e-01
    outer loop
      vertex 1.087784e+02 3.328000e+01 -1.845671e+02
      vertex 1.221000e+02 8.258358e+00 -2.056486e+02
      vertex 1.082000e+02 2.575000e+01 -2.102469e+02
    endloop
  endfacet
  facet normal 9.228796e-01 2.152212e-01 -3.193323e-01
    outer loop
      vertex 1.059583e+02 2.575000e+01 -2.167255e+02
      vertex 1.082000e+02 2.575000e+01 -2.102469e+02
      vertex 1.071331e+02 6.334426e+00 -2.264157e+02
    endloop
  endfacet
  facet normal 7.179706e-01 6.945916e-01 4.539561e-02
    outer loop
      vertex 1.082000e+02 2.575000e+01 -1.540615e+02
      vertex 1.221000e+02 1.146230e+01 -1.552880e+02
      vertex 1.221000e+02 1.321817e+01 -1.821542e+02
    endloop
  endfacet
  facet normal 8.145797e-01 5.593673e-01 1.535190e-01
    outer loop
      vertex 1.082000e+02 2.575000e+01 -1.540615e+02
      vertex 1.221000e+02 1.321817e+01 -1.821542e+02
      vertex 1.087784e+02 3.328000e+01 -1.845671e+02
    endloop
  endfacet
  facet normal 8.284121e-01 1.818719e-01 5.297697e-01
    outer loop
      vertex 1.073957e+02 2.575000e+01 -1.371996e+02
      vertex 1.151864e+02 3.170362e+00 -1.416304e+02
      vertex 1.221000e+02 1.146230e+01 -1.552880e+02
    endloop
  endfacet
  facet normal 7.178118e-01 6.953949e-01 3.423784e-02
    outer loop
      vertex 1.073957e+02 2.575000e+01 -1.371996e+02
      vertex 1.221000e+02 1.146230e+01 -1.552880e+02
      vertex 1.082000e+02 2.575000e+01 -1.540615e+02
    endloop
  endfacet
endsolid SIM_ECUB_L_HIP_1
