solid SIM_ECUB_L_SHOULDER_3
  facet normal -8.146708e-01 -5.512215e-01 -1.801842e-01
    outer loop
      vertex 1.449205e+02 -4.172585e+01 1.537187e+02
      vertex 1.358546e+02 -2.792997e+01 1.525040e+02
      vertex 1.448430e+02 -3.948815e+01 1.472237e+02
    endloop
  endfacet
  facet normal -8.119078e-01 -4.788076e-01 -3.339897e-01
    outer loop
      vertex 1.378472e+02 -2.527990e+01 1.438609e+02
      vertex 1.448430e+02 -3.948815e+01 1.472237e+02
      vertex 1.358546e+02 -2.792997e+01 1.525040e+02
    endloop
  endfacet
  facet normal -4.319507e-01 -8.542835e-01 -2.891682e-01
    outer loop
      vertex 1.604587e+02 -4.901859e+01 1.520530e+02
      vertex 1.449205e+02 -4.172585e+01 1.537187e+02
      vertex 1.448430e+02 -3.948815e+01 1.472237e+02
    endloop
  endfacet
  facet normal -5.551394e-01 -4.403419e-01 -7.056340e-01
    outer loop
      vertex 1.593559e+02 -2.683569e+01 1.279104e+02
      vertex 1.448430e+02 -3.948815e+01 1.472237e+02
      vertex 1.378472e+02 -2.527990e+01 1.438609e+02
    endloop
  endfacet
  facet normal -3.243877e-01 -7.928983e-01 -5.158342e-01
    outer loop
      vertex 1.607074e+02 -4.224708e+01 1.414880e+02
      vertex 1.604587e+02 -4.901859e+01 1.520530e+02
      vertex 1.448430e+02 -3.948815e+01 1.472237e+02
    endloop
  endfacet
  facet normal -3.579758e-01 -6.347253e-01 -6.848190e-01
    outer loop
      vertex 1.593559e+02 -2.683569e+01 1.279104e+02
      vertex 1.607074e+02 -4.224708e+01 1.414880e+02
      vertex 1.448430e+02 -3.948815e+01 1.472237e+02
    endloop
  endfacet
  facet normal -6.729291e-01 -3.866924e-01 6.305833e-01
    outer loop
      vertex 1.358244e+02 -2.324640e+01 1.553439e+02
      vertex 1.358546e+02 -2.792997e+01 1.525040e+02
      vertex 1.449205e+02 -4.172585e+01 1.537187e+02
    endloop
  endfacet
  facet normal -9.758680e-01 2.709664e-02 -2.166735e-01
    outer loop
      vertex 1.370812e+02 -4.271040e+00 1.499382e+02
      vertex 1.378472e+02 -2.527990e+01 1.438609e+02
      vertex 1.358546e+02 -2.792997e+01 1.525040e+02
    endloop
  endfacet
  facet normal -9.957768e-01 4.281994e-02 -8.120932e-02
    outer loop
      vertex 1.370812e+02 -4.271040e+00 1.499382e+02
      vertex 1.358546e+02 -2.792997e+01 1.525040e+02
      vertex 1.358244e+02 -2.324640e+01 1.553439e+02
    endloop
  endfacet
  facet normal -4.157618e-01 -9.054217e-01 8.575376e-02
    outer loop
      vertex 1.639376e+02 -4.966366e+01 1.621092e+02
      vertex 1.449205e+02 -4.172585e+01 1.537187e+02
      vertex 1.604587e+02 -4.901859e+01 1.520530e+02
    endloop
  endfacet
  facet normal -7.390119e-01 -4.107268e-01 5.340084e-01
    outer loop
      vertex 1.534689e+02 -4.611967e+01 1.621693e+02
      vertex 1.358244e+02 -2.324640e+01 1.553439e+02
      vertex 1.449205e+02 -4.172585e+01 1.537187e+02
    endloop
  endfacet
  facet normal -3.171174e-01 -9.339551e-01 -1.648162e-01
    outer loop
      vertex 1.639376e+02 -4.966366e+01 1.621092e+02
      vertex 1.534689e+02 -4.611967e+01 1.621693e+02
      vertex 1.449205e+02 -4.172585e+01 1.537187e+02
    endloop
  endfacet
  facet normal -5.767403e-01 1.848414e-01 -7.957414e-01
    outer loop
      vertex 1.667974e+02 -6.587389e+00 1.272204e+02
      vertex 1.593559e+02 -2.683569e+01 1.279104e+02
      vertex 1.378472e+02 -2.527990e+01 1.438609e+02
    endloop
  endfacet
  facet normal -9.276630e-01 7.215991e-02 -3.663800e-01
    outer loop
      vertex 1.401709e+02 -5.032362e+00 1.419652e+02
      vertex 1.378472e+02 -2.527990e+01 1.438609e+02
      vertex 1.370812e+02 -4.271040e+00 1.499382e+02
    endloop
  endfacet
  facet normal -4.854480e-01 -2.610511e-02 -8.738757e-01
    outer loop
      vertex 1.667974e+02 -6.587389e+00 1.272204e+02
      vertex 1.378472e+02 -2.527990e+01 1.438609e+02
      vertex 1.401709e+02 -5.032362e+00 1.419652e+02
    endloop
  endfacet
  facet normal 2.356205e-02 -8.419314e-01 -5.390698e-01
    outer loop
      vertex 1.787664e+02 -4.744150e+01 1.503901e+02
      vertex 1.604587e+02 -4.901859e+01 1.520530e+02
      vertex 1.607074e+02 -4.224708e+01 1.414880e+02
    endloop
  endfacet
  facet normal 2.360465e-01 -9.611158e-01 -1.433128e-01
    outer loop
      vertex 1.809845e+02 -4.598467e+01 1.655139e+02
      vertex 1.639376e+02 -4.966366e+01 1.621092e+02
      vertex 1.604587e+02 -4.901859e+01 1.520530e+02
    endloop
  endfacet
  facet normal 9.292325e-02 -9.922945e-01 8.195677e-02
    outer loop
      vertex 1.809845e+02 -4.598467e+01 1.655139e+02
      vertex 1.604587e+02 -4.901859e+01 1.520530e+02
      vertex 1.787664e+02 -4.744150e+01 1.503901e+02
    endloop
  endfacet
  facet normal 1.768036e-01 -6.418676e-01 -7.461544e-01
    outer loop
      vertex 1.865228e+02 -2.678661e+01 1.343054e+02
      vertex 1.607074e+02 -4.224708e+01 1.414880e+02
      vertex 1.593559e+02 -2.683569e+01 1.279104e+02
    endloop
  endfacet
  facet normal -5.268654e-01 6.001225e-01 -6.018853e-01
    outer loop
      vertex 1.865228e+02 -2.678661e+01 1.343054e+02
      vertex 1.787334e+02 -3.452891e+01 1.334043e+02
      vertex 1.607074e+02 -4.224708e+01 1.414880e+02
    endloop
  endfacet
  facet normal 6.923428e-02 -7.941100e-01 -6.038178e-01
    outer loop
      vertex 1.787664e+02 -4.744150e+01 1.503901e+02
      vertex 1.607074e+02 -4.224708e+01 1.414880e+02
      vertex 1.787334e+02 -3.452891e+01 1.334043e+02
    endloop
  endfacet
  facet normal 2.277714e-01 -1.166481e-01 -9.667024e-01
    outer loop
      vertex 1.794735e+02 -5.993986e+00 1.301355e+02
      vertex 1.593559e+02 -2.683569e+01 1.279104e+02
      vertex 1.667974e+02 -6.587389e+00 1.272204e+02
    endloop
  endfacet
  facet normal 2.277714e-01 -1.166481e-01 -9.667024e-01
    outer loop
      vertex 1.794735e+02 -5.993986e+00 1.301355e+02
      vertex 1.865228e+02 -2.678661e+01 1.343054e+02
      vertex 1.593559e+02 -2.683569e+01 1.279104e+02
    endloop
  endfacet
  facet normal -2.430212e-01 1.004318e-01 9.648078e-01
    outer loop
      vertex 1.579445e+02 -4.487076e+01 1.631666e+02
      vertex 1.358244e+02 -2.324640e+01 1.553439e+02
      vertex 1.534689e+02 -4.611967e+01 1.621693e+02
    endloop
  endfacet
  facet normal -2.587747e-01 8.342030e-02 9.623288e-01
    outer loop
      vertex 1.707579e+02 -2.626280e+00 1.629502e+02
      vertex 1.358244e+02 -2.324640e+01 1.553439e+02
      vertex 1.579445e+02 -4.487076e+01 1.631666e+02
    endloop
  endfacet
  facet normal -3.580094e-01 2.776750e-01 8.914740e-01
    outer loop
      vertex 1.707579e+02 -2.626280e+00 1.629502e+02
      vertex 1.370812e+02 -4.271040e+00 1.499382e+02
      vertex 1.358244e+02 -2.324640e+01 1.553439e+02
    endloop
  endfacet
  facet normal -1.114282e-01 -3.449407e-01 9.319869e-01
    outer loop
      vertex 1.579445e+02 -4.487076e+01 1.631666e+02
      vertex 1.534689e+02 -4.611967e+01 1.621693e+02
      vertex 1.639376e+02 -4.966366e+01 1.621092e+02
    endloop
  endfacet
  facet normal -3.093542e-02 -2.520642e-01 9.672159e-01
    outer loop
      vertex 1.937464e+02 -3.374325e+01 1.672116e+02
      vertex 1.579445e+02 -4.487076e+01 1.631666e+02
      vertex 1.639376e+02 -4.966366e+01 1.621092e+02
    endloop
  endfacet
  facet normal -2.131918e-01 8.729874e-02 9.731024e-01
    outer loop
      vertex 1.809845e+02 -4.598467e+01 1.655139e+02
      vertex 1.937464e+02 -3.374325e+01 1.672116e+02
      vertex 1.639376e+02 -4.966366e+01 1.621092e+02
    endloop
  endfacet
  facet normal -1.745982e-01 5.799398e-02 9.829304e-01
    outer loop
      vertex 1.957050e+02 -9.459825e+00 1.677847e+02
      vertex 1.707579e+02 -2.626280e+00 1.629502e+02
      vertex 1.579445e+02 -4.487076e+01 1.631666e+02
    endloop
  endfacet
  facet normal -1.077220e-01 -1.477247e-02 9.940713e-01
    outer loop
      vertex 1.957050e+02 -9.459825e+00 1.677847e+02
      vertex 1.579445e+02 -4.487076e+01 1.631666e+02
      vertex 1.937464e+02 -3.374325e+01 1.672116e+02
    endloop
  endfacet
  facet normal -6.996098e-01 6.329445e-01 -3.315529e-01
    outer loop
      vertex 1.517184e+02 1.137101e+01 1.489134e+02
      vertex 1.401709e+02 -5.032362e+00 1.419652e+02
      vertex 1.370812e+02 -4.271040e+00 1.499382e+02
    endloop
  endfacet
  facet normal -3.491710e-01 3.827768e-01 8.553137e-01
    outer loop
      vertex 1.707579e+02 -2.626280e+00 1.629502e+02
      vertex 1.517184e+02 1.137101e+01 1.489134e+02
      vertex 1.370812e+02 -4.271040e+00 1.499382e+02
    endloop
  endfacet
  facet normal -3.717241e-01 5.715490e-01 -7.315415e-01
    outer loop
      vertex 1.667974e+02 -6.587389e+00 1.272204e+02
      vertex 1.401709e+02 -5.032362e+00 1.419652e+02
      vertex 1.517184e+02 1.137101e+01 1.489134e+02
    endloop
  endfacet
  facet normal -3.409797e-02 7.580778e-01 -6.512721e-01
    outer loop
      vertex 1.612700e+02 1.552517e+01 1.532487e+02
      vertex 1.667974e+02 -6.587389e+00 1.272204e+02
      vertex 1.517184e+02 1.137101e+01 1.489134e+02
    endloop
  endfacet
  facet normal -4.557485e-01 2.397201e-01 8.572209e-01
    outer loop
      vertex 1.641034e+02 1.586511e+01 1.542412e+02
      vertex 1.517184e+02 1.137101e+01 1.489134e+02
      vertex 1.707579e+02 -2.626280e+00 1.629502e+02
    endloop
  endfacet
  facet normal -2.831427e-01 -2.997472e-01 9.110334e-01
    outer loop
      vertex 1.641034e+02 1.586511e+01 1.542412e+02
      vertex 1.612700e+02 1.552517e+01 1.532487e+02
      vertex 1.517184e+02 1.137101e+01 1.489134e+02
    endloop
  endfacet
  facet normal 1.437737e-01 6.393673e-01 -7.553401e-01
    outer loop
      vertex 1.765296e+02 5.655236e+00 1.394358e+02
      vertex 1.794735e+02 -5.993986e+00 1.301355e+02
      vertex 1.667974e+02 -6.587389e+00 1.272204e+02
    endloop
  endfacet
  facet normal -7.037911e-01 -6.081473e-01 3.671989e-01
    outer loop
      vertex 1.592859e+02 1.245372e+01 1.443591e+02
      vertex 1.667974e+02 -6.587389e+00 1.272204e+02
      vertex 1.612700e+02 1.552517e+01 1.532487e+02
    endloop
  endfacet
  facet normal 5.995837e-02 6.807604e-01 -7.300481e-01
    outer loop
      vertex 1.765296e+02 5.655236e+00 1.394358e+02
      vertex 1.667974e+02 -6.587389e+00 1.272204e+02
      vertex 1.592859e+02 1.245372e+01 1.443591e+02
    endloop
  endfacet
  facet normal -1.334696e-01 1.995308e-01 9.707591e-01
    outer loop
      vertex 1.780027e+02 1.350830e+01 1.606299e+02
      vertex 1.707579e+02 -2.626280e+00 1.629502e+02
      vertex 1.957050e+02 -9.459825e+00 1.677847e+02
    endloop
  endfacet
  facet normal -3.589775e-01 2.888217e-01 8.875343e-01
    outer loop
      vertex 1.780027e+02 1.350830e+01 1.606299e+02
      vertex 1.641034e+02 1.586511e+01 1.542412e+02
      vertex 1.707579e+02 -2.626280e+00 1.629502e+02
    endloop
  endfacet
  facet normal 6.604681e-01 -6.142253e-01 -4.318671e-01
    outer loop
      vertex 1.865228e+02 -2.678661e+01 1.343054e+02
      vertex 1.936603e+02 -3.519004e+01 1.571728e+02
      vertex 1.787334e+02 -3.452891e+01 1.334043e+02
    endloop
  endfacet
  facet normal 6.811127e-01 -5.822376e-01 -4.439424e-01
    outer loop
      vertex 1.787664e+02 -4.744150e+01 1.503901e+02
      vertex 1.787334e+02 -3.452891e+01 1.334043e+02
      vertex 1.936603e+02 -3.519004e+01 1.571728e+02
    endloop
  endfacet
  facet normal 9.555832e-01 1.010210e-02 -2.945484e-01
    outer loop
      vertex 1.919785e+02 4.137888e+00 1.530654e+02
      vertex 1.936603e+02 -3.519004e+01 1.571728e+02
      vertex 1.865228e+02 -2.678661e+01 1.343054e+02
    endloop
  endfacet
  facet normal 6.014435e-01 -7.914572e-01 1.089093e-01
    outer loop
      vertex 1.937464e+02 -3.374325e+01 1.672116e+02
      vertex 1.787664e+02 -4.744150e+01 1.503901e+02
      vertex 1.936603e+02 -3.519004e+01 1.571728e+02
    endloop
  endfacet
  facet normal 9.967525e-01 -8.046876e-02 3.052349e-03
    outer loop
      vertex 1.957050e+02 -9.459825e+00 1.677847e+02
      vertex 1.937464e+02 -3.374325e+01 1.672116e+02
      vertex 1.936603e+02 -3.519004e+01 1.571728e+02
    endloop
  endfacet
  facet normal 9.730078e-01 1.757796e-02 -2.301019e-01
    outer loop
      vertex 1.957050e+02 -9.459825e+00 1.677847e+02
      vertex 1.936603e+02 -3.519004e+01 1.571728e+02
      vertex 1.919785e+02 4.137888e+00 1.530654e+02
    endloop
  endfacet
  facet normal 8.298014e-01 1.750600e-01 -5.298902e-01
    outer loop
      vertex 1.794735e+02 -5.993986e+00 1.301355e+02
      vertex 1.919785e+02 4.137888e+00 1.530654e+02
      vertex 1.865228e+02 -2.678661e+01 1.343054e+02
    endloop
  endfacet
  facet normal 6.941234e-01 -7.191207e-01 -3.253002e-02
    outer loop
      vertex 1.809845e+02 -4.598467e+01 1.655139e+02
      vertex 1.787664e+02 -4.744150e+01 1.503901e+02
      vertex 1.937464e+02 -3.374325e+01 1.672116e+02
    endloop
  endfacet
  facet normal 4.459518e-01 7.030992e-01 -5.538759e-01
    outer loop
      vertex 1.798495e+02 1.357221e+01 1.552759e+02
      vertex 1.919785e+02 4.137888e+00 1.530654e+02
      vertex 1.794735e+02 -5.993986e+00 1.301355e+02
    endloop
  endfacet
  facet normal 6.511284e-01 6.325155e-01 4.194710e-01
    outer loop
      vertex 1.780027e+02 1.350830e+01 1.606299e+02
      vertex 1.957050e+02 -9.459825e+00 1.677847e+02
      vertex 1.919785e+02 4.137888e+00 1.530654e+02
    endloop
  endfacet
  facet normal 6.234744e-01 7.490683e-01 2.240007e-01
    outer loop
      vertex 1.780027e+02 1.350830e+01 1.606299e+02
      vertex 1.919785e+02 4.137888e+00 1.530654e+02
      vertex 1.798495e+02 1.357221e+01 1.552759e+02
    endloop
  endfacet
  facet normal 7.451713e-01 5.208226e-01 -4.164897e-01
    outer loop
      vertex 1.765296e+02 5.655236e+00 1.394358e+02
      vertex 1.798495e+02 1.357221e+01 1.552759e+02
      vertex 1.794735e+02 -5.993986e+00 1.301355e+02
    endloop
  endfacet
  facet normal 1.356473e-01 9.267027e-01 -3.504596e-01
    outer loop
      vertex 1.798495e+02 1.357221e+01 1.552759e+02
      vertex 1.592859e+02 1.245372e+01 1.443591e+02
      vertex 1.612700e+02 1.552517e+01 1.532487e+02
    endloop
  endfacet
  facet normal 9.944268e-02 9.939717e-01 4.616628e-02
    outer loop
      vertex 1.780027e+02 1.350830e+01 1.606299e+02
      vertex 1.798495e+02 1.357221e+01 1.552759e+02
      vertex 1.612700e+02 1.552517e+01 1.532487e+02
    endloop
  endfacet
  facet normal 3.470616e-01 -3.314278e-01 -8.773277e-01
    outer loop
      vertex 1.780027e+02 1.350830e+01 1.606299e+02
      vertex 1.612700e+02 1.552517e+01 1.532487e+02
      vertex 1.641034e+02 1.586511e+01 1.542412e+02
    endloop
  endfacet
  facet normal 2.036542e-01 8.580151e-01 -4.715241e-01
    outer loop
      vertex 1.765296e+02 5.655236e+00 1.394358e+02
      vertex 1.592859e+02 1.245372e+01 1.443591e+02
      vertex 1.798495e+02 1.357221e+01 1.552759e+02
    endloop
  endfacet
endsolid SIM_ECUB_L_SHOULDER_3
