solid SIM_ECUB_REALSENSE
  facet normal -7.792354e-01 -5.743464e-01 -2.508355e-01
    outer loop
      vertex -5.995157e+01 -8.026289e+01 4.448091e+02
      vertex -6.197156e+01 -7.780411e+01 4.454544e+02
      vertex -5.757952e+01 -8.002542e+01 4.368965e+02
    endloop
  endfacet
  facet normal -8.117832e-01 -5.101317e-01 -2.842072e-01
    outer loop
      vertex -6.045004e+01 -7.408378e+01 4.344308e+02
      vertex -5.757952e+01 -8.002542e+01 4.368965e+02
      vertex -6.197156e+01 -7.780411e+01 4.454544e+02
    endloop
  endfacet
  facet normal 9.186201e-02 -9.957690e-01 -2.345719e-03
    outer loop
      vertex -5.594200e+01 -7.989761e+01 4.467683e+02
      vertex -5.995157e+01 -8.026289e+01 4.448091e+02
      vertex -5.757952e+01 -8.002542e+01 4.368965e+02
    endloop
  endfacet
  facet normal -4.952488e-01 -5.261489e-01 -6.913002e-01
    outer loop
      vertex -5.120909e+01 -7.730994e+01 4.302660e+02
      vertex -5.757952e+01 -8.002542e+01 4.368965e+02
      vertex -6.045004e+01 -7.408378e+01 4.344308e+02
    endloop
  endfacet
  facet normal -2.414384e-02 -9.995649e-01 1.694640e-02
    outer loop
      vertex -5.074494e+01 -8.025978e+01 4.328109e+02
      vertex -5.594200e+01 -7.989761e+01 4.467683e+02
      vertex -5.757952e+01 -8.002542e+01 4.368965e+02
    endloop
  endfacet
  facet normal -4.138331e-01 -6.311222e-01 -6.560693e-01
    outer loop
      vertex -5.120909e+01 -7.730994e+01 4.302660e+02
      vertex -5.074494e+01 -8.025978e+01 4.328109e+02
      vertex -5.757952e+01 -8.002542e+01 4.368965e+02
    endloop
  endfacet
  facet normal -6.683093e-01 -6.458925e-01 3.690332e-01
    outer loop
      vertex -5.970529e+01 -7.404131e+01 4.561443e+02
      vertex -6.197156e+01 -7.780411e+01 4.454544e+02
      vertex -5.995157e+01 -8.026289e+01 4.448091e+02
    endloop
  endfacet
  facet normal -8.929513e-01 -3.745757e-01 -2.496620e-01
    outer loop
      vertex -6.753000e+01 -6.440005e+01 4.452244e+02
      vertex -6.045004e+01 -7.408378e+01 4.344308e+02
      vertex -6.197156e+01 -7.780411e+01 4.454544e+02
    endloop
  endfacet
  facet normal -9.510999e-01 -1.664252e-01 2.602146e-01
    outer loop
      vertex -6.115952e+01 -6.507005e+01 4.565668e+02
      vertex -6.197156e+01 -7.780411e+01 4.454544e+02
      vertex -5.970529e+01 -7.404131e+01 4.561443e+02
    endloop
  endfacet
  facet normal -8.294480e-01 -3.363063e-01 4.459979e-01
    outer loop
      vertex -6.115952e+01 -6.507005e+01 4.565668e+02
      vertex -6.753000e+01 -6.440005e+01 4.452244e+02
      vertex -6.197156e+01 -7.780411e+01 4.454544e+02
    endloop
  endfacet
  facet normal 1.435349e-01 -9.834689e-01 -1.103934e-01
    outer loop
      vertex -5.074494e+01 -8.026601e+01 4.568075e+02
      vertex -5.995157e+01 -8.026289e+01 4.448091e+02
      vertex -5.594200e+01 -7.989761e+01 4.467683e+02
    endloop
  endfacet
  facet normal -8.230750e-01 -4.901357e-01 2.869051e-01
    outer loop
      vertex -5.714965e+01 -8.002967e+01 4.532457e+02
      vertex -5.970529e+01 -7.404131e+01 4.561443e+02
      vertex -5.995157e+01 -8.026289e+01 4.448091e+02
    endloop
  endfacet
  facet normal -6.390797e-02 -9.967629e-01 4.877952e-02
    outer loop
      vertex -5.074494e+01 -8.026601e+01 4.568075e+02
      vertex -5.714965e+01 -8.002967e+01 4.532457e+02
      vertex -5.995157e+01 -8.026289e+01 4.448091e+02
    endloop
  endfacet
  facet normal -4.952602e-01 -5.296995e-01 -6.885751e-01
    outer loop
      vertex -5.565788e+01 -7.237818e+01 4.296719e+02
      vertex -5.120909e+01 -7.730994e+01 4.302660e+02
      vertex -6.045004e+01 -7.408378e+01 4.344308e+02
    endloop
  endfacet
  facet normal -6.682760e-01 -1.533856e-01 -7.279286e-01
    outer loop
      vertex -6.154981e+01 -6.506407e+01 4.335398e+02
      vertex -5.565788e+01 -7.237818e+01 4.296719e+02
      vertex -6.045004e+01 -7.408378e+01 4.344308e+02
    endloop
  endfacet
  facet normal -8.833740e-01 -1.515173e-01 -4.435006e-01
    outer loop
      vertex -6.753000e+01 -6.440005e+01 4.452244e+02
      vertex -6.154981e+01 -6.506407e+01 4.335398e+02
      vertex -6.045004e+01 -7.408378e+01 4.344308e+02
    endloop
  endfacet
  facet normal 3.667858e-02 -9.985435e-01 3.956719e-02
    outer loop
      vertex -3.482300e+01 -7.916721e+01 4.456241e+02
      vertex -5.594200e+01 -7.989761e+01 4.467683e+02
      vertex -5.074494e+01 -8.025978e+01 4.328109e+02
    endloop
  endfacet
  facet normal 2.200095e-03 -9.992826e-01 -3.780793e-02
    outer loop
      vertex -3.482300e+01 -8.024872e+01 4.572770e+02
      vertex -5.074494e+01 -8.026601e+01 4.568075e+02
      vertex -5.594200e+01 -7.989761e+01 4.467683e+02
    endloop
  endfacet
  facet normal 2.941808e-02 -9.952898e-01 -9.237324e-02
    outer loop
      vertex -3.482300e+01 -8.024872e+01 4.572770e+02
      vertex -5.594200e+01 -7.989761e+01 4.467683e+02
      vertex -3.482300e+01 -7.916721e+01 4.456241e+02
    endloop
  endfacet
  facet normal -2.289429e-02 -6.551152e-01 -7.551821e-01
    outer loop
      vertex -3.482300e+01 -7.752301e+01 4.299540e+02
      vertex -5.074494e+01 -8.025978e+01 4.328109e+02
      vertex -5.120909e+01 -7.730994e+01 4.302660e+02
    endloop
  endfacet
  facet normal 1.041212e-03 -9.964925e-01 8.367575e-02
    outer loop
      vertex -3.482300e+01 -8.027472e+01 4.324347e+02
      vertex -3.482300e+01 -7.916721e+01 4.456241e+02
      vertex -5.074494e+01 -8.025978e+01 4.328109e+02
    endloop
  endfacet
  facet normal -1.817172e-02 -6.694719e-01 -7.426151e-01
    outer loop
      vertex -3.482300e+01 -7.752301e+01 4.299540e+02
      vertex -3.482300e+01 -8.027472e+01 4.324347e+02
      vertex -5.074494e+01 -8.025978e+01 4.328109e+02
    endloop
  endfacet
  facet normal -2.745122e-01 -3.552600e-01 -8.935510e-01
    outer loop
      vertex -4.916908e+01 -7.331395e+01 4.280505e+02
      vertex -5.120909e+01 -7.730994e+01 4.302660e+02
      vertex -5.565788e+01 -7.237818e+01 4.296719e+02
    endloop
  endfacet
  facet normal -2.292444e-02 -4.757791e-01 -8.792660e-01
    outer loop
      vertex -3.482300e+01 -7.752301e+01 4.299540e+02
      vertex -5.120909e+01 -7.730994e+01 4.302660e+02
      vertex -4.916908e+01 -7.331395e+01 4.280505e+02
    endloop
  endfacet
  facet normal -4.675151e-01 -5.387540e-01 7.008379e-01
    outer loop
      vertex -5.127625e+01 -7.691867e+01 4.595553e+02
      vertex -5.970529e+01 -7.404131e+01 4.561443e+02
      vertex -5.714965e+01 -8.002967e+01 4.532457e+02
    endloop
  endfacet
  facet normal -4.289476e-01 -2.171248e-01 8.768471e-01
    outer loop
      vertex -5.156788e+01 -6.507155e+01 4.623462e+02
      vertex -5.970529e+01 -7.404131e+01 4.561443e+02
      vertex -5.127625e+01 -7.691867e+01 4.595553e+02
    endloop
  endfacet
  facet normal -5.121904e-01 -1.230518e-01 8.500113e-01
    outer loop
      vertex -6.115952e+01 -6.507005e+01 4.565668e+02
      vertex -5.970529e+01 -7.404131e+01 4.561443e+02
      vertex -5.156788e+01 -6.507155e+01 4.623462e+02
    endloop
  endfacet
  facet normal -3.991112e-01 -6.187836e-01 6.766219e-01
    outer loop
      vertex -5.127625e+01 -7.691867e+01 4.595553e+02
      vertex -5.714965e+01 -8.002967e+01 4.532457e+02
      vertex -5.074494e+01 -8.026601e+01 4.568075e+02
    endloop
  endfacet
  facet normal -2.407163e-02 -6.365883e-01 7.708281e-01
    outer loop
      vertex -3.482300e+01 -7.692617e+01 4.600629e+02
      vertex -5.127625e+01 -7.691867e+01 4.595553e+02
      vertex -5.074494e+01 -8.026601e+01 4.568075e+02
    endloop
  endfacet
  facet normal -2.189677e-02 -6.423481e-01 7.661002e-01
    outer loop
      vertex -3.482300e+01 -7.692617e+01 4.600629e+02
      vertex -5.074494e+01 -8.026601e+01 4.568075e+02
      vertex -3.482300e+01 -8.024872e+01 4.572770e+02
    endloop
  endfacet
  facet normal -2.713015e-02 -2.298493e-01 9.728480e-01
    outer loop
      vertex -5.156788e+01 -6.507155e+01 4.623462e+02
      vertex -5.127625e+01 -7.691867e+01 4.595553e+02
      vertex -3.482300e+01 -6.507167e+01 4.628131e+02
    endloop
  endfacet
  facet normal -3.014318e-02 -2.258950e-01 9.736852e-01
    outer loop
      vertex -3.482300e+01 -7.692617e+01 4.600629e+02
      vertex -3.482300e+01 -6.507167e+01 4.628131e+02
      vertex -5.127625e+01 -7.691867e+01 4.595553e+02
    endloop
  endfacet
  facet normal -6.569133e-01 -1.371113e-01 -7.413942e-01
    outer loop
      vertex -5.699359e+01 -6.506302e+01 4.295026e+02
      vertex -5.565788e+01 -7.237818e+01 4.296719e+02
      vertex -6.154981e+01 -6.506407e+01 4.335398e+02
    endloop
  endfacet
  facet normal -3.309372e-01 -8.218831e-02 -9.400668e-01
    outer loop
      vertex -4.974328e+01 -6.506236e+01 4.269502e+02
      vertex -5.565788e+01 -7.237818e+01 4.296719e+02
      vertex -5.699359e+01 -6.506302e+01 4.295026e+02
    endloop
  endfacet
  facet normal -2.595312e-01 -1.453731e-01 -9.547304e-01
    outer loop
      vertex -4.974328e+01 -6.506236e+01 4.269502e+02
      vertex -4.916908e+01 -7.331395e+01 4.280505e+02
      vertex -5.565788e+01 -7.237818e+01 4.296719e+02
    endloop
  endfacet
  facet normal 5.076398e-15 1.000000e+00 2.595820e-04
    outer loop
      vertex -5.184450e+01 -6.506720e+01 4.456188e+02
      vertex -5.699359e+01 -6.506302e+01 4.295026e+02
      vertex -6.154981e+01 -6.506407e+01 4.335398e+02
    endloop
  endfacet
  facet normal 4.333685e-02 9.984625e-01 -3.456131e-02
    outer loop
      vertex -6.753000e+01 -6.440005e+01 4.452244e+02
      vertex -5.184450e+01 -6.506720e+01 4.456188e+02
      vertex -6.154981e+01 -6.506407e+01 4.335398e+02
    endloop
  endfacet
  facet normal -1.651019e-14 -1.000000e+00 -2.595820e-04
    outer loop
      vertex -4.974328e+01 -6.506236e+01 4.269502e+02
      vertex -5.699359e+01 -6.506302e+01 4.295026e+02
      vertex -5.184450e+01 -6.506253e+01 4.276287e+02
    endloop
  endfacet
  facet normal 5.158439e-15 1.000000e+00 2.595820e-04
    outer loop
      vertex -5.184450e+01 -6.506720e+01 4.456188e+02
      vertex -5.184450e+01 -6.506253e+01 4.276287e+02
      vertex -5.699359e+01 -6.506302e+01 4.295026e+02
    endloop
  endfacet
  facet normal -9.101701e-03 -1.327969e-01 -9.911015e-01
    outer loop
      vertex -3.482300e+01 -6.506232e+01 4.268131e+02
      vertex -4.916908e+01 -7.331395e+01 4.280505e+02
      vertex -4.974328e+01 -6.506236e+01 4.269502e+02
    endloop
  endfacet
  facet normal -2.073174e-02 -1.129200e-01 -9.933878e-01
    outer loop
      vertex -3.482300e+01 -7.297642e+01 4.277127e+02
      vertex -4.916908e+01 -7.331395e+01 4.280505e+02
      vertex -3.482300e+01 -6.506232e+01 4.268131e+02
    endloop
  endfacet
  facet normal -1.071428e-02 -4.421310e-01 -8.968865e-01
    outer loop
      vertex -3.482300e+01 -7.297642e+01 4.277127e+02
      vertex -3.482300e+01 -7.752301e+01 4.299540e+02
      vertex -4.916908e+01 -7.331395e+01 4.280505e+02
    endloop
  endfacet
  facet normal 6.481893e-15 1.000000e+00 2.595820e-04
    outer loop
      vertex -5.156788e+01 -6.507155e+01 4.623462e+02
      vertex -4.974328e+01 -6.506236e+01 4.269502e+02
      vertex -5.184450e+01 -6.506253e+01 4.276287e+02
    endloop
  endfacet
  facet normal 2.423639e-14 1.000000e+00 2.595820e-04
    outer loop
      vertex -5.184450e+01 -6.506720e+01 4.456188e+02
      vertex -5.156788e+01 -6.507155e+01 4.623462e+02
      vertex -5.184450e+01 -6.506253e+01 4.276287e+02
    endloop
  endfacet
  facet normal 4.570863e-15 1.000000e+00 2.595820e-04
    outer loop
      vertex -3.482300e+01 -6.507167e+01 4.628131e+02
      vertex -3.482300e+01 -6.506232e+01 4.268131e+02
      vertex -4.974328e+01 -6.506236e+01 4.269502e+02
    endloop
  endfacet
  facet normal 4.570520e-15 1.000000e+00 2.595820e-04
    outer loop
      vertex -5.156788e+01 -6.507155e+01 4.623462e+02
      vertex -3.482300e+01 -6.507167e+01 4.628131e+02
      vertex -4.974328e+01 -6.506236e+01 4.269502e+02
    endloop
  endfacet
  facet normal 5.008610e-15 1.000000e+00 2.595820e-04
    outer loop
      vertex 1.624150e+01 -6.506253e+01 4.276243e+02
      vertex 3.326300e+01 -6.506232e+01 4.268131e+02
      vertex -3.482300e+01 -6.506232e+01 4.268131e+02
    endloop
  endfacet
  facet normal 1.922742e-15 -1.129443e-01 -9.936013e-01
    outer loop
      vertex -3.482300e+01 -7.297642e+01 4.277127e+02
      vertex -3.482300e+01 -6.506232e+01 4.268131e+02
      vertex 3.326300e+01 -6.506232e+01 4.268131e+02
    endloop
  endfacet
  facet normal 4.936959e-15 1.000000e+00 2.595820e-04
    outer loop
      vertex -7.800000e-01 -6.506253e+01 4.276287e+02
      vertex 1.624150e+01 -6.506253e+01 4.276243e+02
      vertex -3.482300e+01 -6.506232e+01 4.268131e+02
    endloop
  endfacet
  facet normal 5.008393e-15 1.000000e+00 2.595820e-04
    outer loop
      vertex -1.780150e+01 -6.506253e+01 4.276287e+02
      vertex -7.800000e-01 -6.506253e+01 4.276287e+02
      vertex -3.482300e+01 -6.506232e+01 4.268131e+02
    endloop
  endfacet
  facet normal 5.219492e-15 1.000000e+00 2.595820e-04
    outer loop
      vertex -1.780150e+01 -6.506720e+01 4.456188e+02
      vertex -1.780150e+01 -6.506253e+01 4.276287e+02
      vertex -3.482300e+01 -6.506232e+01 4.268131e+02
    endloop
  endfacet
  facet normal 5.170465e-15 1.000000e+00 2.595820e-04
    outer loop
      vertex -3.482300e+01 -6.507167e+01 4.628131e+02
      vertex -1.780150e+01 -6.506720e+01 4.456188e+02
      vertex -3.482300e+01 -6.506232e+01 4.268131e+02
    endloop
  endfacet
  facet normal 5.197736e-15 1.000000e+00 2.595820e-04
    outer loop
      vertex 5.012926e+01 -6.507161e+01 4.626070e+02
      vertex 4.869102e+01 -6.506233e+01 4.268583e+02
      vertex 3.326300e+01 -6.506232e+01 4.268131e+02
    endloop
  endfacet
  facet normal 2.911039e-03 -1.129438e-01 -9.935971e-01
    outer loop
      vertex 3.326300e+01 -7.297642e+01 4.277127e+02
      vertex 3.326300e+01 -6.506232e+01 4.268131e+02
      vertex 4.869102e+01 -6.506233e+01 4.268583e+02
    endloop
  endfacet
  facet normal 5.354797e-15 1.000000e+00 2.595820e-04
    outer loop
      vertex 3.326300e+01 -6.507167e+01 4.628131e+02
      vertex 5.012926e+01 -6.507161e+01 4.626070e+02
      vertex 3.326300e+01 -6.506232e+01 4.268131e+02
    endloop
  endfacet
  facet normal 4.873605e-15 1.000000e+00 2.595820e-04
    outer loop
      vertex 1.624150e+01 -6.506253e+01 4.276243e+02
      vertex 3.326300e+01 -6.507167e+01 4.628131e+02
      vertex 3.326300e+01 -6.506232e+01 4.268131e+02
    endloop
  endfacet
  facet normal -4.714727e-17 -1.129443e-01 -9.936013e-01
    outer loop
      vertex 3.326300e+01 -7.297642e+01 4.277127e+02
      vertex -3.482300e+01 -7.297642e+01 4.277127e+02
      vertex 3.326300e+01 -6.506232e+01 4.268131e+02
    endloop
  endfacet
  facet normal 5.435539e-15 1.000000e+00 2.595820e-04
    outer loop
      vertex 5.028450e+01 -6.506720e+01 4.456188e+02
      vertex 5.028450e+01 -6.506253e+01 4.276287e+02
      vertex 4.869102e+01 -6.506233e+01 4.268583e+02
    endloop
  endfacet
  facet normal -1.545843e-12 -1.000000e+00 -2.595820e-04
    outer loop
      vertex 6.111833e+01 -6.506395e+01 4.330800e+02
      vertex 4.869102e+01 -6.506233e+01 4.268583e+02
      vertex 5.028450e+01 -6.506253e+01 4.276287e+02
    endloop
  endfacet
  facet normal 3.046557e-15 1.000000e+00 2.595820e-04
    outer loop
      vertex 5.012926e+01 -6.507161e+01 4.626070e+02
      vertex 5.028450e+01 -6.506720e+01 4.456188e+02
      vertex 4.869102e+01 -6.506233e+01 4.268583e+02
    endloop
  endfacet
  facet normal 3.602021e-05 -1.074059e-01 -9.942153e-01
    outer loop
      vertex 4.747356e+01 -7.297626e+01 4.277132e+02
      vertex 3.326300e+01 -7.297642e+01 4.277127e+02
      vertex 4.869102e+01 -6.506233e+01 4.268583e+02
    endloop
  endfacet
  facet normal 2.783786e-01 -1.453849e-01 -9.494043e-01
    outer loop
      vertex 5.612988e+01 -6.506290e+01 4.290396e+02
      vertex 4.747356e+01 -7.297626e+01 4.277132e+02
      vertex 4.869102e+01 -6.506233e+01 4.268583e+02
    endloop
  endfacet
  facet normal -1.174810e-13 1.000000e+00 2.595820e-04
    outer loop
      vertex 5.612988e+01 -6.506290e+01 4.290396e+02
      vertex 4.869102e+01 -6.506233e+01 4.268583e+02
      vertex 6.111833e+01 -6.506395e+01 4.330800e+02
    endloop
  endfacet
  facet normal -1.054454e-01 9.944251e-01 2.581348e-04
    outer loop
      vertex 6.568443e+01 -6.343420e+01 4.454239e+02
      vertex 5.028450e+01 -6.506253e+01 4.276287e+02
      vertex 5.028450e+01 -6.506720e+01 4.456188e+02
    endloop
  endfacet
  facet normal 8.046936e-02 9.838855e-01 -1.596684e-01
    outer loop
      vertex 6.568443e+01 -6.343420e+01 4.454239e+02
      vertex 6.111833e+01 -6.506395e+01 4.330800e+02
      vertex 5.028450e+01 -6.506253e+01 4.276287e+02
    endloop
  endfacet
  facet normal 4.354290e-15 1.000000e+00 2.595820e-04
    outer loop
      vertex 5.012926e+01 -6.507161e+01 4.626070e+02
      vertex 6.041695e+01 -6.507024e+01 4.573137e+02
      vertex 5.028450e+01 -6.506720e+01 4.456188e+02
    endloop
  endfacet
  facet normal -1.038880e-01 9.904844e-01 9.026553e-02
    outer loop
      vertex 6.568443e+01 -6.343420e+01 4.454239e+02
      vertex 5.028450e+01 -6.506720e+01 4.456188e+02
      vertex 6.041695e+01 -6.507024e+01 4.573137e+02
    endloop
  endfacet
  facet normal 4.461085e-01 -2.221179e-01 8.669780e-01
    outer loop
      vertex 4.974156e+01 -7.693097e+01 4.597681e+02
      vertex 6.041695e+01 -6.507024e+01 4.573137e+02
      vertex 5.012926e+01 -6.507161e+01 4.626070e+02
    endloop
  endfacet
  facet normal 3.283636e-01 -1.012131e-01 9.391130e-01
    outer loop
      vertex 5.899588e+01 -7.421121e+01 4.568255e+02
      vertex 6.041695e+01 -6.507024e+01 4.573137e+02
      vertex 4.974156e+01 -7.693097e+01 4.597681e+02
    endloop
  endfacet
  facet normal 9.422288e-01 -1.621376e-01 2.931148e-01
    outer loop
      vertex 5.899588e+01 -7.421121e+01 4.568255e+02
      vertex 6.188822e+01 -7.792982e+01 4.454709e+02
      vertex 6.041695e+01 -6.507024e+01 4.573137e+02
    endloop
  endfacet
  facet normal 9.003238e-01 -2.345919e-01 3.665838e-01
    outer loop
      vertex 6.568443e+01 -6.343420e+01 4.454239e+02
      vertex 6.041695e+01 -6.507024e+01 4.573137e+02
      vertex 6.188822e+01 -7.792982e+01 4.454709e+02
    endloop
  endfacet
  facet normal 1.190642e-02 -2.259817e-01 9.740588e-01
    outer loop
      vertex 3.326300e+01 -7.692617e+01 4.600629e+02
      vertex 5.012926e+01 -6.507161e+01 4.626070e+02
      vertex 3.326300e+01 -6.507167e+01 4.628131e+02
    endloop
  endfacet
  facet normal 1.732278e-02 -2.332998e-01 9.722505e-01
    outer loop
      vertex 4.974156e+01 -7.693097e+01 4.597681e+02
      vertex 5.012926e+01 -6.507161e+01 4.626070e+02
      vertex 3.326300e+01 -7.692617e+01 4.600629e+02
    endloop
  endfacet
  facet normal 5.008420e-15 1.000000e+00 2.595820e-04
    outer loop
      vertex 1.624150e+01 -6.506720e+01 4.456188e+02
      vertex 1.624150e+01 -6.507167e+01 4.628131e+02
      vertex 3.326300e+01 -6.507167e+01 4.628131e+02
    endloop
  endfacet
  facet normal -4.390713e-15 -2.259977e-01 9.741278e-01
    outer loop
      vertex 3.326300e+01 -7.692617e+01 4.600629e+02
      vertex 3.326300e+01 -6.507167e+01 4.628131e+02
      vertex 1.624150e+01 -6.507167e+01 4.628131e+02
    endloop
  endfacet
  facet normal 4.817666e-15 1.000000e+00 2.595820e-04
    outer loop
      vertex 1.624150e+01 -6.506253e+01 4.276243e+02
      vertex 1.624150e+01 -6.506720e+01 4.456188e+02
      vertex 3.326300e+01 -6.507167e+01 4.628131e+02
    endloop
  endfacet
  facet normal 1.871392e-01 9.823334e-01 2.549961e-04
    outer loop
      vertex -7.800000e-01 -6.182377e+01 4.427140e+02
      vertex 1.624150e+01 -6.507167e+01 4.628131e+02
      vertex 1.624150e+01 -6.506720e+01 4.456188e+02
    endloop
  endfacet
  facet normal -4.356411e-15 -2.259977e-01 9.741278e-01
    outer loop
      vertex 3.326300e+01 -7.692617e+01 4.600629e+02
      vertex 1.624150e+01 -6.507167e+01 4.628131e+02
      vertex -7.800000e-01 -6.507167e+01 4.628131e+02
    endloop
  endfacet
  facet normal 4.387637e-15 9.871940e-01 1.595241e-01
    outer loop
      vertex -7.800000e-01 -6.182377e+01 4.427140e+02
      vertex -7.800000e-01 -6.507167e+01 4.628131e+02
      vertex 1.624150e+01 -6.507167e+01 4.628131e+02
    endloop
  endfacet
  facet normal 5.570401e-01 8.304856e-01 2.155791e-04
    outer loop
      vertex 1.370000e+00 -5.509115e+01 4.412243e+02
      vertex 1.624150e+01 -6.506720e+01 4.456188e+02
      vertex 1.624150e+01 -6.506253e+01 4.276243e+02
    endloop
  endfacet
  facet normal -1.164328e-01 2.498758e-01 9.612520e-01
    outer loop
      vertex 1.370000e+00 -5.509115e+01 4.412243e+02
      vertex -7.800000e-01 -6.182377e+01 4.427140e+02
      vertex 1.624150e+01 -6.506720e+01 4.456188e+02
    endloop
  endfacet
  facet normal -1.730498e-04 7.529292e-01 -6.581015e-01
    outer loop
      vertex -7.800000e-01 -5.559169e+01 4.384643e+02
      vertex 1.624150e+01 -6.506253e+01 4.276243e+02
      vertex -7.800000e-01 -6.506253e+01 4.276287e+02
    endloop
  endfacet
  facet normal 2.629940e-01 8.923892e-01 -3.667092e-01
    outer loop
      vertex 1.370000e+00 -5.509115e+01 4.412243e+02
      vertex 1.624150e+01 -6.506253e+01 4.276243e+02
      vertex -7.800000e-01 -5.559169e+01 4.384643e+02
    endloop
  endfacet
  facet normal 5.975354e-15 7.529292e-01 -6.581015e-01
    outer loop
      vertex -7.800000e-01 -5.559169e+01 4.384643e+02
      vertex -7.800000e-01 -6.506253e+01 4.276287e+02
      vertex -1.780150e+01 -6.506253e+01 4.276287e+02
    endloop
  endfacet
  facet normal -5.153273e-01 8.569934e-01 2.224601e-04
    outer loop
      vertex -2.030000e+00 -5.558228e+01 4.409785e+02
      vertex -1.780150e+01 -6.506253e+01 4.276287e+02
      vertex -1.780150e+01 -6.506720e+01 4.456188e+02
    endloop
  endfacet
  facet normal -2.997527e-01 9.085334e-01 -2.910590e-01
    outer loop
      vertex -7.800000e-01 -5.509115e+01 4.412243e+02
      vertex -1.780150e+01 -6.506253e+01 4.276287e+02
      vertex -2.030000e+00 -5.558228e+01 4.409785e+02
    endloop
  endfacet
  facet normal -3.980302e-01 9.026485e-01 -1.636999e-01
    outer loop
      vertex -7.800000e-01 -5.559169e+01 4.384643e+02
      vertex -1.780150e+01 -6.506253e+01 4.276287e+02
      vertex -7.800000e-01 -5.509115e+01 4.412243e+02
    endloop
  endfacet
  facet normal 5.008393e-15 1.000000e+00 2.595820e-04
    outer loop
      vertex -3.482300e+01 -6.507167e+01 4.628131e+02
      vertex -7.800000e-01 -6.507167e+01 4.628131e+02
      vertex -1.780150e+01 -6.506720e+01 4.456188e+02
    endloop
  endfacet
  facet normal -1.588420e-01 9.746606e-01 1.574988e-01
    outer loop
      vertex -7.800000e-01 -6.182377e+01 4.427140e+02
      vertex -1.780150e+01 -6.506720e+01 4.456188e+02
      vertex -7.800000e-01 -6.507167e+01 4.628131e+02
    endloop
  endfacet
  facet normal 1.244863e-01 2.143617e-01 9.687890e-01
    outer loop
      vertex -7.800000e-01 -5.509115e+01 4.412243e+02
      vertex -1.780150e+01 -6.506720e+01 4.456188e+02
      vertex -7.800000e-01 -6.182377e+01 4.427140e+02
    endloop
  endfacet
  facet normal -4.015755e-01 8.429213e-01 3.580794e-01
    outer loop
      vertex -7.800000e-01 -5.509115e+01 4.412243e+02
      vertex -2.030000e+00 -5.558228e+01 4.409785e+02
      vertex -1.780150e+01 -6.506720e+01 4.456188e+02
    endloop
  endfacet
  facet normal -4.390713e-15 -2.259977e-01 9.741278e-01
    outer loop
      vertex 3.326300e+01 -7.692617e+01 4.600629e+02
      vertex -7.800000e-01 -6.507167e+01 4.628131e+02
      vertex -3.482300e+01 -6.507167e+01 4.628131e+02
    endloop
  endfacet
  facet normal -2.864361e-15 -2.259977e-01 9.741278e-01
    outer loop
      vertex 3.326300e+01 -7.692617e+01 4.600629e+02
      vertex -3.482300e+01 -6.507167e+01 4.628131e+02
      vertex -3.482300e+01 -7.692617e+01 4.600629e+02
    endloop
  endfacet
  facet normal 4.250593e-02 9.990961e-01 -4.435810e-04
    outer loop
      vertex -6.753000e+01 -6.440005e+01 4.452244e+02
      vertex -5.156788e+01 -6.507155e+01 4.623462e+02
      vertex -5.184450e+01 -6.506720e+01 4.456188e+02
    endloop
  endfacet
  facet normal -5.327592e-02 9.946347e-01 8.867616e-02
    outer loop
      vertex -6.115952e+01 -6.507005e+01 4.565668e+02
      vertex -5.156788e+01 -6.507155e+01 4.623462e+02
      vertex -6.753000e+01 -6.440005e+01 4.452244e+02
    endloop
  endfacet
  facet normal -1.589706e-18 -9.964930e-01 8.367579e-02
    outer loop
      vertex 3.326300e+01 -8.027472e+01 4.324347e+02
      vertex -3.482300e+01 -7.916721e+01 4.456241e+02
      vertex -3.482300e+01 -8.027472e+01 4.324347e+02
    endloop
  endfacet
  facet normal 0.000000e+00 -9.957207e-01 -9.241324e-02
    outer loop
      vertex 3.326300e+01 -7.916721e+01 4.456241e+02
      vertex -3.482300e+01 -8.024872e+01 4.572770e+02
      vertex -3.482300e+01 -7.916721e+01 4.456241e+02
    endloop
  endfacet
  facet normal 0.000000e+00 -9.964930e-01 8.367579e-02
    outer loop
      vertex 3.326300e+01 -8.027472e+01 4.324347e+02
      vertex 3.326300e+01 -7.916721e+01 4.456241e+02
      vertex -3.482300e+01 -7.916721e+01 4.456241e+02
    endloop
  endfacet
  facet normal 3.458661e-15 -6.695824e-01 -7.427378e-01
    outer loop
      vertex 3.326300e+01 -7.752301e+01 4.299540e+02
      vertex -3.482300e+01 -8.027472e+01 4.324347e+02
      vertex -3.482300e+01 -7.752301e+01 4.299540e+02
    endloop
  endfacet
  facet normal 1.999970e-15 -6.695824e-01 -7.427378e-01
    outer loop
      vertex 3.326300e+01 -7.752301e+01 4.299540e+02
      vertex 3.326300e+01 -8.027472e+01 4.324347e+02
      vertex -3.482300e+01 -8.027472e+01 4.324347e+02
    endloop
  endfacet
  facet normal -1.845731e-16 -4.421564e-01 -8.969380e-01
    outer loop
      vertex 3.326300e+01 -7.297642e+01 4.277127e+02
      vertex -3.482300e+01 -7.752301e+01 4.299540e+02
      vertex -3.482300e+01 -7.297642e+01 4.277127e+02
    endloop
  endfacet
  facet normal 3.638886e-15 -4.421564e-01 -8.969380e-01
    outer loop
      vertex 3.326300e+01 -7.297642e+01 4.277127e+02
      vertex 3.326300e+01 -7.752301e+01 4.299540e+02
      vertex -3.482300e+01 -7.752301e+01 4.299540e+02
    endloop
  endfacet
  facet normal -2.053360e-15 -6.425021e-01 7.662839e-01
    outer loop
      vertex 3.326300e+01 -8.024872e+01 4.572770e+02
      vertex -3.482300e+01 -7.692617e+01 4.600629e+02
      vertex -3.482300e+01 -8.024872e+01 4.572770e+02
    endloop
  endfacet
  facet normal 2.363497e-17 -9.957207e-01 -9.241324e-02
    outer loop
      vertex 3.326300e+01 -8.024872e+01 4.572770e+02
      vertex -3.482300e+01 -8.024872e+01 4.572770e+02
      vertex 3.326300e+01 -7.916721e+01 4.456241e+02
    endloop
  endfacet
  facet normal -3.126181e-15 -6.425021e-01 7.662839e-01
    outer loop
      vertex 3.326300e+01 -7.692617e+01 4.600629e+02
      vertex -3.482300e+01 -7.692617e+01 4.600629e+02
      vertex 3.326300e+01 -8.024872e+01 4.572770e+02
    endloop
  endfacet
  facet normal 0.000000e+00 -9.964930e-01 8.367579e-02
    outer loop
      vertex 3.326300e+01 -8.027472e+01 4.324347e+02
      vertex 5.028450e+01 -7.916721e+01 4.456241e+02
      vertex 3.326300e+01 -7.916721e+01 4.456241e+02
    endloop
  endfacet
  facet normal 0.000000e+00 -9.954206e-01 -9.559193e-02
    outer loop
      vertex 4.940452e+01 -8.025912e+01 4.569945e+02
      vertex 3.326300e+01 -7.916721e+01 4.456241e+02
      vertex 5.028450e+01 -7.916721e+01 4.456241e+02
    endloop
  endfacet
  facet normal -2.259417e-03 -9.957182e-01 -9.241300e-02
    outer loop
      vertex 4.940452e+01 -8.025912e+01 4.569945e+02
      vertex 3.326300e+01 -8.024872e+01 4.572770e+02
      vertex 3.326300e+01 -7.916721e+01 4.456241e+02
    endloop
  endfacet
  facet normal -6.909989e-04 -9.964180e-01 8.456126e-02
    outer loop
      vertex 4.961836e+01 -8.026474e+01 4.326861e+02
      vertex 5.028450e+01 -7.916721e+01 4.456241e+02
      vertex 3.326300e+01 -8.027472e+01 4.324347e+02
    endloop
  endfacet
  facet normal -1.053680e-01 -9.904029e-01 8.944046e-02
    outer loop
      vertex 5.989157e+01 -8.026289e+01 4.448091e+02
      vertex 5.028450e+01 -7.916721e+01 4.456241e+02
      vertex 4.961836e+01 -8.026474e+01 4.326861e+02
    endloop
  endfacet
  facet normal -1.271303e-02 -9.952461e-01 -9.655906e-02
    outer loop
      vertex 5.669104e+01 -8.002978e+01 4.536713e+02
      vertex 4.940452e+01 -8.025912e+01 4.569945e+02
      vertex 5.028450e+01 -7.916721e+01 4.456241e+02
    endloop
  endfacet
  facet normal -1.145793e-01 -9.932970e-01 -1.525193e-02
    outer loop
      vertex 5.669104e+01 -8.002978e+01 4.536713e+02
      vertex 5.028450e+01 -7.916721e+01 4.456241e+02
      vertex 5.989157e+01 -8.026289e+01 4.448091e+02
    endloop
  endfacet
  facet normal 1.519195e-02 -6.695052e-01 -7.426520e-01
    outer loop
      vertex 4.997215e+01 -7.738130e+01 4.301681e+02
      vertex 3.326300e+01 -8.027472e+01 4.324347e+02
      vertex 3.326300e+01 -7.752301e+01 4.299540e+02
    endloop
  endfacet
  facet normal 1.196574e-02 -6.585460e-01 -7.524453e-01
    outer loop
      vertex 4.997215e+01 -7.738130e+01 4.301681e+02
      vertex 4.961836e+01 -8.026474e+01 4.326861e+02
      vertex 3.326300e+01 -8.027472e+01 4.324347e+02
    endloop
  endfacet
  facet normal 1.523842e-02 -4.421051e-01 -8.968338e-01
    outer loop
      vertex 4.997215e+01 -7.738130e+01 4.301681e+02
      vertex 3.326300e+01 -7.752301e+01 4.299540e+02
      vertex 3.326300e+01 -7.297642e+01 4.277127e+02
    endloop
  endfacet
  facet normal 1.351803e-02 -6.424434e-01 7.662139e-01
    outer loop
      vertex 4.974156e+01 -7.693097e+01 4.597681e+02
      vertex 3.326300e+01 -7.692617e+01 4.600629e+02
      vertex 3.326300e+01 -8.024872e+01 4.572770e+02
    endloop
  endfacet
  facet normal 1.302182e-02 -6.409338e-01 7.674857e-01
    outer loop
      vertex 4.974156e+01 -7.693097e+01 4.597681e+02
      vertex 3.326300e+01 -8.024872e+01 4.572770e+02
      vertex 4.940452e+01 -8.025912e+01 4.569945e+02
    endloop
  endfacet
  facet normal 3.626669e-05 -4.867792e-01 -8.735250e-01
    outer loop
      vertex 4.747356e+01 -7.297626e+01 4.277132e+02
      vertex 4.997215e+01 -7.738130e+01 4.301681e+02
      vertex 3.326300e+01 -7.297642e+01 4.277127e+02
    endloop
  endfacet
  facet normal 2.938436e-14 2.160422e-01 9.763840e-01
    outer loop
      vertex 1.370000e+00 -5.509115e+01 4.412243e+02
      vertex -7.800000e-01 -5.509115e+01 4.412243e+02
      vertex -7.800000e-01 -6.182377e+01 4.427140e+02
    endloop
  endfacet
  facet normal 1.154118e-14 9.839500e-01 -1.784444e-01
    outer loop
      vertex 1.370000e+00 -5.509115e+01 4.412243e+02
      vertex -7.800000e-01 -5.559169e+01 4.384643e+02
      vertex -7.800000e-01 -5.509115e+01 4.412243e+02
    endloop
  endfacet
  facet normal 4.384700e-01 -6.210811e-01 -6.496171e-01
    outer loop
      vertex 5.974906e+01 -7.420102e+01 4.337266e+02
      vertex 4.961836e+01 -8.026474e+01 4.326861e+02
      vertex 4.997215e+01 -7.738130e+01 4.301681e+02
    endloop
  endfacet
  facet normal 3.906651e-01 -5.226545e-01 -7.577685e-01
    outer loop
      vertex 5.974906e+01 -7.420102e+01 4.337266e+02
      vertex 5.708965e+01 -8.002529e+01 4.363727e+02
      vertex 4.961836e+01 -8.026474e+01 4.326861e+02
    endloop
  endfacet
  facet normal 5.481022e-02 -9.974230e-01 -4.629493e-02
    outer loop
      vertex 5.989157e+01 -8.026289e+01 4.448091e+02
      vertex 4.961836e+01 -8.026474e+01 4.326861e+02
      vertex 5.708965e+01 -8.002529e+01 4.363727e+02
    endloop
  endfacet
  facet normal 4.037830e-01 -2.598100e-01 -8.771876e-01
    outer loop
      vertex 5.974906e+01 -7.420102e+01 4.337266e+02
      vertex 4.997215e+01 -7.738130e+01 4.301681e+02
      vertex 4.747356e+01 -7.297626e+01 4.277132e+02
    endloop
  endfacet
  facet normal 3.972923e-01 -6.109258e-01 6.847835e-01
    outer loop
      vertex 5.899588e+01 -7.421121e+01 4.568255e+02
      vertex 4.974156e+01 -7.693097e+01 4.597681e+02
      vertex 4.940452e+01 -8.025912e+01 4.569945e+02
    endloop
  endfacet
  facet normal 3.606124e-01 -5.508578e-01 7.526715e-01
    outer loop
      vertex 5.669104e+01 -8.002978e+01 4.536713e+02
      vertex 5.899588e+01 -7.421121e+01 4.568255e+02
      vertex 4.940452e+01 -8.025912e+01 4.569945e+02
    endloop
  endfacet
  facet normal 1.952166e-01 -8.036379e-01 -5.621891e-01
    outer loop
      vertex 5.549137e+01 -7.234122e+01 4.295896e+02
      vertex 5.974906e+01 -7.420102e+01 4.337266e+02
      vertex 4.747356e+01 -7.297626e+01 4.277132e+02
    endloop
  endfacet
  facet normal 2.338927e-01 -9.364879e-02 -9.677418e-01
    outer loop
      vertex 5.612988e+01 -6.506290e+01 4.290396e+02
      vertex 5.549137e+01 -7.234122e+01 4.295896e+02
      vertex 4.747356e+01 -7.297626e+01 4.277132e+02
    endloop
  endfacet
  facet normal 8.049429e-01 -5.073372e-01 -3.076945e-01
    outer loop
      vertex 5.974906e+01 -7.420102e+01 4.337266e+02
      vertex 6.188822e+01 -7.792982e+01 4.454709e+02
      vertex 5.708965e+01 -8.002529e+01 4.363727e+02
    endloop
  endfacet
  facet normal 7.679212e-01 -5.802135e-01 -2.713840e-01
    outer loop
      vertex 5.989157e+01 -8.026289e+01 4.448091e+02
      vertex 5.708965e+01 -8.002529e+01 4.363727e+02
      vertex 6.188822e+01 -7.792982e+01 4.454709e+02
    endloop
  endfacet
  facet normal 9.367657e-01 -2.461335e-01 -2.487735e-01
    outer loop
      vertex 6.568443e+01 -6.343420e+01 4.454239e+02
      vertex 6.188822e+01 -7.792982e+01 4.454709e+02
      vertex 5.974906e+01 -7.420102e+01 4.337266e+02
    endloop
  endfacet
  facet normal 6.462224e-01 -6.611561e-01 3.811419e-01
    outer loop
      vertex 5.899588e+01 -7.421121e+01 4.568255e+02
      vertex 5.989157e+01 -8.026289e+01 4.448091e+02
      vertex 6.188822e+01 -7.792982e+01 4.454709e+02
    endloop
  endfacet
  facet normal 6.543327e-01 -1.504980e-01 -7.410796e-01
    outer loop
      vertex 6.111833e+01 -6.506395e+01 4.330800e+02
      vertex 5.974906e+01 -7.420102e+01 4.337266e+02
      vertex 5.549137e+01 -7.234122e+01 4.295896e+02
    endloop
  endfacet
  facet normal 9.322031e-01 -1.625809e-01 -3.233649e-01
    outer loop
      vertex 6.568443e+01 -6.343420e+01 4.454239e+02
      vertex 5.974906e+01 -7.420102e+01 4.337266e+02
      vertex 6.111833e+01 -6.506395e+01 4.330800e+02
    endloop
  endfacet
  facet normal 8.157825e-01 -4.898385e-01 3.075014e-01
    outer loop
      vertex 5.669104e+01 -8.002978e+01 4.536713e+02
      vertex 5.989157e+01 -8.026289e+01 4.448091e+02
      vertex 5.899588e+01 -7.421121e+01 4.568255e+02
    endloop
  endfacet
  facet normal 6.253421e-01 -1.132053e-01 -7.720957e-01
    outer loop
      vertex 5.612988e+01 -6.506290e+01 4.290396e+02
      vertex 6.111833e+01 -6.506395e+01 4.330800e+02
      vertex 5.549137e+01 -7.234122e+01 4.295896e+02
    endloop
  endfacet
endsolid SIM_ECUB_REALSENSE
