solid SIM_ECUB_R_SHOULDER_ROLL
  facet normal -7.830966e-01 -6.213412e-01 -2.636124e-02
    outer loop
      vertex -1.751909e+02 -5.525045e+01 1.875748e+02
      vertex -1.985245e+02 -2.552550e+01 1.801050e+02
      vertex -1.781275e+02 -5.125402e+01 1.806120e+02
    endloop
  endfacet
  facet normal -7.725268e-01 -6.088928e-01 1.801439e-01
    outer loop
      vertex -1.992032e+02 -2.536685e+01 1.777306e+02
      vertex -1.781275e+02 -5.125402e+01 1.806120e+02
      vertex -1.985245e+02 -2.552550e+01 1.801050e+02
    endloop
  endfacet
  facet normal 5.565353e-01 -5.972717e-01 -5.775248e-01
    outer loop
      vertex -1.664075e+02 -5.739421e+01 1.982561e+02
      vertex -1.751909e+02 -5.525045e+01 1.875748e+02
      vertex -1.781275e+02 -5.125402e+01 1.806120e+02
    endloop
  endfacet
  facet normal -5.183534e-01 -4.992869e-01 -6.942783e-01
    outer loop
      vertex -1.637568e+02 -3.880700e+01 1.609315e+02
      vertex -1.781275e+02 -5.125402e+01 1.806120e+02
      vertex -1.992032e+02 -2.536685e+01 1.777306e+02
    endloop
  endfacet
  facet normal -2.193252e-01 -9.574627e-01 -1.875144e-01
    outer loop
      vertex -1.710788e+02 -5.289711e+01 1.807572e+02
      vertex -1.664075e+02 -5.739421e+01 1.982561e+02
      vertex -1.781275e+02 -5.125402e+01 1.806120e+02
    endloop
  endfacet
  facet normal -1.676549e-01 -7.732858e-01 -6.114907e-01
    outer loop
      vertex -1.637568e+02 -3.880700e+01 1.609315e+02
      vertex -1.710788e+02 -5.289711e+01 1.807572e+02
      vertex -1.781275e+02 -5.125402e+01 1.806120e+02
    endloop
  endfacet
  facet normal -7.793582e-01 -5.263608e-01 3.399192e-01
    outer loop
      vertex -1.674216e+02 -4.160453e+01 2.265188e+02
      vertex -1.985245e+02 -2.552550e+01 1.801050e+02
      vertex -1.751909e+02 -5.525045e+01 1.875748e+02
    endloop
  endfacet
  facet normal -9.535146e-01 1.113810e-01 2.800075e-01
    outer loop
      vertex -1.930265e+02 8.879666e+00 1.851419e+02
      vertex -1.992032e+02 -2.536685e+01 1.777306e+02
      vertex -1.985245e+02 -2.552550e+01 1.801050e+02
    endloop
  endfacet
  facet normal -8.392678e-01 -6.533409e-02 5.397787e-01
    outer loop
      vertex -1.753744e+02 1.581157e+01 2.211030e+02
      vertex -1.985245e+02 -2.552550e+01 1.801050e+02
      vertex -1.674216e+02 -4.160453e+01 2.265188e+02
    endloop
  endfacet
  facet normal -9.008215e-01 8.151892e-02 4.264684e-01
    outer loop
      vertex -1.753744e+02 1.581157e+01 2.211030e+02
      vertex -1.930265e+02 8.879666e+00 1.851419e+02
      vertex -1.985245e+02 -2.552550e+01 1.801050e+02
    endloop
  endfacet
  facet normal -5.779987e-01 -7.484947e-01 3.250742e-01
    outer loop
      vertex -1.553290e+02 -5.260196e+01 2.289886e+02
      vertex -1.751909e+02 -5.525045e+01 1.875748e+02
      vertex -1.664075e+02 -5.739421e+01 1.982561e+02
    endloop
  endfacet
  facet normal -9.398765e-01 -2.171427e-01 2.635930e-01
    outer loop
      vertex -1.658797e+02 -5.061726e+01 2.245921e+02
      vertex -1.674216e+02 -4.160453e+01 2.265188e+02
      vertex -1.751909e+02 -5.525045e+01 1.875748e+02
    endloop
  endfacet
  facet normal -2.548504e-01 -9.495162e-01 1.829488e-01
    outer loop
      vertex -1.553290e+02 -5.260196e+01 2.289886e+02
      vertex -1.658797e+02 -5.061726e+01 2.245921e+02
      vertex -1.751909e+02 -5.525045e+01 1.875748e+02
    endloop
  endfacet
  facet normal -4.597200e-01 -1.111638e-01 -8.810790e-01
    outer loop
      vertex -1.655126e+02 5.506057e+00 1.562567e+02
      vertex -1.637568e+02 -3.880700e+01 1.609315e+02
      vertex -1.992032e+02 -2.536685e+01 1.777306e+02
    endloop
  endfacet
  facet normal -9.822542e-01 1.539901e-01 1.070684e-01
    outer loop
      vertex -1.943057e+02 6.024387e+00 1.775123e+02
      vertex -1.992032e+02 -2.536685e+01 1.777306e+02
      vertex -1.930265e+02 8.879666e+00 1.851419e+02
    endloop
  endfacet
  facet normal -5.906758e-01 8.657344e-02 -8.022513e-01
    outer loop
      vertex -1.655126e+02 5.506057e+00 1.562567e+02
      vertex -1.992032e+02 -2.536685e+01 1.777306e+02
      vertex -1.943057e+02 6.024387e+00 1.775123e+02
    endloop
  endfacet
  facet normal 2.766603e-01 -9.103382e-01 -3.078042e-01
    outer loop
      vertex -1.279429e+02 -4.641600e+01 2.003605e+02
      vertex -1.664075e+02 -5.739421e+01 1.982561e+02
      vertex -1.710788e+02 -5.289711e+01 1.807572e+02
    endloop
  endfacet
  facet normal 2.714473e-01 -9.610471e-01 5.200813e-02
    outer loop
      vertex -1.279429e+02 -4.641600e+01 2.003605e+02
      vertex -1.553290e+02 -5.260196e+01 2.289886e+02
      vertex -1.664075e+02 -5.739421e+01 1.982561e+02
    endloop
  endfacet
  facet normal 1.223402e-01 -8.297688e-01 -5.445334e-01
    outer loop
      vertex -1.313718e+02 -3.872588e+01 1.680838e+02
      vertex -1.710788e+02 -5.289711e+01 1.807572e+02
      vertex -1.637568e+02 -3.880700e+01 1.609315e+02
    endloop
  endfacet
  facet normal 6.508285e-02 -7.603247e-01 -6.462744e-01
    outer loop
      vertex -1.313718e+02 -3.872588e+01 1.680838e+02
      vertex -1.310552e+02 -4.842268e+01 1.795237e+02
      vertex -1.710788e+02 -5.289711e+01 1.807572e+02
    endloop
  endfacet
  facet normal 1.131487e-01 -9.904732e-01 7.848664e-02
    outer loop
      vertex -1.279429e+02 -4.641600e+01 2.003605e+02
      vertex -1.710788e+02 -5.289711e+01 1.807572e+02
      vertex -1.310552e+02 -4.842268e+01 1.795237e+02
    endloop
  endfacet
  facet normal 3.994469e-01 -8.051220e-02 -9.132141e-01
    outer loop
      vertex -1.439284e+02 5.730248e+00 1.656780e+02
      vertex -1.637568e+02 -3.880700e+01 1.609315e+02
      vertex -1.655126e+02 5.506057e+00 1.562567e+02
    endloop
  endfacet
  facet normal 2.156298e-01 8.063292e-03 -9.764419e-01
    outer loop
      vertex -1.439284e+02 5.730248e+00 1.656780e+02
      vertex -1.313718e+02 -3.872588e+01 1.680838e+02
      vertex -1.637568e+02 -3.880700e+01 1.609315e+02
    endloop
  endfacet
  facet normal -6.090961e-01 -2.640716e-01 7.478423e-01
    outer loop
      vertex -1.564880e+02 -3.992683e+01 2.360163e+02
      vertex -1.674216e+02 -4.160453e+01 2.265188e+02
      vertex -1.658797e+02 -5.061726e+01 2.245921e+02
    endloop
  endfacet
  facet normal -6.585491e-01 3.670314e-02 7.516422e-01
    outer loop
      vertex -1.632709e+02 1.436951e+01 2.274221e+02
      vertex -1.674216e+02 -4.160453e+01 2.265188e+02
      vertex -1.564880e+02 -3.992683e+01 2.360163e+02
    endloop
  endfacet
  facet normal -4.608593e-01 1.985491e-02 8.872511e-01
    outer loop
      vertex -1.632709e+02 1.436951e+01 2.274221e+02
      vertex -1.753744e+02 1.581157e+01 2.211030e+02
      vertex -1.674216e+02 -4.160453e+01 2.265188e+02
    endloop
  endfacet
  facet normal -4.133831e-01 -4.701500e-01 7.797906e-01
    outer loop
      vertex -1.564880e+02 -3.992683e+01 2.360163e+02
      vertex -1.658797e+02 -5.061726e+01 2.245921e+02
      vertex -1.553290e+02 -5.260196e+01 2.289886e+02
    endloop
  endfacet
  facet normal 6.010049e-02 -4.798161e-01 8.753082e-01
    outer loop
      vertex -1.312543e+02 -4.032467e+01 2.340656e+02
      vertex -1.564880e+02 -3.992683e+01 2.360163e+02
      vertex -1.553290e+02 -5.260196e+01 2.289886e+02
    endloop
  endfacet
  facet normal 2.714473e-01 -9.610471e-01 5.200813e-02
    outer loop
      vertex -1.367495e+02 -4.717217e+01 2.323522e+02
      vertex -1.553290e+02 -5.260196e+01 2.289886e+02
      vertex -1.279429e+02 -4.641600e+01 2.003605e+02
    endloop
  endfacet
  facet normal -1.383303e-01 -1.345042e-01 9.812101e-01
    outer loop
      vertex -1.367495e+02 -4.717217e+01 2.323522e+02
      vertex -1.312543e+02 -4.032467e+01 2.340656e+02
      vertex -1.553290e+02 -5.260196e+01 2.289886e+02
    endloop
  endfacet
  facet normal 1.980576e-01 1.773286e-01 9.640165e-01
    outer loop
      vertex -1.379841e+02 -1.279491e+01 2.272238e+02
      vertex -1.632709e+02 1.436951e+01 2.274221e+02
      vertex -1.564880e+02 -3.992683e+01 2.360163e+02
    endloop
  endfacet
  facet normal 7.850579e-02 2.584757e-01 9.628225e-01
    outer loop
      vertex -1.379841e+02 -1.279491e+01 2.272238e+02
      vertex -1.564880e+02 -3.992683e+01 2.360163e+02
      vertex -1.312543e+02 -4.032467e+01 2.340656e+02
    endloop
  endfacet
  facet normal -1.842278e-01 9.302745e-01 -3.172531e-01
    outer loop
      vertex -1.798915e+02 1.650914e+01 1.998862e+02
      vertex -1.943057e+02 6.024387e+00 1.775123e+02
      vertex -1.930265e+02 8.879666e+00 1.851419e+02
    endloop
  endfacet
  facet normal -7.505407e-01 6.114872e-01 2.505436e-01
    outer loop
      vertex -1.722027e+02 1.981446e+01 2.208345e+02
      vertex -1.930265e+02 8.879666e+00 1.851419e+02
      vertex -1.753744e+02 1.581157e+01 2.211030e+02
    endloop
  endfacet
  facet normal -5.643388e-01 8.219024e-01 7.744737e-02
    outer loop
      vertex -1.722027e+02 1.981446e+01 2.208345e+02
      vertex -1.798915e+02 1.650914e+01 1.998862e+02
      vertex -1.930265e+02 8.879666e+00 1.851419e+02
    endloop
  endfacet
  facet normal -3.823027e-01 7.525339e-01 -5.362251e-01
    outer loop
      vertex -1.489305e+02 2.362964e+01 1.698690e+02
      vertex -1.655126e+02 5.506057e+00 1.562567e+02
      vertex -1.943057e+02 6.024387e+00 1.775123e+02
    endloop
  endfacet
  facet normal -7.074767e-01 -3.443644e-01 6.171628e-01
    outer loop
      vertex -1.933621e+02 1.172422e+01 1.817744e+02
      vertex -1.943057e+02 6.024387e+00 1.775123e+02
      vertex -1.798915e+02 1.650914e+01 1.998862e+02
    endloop
  endfacet
  facet normal -3.530009e-01 5.970803e-01 -7.203371e-01
    outer loop
      vertex -1.489305e+02 2.362964e+01 1.698690e+02
      vertex -1.943057e+02 6.024387e+00 1.775123e+02
      vertex -1.933621e+02 1.172422e+01 1.817744e+02
    endloop
  endfacet
  facet normal -2.703297e-01 7.239940e-01 -6.346294e-01
    outer loop
      vertex -1.477460e+02 2.338629e+01 1.690868e+02
      vertex -1.655126e+02 5.506057e+00 1.562567e+02
      vertex -1.489305e+02 2.362964e+01 1.698690e+02
    endloop
  endfacet
  facet normal 3.846523e-01 2.544737e-01 -8.872912e-01
    outer loop
      vertex -1.477460e+02 2.338629e+01 1.690868e+02
      vertex -1.439284e+02 5.730248e+00 1.656780e+02
      vertex -1.655126e+02 5.506057e+00 1.562567e+02
    endloop
  endfacet
  facet normal -3.775874e-01 4.283049e-01 8.209645e-01
    outer loop
      vertex -1.609360e+02 2.316307e+01 2.239083e+02
      vertex -1.753744e+02 1.581157e+01 2.211030e+02
      vertex -1.632709e+02 1.436951e+01 2.274221e+02
    endloop
  endfacet
  facet normal -3.379576e-01 3.269765e-01 8.825367e-01
    outer loop
      vertex -1.722027e+02 1.981446e+01 2.208345e+02
      vertex -1.753744e+02 1.581157e+01 2.211030e+02
      vertex -1.609360e+02 2.316307e+01 2.239083e+02
    endloop
  endfacet
  facet normal 2.387268e-01 3.050137e-01 9.219415e-01
    outer loop
      vertex -1.495709e+02 2.309355e+01 2.209884e+02
      vertex -1.609360e+02 2.316307e+01 2.239083e+02
      vertex -1.632709e+02 1.436951e+01 2.274221e+02
    endloop
  endfacet
  facet normal 2.762849e-01 2.504127e-01 9.278794e-01
    outer loop
      vertex -1.495709e+02 2.309355e+01 2.209884e+02
      vertex -1.632709e+02 1.436951e+01 2.274221e+02
      vertex -1.379841e+02 -1.279491e+01 2.272238e+02
    endloop
  endfacet
  facet normal -2.714473e-01 9.610471e-01 -5.200813e-02
    outer loop
      vertex -1.489305e+02 2.362964e+01 1.698690e+02
      vertex -1.933621e+02 1.172422e+01 1.817744e+02
      vertex -1.798915e+02 1.650914e+01 1.998862e+02
    endloop
  endfacet
  facet normal -2.714473e-01 9.610471e-01 -5.200813e-02
    outer loop
      vertex -1.543626e+02 2.402121e+01 2.054568e+02
      vertex -1.489305e+02 2.362964e+01 1.698690e+02
      vertex -1.798915e+02 1.650914e+01 1.998862e+02
    endloop
  endfacet
  facet normal -2.714473e-01 9.610471e-01 -5.200813e-02
    outer loop
      vertex -1.722027e+02 1.981446e+01 2.208345e+02
      vertex -1.543626e+02 2.402121e+01 2.054568e+02
      vertex -1.798915e+02 1.650914e+01 1.998862e+02
    endloop
  endfacet
  facet normal 5.606830e-02 9.984240e-01 -2.427243e-03
    outer loop
      vertex -1.455689e+02 2.353416e+01 2.082428e+02
      vertex -1.489305e+02 2.362964e+01 1.698690e+02
      vertex -1.543626e+02 2.402121e+01 2.054568e+02
    endloop
  endfacet
  facet normal 1.920988e-01 9.812701e-01 -1.438620e-02
    outer loop
      vertex -1.477460e+02 2.338629e+01 1.690868e+02
      vertex -1.489305e+02 2.362964e+01 1.698690e+02
      vertex -1.455689e+02 2.353416e+01 2.082428e+02
    endloop
  endfacet
  facet normal -2.714473e-01 9.610471e-01 -5.200813e-02
    outer loop
      vertex -1.722027e+02 1.981446e+01 2.208345e+02
      vertex -1.609360e+02 2.316307e+01 2.239083e+02
      vertex -1.543626e+02 2.402121e+01 2.054568e+02
    endloop
  endfacet
  facet normal 1.985396e-02 9.983702e-01 5.350481e-02
    outer loop
      vertex -1.495709e+02 2.309355e+01 2.209884e+02
      vertex -1.543626e+02 2.402121e+01 2.054568e+02
      vertex -1.609360e+02 2.316307e+01 2.239083e+02
    endloop
  endfacet
  facet normal 4.033587e-02 9.980722e-01 4.716810e-02
    outer loop
      vertex -1.495709e+02 2.309355e+01 2.209884e+02
      vertex -1.455689e+02 2.353416e+01 2.082428e+02
      vertex -1.543626e+02 2.402121e+01 2.054568e+02
    endloop
  endfacet
  facet normal 9.283816e-01 -2.704213e-01 -2.549116e-01
    outer loop
      vertex -1.313718e+02 -3.872588e+01 1.680838e+02
      vertex -1.214762e+02 -3.915840e+01 2.045821e+02
      vertex -1.310552e+02 -4.842268e+01 1.795237e+02
    endloop
  endfacet
  facet normal 7.602467e-01 -6.476147e-01 -5.118754e-02
    outer loop
      vertex -1.279429e+02 -4.641600e+01 2.003605e+02
      vertex -1.310552e+02 -4.842268e+01 1.795237e+02
      vertex -1.214762e+02 -3.915840e+01 2.045821e+02
    endloop
  endfacet
  facet normal 8.989038e-01 3.669822e-01 -2.393660e-01
    outer loop
      vertex -1.443224e+02 1.863779e+01 2.073965e+02
      vertex -1.214762e+02 -3.915840e+01 2.045821e+02
      vertex -1.313718e+02 -3.872588e+01 1.680838e+02
    endloop
  endfacet
  facet normal 6.731952e-01 -7.132777e-01 1.950467e-01
    outer loop
      vertex -1.312543e+02 -4.032467e+01 2.340656e+02
      vertex -1.279429e+02 -4.641600e+01 2.003605e+02
      vertex -1.214762e+02 -3.915840e+01 2.045821e+02
    endloop
  endfacet
  facet normal 9.024769e-01 2.979268e-01 3.110869e-01
    outer loop
      vertex -1.379841e+02 -1.279491e+01 2.272238e+02
      vertex -1.312543e+02 -4.032467e+01 2.340656e+02
      vertex -1.214762e+02 -3.915840e+01 2.045821e+02
    endloop
  endfacet
  facet normal 9.028855e-01 3.443698e-01 2.573076e-01
    outer loop
      vertex -1.379841e+02 -1.279491e+01 2.272238e+02
      vertex -1.214762e+02 -3.915840e+01 2.045821e+02
      vertex -1.443224e+02 1.863779e+01 2.073965e+02
    endloop
  endfacet
  facet normal 9.607711e-01 2.673835e-01 -7.365454e-02
    outer loop
      vertex -1.439284e+02 5.730248e+00 1.656780e+02
      vertex -1.443224e+02 1.863779e+01 2.073965e+02
      vertex -1.313718e+02 -3.872588e+01 1.680838e+02
    endloop
  endfacet
  facet normal 7.421989e-01 -6.429435e-01 1.891151e-01
    outer loop
      vertex -1.367495e+02 -4.717217e+01 2.323522e+02
      vertex -1.279429e+02 -4.641600e+01 2.003605e+02
      vertex -1.312543e+02 -4.032467e+01 2.340656e+02
    endloop
  endfacet
  facet normal 9.636873e-01 2.575367e-01 -7.058045e-02
    outer loop
      vertex -1.455689e+02 2.353416e+01 2.082428e+02
      vertex -1.443224e+02 1.863779e+01 2.073965e+02
      vertex -1.439284e+02 5.730248e+00 1.656780e+02
    endloop
  endfacet
  facet normal 9.104291e-01 3.358881e-01 2.414498e-01
    outer loop
      vertex -1.495709e+02 2.309355e+01 2.209884e+02
      vertex -1.379841e+02 -1.279491e+01 2.272238e+02
      vertex -1.443224e+02 1.863779e+01 2.073965e+02
    endloop
  endfacet
  facet normal 9.355157e-01 1.862842e-01 3.001808e-01
    outer loop
      vertex -1.495709e+02 2.309355e+01 2.209884e+02
      vertex -1.443224e+02 1.863779e+01 2.073965e+02
      vertex -1.455689e+02 2.353416e+01 2.082428e+02
    endloop
  endfacet
  facet normal 9.736910e-01 2.211422e-01 -5.497188e-02
    outer loop
      vertex -1.477460e+02 2.338629e+01 1.690868e+02
      vertex -1.455689e+02 2.353416e+01 2.082428e+02
      vertex -1.439284e+02 5.730248e+00 1.656780e+02
    endloop
  endfacet
endsolid SIM_ECUB_R_SHOULDER_ROLL
