solid SIM_ECUB_TORSO_2
  facet normal -9.780735e-01 -6.735498e-02 -1.970673e-01
    outer loop
      vertex -4.720000e+01 -3.070387e+01 -9.015103e+00
      vertex -4.720000e+01 -9.180311e+00 -1.637157e+01
      vertex -4.420000e+01 -2.270044e+01 -2.664001e+01
    endloop
  endfacet
  facet normal -9.826895e-01 -1.773341e-01 -5.360978e-02
    outer loop
      vertex -4.720000e+01 -4.554159e+00 -3.167427e+01
      vertex -4.420000e+01 -2.270044e+01 -2.664001e+01
      vertex -4.720000e+01 -9.180311e+00 -1.637157e+01
    endloop
  endfacet
  facet normal -6.847458e-01 -6.126189e-01 -3.947422e-01
    outer loop
      vertex -4.420000e+01 -3.363084e+01 -9.676602e+00
      vertex -4.720000e+01 -3.070387e+01 -9.015103e+00
      vertex -4.420000e+01 -2.270044e+01 -2.664001e+01
    endloop
  endfacet
  facet normal -6.943115e-01 -2.966873e-01 -6.556739e-01
    outer loop
      vertex -4.420000e+01 -5.052857e+00 -3.462540e+01
      vertex -4.420000e+01 -2.270044e+01 -2.664001e+01
      vertex -4.720000e+01 -4.554159e+00 -3.167427e+01
    endloop
  endfacet
  facet normal 1.270985e-01 -8.337892e-01 -5.372537e-01
    outer loop
      vertex 2.824000e+01 -2.440392e+01 -6.859116e+00
      vertex -4.420000e+01 -3.363084e+01 -9.676602e+00
      vertex -4.420000e+01 -2.270044e+01 -2.664001e+01
    endloop
  endfacet
  facet normal 1.036150e-03 -4.122518e-01 -9.110693e-01
    outer loop
      vertex 3.840000e+01 -4.733342e+00 -3.467604e+01
      vertex -4.420000e+01 -2.270044e+01 -2.664001e+01
      vertex -4.420000e+01 -5.052857e+00 -3.462540e+01
    endloop
  endfacet
  facet normal -4.133263e-03 -9.974845e-01 -7.076429e-02
    outer loop
      vertex 3.840000e+01 -2.306509e+01 -2.632452e+01
      vertex 2.824000e+01 -2.440392e+01 -6.859116e+00
      vertex -4.420000e+01 -2.270044e+01 -2.664001e+01
    endloop
  endfacet
  facet normal 1.645566e-03 -4.145803e-01 -9.100113e-01
    outer loop
      vertex 3.840000e+01 -4.733342e+00 -3.467604e+01
      vertex 3.840000e+01 -2.306509e+01 -2.632452e+01
      vertex -4.420000e+01 -2.270044e+01 -2.664001e+01
    endloop
  endfacet
  facet normal -9.646884e-01 -8.518623e-02 -2.492380e-01
    outer loop
      vertex -5.960000e+01 -8.450909e+00 3.137397e+01
      vertex -4.720000e+01 -9.180311e+00 -1.637157e+01
      vertex -4.720000e+01 -3.070387e+01 -9.015103e+00
    endloop
  endfacet
  facet normal -1.000000e+00 -2.603875e-16 8.499324e-16
    outer loop
      vertex -4.720000e+01 2.925204e+01 -1.295733e+01
      vertex -4.720000e+01 -4.554159e+00 -3.167427e+01
      vertex -4.720000e+01 -9.180311e+00 -1.637157e+01
    endloop
  endfacet
  facet normal -9.678735e-01 3.261348e-03 -2.514164e-01
    outer loop
      vertex -5.960000e+01 3.300000e+01 3.191166e+01
      vertex -4.720000e+01 -9.180311e+00 -1.637157e+01
      vertex -5.960000e+01 -8.450909e+00 3.137397e+01
    endloop
  endfacet
  facet normal -9.630833e-01 2.382164e-02 -2.681476e-01
    outer loop
      vertex -4.720000e+01 2.925204e+01 -1.295733e+01
      vertex -4.720000e+01 -9.180311e+00 -1.637157e+01
      vertex -5.960000e+01 3.300000e+01 3.191166e+01
    endloop
  endfacet
  facet normal -7.056917e-01 -7.025385e-01 -9.186308e-02
    outer loop
      vertex -3.418543e+01 -4.905802e+01 3.137349e+01
      vertex -4.720000e+01 -3.070387e+01 -9.015103e+00
      vertex -4.420000e+01 -3.363084e+01 -9.676602e+00
    endloop
  endfacet
  facet normal -9.569193e-01 -6.358077e-03 -2.902843e-01
    outer loop
      vertex -5.960000e+01 -3.300000e+01 3.191166e+01
      vertex -5.960000e+01 -8.450909e+00 3.137397e+01
      vertex -4.720000e+01 -3.070387e+01 -9.015103e+00
    endloop
  endfacet
  facet normal -5.258464e-01 -8.253506e-01 -2.056259e-01
    outer loop
      vertex -3.418543e+01 -4.905802e+01 3.137349e+01
      vertex -5.960000e+01 -3.300000e+01 3.191166e+01
      vertex -4.720000e+01 -3.070387e+01 -9.015103e+00
    endloop
  endfacet
  facet normal -6.829500e-01 1.372545e-01 -7.174541e-01
    outer loop
      vertex -4.420000e+01 1.750006e+01 -3.031086e+01
      vertex -4.420000e+01 -5.052857e+00 -3.462540e+01
      vertex -4.720000e+01 -4.554159e+00 -3.167427e+01
    endloop
  endfacet
  facet normal -1.000000e+00 4.180476e-16 -3.754443e-16
    outer loop
      vertex -4.720000e+01 2.925204e+01 -1.295733e+01
      vertex -4.720000e+01 1.600112e+01 -2.771188e+01
      vertex -4.720000e+01 -4.554159e+00 -3.167427e+01
    endloop
  endfacet
  facet normal -6.869286e-01 1.375567e-01 -7.135876e-01
    outer loop
      vertex -4.420000e+01 1.750006e+01 -3.031086e+01
      vertex -4.720000e+01 -4.554159e+00 -3.167427e+01
      vertex -4.720000e+01 1.600112e+01 -2.771188e+01
    endloop
  endfacet
  facet normal 2.746485e-01 -8.761001e-01 -3.962534e-01
    outer loop
      vertex 2.872895e+00 -3.900651e+01 3.483563e+01
      vertex -3.418543e+01 -4.905802e+01 3.137349e+01
      vertex -4.420000e+01 -3.363084e+01 -9.676602e+00
    endloop
  endfacet
  facet normal 1.319297e-01 -9.578461e-01 -2.551967e-01
    outer loop
      vertex 2.872895e+00 -3.900651e+01 3.483563e+01
      vertex -4.420000e+01 -3.363084e+01 -9.676602e+00
      vertex 2.824000e+01 -2.440392e+01 -6.859116e+00
    endloop
  endfacet
  facet normal -1.189011e-06 1.879001e-01 -9.821881e-01
    outer loop
      vertex 3.840000e+01 1.749961e+01 -3.031104e+01
      vertex -4.420000e+01 -5.052857e+00 -3.462540e+01
      vertex -4.420000e+01 1.750006e+01 -3.031086e+01
    endloop
  endfacet
  facet normal -1.346779e-03 1.926521e-01 -9.812662e-01
    outer loop
      vertex 3.840000e+01 1.749961e+01 -3.031104e+01
      vertex 3.840000e+01 -4.733342e+00 -3.467604e+01
      vertex -4.420000e+01 -5.052857e+00 -3.462540e+01
    endloop
  endfacet
  facet normal -1.000000e+00 2.728070e-16 -7.592805e-16
    outer loop
      vertex -5.960000e+01 -9.180311e+00 4.047000e+01
      vertex -5.960000e+01 -8.450909e+00 3.137397e+01
      vertex -5.960000e+01 -3.300000e+01 3.191166e+01
    endloop
  endfacet
  facet normal -1.000000e+00 -1.714179e-16 0.000000e+00
    outer loop
      vertex -5.960000e+01 3.300000e+01 4.047000e+01
      vertex -5.960000e+01 3.300000e+01 3.191166e+01
      vertex -5.960000e+01 -8.450909e+00 3.137397e+01
    endloop
  endfacet
  facet normal -1.000000e+00 0.000000e+00 -7.811566e-16
    outer loop
      vertex -5.960000e+01 -9.180311e+00 4.047000e+01
      vertex -5.960000e+01 3.300000e+01 4.047000e+01
      vertex -5.960000e+01 -8.450909e+00 3.137397e+01
    endloop
  endfacet
  facet normal -3.620328e-01 -5.969730e-01 7.159298e-01
    outer loop
      vertex -2.647038e+01 -3.323352e+01 4.847000e+01
      vertex -5.960000e+01 -3.300000e+01 3.191166e+01
      vertex -3.418543e+01 -4.905802e+01 3.137349e+01
    endloop
  endfacet
  facet normal -1.000000e+00 0.000000e+00 0.000000e+00
    outer loop
      vertex -5.960000e+01 -3.300000e+01 4.047000e+01
      vertex -5.960000e+01 -9.180311e+00 4.047000e+01
      vertex -5.960000e+01 -3.300000e+01 3.191166e+01
    endloop
  endfacet
  facet normal -7.048479e-03 -9.999752e-01 0.000000e+00
    outer loop
      vertex -2.647038e+01 -3.323352e+01 4.847000e+01
      vertex -5.960000e+01 -3.300000e+01 4.047000e+01
      vertex -5.960000e+01 -3.300000e+01 3.191166e+01
    endloop
  endfacet
  facet normal -4.354381e-02 -7.233126e-01 6.891465e-01
    outer loop
      vertex 2.872894e+00 -3.500000e+01 4.847000e+01
      vertex -2.647038e+01 -3.323352e+01 4.847000e+01
      vertex -3.418543e+01 -4.905802e+01 3.137349e+01
    endloop
  endfacet
  facet normal 2.277460e-01 -9.342207e-01 2.745242e-01
    outer loop
      vertex 2.872894e+00 -3.500000e+01 4.847000e+01
      vertex -3.418543e+01 -4.905802e+01 3.137349e+01
      vertex 2.872895e+00 -3.900651e+01 3.483563e+01
    endloop
  endfacet
  facet normal 2.061040e-01 9.785301e-01 0.000000e+00
    outer loop
      vertex -3.255272e+01 2.730314e+01 4.847000e+01
      vertex -5.960000e+01 3.300000e+01 3.191166e+01
      vertex -5.960000e+01 3.300000e+01 4.047000e+01
    endloop
  endfacet
  facet normal -1.300507e-01 9.844400e-01 -1.181724e-01
    outer loop
      vertex -4.446067e+01 3.500000e+01 3.191166e+01
      vertex -4.720000e+01 2.925204e+01 -1.295733e+01
      vertex -5.960000e+01 3.300000e+01 3.191166e+01
    endloop
  endfacet
  facet normal -1.145132e-01 8.668265e-01 4.852820e-01
    outer loop
      vertex -3.255272e+01 2.730314e+01 4.847000e+01
      vertex -4.446067e+01 3.500000e+01 3.191166e+01
      vertex -5.960000e+01 3.300000e+01 3.191166e+01
    endloop
  endfacet
  facet normal -2.836316e-01 0.000000e+00 9.589333e-01
    outer loop
      vertex -3.255272e+01 2.730314e+01 4.847000e+01
      vertex -5.960000e+01 3.300000e+01 4.047000e+01
      vertex -5.960000e+01 -9.180311e+00 4.047000e+01
    endloop
  endfacet
  facet normal -6.055114e-01 0.000000e+00 7.958367e-01
    outer loop
      vertex -1.819887e+01 -6.692086e+00 7.197000e+01
      vertex -5.960000e+01 -9.180311e+00 4.047000e+01
      vertex -5.960000e+01 -3.300000e+01 4.047000e+01
    endloop
  endfacet
  facet normal -5.927994e-01 2.733659e-01 7.575355e-01
    outer loop
      vertex -3.255272e+01 2.730314e+01 4.847000e+01
      vertex -5.960000e+01 -9.180311e+00 4.047000e+01
      vertex -1.819887e+01 -6.692086e+00 7.197000e+01
    endloop
  endfacet
  facet normal -1.887664e-01 -6.173576e-01 7.636995e-01
    outer loop
      vertex -1.819887e+01 -6.692086e+00 7.197000e+01
      vertex -5.960000e+01 -3.300000e+01 4.047000e+01
      vertex -2.647038e+01 -3.323352e+01 4.847000e+01
    endloop
  endfacet
  facet normal -1.809640e-01 -6.197475e-01 7.636524e-01
    outer loop
      vertex 5.255980e+00 -1.354081e+01 7.197000e+01
      vertex -1.819887e+01 -6.692086e+00 7.197000e+01
      vertex -2.647038e+01 -3.323352e+01 4.847000e+01
    endloop
  endfacet
  facet normal -4.427628e-02 -7.354798e-01 6.760984e-01
    outer loop
      vertex 5.255980e+00 -1.354081e+01 7.197000e+01
      vertex -2.647038e+01 -3.323352e+01 4.847000e+01
      vertex 2.872894e+00 -3.500000e+01 4.847000e+01
    endloop
  endfacet
  facet normal -4.061577e-01 3.973501e-01 8.228906e-01
    outer loop
      vertex 6.131651e+00 1.817774e+01 7.197000e+01
      vertex -3.255272e+01 2.730314e+01 4.847000e+01
      vertex -1.819887e+01 -6.692086e+00 7.197000e+01
    endloop
  endfacet
  facet normal 9.425186e-16 -9.220799e-16 1.000000e+00
    outer loop
      vertex 6.131651e+00 1.817774e+01 7.197000e+01
      vertex -1.819887e+01 -6.692086e+00 7.197000e+01
      vertex 5.255980e+00 -1.354081e+01 7.197000e+01
    endloop
  endfacet
  facet normal -6.818297e-01 5.442444e-01 -4.887804e-01
    outer loop
      vertex -4.420000e+01 3.207923e+01 -1.399420e+01
      vertex -4.720000e+01 1.600112e+01 -2.771188e+01
      vertex -4.720000e+01 2.925204e+01 -1.295733e+01
    endloop
  endfacet
  facet normal -6.886752e-01 5.406803e-01 -4.831059e-01
    outer loop
      vertex -4.420000e+01 1.750006e+01 -3.031086e+01
      vertex -4.720000e+01 1.600112e+01 -2.771188e+01
      vertex -4.420000e+01 3.207923e+01 -1.399420e+01
    endloop
  endfacet
  facet normal -6.940240e-01 7.182386e-01 -4.963892e-02
    outer loop
      vertex -4.446067e+01 3.500000e+01 3.191166e+01
      vertex -4.420000e+01 3.207923e+01 -1.399420e+01
      vertex -4.720000e+01 2.925204e+01 -1.295733e+01
    endloop
  endfacet
  facet normal 2.248732e-01 7.265953e-01 -6.492237e-01
    outer loop
      vertex 1.990000e+01 1.795273e+01 -7.601763e+00
      vertex -4.420000e+01 1.750006e+01 -3.031086e+01
      vertex -4.420000e+01 3.207923e+01 -1.399420e+01
    endloop
  endfacet
  facet normal 4.771332e-03 9.979724e-01 -6.346903e-02
    outer loop
      vertex 2.872894e+00 3.500000e+01 3.547000e+01
      vertex -4.420000e+01 3.207923e+01 -1.399420e+01
      vertex -4.446067e+01 3.500000e+01 3.191166e+01
    endloop
  endfacet
  facet normal 2.330540e-01 9.322280e-01 -2.768335e-01
    outer loop
      vertex 2.872894e+00 3.500000e+01 3.547000e+01
      vertex 1.990000e+01 1.795273e+01 -7.601763e+00
      vertex -4.420000e+01 3.207923e+01 -1.399420e+01
    endloop
  endfacet
  facet normal 5.334550e-06 9.998011e-01 -1.994467e-02
    outer loop
      vertex 3.840000e+01 1.749961e+01 -3.031104e+01
      vertex -4.420000e+01 1.750006e+01 -3.031086e+01
      vertex 1.990000e+01 1.795273e+01 -7.601763e+00
    endloop
  endfacet
  facet normal -7.291489e-02 8.833334e-01 4.630395e-01
    outer loop
      vertex 6.131651e+00 1.817774e+01 7.197000e+01
      vertex -4.446067e+01 3.500000e+01 3.191166e+01
      vertex -3.255272e+01 2.730314e+01 4.847000e+01
    endloop
  endfacet
  facet normal -3.162539e-02 9.066549e-01 4.206860e-01
    outer loop
      vertex 6.131651e+00 1.817774e+01 7.197000e+01
      vertex 2.872894e+00 3.500000e+01 3.547000e+01
      vertex -4.446067e+01 3.500000e+01 3.191166e+01
    endloop
  endfacet
  facet normal -5.346516e-01 -7.769122e-01 -3.324983e-01
    outer loop
      vertex 4.340000e+01 -3.363084e+01 -9.676602e+00
      vertex 2.824000e+01 -2.440392e+01 -6.859116e+00
      vertex 3.840000e+01 -2.306509e+01 -2.632452e+01
    endloop
  endfacet
  facet normal -3.177902e-01 -8.178224e-01 -4.797665e-01
    outer loop
      vertex 3.422126e+01 -4.901554e+01 3.113259e+01
      vertex 2.872895e+00 -3.900651e+01 3.483563e+01
      vertex 2.824000e+01 -2.440392e+01 -6.859116e+00
    endloop
  endfacet
  facet normal -5.295147e-01 -7.475770e-01 -4.009274e-01
    outer loop
      vertex 3.422126e+01 -4.901554e+01 3.113259e+01
      vertex 2.824000e+01 -2.440392e+01 -6.859116e+00
      vertex 4.340000e+01 -3.363084e+01 -9.676602e+00
    endloop
  endfacet
  facet normal -1.727418e-02 -4.145190e-01 -9.098767e-01
    outer loop
      vertex 4.340000e+01 -5.052856e+00 -3.462540e+01
      vertex 3.840000e+01 -2.306509e+01 -2.632452e+01
      vertex 3.840000e+01 -4.733342e+00 -3.467604e+01
    endloop
  endfacet
  facet normal -2.741120e-02 -4.120971e-01 -9.107275e-01
    outer loop
      vertex 4.340000e+01 -5.052856e+00 -3.462540e+01
      vertex 4.340000e+01 -2.270044e+01 -2.664001e+01
      vertex 3.840000e+01 -2.306509e+01 -2.632452e+01
    endloop
  endfacet
  facet normal 2.711826e-02 -8.402973e-01 -5.414471e-01
    outer loop
      vertex 4.340000e+01 -3.363084e+01 -9.676602e+00
      vertex 3.840000e+01 -2.306509e+01 -2.632452e+01
      vertex 4.340000e+01 -2.270044e+01 -2.664001e+01
    endloop
  endfacet
  facet normal 1.925949e-05 1.926523e-01 -9.812671e-01
    outer loop
      vertex 4.340000e+01 1.750006e+01 -3.031086e+01
      vertex 3.840000e+01 -4.733342e+00 -3.467604e+01
      vertex 3.840000e+01 1.749961e+01 -3.031104e+01
    endloop
  endfacet
  facet normal 2.194907e-02 1.878549e-01 -9.819515e-01
    outer loop
      vertex 4.340000e+01 1.750006e+01 -3.031086e+01
      vertex 4.340000e+01 -5.052856e+00 -3.462540e+01
      vertex 3.840000e+01 -4.733342e+00 -3.467604e+01
    endloop
  endfacet
  facet normal 4.759646e-02 -9.583466e-01 2.816137e-01
    outer loop
      vertex 5.020646e+01 -3.500000e+01 4.047000e+01
      vertex 2.872894e+00 -3.500000e+01 4.847000e+01
      vertex 2.872895e+00 -3.900651e+01 3.483563e+01
    endloop
  endfacet
  facet normal -5.968668e-02 -5.054130e-01 8.608108e-01
    outer loop
      vertex 5.020646e+01 -3.500000e+01 4.047000e+01
      vertex 2.872895e+00 -3.900651e+01 3.483563e+01
      vertex 3.422126e+01 -4.901554e+01 3.113259e+01
    endloop
  endfacet
  facet normal 4.752635e-01 -6.731819e-01 5.665251e-01
    outer loop
      vertex 4.182966e+01 -7.496691e+00 4.847000e+01
      vertex 5.255980e+00 -1.354081e+01 7.197000e+01
      vertex 2.872894e+00 -3.500000e+01 4.847000e+01
    endloop
  endfacet
  facet normal 1.621924e-01 -2.297357e-01 9.596432e-01
    outer loop
      vertex 4.182966e+01 -7.496691e+00 4.847000e+01
      vertex 2.872894e+00 -3.500000e+01 4.847000e+01
      vertex 5.020646e+01 -3.500000e+01 4.047000e+01
    endloop
  endfacet
  facet normal 6.443108e-01 -1.778782e-02 7.645569e-01
    outer loop
      vertex 3.421119e+01 2.519725e+01 4.847000e+01
      vertex 6.131651e+00 1.817774e+01 7.197000e+01
      vertex 5.255980e+00 -1.354081e+01 7.197000e+01
    endloop
  endfacet
  facet normal 5.222381e-01 1.216939e-01 8.440723e-01
    outer loop
      vertex 3.421119e+01 2.519725e+01 4.847000e+01
      vertex 5.255980e+00 -1.354081e+01 7.197000e+01
      vertex 4.182966e+01 -7.496691e+00 4.847000e+01
    endloop
  endfacet
  facet normal -5.247104e-01 7.275588e-01 -4.419697e-01
    outer loop
      vertex 4.396960e+01 3.153399e+01 -1.382030e+01
      vertex 3.840000e+01 1.749961e+01 -3.031104e+01
      vertex 1.990000e+01 1.795273e+01 -7.601763e+00
    endloop
  endfacet
  facet normal -2.838214e-02 9.255567e-01 -3.775438e-01
    outer loop
      vertex 5.020646e+01 3.500000e+01 3.191166e+01
      vertex 1.990000e+01 1.795273e+01 -7.601763e+00
      vertex 2.872894e+00 3.500000e+01 3.547000e+01
    endloop
  endfacet
  facet normal -4.912264e-01 8.710314e-01 9.775589e-04
    outer loop
      vertex 5.020646e+01 3.500000e+01 3.191166e+01
      vertex 4.396960e+01 3.153399e+01 -1.382030e+01
      vertex 1.990000e+01 1.795273e+01 -7.601763e+00
    endloop
  endfacet
  facet normal -4.341679e-05 7.615535e-01 -6.481021e-01
    outer loop
      vertex 4.340000e+01 1.750006e+01 -3.031086e+01
      vertex 3.840000e+01 1.749961e+01 -3.031104e+01
      vertex 4.396960e+01 3.153399e+01 -1.382030e+01
    endloop
  endfacet
  facet normal 1.144307e-01 9.060642e-01 4.073737e-01
    outer loop
      vertex 3.421119e+01 2.519725e+01 4.847000e+01
      vertex 2.872894e+00 3.500000e+01 3.547000e+01
      vertex 6.131651e+00 1.817774e+01 7.197000e+01
    endloop
  endfacet
  facet normal 4.041746e-02 8.422055e-01 5.376396e-01
    outer loop
      vertex 3.421119e+01 2.519725e+01 4.847000e+01
      vertex 5.020646e+01 3.500000e+01 3.191166e+01
      vertex 2.872894e+00 3.500000e+01 3.547000e+01
    endloop
  endfacet
  facet normal 9.862668e-01 -6.808753e-02 -1.504723e-01
    outer loop
      vertex 4.340000e+01 -5.052856e+00 -3.462540e+01
      vertex 4.590000e+01 -9.180311e+00 -1.637157e+01
      vertex 4.340000e+01 -2.270044e+01 -2.664001e+01
    endloop
  endfacet
  facet normal 9.892686e-01 -1.228196e-01 -7.913905e-02
    outer loop
      vertex 4.340000e+01 -3.363084e+01 -9.676602e+00
      vertex 4.340000e+01 -2.270044e+01 -2.664001e+01
      vertex 4.590000e+01 -9.180311e+00 -1.637157e+01
    endloop
  endfacet
  facet normal 9.908559e-01 5.470838e-02 -1.233349e-01
    outer loop
      vertex 4.396960e+01 3.153399e+01 -1.382030e+01
      vertex 4.590000e+01 -9.180311e+00 -1.637157e+01
      vertex 4.340000e+01 -5.052856e+00 -3.462540e+01
    endloop
  endfacet
  facet normal -8.332491e-01 -6.514094e-02 -5.490470e-01
    outer loop
      vertex 4.640000e+01 -1.147095e+01 -1.685862e+01
      vertex 4.340000e+01 -3.363084e+01 -9.676602e+00
      vertex 4.590000e+01 -9.180311e+00 -1.637157e+01
    endloop
  endfacet
  facet normal 3.963482e-01 7.612490e-02 -9.149389e-01
    outer loop
      vertex 4.640000e+01 2.925204e+01 -1.295732e+01
      vertex 4.590000e+01 -9.180311e+00 -1.637157e+01
      vertex 4.396960e+01 3.153399e+01 -1.382030e+01
    endloop
  endfacet
  facet normal -4.701921e-01 8.416503e-02 -8.785418e-01
    outer loop
      vertex 4.640000e+01 2.925204e+01 -1.295732e+01
      vertex 4.640000e+01 -1.147095e+01 -1.685862e+01
      vertex 4.590000e+01 -9.180311e+00 -1.637157e+01
    endloop
  endfacet
  facet normal 9.991189e-01 7.885991e-03 -4.122150e-02
    outer loop
      vertex 4.340000e+01 1.750006e+01 -3.031086e+01
      vertex 4.396960e+01 3.153399e+01 -1.382030e+01
      vertex 4.340000e+01 -5.052856e+00 -3.462540e+01
    endloop
  endfacet
  facet normal 5.356472e-01 -8.228514e-01 -1.897307e-01
    outer loop
      vertex 5.910000e+01 -3.300000e+01 3.191166e+01
      vertex 3.422126e+01 -4.901554e+01 3.113259e+01
      vertex 4.340000e+01 -3.363084e+01 -9.676602e+00
    endloop
  endfacet
  facet normal 4.969072e-01 -3.277019e-01 -8.035513e-01
    outer loop
      vertex 4.640000e+01 -1.147095e+01 -1.685862e+01
      vertex 4.640000e+01 -3.070387e+01 -9.015102e+00
      vertex 4.340000e+01 -3.363084e+01 -9.676602e+00
    endloop
  endfacet
  facet normal 7.034380e-01 -6.632477e-01 -2.554945e-01
    outer loop
      vertex 5.910000e+01 -3.300000e+01 3.191166e+01
      vertex 4.340000e+01 -3.363084e+01 -9.676602e+00
      vertex 4.640000e+01 -3.070387e+01 -9.015102e+00
    endloop
  endfacet
  facet normal 7.760244e-02 -6.125592e-01 7.866060e-01
    outer loop
      vertex 5.810000e+01 -3.400000e+01 4.047000e+01
      vertex 5.020646e+01 -3.500000e+01 4.047000e+01
      vertex 3.422126e+01 -4.901554e+01 3.113259e+01
    endloop
  endfacet
  facet normal 5.417277e-01 -8.398320e-01 -3.483203e-02
    outer loop
      vertex 5.810000e+01 -3.400000e+01 4.047000e+01
      vertex 3.422126e+01 -4.901554e+01 3.113259e+01
      vertex 5.910000e+01 -3.300000e+01 3.191166e+01
    endloop
  endfacet
  facet normal 4.388004e-01 -1.251791e-01 8.898227e-01
    outer loop
      vertex 5.905000e+01 -4.000000e+00 4.047000e+01
      vertex 4.182966e+01 -7.496691e+00 4.847000e+01
      vertex 5.020646e+01 -3.500000e+01 4.047000e+01
    endloop
  endfacet
  facet normal -1.604443e-07 4.577084e-08 1.000000e+00
    outer loop
      vertex 5.810000e+01 -3.400000e+01 4.047000e+01
      vertex 5.905000e+01 -4.000000e+00 4.047000e+01
      vertex 5.020646e+01 -3.500000e+01 4.047000e+01
    endloop
  endfacet
  facet normal 2.940139e-01 6.851225e-02 9.533425e-01
    outer loop
      vertex 5.810000e+01 3.400000e+01 4.047000e+01
      vertex 3.421119e+01 2.519725e+01 4.847000e+01
      vertex 4.182966e+01 -7.496691e+00 4.847000e+01
    endloop
  endfacet
  facet normal 4.195454e-01 1.048860e-02 9.076738e-01
    outer loop
      vertex 5.810000e+01 3.400000e+01 4.047000e+01
      vertex 4.182966e+01 -7.496691e+00 4.847000e+01
      vertex 5.905000e+01 -4.000000e+00 4.047000e+01
    endloop
  endfacet
  facet normal 2.182289e-01 9.704140e-01 -1.033091e-01
    outer loop
      vertex 5.910000e+01 3.300000e+01 3.191166e+01
      vertex 4.396960e+01 3.153399e+01 -1.382030e+01
      vertex 5.020646e+01 3.500000e+01 3.191166e+01
    endloop
  endfacet
  facet normal 7.084382e-01 6.579109e-01 -2.554769e-01
    outer loop
      vertex 4.640000e+01 2.925204e+01 -1.295732e+01
      vertex 4.396960e+01 3.153399e+01 -1.382030e+01
      vertex 5.910000e+01 3.300000e+01 3.191166e+01
    endloop
  endfacet
  facet normal -2.311528e-01 9.186011e-01 3.205314e-01
    outer loop
      vertex 5.810000e+01 3.400000e+01 4.047000e+01
      vertex 5.020646e+01 3.500000e+01 3.191166e+01
      vertex 3.421119e+01 2.519725e+01 4.847000e+01
    endloop
  endfacet
  facet normal 2.185513e-01 9.718477e-01 -8.801902e-02
    outer loop
      vertex 5.810000e+01 3.400000e+01 4.047000e+01
      vertex 5.910000e+01 3.300000e+01 3.191166e+01
      vertex 5.020646e+01 3.500000e+01 3.191166e+01
    endloop
  endfacet
  facet normal 9.636412e-01 -1.009005e-01 -2.474161e-01
    outer loop
      vertex 4.640000e+01 -1.147095e+01 -1.685862e+01
      vertex 5.910000e+01 -8.450909e+00 3.137397e+01
      vertex 4.640000e+01 -3.070387e+01 -9.015102e+00
    endloop
  endfacet
  facet normal 9.549500e-01 -6.498500e-03 -2.966955e-01
    outer loop
      vertex 5.910000e+01 -3.300000e+01 3.191166e+01
      vertex 4.640000e+01 -3.070387e+01 -9.015102e+00
      vertex 5.910000e+01 -8.450909e+00 3.137397e+01
    endloop
  endfacet
  facet normal 9.669827e-01 3.305509e-03 -2.548207e-01
    outer loop
      vertex 5.910000e+01 3.300000e+01 3.191166e+01
      vertex 5.910000e+01 -8.450909e+00 3.137397e+01
      vertex 4.640000e+01 -1.147095e+01 -1.685862e+01
    endloop
  endfacet
  facet normal 9.999852e-01 1.191212e-04 5.438594e-03
    outer loop
      vertex 5.905000e+01 -4.000000e+00 4.047000e+01
      vertex 5.910000e+01 -3.300000e+01 3.191166e+01
      vertex 5.910000e+01 -8.450909e+00 3.137397e+01
    endloop
  endfacet
  facet normal 9.996650e-01 2.499161e-02 -6.733876e-03
    outer loop
      vertex 5.810000e+01 3.400000e+01 4.047000e+01
      vertex 5.905000e+01 -4.000000e+00 4.047000e+01
      vertex 5.910000e+01 -8.450909e+00 3.137397e+01
    endloop
  endfacet
  facet normal 9.932213e-01 -1.507714e-03 1.162292e-01
    outer loop
      vertex 5.810000e+01 3.400000e+01 4.047000e+01
      vertex 5.910000e+01 -8.450909e+00 3.137397e+01
      vertex 5.910000e+01 3.300000e+01 3.191166e+01
    endloop
  endfacet
  facet normal 9.612896e-01 2.627667e-02 -2.742844e-01
    outer loop
      vertex 4.640000e+01 2.925204e+01 -1.295732e+01
      vertex 5.910000e+01 3.300000e+01 3.191166e+01
      vertex 4.640000e+01 -1.147095e+01 -1.685862e+01
    endloop
  endfacet
  facet normal 9.931684e-01 -3.145031e-02 1.123721e-01
    outer loop
      vertex 5.810000e+01 -3.400000e+01 4.047000e+01
      vertex 5.910000e+01 -3.300000e+01 3.191166e+01
      vertex 5.905000e+01 -4.000000e+00 4.047000e+01
    endloop
  endfacet
endsolid SIM_ECUB_TORSO_2
