solid SIM_ECUB_R_FOOT_REAR
  facet normal -9.978704e-01 -6.436675e-02 1.055880e-02
    outer loop
      vertex -1.228002e+02 -4.156556e+01 -9.498000e+02
      vertex -1.244000e+02 -1.676393e+01 -9.498000e+02
      vertex -1.228771e+02 -4.148900e+01 -9.566000e+02
    endloop
  endfacet
  facet normal -9.701191e-01 6.948117e-03 -2.425298e-01
    outer loop
      vertex -1.224000e+02 -1.676393e+01 -9.578000e+02
      vertex -1.228771e+02 -4.148900e+01 -9.566000e+02
      vertex -1.244000e+02 -1.676393e+01 -9.498000e+02
    endloop
  endfacet
  facet normal -5.817117e-02 -9.982505e-01 -1.058209e-02
    outer loop
      vertex -9.990050e+01 -4.290000e+01 -9.498000e+02
      vertex -1.228002e+02 -4.156556e+01 -9.498000e+02
      vertex -1.228771e+02 -4.148900e+01 -9.566000e+02
    endloop
  endfacet
  facet normal 6.560231e-14 -4.847667e-02 -9.988243e-01
    outer loop
      vertex -9.990050e+01 -1.676393e+01 -9.578000e+02
      vertex -1.228771e+02 -4.148900e+01 -9.566000e+02
      vertex -1.224000e+02 -1.676393e+01 -9.578000e+02
    endloop
  endfacet
  facet normal 1.220150e-02 -9.700703e-01 -2.425176e-01
    outer loop
      vertex -9.990050e+01 -4.090000e+01 -9.578000e+02
      vertex -9.990050e+01 -4.290000e+01 -9.498000e+02
      vertex -1.228771e+02 -4.148900e+01 -9.566000e+02
    endloop
  endfacet
  facet normal -5.215600e-02 4.703835e-14 -9.986389e-01
    outer loop
      vertex -9.990050e+01 -1.676393e+01 -9.578000e+02
      vertex -9.990050e+01 -4.090000e+01 -9.578000e+02
      vertex -1.228771e+02 -4.148900e+01 -9.566000e+02
    endloop
  endfacet
  facet normal -6.032486e-14 -4.514580e-14 1.000000e+00
    outer loop
      vertex -9.990050e+01 -1.676393e+01 -9.498000e+02
      vertex -1.244000e+02 -1.676393e+01 -9.498000e+02
      vertex -1.228002e+02 -4.156556e+01 -9.498000e+02
    endloop
  endfacet
  facet normal -9.701425e-01 4.347331e-15 -2.425356e-01
    outer loop
      vertex -1.244000e+02 6.568905e+01 -9.498000e+02
      vertex -1.224000e+02 -1.676393e+01 -9.578000e+02
      vertex -1.244000e+02 -1.676393e+01 -9.498000e+02
    endloop
  endfacet
  facet normal -6.032486e-14 -3.722782e-14 1.000000e+00
    outer loop
      vertex -9.990050e+01 1.072040e+01 -9.498000e+02
      vertex -1.244000e+02 6.568905e+01 -9.498000e+02
      vertex -1.244000e+02 -1.676393e+01 -9.498000e+02
    endloop
  endfacet
  facet normal -6.032486e-14 -3.722782e-14 1.000000e+00
    outer loop
      vertex -9.990050e+01 -1.676393e+01 -9.498000e+02
      vertex -9.990050e+01 1.072040e+01 -9.498000e+02
      vertex -1.244000e+02 -1.676393e+01 -9.498000e+02
    endloop
  endfacet
  facet normal -6.694343e-14 -4.125716e-14 1.000000e+00
    outer loop
      vertex -2.599981e+01 -4.156556e+01 -9.498000e+02
      vertex -1.228002e+02 -4.156556e+01 -9.498000e+02
      vertex -9.990050e+01 -4.290000e+01 -9.498000e+02
    endloop
  endfacet
  facet normal -6.694343e-14 -3.693647e-14 1.000000e+00
    outer loop
      vertex -2.599981e+01 -4.156556e+01 -9.498000e+02
      vertex -2.440000e+01 -1.676393e+01 -9.498000e+02
      vertex -1.228002e+02 -4.156556e+01 -9.498000e+02
    endloop
  endfacet
  facet normal -6.593837e-14 -4.092405e-14 1.000000e+00
    outer loop
      vertex -7.440000e+01 -1.676393e+01 -9.498000e+02
      vertex -1.228002e+02 -4.156556e+01 -9.498000e+02
      vertex -2.440000e+01 -1.676393e+01 -9.498000e+02
    endloop
  endfacet
  facet normal -6.687330e-14 -3.909953e-14 1.000000e+00
    outer loop
      vertex -7.440000e+01 -1.676393e+01 -9.498000e+02
      vertex -9.990050e+01 -1.676393e+01 -9.498000e+02
      vertex -1.228002e+02 -4.156556e+01 -9.498000e+02
    endloop
  endfacet
  facet normal 6.568719e-14 4.412186e-14 -1.000000e+00
    outer loop
      vertex -1.224000e+02 6.568905e+01 -9.578000e+02
      vertex -9.990050e+01 -1.676393e+01 -9.578000e+02
      vertex -1.224000e+02 -1.676393e+01 -9.578000e+02
    endloop
  endfacet
  facet normal -9.701425e-01 6.019382e-15 -2.425356e-01
    outer loop
      vertex -1.224000e+02 6.568905e+01 -9.578000e+02
      vertex -1.224000e+02 -1.676393e+01 -9.578000e+02
      vertex -1.244000e+02 6.568905e+01 -9.498000e+02
    endloop
  endfacet
  facet normal 1.932783e-14 -9.701425e-01 -2.425356e-01
    outer loop
      vertex -4.889950e+01 -4.090000e+01 -9.578000e+02
      vertex -9.990050e+01 -4.290000e+01 -9.498000e+02
      vertex -9.990050e+01 -4.090000e+01 -9.578000e+02
    endloop
  endfacet
  facet normal -6.687330e-14 -4.514097e-14 1.000000e+00
    outer loop
      vertex -4.889950e+01 -4.290000e+01 -9.498000e+02
      vertex -2.599981e+01 -4.156556e+01 -9.498000e+02
      vertex -9.990050e+01 -4.290000e+01 -9.498000e+02
    endloop
  endfacet
  facet normal 2.040911e-14 -9.701425e-01 -2.425356e-01
    outer loop
      vertex -4.889950e+01 -4.090000e+01 -9.578000e+02
      vertex -4.889950e+01 -4.290000e+01 -9.498000e+02
      vertex -9.990050e+01 -4.290000e+01 -9.498000e+02
    endloop
  endfacet
  facet normal 6.018597e-14 4.710246e-14 -1.000000e+00
    outer loop
      vertex -4.889950e+01 -4.090000e+01 -9.578000e+02
      vertex -9.990050e+01 -4.090000e+01 -9.578000e+02
      vertex -9.990050e+01 -1.676393e+01 -9.578000e+02
    endloop
  endfacet
  facet normal 6.032322e-14 4.265816e-14 -1.000000e+00
    outer loop
      vertex -2.640000e+01 -1.676393e+01 -9.578000e+02
      vertex -9.990050e+01 -1.676393e+01 -9.578000e+02
      vertex -1.224000e+02 6.568905e+01 -9.578000e+02
    endloop
  endfacet
  facet normal 6.032322e-14 4.739247e-14 -1.000000e+00
    outer loop
      vertex -2.640000e+01 -1.676393e+01 -9.578000e+02
      vertex -4.889950e+01 -4.090000e+01 -9.578000e+02
      vertex -9.990050e+01 -1.676393e+01 -9.578000e+02
    endloop
  endfacet
  facet normal -6.656628e-14 -3.737389e-14 1.000000e+00
    outer loop
      vertex -2.828739e+01 7.397464e+01 -9.498000e+02
      vertex -1.205126e+02 7.397464e+01 -9.498000e+02
      vertex -1.244000e+02 6.568905e+01 -9.498000e+02
    endloop
  endfacet
  facet normal -8.829784e-01 4.142715e-01 -2.207446e-01
    outer loop
      vertex -1.224000e+02 6.568905e+01 -9.578000e+02
      vertex -1.244000e+02 6.568905e+01 -9.498000e+02
      vertex -1.205126e+02 7.397464e+01 -9.498000e+02
    endloop
  endfacet
  facet normal -6.707523e-14 -3.147003e-14 1.000000e+00
    outer loop
      vertex -2.440000e+01 6.568905e+01 -9.498000e+02
      vertex -2.828739e+01 7.397464e+01 -9.498000e+02
      vertex -1.244000e+02 6.568905e+01 -9.498000e+02
    endloop
  endfacet
  facet normal -6.707523e-14 -3.989646e-14 1.000000e+00
    outer loop
      vertex -7.438890e+01 3.859969e+01 -9.498000e+02
      vertex -2.440000e+01 6.568905e+01 -9.498000e+02
      vertex -1.244000e+02 6.568905e+01 -9.498000e+02
    endloop
  endfacet
  facet normal -6.731801e-14 -4.034467e-14 1.000000e+00
    outer loop
      vertex -9.990050e+01 1.072040e+01 -9.498000e+02
      vertex -7.438890e+01 3.859969e+01 -9.498000e+02
      vertex -1.244000e+02 6.568905e+01 -9.498000e+02
    endloop
  endfacet
  facet normal -6.687330e-14 1.129359e-13 1.000000e+00
    outer loop
      vertex -4.889950e+01 7.410000e+01 -9.498000e+02
      vertex -9.990050e+01 7.410000e+01 -9.498000e+02
      vertex -1.205126e+02 7.397464e+01 -9.498000e+02
    endloop
  endfacet
  facet normal -6.081555e-03 9.999607e-01 -6.457048e-03
    outer loop
      vertex -1.206941e+02 7.392963e+01 -9.566000e+02
      vertex -1.205126e+02 7.397464e+01 -9.498000e+02
      vertex -9.990050e+01 7.410000e+01 -9.498000e+02
    endloop
  endfacet
  facet normal -6.656628e-14 -6.245410e-14 1.000000e+00
    outer loop
      vertex -2.828739e+01 7.397464e+01 -9.498000e+02
      vertex -4.889950e+01 7.410000e+01 -9.498000e+02
      vertex -1.205126e+02 7.397464e+01 -9.498000e+02
    endloop
  endfacet
  facet normal -9.796475e-01 1.991842e-01 2.482770e-02
    outer loop
      vertex -1.206941e+02 7.392963e+01 -9.566000e+02
      vertex -1.224000e+02 6.568905e+01 -9.578000e+02
      vertex -1.205126e+02 7.397464e+01 -9.498000e+02
    endloop
  endfacet
  facet normal -5.015497e-15 1.000000e+00 4.388646e-14
    outer loop
      vertex -9.990050e+01 7.410000e+01 -9.566000e+02
      vertex -9.990050e+01 7.410000e+01 -9.498000e+02
      vertex -4.889950e+01 7.410000e+01 -9.498000e+02
    endloop
  endfacet
  facet normal -8.193210e-03 9.999664e-01 4.261793e-14
    outer loop
      vertex -9.990050e+01 7.410000e+01 -9.566000e+02
      vertex -1.206941e+02 7.392963e+01 -9.566000e+02
      vertex -9.990050e+01 7.410000e+01 -9.498000e+02
    endloop
  endfacet
  facet normal 6.081681e-03 9.999815e-01 3.439532e-14
    outer loop
      vertex -4.889950e+01 7.410000e+01 -9.566000e+02
      vertex -4.889950e+01 7.410000e+01 -9.498000e+02
      vertex -2.828739e+01 7.397464e+01 -9.498000e+02
    endloop
  endfacet
  facet normal -3.900942e-15 1.000000e+00 3.552714e-14
    outer loop
      vertex -4.889950e+01 7.410000e+01 -9.566000e+02
      vertex -9.990050e+01 7.410000e+01 -9.566000e+02
      vertex -4.889950e+01 7.410000e+01 -9.498000e+02
    endloop
  endfacet
  facet normal 8.829784e-01 4.142715e-01 -2.207446e-01
    outer loop
      vertex -2.640000e+01 6.568905e+01 -9.578000e+02
      vertex -2.828739e+01 7.397464e+01 -9.498000e+02
      vertex -2.440000e+01 6.568905e+01 -9.498000e+02
    endloop
  endfacet
  facet normal 9.796475e-01 1.991842e-01 2.482770e-02
    outer loop
      vertex -2.810591e+01 7.392963e+01 -9.566000e+02
      vertex -2.828739e+01 7.397464e+01 -9.498000e+02
      vertex -2.640000e+01 6.568905e+01 -9.578000e+02
    endloop
  endfacet
  facet normal 8.193043e-03 9.999460e-01 -6.400596e-03
    outer loop
      vertex -2.810591e+01 7.392963e+01 -9.566000e+02
      vertex -4.889950e+01 7.410000e+01 -9.566000e+02
      vertex -2.828739e+01 7.397464e+01 -9.498000e+02
    endloop
  endfacet
  facet normal -6.805882e-14 -3.998544e-14 1.000000e+00
    outer loop
      vertex -4.889950e+01 1.072040e+01 -9.498000e+02
      vertex -2.440000e+01 -1.676393e+01 -9.498000e+02
      vertex -2.440000e+01 6.568905e+01 -9.498000e+02
    endloop
  endfacet
  facet normal 9.701425e-01 1.437963e-14 -2.425356e-01
    outer loop
      vertex -2.640000e+01 6.568905e+01 -9.578000e+02
      vertex -2.440000e+01 6.568905e+01 -9.498000e+02
      vertex -2.440000e+01 -1.676393e+01 -9.498000e+02
    endloop
  endfacet
  facet normal -6.750825e-14 -3.909740e-14 1.000000e+00
    outer loop
      vertex -4.889950e+01 3.820472e+01 -9.498000e+02
      vertex -2.440000e+01 6.568905e+01 -9.498000e+02
      vertex -7.438890e+01 3.859969e+01 -9.498000e+02
    endloop
  endfacet
  facet normal -6.496523e-14 -4.136425e-14 1.000000e+00
    outer loop
      vertex -4.889950e+01 3.820472e+01 -9.498000e+02
      vertex -4.889950e+01 1.072040e+01 -9.498000e+02
      vertex -2.440000e+01 6.568905e+01 -9.498000e+02
    endloop
  endfacet
  facet normal 9.978704e-01 -6.436675e-02 1.055880e-02
    outer loop
      vertex -2.592292e+01 -4.148900e+01 -9.566000e+02
      vertex -2.440000e+01 -1.676393e+01 -9.498000e+02
      vertex -2.599981e+01 -4.156556e+01 -9.498000e+02
    endloop
  endfacet
  facet normal -6.593837e-14 -3.809527e-14 1.000000e+00
    outer loop
      vertex -4.889950e+01 1.072040e+01 -9.498000e+02
      vertex -7.440000e+01 -1.676393e+01 -9.498000e+02
      vertex -2.440000e+01 -1.676393e+01 -9.498000e+02
    endloop
  endfacet
  facet normal 9.701425e-01 1.605169e-14 -2.425356e-01
    outer loop
      vertex -2.640000e+01 6.568905e+01 -9.578000e+02
      vertex -2.440000e+01 -1.676393e+01 -9.498000e+02
      vertex -2.640000e+01 -1.676393e+01 -9.578000e+02
    endloop
  endfacet
  facet normal 9.701191e-01 6.948117e-03 -2.425298e-01
    outer loop
      vertex -2.592292e+01 -4.148900e+01 -9.566000e+02
      vertex -2.640000e+01 -1.676393e+01 -9.578000e+02
      vertex -2.440000e+01 -1.676393e+01 -9.498000e+02
    endloop
  endfacet
  facet normal 5.644310e-02 -9.685959e-01 -2.421490e-01
    outer loop
      vertex -4.889950e+01 -4.090000e+01 -9.578000e+02
      vertex -2.599981e+01 -4.156556e+01 -9.498000e+02
      vertex -4.889950e+01 -4.290000e+01 -9.498000e+02
    endloop
  endfacet
  facet normal -2.502239e-02 -9.996203e-01 -1.153824e-02
    outer loop
      vertex -2.592292e+01 -4.148900e+01 -9.566000e+02
      vertex -2.599981e+01 -4.156556e+01 -9.498000e+02
      vertex -4.889950e+01 -4.090000e+01 -9.578000e+02
    endloop
  endfacet
  facet normal 7.799035e-02 -7.136691e-02 9.943964e-01
    outer loop
      vertex -7.440000e+01 1.072040e+01 -9.518000e+02
      vertex -7.438890e+01 3.859969e+01 -9.498000e+02
      vertex -9.990050e+01 1.072040e+01 -9.498000e+02
    endloop
  endfacet
  facet normal -1.108738e-03 -7.155347e-02 9.974361e-01
    outer loop
      vertex -7.440000e+01 1.072040e+01 -9.518000e+02
      vertex -4.889950e+01 3.820472e+01 -9.498000e+02
      vertex -7.438890e+01 3.859969e+01 -9.498000e+02
    endloop
  endfacet
  facet normal 7.818972e-02 -3.444486e-14 9.969385e-01
    outer loop
      vertex -7.440000e+01 1.072040e+01 -9.518000e+02
      vertex -9.990050e+01 1.072040e+01 -9.498000e+02
      vertex -9.990050e+01 -1.676393e+01 -9.498000e+02
    endloop
  endfacet
  facet normal -6.565307e-14 7.257685e-02 9.973628e-01
    outer loop
      vertex -7.440000e+01 1.072040e+01 -9.518000e+02
      vertex -9.990050e+01 -1.676393e+01 -9.498000e+02
      vertex -7.440000e+01 -1.676393e+01 -9.498000e+02
    endloop
  endfacet
  facet normal -7.798478e-02 7.235582e-02 9.943254e-01
    outer loop
      vertex -7.440000e+01 1.072040e+01 -9.518000e+02
      vertex -7.440000e+01 -1.676393e+01 -9.498000e+02
      vertex -4.889950e+01 1.072040e+01 -9.498000e+02
    endloop
  endfacet
  facet normal -7.818972e-02 -3.860897e-14 9.969385e-01
    outer loop
      vertex -7.440000e+01 1.072040e+01 -9.518000e+02
      vertex -4.889950e+01 1.072040e+01 -9.498000e+02
      vertex -4.889950e+01 3.820472e+01 -9.498000e+02
    endloop
  endfacet
  facet normal 6.341672e-14 4.625992e-14 -1.000000e+00
    outer loop
      vertex -4.889950e+01 6.568905e+01 -9.578000e+02
      vertex -2.640000e+01 -1.676393e+01 -9.578000e+02
      vertex -1.224000e+02 6.568905e+01 -9.578000e+02
    endloop
  endfacet
  facet normal 6.280847e-14 1.412409e-01 -9.899753e-01
    outer loop
      vertex -4.889950e+01 7.410000e+01 -9.566000e+02
      vertex -4.889950e+01 6.568905e+01 -9.578000e+02
      vertex -1.224000e+02 6.568905e+01 -9.578000e+02
    endloop
  endfacet
  facet normal -1.182653e-03 1.443406e-01 -9.895274e-01
    outer loop
      vertex -9.990050e+01 7.410000e+01 -9.566000e+02
      vertex -1.224000e+02 6.568905e+01 -9.578000e+02
      vertex -1.206941e+02 7.392963e+01 -9.566000e+02
    endloop
  endfacet
  facet normal 6.123841e-14 1.412409e-01 -9.899753e-01
    outer loop
      vertex -4.889950e+01 7.410000e+01 -9.566000e+02
      vertex -1.224000e+02 6.568905e+01 -9.578000e+02
      vertex -9.990050e+01 7.410000e+01 -9.566000e+02
    endloop
  endfacet
  facet normal 5.088459e-02 -4.743431e-02 -9.975774e-01
    outer loop
      vertex -2.592292e+01 -4.148900e+01 -9.566000e+02
      vertex -4.889950e+01 -4.090000e+01 -9.578000e+02
      vertex -2.640000e+01 -1.676393e+01 -9.578000e+02
    endloop
  endfacet
  facet normal 6.063433e-14 4.550067e-14 -1.000000e+00
    outer loop
      vertex -4.889950e+01 6.568905e+01 -9.578000e+02
      vertex -2.640000e+01 6.568905e+01 -9.578000e+02
      vertex -2.640000e+01 -1.676393e+01 -9.578000e+02
    endloop
  endfacet
  facet normal 6.018385e-14 1.441010e-01 -9.895630e-01
    outer loop
      vertex -2.810591e+01 7.392963e+01 -9.566000e+02
      vertex -2.640000e+01 6.568905e+01 -9.578000e+02
      vertex -4.889950e+01 6.568905e+01 -9.578000e+02
    endloop
  endfacet
  facet normal 1.157254e-03 1.412408e-01 -9.899746e-01
    outer loop
      vertex -2.810591e+01 7.392963e+01 -9.566000e+02
      vertex -4.889950e+01 6.568905e+01 -9.578000e+02
      vertex -4.889950e+01 7.410000e+01 -9.566000e+02
    endloop
  endfacet
endsolid SIM_ECUB_R_FOOT_REAR
