solid SIM_ECUB_L_FOOT_REAR
  facet normal -9.999845e-01 -1.875848e-03 5.237916e-03
    outer loop
      vertex 2.445642e+01 -3.864794e+01 -9.498000e+02
      vertex 2.440000e+01 -8.573701e+00 -9.498000e+02
      vertex 2.442022e+01 -3.834116e+01 -9.566000e+02
    endloop
  endfacet
  facet normal -9.999998e-01 -6.793224e-04 -3.087898e-15
    outer loop
      vertex 2.440000e+01 -8.573701e+00 -9.566000e+02
      vertex 2.442022e+01 -3.834116e+01 -9.566000e+02
      vertex 2.440000e+01 -8.573701e+00 -9.498000e+02
    endloop
  endfacet
  facet normal -8.464431e-01 -5.321220e-01 -1.950062e-02
    outer loop
      vertex 2.658295e+01 -4.203061e+01 -9.498000e+02
      vertex 2.445642e+01 -3.864794e+01 -9.498000e+02
      vertex 2.442022e+01 -3.834116e+01 -9.566000e+02
    endloop
  endfacet
  facet normal -5.144957e-01 -3.495086e-04 -8.574929e-01
    outer loop
      vertex 2.640000e+01 -8.573701e+00 -9.578000e+02
      vertex 2.442022e+01 -3.834116e+01 -9.566000e+02
      vertex 2.440000e+01 -8.573701e+00 -9.566000e+02
    endloop
  endfacet
  facet normal -5.359984e-01 -8.017118e-01 -2.645071e-01
    outer loop
      vertex 2.789329e+01 -4.026723e+01 -9.578000e+02
      vertex 2.658295e+01 -4.203061e+01 -9.498000e+02
      vertex 2.442022e+01 -3.834116e+01 -9.566000e+02
    endloop
  endfacet
  facet normal -3.343241e-01 -1.575224e-02 -9.423265e-01
    outer loop
      vertex 2.640000e+01 -8.573701e+00 -9.578000e+02
      vertex 2.789329e+01 -4.026723e+01 -9.578000e+02
      vertex 2.442022e+01 -3.834116e+01 -9.566000e+02
    endloop
  endfacet
  facet normal -1.106433e-27 -1.512083e-14 1.000000e+00
    outer loop
      vertex 2.619644e+01 -8.573701e+00 -9.498000e+02
      vertex 2.440000e+01 -8.573701e+00 -9.498000e+02
      vertex 2.445642e+01 -3.864794e+01 -9.498000e+02
    endloop
  endfacet
  facet normal -1.000000e+00 -3.602573e-15 -3.134747e-15
    outer loop
      vertex 2.440000e+01 5.947135e+01 -9.498000e+02
      vertex 2.440000e+01 -8.573701e+00 -9.566000e+02
      vertex 2.440000e+01 -8.573701e+00 -9.498000e+02
    endloop
  endfacet
  facet normal -1.004465e-27 -1.336607e-14 1.000000e+00
    outer loop
      vertex 2.619644e+01 2.544882e+01 -9.498000e+02
      vertex 2.440000e+01 5.947135e+01 -9.498000e+02
      vertex 2.440000e+01 -8.573701e+00 -9.498000e+02
    endloop
  endfacet
  facet normal -9.780321e-28 -1.336607e-14 1.000000e+00
    outer loop
      vertex 2.619644e+01 -8.573701e+00 -9.498000e+02
      vertex 2.619644e+01 2.544882e+01 -9.498000e+02
      vertex 2.440000e+01 -8.573701e+00 -9.498000e+02
    endloop
  endfacet
  facet normal -2.202552e-14 -1.384648e-14 1.000000e+00
    outer loop
      vertex 2.619644e+01 -8.573701e+00 -9.498000e+02
      vertex 2.445642e+01 -3.864794e+01 -9.498000e+02
      vertex 2.658295e+01 -4.203061e+01 -9.498000e+02
    endloop
  endfacet
  facet normal -5.144958e-01 9.339175e-15 -8.574929e-01
    outer loop
      vertex 2.440000e+01 5.947135e+01 -9.566000e+02
      vertex 2.640000e+01 -8.573701e+00 -9.578000e+02
      vertex 2.440000e+01 -8.573701e+00 -9.566000e+02
    endloop
  endfacet
  facet normal -1.000000e+00 -4.124685e-15 2.089832e-15
    outer loop
      vertex 2.440000e+01 5.947135e+01 -9.566000e+02
      vertex 2.440000e+01 -8.573701e+00 -9.566000e+02
      vertex 2.440000e+01 5.947135e+01 -9.498000e+02
    endloop
  endfacet
  facet normal -8.547964e-01 -4.594615e-01 -2.412846e-01
    outer loop
      vertex 2.895884e+01 -4.287978e+01 -9.566000e+02
      vertex 2.658295e+01 -4.203061e+01 -9.498000e+02
      vertex 2.789329e+01 -4.026723e+01 -9.578000e+02
    endloop
  endfacet
  facet normal -9.781840e-02 -1.130056e-03 9.952036e-01
    outer loop
      vertex 6.989669e+01 -4.425797e+00 -9.455000e+02
      vertex 2.619644e+01 -8.573701e+00 -9.498000e+02
      vertex 2.658295e+01 -4.203061e+01 -9.498000e+02
    endloop
  endfacet
  facet normal -3.306162e-01 -9.437624e-01 2.340125e-03
    outer loop
      vertex 2.902293e+01 -4.288537e+01 -9.498000e+02
      vertex 2.658295e+01 -4.203061e+01 -9.498000e+02
      vertex 2.895884e+01 -4.287978e+01 -9.566000e+02
    endloop
  endfacet
  facet normal 0.000000e+00 0.000000e+00 1.000000e+00
    outer loop
      vertex 6.226352e+01 -4.259623e+01 -9.498000e+02
      vertex 2.658295e+01 -4.203061e+01 -9.498000e+02
      vertex 2.902293e+01 -4.288537e+01 -9.498000e+02
    endloop
  endfacet
  facet normal -1.769043e-03 -1.115951e-01 9.937522e-01
    outer loop
      vertex 6.989669e+01 -4.425797e+00 -9.455000e+02
      vertex 2.658295e+01 -4.203061e+01 -9.498000e+02
      vertex 6.226352e+01 -4.259623e+01 -9.498000e+02
    endloop
  endfacet
  facet normal 3.358346e-15 1.450650e-14 -1.000000e+00
    outer loop
      vertex 9.833061e+01 -4.090000e+01 -9.578000e+02
      vertex 2.789329e+01 -4.026723e+01 -9.578000e+02
      vertex 2.640000e+01 -8.573701e+00 -9.578000e+02
    endloop
  endfacet
  facet normal -7.732091e-03 -4.199869e-01 -9.074972e-01
    outer loop
      vertex 6.226352e+01 -4.090000e+01 -9.578000e+02
      vertex 2.895884e+01 -4.287978e+01 -9.566000e+02
      vertex 2.789329e+01 -4.026723e+01 -9.578000e+02
    endloop
  endfacet
  facet normal 6.304188e-15 3.424270e-13 -1.000000e+00
    outer loop
      vertex 9.833061e+01 -4.090000e+01 -9.578000e+02
      vertex 6.226352e+01 -4.090000e+01 -9.578000e+02
      vertex 2.789329e+01 -4.026723e+01 -9.578000e+02
    endloop
  endfacet
  facet normal -5.144958e-01 9.500350e-15 -8.574929e-01
    outer loop
      vertex 2.640000e+01 5.947135e+01 -9.578000e+02
      vertex 2.640000e+01 -8.573701e+00 -9.578000e+02
      vertex 2.440000e+01 5.947135e+01 -9.566000e+02
    endloop
  endfacet
  facet normal 2.845823e-15 1.336607e-14 -1.000000e+00
    outer loop
      vertex 9.833061e+01 -4.090000e+01 -9.578000e+02
      vertex 2.640000e+01 -8.573701e+00 -9.578000e+02
      vertex 2.640000e+01 5.947135e+01 -9.578000e+02
    endloop
  endfacet
  facet normal -2.197619e-14 -1.753438e-14 1.000000e+00
    outer loop
      vertex 1.218993e+02 7.343028e+01 -9.498000e+02
      vertex 2.506972e+01 7.159928e+01 -9.498000e+02
      vertex 2.440000e+01 5.947135e+01 -9.498000e+02
    endloop
  endfacet
  facet normal -9.984788e-01 5.513759e-02 -1.485424e-15
    outer loop
      vertex 2.440000e+01 5.947135e+01 -9.566000e+02
      vertex 2.440000e+01 5.947135e+01 -9.498000e+02
      vertex 2.506972e+01 7.159928e+01 -9.498000e+02
    endloop
  endfacet
  facet normal -2.101780e-14 -2.422848e-14 1.000000e+00
    outer loop
      vertex 6.226352e+01 5.947135e+01 -9.498000e+02
      vertex 1.218993e+02 7.343028e+01 -9.498000e+02
      vertex 2.440000e+01 5.947135e+01 -9.498000e+02
    endloop
  endfacet
  facet normal -2.101780e-14 -1.447584e-14 1.000000e+00
    outer loop
      vertex 2.619644e+01 2.544882e+01 -9.498000e+02
      vertex 6.226352e+01 5.947135e+01 -9.498000e+02
      vertex 2.440000e+01 5.947135e+01 -9.498000e+02
    endloop
  endfacet
  facet normal -2.203904e-14 -1.421075e-14 1.000000e+00
    outer loop
      vertex 1.218993e+02 7.343028e+01 -9.498000e+02
      vertex 2.865206e+01 7.404359e+01 -9.498000e+02
      vertex 2.506972e+01 7.159928e+01 -9.498000e+02
    endloop
  endfacet
  facet normal -5.636214e-01 8.260332e-01 8.542696e-05
    outer loop
      vertex 2.506976e+01 7.160001e+01 -9.566000e+02
      vertex 2.506972e+01 7.159928e+01 -9.498000e+02
      vertex 2.865206e+01 7.404359e+01 -9.498000e+02
    endloop
  endfacet
  facet normal -9.984788e-01 5.513759e-02 -4.498780e-15
    outer loop
      vertex 2.506976e+01 7.160001e+01 -9.566000e+02
      vertex 2.440000e+01 5.947135e+01 -9.566000e+02
      vertex 2.506972e+01 7.159928e+01 -9.498000e+02
    endloop
  endfacet
  facet normal -2.206466e-14 1.054821e-12 1.000000e+00
    outer loop
      vertex 9.833061e+01 7.410000e+01 -9.498000e+02
      vertex 6.226352e+01 7.410000e+01 -9.498000e+02
      vertex 2.865206e+01 7.404359e+01 -9.498000e+02
    endloop
  endfacet
  facet normal -1.678345e-03 9.999977e-01 1.369601e-03
    outer loop
      vertex 2.875599e+01 7.405308e+01 -9.566000e+02
      vertex 2.865206e+01 7.404359e+01 -9.498000e+02
      vertex 6.226352e+01 7.410000e+01 -9.498000e+02
    endloop
  endfacet
  facet normal -2.129122e-14 9.948674e-14 1.000000e+00
    outer loop
      vertex 1.218993e+02 7.343028e+01 -9.498000e+02
      vertex 9.833061e+01 7.410000e+01 -9.498000e+02
      vertex 2.865206e+01 7.404359e+01 -9.498000e+02
    endloop
  endfacet
  facet normal -5.539946e-01 8.324882e-01 -7.305714e-03
    outer loop
      vertex 2.875599e+01 7.405308e+01 -9.566000e+02
      vertex 2.506976e+01 7.160001e+01 -9.566000e+02
      vertex 2.865206e+01 7.404359e+01 -9.498000e+02
    endloop
  endfacet
  facet normal -3.940117e-15 1.000000e+00 1.671865e-14
    outer loop
      vertex 6.226352e+01 7.410000e+01 -9.566000e+02
      vertex 6.226352e+01 7.410000e+01 -9.498000e+02
      vertex 9.833061e+01 7.410000e+01 -9.498000e+02
    endloop
  endfacet
  facet normal -1.400400e-03 9.999990e-01 1.672156e-14
    outer loop
      vertex 6.226352e+01 7.410000e+01 -9.566000e+02
      vertex 2.875599e+01 7.405308e+01 -9.566000e+02
      vertex 6.226352e+01 7.410000e+01 -9.498000e+02
    endloop
  endfacet
  facet normal 2.840438e-02 9.995965e-01 1.259329e-14
    outer loop
      vertex 9.833061e+01 7.410000e+01 -9.566000e+02
      vertex 9.833061e+01 7.410000e+01 -9.498000e+02
      vertex 1.218993e+02 7.343028e+01 -9.498000e+02
    endloop
  endfacet
  facet normal -3.152094e-15 1.000000e+00 1.253899e-14
    outer loop
      vertex 9.833061e+01 7.410000e+01 -9.566000e+02
      vertex 6.226352e+01 7.410000e+01 -9.566000e+02
      vertex 9.833061e+01 7.410000e+01 -9.498000e+02
    endloop
  endfacet
  facet normal -2.180466e-14 -2.019504e-14 1.000000e+00
    outer loop
      vertex 9.833061e+01 5.947135e+01 -9.498000e+02
      vertex 1.244000e+02 5.947135e+01 -9.498000e+02
      vertex 1.218993e+02 7.343028e+01 -9.498000e+02
    endloop
  endfacet
  facet normal 9.843291e-01 1.763413e-01 -1.516988e-14
    outer loop
      vertex 1.244000e+02 5.947135e+01 -9.566000e+02
      vertex 1.218993e+02 7.343028e+01 -9.498000e+02
      vertex 1.244000e+02 5.947135e+01 -9.498000e+02
    endloop
  endfacet
  facet normal -2.206466e-14 -1.975606e-14 1.000000e+00
    outer loop
      vertex 6.226352e+01 5.947135e+01 -9.498000e+02
      vertex 9.833061e+01 5.947135e+01 -9.498000e+02
      vertex 1.218993e+02 7.343028e+01 -9.498000e+02
    endloop
  endfacet
  facet normal 2.840997e-02 9.995964e-01 -1.940220e-05
    outer loop
      vertex 1.219000e+02 7.343012e+01 -9.566000e+02
      vertex 9.833061e+01 7.410000e+01 -9.566000e+02
      vertex 1.218993e+02 7.343028e+01 -9.498000e+02
    endloop
  endfacet
  facet normal 9.843376e-01 1.762937e-01 1.009618e-04
    outer loop
      vertex 1.219000e+02 7.343012e+01 -9.566000e+02
      vertex 1.218993e+02 7.343028e+01 -9.498000e+02
      vertex 1.244000e+02 5.947135e+01 -9.566000e+02
    endloop
  endfacet
  facet normal -2.087886e-14 1.169724e-01 9.931352e-01
    outer loop
      vertex 9.399439e+01 2.296288e+01 -9.455000e+02
      vertex 1.244000e+02 5.947135e+01 -9.498000e+02
      vertex 9.833061e+01 5.947135e+01 -9.498000e+02
    endloop
  endfacet
  facet normal 1.400279e-01 -7.562661e-14 9.901476e-01
    outer loop
      vertex 9.399439e+01 2.296288e+01 -9.455000e+02
      vertex 1.244000e+02 2.544882e+01 -9.498000e+02
      vertex 1.244000e+02 5.947135e+01 -9.498000e+02
    endloop
  endfacet
  facet normal 1.000000e+00 3.341517e-15 -4.179663e-15
    outer loop
      vertex 1.244000e+02 5.947135e+01 -9.566000e+02
      vertex 1.244000e+02 5.947135e+01 -9.498000e+02
      vertex 1.244000e+02 2.544882e+01 -9.498000e+02
    endloop
  endfacet
  facet normal -2.229589e-14 1.328185e-01 9.911404e-01
    outer loop
      vertex 6.019669e+01 2.738318e+01 -9.455000e+02
      vertex 9.833061e+01 5.947135e+01 -9.498000e+02
      vertex 6.226352e+01 5.947135e+01 -9.498000e+02
    endloop
  endfacet
  facet normal 1.506587e-02 1.151940e-01 9.932288e-01
    outer loop
      vertex 9.399439e+01 2.296288e+01 -9.455000e+02
      vertex 9.833061e+01 5.947135e+01 -9.498000e+02
      vertex 6.019669e+01 2.738318e+01 -9.455000e+02
    endloop
  endfacet
  facet normal -1.320704e-01 1.400071e-01 9.813029e-01
    outer loop
      vertex 6.019669e+01 2.738318e+01 -9.455000e+02
      vertex 6.226352e+01 5.947135e+01 -9.498000e+02
      vertex 2.619644e+01 2.544882e+01 -9.498000e+02
    endloop
  endfacet
  facet normal -1.254702e-01 -1.326034e-14 9.920974e-01
    outer loop
      vertex 6.019669e+01 2.738318e+01 -9.455000e+02
      vertex 2.619644e+01 2.544882e+01 -9.498000e+02
      vertex 2.619644e+01 -8.573701e+00 -9.498000e+02
    endloop
  endfacet
  facet normal -9.515528e-02 -2.901715e-02 9.950394e-01
    outer loop
      vertex 6.019669e+01 2.738318e+01 -9.455000e+02
      vertex 2.619644e+01 -8.573701e+00 -9.498000e+02
      vertex 6.989669e+01 -4.425797e+00 -9.455000e+02
    endloop
  endfacet
  facet normal -5.085246e-01 1.519114e-01 -8.475410e-01
    outer loop
      vertex 2.875599e+01 7.405308e+01 -9.566000e+02
      vertex 2.640000e+01 5.947135e+01 -9.578000e+02
      vertex 2.440000e+01 5.947135e+01 -9.566000e+02
    endloop
  endfacet
  facet normal -1.295135e-14 1.946201e-14 -1.000000e+00
    outer loop
      vertex 2.875599e+01 7.405308e+01 -9.566000e+02
      vertex 2.440000e+01 5.947135e+01 -9.566000e+02
      vertex 2.506976e+01 7.160001e+01 -9.566000e+02
    endloop
  endfacet
  facet normal -1.148833e-04 8.203595e-02 -9.966294e-01
    outer loop
      vertex 6.226352e+01 7.410000e+01 -9.566000e+02
      vertex 2.640000e+01 5.947135e+01 -9.578000e+02
      vertex 2.875599e+01 7.405308e+01 -9.566000e+02
    endloop
  endfacet
  facet normal 3.161014e-15 1.359195e-14 -1.000000e+00
    outer loop
      vertex 9.833061e+01 5.947135e+01 -9.578000e+02
      vertex 9.833061e+01 -4.090000e+01 -9.578000e+02
      vertex 2.640000e+01 5.947135e+01 -9.578000e+02
    endloop
  endfacet
  facet normal 3.142916e-15 8.175619e-02 -9.966524e-01
    outer loop
      vertex 9.833061e+01 7.410000e+01 -9.566000e+02
      vertex 9.833061e+01 5.947135e+01 -9.578000e+02
      vertex 2.640000e+01 5.947135e+01 -9.578000e+02
    endloop
  endfacet
  facet normal -2.577032e-16 8.175619e-02 -9.966524e-01
    outer loop
      vertex 9.833061e+01 7.410000e+01 -9.566000e+02
      vertex 2.640000e+01 5.947135e+01 -9.578000e+02
      vertex 6.226352e+01 7.410000e+01 -9.566000e+02
    endloop
  endfacet
  facet normal 8.698256e-03 -9.999618e-01 -9.043593e-04
    outer loop
      vertex 6.226352e+01 -4.259623e+01 -9.498000e+02
      vertex 2.902293e+01 -4.288537e+01 -9.498000e+02
      vertex 2.895884e+01 -4.287978e+01 -9.566000e+02
    endloop
  endfacet
  facet normal -6.065108e-04 -9.990035e-01 4.462809e-02
    outer loop
      vertex 6.226352e+01 -4.290000e+01 -9.566000e+02
      vertex 6.226352e+01 -4.259623e+01 -9.498000e+02
      vertex 2.895884e+01 -4.287978e+01 -9.566000e+02
    endloop
  endfacet
  facet normal -3.123585e-04 -5.144957e-01 -8.574929e-01
    outer loop
      vertex 6.226352e+01 -4.090000e+01 -9.578000e+02
      vertex 6.226352e+01 -4.290000e+01 -9.566000e+02
      vertex 2.895884e+01 -4.287978e+01 -9.566000e+02
    endloop
  endfacet
  facet normal 4.329811e-15 -9.990037e-01 4.462810e-02
    outer loop
      vertex 9.833061e+01 -4.290000e+01 -9.566000e+02
      vertex 6.226352e+01 -4.259623e+01 -9.498000e+02
      vertex 6.226352e+01 -4.290000e+01 -9.566000e+02
    endloop
  endfacet
  facet normal 1.286509e-01 -1.363821e-01 9.822672e-01
    outer loop
      vertex 9.833061e+01 -8.573701e+00 -9.498000e+02
      vertex 6.989669e+01 -4.425797e+00 -9.455000e+02
      vertex 6.226352e+01 -4.259623e+01 -9.498000e+02
    endloop
  endfacet
  facet normal 5.897052e-16 -9.990037e-01 4.462810e-02
    outer loop
      vertex 9.833061e+01 -4.290000e+01 -9.566000e+02
      vertex 9.833061e+01 -4.259623e+01 -9.498000e+02
      vertex 6.226352e+01 -4.259623e+01 -9.498000e+02
    endloop
  endfacet
  facet normal 0.000000e+00 0.000000e+00 1.000000e+00
    outer loop
      vertex 1.212273e+02 -4.255389e+01 -9.498000e+02
      vertex 6.226352e+01 -4.259623e+01 -9.498000e+02
      vertex 9.833061e+01 -4.259623e+01 -9.498000e+02
    endloop
  endfacet
  facet normal 5.100245e-29 -1.336607e-14 1.000000e+00
    outer loop
      vertex 1.244000e+02 -8.573701e+00 -9.498000e+02
      vertex 9.833061e+01 -8.573701e+00 -9.498000e+02
      vertex 6.226352e+01 -4.259623e+01 -9.498000e+02
    endloop
  endfacet
  facet normal 7.689295e-16 -1.477039e-14 1.000000e+00
    outer loop
      vertex 1.241778e+02 -3.937304e+01 -9.498000e+02
      vertex 1.244000e+02 -8.573701e+00 -9.498000e+02
      vertex 6.226352e+01 -4.259623e+01 -9.498000e+02
    endloop
  endfacet
  facet normal 0.000000e+00 0.000000e+00 1.000000e+00
    outer loop
      vertex 1.212273e+02 -4.255389e+01 -9.498000e+02
      vertex 1.241778e+02 -3.937304e+01 -9.498000e+02
      vertex 6.226352e+01 -4.259623e+01 -9.498000e+02
    endloop
  endfacet
  facet normal 7.534329e-15 -5.144958e-01 -8.574929e-01
    outer loop
      vertex 9.833061e+01 -4.090000e+01 -9.578000e+02
      vertex 6.226352e+01 -4.290000e+01 -9.566000e+02
      vertex 6.226352e+01 -4.090000e+01 -9.578000e+02
    endloop
  endfacet
  facet normal 2.229891e-15 -5.144958e-01 -8.574929e-01
    outer loop
      vertex 9.833061e+01 -4.290000e+01 -9.566000e+02
      vertex 6.226352e+01 -4.290000e+01 -9.566000e+02
      vertex 9.833061e+01 -4.090000e+01 -9.578000e+02
    endloop
  endfacet
  facet normal 4.598231e-02 1.357669e-14 -9.989423e-01
    outer loop
      vertex 1.244000e+02 -8.573701e+00 -9.566000e+02
      vertex 9.833061e+01 -4.090000e+01 -9.578000e+02
      vertex 9.833061e+01 5.947135e+01 -9.578000e+02
    endloop
  endfacet
  facet normal 7.022694e-02 -5.132255e-01 -8.553758e-01
    outer loop
      vertex 1.241761e+02 -3.936345e+01 -9.566000e+02
      vertex 9.833061e+01 -4.290000e+01 -9.566000e+02
      vertex 9.833061e+01 -4.090000e+01 -9.578000e+02
    endloop
  endfacet
  facet normal 4.639988e-02 -3.374657e-04 -9.989229e-01
    outer loop
      vertex 1.244000e+02 -8.573701e+00 -9.566000e+02
      vertex 1.241761e+02 -3.936345e+01 -9.566000e+02
      vertex 9.833061e+01 -4.090000e+01 -9.578000e+02
    endloop
  endfacet
  facet normal 2.323623e-03 8.175597e-02 -9.966497e-01
    outer loop
      vertex 1.219000e+02 7.343012e+01 -9.566000e+02
      vertex 9.833061e+01 5.947135e+01 -9.578000e+02
      vertex 9.833061e+01 7.410000e+01 -9.566000e+02
    endloop
  endfacet
  facet normal 4.598231e-02 1.354399e-14 -9.989423e-01
    outer loop
      vertex 1.244000e+02 5.947135e+01 -9.566000e+02
      vertex 1.244000e+02 -8.573701e+00 -9.566000e+02
      vertex 9.833061e+01 5.947135e+01 -9.578000e+02
    endloop
  endfacet
  facet normal 4.598075e-02 8.235097e-03 -9.989084e-01
    outer loop
      vertex 1.219000e+02 7.343012e+01 -9.566000e+02
      vertex 1.244000e+02 5.947135e+01 -9.566000e+02
      vertex 9.833061e+01 5.947135e+01 -9.578000e+02
    endloop
  endfacet
  facet normal 1.556048e-15 -1.382169e-14 1.000000e+00
    outer loop
      vertex 9.399439e+01 2.296288e+01 -9.455000e+02
      vertex 6.019669e+01 2.738318e+01 -9.455000e+02
      vertex 6.989669e+01 -4.425797e+00 -9.455000e+02
    endloop
  endfacet
  facet normal 1.319397e-01 -1.160861e-01 9.844369e-01
    outer loop
      vertex 9.399439e+01 2.296288e+01 -9.455000e+02
      vertex 6.989669e+01 -4.425797e+00 -9.455000e+02
      vertex 9.833061e+01 -8.573701e+00 -9.498000e+02
    endloop
  endfacet
  facet normal 1.846978e-03 -9.990020e-01 4.462802e-02
    outer loop
      vertex 1.212273e+02 -4.255389e+01 -9.498000e+02
      vertex 9.833061e+01 -4.259623e+01 -9.498000e+02
      vertex 9.833061e+01 -4.290000e+01 -9.566000e+02
    endloop
  endfacet
  facet normal 1.323755e-02 -9.998924e-01 6.319492e-03
    outer loop
      vertex 1.211089e+02 -4.259844e+01 -9.566000e+02
      vertex 1.212273e+02 -4.255389e+01 -9.498000e+02
      vertex 9.833061e+01 -4.290000e+01 -9.566000e+02
    endloop
  endfacet
  facet normal 0.000000e+00 0.000000e+00 -1.000000e+00
    outer loop
      vertex 1.241761e+02 -3.936345e+01 -9.566000e+02
      vertex 1.211089e+02 -4.259844e+01 -9.566000e+02
      vertex 9.833061e+01 -4.290000e+01 -9.566000e+02
    endloop
  endfacet
  facet normal 5.100245e-29 -1.336607e-14 1.000000e+00
    outer loop
      vertex 1.244000e+02 -8.573701e+00 -9.498000e+02
      vertex 1.244000e+02 2.544882e+01 -9.498000e+02
      vertex 9.833061e+01 -8.573701e+00 -9.498000e+02
    endloop
  endfacet
  facet normal 1.482194e-01 -1.135715e-01 9.824116e-01
    outer loop
      vertex 9.399439e+01 2.296288e+01 -9.455000e+02
      vertex 9.833061e+01 -8.573701e+00 -9.498000e+02
      vertex 1.244000e+02 2.544882e+01 -9.498000e+02
    endloop
  endfacet
  facet normal 1.000000e+00 3.759206e-15 -2.089832e-15
    outer loop
      vertex 1.244000e+02 5.947135e+01 -9.566000e+02
      vertex 1.244000e+02 2.544882e+01 -9.498000e+02
      vertex 1.244000e+02 -8.573701e+00 -9.498000e+02
    endloop
  endfacet
  facet normal 9.999740e-01 -7.212718e-03 -2.720304e-04
    outer loop
      vertex 1.241761e+02 -3.936345e+01 -9.566000e+02
      vertex 1.244000e+02 -8.573701e+00 -9.498000e+02
      vertex 1.241778e+02 -3.937304e+01 -9.498000e+02
    endloop
  endfacet
  facet normal 9.999736e-01 -7.272794e-03 2.576142e-15
    outer loop
      vertex 1.244000e+02 -8.573701e+00 -9.566000e+02
      vertex 1.244000e+02 -8.573701e+00 -9.498000e+02
      vertex 1.241761e+02 -3.936345e+01 -9.566000e+02
    endloop
  endfacet
  facet normal 1.000000e+00 4.176896e-15 2.089832e-15
    outer loop
      vertex 1.244000e+02 5.947135e+01 -9.566000e+02
      vertex 1.244000e+02 -8.573701e+00 -9.498000e+02
      vertex 1.244000e+02 -8.573701e+00 -9.566000e+02
    endloop
  endfacet
  facet normal 7.331216e-01 -6.800468e-01 -8.306572e-03
    outer loop
      vertex 1.211089e+02 -4.259844e+01 -9.566000e+02
      vertex 1.241778e+02 -3.937304e+01 -9.498000e+02
      vertex 1.212273e+02 -4.255389e+01 -9.498000e+02
    endloop
  endfacet
  facet normal 7.256792e-01 -6.880322e-01 -1.160090e-03
    outer loop
      vertex 1.241761e+02 -3.936345e+01 -9.566000e+02
      vertex 1.241778e+02 -3.937304e+01 -9.498000e+02
      vertex 1.211089e+02 -4.259844e+01 -9.566000e+02
    endloop
  endfacet
endsolid SIM_ECUB_L_FOOT_REAR
