solid SIM_ECUB_R_UPPER_LEG
  facet normal -9.980710e-01 1.312870e-02 6.067819e-02
    outer loop
      vertex -1.179000e+02 -5.859022e+01 -5.304566e+02
      vertex -1.179000e+02 -5.317009e+01 -5.316294e+02
      vertex -1.187000e+02 -5.532590e+01 -5.443218e+02
    endloop
  endfacet
  facet normal -9.868420e-01 1.577636e-01 3.540414e-02
    outer loop
      vertex -1.179000e+02 -4.769604e+01 -5.560222e+02
      vertex -1.187000e+02 -5.532590e+01 -5.443218e+02
      vertex -1.179000e+02 -5.317009e+01 -5.316294e+02
    endloop
  endfacet
  facet normal -4.563732e-01 -8.716231e-01 -1.788764e-01
    outer loop
      vertex -1.082397e+02 -6.358389e+01 -5.307702e+02
      vertex -1.179000e+02 -5.859022e+01 -5.304566e+02
      vertex -1.187000e+02 -5.532590e+01 -5.443218e+02
    endloop
  endfacet
  facet normal -4.552403e-01 -7.312443e-01 -5.079744e-01
    outer loop
      vertex -1.082397e+02 -5.131123e+01 -5.594754e+02
      vertex -1.187000e+02 -5.532590e+01 -5.443218e+02
      vertex -1.179000e+02 -4.769604e+01 -5.560222e+02
    endloop
  endfacet
  facet normal -4.083114e-01 -8.849140e-01 -2.240735e-01
    outer loop
      vertex -1.082397e+02 -5.902110e+01 -5.487896e+02
      vertex -1.082397e+02 -6.358389e+01 -5.307702e+02
      vertex -1.187000e+02 -5.532590e+01 -5.443218e+02
    endloop
  endfacet
  facet normal -4.726842e-01 -7.146394e-01 -5.156164e-01
    outer loop
      vertex -1.082397e+02 -5.131123e+01 -5.594754e+02
      vertex -1.082397e+02 -5.902110e+01 -5.487896e+02
      vertex -1.187000e+02 -5.532590e+01 -5.443218e+02
    endloop
  endfacet
  facet normal -1.000000e+00 -5.022882e-15 -5.956799e-14
    outer loop
      vertex -1.179000e+02 -5.672149e+01 -5.093819e+02
      vertex -1.179000e+02 -5.317009e+01 -5.316294e+02
      vertex -1.179000e+02 -5.859022e+01 -5.304566e+02
    endloop
  endfacet
  facet normal -1.000000e+00 -3.375324e-15 -6.076362e-14
    outer loop
      vertex -1.179000e+02 -2.369855e+01 -5.316294e+02
      vertex -1.179000e+02 -4.769604e+01 -5.560222e+02
      vertex -1.179000e+02 -5.317009e+01 -5.316294e+02
    endloop
  endfacet
  facet normal -1.000000e+00 -3.903867e-15 -5.938936e-14
    outer loop
      vertex -1.179000e+02 -5.672149e+01 -5.093819e+02
      vertex -1.179000e+02 -5.212523e+01 -5.027448e+02
      vertex -1.179000e+02 -5.317009e+01 -5.316294e+02
    endloop
  endfacet
  facet normal -9.970543e-01 -7.664905e-02 2.772689e-03
    outer loop
      vertex -1.202420e+02 -2.148204e+01 -4.977966e+02
      vertex -1.179000e+02 -5.317009e+01 -5.316294e+02
      vertex -1.179000e+02 -5.212523e+01 -5.027448e+02
    endloop
  endfacet
  facet normal -9.976128e-01 -2.573481e-15 -6.905618e-02
    outer loop
      vertex -1.202420e+02 -2.148204e+01 -4.977966e+02
      vertex -1.179000e+02 -2.369855e+01 -5.316294e+02
      vertex -1.179000e+02 -5.317009e+01 -5.316294e+02
    endloop
  endfacet
  facet normal -4.476740e-01 -8.769866e-01 1.745922e-01
    outer loop
      vertex -1.083680e+02 -5.977947e+01 -5.119892e+02
      vertex -1.179000e+02 -5.859022e+01 -5.304566e+02
      vertex -1.082397e+02 -6.358389e+01 -5.307702e+02
    endloop
  endfacet
  facet normal -2.832963e-01 -9.552843e-01 8.470629e-02
    outer loop
      vertex -1.083680e+02 -5.977947e+01 -5.119892e+02
      vertex -1.179000e+02 -5.672149e+01 -5.093819e+02
      vertex -1.179000e+02 -5.859022e+01 -5.304566e+02
    endloop
  endfacet
  facet normal -4.524553e-01 -5.106924e-01 -7.310797e-01
    outer loop
      vertex -1.187000e+02 -3.576257e+01 -5.638631e+02
      vertex -1.082397e+02 -5.131123e+01 -5.594754e+02
      vertex -1.179000e+02 -4.769604e+01 -5.560222e+02
    endloop
  endfacet
  facet normal -9.877952e-01 3.369793e-02 1.520692e-01
    outer loop
      vertex -1.179000e+02 -2.369855e+01 -5.613399e+02
      vertex -1.187000e+02 -3.576257e+01 -5.638631e+02
      vertex -1.179000e+02 -4.769604e+01 -5.560222e+02
    endloop
  endfacet
  facet normal -1.000000e+00 -3.880046e-15 -6.026708e-14
    outer loop
      vertex -1.179000e+02 -2.369855e+01 -5.316294e+02
      vertex -1.179000e+02 -2.369855e+01 -5.613399e+02
      vertex -1.179000e+02 -4.769604e+01 -5.560222e+02
    endloop
  endfacet
  facet normal -1.834071e-03 -9.694031e-01 -2.454674e-01
    outer loop
      vertex -7.986221e+01 -6.356648e+01 -5.310509e+02
      vertex -1.082397e+02 -6.358389e+01 -5.307702e+02
      vertex -1.082397e+02 -5.902110e+01 -5.487896e+02
    endloop
  endfacet
  facet normal -1.563598e-03 -9.800947e-01 1.985246e-01
    outer loop
      vertex -7.985953e+01 -5.986950e+01 -5.122091e+02
      vertex -1.083680e+02 -5.977947e+01 -5.119892e+02
      vertex -1.082397e+02 -6.358389e+01 -5.307702e+02
    endloop
  endfacet
  facet normal 2.506681e-03 -9.812860e-01 1.925395e-01
    outer loop
      vertex -7.985953e+01 -5.986950e+01 -5.122091e+02
      vertex -1.082397e+02 -6.358389e+01 -5.307702e+02
      vertex -7.986221e+01 -6.356648e+01 -5.310509e+02
    endloop
  endfacet
  facet normal -1.676168e-05 -8.109549e-01 -5.851086e-01
    outer loop
      vertex -7.986875e+01 -5.127528e+01 -5.595260e+02
      vertex -1.082397e+02 -5.902110e+01 -5.487896e+02
      vertex -1.082397e+02 -5.131123e+01 -5.594754e+02
    endloop
  endfacet
  facet normal 6.918745e-04 -9.684362e-01 -2.492605e-01
    outer loop
      vertex -7.985581e+01 -5.898376e+01 -5.488559e+02
      vertex -7.986221e+01 -6.356648e+01 -5.310509e+02
      vertex -1.082397e+02 -5.902110e+01 -5.487896e+02
    endloop
  endfacet
  facet normal -3.010568e-04 -8.105983e-01 -5.856025e-01
    outer loop
      vertex -7.986875e+01 -5.127528e+01 -5.595260e+02
      vertex -7.985581e+01 -5.898376e+01 -5.488559e+02
      vertex -1.082397e+02 -5.902110e+01 -5.487896e+02
    endloop
  endfacet
  facet normal -4.763477e-01 -5.204453e-01 -7.086816e-01
    outer loop
      vertex -1.082397e+02 -4.054713e+01 -5.673804e+02
      vertex -1.082397e+02 -5.131123e+01 -5.594754e+02
      vertex -1.187000e+02 -3.576257e+01 -5.638631e+02
    endloop
  endfacet
  facet normal -6.885538e-04 -5.919147e-01 -8.060003e-01
    outer loop
      vertex -7.986875e+01 -5.127528e+01 -5.595260e+02
      vertex -1.082397e+02 -5.131123e+01 -5.594754e+02
      vertex -1.082397e+02 -4.054713e+01 -5.673804e+02
    endloop
  endfacet
  facet normal -1.000000e+00 -3.606247e-15 -5.959547e-14
    outer loop
      vertex -1.179000e+02 -5.672149e+01 -5.093819e+02
      vertex -1.179000e+02 -4.870870e+01 -4.700447e+02
      vertex -1.179000e+02 -5.212523e+01 -5.027448e+02
    endloop
  endfacet
  facet normal -9.961238e-01 -8.748600e-02 9.140599e-03
    outer loop
      vertex -1.202948e+02 -2.148699e+01 -4.704871e+02
      vertex -1.179000e+02 -5.212523e+01 -5.027448e+02
      vertex -1.179000e+02 -4.870870e+01 -4.700447e+02
    endloop
  endfacet
  facet normal -9.971142e-01 -7.589182e-02 -1.945018e-03
    outer loop
      vertex -1.202948e+02 -2.148699e+01 -4.704871e+02
      vertex -1.202420e+02 -2.148204e+01 -4.977966e+02
      vertex -1.179000e+02 -5.212523e+01 -5.027448e+02
    endloop
  endfacet
  facet normal -9.984551e-01 5.444582e-02 -1.109036e-02
    outer loop
      vertex -1.187000e+02 -6.024429e+01 -4.546531e+02
      vertex -1.179000e+02 -4.870870e+01 -4.700447e+02
      vertex -1.179000e+02 -5.672149e+01 -5.093819e+02
    endloop
  endfacet
  facet normal -9.960081e-01 8.811470e-02 1.427067e-02
    outer loop
      vertex -1.179000e+02 -5.317009e+01 -4.424977e+02
      vertex -1.179000e+02 -4.870870e+01 -4.700447e+02
      vertex -1.187000e+02 -6.024429e+01 -4.546531e+02
    endloop
  endfacet
  facet normal -1.000000e+00 -2.893135e-15 -6.134199e-14
    outer loop
      vertex -1.179000e+02 -2.369855e+01 -4.424977e+02
      vertex -1.179000e+02 -4.870870e+01 -4.700447e+02
      vertex -1.179000e+02 -5.317009e+01 -4.424977e+02
    endloop
  endfacet
  facet normal -9.932137e-01 -8.610815e-02 7.817827e-02
    outer loop
      vertex -1.202948e+02 -2.148699e+01 -4.704871e+02
      vertex -1.179000e+02 -4.870870e+01 -4.700447e+02
      vertex -1.179000e+02 -2.369855e+01 -4.424977e+02
    endloop
  endfacet
  facet normal -2.986596e-01 -9.539775e-01 2.700566e-02
    outer loop
      vertex -1.090656e+02 -5.804939e+01 -4.585887e+02
      vertex -1.179000e+02 -5.672149e+01 -5.093819e+02
      vertex -1.083680e+02 -5.977947e+01 -5.119892e+02
    endloop
  endfacet
  facet normal 1.983344e-01 -9.782918e-01 -6.007187e-02
    outer loop
      vertex -1.090656e+02 -5.804939e+01 -4.585887e+02
      vertex -1.187000e+02 -6.024429e+01 -4.546531e+02
      vertex -1.179000e+02 -5.672149e+01 -5.093819e+02
    endloop
  endfacet
  facet normal -2.937030e-03 -9.994725e-01 3.234273e-02
    outer loop
      vertex -7.987104e+01 -5.813076e+01 -4.584521e+02
      vertex -1.090656e+02 -5.804939e+01 -4.585887e+02
      vertex -1.083680e+02 -5.977947e+01 -5.119892e+02
    endloop
  endfacet
  facet normal -2.907070e-03 -9.994731e-01 3.232680e-02
    outer loop
      vertex -7.987104e+01 -5.813076e+01 -4.584521e+02
      vertex -1.083680e+02 -5.977947e+01 -5.119892e+02
      vertex -7.985953e+01 -5.986950e+01 -5.122091e+02
    endloop
  endfacet
  facet normal 9.710783e-02 -9.512345e-01 -2.927850e-01
    outer loop
      vertex -1.090671e+02 -6.344831e+01 -4.410486e+02
      vertex -1.187000e+02 -6.024429e+01 -4.546531e+02
      vertex -1.090656e+02 -5.804939e+01 -4.585887e+02
    endloop
  endfacet
  facet normal -9.981858e-01 1.124892e-02 5.914856e-02
    outer loop
      vertex -1.179000e+02 -6.196456e+01 -4.408252e+02
      vertex -1.179000e+02 -5.317009e+01 -4.424977e+02
      vertex -1.187000e+02 -6.024429e+01 -4.546531e+02
    endloop
  endfacet
  facet normal -1.673720e-01 -9.794918e-01 -1.121712e-01
    outer loop
      vertex -1.090671e+02 -6.344831e+01 -4.410486e+02
      vertex -1.179000e+02 -6.196456e+01 -4.408252e+02
      vertex -1.187000e+02 -6.024429e+01 -4.546531e+02
    endloop
  endfacet
  facet normal 1.106906e-03 -9.557485e-01 -2.941830e-01
    outer loop
      vertex -7.986254e+01 -6.347516e+01 -4.408515e+02
      vertex -1.090671e+02 -6.344831e+01 -4.410486e+02
      vertex -1.090656e+02 -5.804939e+01 -4.585887e+02
    endloop
  endfacet
  facet normal -1.306842e-03 -9.568593e-01 -2.905487e-01
    outer loop
      vertex -7.986254e+01 -6.347516e+01 -4.408515e+02
      vertex -1.090656e+02 -5.804939e+01 -4.585887e+02
      vertex -7.987104e+01 -5.813076e+01 -4.584521e+02
    endloop
  endfacet
  facet normal -1.000000e+00 -3.291254e-15 -5.978877e-14
    outer loop
      vertex -1.179000e+02 -5.317009e+01 -4.127872e+02
      vertex -1.179000e+02 -5.317009e+01 -4.424977e+02
      vertex -1.179000e+02 -6.196456e+01 -4.408252e+02
    endloop
  endfacet
  facet normal -1.000000e+00 -3.134229e-15 -5.978877e-14
    outer loop
      vertex -1.179000e+02 5.772984e+00 -4.127872e+02
      vertex -1.179000e+02 -5.317009e+01 -4.424977e+02
      vertex -1.179000e+02 -5.317009e+01 -4.127872e+02
    endloop
  endfacet
  facet normal -1.000000e+00 -2.893135e-15 -6.026708e-14
    outer loop
      vertex -1.179000e+02 5.772984e+00 -4.127872e+02
      vertex -1.179000e+02 -2.369855e+01 -4.424977e+02
      vertex -1.179000e+02 -5.317009e+01 -4.424977e+02
    endloop
  endfacet
  facet normal -1.603509e-01 -9.763824e-01 1.447931e-01
    outer loop
      vertex -1.090768e+02 -6.061508e+01 -4.219539e+02
      vertex -1.179000e+02 -6.196456e+01 -4.408252e+02
      vertex -1.090671e+02 -6.344831e+01 -4.410486e+02
    endloop
  endfacet
  facet normal -9.589398e-01 2.706101e-01 -8.488027e-02
    outer loop
      vertex -1.191693e+02 -6.037382e+01 -4.214133e+02
      vertex -1.179000e+02 -5.317009e+01 -4.127872e+02
      vertex -1.179000e+02 -6.196456e+01 -4.408252e+02
    endloop
  endfacet
  facet normal -1.951655e-02 -9.965724e-01 8.039000e-02
    outer loop
      vertex -1.090768e+02 -6.061508e+01 -4.219539e+02
      vertex -1.191693e+02 -6.037382e+01 -4.214133e+02
      vertex -1.179000e+02 -6.196456e+01 -4.408252e+02
    endloop
  endfacet
  facet normal 1.263957e-03 -9.891695e-01 1.467720e-01
    outer loop
      vertex -7.986868e+01 -6.055551e+01 -4.218041e+02
      vertex -1.090768e+02 -6.061508e+01 -4.219539e+02
      vertex -1.090671e+02 -6.344831e+01 -4.410486e+02
    endloop
  endfacet
  facet normal -1.931552e-03 -9.884534e-01 1.515127e-01
    outer loop
      vertex -7.986868e+01 -6.055551e+01 -4.218041e+02
      vertex -1.090671e+02 -6.344831e+01 -4.410486e+02
      vertex -7.986254e+01 -6.347516e+01 -4.408515e+02
    endloop
  endfacet
  facet normal -9.396982e-01 3.175770e-01 -1.269340e-01
    outer loop
      vertex -1.169000e+02 -3.834530e+01 -3.831000e+02
      vertex -1.179000e+02 -5.317009e+01 -4.127872e+02
      vertex -1.191693e+02 -6.037382e+01 -4.214133e+02
    endloop
  endfacet
  facet normal -9.994332e-01 -3.003128e-15 3.366548e-02
    outer loop
      vertex -1.169000e+02 5.772984e+00 -3.831000e+02
      vertex -1.179000e+02 5.772984e+00 -4.127872e+02
      vertex -1.179000e+02 -5.317009e+01 -4.127872e+02
    endloop
  endfacet
  facet normal -9.994332e-01 -6.285646e-15 3.366548e-02
    outer loop
      vertex -1.169000e+02 -2.369855e+01 -3.831000e+02
      vertex -1.179000e+02 -5.317009e+01 -4.127872e+02
      vertex -1.169000e+02 -3.834530e+01 -3.831000e+02
    endloop
  endfacet
  facet normal -9.994332e-01 -5.218909e-15 3.366548e-02
    outer loop
      vertex -1.169000e+02 -2.369855e+01 -3.831000e+02
      vertex -1.169000e+02 5.772984e+00 -3.831000e+02
      vertex -1.179000e+02 -5.317009e+01 -4.127872e+02
    endloop
  endfacet
  facet normal 7.773864e-03 -8.511143e-01 5.249229e-01
    outer loop
      vertex -1.090460e+02 -5.284824e+01 -4.093612e+02
      vertex -1.191693e+02 -6.037382e+01 -4.214133e+02
      vertex -1.090768e+02 -6.061508e+01 -4.219539e+02
    endloop
  endfacet
  facet normal 9.603142e-01 -2.625723e-01 9.408756e-02
    outer loop
      vertex -1.179000e+02 -5.178956e+01 -4.104126e+02
      vertex -1.169000e+02 -3.834530e+01 -3.831000e+02
      vertex -1.191693e+02 -6.037382e+01 -4.214133e+02
    endloop
  endfacet
  facet normal -1.653022e-01 -7.681863e-01 6.185184e-01
    outer loop
      vertex -1.090460e+02 -5.284824e+01 -4.093612e+02
      vertex -1.179000e+02 -5.178956e+01 -4.104126e+02
      vertex -1.191693e+02 -6.037382e+01 -4.214133e+02
    endloop
  endfacet
  facet normal -1.000000e+00 -2.893135e-15 -6.026708e-14
    outer loop
      vertex -1.179000e+02 5.772984e+00 -4.127872e+02
      vertex -1.179000e+02 5.772984e+00 -4.424977e+02
      vertex -1.179000e+02 -2.369855e+01 -4.424977e+02
    endloop
  endfacet
  facet normal -9.963595e-01 -2.883699e-15 8.525121e-02
    outer loop
      vertex -1.202948e+02 -2.148699e+01 -4.704871e+02
      vertex -1.179000e+02 -2.369855e+01 -4.424977e+02
      vertex -1.179000e+02 5.772984e+00 -4.424977e+02
    endloop
  endfacet
  facet normal -9.926277e-01 -1.212035e-01 -5.982183e-14
    outer loop
      vertex -1.193895e+02 1.797159e+01 -4.214899e+02
      vertex -1.179000e+02 5.772984e+00 -4.424977e+02
      vertex -1.179000e+02 5.772984e+00 -4.127872e+02
    endloop
  endfacet
  facet normal -9.980392e-01 3.319794e-02 5.306211e-02
    outer loop
      vertex -1.193995e+02 4.302302e+00 -4.697820e+02
      vertex -1.202948e+02 -2.148699e+01 -4.704871e+02
      vertex -1.179000e+02 5.772984e+00 -4.424977e+02
    endloop
  endfacet
  facet normal -9.984647e-01 -5.148157e-03 5.515243e-02
    outer loop
      vertex -1.179000e+02 1.973663e+01 -4.411943e+02
      vertex -1.193995e+02 4.302302e+00 -4.697820e+02
      vertex -1.179000e+02 5.772984e+00 -4.424977e+02
    endloop
  endfacet
  facet normal -9.971776e-01 6.977812e-03 -7.475362e-02
    outer loop
      vertex -1.193895e+02 1.797159e+01 -4.214899e+02
      vertex -1.179000e+02 1.973663e+01 -4.411943e+02
      vertex -1.179000e+02 5.772984e+00 -4.424977e+02
    endloop
  endfacet
  facet normal -9.994332e-01 -5.170213e-15 3.366548e-02
    outer loop
      vertex -1.169000e+02 5.772984e+00 -3.831000e+02
      vertex -1.169000e+02 1.734530e+01 -3.831000e+02
      vertex -1.179000e+02 5.772984e+00 -4.127872e+02
    endloop
  endfacet
  facet normal -9.950705e-01 -7.635493e-02 6.328232e-02
    outer loop
      vertex -1.193895e+02 1.797159e+01 -4.214899e+02
      vertex -1.179000e+02 5.772984e+00 -4.127872e+02
      vertex -1.169000e+02 1.734530e+01 -3.831000e+02
    endloop
  endfacet
  facet normal -1.430502e-03 -8.511291e-01 5.249545e-01
    outer loop
      vertex -7.986451e+01 -5.298196e+01 -4.094985e+02
      vertex -1.090460e+02 -5.284824e+01 -4.093612e+02
      vertex -1.090768e+02 -6.061508e+01 -4.219539e+02
    endloop
  endfacet
  facet normal -9.532073e-04 -8.516302e-01 5.241422e-01
    outer loop
      vertex -7.986451e+01 -5.298196e+01 -4.094985e+02
      vertex -1.090768e+02 -6.061508e+01 -4.219539e+02
      vertex -7.986868e+01 -6.055551e+01 -4.218041e+02
    endloop
  endfacet
  facet normal -1.322886e-01 -8.873831e-01 4.416458e-01
    outer loop
      vertex -1.090764e+02 -3.950000e+01 -3.830766e+02
      vertex -1.169000e+02 -3.834530e+01 -3.831000e+02
      vertex -1.179000e+02 -5.178956e+01 -4.104126e+02
    endloop
  endfacet
  facet normal -1.458178e-01 -9.864674e-01 7.496204e-02
    outer loop
      vertex -1.003490e+02 -3.950000e+01 -3.661000e+02
      vertex -1.169000e+02 -3.834530e+01 -3.831000e+02
      vertex -1.090764e+02 -3.950000e+01 -3.830766e+02
    endloop
  endfacet
  facet normal -9.775327e-01 -1.376396e-14 2.107837e-01
    outer loop
      vertex -1.133637e+02 -1.862616e+01 -3.667000e+02
      vertex -1.169000e+02 -2.369855e+01 -3.831000e+02
      vertex -1.169000e+02 -3.834530e+01 -3.831000e+02
    endloop
  endfacet
  facet normal -8.905462e-01 -1.856711e-01 4.152754e-01
    outer loop
      vertex -1.151139e+02 -3.834530e+01 -3.792697e+02
      vertex -1.133637e+02 -1.862616e+01 -3.667000e+02
      vertex -1.169000e+02 -3.834530e+01 -3.831000e+02
    endloop
  endfacet
  facet normal -1.324618e-01 -9.892616e-01 6.176896e-02
    outer loop
      vertex -1.003490e+02 -3.950000e+01 -3.661000e+02
      vertex -1.151139e+02 -3.834530e+01 -3.792697e+02
      vertex -1.169000e+02 -3.834530e+01 -3.831000e+02
    endloop
  endfacet
  facet normal -1.583486e-01 -8.804396e-01 4.469360e-01
    outer loop
      vertex -1.090764e+02 -3.950000e+01 -3.830766e+02
      vertex -1.179000e+02 -5.178956e+01 -4.104126e+02
      vertex -1.090460e+02 -5.284824e+01 -4.093612e+02
    endloop
  endfacet
  facet normal 6.561498e-15 -8.916151e-01 4.527942e-01
    outer loop
      vertex -7.986845e+01 -3.950000e+01 -3.830766e+02
      vertex -1.090764e+02 -3.950000e+01 -3.830766e+02
      vertex -1.090460e+02 -5.284824e+01 -4.093612e+02
    endloop
  endfacet
  facet normal -1.943432e-03 -8.907408e-01 4.545075e-01
    outer loop
      vertex -7.986845e+01 -3.950000e+01 -3.830766e+02
      vertex -1.090460e+02 -5.284824e+01 -4.093612e+02
      vertex -7.986451e+01 -5.298196e+01 -4.094985e+02
    endloop
  endfacet
  facet normal 2.094545e-01 -9.718717e-01 -1.076764e-01
    outer loop
      vertex -7.521496e+01 -3.496732e+01 -3.581200e+02
      vertex -1.003490e+02 -3.950000e+01 -3.661000e+02
      vertex -1.090764e+02 -3.950000e+01 -3.830766e+02
    endloop
  endfacet
  facet normal 4.737868e-15 -9.839038e-01 1.786987e-01
    outer loop
      vertex -7.521496e+01 -3.496732e+01 -3.581200e+02
      vertex -1.090764e+02 -3.950000e+01 -3.830766e+02
      vertex -7.986845e+01 -3.950000e+01 -3.830766e+02
    endloop
  endfacet
  facet normal -9.978835e-01 6.458078e-02 7.610627e-03
    outer loop
      vertex -1.179000e+02 -2.302562e+01 -5.670502e+02
      vertex -1.187000e+02 -3.576257e+01 -5.638631e+02
      vertex -1.179000e+02 -2.369855e+01 -5.613399e+02
    endloop
  endfacet
  facet normal -4.476777e-01 -1.904923e-01 -8.736689e-01
    outer loop
      vertex -1.082397e+02 -2.276726e+01 -5.720565e+02
      vertex -1.187000e+02 -3.576257e+01 -5.638631e+02
      vertex -1.179000e+02 -2.302562e+01 -5.670502e+02
    endloop
  endfacet
  facet normal -4.039131e-01 -2.326815e-01 -8.847110e-01
    outer loop
      vertex -1.082397e+02 -2.276726e+01 -5.720565e+02
      vertex -1.082397e+02 -4.054713e+01 -5.673804e+02
      vertex -1.187000e+02 -3.576257e+01 -5.638631e+02
    endloop
  endfacet
  facet normal -1.000000e+00 -3.995959e-15 -6.019841e-14
    outer loop
      vertex -1.179000e+02 5.772984e+00 -5.019188e+02
      vertex -1.179000e+02 -2.302562e+01 -5.670502e+02
      vertex -1.179000e+02 -2.369855e+01 -5.613399e+02
    endloop
  endfacet
  facet normal -1.000000e+00 -3.857513e-15 -6.026708e-14
    outer loop
      vertex -1.179000e+02 -2.369855e+01 -5.316294e+02
      vertex -1.179000e+02 5.772984e+00 -5.019188e+02
      vertex -1.179000e+02 -2.369855e+01 -5.613399e+02
    endloop
  endfacet
  facet normal -4.572217e-01 1.662572e-01 -8.736744e-01
    outer loop
      vertex -1.082397e+02 -3.908628e+00 -5.684678e+02
      vertex -1.082397e+02 -2.276726e+01 -5.720565e+02
      vertex -1.179000e+02 -2.302562e+01 -5.670502e+02
    endloop
  endfacet
  facet normal -1.000000e+00 -1.526196e-15 -6.129044e-14
    outer loop
      vertex -1.179000e+02 5.772984e+00 -5.019188e+02
      vertex -1.179000e+02 3.141268e+00 -5.581955e+02
      vertex -1.179000e+02 -2.302562e+01 -5.670502e+02
    endloop
  endfacet
  facet normal -9.464877e-01 -1.034506e-01 3.057106e-01
    outer loop
      vertex -1.187000e+02 -6.682517e+00 -5.639966e+02
      vertex -1.179000e+02 -2.302562e+01 -5.670502e+02
      vertex -1.179000e+02 3.141268e+00 -5.581955e+02
    endloop
  endfacet
  facet normal -4.214131e-01 1.465851e-01 -8.949435e-01
    outer loop
      vertex -1.082397e+02 -3.908628e+00 -5.684678e+02
      vertex -1.179000e+02 -2.302562e+01 -5.670502e+02
      vertex -1.187000e+02 -6.682517e+00 -5.639966e+02
    endloop
  endfacet
  facet normal -1.699857e-03 -2.543526e-01 -9.671100e-01
    outer loop
      vertex -7.985962e+01 -2.297744e+01 -5.720511e+02
      vertex -1.082397e+02 -4.054713e+01 -5.673804e+02
      vertex -1.082397e+02 -2.276726e+01 -5.720565e+02
    endloop
  endfacet
  facet normal 2.256981e-04 -5.903414e-01 -8.071537e-01
    outer loop
      vertex -7.985974e+01 -4.047069e+01 -5.674284e+02
      vertex -7.986875e+01 -5.127528e+01 -5.595260e+02
      vertex -1.082397e+02 -4.054713e+01 -5.673804e+02
    endloop
  endfacet
  facet normal -9.460978e-04 -2.554907e-01 -9.668111e-01
    outer loop
      vertex -7.985962e+01 -2.297744e+01 -5.720511e+02
      vertex -7.985974e+01 -4.047069e+01 -5.674284e+02
      vertex -1.082397e+02 -4.054713e+01 -5.673804e+02
    endloop
  endfacet
  facet normal -2.113849e-03 1.869414e-01 -9.823688e-01
    outer loop
      vertex -7.986443e+01 -4.193477e+00 -5.685831e+02
      vertex -1.082397e+02 -2.276726e+01 -5.720565e+02
      vertex -1.082397e+02 -3.908628e+00 -5.684678e+02
    endloop
  endfacet
  facet normal 1.531602e-03 1.815610e-01 -9.833785e-01
    outer loop
      vertex -7.986443e+01 -4.193477e+00 -5.685831e+02
      vertex -7.985962e+01 -2.297744e+01 -5.720511e+02
      vertex -1.082397e+02 -2.276726e+01 -5.720565e+02
    endloop
  endfacet
  facet normal -1.000000e+00 -3.550864e-15 -6.119576e-14
    outer loop
      vertex -1.179000e+02 5.772984e+00 -5.019188e+02
      vertex -1.179000e+02 1.155998e+01 -5.480019e+02
      vertex -1.179000e+02 3.141268e+00 -5.581955e+02
    endloop
  endfacet
  facet normal 9.794029e-01 -1.556850e-01 1.285773e-01
    outer loop
      vertex -1.187000e+02 -6.682517e+00 -5.639966e+02
      vertex -1.179000e+02 3.141268e+00 -5.581955e+02
      vertex -1.179000e+02 1.155998e+01 -5.480019e+02
    endloop
  endfacet
  facet normal -1.000000e+00 -2.924299e-15 -6.083771e-14
    outer loop
      vertex -1.179000e+02 1.451390e+01 -5.093685e+02
      vertex -1.179000e+02 1.637735e+01 -5.307145e+02
      vertex -1.179000e+02 1.155998e+01 -5.480019e+02
    endloop
  endfacet
  facet normal -4.499854e-01 8.602593e-01 -2.397230e-01
    outer loop
      vertex -1.082397e+02 2.137675e+01 -5.309071e+02
      vertex -1.179000e+02 1.155998e+01 -5.480019e+02
      vertex -1.179000e+02 1.637735e+01 -5.307145e+02
    endloop
  endfacet
  facet normal -1.000000e+00 -1.541550e-15 -6.094344e-14
    outer loop
      vertex -1.179000e+02 5.772984e+00 -5.019188e+02
      vertex -1.179000e+02 1.451390e+01 -5.093685e+02
      vertex -1.179000e+02 1.155998e+01 -5.480019e+02
    endloop
  endfacet
  facet normal -9.828275e-01 1.441288e-01 -1.152258e-01
    outer loop
      vertex -1.179000e+02 4.026560e+00 -5.574250e+02
      vertex -1.187000e+02 -6.682517e+00 -5.639966e+02
      vertex -1.179000e+02 1.155998e+01 -5.480019e+02
    endloop
  endfacet
  facet normal -4.579863e-01 6.943419e-01 -5.551016e-01
    outer loop
      vertex -1.082397e+02 1.583583e+01 -5.506237e+02
      vertex -1.179000e+02 4.026560e+00 -5.574250e+02
      vertex -1.179000e+02 1.155998e+01 -5.480019e+02
    endloop
  endfacet
  facet normal -4.468863e-01 8.612281e-01 -2.420307e-01
    outer loop
      vertex -1.082397e+02 2.137675e+01 -5.309071e+02
      vertex -1.082397e+02 1.583583e+01 -5.506237e+02
      vertex -1.179000e+02 1.155998e+01 -5.480019e+02
    endloop
  endfacet
  facet normal -2.569882e-01 9.627530e-01 8.404625e-02
    outer loop
      vertex -1.090781e+02 1.698897e+01 -5.107458e+02
      vertex -1.179000e+02 1.637735e+01 -5.307145e+02
      vertex -1.179000e+02 1.451390e+01 -5.093685e+02
    endloop
  endfacet
  facet normal -4.500627e-01 8.762773e-01 1.719930e-01
    outer loop
      vertex -1.090781e+02 1.698897e+01 -5.107458e+02
      vertex -1.082397e+02 2.137675e+01 -5.309071e+02
      vertex -1.179000e+02 1.637735e+01 -5.307145e+02
    endloop
  endfacet
  facet normal -9.995744e-01 -1.892164e-02 -2.220118e-02
    outer loop
      vertex -1.191693e+02 1.749958e+01 -4.547634e+02
      vertex -1.179000e+02 1.451390e+01 -5.093685e+02
      vertex -1.179000e+02 5.772984e+00 -5.019188e+02
    endloop
  endfacet
  facet normal -2.569229e-01 9.627364e-01 8.443448e-02
    outer loop
      vertex -1.096655e+02 1.351679e+01 -4.729428e+02
      vertex -1.090781e+02 1.698897e+01 -5.107458e+02
      vertex -1.179000e+02 1.451390e+01 -5.093685e+02
    endloop
  endfacet
  facet normal 3.123086e-01 9.489320e-01 -4.462560e-02
    outer loop
      vertex -1.096655e+02 1.351679e+01 -4.729428e+02
      vertex -1.179000e+02 1.451390e+01 -5.093685e+02
      vertex -1.191693e+02 1.749958e+01 -4.547634e+02
    endloop
  endfacet
  facet normal -9.945076e-01 7.430716e-02 -7.370940e-02
    outer loop
      vertex -1.202420e+02 -2.148204e+01 -4.977966e+02
      vertex -1.179000e+02 5.772984e+00 -5.019188e+02
      vertex -1.179000e+02 -2.369855e+01 -5.316294e+02
    endloop
  endfacet
  facet normal -9.959454e-01 7.909781e-02 -4.285154e-02
    outer loop
      vertex -1.193995e+02 4.302302e+00 -4.697820e+02
      vertex -1.179000e+02 5.772984e+00 -5.019188e+02
      vertex -1.202420e+02 -2.148204e+01 -4.977966e+02
    endloop
  endfacet
  facet normal -9.968173e-01 6.683676e-02 -4.345333e-02
    outer loop
      vertex -1.191693e+02 1.749958e+01 -4.547634e+02
      vertex -1.179000e+02 5.772984e+00 -5.019188e+02
      vertex -1.193995e+02 4.302302e+00 -4.697820e+02
    endloop
  endfacet
  facet normal -9.993942e-01 3.474855e-02 -1.929369e-03
    outer loop
      vertex -1.193995e+02 4.302302e+00 -4.697820e+02
      vertex -1.202420e+02 -2.148204e+01 -4.977966e+02
      vertex -1.202948e+02 -2.148699e+01 -4.704871e+02
    endloop
  endfacet
  facet normal -9.063051e-01 -2.202859e-14 4.226240e-01
    outer loop
      vertex -1.151139e+02 1.734530e+01 -3.792697e+02
      vertex -1.169000e+02 1.734530e+01 -3.831000e+02
      vertex -1.169000e+02 5.772984e+00 -3.831000e+02
    endloop
  endfacet
  facet normal -1.460363e-01 9.889479e-01 2.560366e-02
    outer loop
      vertex -1.090764e+02 1.850000e+01 -3.830766e+02
      vertex -1.193895e+02 1.797159e+01 -4.214899e+02
      vertex -1.169000e+02 1.734530e+01 -3.831000e+02
    endloop
  endfacet
  facet normal -1.458176e-01 9.864674e-01 7.496185e-02
    outer loop
      vertex -1.003490e+02 1.850000e+01 -3.661000e+02
      vertex -1.090764e+02 1.850000e+01 -3.830766e+02
      vertex -1.169000e+02 1.734530e+01 -3.831000e+02
    endloop
  endfacet
  facet normal -1.324617e-01 9.892616e-01 6.176892e-02
    outer loop
      vertex -1.003490e+02 1.850000e+01 -3.661000e+02
      vertex -1.169000e+02 1.734530e+01 -3.831000e+02
      vertex -1.151139e+02 1.734530e+01 -3.792697e+02
    endloop
  endfacet
  facet normal -9.764669e-01 -1.250314e-14 2.156674e-01
    outer loop
      vertex -1.132778e+02 -2.048410e+00 -3.667000e+02
      vertex -1.169000e+02 5.772984e+00 -3.831000e+02
      vertex -1.169000e+02 -2.369855e+01 -3.831000e+02
    endloop
  endfacet
  facet normal -9.669147e-01 6.784331e-02 2.459131e-01
    outer loop
      vertex -1.151139e+02 1.734530e+01 -3.792697e+02
      vertex -1.169000e+02 5.772984e+00 -3.831000e+02
      vertex -1.132778e+02 -2.048410e+00 -3.667000e+02
    endloop
  endfacet
  facet normal -9.778419e-01 5.065875e-03 2.092835e-01
    outer loop
      vertex -1.132778e+02 -2.048410e+00 -3.667000e+02
      vertex -1.169000e+02 -2.369855e+01 -3.831000e+02
      vertex -1.133637e+02 -1.862616e+01 -3.667000e+02
    endloop
  endfacet
  facet normal -5.758128e-01 -4.025151e-01 7.116327e-01
    outer loop
      vertex -1.090764e+02 -2.369855e+01 -3.661000e+02
      vertex -1.133637e+02 -1.862616e+01 -3.667000e+02
      vertex -1.151139e+02 -3.834530e+01 -3.792697e+02
    endloop
  endfacet
  facet normal -1.354769e-01 2.687694e-03 9.907769e-01
    outer loop
      vertex -1.084964e+02 5.537502e+00 -3.661000e+02
      vertex -1.133637e+02 -1.862616e+01 -3.667000e+02
      vertex -1.090764e+02 -2.369855e+01 -3.661000e+02
    endloop
  endfacet
  facet normal -1.255242e-01 6.502994e-04 9.920903e-01
    outer loop
      vertex -1.084964e+02 5.537502e+00 -3.661000e+02
      vertex -1.132778e+02 -2.048410e+00 -3.667000e+02
      vertex -1.133637e+02 -1.862616e+01 -3.667000e+02
    endloop
  endfacet
  facet normal -6.381313e-01 -3.524487e-01 6.845205e-01
    outer loop
      vertex -1.090764e+02 -2.369855e+01 -3.661000e+02
      vertex -1.151139e+02 -3.834530e+01 -3.792697e+02
      vertex -1.003490e+02 -3.950000e+01 -3.661000e+02
    endloop
  endfacet
  facet normal -5.958575e-01 -3.291003e-01 7.325618e-01
    outer loop
      vertex -8.672076e+01 -1.765242e+01 -3.452000e+02
      vertex -1.090764e+02 -2.369855e+01 -3.661000e+02
      vertex -1.003490e+02 -3.950000e+01 -3.661000e+02
    endloop
  endfacet
  facet normal 2.250532e-02 -8.980898e-01 4.392360e-01
    outer loop
      vertex -7.559334e+01 -2.865792e+01 -3.452000e+02
      vertex -1.003490e+02 -3.950000e+01 -3.661000e+02
      vertex -7.521496e+01 -3.496732e+01 -3.581200e+02
    endloop
  endfacet
  facet normal -3.915278e-01 -4.967417e-01 7.745667e-01
    outer loop
      vertex -7.732513e+01 -2.505798e+01 -3.452000e+02
      vertex -8.672076e+01 -1.765242e+01 -3.452000e+02
      vertex -1.003490e+02 -3.950000e+01 -3.661000e+02
    endloop
  endfacet
  facet normal -5.514954e-01 -2.653028e-01 7.908649e-01
    outer loop
      vertex -7.732513e+01 -2.505798e+01 -3.452000e+02
      vertex -1.003490e+02 -3.950000e+01 -3.661000e+02
      vertex -7.559334e+01 -2.865792e+01 -3.452000e+02
    endloop
  endfacet
  facet normal -6.878494e-01 1.364608e-02 7.257251e-01
    outer loop
      vertex -8.661565e+01 -3.037673e+00 -3.452000e+02
      vertex -1.084964e+02 5.537502e+00 -3.661000e+02
      vertex -1.090764e+02 -2.369855e+01 -3.661000e+02
    endloop
  endfacet
  facet normal -6.836261e-01 4.916681e-03 7.298159e-01
    outer loop
      vertex -8.661565e+01 -3.037673e+00 -3.452000e+02
      vertex -1.090764e+02 -2.369855e+01 -3.661000e+02
      vertex -8.672076e+01 -1.765242e+01 -3.452000e+02
    endloop
  endfacet
  facet normal -4.492328e-01 4.920874e-01 -7.456808e-01
    outer loop
      vertex -1.082397e+02 7.832745e+00 -5.607195e+02
      vertex -1.082397e+02 -3.908628e+00 -5.684678e+02
      vertex -1.187000e+02 -6.682517e+00 -5.639966e+02
    endloop
  endfacet
  facet normal -4.483023e-01 4.916137e-01 -7.465527e-01
    outer loop
      vertex -1.082397e+02 7.832745e+00 -5.607195e+02
      vertex -1.187000e+02 -6.682517e+00 -5.639966e+02
      vertex -1.179000e+02 4.026560e+00 -5.574250e+02
    endloop
  endfacet
  facet normal -5.560201e-04 5.507938e-01 -8.346411e-01
    outer loop
      vertex -7.984903e+01 7.775237e+00 -5.607763e+02
      vertex -1.082397e+02 -3.908628e+00 -5.684678e+02
      vertex -1.082397e+02 7.832745e+00 -5.607195e+02
    endloop
  endfacet
  facet normal 2.081938e-03 5.463161e-01 -8.375765e-01
    outer loop
      vertex -7.984903e+01 7.775237e+00 -5.607763e+02
      vertex -7.986443e+01 -4.193477e+00 -5.685831e+02
      vertex -1.082397e+02 -3.908628e+00 -5.684678e+02
    endloop
  endfacet
  facet normal -9.879886e-01 -1.082551e-01 1.102698e-01
    outer loop
      vertex -1.179000e+02 1.973663e+01 -4.411943e+02
      vertex -1.191693e+02 1.749958e+01 -4.547634e+02
      vertex -1.193995e+02 4.302302e+00 -4.697820e+02
    endloop
  endfacet
  facet normal -8.464989e-01 5.320519e-01 1.898390e-02
    outer loop
      vertex -1.003490e+02 1.850000e+01 -3.661000e+02
      vertex -1.132778e+02 -2.048410e+00 -3.667000e+02
      vertex -1.084964e+02 5.537502e+00 -3.661000e+02
    endloop
  endfacet
  facet normal -6.324956e-01 3.782210e-01 6.759425e-01
    outer loop
      vertex -1.003490e+02 1.850000e+01 -3.661000e+02
      vertex -1.151139e+02 1.734530e+01 -3.792697e+02
      vertex -1.132778e+02 -2.048410e+00 -3.667000e+02
    endloop
  endfacet
  facet normal -5.681839e-01 3.571220e-01 7.413710e-01
    outer loop
      vertex -8.661565e+01 -3.037673e+00 -3.452000e+02
      vertex -1.003490e+02 1.850000e+01 -3.661000e+02
      vertex -1.084964e+02 5.537502e+00 -3.661000e+02
    endloop
  endfacet
  facet normal -4.617833e-01 6.950891e-01 -5.510058e-01
    outer loop
      vertex -1.082397e+02 7.832745e+00 -5.607195e+02
      vertex -1.179000e+02 4.026560e+00 -5.574250e+02
      vertex -1.082397e+02 1.583583e+01 -5.506237e+02
    endloop
  endfacet
  facet normal 1.570329e-03 7.836458e-01 -6.212059e-01
    outer loop
      vertex -7.985909e+01 1.594484e+01 -5.504144e+02
      vertex -1.082397e+02 7.832745e+00 -5.607195e+02
      vertex -1.082397e+02 1.583583e+01 -5.506237e+02
    endloop
  endfacet
  facet normal -3.249005e-03 9.627011e-01 -2.705476e-01
    outer loop
      vertex -7.987063e+01 2.136628e+01 -5.312851e+02
      vertex -1.082397e+02 1.583583e+01 -5.506237e+02
      vertex -1.082397e+02 2.137675e+01 -5.309071e+02
    endloop
  endfacet
  facet normal -1.684985e-03 9.621057e-01 -2.726717e-01
    outer loop
      vertex -7.987063e+01 2.136628e+01 -5.312851e+02
      vertex -7.985909e+01 1.594484e+01 -5.504144e+02
      vertex -1.082397e+02 1.583583e+01 -5.506237e+02
    endloop
  endfacet
  facet normal 3.506075e-04 7.852837e-01 -6.191360e-01
    outer loop
      vertex -7.984903e+01 7.775237e+00 -5.607763e+02
      vertex -1.082397e+02 7.832745e+00 -5.607195e+02
      vertex -7.985909e+01 1.594484e+01 -5.504144e+02
    endloop
  endfacet
  facet normal -1.189596e-03 9.771368e-01 2.126084e-01
    outer loop
      vertex -7.987678e+01 1.705559e+01 -5.108886e+02
      vertex -1.082397e+02 2.137675e+01 -5.309071e+02
      vertex -1.090781e+02 1.698897e+01 -5.107458e+02
    endloop
  endfacet
  facet normal 3.115825e-03 9.783831e-01 2.067773e-01
    outer loop
      vertex -7.987678e+01 1.705559e+01 -5.108886e+02
      vertex -7.987063e+01 2.136628e+01 -5.312851e+02
      vertex -1.082397e+02 2.137675e+01 -5.309071e+02
    endloop
  endfacet
  facet normal -9.038524e-02 9.918593e-01 8.969717e-02
    outer loop
      vertex -7.986484e+01 1.505620e+01 -4.599361e+02
      vertex -1.090781e+02 1.698897e+01 -5.107458e+02
      vertex -1.096655e+02 1.351679e+01 -4.729428e+02
    endloop
  endfacet
  facet normal -2.087974e-03 9.992288e-01 3.921064e-02
    outer loop
      vertex -7.986484e+01 1.505620e+01 -4.599361e+02
      vertex -7.987678e+01 1.705559e+01 -5.108886e+02
      vertex -1.090781e+02 1.698897e+01 -5.107458e+02
    endloop
  endfacet
  facet normal -4.434997e-02 9.707735e-01 -2.358641e-01
    outer loop
      vertex -1.090763e+02 2.122141e+01 -4.413428e+02
      vertex -1.096655e+02 1.351679e+01 -4.729428e+02
      vertex -1.191693e+02 1.749958e+01 -4.547634e+02
    endloop
  endfacet
  facet normal -1.665564e-01 9.752813e-01 -1.452077e-01
    outer loop
      vertex -1.090763e+02 2.122141e+01 -4.413428e+02
      vertex -1.191693e+02 1.749958e+01 -4.547634e+02
      vertex -1.179000e+02 1.973663e+01 -4.411943e+02
    endloop
  endfacet
  facet normal 2.712810e-04 9.715383e-01 -2.368826e-01
    outer loop
      vertex -7.986404e+01 2.123892e+01 -4.412376e+02
      vertex -1.096655e+02 1.351679e+01 -4.729428e+02
      vertex -1.090763e+02 2.122141e+01 -4.413428e+02
    endloop
  endfacet
  facet normal 8.763764e-02 9.457900e-01 -3.127315e-01
    outer loop
      vertex -7.986404e+01 2.123892e+01 -4.412376e+02
      vertex -7.986484e+01 1.505620e+01 -4.599361e+02
      vertex -1.096655e+02 1.351679e+01 -4.729428e+02
    endloop
  endfacet
  facet normal -1.636782e-01 9.820641e-01 9.359223e-02
    outer loop
      vertex -1.090764e+02 1.850000e+01 -4.127872e+02
      vertex -1.090763e+02 2.122141e+01 -4.413428e+02
      vertex -1.179000e+02 1.973663e+01 -4.411943e+02
    endloop
  endfacet
  facet normal -1.180051e-01 9.898060e-01 7.974259e-02
    outer loop
      vertex -1.090764e+02 1.850000e+01 -4.127872e+02
      vertex -1.179000e+02 1.973663e+01 -4.411943e+02
      vertex -1.193895e+02 1.797159e+01 -4.214899e+02
    endloop
  endfacet
  facet normal -1.522298e-02 9.953741e-01 9.486110e-02
    outer loop
      vertex -7.986845e+01 1.850000e+01 -4.081000e+02
      vertex -1.090763e+02 2.122141e+01 -4.413428e+02
      vertex -1.090764e+02 1.850000e+01 -4.127872e+02
    endloop
  endfacet
  facet normal -8.942875e-04 9.966012e-01 8.237207e-02
    outer loop
      vertex -7.986845e+01 1.850000e+01 -4.081000e+02
      vertex -7.986404e+01 2.123892e+01 -4.412376e+02
      vertex -1.090763e+02 2.122141e+01 -4.413428e+02
    endloop
  endfacet
  facet normal -5.116953e-02 9.986900e-01 4.258431e-14
    outer loop
      vertex -1.090764e+02 1.850000e+01 -3.830766e+02
      vertex -1.090764e+02 1.850000e+01 -4.127872e+02
      vertex -1.193895e+02 1.797159e+01 -4.214899e+02
    endloop
  endfacet
  facet normal -4.622140e-15 1.000000e+00 4.268918e-14
    outer loop
      vertex -7.986845e+01 1.850000e+01 -3.830766e+02
      vertex -1.090764e+02 1.850000e+01 -4.127872e+02
      vertex -1.090764e+02 1.850000e+01 -3.830766e+02
    endloop
  endfacet
  facet normal -2.646622e-15 1.000000e+00 4.074708e-14
    outer loop
      vertex -7.986845e+01 1.850000e+01 -3.830766e+02
      vertex -7.986845e+01 1.850000e+01 -4.081000e+02
      vertex -1.090764e+02 1.850000e+01 -4.127872e+02
    endloop
  endfacet
  facet normal 1.947082e-01 9.757405e-01 -1.000957e-01
    outer loop
      vertex -7.447720e+01 1.415593e+01 -3.581200e+02
      vertex -1.090764e+02 1.850000e+01 -3.830766e+02
      vertex -1.003490e+02 1.850000e+01 -3.661000e+02
    endloop
  endfacet
  facet normal -4.225465e-15 9.851865e-01 1.714863e-01
    outer loop
      vertex -7.447720e+01 1.415593e+01 -3.581200e+02
      vertex -7.986845e+01 1.850000e+01 -3.830766e+02
      vertex -1.090764e+02 1.850000e+01 -3.830766e+02
    endloop
  endfacet
  facet normal -4.433485e-01 4.624250e-01 7.678576e-01
    outer loop
      vertex -7.543216e+01 7.684466e+00 -3.452000e+02
      vertex -1.003490e+02 1.850000e+01 -3.661000e+02
      vertex -8.661565e+01 -3.037673e+00 -3.452000e+02
    endloop
  endfacet
  facet normal 1.171926e-02 8.937012e-01 4.485095e-01
    outer loop
      vertex -7.447720e+01 1.415593e+01 -3.581200e+02
      vertex -1.003490e+02 1.850000e+01 -3.661000e+02
      vertex -7.543216e+01 7.684466e+00 -3.452000e+02
    endloop
  endfacet
  facet normal -1.772721e-02 -9.682827e-01 -2.492276e-01
    outer loop
      vertex -6.080000e+01 -6.268096e+01 -5.358472e+02
      vertex -7.986221e+01 -6.356648e+01 -5.310509e+02
      vertex -7.985581e+01 -5.898376e+01 -5.488559e+02
    endloop
  endfacet
  facet normal 6.680908e-02 -9.790984e-01 1.921011e-01
    outer loop
      vertex -6.080000e+01 -5.797297e+01 -5.091714e+02
      vertex -7.985953e+01 -5.986950e+01 -5.122091e+02
      vertex -7.986221e+01 -6.356648e+01 -5.310509e+02
    endloop
  endfacet
  facet normal 8.912227e-02 -9.808616e-01 1.731118e-01
    outer loop
      vertex -6.080000e+01 -5.797297e+01 -5.091714e+02
      vertex -7.986221e+01 -6.356648e+01 -5.310509e+02
      vertex -6.080000e+01 -6.268096e+01 -5.358472e+02
    endloop
  endfacet
  facet normal 7.365101e-02 -8.083542e-01 -5.840711e-01
    outer loop
      vertex -6.050000e+01 -4.887675e+01 -5.604032e+02
      vertex -7.985581e+01 -5.898376e+01 -5.488559e+02
      vertex -7.986875e+01 -5.127528e+01 -5.595260e+02
    endloop
  endfacet
  facet normal -1.152239e-02 -7.427758e-01 -6.694411e-01
    outer loop
      vertex -6.050000e+01 -4.887675e+01 -5.604032e+02
      vertex -6.080000e+01 -5.781464e+01 -5.504810e+02
      vertex -7.985581e+01 -5.898376e+01 -5.488559e+02
    endloop
  endfacet
  facet normal 3.129083e-02 -9.484449e-01 -3.153937e-01
    outer loop
      vertex -6.080000e+01 -6.268096e+01 -5.358472e+02
      vertex -7.985581e+01 -5.898376e+01 -5.488559e+02
      vertex -6.080000e+01 -5.781464e+01 -5.504810e+02
    endloop
  endfacet
  facet normal 3.652897e-02 -5.899671e-01 -8.066006e-01
    outer loop
      vertex -6.050000e+01 -4.887675e+01 -5.604032e+02
      vertex -7.986875e+01 -5.127528e+01 -5.595260e+02
      vertex -7.985974e+01 -4.047069e+01 -5.674284e+02
    endloop
  endfacet
  facet normal 2.983057e-02 -9.990323e-01 3.231955e-02
    outer loop
      vertex -6.480000e+01 -5.768957e+01 -4.587250e+02
      vertex -7.987104e+01 -5.813076e+01 -4.584521e+02
      vertex -7.985953e+01 -5.986950e+01 -5.122091e+02
    endloop
  endfacet
  facet normal 9.691278e-02 -9.952043e-01 1.327517e-02
    outer loop
      vertex -6.480000e+01 -5.768957e+01 -4.587250e+02
      vertex -7.985953e+01 -5.986950e+01 -5.122091e+02
      vertex -6.080000e+01 -5.797297e+01 -5.091714e+02
    endloop
  endfacet
  facet normal -2.261848e-02 -9.566182e-01 -2.904652e-01
    outer loop
      vertex -6.641253e+01 -6.318634e+01 -4.428500e+02
      vertex -7.986254e+01 -6.347516e+01 -4.408515e+02
      vertex -7.987104e+01 -5.813076e+01 -4.584521e+02
    endloop
  endfacet
  facet normal 2.178715e-02 -9.454149e-01 -3.251398e-01
    outer loop
      vertex -6.641253e+01 -6.318634e+01 -4.428500e+02
      vertex -7.987104e+01 -5.813076e+01 -4.584521e+02
      vertex -6.480000e+01 -5.768957e+01 -4.587250e+02
    endloop
  endfacet
  facet normal -3.254682e-04 -9.884551e-01 1.515135e-01
    outer loop
      vertex -6.650000e+01 -6.056265e+01 -4.218219e+02
      vertex -7.986868e+01 -6.055551e+01 -4.218041e+02
      vertex -7.986254e+01 -6.347516e+01 -4.408515e+02
    endloop
  endfacet
  facet normal 3.969786e-02 -9.915033e-01 1.238757e-01
    outer loop
      vertex -6.650000e+01 -6.056265e+01 -4.218219e+02
      vertex -7.986254e+01 -6.347516e+01 -4.408515e+02
      vertex -6.641253e+01 -6.318634e+01 -4.428500e+02
    endloop
  endfacet
  facet normal 5.202089e-03 -8.516200e-01 5.241339e-01
    outer loop
      vertex -6.650000e+01 -5.271390e+01 -4.091956e+02
      vertex -7.986451e+01 -5.298196e+01 -4.094985e+02
      vertex -7.986868e+01 -6.055551e+01 -4.218041e+02
    endloop
  endfacet
  facet normal 2.504409e-04 -8.492862e-01 5.279326e-01
    outer loop
      vertex -6.650000e+01 -5.271390e+01 -4.091956e+02
      vertex -7.986868e+01 -6.055551e+01 -4.218041e+02
      vertex -6.650000e+01 -6.056265e+01 -4.218219e+02
    endloop
  endfacet
  facet normal 3.467061e-15 -8.907423e-01 4.545086e-01
    outer loop
      vertex -5.066052e+01 -3.950000e+01 -3.830766e+02
      vertex -7.986845e+01 -3.950000e+01 -3.830766e+02
      vertex -7.986451e+01 -5.298196e+01 -4.094985e+02
    endloop
  endfacet
  facet normal 7.789005e-03 -8.941746e-01 4.476508e-01
    outer loop
      vertex -6.650000e+01 -5.271390e+01 -4.091956e+02
      vertex -5.066052e+01 -3.950000e+01 -3.830766e+02
      vertex -7.986451e+01 -5.298196e+01 -4.094985e+02
    endloop
  endfacet
  facet normal 7.035670e-02 -9.836901e-01 1.655410e-01
    outer loop
      vertex -5.856168e+01 -3.377622e+01 -3.581200e+02
      vertex -7.521496e+01 -3.496732e+01 -3.581200e+02
      vertex -7.986845e+01 -3.950000e+01 -3.830766e+02
    endloop
  endfacet
  facet normal 3.800419e-15 -9.746937e-01 2.235448e-01
    outer loop
      vertex -5.856168e+01 -3.377622e+01 -3.581200e+02
      vertex -7.986845e+01 -3.950000e+01 -3.830766e+02
      vertex -5.066052e+01 -3.950000e+01 -3.830766e+02
    endloop
  endfacet
  facet normal 3.237593e-02 -2.553571e-01 -9.663046e-01
    outer loop
      vertex -6.080000e+01 -2.137381e+01 -5.718363e+02
      vertex -7.985974e+01 -4.047069e+01 -5.674284e+02
      vertex -7.985962e+01 -2.297744e+01 -5.720511e+02
    endloop
  endfacet
  facet normal 5.864837e-02 -5.571764e-01 -8.283205e-01
    outer loop
      vertex -6.080000e+01 -3.632439e+01 -5.688679e+02
      vertex -6.050000e+01 -4.887675e+01 -5.604032e+02
      vertex -7.985974e+01 -4.047069e+01 -5.674284e+02
    endloop
  endfacet
  facet normal -3.169948e-02 -1.946506e-01 -9.803603e-01
    outer loop
      vertex -6.080000e+01 -2.137381e+01 -5.718363e+02
      vertex -6.080000e+01 -3.632439e+01 -5.688679e+02
      vertex -7.985974e+01 -4.047069e+01 -5.674284e+02
    endloop
  endfacet
  facet normal -9.616043e-03 1.815501e-01 -9.833347e-01
    outer loop
      vertex -6.080000e+01 -6.335625e+00 -5.691650e+02
      vertex -7.985962e+01 -2.297744e+01 -5.720511e+02
      vertex -7.986443e+01 -4.193477e+00 -5.685831e+02
    endloop
  endfacet
  facet normal -3.618557e-03 1.748972e-01 -9.845800e-01
    outer loop
      vertex -6.080000e+01 -6.335625e+00 -5.691650e+02
      vertex -6.080000e+01 -2.137381e+01 -5.718363e+02
      vertex -7.985962e+01 -2.297744e+01 -5.720511e+02
    endloop
  endfacet
  facet normal 8.841929e-03 -8.984402e-01 4.390069e-01
    outer loop
      vertex -6.113767e+01 -2.851565e+01 -3.452000e+02
      vertex -7.559334e+01 -2.865792e+01 -3.452000e+02
      vertex -7.521496e+01 -3.496732e+01 -3.581200e+02
    endloop
  endfacet
  facet normal 6.576686e-02 -9.195174e-01 3.875081e-01
    outer loop
      vertex -5.856168e+01 -3.377622e+01 -3.581200e+02
      vertex -6.113767e+01 -2.851565e+01 -3.452000e+02
      vertex -7.521496e+01 -3.496732e+01 -3.581200e+02
    endloop
  endfacet
  facet normal -6.278327e-14 -4.127592e-14 1.000000e+00
    outer loop
      vertex -5.209025e+01 -1.937280e+01 -3.452000e+02
      vertex -8.672076e+01 -1.765242e+01 -3.452000e+02
      vertex -7.732513e+01 -2.505798e+01 -3.452000e+02
    endloop
  endfacet
  facet normal -6.162475e-14 -4.623026e-14 1.000000e+00
    outer loop
      vertex -5.052686e+01 -3.190583e+00 -3.452000e+02
      vertex -8.661565e+01 -3.037673e+00 -3.452000e+02
      vertex -8.672076e+01 -1.765242e+01 -3.452000e+02
    endloop
  endfacet
  facet normal -6.248087e-14 -4.408761e-14 1.000000e+00
    outer loop
      vertex -5.044208e+01 -1.749334e+01 -3.452000e+02
      vertex -5.052686e+01 -3.190583e+00 -3.452000e+02
      vertex -8.672076e+01 -1.765242e+01 -3.452000e+02
    endloop
  endfacet
  facet normal -6.251673e-14 -3.591054e-14 1.000000e+00
    outer loop
      vertex -5.209025e+01 -1.937280e+01 -3.452000e+02
      vertex -5.044208e+01 -1.749334e+01 -3.452000e+02
      vertex -8.672076e+01 -1.765242e+01 -3.452000e+02
    endloop
  endfacet
  facet normal -6.637872e-14 -4.772232e-14 1.000000e+00
    outer loop
      vertex -6.113767e+01 -2.851565e+01 -3.452000e+02
      vertex -7.732513e+01 -2.505798e+01 -3.452000e+02
      vertex -7.559334e+01 -2.865792e+01 -3.452000e+02
    endloop
  endfacet
  facet normal -6.392206e-14 -3.622119e-14 1.000000e+00
    outer loop
      vertex -6.113767e+01 -2.851565e+01 -3.452000e+02
      vertex -5.209025e+01 -1.937280e+01 -3.452000e+02
      vertex -7.732513e+01 -2.505798e+01 -3.452000e+02
    endloop
  endfacet
  facet normal -1.984007e-03 5.463199e-01 -8.375742e-01
    outer loop
      vertex -6.080000e+01 6.160586e+00 -5.618746e+02
      vertex -7.986443e+01 -4.193477e+00 -5.685831e+02
      vertex -7.984903e+01 7.775237e+00 -5.607763e+02
    endloop
  endfacet
  facet normal 3.024268e-02 5.036870e-01 -8.633567e-01
    outer loop
      vertex -6.080000e+01 6.160586e+00 -5.618746e+02
      vertex -6.080000e+01 -6.335625e+00 -5.691650e+02
      vertex -7.986443e+01 -4.193477e+00 -5.685831e+02
    endloop
  endfacet
  facet normal -6.402648e-14 -3.394708e-14 1.000000e+00
    outer loop
      vertex -6.113767e+01 7.515651e+00 -3.452000e+02
      vertex -7.543216e+01 7.684466e+00 -3.452000e+02
      vertex -8.661565e+01 -3.037673e+00 -3.452000e+02
    endloop
  endfacet
  facet normal -6.131915e-14 -4.048315e-14 1.000000e+00
    outer loop
      vertex -5.237103e+01 -1.550661e+00 -3.452000e+02
      vertex -6.113767e+01 7.515651e+00 -3.452000e+02
      vertex -8.661565e+01 -3.037673e+00 -3.452000e+02
    endloop
  endfacet
  facet normal -6.157539e-14 -3.458206e-14 1.000000e+00
    outer loop
      vertex -5.052686e+01 -3.190583e+00 -3.452000e+02
      vertex -5.237103e+01 -1.550661e+00 -3.452000e+02
      vertex -8.661565e+01 -3.037673e+00 -3.452000e+02
    endloop
  endfacet
  facet normal 1.055496e-02 8.937473e-01 4.484466e-01
    outer loop
      vertex -7.447720e+01 1.415593e+01 -3.581200e+02
      vertex -7.543216e+01 7.684466e+00 -3.452000e+02
      vertex -6.113767e+01 7.515651e+00 -3.452000e+02
    endloop
  endfacet
  facet normal 6.425612e-01 6.213226e-01 4.484119e-01
    outer loop
      vertex -5.230549e+01 4.275607e+00 -3.533668e+02
      vertex -6.113767e+01 7.515651e+00 -3.452000e+02
      vertex -5.237103e+01 -1.550661e+00 -3.452000e+02
    endloop
  endfacet
  facet normal -4.949269e-03 8.873105e-01 4.611460e-01
    outer loop
      vertex -7.447720e+01 1.415593e+01 -3.581200e+02
      vertex -6.113767e+01 7.515651e+00 -3.452000e+02
      vertex -3.920000e+01 1.850000e+01 -3.661000e+02
    endloop
  endfacet
  facet normal 6.833706e-01 2.357693e-02 7.296908e-01
    outer loop
      vertex -5.230549e+01 4.275607e+00 -3.533668e+02
      vertex -3.920000e+01 1.850000e+01 -3.661000e+02
      vertex -6.113767e+01 7.515651e+00 -3.452000e+02
    endloop
  endfacet
  facet normal 5.850895e-01 6.579598e-01 4.740878e-01
    outer loop
      vertex -5.230549e+01 4.275607e+00 -3.533668e+02
      vertex -5.237103e+01 -1.550661e+00 -3.452000e+02
      vertex -5.052686e+01 -3.190583e+00 -3.452000e+02
    endloop
  endfacet
  facet normal 6.401738e-01 3.794561e-03 7.682207e-01
    outer loop
      vertex -2.534469e+01 -2.036102e+01 -3.661000e+02
      vertex -5.052686e+01 -3.190583e+00 -3.452000e+02
      vertex -5.044208e+01 -1.749334e+01 -3.452000e+02
    endloop
  endfacet
  facet normal 3.330152e-01 7.309254e-01 5.956920e-01
    outer loop
      vertex -2.796519e+01 3.563300e+00 -3.661000e+02
      vertex -5.230549e+01 4.275607e+00 -3.533668e+02
      vertex -5.052686e+01 -3.190583e+00 -3.452000e+02
    endloop
  endfacet
  facet normal 6.659267e-01 7.294095e-02 7.424427e-01
    outer loop
      vertex -2.796519e+01 3.563300e+00 -3.661000e+02
      vertex -5.052686e+01 -3.190583e+00 -3.452000e+02
      vertex -2.534469e+01 -2.036102e+01 -3.661000e+02
    endloop
  endfacet
  facet normal 6.862132e-01 -6.017648e-01 4.086448e-01
    outer loop
      vertex -5.088284e+01 -2.354138e+01 -3.533661e+02
      vertex -5.044208e+01 -1.749334e+01 -3.452000e+02
      vertex -5.209025e+01 -1.937280e+01 -3.452000e+02
    endloop
  endfacet
  facet normal 3.643477e-01 -7.576619e-01 5.414787e-01
    outer loop
      vertex -2.534469e+01 -2.036102e+01 -3.661000e+02
      vertex -5.044208e+01 -1.749334e+01 -3.452000e+02
      vertex -5.088284e+01 -2.354138e+01 -3.533661e+02
    endloop
  endfacet
  facet normal 6.534420e-01 -6.466220e-01 3.935652e-01
    outer loop
      vertex -5.856168e+01 -3.377622e+01 -3.581200e+02
      vertex -5.209025e+01 -1.937280e+01 -3.452000e+02
      vertex -6.113767e+01 -2.851565e+01 -3.452000e+02
    endloop
  endfacet
  facet normal 6.158656e-01 -6.611093e-01 4.285372e-01
    outer loop
      vertex -5.088284e+01 -2.354138e+01 -3.533661e+02
      vertex -5.209025e+01 -1.937280e+01 -3.452000e+02
      vertex -5.856168e+01 -3.377622e+01 -3.581200e+02
    endloop
  endfacet
  facet normal 9.877960e-03 7.852499e-01 -6.191002e-01
    outer loop
      vertex -6.080000e+01 1.555515e+01 -5.506046e+02
      vertex -7.984903e+01 7.775237e+00 -5.607763e+02
      vertex -7.985909e+01 1.594484e+01 -5.504144e+02
    endloop
  endfacet
  facet normal -1.879876e-02 9.619343e-01 -2.726334e-01
    outer loop
      vertex -6.080000e+01 2.046487e+01 -5.357805e+02
      vertex -7.985909e+01 1.594484e+01 -5.504144e+02
      vertex -7.987063e+01 2.136628e+01 -5.312851e+02
    endloop
  endfacet
  facet normal 1.627004e-02 9.491636e-01 -3.143623e-01
    outer loop
      vertex -6.080000e+01 2.046487e+01 -5.357805e+02
      vertex -6.080000e+01 1.555515e+01 -5.506046e+02
      vertex -7.985909e+01 1.594484e+01 -5.504144e+02
    endloop
  endfacet
  facet normal 2.817996e-02 7.678210e-01 -6.400444e-01
    outer loop
      vertex -6.080000e+01 6.160586e+00 -5.618746e+02
      vertex -7.984903e+01 7.775237e+00 -5.607763e+02
      vertex -6.080000e+01 1.555515e+01 -5.506046e+02
    endloop
  endfacet
  facet normal 4.841492e-02 9.772377e-01 2.065489e-01
    outer loop
      vertex -6.080000e+01 1.569216e+01 -5.089094e+02
      vertex -7.987063e+01 2.136628e+01 -5.312851e+02
      vertex -7.987678e+01 1.705559e+01 -5.108886e+02
    endloop
  endfacet
  facet normal 8.742590e-02 9.808201e-01 1.742085e-01
    outer loop
      vertex -6.080000e+01 1.569216e+01 -5.089094e+02
      vertex -6.080000e+01 2.046487e+01 -5.357805e+02
      vertex -7.987063e+01 2.136628e+01 -5.312851e+02
    endloop
  endfacet
  facet normal -2.418049e-02 9.989386e-01 3.920443e-02
    outer loop
      vertex -6.480000e+01 1.538016e+01 -4.588991e+02
      vertex -7.987678e+01 1.705559e+01 -5.108886e+02
      vertex -7.986484e+01 1.505620e+01 -4.599361e+02
    endloop
  endfacet
  facet normal 7.006324e-02 9.974724e-01 1.182681e-02
    outer loop
      vertex -6.480000e+01 1.538016e+01 -4.588991e+02
      vertex -6.080000e+01 1.569216e+01 -5.089094e+02
      vertex -7.987678e+01 1.705559e+01 -5.108886e+02
    endloop
  endfacet
  facet normal 9.169867e-02 9.454428e-01 -3.126169e-01
    outer loop
      vertex -6.250000e+01 1.946800e+01 -4.415000e+02
      vertex -7.986484e+01 1.505620e+01 -4.599361e+02
      vertex -7.986404e+01 2.123892e+01 -4.412376e+02
    endloop
  endfacet
  facet normal -5.239338e-03 9.736335e-01 -2.280578e-01
    outer loop
      vertex -6.250000e+01 1.946800e+01 -4.415000e+02
      vertex -6.480000e+01 1.538016e+01 -4.588991e+02
      vertex -7.986484e+01 1.505620e+01 -4.599361e+02
    endloop
  endfacet
  facet normal -9.779393e-15 9.966016e-01 8.237222e-02
    outer loop
      vertex -5.066052e+01 1.850000e+01 -4.081000e+02
      vertex -7.986404e+01 2.123892e+01 -4.412376e+02
      vertex -7.986845e+01 1.850000e+01 -4.081000e+02
    endloop
  endfacet
  facet normal 1.013528e-01 9.948252e-01 -7.094968e-03
    outer loop
      vertex -6.250000e+01 1.946800e+01 -4.415000e+02
      vertex -7.986404e+01 2.123892e+01 -4.412376e+02
      vertex -5.066052e+01 1.850000e+01 -4.081000e+02
    endloop
  endfacet
  facet normal -4.987045e-15 1.000000e+00 4.188289e-14
    outer loop
      vertex -5.066052e+01 1.850000e+01 -3.830766e+02
      vertex -5.066052e+01 1.850000e+01 -4.081000e+02
      vertex -7.986845e+01 1.850000e+01 -4.081000e+02
    endloop
  endfacet
  facet normal -6.666688e-15 1.000000e+00 4.384341e-14
    outer loop
      vertex -3.920000e+01 1.850000e+01 -3.661000e+02
      vertex -5.066052e+01 1.850000e+01 -3.830766e+02
      vertex -7.986845e+01 1.850000e+01 -4.081000e+02
    endloop
  endfacet
  facet normal -3.468978e-15 1.000000e+00 4.074708e-14
    outer loop
      vertex -7.986845e+01 1.850000e+01 -3.830766e+02
      vertex -3.920000e+01 1.850000e+01 -3.661000e+02
      vertex -7.986845e+01 1.850000e+01 -4.081000e+02
    endloop
  endfacet
  facet normal 5.166219e-02 9.986646e-01 4.084341e-14
    outer loop
      vertex -3.333272e+01 1.760361e+01 -4.081000e+02
      vertex -5.066052e+01 1.850000e+01 -4.081000e+02
      vertex -5.066052e+01 1.850000e+01 -3.830766e+02
    endloop
  endfacet
  facet normal 9.457205e-01 -1.441186e-03 -3.249778e-01
    outer loop
      vertex -5.066052e+01 1.083705e+01 -4.080660e+02
      vertex -6.250000e+01 5.772984e+00 -4.424977e+02
      vertex -5.066052e+01 1.850000e+01 -4.081000e+02
    endloop
  endfacet
  facet normal 9.424790e-01 2.428808e-02 -3.333818e-01
    outer loop
      vertex -6.250000e+01 1.946800e+01 -4.415000e+02
      vertex -5.066052e+01 1.850000e+01 -4.081000e+02
      vertex -6.250000e+01 5.772984e+00 -4.424977e+02
    endloop
  endfacet
  facet normal -2.294116e-04 -4.434679e-03 -9.999901e-01
    outer loop
      vertex -3.333272e+01 1.760361e+01 -4.081000e+02
      vertex -5.066052e+01 1.083705e+01 -4.080660e+02
      vertex -5.066052e+01 1.850000e+01 -4.081000e+02
    endloop
  endfacet
  facet normal -4.020007e-15 1.000000e+00 4.205670e-14
    outer loop
      vertex -3.920000e+01 1.850000e+01 -3.661000e+02
      vertex -3.353934e+01 1.850000e+01 -3.686000e+02
      vertex -5.066052e+01 1.850000e+01 -3.830766e+02
    endloop
  endfacet
  facet normal 5.156603e-02 9.968057e-01 -6.098592e-02
    outer loop
      vertex -3.333272e+01 1.760361e+01 -3.830766e+02
      vertex -5.066052e+01 1.850000e+01 -3.830766e+02
      vertex -3.353934e+01 1.850000e+01 -3.686000e+02
    endloop
  endfacet
  facet normal 5.166219e-02 9.986646e-01 4.507869e-14
    outer loop
      vertex -3.333272e+01 1.760361e+01 -4.081000e+02
      vertex -5.066052e+01 1.850000e+01 -3.830766e+02
      vertex -3.333272e+01 1.760361e+01 -3.830766e+02
    endloop
  endfacet
  facet normal 3.688774e-01 4.078119e-01 8.352358e-01
    outer loop
      vertex -5.230549e+01 4.275607e+00 -3.533668e+02
      vertex -3.353934e+01 1.850000e+01 -3.686000e+02
      vertex -3.920000e+01 1.850000e+01 -3.661000e+02
    endloop
  endfacet
  facet normal 4.480992e-01 3.077097e-01 8.393580e-01
    outer loop
      vertex -2.796519e+01 3.563300e+00 -3.661000e+02
      vertex -3.353934e+01 1.850000e+01 -3.686000e+02
      vertex -5.230549e+01 4.275607e+00 -3.533668e+02
    endloop
  endfacet
  facet normal 9.188591e-01 3.671151e-01 1.446531e-01
    outer loop
      vertex -2.796519e+01 3.563300e+00 -3.661000e+02
      vertex -2.559507e+01 4.320782e+00 -3.830778e+02
      vertex -3.353934e+01 1.850000e+01 -3.686000e+02
    endloop
  endfacet
  facet normal 8.639269e-01 5.032650e-01 -1.883162e-02
    outer loop
      vertex -3.333272e+01 1.760361e+01 -3.830766e+02
      vertex -3.353934e+01 1.850000e+01 -3.686000e+02
      vertex -2.559507e+01 4.320782e+00 -3.830778e+02
    endloop
  endfacet
  facet normal -7.820063e-02 9.791786e-01 1.873338e-01
    outer loop
      vertex -7.447720e+01 1.415593e+01 -3.581200e+02
      vertex -3.920000e+01 1.850000e+01 -3.661000e+02
      vertex -7.986845e+01 1.850000e+01 -3.830766e+02
    endloop
  endfacet
  facet normal 8.386755e-01 -4.170280e-01 -3.503014e-01
    outer loop
      vertex -6.050000e+01 -4.887675e+01 -5.604032e+02
      vertex -4.708000e+01 -4.639106e+01 -5.312328e+02
      vertex -6.080000e+01 -5.781464e+01 -5.504810e+02
    endloop
  endfacet
  facet normal 7.766165e-01 -5.977881e-01 -1.987871e-01
    outer loop
      vertex -6.080000e+01 -6.268096e+01 -5.358472e+02
      vertex -6.080000e+01 -5.781464e+01 -5.504810e+02
      vertex -4.708000e+01 -4.639106e+01 -5.312328e+02
    endloop
  endfacet
  facet normal 1.760086e-14 -9.963890e-01 8.490512e-02
    outer loop
      vertex -4.112000e+01 -4.639106e+01 -5.312328e+02
      vertex -4.708000e+01 -4.639106e+01 -5.312328e+02
      vertex -6.050000e+01 -4.887675e+01 -5.604032e+02
    endloop
  endfacet
  facet normal 7.034389e-01 -6.641607e-01 2.531093e-01
    outer loop
      vertex -6.050000e+01 -4.878141e+01 -5.002084e+02
      vertex -6.080000e+01 -6.268096e+01 -5.358472e+02
      vertex -4.708000e+01 -4.639106e+01 -5.312328e+02
    endloop
  endfacet
  facet normal 3.937333e-01 -9.137790e-01 9.990994e-02
    outer loop
      vertex -4.060000e+01 -3.995271e+01 -4.978844e+02
      vertex -6.050000e+01 -4.878141e+01 -5.002084e+02
      vertex -4.708000e+01 -4.639106e+01 -5.312328e+02
    endloop
  endfacet
  facet normal 2.751935e-14 -9.818686e-01 1.895626e-01
    outer loop
      vertex -4.060000e+01 -3.995271e+01 -4.978844e+02
      vertex -4.708000e+01 -4.639106e+01 -5.312328e+02
      vertex -4.112000e+01 -4.639106e+01 -5.312328e+02
    endloop
  endfacet
  facet normal 8.094841e-01 -3.148511e-01 -4.955847e-01
    outer loop
      vertex -4.708000e+01 -2.307915e+01 -5.548726e+02
      vertex -6.050000e+01 -4.887675e+01 -5.604032e+02
      vertex -6.080000e+01 -3.632439e+01 -5.688679e+02
    endloop
  endfacet
  facet normal 5.507886e-14 2.096209e-01 -9.777827e-01
    outer loop
      vertex -4.112000e+01 -2.307915e+01 -5.548726e+02
      vertex -6.050000e+01 -4.887675e+01 -5.604032e+02
      vertex -4.708000e+01 -2.307915e+01 -5.548726e+02
    endloop
  endfacet
  facet normal 6.350631e-01 -3.270527e-01 -6.998081e-01
    outer loop
      vertex -4.112000e+01 -2.307915e+01 -5.548726e+02
      vertex -4.112000e+01 -3.920538e+01 -5.473361e+02
      vertex -6.050000e+01 -4.887675e+01 -5.604032e+02
    endloop
  endfacet
  facet normal 5.898658e-01 -7.374158e-01 -3.290535e-01
    outer loop
      vertex -4.112000e+01 -4.639106e+01 -5.312328e+02
      vertex -6.050000e+01 -4.887675e+01 -5.604032e+02
      vertex -4.112000e+01 -3.920538e+01 -5.473361e+02
    endloop
  endfacet
  facet normal 9.991997e-01 -3.939191e-02 6.952261e-03
    outer loop
      vertex -6.080000e+01 -5.797297e+01 -5.091714e+02
      vertex -6.080000e+01 -6.268096e+01 -5.358472e+02
      vertex -6.050000e+01 -4.878141e+01 -5.002084e+02
    endloop
  endfacet
  facet normal 6.909949e-01 4.929780e-01 -5.286764e-01
    outer loop
      vertex -5.066052e+01 -4.428336e+01 -4.831536e+02
      vertex -6.080000e+01 -5.797297e+01 -5.091714e+02
      vertex -6.050000e+01 -4.878141e+01 -5.002084e+02
    endloop
  endfacet
  facet normal 2.637114e-01 -9.593135e-01 1.008662e-01
    outer loop
      vertex -4.242370e+01 -4.210435e+01 -4.839645e+02
      vertex -5.066052e+01 -4.428336e+01 -4.831536e+02
      vertex -6.050000e+01 -4.878141e+01 -5.002084e+02
    endloop
  endfacet
  facet normal 4.124160e-01 -9.069128e-01 -8.615251e-02
    outer loop
      vertex -4.242370e+01 -4.210435e+01 -4.839645e+02
      vertex -6.050000e+01 -4.878141e+01 -5.002084e+02
      vertex -4.060000e+01 -3.995271e+01 -4.978844e+02
    endloop
  endfacet
  facet normal 7.414743e-01 -6.680598e-01 6.254598e-02
    outer loop
      vertex -6.480000e+01 -5.768957e+01 -4.587250e+02
      vertex -6.080000e+01 -5.797297e+01 -5.091714e+02
      vertex -5.066052e+01 -4.428336e+01 -4.831536e+02
    endloop
  endfacet
  facet normal 7.774527e-01 -6.192161e-01 1.101756e-01
    outer loop
      vertex -6.350000e+01 -5.317009e+01 -4.424977e+02
      vertex -6.480000e+01 -5.768957e+01 -4.587250e+02
      vertex -5.066052e+01 -4.428336e+01 -4.831536e+02
    endloop
  endfacet
  facet normal 9.553581e-01 -8.278690e-02 2.836146e-01
    outer loop
      vertex -6.090000e+01 -2.379089e+01 -4.426801e+02
      vertex -6.350000e+01 -5.317009e+01 -4.424977e+02
      vertex -5.066052e+01 -4.428336e+01 -4.831536e+02
    endloop
  endfacet
  facet normal 9.600916e-01 -5.986144e-02 2.732046e-01
    outer loop
      vertex -5.066082e+01 -2.915104e+01 -4.798369e+02
      vertex -6.090000e+01 -2.379089e+01 -4.426801e+02
      vertex -5.066052e+01 -4.428336e+01 -4.831536e+02
    endloop
  endfacet
  facet normal 1.331973e-01 -2.121853e-01 9.681094e-01
    outer loop
      vertex -4.209395e+01 -3.170210e+01 -4.815747e+02
      vertex -5.066082e+01 -2.915104e+01 -4.798369e+02
      vertex -5.066052e+01 -4.428336e+01 -4.831536e+02
    endloop
  endfacet
  facet normal 1.544435e-01 -2.258648e-01 9.618380e-01
    outer loop
      vertex -4.242370e+01 -4.210435e+01 -4.839645e+02
      vertex -4.209395e+01 -3.170210e+01 -4.815747e+02
      vertex -5.066052e+01 -4.428336e+01 -4.831536e+02
    endloop
  endfacet
  facet normal 9.602201e-01 -2.792429e-01 8.472822e-04
    outer loop
      vertex -6.641253e+01 -6.318634e+01 -4.428500e+02
      vertex -6.480000e+01 -5.768957e+01 -4.587250e+02
      vertex -6.350000e+01 -5.317009e+01 -4.424977e+02
    endloop
  endfacet
  facet normal 9.601222e-01 -2.794662e-01 8.005389e-03
    outer loop
      vertex -6.350000e+01 -5.233736e+01 -4.134274e+02
      vertex -6.641253e+01 -6.318634e+01 -4.428500e+02
      vertex -6.350000e+01 -5.317009e+01 -4.424977e+02
    endloop
  endfacet
  facet normal 1.000000e+00 4.910754e-15 5.778738e-14
    outer loop
      vertex -6.350000e+01 -2.369855e+01 -4.127872e+02
      vertex -6.350000e+01 -5.233736e+01 -4.134274e+02
      vertex -6.350000e+01 -5.317009e+01 -4.424977e+02
    endloop
  endfacet
  facet normal 9.924129e-01 -8.728913e-02 8.658693e-02
    outer loop
      vertex -6.350000e+01 -2.369855e+01 -4.127872e+02
      vertex -6.350000e+01 -5.317009e+01 -4.424977e+02
      vertex -6.090000e+01 -2.379089e+01 -4.426801e+02
    endloop
  endfacet
  facet normal 9.197913e-01 -3.889004e-01 5.234937e-02
    outer loop
      vertex -6.650000e+01 -6.056265e+01 -4.218219e+02
      vertex -6.641253e+01 -6.318634e+01 -4.428500e+02
      vertex -6.350000e+01 -5.233736e+01 -4.134274e+02
    endloop
  endfacet
  facet normal 8.989187e-01 1.059842e-01 -4.251030e-01
    outer loop
      vertex -5.066052e+01 -3.950000e+01 -3.830766e+02
      vertex -6.650000e+01 -6.056265e+01 -4.218219e+02
      vertex -6.350000e+01 -5.233736e+01 -4.134274e+02
    endloop
  endfacet
  facet normal 6.044820e-02 -9.282383e-01 3.670419e-01
    outer loop
      vertex -3.295000e+01 -3.834636e+01 -3.830759e+02
      vertex -5.066052e+01 -3.950000e+01 -3.830766e+02
      vertex -6.350000e+01 -5.233736e+01 -4.134274e+02
    endloop
  endfacet
  facet normal 4.444308e-01 2.002138e-02 -8.955894e-01
    outer loop
      vertex -2.596851e+01 -2.320911e+01 -3.941515e+02
      vertex -6.350000e+01 -5.233736e+01 -4.134274e+02
      vertex -6.350000e+01 -2.369855e+01 -4.127872e+02
    endloop
  endfacet
  facet normal 5.355129e-01 -1.387191e-01 -8.330564e-01
    outer loop
      vertex -2.596851e+01 -2.320911e+01 -3.941515e+02
      vertex -3.336813e+01 -3.862573e+01 -3.963410e+02
      vertex -6.350000e+01 -5.233736e+01 -4.134274e+02
    endloop
  endfacet
  facet normal 4.112477e-01 -9.115023e-01 6.234113e-03
    outer loop
      vertex -3.295000e+01 -3.834636e+01 -3.830759e+02
      vertex -6.350000e+01 -5.233736e+01 -4.134274e+02
      vertex -3.336813e+01 -3.862573e+01 -3.963410e+02
    endloop
  endfacet
  facet normal -1.599551e-01 -8.383511e-01 5.211351e-01
    outer loop
      vertex -6.650000e+01 -5.271390e+01 -4.091956e+02
      vertex -6.650000e+01 -6.056265e+01 -4.218219e+02
      vertex -5.066052e+01 -3.950000e+01 -3.830766e+02
    endloop
  endfacet
  facet normal -1.488527e-01 -9.730628e-01 1.760446e-01
    outer loop
      vertex -3.353934e+01 -3.950000e+01 -3.686000e+02
      vertex -5.856168e+01 -3.377622e+01 -3.581200e+02
      vertex -5.066052e+01 -3.950000e+01 -3.830766e+02
    endloop
  endfacet
  facet normal 6.481300e-02 -9.949491e-01 -7.665282e-02
    outer loop
      vertex -3.353934e+01 -3.950000e+01 -3.686000e+02
      vertex -5.066052e+01 -3.950000e+01 -3.830766e+02
      vertex -3.295000e+01 -3.834636e+01 -3.830759e+02
    endloop
  endfacet
  facet normal 7.651895e-01 -1.253801e-01 -6.314783e-01
    outer loop
      vertex -6.080000e+01 -2.137381e+01 -5.718363e+02
      vertex -4.708000e+01 -2.307915e+01 -5.548726e+02
      vertex -6.080000e+01 -3.632439e+01 -5.688679e+02
    endloop
  endfacet
  facet normal 7.687561e-01 2.232329e-01 -5.993172e-01
    outer loop
      vertex -6.050000e+01 5.772984e+00 -5.613399e+02
      vertex -4.708000e+01 -2.307915e+01 -5.548726e+02
      vertex -6.080000e+01 -2.137381e+01 -5.718363e+02
    endloop
  endfacet
  facet normal 5.638809e-01 7.798716e-02 -8.221657e-01
    outer loop
      vertex -4.112000e+01 -4.849219e+00 -5.490558e+02
      vertex -4.708000e+01 -2.307915e+01 -5.548726e+02
      vertex -6.050000e+01 5.772984e+00 -5.613399e+02
    endloop
  endfacet
  facet normal 5.333084e-14 3.039835e-01 -9.526773e-01
    outer loop
      vertex -4.112000e+01 -4.849219e+00 -5.490558e+02
      vertex -4.112000e+01 -2.307915e+01 -5.548726e+02
      vertex -4.708000e+01 -2.307915e+01 -5.548726e+02
    endloop
  endfacet
  facet normal 9.985613e-01 9.378340e-03 -5.279516e-02
    outer loop
      vertex -6.080000e+01 -6.335625e+00 -5.691650e+02
      vertex -6.050000e+01 5.772984e+00 -5.613399e+02
      vertex -6.080000e+01 -2.137381e+01 -5.718363e+02
    endloop
  endfacet
  facet normal 9.646761e-01 5.061368e-02 2.585311e-01
    outer loop
      vertex -6.250000e+01 5.772984e+00 -4.424977e+02
      vertex -6.090000e+01 -2.379089e+01 -4.426801e+02
      vertex -5.066082e+01 -2.915104e+01 -4.798369e+02
    endloop
  endfacet
  facet normal 9.304454e-01 -3.571306e-01 8.203068e-02
    outer loop
      vertex -5.066052e+01 1.083705e+01 -4.080660e+02
      vertex -6.350000e+01 -2.369855e+01 -4.127872e+02
      vertex -6.090000e+01 -2.379089e+01 -4.426801e+02
    endloop
  endfacet
  facet normal 9.419025e-01 5.302173e-02 -3.316751e-01
    outer loop
      vertex -5.066052e+01 1.083705e+01 -4.080660e+02
      vertex -6.090000e+01 -2.379089e+01 -4.426801e+02
      vertex -6.250000e+01 5.772984e+00 -4.424977e+02
    endloop
  endfacet
  facet normal 9.089934e-01 4.065267e-01 -9.201607e-02
    outer loop
      vertex -6.350000e+01 1.839009e+00 -4.697567e+02
      vertex -6.250000e+01 5.772984e+00 -4.424977e+02
      vertex -5.066082e+01 -2.915104e+01 -4.798369e+02
    endloop
  endfacet
  facet normal 9.177559e-01 2.930343e-01 2.680578e-01
    outer loop
      vertex -5.570000e+01 -1.560206e+00 -4.927458e+02
      vertex -6.350000e+01 1.839009e+00 -4.697567e+02
      vertex -5.066082e+01 -2.915104e+01 -4.798369e+02
    endloop
  endfacet
  facet normal 3.040847e-01 4.487111e-01 8.403516e-01
    outer loop
      vertex -5.570000e+01 -1.560206e+00 -4.927458e+02
      vertex -5.066082e+01 -2.915104e+01 -4.798369e+02
      vertex -4.209395e+01 -3.170210e+01 -4.815747e+02
    endloop
  endfacet
  facet normal 1.116020e-01 9.375365e-02 -9.893206e-01
    outer loop
      vertex -2.873327e+01 8.587174e+00 -4.058057e+02
      vertex -6.350000e+01 -2.369855e+01 -4.127872e+02
      vertex -5.066052e+01 1.083705e+01 -4.080660e+02
    endloop
  endfacet
  facet normal 4.301681e-01 -2.774622e-01 -8.590519e-01
    outer loop
      vertex -2.873327e+01 8.587174e+00 -4.058057e+02
      vertex -2.596851e+01 -2.320911e+01 -3.941515e+02
      vertex -6.350000e+01 -2.369855e+01 -4.127872e+02
    endloop
  endfacet
  facet normal 4.108204e-01 -6.190956e-01 6.692886e-01
    outer loop
      vertex -2.534469e+01 -2.036102e+01 -3.661000e+02
      vertex -5.088284e+01 -2.354138e+01 -3.533661e+02
      vertex -5.856168e+01 -3.377622e+01 -3.581200e+02
    endloop
  endfacet
  facet normal 3.226881e-01 -2.571493e-01 9.109043e-01
    outer loop
      vertex -3.353934e+01 -3.950000e+01 -3.686000e+02
      vertex -2.534469e+01 -2.036102e+01 -3.661000e+02
      vertex -5.856168e+01 -3.377622e+01 -3.581200e+02
    endloop
  endfacet
  facet normal -9.872699e-01 1.028606e-01 -1.213172e-01
    outer loop
      vertex -6.080000e+01 1.555515e+01 -5.506046e+02
      vertex -6.050000e+01 5.772984e+00 -5.613399e+02
      vertex -6.080000e+01 -6.335625e+00 -5.691650e+02
    endloop
  endfacet
  facet normal 9.987145e-01 4.811820e-02 -1.593671e-02
    outer loop
      vertex -6.080000e+01 2.046487e+01 -5.357805e+02
      vertex -6.050000e+01 5.772984e+00 -5.613399e+02
      vertex -6.080000e+01 1.555515e+01 -5.506046e+02
    endloop
  endfacet
  facet normal 8.071622e-01 5.158456e-01 -2.870410e-01
    outer loop
      vertex -4.830000e+01 3.330270e+00 -5.314232e+02
      vertex -6.050000e+01 5.772984e+00 -5.613399e+02
      vertex -6.080000e+01 2.046487e+01 -5.357805e+02
    endloop
  endfacet
  facet normal 5.810608e-01 7.954764e-01 -1.720051e-01
    outer loop
      vertex -3.860000e+01 -3.651955e+00 -5.309460e+02
      vertex -6.050000e+01 5.772984e+00 -5.613399e+02
      vertex -4.830000e+01 3.330270e+00 -5.314232e+02
    endloop
  endfacet
  facet normal 5.386547e-01 8.324387e-01 -1.299881e-01
    outer loop
      vertex -4.112000e+01 -4.849219e+00 -5.490558e+02
      vertex -6.050000e+01 5.772984e+00 -5.613399e+02
      vertex -3.860000e+01 -3.651955e+00 -5.309460e+02
    endloop
  endfacet
  facet normal 1.000000e+00 5.880218e-15 5.814522e-14
    outer loop
      vertex -6.080000e+01 6.160586e+00 -5.618746e+02
      vertex -6.080000e+01 1.555515e+01 -5.506046e+02
      vertex -6.080000e+01 -6.335625e+00 -5.691650e+02
    endloop
  endfacet
  facet normal 9.993098e-01 2.699190e-03 -3.704948e-02
    outer loop
      vertex -6.250000e+01 1.946800e+01 -4.415000e+02
      vertex -6.250000e+01 5.772984e+00 -4.424977e+02
      vertex -6.350000e+01 1.839009e+00 -4.697567e+02
    endloop
  endfacet
  facet normal 9.617729e-01 -1.090741e-01 2.511886e-01
    outer loop
      vertex -6.480000e+01 1.538016e+01 -4.588991e+02
      vertex -6.350000e+01 1.839009e+00 -4.697567e+02
      vertex -5.620000e+01 1.488884e+00 -4.978596e+02
    endloop
  endfacet
  facet normal 8.425320e-01 4.948764e-01 2.126903e-01
    outer loop
      vertex -5.570000e+01 -1.560206e+00 -4.927458e+02
      vertex -5.620000e+01 1.488884e+00 -4.978596e+02
      vertex -6.350000e+01 1.839009e+00 -4.697567e+02
    endloop
  endfacet
  facet normal 9.542025e-01 2.374833e-01 -1.819321e-01
    outer loop
      vertex -6.250000e+01 1.946800e+01 -4.415000e+02
      vertex -6.350000e+01 1.839009e+00 -4.697567e+02
      vertex -6.480000e+01 1.538016e+01 -4.588991e+02
    endloop
  endfacet
  facet normal 7.919337e-02 -2.076949e-01 -9.749827e-01
    outer loop
      vertex -3.333272e+01 1.760361e+01 -4.081000e+02
      vertex -2.873327e+01 8.587174e+00 -4.058057e+02
      vertex -5.066052e+01 1.083705e+01 -4.080660e+02
    endloop
  endfacet
  facet normal 7.900382e-01 6.036105e-01 1.072104e-01
    outer loop
      vertex -6.080000e+01 1.569216e+01 -5.089094e+02
      vertex -4.830000e+01 3.330270e+00 -5.314232e+02
      vertex -6.080000e+01 2.046487e+01 -5.357805e+02
    endloop
  endfacet
  facet normal 8.605398e-01 4.557321e-01 2.275511e-01
    outer loop
      vertex -5.620000e+01 1.488884e+00 -4.978596e+02
      vertex -4.830000e+01 3.330270e+00 -5.314232e+02
      vertex -6.080000e+01 1.569216e+01 -5.089094e+02
    endloop
  endfacet
  facet normal 4.323761e-01 8.890372e-01 1.505448e-01
    outer loop
      vertex -4.112000e+01 -3.571079e+00 -5.112891e+02
      vertex -4.830000e+01 3.330270e+00 -5.314232e+02
      vertex -5.620000e+01 1.488884e+00 -4.978596e+02
    endloop
  endfacet
  facet normal 5.804236e-01 8.112072e-01 7.107229e-02
    outer loop
      vertex -4.112000e+01 -3.571079e+00 -5.112891e+02
      vertex -3.860000e+01 -3.651955e+00 -5.309460e+02
      vertex -4.830000e+01 3.330270e+00 -5.314232e+02
    endloop
  endfacet
  facet normal 9.295523e-01 3.606454e-01 7.659880e-02
    outer loop
      vertex -6.480000e+01 1.538016e+01 -4.588991e+02
      vertex -5.620000e+01 1.488884e+00 -4.978596e+02
      vertex -6.080000e+01 1.569216e+01 -5.089094e+02
    endloop
  endfacet
  facet normal 5.776772e-01 7.247054e-01 3.756211e-01
    outer loop
      vertex -5.570000e+01 -1.560206e+00 -4.927458e+02
      vertex -4.112000e+01 -3.571079e+00 -5.112891e+02
      vertex -5.620000e+01 1.488884e+00 -4.978596e+02
    endloop
  endfacet
  facet normal 9.895238e-01 -6.112491e-02 -1.307915e-01
    outer loop
      vertex -4.112000e+01 -2.307915e+01 -5.548726e+02
      vertex -3.860000e+01 -2.690730e+01 -5.340181e+02
      vertex -4.112000e+01 -3.920538e+01 -5.473361e+02
    endloop
  endfacet
  facet normal 9.887497e-01 -1.365968e-01 -6.095291e-02
    outer loop
      vertex -4.112000e+01 -4.639106e+01 -5.312328e+02
      vertex -4.112000e+01 -3.920538e+01 -5.473361e+02
      vertex -3.860000e+01 -2.690730e+01 -5.340181e+02
    endloop
  endfacet
  facet normal 9.929937e-01 1.547601e-02 -1.171496e-01
    outer loop
      vertex -3.860000e+01 -3.651955e+00 -5.309460e+02
      vertex -3.860000e+01 -2.690730e+01 -5.340181e+02
      vertex -4.112000e+01 -2.307915e+01 -5.548726e+02
    endloop
  endfacet
  facet normal 9.918986e-01 -1.261303e-01 1.511268e-02
    outer loop
      vertex -3.860313e+01 -2.324402e+01 -5.032389e+02
      vertex -4.112000e+01 -4.639106e+01 -5.312328e+02
      vertex -3.860000e+01 -2.690730e+01 -5.340181e+02
    endloop
  endfacet
  facet normal 9.925343e-01 1.211228e-01 -1.431485e-02
    outer loop
      vertex -4.112000e+01 -3.571079e+00 -5.112891e+02
      vertex -3.860313e+01 -2.324402e+01 -5.032389e+02
      vertex -3.860000e+01 -2.690730e+01 -5.340181e+02
    endloop
  endfacet
  facet normal 9.917336e-01 -1.680487e-02 1.272087e-01
    outer loop
      vertex -4.112000e+01 -3.571079e+00 -5.112891e+02
      vertex -3.860000e+01 -2.690730e+01 -5.340181e+02
      vertex -3.860000e+01 -3.651955e+00 -5.309460e+02
    endloop
  endfacet
  facet normal 9.890506e-01 4.486102e-02 -1.405934e-01
    outer loop
      vertex -4.112000e+01 -4.849219e+00 -5.490558e+02
      vertex -3.860000e+01 -3.651955e+00 -5.309460e+02
      vertex -4.112000e+01 -2.307915e+01 -5.548726e+02
    endloop
  endfacet
  facet normal 9.931716e-01 -1.164527e-01 6.996261e-03
    outer loop
      vertex -4.060000e+01 -3.995271e+01 -4.978844e+02
      vertex -4.112000e+01 -4.639106e+01 -5.312328e+02
      vertex -3.860313e+01 -2.324402e+01 -5.032389e+02
    endloop
  endfacet
  facet normal 9.886275e-01 -7.669788e-02 1.293568e-01
    outer loop
      vertex -4.209395e+01 -3.170210e+01 -4.815747e+02
      vertex -4.060000e+01 -3.995271e+01 -4.978844e+02
      vertex -3.860313e+01 -2.324402e+01 -5.032389e+02
    endloop
  endfacet
  facet normal 8.130635e-01 4.858756e-01 3.207065e-01
    outer loop
      vertex -5.570000e+01 -1.560206e+00 -4.927458e+02
      vertex -4.209395e+01 -3.170210e+01 -4.815747e+02
      vertex -3.860313e+01 -2.324402e+01 -5.032389e+02
    endloop
  endfacet
  facet normal 7.597668e-01 3.271331e-01 5.619060e-01
    outer loop
      vertex -5.570000e+01 -1.560206e+00 -4.927458e+02
      vertex -3.860313e+01 -2.324402e+01 -5.032389e+02
      vertex -4.112000e+01 -3.571079e+00 -5.112891e+02
    endloop
  endfacet
  facet normal 9.909279e-01 -5.913727e-02 1.206841e-01
    outer loop
      vertex -4.242370e+01 -4.210435e+01 -4.839645e+02
      vertex -4.060000e+01 -3.995271e+01 -4.978844e+02
      vertex -4.209395e+01 -3.170210e+01 -4.815747e+02
    endloop
  endfacet
  facet normal 9.030572e-01 -4.223346e-01 -7.823753e-02
    outer loop
      vertex -2.596851e+01 -2.320911e+01 -3.941515e+02
      vertex -2.478200e+01 -2.272344e+01 -3.830778e+02
      vertex -3.336813e+01 -3.862573e+01 -3.963410e+02
    endloop
  endfacet
  facet normal 8.860437e-01 -4.632454e-01 -1.817239e-02
    outer loop
      vertex -3.295000e+01 -3.834636e+01 -3.830759e+02
      vertex -3.336813e+01 -3.862573e+01 -3.963410e+02
      vertex -2.478200e+01 -2.272344e+01 -3.830778e+02
    endloop
  endfacet
  facet normal 9.937252e-01 2.987625e-02 -1.077854e-01
    outer loop
      vertex -2.559507e+01 4.320782e+00 -3.830778e+02
      vertex -2.478200e+01 -2.272344e+01 -3.830778e+02
      vertex -2.596851e+01 -2.320911e+01 -3.941515e+02
    endloop
  endfacet
  facet normal 8.823195e-01 -4.612843e-01 9.342918e-02
    outer loop
      vertex -2.534469e+01 -2.036102e+01 -3.661000e+02
      vertex -3.295000e+01 -3.834636e+01 -3.830759e+02
      vertex -2.478200e+01 -2.272344e+01 -3.830778e+02
    endloop
  endfacet
  facet normal 9.938973e-01 1.088646e-01 1.779240e-02
    outer loop
      vertex -2.796519e+01 3.563300e+00 -3.661000e+02
      vertex -2.534469e+01 -2.036102e+01 -3.661000e+02
      vertex -2.478200e+01 -2.272344e+01 -3.830778e+02
    endloop
  endfacet
  facet normal 9.897747e-01 2.975709e-02 1.395014e-01
    outer loop
      vertex -2.796519e+01 3.563300e+00 -3.661000e+02
      vertex -2.478200e+01 -2.272344e+01 -3.830778e+02
      vertex -2.559507e+01 4.320782e+00 -3.830778e+02
    endloop
  endfacet
  facet normal 9.908186e-01 3.867030e-02 -1.295499e-01
    outer loop
      vertex -2.873327e+01 8.587174e+00 -4.058057e+02
      vertex -2.559507e+01 4.320782e+00 -3.830778e+02
      vertex -2.596851e+01 -2.320911e+01 -3.941515e+02
    endloop
  endfacet
  facet normal 9.189802e-01 -3.942582e-01 5.993143e-03
    outer loop
      vertex -3.353934e+01 -3.950000e+01 -3.686000e+02
      vertex -3.295000e+01 -3.834636e+01 -3.830759e+02
      vertex -2.534469e+01 -2.036102e+01 -3.661000e+02
    endloop
  endfacet
  facet normal 8.638138e-01 5.031997e-01 -2.481390e-02
    outer loop
      vertex -3.333272e+01 1.760361e+01 -3.830766e+02
      vertex -2.559507e+01 4.320782e+00 -3.830778e+02
      vertex -2.873327e+01 8.587174e+00 -4.058057e+02
    endloop
  endfacet
  facet normal 8.907926e-01 4.544100e-01 7.272026e-14
    outer loop
      vertex -3.333272e+01 1.760361e+01 -4.081000e+02
      vertex -3.333272e+01 1.760361e+01 -3.830766e+02
      vertex -2.873327e+01 8.587174e+00 -4.058057e+02
    endloop
  endfacet
endsolid SIM_ECUB_R_UPPER_LEG
