solid SIM_ECUB_L_ANKLE_PITCH
  facet normal -9.005193e-01 -4.208434e-01 -1.093428e-01
    outer loop
      vertex 6.256279e+01 -9.049137e+01 -8.826824e+02
      vertex 5.383407e+01 -7.215000e+01 -8.813880e+02
      vertex 6.360498e+01 -9.049137e+01 -8.912657e+02
    endloop
  endfacet
  facet normal -9.041337e-01 -3.980426e-01 -1.552560e-01
    outer loop
      vertex 5.641922e+01 -7.215000e+01 -8.964426e+02
      vertex 6.360498e+01 -9.049137e+01 -8.912657e+02
      vertex 5.383407e+01 -7.215000e+01 -8.813880e+02
    endloop
  endfacet
  facet normal -1.366033e-01 -9.904870e-01 -1.658665e-02
    outer loop
      vertex 7.362893e+01 -9.203424e+01 -8.816864e+02
      vertex 6.256279e+01 -9.049137e+01 -8.826824e+02
      vertex 6.360498e+01 -9.049137e+01 -8.912657e+02
    endloop
  endfacet
  facet normal -4.222848e-01 -3.956400e-01 -8.155639e-01
    outer loop
      vertex 6.996541e+01 -8.542652e+01 -8.970160e+02
      vertex 6.360498e+01 -9.049137e+01 -8.912657e+02
      vertex 5.641922e+01 -7.215000e+01 -8.964426e+02
    endloop
  endfacet
  facet normal -7.651911e-02 -9.938534e-01 -8.000207e-02
    outer loop
      vertex 7.009987e+01 -9.053478e+01 -8.969385e+02
      vertex 7.362893e+01 -9.203424e+01 -8.816864e+02
      vertex 6.360498e+01 -9.049137e+01 -8.912657e+02
    endloop
  endfacet
  facet normal -6.576731e-01 -2.873063e-02 -7.527553e-01
    outer loop
      vertex 6.996541e+01 -8.542652e+01 -8.970160e+02
      vertex 7.009987e+01 -9.053478e+01 -8.969385e+02
      vertex 6.360498e+01 -9.049137e+01 -8.912657e+02
    endloop
  endfacet
  facet normal -8.027262e-01 -4.124189e-01 4.307452e-01
    outer loop
      vertex 5.951695e+01 -7.215000e+01 -8.707975e+02
      vertex 5.383407e+01 -7.215000e+01 -8.813880e+02
      vertex 6.256279e+01 -9.049137e+01 -8.826824e+02
    endloop
  endfacet
  facet normal -9.855747e-01 1.858740e-14 -1.692409e-01
    outer loop
      vertex 5.641922e+01 -6.565000e+01 -8.964426e+02
      vertex 5.641922e+01 -7.215000e+01 -8.964426e+02
      vertex 5.383407e+01 -7.215000e+01 -8.813880e+02
    endloop
  endfacet
  facet normal -8.811538e-01 -5.779361e-15 4.728297e-01
    outer loop
      vertex 5.383407e+01 -6.565000e+01 -8.813880e+02
      vertex 5.383407e+01 -7.215000e+01 -8.813880e+02
      vertex 5.951695e+01 -7.215000e+01 -8.707975e+02
    endloop
  endfacet
  facet normal -9.855747e-01 -6.464243e-15 -1.692409e-01
    outer loop
      vertex 5.383407e+01 -6.565000e+01 -8.813880e+02
      vertex 5.641922e+01 -6.565000e+01 -8.964426e+02
      vertex 5.383407e+01 -7.215000e+01 -8.813880e+02
    endloop
  endfacet
  facet normal -1.503165e-01 -9.758614e-01 1.584279e-01
    outer loop
      vertex 7.200227e+01 -9.049137e+01 -8.737262e+02
      vertex 6.256279e+01 -9.049137e+01 -8.826824e+02
      vertex 7.362893e+01 -9.203424e+01 -8.816864e+02
    endloop
  endfacet
  facet normal -8.092972e-01 -4.081349e-01 4.224499e-01
    outer loop
      vertex 6.524209e+01 -9.042639e+01 -8.774868e+02
      vertex 5.951695e+01 -7.215000e+01 -8.707975e+02
      vertex 6.256279e+01 -9.049137e+01 -8.826824e+02
    endloop
  endfacet
  facet normal -2.321975e-02 -9.994308e-01 2.447273e-02
    outer loop
      vertex 7.200227e+01 -9.049137e+01 -8.737262e+02
      vertex 6.524209e+01 -9.042639e+01 -8.774868e+02
      vertex 6.256279e+01 -9.049137e+01 -8.826824e+02
    endloop
  endfacet
  facet normal -5.942520e-01 -5.823653e-01 -5.547209e-01
    outer loop
      vertex 6.235609e+01 -7.215000e+01 -9.028026e+02
      vertex 6.996541e+01 -8.542652e+01 -8.970160e+02
      vertex 5.641922e+01 -7.215000e+01 -8.964426e+02
    endloop
  endfacet
  facet normal -7.310027e-01 6.341293e-15 -6.823746e-01
    outer loop
      vertex 6.235609e+01 -6.565000e+01 -9.028026e+02
      vertex 6.235609e+01 -7.215000e+01 -9.028026e+02
      vertex 5.641922e+01 -7.215000e+01 -8.964426e+02
    endloop
  endfacet
  facet normal -7.310027e-01 4.046880e-15 -6.823746e-01
    outer loop
      vertex 5.641922e+01 -6.565000e+01 -8.964426e+02
      vertex 6.235609e+01 -6.565000e+01 -9.028026e+02
      vertex 5.641922e+01 -7.215000e+01 -8.964426e+02
    endloop
  endfacet
  facet normal 1.239661e-01 -9.843240e-01 -1.254538e-01
    outer loop
      vertex 8.569535e+01 -9.055000e+01 -8.814085e+02
      vertex 7.362893e+01 -9.203424e+01 -8.816864e+02
      vertex 7.009987e+01 -9.053478e+01 -8.969385e+02
    endloop
  endfacet
  facet normal 4.492185e-02 -9.789836e-01 1.989299e-01
    outer loop
      vertex 8.041271e+01 -9.035000e+01 -8.749297e+02
      vertex 7.200227e+01 -9.049137e+01 -8.737262e+02
      vertex 7.362893e+01 -9.203424e+01 -8.816864e+02
    endloop
  endfacet
  facet normal 1.182231e-01 -9.848581e-01 1.267987e-01
    outer loop
      vertex 8.041271e+01 -9.035000e+01 -8.749297e+02
      vertex 7.362893e+01 -9.203424e+01 -8.816864e+02
      vertex 8.569535e+01 -9.055000e+01 -8.814085e+02
    endloop
  endfacet
  facet normal 1.890245e-01 -9.919999e-03 -9.819223e-01
    outer loop
      vertex 8.276128e+01 -8.542652e+01 -8.945527e+02
      vertex 7.009987e+01 -9.053478e+01 -8.969385e+02
      vertex 6.996541e+01 -8.542652e+01 -8.970160e+02
    endloop
  endfacet
  facet normal 1.980369e-01 -3.332972e-02 -9.796278e-01
    outer loop
      vertex 8.276128e+01 -8.542652e+01 -8.945527e+02
      vertex 8.262552e+01 -9.055000e+01 -8.944059e+02
      vertex 7.009987e+01 -9.053478e+01 -8.969385e+02
    endloop
  endfacet
  facet normal -1.276378e-03 -9.999991e-01 3.014660e-04
    outer loop
      vertex 8.569535e+01 -9.055000e+01 -8.814085e+02
      vertex 7.009987e+01 -9.053478e+01 -8.969385e+02
      vertex 8.262552e+01 -9.055000e+01 -8.944059e+02
    endloop
  endfacet
  facet normal -3.177278e-01 -5.259595e-01 -7.889332e-01
    outer loop
      vertex 7.113094e+01 -7.215000e+01 -9.063365e+02
      vertex 6.996541e+01 -8.542652e+01 -8.970160e+02
      vertex 6.235609e+01 -7.215000e+01 -9.028026e+02
    endloop
  endfacet
  facet normal 1.544286e-01 -5.767283e-01 -8.022071e-01
    outer loop
      vertex 8.276128e+01 -8.542652e+01 -8.945527e+02
      vertex 6.996541e+01 -8.542652e+01 -8.970160e+02
      vertex 7.113094e+01 -7.215000e+01 -9.063365e+02
    endloop
  endfacet
  facet normal -4.433161e-01 -4.272755e-01 7.879762e-01
    outer loop
      vertex 6.950303e+01 -7.215000e+01 -8.651793e+02
      vertex 5.951695e+01 -7.215000e+01 -8.707975e+02
      vertex 6.524209e+01 -9.042639e+01 -8.774868e+02
    endloop
  endfacet
  facet normal -4.903280e-01 -8.365097e-16 8.715380e-01
    outer loop
      vertex 5.951695e+01 -6.565000e+01 -8.707975e+02
      vertex 5.951695e+01 -7.215000e+01 -8.707975e+02
      vertex 6.950303e+01 -7.215000e+01 -8.651793e+02
    endloop
  endfacet
  facet normal -8.811538e-01 -2.064612e-14 4.728297e-01
    outer loop
      vertex 5.383407e+01 -6.565000e+01 -8.813880e+02
      vertex 5.951695e+01 -7.215000e+01 -8.707975e+02
      vertex 5.951695e+01 -6.565000e+01 -8.707975e+02
    endloop
  endfacet
  facet normal -4.425820e-01 -4.276044e-01 7.882104e-01
    outer loop
      vertex 6.950303e+01 -7.215000e+01 -8.651793e+02
      vertex 6.524209e+01 -9.042639e+01 -8.774868e+02
      vertex 7.200227e+01 -9.049137e+01 -8.737262e+02
    endloop
  endfacet
  facet normal -2.337174e-02 -4.248801e-01 9.049479e-01
    outer loop
      vertex 9.193441e+01 -7.215000e+01 -8.646000e+02
      vertex 6.950303e+01 -7.215000e+01 -8.651793e+02
      vertex 7.200227e+01 -9.049137e+01 -8.737262e+02
    endloop
  endfacet
  facet normal 1.274074e-01 -5.493617e-01 8.258142e-01
    outer loop
      vertex 8.041271e+01 -9.035000e+01 -8.749297e+02
      vertex 9.193441e+01 -7.215000e+01 -8.646000e+02
      vertex 7.200227e+01 -9.049137e+01 -8.737262e+02
    endloop
  endfacet
  facet normal -4.903280e-01 -1.631415e-14 8.715380e-01
    outer loop
      vertex 5.951695e+01 -6.565000e+01 -8.707975e+02
      vertex 6.950303e+01 -7.215000e+01 -8.651793e+02
      vertex 6.950303e+01 -6.565000e+01 -8.651793e+02
    endloop
  endfacet
  facet normal -3.788780e-01 -1.700924e-14 9.254466e-01
    outer loop
      vertex 9.710000e+01 -6.003226e+01 -8.538811e+02
      vertex 6.950303e+01 -6.565000e+01 -8.651793e+02
      vertex 6.950303e+01 -7.215000e+01 -8.651793e+02
    endloop
  endfacet
  facet normal -1.944679e-02 -6.577621e-01 7.529746e-01
    outer loop
      vertex 9.710000e+01 -6.003226e+01 -8.538811e+02
      vertex 6.950303e+01 -7.215000e+01 -8.651793e+02
      vertex 9.193441e+01 -7.215000e+01 -8.646000e+02
    endloop
  endfacet
  facet normal -3.735734e-01 1.340467e-14 -9.276006e-01
    outer loop
      vertex 7.113094e+01 -6.565000e+01 -9.063365e+02
      vertex 6.235609e+01 -7.215000e+01 -9.028026e+02
      vertex 6.235609e+01 -6.565000e+01 -9.028026e+02
    endloop
  endfacet
  facet normal -3.735734e-01 2.929181e-14 -9.276006e-01
    outer loop
      vertex 7.113094e+01 -6.565000e+01 -9.063365e+02
      vertex 7.113094e+01 -7.215000e+01 -9.063365e+02
      vertex 6.235609e+01 -7.215000e+01 -9.028026e+02
    endloop
  endfacet
  facet normal -5.062166e-15 1.000000e+00 1.091557e-14
    outer loop
      vertex 6.711090e+01 -6.565000e+01 -9.045032e+02
      vertex 6.235609e+01 -6.565000e+01 -9.028026e+02
      vertex 5.641922e+01 -6.565000e+01 -8.964426e+02
    endloop
  endfacet
  facet normal -3.008686e-15 1.000000e+00 1.665704e-14
    outer loop
      vertex 6.711090e+01 -6.565000e+01 -9.045032e+02
      vertex 7.113094e+01 -6.565000e+01 -9.063365e+02
      vertex 6.235609e+01 -6.565000e+01 -9.028026e+02
    endloop
  endfacet
  facet normal -5.458291e-15 1.000000e+00 1.039014e-14
    outer loop
      vertex 5.383407e+01 -6.565000e+01 -8.813880e+02
      vertex 6.711090e+01 -6.565000e+01 -9.045032e+02
      vertex 5.641922e+01 -6.565000e+01 -8.964426e+02
    endloop
  endfacet
  facet normal 1.158423e-01 1.331929e-14 -9.932676e-01
    outer loop
      vertex 8.238065e+01 -6.565000e+01 -9.050244e+02
      vertex 7.113094e+01 -7.215000e+01 -9.063365e+02
      vertex 7.113094e+01 -6.565000e+01 -9.063365e+02
    endloop
  endfacet
  facet normal 1.158423e-01 1.762580e-14 -9.932676e-01
    outer loop
      vertex 8.238065e+01 -7.215000e+01 -9.050244e+02
      vertex 7.113094e+01 -7.215000e+01 -9.063365e+02
      vertex 8.238065e+01 -6.565000e+01 -9.050244e+02
    endloop
  endfacet
  facet normal 9.133715e-02 -6.150849e-01 -7.831527e-01
    outer loop
      vertex 8.238065e+01 -7.215000e+01 -9.050244e+02
      vertex 8.276128e+01 -8.542652e+01 -8.945527e+02
      vertex 7.113094e+01 -7.215000e+01 -9.063365e+02
    endloop
  endfacet
  facet normal -5.177644e-15 1.000000e+00 1.190099e-14
    outer loop
      vertex 6.711090e+01 -6.565000e+01 -9.045032e+02
      vertex 8.238065e+01 -6.565000e+01 -9.050244e+02
      vertex 7.113094e+01 -6.565000e+01 -9.063365e+02
    endloop
  endfacet
  facet normal -5.165572e-15 1.000000e+00 1.225460e-14
    outer loop
      vertex 6.711090e+01 -6.565000e+01 -9.045032e+02
      vertex 8.959477e+01 -6.565000e+01 -9.008239e+02
      vertex 8.238065e+01 -6.565000e+01 -9.050244e+02
    endloop
  endfacet
  facet normal 5.031829e-01 1.621485e-14 -8.641799e-01
    outer loop
      vertex 8.238065e+01 -7.215000e+01 -9.050244e+02
      vertex 8.238065e+01 -6.565000e+01 -9.050244e+02
      vertex 8.959477e+01 -6.565000e+01 -9.008239e+02
    endloop
  endfacet
  facet normal 4.339768e-02 9.632155e-01 -2.652027e-01
    outer loop
      vertex 9.710000e+01 -6.003226e+01 -8.791921e+02
      vertex 8.959477e+01 -6.565000e+01 -9.008239e+02
      vertex 6.711090e+01 -6.565000e+01 -9.045032e+02
    endloop
  endfacet
  facet normal 7.095816e-01 -4.237120e-01 -5.629938e-01
    outer loop
      vertex 8.238065e+01 -7.215000e+01 -9.050244e+02
      vertex 8.959477e+01 -6.565000e+01 -9.008239e+02
      vertex 8.276128e+01 -8.542652e+01 -8.945527e+02
    endloop
  endfacet
  facet normal 5.971908e-01 -4.225435e-01 -6.817772e-01
    outer loop
      vertex 1.041000e+02 -6.003226e+01 -8.916000e+02
      vertex 8.276128e+01 -8.542652e+01 -8.945527e+02
      vertex 8.959477e+01 -6.565000e+01 -9.008239e+02
    endloop
  endfacet
  facet normal -9.205206e-01 -1.535499e-01 3.592552e-01
    outer loop
      vertex 9.360000e+01 -3.350893e+01 -8.768238e+02
      vertex 8.959477e+01 -6.565000e+01 -9.008239e+02
      vertex 9.710000e+01 -6.003226e+01 -8.791921e+02
    endloop
  endfacet
  facet normal -9.243014e-01 2.955259e-01 -2.415189e-01
    outer loop
      vertex 9.710000e+01 -3.463801e+01 -8.916000e+02
      vertex 8.959477e+01 -6.565000e+01 -9.008239e+02
      vertex 9.360000e+01 -3.350893e+01 -8.768238e+02
    endloop
  endfacet
  facet normal 5.365984e-01 1.283469e-14 -8.438378e-01
    outer loop
      vertex 1.041000e+02 -3.463801e+01 -8.916000e+02
      vertex 1.041000e+02 -6.003226e+01 -8.916000e+02
      vertex 8.959477e+01 -6.565000e+01 -9.008239e+02
    endloop
  endfacet
  facet normal 1.730329e-14 2.850876e-01 -9.585015e-01
    outer loop
      vertex 1.041000e+02 -3.463801e+01 -8.916000e+02
      vertex 8.959477e+01 -6.565000e+01 -9.008239e+02
      vertex 9.710000e+01 -3.463801e+01 -8.916000e+02
    endloop
  endfacet
  facet normal -4.975346e-15 1.000000e+00 1.066754e-14
    outer loop
      vertex 5.383407e+01 -6.565000e+01 -8.813880e+02
      vertex 6.711090e+01 -6.565000e+01 -8.791921e+02
      vertex 6.711090e+01 -6.565000e+01 -9.045032e+02
    endloop
  endfacet
  facet normal -1.841233e-01 9.829031e-01 1.048897e-14
    outer loop
      vertex 9.710000e+01 -6.003226e+01 -8.791921e+02
      vertex 6.711090e+01 -6.565000e+01 -9.045032e+02
      vertex 6.711090e+01 -6.565000e+01 -8.791921e+02
    endloop
  endfacet
  facet normal -6.311707e-15 1.000000e+00 1.121880e-14
    outer loop
      vertex 5.951695e+01 -6.565000e+01 -8.707975e+02
      vertex 6.950303e+01 -6.565000e+01 -8.651793e+02
      vertex 6.711090e+01 -6.565000e+01 -8.791921e+02
    endloop
  endfacet
  facet normal -9.075919e-01 3.902205e-01 1.549353e-01
    outer loop
      vertex 8.320000e+01 -3.905099e+01 -8.519365e+02
      vertex 6.711090e+01 -6.565000e+01 -8.791921e+02
      vertex 6.950303e+01 -6.565000e+01 -8.651793e+02
    endloop
  endfacet
  facet normal -5.228571e-15 1.000000e+00 1.219862e-14
    outer loop
      vertex 5.383407e+01 -6.565000e+01 -8.813880e+02
      vertex 5.951695e+01 -6.565000e+01 -8.707975e+02
      vertex 6.711090e+01 -6.565000e+01 -8.791921e+02
    endloop
  endfacet
  facet normal -1.625945e-02 8.679761e-02 -9.960933e-01
    outer loop
      vertex 9.360000e+01 -3.350893e+01 -8.768238e+02
      vertex 9.710000e+01 -6.003226e+01 -8.791921e+02
      vertex 6.711090e+01 -6.565000e+01 -8.791921e+02
    endloop
  endfacet
  facet normal -8.906477e-01 4.454974e-01 9.098777e-02
    outer loop
      vertex 8.320000e+01 -3.560656e+01 -8.688013e+02
      vertex 6.711090e+01 -6.565000e+01 -8.791921e+02
      vertex 8.320000e+01 -3.905099e+01 -8.519365e+02
    endloop
  endfacet
  facet normal -5.833472e-01 5.263478e-01 -6.185984e-01
    outer loop
      vertex 9.360000e+01 -3.350893e+01 -8.768238e+02
      vertex 6.711090e+01 -6.565000e+01 -8.791921e+02
      vertex 8.320000e+01 -3.560656e+01 -8.688013e+02
    endloop
  endfacet
  facet normal -7.086870e-02 -8.133087e-01 5.775003e-01
    outer loop
      vertex 9.710000e+01 -4.897862e+01 -8.383140e+02
      vertex 6.950303e+01 -6.565000e+01 -8.651793e+02
      vertex 9.710000e+01 -6.003226e+01 -8.538811e+02
    endloop
  endfacet
  facet normal -8.659983e-01 4.915743e-01 -9.166052e-02
    outer loop
      vertex 8.320000e+01 -3.541318e+01 -8.324270e+02
      vertex 8.320000e+01 -3.905099e+01 -8.519365e+02
      vertex 6.950303e+01 -6.565000e+01 -8.651793e+02
    endloop
  endfacet
  facet normal -6.590814e-01 -3.948051e-01 6.401099e-01
    outer loop
      vertex 8.320000e+01 -3.923234e+01 -8.347826e+02
      vertex 8.320000e+01 -3.541318e+01 -8.324270e+02
      vertex 6.950303e+01 -6.565000e+01 -8.651793e+02
    endloop
  endfacet
  facet normal -2.832013e-01 -6.570374e-01 6.986407e-01
    outer loop
      vertex 9.710000e+01 -4.897862e+01 -8.383140e+02
      vertex 8.320000e+01 -3.923234e+01 -8.347826e+02
      vertex 6.950303e+01 -6.565000e+01 -8.651793e+02
    endloop
  endfacet
  facet normal -7.306351e-01 3.170737e-02 -6.820315e-01
    outer loop
      vertex 5.641922e+01 2.335000e+01 -8.964426e+02
      vertex 5.680829e+01 3.926250e+01 -8.961197e+02
      vertex 6.235609e+01 2.335000e+01 -9.028026e+02
    endloop
  endfacet
  facet normal -7.332708e-01 2.963731e-02 -6.792905e-01
    outer loop
      vertex 6.257798e+01 3.926250e+01 -9.023478e+02
      vertex 6.235609e+01 2.335000e+01 -9.028026e+02
      vertex 5.680829e+01 3.926250e+01 -8.961197e+02
    endloop
  endfacet
  facet normal 2.531681e-14 -1.000000e+00 7.991687e-15
    outer loop
      vertex 6.640413e+01 2.335000e+01 -8.800622e+02
      vertex 5.641922e+01 2.335000e+01 -8.964426e+02
      vertex 6.235609e+01 2.335000e+01 -9.028026e+02
    endloop
  endfacet
  facet normal -3.772320e-01 3.171095e-02 -9.255757e-01
    outer loop
      vertex 7.114698e+01 3.926250e+01 -9.058403e+02
      vertex 6.235609e+01 2.335000e+01 -9.028026e+02
      vertex 6.257798e+01 3.926250e+01 -9.023478e+02
    endloop
  endfacet
  facet normal 1.263209e-14 -1.000000e+00 1.024971e-14
    outer loop
      vertex 6.711090e+01 2.335000e+01 -9.045032e+02
      vertex 6.640413e+01 2.335000e+01 -8.800622e+02
      vertex 6.235609e+01 2.335000e+01 -9.028026e+02
    endloop
  endfacet
  facet normal 1.264678e-14 -1.000000e+00 1.029078e-14
    outer loop
      vertex 7.113094e+01 2.335000e+01 -9.063365e+02
      vertex 6.711090e+01 2.335000e+01 -9.045032e+02
      vertex 6.235609e+01 2.335000e+01 -9.028026e+02
    endloop
  endfacet
  facet normal -3.734132e-01 2.929066e-02 -9.272026e-01
    outer loop
      vertex 7.114698e+01 3.926250e+01 -9.058403e+02
      vertex 7.113094e+01 2.335000e+01 -9.063365e+02
      vertex 6.235609e+01 2.335000e+01 -9.028026e+02
    endloop
  endfacet
  facet normal -9.846448e-01 2.757405e-02 -1.723782e-01
    outer loop
      vertex 5.428116e+01 3.926250e+01 -8.816844e+02
      vertex 5.680829e+01 3.926250e+01 -8.961197e+02
      vertex 5.641922e+01 2.335000e+01 -8.964426e+02
    endloop
  endfacet
  facet normal -7.840482e-02 9.942722e-01 -7.263300e-02
    outer loop
      vertex 6.711090e+01 3.946250e+01 -9.045032e+02
      vertex 6.257798e+01 3.926250e+01 -9.023478e+02
      vertex 5.680829e+01 3.926250e+01 -8.961197e+02
    endloop
  endfacet
  facet normal 1.802932e-02 9.987795e-01 4.598370e-02
    outer loop
      vertex 6.640413e+01 3.835000e+01 -8.800622e+02
      vertex 6.711090e+01 3.946250e+01 -9.045032e+02
      vertex 5.680829e+01 3.926250e+01 -8.961197e+02
    endloop
  endfacet
  facet normal 7.334331e-02 9.972241e-01 1.283995e-02
    outer loop
      vertex 6.640413e+01 3.835000e+01 -8.800622e+02
      vertex 5.680829e+01 3.926250e+01 -8.961197e+02
      vertex 5.428116e+01 3.926250e+01 -8.816844e+02
    endloop
  endfacet
  facet normal 1.185824e-14 -1.000000e+00 1.619556e-14
    outer loop
      vertex 6.640413e+01 2.335000e+01 -8.800622e+02
      vertex 5.383407e+01 2.335000e+01 -8.813880e+02
      vertex 5.641922e+01 2.335000e+01 -8.964426e+02
    endloop
  endfacet
  facet normal -9.852781e-01 2.453195e-02 -1.691899e-01
    outer loop
      vertex 5.428116e+01 3.926250e+01 -8.816844e+02
      vertex 5.641922e+01 2.335000e+01 -8.964426e+02
      vertex 5.383407e+01 2.335000e+01 -8.813880e+02
    endloop
  endfacet
  facet normal -2.167464e-01 -8.186578e-01 -5.318086e-01
    outer loop
      vertex 7.114698e+01 3.926250e+01 -9.058403e+02
      vertex 6.257798e+01 3.926250e+01 -9.023478e+02
      vertex 6.711090e+01 3.946250e+01 -9.045032e+02
    endloop
  endfacet
  facet normal 1.246755e-14 -1.000000e+00 1.041848e-14
    outer loop
      vertex 6.640413e+01 2.335000e+01 -8.800622e+02
      vertex 5.951695e+01 2.335000e+01 -8.707975e+02
      vertex 5.383407e+01 2.335000e+01 -8.813880e+02
    endloop
  endfacet
  facet normal -8.808467e-01 2.640136e-02 4.726649e-01
    outer loop
      vertex 5.974018e+01 3.926250e+01 -8.712703e+02
      vertex 5.383407e+01 2.335000e+01 -8.813880e+02
      vertex 5.951695e+01 2.335000e+01 -8.707975e+02
    endloop
  endfacet
  facet normal -8.851932e-01 3.351452e-02 4.640149e-01
    outer loop
      vertex 5.974018e+01 3.926250e+01 -8.712703e+02
      vertex 5.428116e+01 3.926250e+01 -8.816844e+02
      vertex 5.383407e+01 2.335000e+01 -8.813880e+02
    endloop
  endfacet
  facet normal 1.233718e-14 -1.000000e+00 1.032157e-14
    outer loop
      vertex 6.640413e+01 2.335000e+01 -8.800622e+02
      vertex 6.950303e+01 2.335000e+01 -8.651793e+02
      vertex 5.951695e+01 2.335000e+01 -8.707975e+02
    endloop
  endfacet
  facet normal -4.900400e-01 3.427187e-02 8.710260e-01
    outer loop
      vertex 6.983069e+01 3.926250e+01 -8.656211e+02
      vertex 5.951695e+01 2.335000e+01 -8.707975e+02
      vertex 6.950303e+01 2.335000e+01 -8.651793e+02
    endloop
  endfacet
  facet normal -4.882456e-01 3.276233e-02 8.720911e-01
    outer loop
      vertex 6.983069e+01 3.926250e+01 -8.656211e+02
      vertex 5.974018e+01 3.926250e+01 -8.712703e+02
      vertex 5.951695e+01 2.335000e+01 -8.707975e+02
    endloop
  endfacet
  facet normal -8.878958e-01 -4.212620e-01 1.848767e-01
    outer loop
      vertex 8.320000e+01 -7.078857e+00 -8.687333e+02
      vertex 6.950303e+01 2.335000e+01 -8.651793e+02
      vertex 6.640413e+01 2.335000e+01 -8.800622e+02
    endloop
  endfacet
  facet normal -3.531586e-02 2.846040e-02 9.989709e-01
    outer loop
      vertex 9.193441e+01 3.085000e+01 -8.646000e+02
      vertex 6.983069e+01 3.926250e+01 -8.656211e+02
      vertex 6.950303e+01 2.335000e+01 -8.651793e+02
    endloop
  endfacet
  facet normal -9.038886e-01 -4.176632e-01 9.242773e-02
    outer loop
      vertex 8.320000e+01 -3.321463e+00 -8.517543e+02
      vertex 6.950303e+01 2.335000e+01 -8.651793e+02
      vertex 8.320000e+01 -7.078857e+00 -8.687333e+02
    endloop
  endfacet
  facet normal -8.909204e-01 -4.541086e-01 6.790882e-03
    outer loop
      vertex 8.320000e+01 -3.067662e+00 -8.347826e+02
      vertex 6.950303e+01 2.335000e+01 -8.651793e+02
      vertex 8.320000e+01 -3.321463e+00 -8.517543e+02
    endloop
  endfacet
  facet normal -2.945989e-01 6.515828e-01 6.990360e-01
    outer loop
      vertex 9.710000e+01 6.241598e+00 -8.376020e+02
      vertex 6.950303e+01 2.335000e+01 -8.651793e+02
      vertex 8.320000e+01 -3.067662e+00 -8.347826e+02
    endloop
  endfacet
  facet normal 9.979683e-03 8.541596e-01 5.199152e-01
    outer loop
      vertex 9.710000e+01 1.615050e+01 -8.538811e+02
      vertex 6.950303e+01 2.335000e+01 -8.651793e+02
      vertex 9.710000e+01 6.241598e+00 -8.376020e+02
    endloop
  endfacet
  facet normal -1.987747e-01 5.308713e-01 8.238109e-01
    outer loop
      vertex 9.193441e+01 3.085000e+01 -8.646000e+02
      vertex 6.950303e+01 2.335000e+01 -8.651793e+02
      vertex 9.710000e+01 1.615050e+01 -8.538811e+02
    endloop
  endfacet
  facet normal -2.281639e-01 -9.736004e-01 -6.597916e-03
    outer loop
      vertex 9.710000e+01 1.615050e+01 -8.791921e+02
      vertex 6.640413e+01 2.335000e+01 -8.800622e+02
      vertex 6.711090e+01 2.335000e+01 -9.045032e+02
    endloop
  endfacet
  facet normal -6.256764e-02 -3.783767e-01 -9.235347e-01
    outer loop
      vertex 9.710000e+01 1.615050e+01 -8.791921e+02
      vertex 8.320000e+01 -7.078857e+00 -8.687333e+02
      vertex 6.640413e+01 2.335000e+01 -8.800622e+02
    endloop
  endfacet
  facet normal 1.268465e-14 -1.000000e+00 1.035452e-14
    outer loop
      vertex 8.238065e+01 2.335000e+01 -9.050244e+02
      vertex 8.959477e+01 2.335000e+01 -9.008239e+02
      vertex 6.711090e+01 2.335000e+01 -9.045032e+02
    endloop
  endfacet
  facet normal 5.437006e-02 -9.416213e-01 -3.322548e-01
    outer loop
      vertex 9.710000e+01 1.615050e+01 -8.791921e+02
      vertex 6.711090e+01 2.335000e+01 -9.045032e+02
      vertex 8.959477e+01 2.335000e+01 -9.008239e+02
    endloop
  endfacet
  facet normal 1.268537e-14 -1.000000e+00 1.037539e-14
    outer loop
      vertex 7.113094e+01 2.335000e+01 -9.063365e+02
      vertex 8.238065e+01 2.335000e+01 -9.050244e+02
      vertex 6.711090e+01 2.335000e+01 -9.045032e+02
    endloop
  endfacet
  facet normal 5.025258e-01 5.108803e-02 -8.630514e-01
    outer loop
      vertex 8.839242e+01 3.926250e+01 -9.005821e+02
      vertex 8.959477e+01 2.335000e+01 -9.008239e+02
      vertex 8.238065e+01 2.335000e+01 -9.050244e+02
    endloop
  endfacet
  facet normal -9.490218e-01 -1.383797e-01 2.832115e-01
    outer loop
      vertex 9.710000e+01 -9.243751e+00 -8.916000e+02
      vertex 9.710000e+01 1.615050e+01 -8.791921e+02
      vertex 8.959477e+01 2.335000e+01 -9.008239e+02
    endloop
  endfacet
  facet normal 5.165800e-01 5.202238e-02 -8.546571e-01
    outer loop
      vertex 1.041000e+02 3.085000e+01 -8.916000e+02
      vertex 8.959477e+01 2.335000e+01 -9.008239e+02
      vertex 8.839242e+01 3.926250e+01 -9.005821e+02
    endloop
  endfacet
  facet normal 4.838242e-01 -1.333675e-01 -8.649435e-01
    outer loop
      vertex 1.041000e+02 1.615050e+01 -8.916000e+02
      vertex 9.710000e+01 -9.243751e+00 -8.916000e+02
      vertex 8.959477e+01 2.335000e+01 -9.008239e+02
    endloop
  endfacet
  facet normal 5.365984e-01 1.460887e-14 -8.438378e-01
    outer loop
      vertex 1.041000e+02 3.085000e+01 -8.916000e+02
      vertex 1.041000e+02 1.615050e+01 -8.916000e+02
      vertex 8.959477e+01 2.335000e+01 -9.008239e+02
    endloop
  endfacet
  facet normal 1.157927e-01 2.926254e-02 -9.928423e-01
    outer loop
      vertex 8.213714e+01 3.926250e+01 -9.045839e+02
      vertex 8.238065e+01 2.335000e+01 -9.050244e+02
      vertex 7.113094e+01 2.335000e+01 -9.063365e+02
    endloop
  endfacet
  facet normal 5.386336e-01 3.155516e-02 -8.419490e-01
    outer loop
      vertex 8.213714e+01 3.926250e+01 -9.045839e+02
      vertex 8.839242e+01 3.926250e+01 -9.005821e+02
      vertex 8.238065e+01 2.335000e+01 -9.050244e+02
    endloop
  endfacet
  facet normal 1.135267e-01 3.085340e-02 -9.930558e-01
    outer loop
      vertex 8.213714e+01 3.926250e+01 -9.045839e+02
      vertex 7.113094e+01 2.335000e+01 -9.063365e+02
      vertex 7.114698e+01 3.926250e+01 -9.058403e+02
    endloop
  endfacet
  facet normal 2.367075e-02 9.967009e-01 -7.763365e-02
    outer loop
      vertex 8.839242e+01 3.926250e+01 -9.005821e+02
      vertex 7.114698e+01 3.926250e+01 -9.058403e+02
      vertex 6.711090e+01 3.946250e+01 -9.045032e+02
    endloop
  endfacet
  facet normal -4.499294e-02 9.980123e-01 4.412634e-02
    outer loop
      vertex 9.193441e+01 3.946250e+01 -8.791921e+02
      vertex 6.711090e+01 3.946250e+01 -9.045032e+02
      vertex 6.640413e+01 3.835000e+01 -8.800622e+02
    endloop
  endfacet
  facet normal 1.146908e-02 9.998710e-01 -1.124818e-02
    outer loop
      vertex 9.193441e+01 3.946250e+01 -8.791921e+02
      vertex 8.839242e+01 3.926250e+01 -9.005821e+02
      vertex 6.711090e+01 3.946250e+01 -9.045032e+02
    endloop
  endfacet
  facet normal -2.810131e-15 1.000000e+00 1.327039e-14
    outer loop
      vertex 8.213714e+01 3.926250e+01 -9.045839e+02
      vertex 7.114698e+01 3.926250e+01 -9.058403e+02
      vertex 8.839242e+01 3.926250e+01 -9.005821e+02
    endloop
  endfacet
  facet normal 8.585137e-02 9.928358e-01 -8.310547e-02
    outer loop
      vertex 6.983069e+01 3.926250e+01 -8.656211e+02
      vertex 6.640413e+01 3.835000e+01 -8.800622e+02
      vertex 5.428116e+01 3.926250e+01 -8.816844e+02
    endloop
  endfacet
  facet normal -1.217782e-15 1.000000e+00 1.223731e-14
    outer loop
      vertex 6.983069e+01 3.926250e+01 -8.656211e+02
      vertex 5.428116e+01 3.926250e+01 -8.816844e+02
      vertex 5.974018e+01 3.926250e+01 -8.712703e+02
    endloop
  endfacet
  facet normal 3.578066e-01 9.227494e-01 -1.432058e-01
    outer loop
      vertex 9.193441e+01 3.085000e+01 -8.646000e+02
      vertex 6.640413e+01 3.835000e+01 -8.800622e+02
      vertex 6.983069e+01 3.926250e+01 -8.656211e+02
    endloop
  endfacet
  facet normal -5.476720e-02 8.598958e-01 5.075233e-01
    outer loop
      vertex 9.193441e+01 3.085000e+01 -8.646000e+02
      vertex 9.193441e+01 3.946250e+01 -8.791921e+02
      vertex 6.640413e+01 3.835000e+01 -8.800622e+02
    endloop
  endfacet
  facet normal 9.726681e-01 -3.236405e-02 -2.299333e-01
    outer loop
      vertex 8.276128e+01 -8.542652e+01 -8.945527e+02
      vertex 8.588413e+01 -8.542652e+01 -8.813424e+02
      vertex 8.262552e+01 -9.055000e+01 -8.944059e+02
    endloop
  endfacet
  facet normal 9.726967e-01 -3.287533e-02 -2.297399e-01
    outer loop
      vertex 8.569535e+01 -9.055000e+01 -8.814085e+02
      vertex 8.262552e+01 -9.055000e+01 -8.944059e+02
      vertex 8.588413e+01 -8.542652e+01 -8.813424e+02
    endloop
  endfacet
  facet normal 5.939377e-01 -7.921647e-01 -1.404035e-01
    outer loop
      vertex 1.041000e+02 -7.215000e+01 -8.791921e+02
      vertex 8.588413e+01 -8.542652e+01 -8.813424e+02
      vertex 8.276128e+01 -8.542652e+01 -8.945527e+02
    endloop
  endfacet
  facet normal 9.475894e-01 -3.081154e-02 -3.180017e-01
    outer loop
      vertex 9.193441e+01 -7.215000e+01 -8.646000e+02
      vertex 8.569535e+01 -9.055000e+01 -8.814085e+02
      vertex 8.588413e+01 -8.542652e+01 -8.813424e+02
    endloop
  endfacet
  facet normal 2.745811e-15 -7.835420e-01 6.213388e-01
    outer loop
      vertex 1.041000e+02 -7.215000e+01 -8.646000e+02
      vertex 9.193441e+01 -7.215000e+01 -8.646000e+02
      vertex 8.588413e+01 -8.542652e+01 -8.813424e+02
    endloop
  endfacet
  facet normal 5.890016e-01 -8.081319e-01 -1.180523e-14
    outer loop
      vertex 1.041000e+02 -7.215000e+01 -8.646000e+02
      vertex 8.588413e+01 -8.542652e+01 -8.813424e+02
      vertex 1.041000e+02 -7.215000e+01 -8.791921e+02
    endloop
  endfacet
  facet normal 5.282758e-01 -8.490728e-01 -1.166943e-14
    outer loop
      vertex 1.041000e+02 -7.215000e+01 -8.791921e+02
      vertex 8.276128e+01 -8.542652e+01 -8.945527e+02
      vertex 1.041000e+02 -7.215000e+01 -8.916000e+02
    endloop
  endfacet
  facet normal 1.370685e-01 1.890809e-14 -9.905616e-01
    outer loop
      vertex 1.041000e+02 -6.003226e+01 -8.916000e+02
      vertex 1.041000e+02 -7.215000e+01 -8.916000e+02
      vertex 8.276128e+01 -8.542652e+01 -8.945527e+02
    endloop
  endfacet
  facet normal 5.806254e-01 -6.476197e-01 4.934195e-01
    outer loop
      vertex 8.041271e+01 -9.035000e+01 -8.749297e+02
      vertex 8.569535e+01 -9.055000e+01 -8.814085e+02
      vertex 9.193441e+01 -7.215000e+01 -8.646000e+02
    endloop
  endfacet
  facet normal -5.796535e-01 6.644058e-01 -4.717699e-01
    outer loop
      vertex 9.710000e+01 -4.897862e+01 -8.383140e+02
      vertex 9.710000e+01 -6.003226e+01 -8.538811e+02
      vertex 9.193441e+01 -7.215000e+01 -8.646000e+02
    endloop
  endfacet
  facet normal -1.334337e-07 -7.501515e-01 6.612661e-01
    outer loop
      vertex 1.041000e+02 -4.897862e+01 -8.383140e+02
      vertex 9.710000e+01 -4.897862e+01 -8.383140e+02
      vertex 9.193441e+01 -7.215000e+01 -8.646000e+02
    endloop
  endfacet
  facet normal 2.666867e-15 -7.501515e-01 6.612660e-01
    outer loop
      vertex 1.041000e+02 -4.897862e+01 -8.383140e+02
      vertex 9.193441e+01 -7.215000e+01 -8.646000e+02
      vertex 1.041000e+02 -7.215000e+01 -8.646000e+02
    endloop
  endfacet
  facet normal -1.000000e+00 -2.989407e-15 2.320848e-16
    outer loop
      vertex 8.320000e+01 -7.078857e+00 -8.687333e+02
      vertex 8.320000e+01 -3.560656e+01 -8.688013e+02
      vertex 8.320000e+01 -3.905099e+01 -8.519365e+02
    endloop
  endfacet
  facet normal -1.000000e+00 -3.184903e-15 5.938672e-16
    outer loop
      vertex 8.320000e+01 -3.321463e+00 -8.517543e+02
      vertex 8.320000e+01 -3.905099e+01 -8.519365e+02
      vertex 8.320000e+01 -3.541318e+01 -8.324270e+02
    endloop
  endfacet
  facet normal -1.000000e+00 -3.181196e-15 -1.329793e-16
    outer loop
      vertex 8.320000e+01 -3.321463e+00 -8.517543e+02
      vertex 8.320000e+01 -7.078857e+00 -8.687333e+02
      vertex 8.320000e+01 -3.905099e+01 -8.519365e+02
    endloop
  endfacet
  facet normal -6.083939e-01 -1.812212e-02 -7.934283e-01
    outer loop
      vertex 9.360000e+01 -1.000235e+01 -8.773607e+02
      vertex 9.360000e+01 -3.350893e+01 -8.768238e+02
      vertex 8.320000e+01 -3.560656e+01 -8.688013e+02
    endloop
  endfacet
  facet normal -6.381634e-01 1.835633e-03 -7.698987e-01
    outer loop
      vertex 9.360000e+01 -1.000235e+01 -8.773607e+02
      vertex 8.320000e+01 -3.560656e+01 -8.688013e+02
      vertex 8.320000e+01 -7.078857e+00 -8.687333e+02
    endloop
  endfacet
  facet normal -9.731513e-01 -5.255696e-03 -2.301065e-01
    outer loop
      vertex 9.710000e+01 -3.463801e+01 -8.916000e+02
      vertex 9.360000e+01 -3.350893e+01 -8.768238e+02
      vertex 9.360000e+01 -1.000235e+01 -8.773607e+02
    endloop
  endfacet
  facet normal -2.665186e-01 -5.059690e-01 8.203433e-01
    outer loop
      vertex 9.360000e+01 -3.463801e+01 -8.285701e+02
      vertex 8.320000e+01 -3.541318e+01 -8.324270e+02
      vertex 8.320000e+01 -3.923234e+01 -8.347826e+02
    endloop
  endfacet
  facet normal -1.942740e-01 -7.181782e-01 6.681899e-01
    outer loop
      vertex 9.360000e+01 -2.921875e+01 -8.227454e+02
      vertex 8.320000e+01 -3.541318e+01 -8.324270e+02
      vertex 9.360000e+01 -3.463801e+01 -8.285701e+02
    endloop
  endfacet
  facet normal -1.000000e+00 -3.510940e-15 5.250369e-17
    outer loop
      vertex 8.320000e+01 -3.067662e+00 -8.347826e+02
      vertex 8.320000e+01 -3.321463e+00 -8.517543e+02
      vertex 8.320000e+01 -3.541318e+01 -8.324270e+02
    endloop
  endfacet
  facet normal -1.000000e+00 -3.587432e-15 -9.978485e-16
    outer loop
      vertex 8.320000e+01 -7.623210e+00 -8.326461e+02
      vertex 8.320000e+01 -3.067662e+00 -8.347826e+02
      vertex 8.320000e+01 -3.541318e+01 -8.324270e+02
    endloop
  endfacet
  facet normal -1.000000e+00 -3.575583e-15 5.049011e-16
    outer loop
      vertex 8.320000e+01 -2.266487e+01 -8.265841e+02
      vertex 8.320000e+01 -7.623210e+00 -8.326461e+02
      vertex 8.320000e+01 -3.541318e+01 -8.324270e+02
    endloop
  endfacet
  facet normal -5.133014e-01 -3.575723e-01 7.801690e-01
    outer loop
      vertex 9.360000e+01 -2.921875e+01 -8.227454e+02
      vertex 8.320000e+01 -2.266487e+01 -8.265841e+02
      vertex 8.320000e+01 -3.541318e+01 -8.324270e+02
    endloop
  endfacet
  facet normal -2.103261e-01 -5.840348e-01 7.840066e-01
    outer loop
      vertex 9.360000e+01 -3.463801e+01 -8.285701e+02
      vertex 8.320000e+01 -3.923234e+01 -8.347826e+02
      vertex 9.710000e+01 -4.897862e+01 -8.383140e+02
    endloop
  endfacet
  facet normal -7.409746e-01 -4.916476e-01 4.574268e-01
    outer loop
      vertex 9.360000e+01 -2.921875e+01 -8.227454e+02
      vertex 9.360000e+01 -3.463801e+01 -8.285701e+02
      vertex 9.710000e+01 -4.897862e+01 -8.383140e+02
    endloop
  endfacet
  facet normal -7.882547e-01 2.885833e-01 -5.434834e-01
    outer loop
      vertex 9.360000e+01 -3.970544e+01 -8.283137e+02
      vertex 9.360000e+01 -2.921875e+01 -8.227454e+02
      vertex 9.710000e+01 -4.897862e+01 -8.383140e+02
    endloop
  endfacet
  facet normal -1.321454e-07 -7.283476e-01 6.852079e-01
    outer loop
      vertex 1.041000e+02 -3.913453e+01 -8.278501e+02
      vertex 9.710000e+01 -4.897862e+01 -8.383140e+02
      vertex 1.041000e+02 -4.897862e+01 -8.383140e+02
    endloop
  endfacet
  facet normal 9.675255e-03 -7.315356e-01 6.817346e-01
    outer loop
      vertex 1.041000e+02 -3.913453e+01 -8.278501e+02
      vertex 9.360000e+01 -3.970544e+01 -8.283137e+02
      vertex 9.710000e+01 -4.897862e+01 -8.383140e+02
    endloop
  endfacet
  facet normal -6.330699e-01 3.055701e-02 -7.734913e-01
    outer loop
      vertex 9.710000e+01 1.615050e+01 -8.791921e+02
      vertex 9.360000e+01 -1.000235e+01 -8.773607e+02
      vertex 8.320000e+01 -7.078857e+00 -8.687333e+02
    endloop
  endfacet
  facet normal -1.002244e-01 4.224664e-01 9.008203e-01
    outer loop
      vertex 9.710000e+01 6.241598e+00 -8.376020e+02
      vertex 8.320000e+01 -3.067662e+00 -8.347826e+02
      vertex 8.320000e+01 -7.623210e+00 -8.326461e+02
    endloop
  endfacet
  facet normal -1.000000e+00 -4.902502e-15 -2.787585e-15
    outer loop
      vertex 8.320000e+01 -2.266487e+01 -8.265841e+02
      vertex 8.320000e+01 -1.981346e+01 -8.265010e+02
      vertex 8.320000e+01 -7.623210e+00 -8.326461e+02
    endloop
  endfacet
  facet normal -5.076462e-01 3.878279e-01 7.693406e-01
    outer loop
      vertex 9.360000e+01 -1.426572e+01 -8.224352e+02
      vertex 8.320000e+01 -7.623210e+00 -8.326461e+02
      vertex 8.320000e+01 -1.981346e+01 -8.265010e+02
    endloop
  endfacet
  facet normal -1.266550e-01 7.675694e-01 6.283277e-01
    outer loop
      vertex 9.360000e+01 -9.243751e+00 -8.285701e+02
      vertex 8.320000e+01 -7.623210e+00 -8.326461e+02
      vertex 9.360000e+01 -1.426572e+01 -8.224352e+02
    endloop
  endfacet
  facet normal -2.369862e-01 5.288781e-01 8.149390e-01
    outer loop
      vertex 9.710000e+01 6.241598e+00 -8.376020e+02
      vertex 8.320000e+01 -7.623210e+00 -8.326461e+02
      vertex 9.360000e+01 -9.243751e+00 -8.285701e+02
    endloop
  endfacet
  facet normal -3.513060e-01 -2.729246e-02 9.358628e-01
    outer loop
      vertex 9.360000e+01 -1.426572e+01 -8.224352e+02
      vertex 8.320000e+01 -1.981346e+01 -8.265010e+02
      vertex 8.320000e+01 -2.266487e+01 -8.265841e+02
    endloop
  endfacet
  facet normal -3.569298e-01 -1.937420e-02 9.339303e-01
    outer loop
      vertex 9.360000e+01 -1.426572e+01 -8.224352e+02
      vertex 8.320000e+01 -2.266487e+01 -8.265841e+02
      vertex 9.360000e+01 -2.921875e+01 -8.227454e+02
    endloop
  endfacet
  facet normal -9.662437e-01 1.131013e-01 -2.314762e-01
    outer loop
      vertex 9.710000e+01 -9.243751e+00 -8.916000e+02
      vertex 9.360000e+01 -1.000235e+01 -8.773607e+02
      vertex 9.710000e+01 1.615050e+01 -8.791921e+02
    endloop
  endfacet
  facet normal -9.710948e-01 4.886411e-16 -2.386940e-01
    outer loop
      vertex 9.710000e+01 -9.243751e+00 -8.916000e+02
      vertex 9.710000e+01 -3.463801e+01 -8.916000e+02
      vertex 9.360000e+01 -1.000235e+01 -8.773607e+02
    endloop
  endfacet
  facet normal 1.028576e-02 -2.073924e-02 9.997320e-01
    outer loop
      vertex 1.041000e+02 -1.384714e+01 -8.225346e+02
      vertex 9.360000e+01 -1.426572e+01 -8.224352e+02
      vertex 9.360000e+01 -2.921875e+01 -8.227454e+02
    endloop
  endfacet
  facet normal 3.271851e-03 -4.689724e-01 8.832068e-01
    outer loop
      vertex 1.041000e+02 -2.909103e+01 -8.227165e+02
      vertex 9.360000e+01 -2.921875e+01 -8.227454e+02
      vertex 9.360000e+01 -3.970544e+01 -8.283137e+02
    endloop
  endfacet
  facet normal -2.608961e-03 -1.193381e-02 9.999254e-01
    outer loop
      vertex 1.041000e+02 -1.384714e+01 -8.225346e+02
      vertex 9.360000e+01 -2.921875e+01 -8.227454e+02
      vertex 1.041000e+02 -2.909103e+01 -8.227165e+02
    endloop
  endfacet
  facet normal -1.000000e+00 -1.286055e-14 -1.052757e-14
    outer loop
      vertex 9.360000e+01 -3.243278e+00 -8.278011e+02
      vertex 9.360000e+01 -9.243751e+00 -8.285701e+02
      vertex 9.360000e+01 -1.426572e+01 -8.224352e+02
    endloop
  endfacet
  facet normal -9.289553e-03 4.454986e-01 8.952344e-01
    outer loop
      vertex 1.041000e+02 -3.165474e+00 -8.278501e+02
      vertex 9.360000e+01 -1.426572e+01 -8.224352e+02
      vertex 1.041000e+02 -1.384714e+01 -8.225346e+02
    endloop
  endfacet
  facet normal 9.552195e-04 4.377029e-01 8.991192e-01
    outer loop
      vertex 1.041000e+02 -3.165474e+00 -8.278501e+02
      vertex 9.360000e+01 -3.243278e+00 -8.278011e+02
      vertex 9.360000e+01 -1.426572e+01 -8.224352e+02
    endloop
  endfacet
  facet normal -9.523395e-01 3.877605e-02 -3.025655e-01
    outer loop
      vertex 9.360000e+01 -3.243278e+00 -8.278011e+02
      vertex 9.710000e+01 6.241598e+00 -8.376020e+02
      vertex 9.360000e+01 -9.243751e+00 -8.285701e+02
    endloop
  endfacet
  facet normal -1.000000e+00 -6.529054e-16 1.348480e-15
    outer loop
      vertex 9.710000e+01 1.957053e+01 -8.522252e+02
      vertex 9.710000e+01 1.615050e+01 -8.538811e+02
      vertex 9.710000e+01 6.241598e+00 -8.376020e+02
    endloop
  endfacet
  facet normal -2.942721e-08 7.390576e-01 6.736423e-01
    outer loop
      vertex 1.041000e+02 1.776536e+01 -8.502447e+02
      vertex 9.710000e+01 6.241598e+00 -8.376020e+02
      vertex 1.041000e+02 6.241597e+00 -8.376020e+02
    endloop
  endfacet
  facet normal -3.204875e-08 7.197143e-01 6.942703e-01
    outer loop
      vertex 1.041000e+02 -3.165474e+00 -8.278501e+02
      vertex 1.041000e+02 6.241597e+00 -8.376020e+02
      vertex 9.710000e+01 6.241598e+00 -8.376020e+02
    endloop
  endfacet
  facet normal 4.446692e-08 7.390575e-01 6.736423e-01
    outer loop
      vertex 9.710000e+01 1.957053e+01 -8.522252e+02
      vertex 9.710000e+01 6.241598e+00 -8.376020e+02
      vertex 1.041000e+02 1.776536e+01 -8.502447e+02
    endloop
  endfacet
  facet normal -2.081869e-03 7.189656e-01 6.950425e-01
    outer loop
      vertex 1.041000e+02 -3.165474e+00 -8.278501e+02
      vertex 9.710000e+01 6.241598e+00 -8.376020e+02
      vertex 9.360000e+01 -3.243278e+00 -8.278011e+02
    endloop
  endfacet
  facet normal -9.519321e-01 -1.334850e-01 2.756937e-01
    outer loop
      vertex 9.710000e+01 1.957053e+01 -8.522252e+02
      vertex 9.193441e+01 3.085000e+01 -8.646000e+02
      vertex 9.710000e+01 1.615050e+01 -8.538811e+02
    endloop
  endfacet
  facet normal 5.747442e-01 8.118551e-01 -1.027639e-01
    outer loop
      vertex 1.041000e+02 3.085000e+01 -8.791921e+02
      vertex 8.839242e+01 3.926250e+01 -9.005821e+02
      vertex 9.193441e+01 3.946250e+01 -8.791921e+02
    endloop
  endfacet
  facet normal 4.721221e-01 8.815332e-01 1.207964e-14
    outer loop
      vertex 1.041000e+02 3.085000e+01 -8.916000e+02
      vertex 8.839242e+01 3.926250e+01 -9.005821e+02
      vertex 1.041000e+02 3.085000e+01 -8.791921e+02
    endloop
  endfacet
  facet normal 1.205766e-02 8.611257e-01 5.082492e-01
    outer loop
      vertex 1.041000e+02 3.036671e+01 -8.640698e+02
      vertex 9.193441e+01 3.946250e+01 -8.791921e+02
      vertex 9.193441e+01 3.085000e+01 -8.646000e+02
    endloop
  endfacet
  facet normal 5.776068e-01 8.158986e-01 2.607489e-02
    outer loop
      vertex 1.041000e+02 3.085000e+01 -8.791921e+02
      vertex 9.193441e+01 3.946250e+01 -8.791921e+02
      vertex 1.041000e+02 3.036671e+01 -8.640698e+02
    endloop
  endfacet
  facet normal 1.407249e-09 7.390576e-01 6.736423e-01
    outer loop
      vertex 9.710000e+01 1.957053e+01 -8.522252e+02
      vertex 1.041000e+02 3.036671e+01 -8.640698e+02
      vertex 9.193441e+01 3.085000e+01 -8.646000e+02
    endloop
  endfacet
  facet normal 1.000000e+00 2.345463e-15 3.223542e-29
    outer loop
      vertex 1.041000e+02 -6.003226e+01 -8.791921e+02
      vertex 1.041000e+02 -7.215000e+01 -8.791921e+02
      vertex 1.041000e+02 -7.215000e+01 -8.916000e+02
    endloop
  endfacet
  facet normal 1.000000e+00 2.345463e-15 -3.492170e-29
    outer loop
      vertex 1.041000e+02 -6.003226e+01 -8.916000e+02
      vertex 1.041000e+02 -6.003226e+01 -8.791921e+02
      vertex 1.041000e+02 -7.215000e+01 -8.916000e+02
    endloop
  endfacet
  facet normal 1.000000e+00 2.345463e-15 3.426265e-29
    outer loop
      vertex 1.041000e+02 -6.003226e+01 -8.538811e+02
      vertex 1.041000e+02 -7.215000e+01 -8.646000e+02
      vertex 1.041000e+02 -7.215000e+01 -8.791921e+02
    endloop
  endfacet
  facet normal 1.000000e+00 2.345463e-15 2.633717e-30
    outer loop
      vertex 1.041000e+02 -6.003226e+01 -8.791921e+02
      vertex 1.041000e+02 -6.003226e+01 -8.538811e+02
      vertex 1.041000e+02 -7.215000e+01 -8.791921e+02
    endloop
  endfacet
  facet normal 1.000000e+00 1.964137e-15 4.310910e-16
    outer loop
      vertex 1.041000e+02 -6.003226e+01 -8.538811e+02
      vertex 1.041000e+02 -4.897862e+01 -8.383140e+02
      vertex 1.041000e+02 -7.215000e+01 -8.646000e+02
    endloop
  endfacet
  facet normal 6.289460e-01 -6.338999e-01 4.501087e-01
    outer loop
      vertex 1.131000e+02 -3.393490e+01 -8.297034e+02
      vertex 1.041000e+02 -4.897862e+01 -8.383140e+02
      vertex 1.041000e+02 -6.003226e+01 -8.538811e+02
    endloop
  endfacet
  facet normal 2.684864e-01 -5.944661e-01 7.579744e-01
    outer loop
      vertex 1.041000e+02 -2.909103e+01 -8.227165e+02
      vertex 1.041000e+02 -4.897862e+01 -8.383140e+02
      vertex 1.131000e+02 -3.393490e+01 -8.297034e+02
    endloop
  endfacet
  facet normal 1.000000e+00 5.121490e-17 2.667995e-15
    outer loop
      vertex 1.041000e+02 -3.913453e+01 -8.278501e+02
      vertex 1.041000e+02 -4.897862e+01 -8.383140e+02
      vertex 1.041000e+02 -2.909103e+01 -8.227165e+02
    endloop
  endfacet
  facet normal 9.425548e-01 -3.340517e-01 -3.751061e-16
    outer loop
      vertex 1.131000e+02 -3.463801e+01 -8.538811e+02
      vertex 1.041000e+02 -6.003226e+01 -8.538811e+02
      vertex 1.041000e+02 -6.003226e+01 -8.791921e+02
    endloop
  endfacet
  facet normal 9.425103e-01 -3.340359e-01 9.714047e-03
    outer loop
      vertex 1.131000e+02 -3.393490e+01 -8.297034e+02
      vertex 1.041000e+02 -6.003226e+01 -8.538811e+02
      vertex 1.131000e+02 -3.463801e+01 -8.538811e+02
    endloop
  endfacet
  facet normal 9.635547e-01 -2.675114e-01 3.938095e-15
    outer loop
      vertex 1.118800e+02 -3.200933e+01 -8.735004e+02
      vertex 1.041000e+02 -6.003226e+01 -8.791921e+02
      vertex 1.041000e+02 -6.003226e+01 -8.916000e+02
    endloop
  endfacet
  facet normal 9.640761e-01 -2.487113e-01 -9.327347e-02
    outer loop
      vertex 1.131000e+02 -3.463801e+01 -8.538811e+02
      vertex 1.041000e+02 -6.003226e+01 -8.791921e+02
      vertex 1.118800e+02 -3.200933e+01 -8.735004e+02
    endloop
  endfacet
  facet normal 9.187215e-01 7.874456e-15 -3.949060e-01
    outer loop
      vertex 1.041000e+02 -3.463801e+01 -8.916000e+02
      vertex 1.118800e+02 -3.200933e+01 -8.735004e+02
      vertex 1.041000e+02 -6.003226e+01 -8.916000e+02
    endloop
  endfacet
  facet normal 1.624098e-14 1.343062e-14 -1.000000e+00
    outer loop
      vertex 9.710000e+01 -9.243751e+00 -8.916000e+02
      vertex 1.041000e+02 -3.463801e+01 -8.916000e+02
      vertex 9.710000e+01 -3.463801e+01 -8.916000e+02
    endloop
  endfacet
  facet normal 9.201867e-01 -5.002710e-02 -3.882702e-01
    outer loop
      vertex 1.131000e+02 -1.174563e+01 -8.732199e+02
      vertex 1.118800e+02 -3.200933e+01 -8.735004e+02
      vertex 1.041000e+02 -3.463801e+01 -8.916000e+02
    endloop
  endfacet
  facet normal 9.980722e-01 2.234121e-15 -6.206395e-02
    outer loop
      vertex 1.131000e+02 -9.243751e+00 -8.538811e+02
      vertex 1.131000e+02 -3.463801e+01 -8.538811e+02
      vertex 1.118800e+02 -3.200933e+01 -8.735004e+02
    endloop
  endfacet
  facet normal 9.981558e-01 -6.020297e-02 7.788536e-03
    outer loop
      vertex 1.131000e+02 -9.243751e+00 -8.538811e+02
      vertex 1.118800e+02 -3.200933e+01 -8.735004e+02
      vertex 1.131000e+02 -1.174563e+01 -8.732199e+02
    endloop
  endfacet
  facet normal 1.624098e-14 1.343062e-14 -1.000000e+00
    outer loop
      vertex 1.041000e+02 -9.243751e+00 -8.916000e+02
      vertex 1.041000e+02 -3.463801e+01 -8.916000e+02
      vertex 9.710000e+01 -9.243751e+00 -8.916000e+02
    endloop
  endfacet
  facet normal 8.981108e-01 8.419326e-15 -4.397692e-01
    outer loop
      vertex 1.041000e+02 -9.243751e+00 -8.916000e+02
      vertex 1.131000e+02 -1.174563e+01 -8.732199e+02
      vertex 1.041000e+02 -3.463801e+01 -8.916000e+02
    endloop
  endfacet
  facet normal 1.000000e+00 2.238436e-15 -6.528622e-16
    outer loop
      vertex 1.131000e+02 -9.243751e+00 -8.538811e+02
      vertex 1.131000e+02 -3.393490e+01 -8.297034e+02
      vertex 1.131000e+02 -3.463801e+01 -8.538811e+02
    endloop
  endfacet
  facet normal 6.100160e-01 -9.456250e-03 7.923327e-01
    outer loop
      vertex 1.041000e+02 -1.384714e+01 -8.225346e+02
      vertex 1.041000e+02 -2.909103e+01 -8.227165e+02
      vertex 1.131000e+02 -3.393490e+01 -8.297034e+02
    endloop
  endfacet
  facet normal 1.000000e+00 2.907201e-15 3.010439e-17
    outer loop
      vertex 1.131000e+02 -9.500880e+00 -8.290500e+02
      vertex 1.131000e+02 -3.393490e+01 -8.297034e+02
      vertex 1.131000e+02 -9.243751e+00 -8.538811e+02
    endloop
  endfacet
  facet normal 5.930641e-01 -2.152465e-02 8.048675e-01
    outer loop
      vertex 1.041000e+02 -1.384714e+01 -8.225346e+02
      vertex 1.131000e+02 -3.393490e+01 -8.297034e+02
      vertex 1.131000e+02 -9.500880e+00 -8.290500e+02
    endloop
  endfacet
  facet normal -1.456654e-02 -4.550825e-01 8.903301e-01
    outer loop
      vertex 1.041000e+02 -3.913453e+01 -8.278501e+02
      vertex 1.041000e+02 -2.909103e+01 -8.227165e+02
      vertex 9.360000e+01 -3.970544e+01 -8.283137e+02
    endloop
  endfacet
  facet normal 1.624098e-14 1.343062e-14 -1.000000e+00
    outer loop
      vertex 1.041000e+02 1.615050e+01 -8.916000e+02
      vertex 1.041000e+02 -9.243751e+00 -8.916000e+02
      vertex 9.710000e+01 -9.243751e+00 -8.916000e+02
    endloop
  endfacet
  facet normal 8.904751e-01 1.997622e-01 -4.088388e-01
    outer loop
      vertex 1.041000e+02 1.615050e+01 -8.791921e+02
      vertex 1.131000e+02 -1.174563e+01 -8.732199e+02
      vertex 1.041000e+02 -9.243751e+00 -8.916000e+02
    endloop
  endfacet
  facet normal 9.416758e-01 3.337401e-01 -4.317639e-02
    outer loop
      vertex 1.041000e+02 1.615050e+01 -8.538811e+02
      vertex 1.131000e+02 -9.243751e+00 -8.538811e+02
      vertex 1.131000e+02 -1.174563e+01 -8.732199e+02
    endloop
  endfacet
  facet normal 9.516962e-01 3.070413e-01 -8.962702e-16
    outer loop
      vertex 1.041000e+02 1.615050e+01 -8.538811e+02
      vertex 1.131000e+02 -1.174563e+01 -8.732199e+02
      vertex 1.041000e+02 1.615050e+01 -8.791921e+02
    endloop
  endfacet
  facet normal 1.000000e+00 3.357654e-15 -1.687166e-15
    outer loop
      vertex 1.041000e+02 3.085000e+01 -8.791921e+02
      vertex 1.041000e+02 -9.243751e+00 -8.916000e+02
      vertex 1.041000e+02 1.615050e+01 -8.916000e+02
    endloop
  endfacet
  facet normal 1.000000e+00 2.900274e-15 -2.092243e-16
    outer loop
      vertex 1.041000e+02 3.085000e+01 -8.791921e+02
      vertex 1.041000e+02 1.615050e+01 -8.791921e+02
      vertex 1.041000e+02 -9.243751e+00 -8.916000e+02
    endloop
  endfacet
  facet normal 1.000000e+00 2.900274e-15 -1.145311e-15
    outer loop
      vertex 1.041000e+02 3.085000e+01 -8.916000e+02
      vertex 1.041000e+02 3.085000e+01 -8.791921e+02
      vertex 1.041000e+02 1.615050e+01 -8.916000e+02
    endloop
  endfacet
  facet normal 8.669188e-01 4.984227e-01 5.161222e-03
    outer loop
      vertex 1.041000e+02 6.241597e+00 -8.376020e+02
      vertex 1.131000e+02 -9.500880e+00 -8.290500e+02
      vertex 1.131000e+02 -9.243751e+00 -8.538811e+02
    endloop
  endfacet
  facet normal 9.236543e-01 3.273531e-01 1.992554e-01
    outer loop
      vertex 1.041000e+02 6.241597e+00 -8.376020e+02
      vertex 1.131000e+02 -9.243751e+00 -8.538811e+02
      vertex 1.041000e+02 1.615050e+01 -8.538811e+02
    endloop
  endfacet
  facet normal 3.973256e-01 4.088418e-01 8.215721e-01
    outer loop
      vertex 1.041000e+02 -3.165474e+00 -8.278501e+02
      vertex 1.041000e+02 -1.384714e+01 -8.225346e+02
      vertex 1.131000e+02 -9.500880e+00 -8.290500e+02
    endloop
  endfacet
  facet normal 5.139836e-01 6.173710e-01 5.955451e-01
    outer loop
      vertex 1.041000e+02 -3.165474e+00 -8.278501e+02
      vertex 1.131000e+02 -9.500880e+00 -8.290500e+02
      vertex 1.041000e+02 6.241597e+00 -8.376020e+02
    endloop
  endfacet
  facet normal 1.000000e+00 3.193720e-15 -1.122899e-15
    outer loop
      vertex 1.041000e+02 3.036671e+01 -8.640698e+02
      vertex 1.041000e+02 1.615050e+01 -8.538811e+02
      vertex 1.041000e+02 1.615050e+01 -8.791921e+02
    endloop
  endfacet
  facet normal 1.000000e+00 2.900274e-15 -8.470361e-16
    outer loop
      vertex 1.041000e+02 3.085000e+01 -8.791921e+02
      vertex 1.041000e+02 3.036671e+01 -8.640698e+02
      vertex 1.041000e+02 1.615050e+01 -8.791921e+02
    endloop
  endfacet
  facet normal 1.000000e+00 3.316766e-15 -1.472919e-15
    outer loop
      vertex 1.041000e+02 1.776536e+01 -8.502447e+02
      vertex 1.041000e+02 6.241597e+00 -8.376020e+02
      vertex 1.041000e+02 1.615050e+01 -8.538811e+02
    endloop
  endfacet
  facet normal 1.000000e+00 3.033135e-15 -1.346963e-15
    outer loop
      vertex 1.041000e+02 3.036671e+01 -8.640698e+02
      vertex 1.041000e+02 1.776536e+01 -8.502447e+02
      vertex 1.041000e+02 1.615050e+01 -8.538811e+02
    endloop
  endfacet
  facet normal 5.604229e-08 7.390576e-01 6.736423e-01
    outer loop
      vertex 9.710000e+01 1.957053e+01 -8.522252e+02
      vertex 1.041000e+02 1.776536e+01 -8.502447e+02
      vertex 1.041000e+02 3.036671e+01 -8.640698e+02
    endloop
  endfacet
endsolid SIM_ECUB_L_ANKLE_PITCH
