####
#
# OBJ File Generated by Meshlab
#
####
# Object sim_ecub_1-1_r_hand_thumb_1.obj
#
# Vertices: 26
# Faces: 48
#
####
mtllib ./sim_ecub_1-1_r_hand_thumb_1.obj.mtl

vn 0.3587713620053884 -0.5231671315150898 -0.7730325105110853
v 6.1416850090026855 2.1255798339843750 -21.0675258636474609
vn -0.7829904529871009 -0.5759777129617915 -0.2348949226832258
v -2.5317299365997314 -1.8766711950302124 -6.3480291366577148
vn -0.6013010374164862 0.7299806835481294 -0.3249080855387615
v -0.9835371971130371 3.4730277061462402 -26.4266605377197266
vn -0.2537513078458370 -0.8577318732246527 -0.4471088317412837
v 4.0746517181396484 -4.3537340164184570 -9.7779560089111328
vn -0.6592538624688108 0.7507414390651788 -0.0420908124214625
v -2.3381276130676270 3.5808694362640381 -2.1044600009918213
vn -0.1503846745290443 0.9882430182596258 -0.0275714803356359
v 8.0789451599121094 7.4452185630798340 2.7889261245727539
vn -0.1109953988254842 0.9820279394268957 -0.1526471343476078
v 7.5513772964477539 3.5000000000000000 -12.9287109375000000
vn 0.1347025734584825 -0.9873974947978263 -0.0830746891094913
v 7.6354522705078125 -9.8312263488769531 1.2876642942428589
vn -0.5394064168340967 -0.8293385753697288 -0.1457334720711387
v 0.4083034396171570 -14.7478561401367188 15.8500003814697266
vn -0.9830584893830454 -0.1318955017056681 0.1272775827934165
v -1.3328981399536133 -4.1928281784057617 9.3214426040649414
vn 0.1093968998246340 -0.7863993662850995 -0.6079542375994700
v 17.4424533843994141 -7.6814727783203125 -4.9728608131408691
vn -0.4680641772971761 -0.8126261314328415 0.3472098737703349
v 0.2850437164306641 -10.5340070724487305 18.4775428771972656
vn 0.1178915201162671 -0.9825286293001805 0.1440107013043969
v 10.8860626220703125 -7.2529625892639160 12.3690013885498047
vn 0.3227513479127987 -0.8239947970911325 0.4656867421209400
v 8.8577127456665039 -8.5573358535766602 18.9692993164062500
vn 0.2744802296100179 0.3188512888704177 0.9071904205506722
v 8.4253206253051758 -3.1714580059051514 21.2963466644287109
vn -0.4924094974024352 0.7243126444421929 0.4826013675581936
v -1.3579168319702148 4.2261409759521484 21.7263183593750000
vn 0.1961634944013894 -0.3363157280873123 -0.9210926199385908
v 35.4208755493164062 -5.7610435485839844 -10.4603805541992188
vn 0.1979565067082553 -0.9645319196916325 0.1746178609072927
v 31.0627422332763672 -10.9361085891723633 2.5687565803527832
vn 0.9642508729451021 -0.1595291427798705 0.2115908944839737
v 42.2379913330078125 -2.7865853309631348 1.8276051282882690
vn -0.1479349713323378 0.7186589771807350 -0.6794442720153290
v 30.0138988494873047 11.4691419601440430 -7.6122264862060547
vn 0.8111245529356319 0.5254827972879362 -0.2567971755674449
v 40.6688537597656250 10.9835653305053711 -5.4581027030944824
vn -0.0489795144858089 0.7385399096500401 -0.6724282928423261
v 21.5260887145996094 8.0400314331054688 -4.4035830497741699
vn 0.3881266214872817 0.2225480138775942 0.8943322130014140
v 36.3168525695800781 0.5615039467811584 11.0039463043212891
vn 0.3142600223467595 -0.7187887260054638 0.6201478902020521
v 27.0506515502929688 -3.8561227321624756 11.7432003021240234
vn 0.0907065775589665 0.8465483856519807 0.5245265937372141
v 15.5146188735961914 5.6856503486633301 8.1060371398925781
vn 0.2025264992217008 0.8583654185882791 0.4713722788675325
v 30.7574310302734375 10.1662740707397461 7.4015645980834961
# 26 vertices, 0 vertices normals


usemtl material_0
f 1//1 2//2 3//3
f 1//1 4//4 2//2
f 3//3 2//2 5//5
f 6//6 7//7 5//5
f 3//3 5//5 7//7
f 8//8 9//9 4//4
f 2//2 4//4 9//9
f 10//10 9//9 8//8
f 10//10 2//2 9//9
f 11//11 8//8 4//4
f 12//12 10//10 8//8
f 12//12 8//8 13//13
f 11//11 13//13 8//8
f 1//1 11//11 4//4
f 10//10 5//5 2//2
f 12//12 13//13 14//14
f 12//12 14//14 15//15
f 12//12 16//16 10//10
f 11//11 17//17 18//18
f 13//13 11//11 18//18
f 19//19 18//18 17//17
f 20//20 21//21 17//17
f 22//22 17//17 11//11
f 20//20 17//17 22//22
f 23//23 18//18 19//19
f 23//23 24//24 18//18
f 1//1 22//22 11//11
f 24//24 13//13 18//18
f 24//24 14//14 13//13
f 3//3 7//7 1//1
f 22//22 1//1 7//7
f 6//6 22//22 7//7
f 15//15 14//14 24//24
f 15//15 24//24 23//23
f 16//16 12//12 15//15
f 16//16 5//5 10//10
f 21//21 19//19 17//17
f 25//25 22//22 6//6
f 25//25 15//15 23//23
f 26//26 25//25 23//23
f 15//15 25//25 16//16
f 16//16 25//25 6//6
f 16//16 6//6 5//5
f 26//26 19//19 21//21
f 22//22 26//26 20//20
f 21//21 20//20 26//26
f 26//26 23//23 19//19
f 25//25 26//26 22//22
# 48 faces, 0 coords texture

# End of File
