####
#
# OBJ File Generated by Meshlab
#
####
# Object sim_ecub_1-1_l_hand_thumb_2.obj
#
# Vertices: 154
# Faces: 304
#
####
vn 0.5182321 -0.1335917 -0.8447418
v 7.8675284 -3.9930620 -37.9779930 0.992157 0.992157 0.992157
vn 0.9914330 -0.1301450 -0.0110909
v 8.3546524 -2.2910807 -36.4839249 0.992157 0.992157 0.992157
vn 0.5595459 -0.7715784 -0.3026139
v 7.0135322 -5.7737031 -37.1584625 0.988235 0.988235 0.988235
vn 0.8689470 -0.4947309 0.0131311
v 7.0190558 -5.7495933 -36.0707970 0.992157 0.992157 0.992157
vn -0.2063634 -0.1729297 -0.9630730
v 4.6198273 -5.1994495 -37.7146873 0.976471 0.976471 0.976471
vn 0.3813981 -0.9240328 0.0264358
v 5.8244824 -6.3808980 -31.7261143 0.992157 0.992157 0.992157
vn 0.0414035 -0.9655064 -0.2570664
v 5.2681756 -6.8142767 -35.7993469 0.988235 0.988235 0.988235
vn 0.9807811 0.1860927 -0.0586350
v 8.3480434 1.9084690 -35.6547546 0.988235 0.988235 0.988235
vn 0.9875327 -0.1572009 0.0081833
v 8.3201180 -2.2173097 -29.0912495 0.992157 0.992157 0.992157
vn 0.9911576 0.1324749 0.0075548
v 8.3480434 2.2945578 -29.5624676 0.992157 0.992157 0.992157
vn -0.0936689 -0.0755467 -0.9927331
v 6.7845311 1.9975493 -38.1173630 0.960784 0.960784 0.960784
vn 0.7627915 0.1152455 -0.6362921
v 8.1439381 1.7096242 -38.3393936 0.992157 0.992157 0.992157
vn 0.7214152 -0.6915618 0.0360900
v 6.7644253 -5.3421273 -25.6756039 0.996078 0.996078 0.996078
vn 0.9016215 -0.4322587 0.0151996
v 7.6086507 -4.5091887 -28.7549496 0.992157 0.992157 0.992157
vn 0.0087178 -0.3517381 -0.9360579
v -4.4000001 -5.7612152 -35.0435371 0.152941 0.152941 0.152941
vn 0.0072964 -0.3231178 -0.9463307
v -4.4267950 -0.6371056 -35.5189056 0.000000 0.000000 0.000000
vn 0.0353190 -0.9993169 -0.0108806
v 1.6614168 -7.2205577 -28.6347103 0.992157 0.992157 0.992157
vn -0.0388812 -0.9928016 -0.1132840
v -4.4949384 -6.9199038 -34.6316757 0.992157 0.992157 0.992157
vn 0.2409122 -0.9695625 0.0437025
v 4.1921148 -6.9015384 -22.5623016 0.996078 0.996078 0.996078
vn 0.8592054 0.5073217 -0.0662643
v 6.7878752 6.0719056 -36.1018600 0.988235 0.988235 0.988235
vn 0.9296852 0.3682428 -0.0090963
v 7.3205781 5.5309186 -29.9487343 0.992157 0.992157 0.992157
vn 0.0215105 -0.0637000 -0.9977372
v 3.2626150 8.0538454 -38.8371315 0.992157 0.992157 0.992157
vn 0.6998448 0.4341932 -0.5671803
v 6.2290406 6.4198098 -38.5866966 0.988235 0.988235 0.988235
vn 0.0381394 -0.2935975 -0.9551680
v 4.5925565 -2.5727711 -37.8723221 0.960784 0.960784 0.960784
vn 0.7247810 0.6889589 -0.0053091
v 4.6521883 8.4814100 -36.4429398 0.992157 0.992157 0.992157
vn 0.2948706 0.9533324 -0.0648751
v 3.7263474 9.0921440 -33.4589424 0.992157 0.992157 0.992157
vn 0.6852055 0.7241616 -0.0779970
v 5.4120288 7.9754663 -33.1996994 0.988235 0.988235 0.988235
vn 0.8378094 0.5452659 -0.0275795
v 6.2644196 7.3816133 -27.0433025 0.988235 0.988235 0.988235
vn 0.1011461 0.9778960 -0.1830001
v 1.8809854 9.1809483 -38.5594025 0.988235 0.988235 0.988235
vn 0.4142163 0.8741878 -0.2534181
v 4.5160356 8.4432688 -38.5156250 0.988235 0.988235 0.988235
vn 0.0014788 -0.0580074 -0.9983151
v 0.2943192 8.3379478 -38.8551369 0.992157 0.992157 0.992157
vn -0.0240556 0.9976138 -0.0647146
v -0.4871227 9.8495836 -30.4785061 0.992157 0.992157 0.992157
vn -0.0880458 0.8874223 -0.4524707
v -0.0021398 9.2057123 -38.7633896 0.988235 0.988235 0.988235
vn -0.1555590 0.9848154 -0.0770716
v -2.5564036 9.2271948 -36.5563545 0.988235 0.988235 0.988235
vn 0.4657498 0.8829504 -0.0589563
v 4.4417620 9.2343140 -27.3512001 0.988235 0.988235 0.988235
vn 0.0961206 0.9932424 -0.0650407
v 1.6718827 10.1263723 -24.3785896 0.992157 0.992157 0.992157
vn 0.9887143 -0.1487296 0.0179874
v 8.1119566 -3.1160426 -26.0052185 0.992157 0.992157 0.992157
vn 0.9817818 0.1895428 -0.0133440
v 8.3109779 2.6551275 -26.5583401 0.992157 0.992157 0.992157
vn 0.9869799 -0.1607830 0.0044263
v 8.2669029 -1.9659545 -19.9607315 0.992157 0.992157 0.992157
vn 0.9899064 0.1407210 -0.0168205
v 8.3480434 2.8717093 -20.4553127 0.992157 0.992157 0.992157
vn 0.4599370 -0.8847967 0.0747844
v 5.6912394 -6.0217214 -16.4029903 0.996078 0.996078 0.996078
vn 0.8666763 -0.4983376 0.0230623
v 7.3159781 -4.3603582 -19.6202049 0.992157 0.992157 0.992157
vn 0.8608281 0.5073928 -0.0390850
v 6.8045778 7.0199275 -20.9093628 0.988235 0.988235 0.988235
vn 0.6827041 0.7306946 0.0007663
v 4.5313745 9.5562496 -21.2548485 0.992157 0.992157 0.992157
vn -0.0221933 -0.0599255 -0.9979561
v -5.4861846 6.8097200 -38.7582893 0.992157 0.992157 0.992157
vn 0.0052710 -0.2689280 -0.9631459
v -7.1612349 0.4217063 -38.2822647 0.988235 0.988235 0.988235
vn -0.3471505 0.8088281 -0.4746405
v -4.2116833 8.5249338 -38.6604652 0.992157 0.992157 0.992157
vn -0.8614847 0.4411839 -0.2513981
v -7.4510880 4.7642989 -38.1303673 0.992157 0.992157 0.992157
vn -0.7607672 0.6408406 -0.1027452
v -5.6856146 7.3928423 -38.2942390 0.992157 0.992157 0.992157
vn 0.5361806 -0.0412122 -0.8430967
v -4.5999999 -5.0983262 -37.7738991 0.898039 0.898039 0.898039
vn -0.7452942 -0.0485733 -0.6649641
v -8.4958506 -0.0714032 -37.8212051 0.996078 0.996078 0.996078
vn -0.6549392 0.7542548 -0.0464157
v -4.5554667 8.7575817 -33.5005341 0.992157 0.992157 0.992157
vn -0.4187491 0.9060308 -0.0612983
v -4.2441053 9.3272867 -27.4198875 0.992157 0.992157 0.992157
vn 0.1420573 -0.8763798 -0.4601937
v -4.5999999 -6.5011959 -36.5009575 0.996078 0.996078 0.996078
vn -0.1234527 -0.9922767 0.0120972
v -2.8023798 -6.8936639 -25.6457348 0.992157 0.992157 0.992157
vn -0.3803586 -0.9246290 0.0197131
v -4.9148421 -6.7477980 -31.7660789 0.992157 0.992157 0.992157
vn -0.0280034 -0.9973932 0.0665026
v -0.6837771 -7.2423301 -19.5009460 0.992157 0.992157 0.992157
vn -0.1482800 0.9869367 -0.0630008
v -2.4847159 10.2051363 -21.3584270 0.988235 0.988235 0.988235
vn 0.0860509 -0.9921775 0.0904375
v 2.2923489 -6.2002778 -13.4507313 0.992157 0.992157 0.992157
vn 0.2715356 0.9603202 -0.0636673
v 3.2321732 10.2054911 -18.2548504 0.992157 0.992157 0.992157
vn -0.0352548 0.9973497 -0.0636456
v -0.5616763 10.8169069 -15.2792139 0.992157 0.992157 0.992157
vn 0.9917405 -0.1274752 0.0141728
v 8.3608637 -0.9004100 -13.9133978 0.992157 0.992157 0.992157
vn 0.9888145 0.1491501 -0.0001795
v 8.3480434 3.2577982 -14.3630285 0.992157 0.992157 0.992157
vn 0.7184291 -0.6847020 0.1226487
v 6.7793303 -4.3594766 -10.4791193 0.996078 0.996078 0.996078
vn 0.9179801 -0.3959006 0.0239845
v 7.6889782 -3.4072423 -13.5642004 0.992157 0.992157 0.992157
vn 0.3493235 -0.9332662 0.0835896
v 4.4491444 -5.3921423 -8.3573980 0.992157 0.992157 0.992157
vn 0.9281735 0.3721143 -0.0049893
v 7.1336617 6.8453479 -14.7714548 0.992157 0.992157 0.992157
vn 0.6484452 0.7551074 -0.0966005
v 5.1692643 9.1743870 -18.0150928 0.988235 0.988235 0.988235
vn 0.8252775 0.5637892 -0.0325400
v 6.1204267 8.5433578 -11.8595943 0.988235 0.988235 0.988235
vn 0.4415444 0.8951355 -0.0614091
v 4.3456159 10.2514696 -12.1551762 0.988235 0.988235 0.988235
vn 0.0800220 0.9957069 -0.0465238
v 1.6917911 11.0946074 -9.1830502 0.992157 0.992157 0.992157
vn 0.9922958 -0.1220783 0.0211177
v 8.1911621 -1.8181473 -11.1538401 0.992157 0.992157 0.992157
vn 0.9758280 0.2179836 -0.0155874
v 8.2369785 4.0615849 -11.3846054 0.992157 0.992157 0.992157
vn 0.9104217 -0.3584557 0.2064993
v 8.3891573 -0.2375103 -5.7222900 0.996078 0.996078 0.996078
vn 0.9830430 0.1819829 -0.0225538
v 8.2575588 4.3700275 -5.2887735 0.992157 0.992157 0.992157
vn 0.7892546 -0.5873914 0.1790215
v 4.2625341 -3.5902643 -2.6938062 0.980392 0.980392 0.980392
vn 0.7327569 -0.5791292 0.3573189
v 7.6194448 -3.0692255 -7.0935798 0.992157 0.992157 0.992157
vn 0.8472230 0.5296859 -0.0405715
v 6.5852036 8.3031654 -5.7302866 0.988235 0.988235 0.988235
vn 0.6684920 0.7436816 -0.0075065
v 4.5313745 10.5194893 -6.0554090 0.992157 0.992157 0.992157
vn -0.7546074 -0.5048145 -0.4192017
v -7.6677322 -4.9550867 -37.3815651 1.000000 1.000000 1.000000
vn -0.4622859 -0.8849676 -0.0558935
v -6.1412559 -6.4660373 -36.3940887 0.996078 0.996078 0.996078
vn -0.6700884 -0.7363800 0.0934136
v -6.9695683 -5.5457568 -32.0302086 0.992157 0.992157 0.992157
vn -0.9519279 -0.3052497 0.0256126
v -7.9092607 -3.9325669 -29.1052418 0.992157 0.992157 0.992157
vn -0.5202851 -0.8533230 0.0338129
v -5.7401757 -6.3839297 -22.4016953 0.992157 0.992157 0.992157
vn -0.7291510 -0.6842041 -0.0142673
v -6.6842170 -5.6112580 -28.8145370 0.992157 0.992157 0.992157
vn -0.9997813 0.0193086 -0.0080411
v -8.4862089 -0.2364002 -35.6385651 0.992157 0.992157 0.992157
vn -0.9879886 -0.1545265 -0.0001741
v -7.9119925 -4.3912673 -36.4472694 0.992157 0.992157 0.992157
vn -0.9815580 0.1890509 -0.0283507
v -8.0127707 3.4242418 -36.0638466 0.992157 0.992157 0.992157
vn -0.8157533 0.5766175 -0.0453742
v -6.8265605 6.1952190 -33.1484528 0.992157 0.992157 0.992157
vn -0.9670919 0.2543490 -0.0063260
v -7.9298387 4.0442367 -29.9733677 0.992157 0.992157 0.992157
vn -0.7733421 0.6321312 -0.0484991
v -5.7079940 8.0669327 -27.1521320 0.992157 0.992157 0.992157
vn -0.9090796 0.4158163 -0.0259066
v -7.4473290 5.6729250 -23.9733887 0.992157 0.992157 0.992157
vn -0.3497128 -0.9336969 0.0768830
v -5.2071934 -6.2418032 -16.9872589 0.992157 0.992157 0.992157
vn -0.7617387 0.6475313 -0.0213857
v -5.6215701 8.3457937 -24.3322945 0.992157 0.992157 0.992157
vn -0.6363959 0.7699984 -0.0458557
v -4.5313745 9.7433481 -18.3025227 0.992157 0.992157 0.992157
vn -0.1350651 -0.9878128 0.0773521
v -2.9574721 -5.9009056 -10.4373999 0.996078 0.996078 0.996078
vn -0.4092972 0.9103677 -0.0608806
v -4.2441053 10.2905273 -12.2204466 0.992157 0.992157 0.992157
vn 0.0163501 -0.9993776 -0.0312582
v -0.9232315 -5.9460406 -3.4969962 0.984314 0.984314 0.984314
vn -0.1422981 0.9883136 -0.0546587
v -2.4103332 11.1833944 -6.1603155 0.988235 0.988235 0.988235
vn 0.3471664 -0.9373510 0.0291286
v 1.2500000 -6.7333398 2.1935334 0.996078 0.996078 0.996078
vn 0.2295580 0.9731824 0.0148049
v 3.3003483 11.1671114 -3.0622470 0.988235 0.988235 0.988235
vn 0.0221054 0.9993671 -0.0278704
v -2.9630163 11.3711147 -0.0554229 0.992157 0.992157 0.992157
vn 0.7343008 -0.5679531 0.3717951
v 4.5000000 -1.8161861 -1.6828059 0.768627 0.768627 0.768627
vn 0.7834842 -0.3390470 0.5207683
v 4.4695525 -0.5676258 2.9489393 0.988235 0.988235 0.988235
vn 0.9757687 0.2177232 0.0217303
v 8.2044477 5.0172539 0.7859530 0.992157 0.992157 0.992157
vn 0.8388265 -0.4333471 0.3295155
v 8.1593838 4.6916623 1.0027355 0.984314 0.984314 0.984314
vn 0.9097728 -0.2770962 0.3090814
v 4.3827324 -2.5493078 1.8211055 0.988235 0.988235 0.988235
vn 0.7592421 -0.4935343 0.4242349
v 1.5000000 -6.1689668 6.6680493 0.992157 0.992157 0.992157
vn 0.9052197 0.4248084 -0.0107254
v 7.0527210 7.9732485 0.4135489 0.992157 0.992157 0.992157
vn 0.4161517 0.9087777 -0.0306773
v 4.9375458 10.3523235 -2.8298795 0.988235 0.988235 0.988235
vn 0.7423501 0.6550049 0.1410144
v 5.8178053 9.7602854 2.2926445 0.996078 0.996078 0.996078
vn 0.1557834 0.3542441 0.9220861
v 3.1218615 11.2011194 2.5261106 0.984314 0.984314 0.984314
vn 0.1050206 0.9774545 -0.1831759
v 2.8000000 11.1166134 0.1486634 0.976471 0.976471 0.976471
vn 0.3525437 0.0296156 0.9353266
v 8.0133486 5.4406319 2.7017279 0.992157 0.992157 0.992157
vn 0.1152714 0.1835274 0.9762327
v 3.7165906 5.1856470 2.9278877 0.980392 0.980392 0.980392
vn 0.4212377 0.2916134 0.8587901
v 1.5000000 -1.9923267 6.8702126 0.992157 0.992157 0.992157
vn -0.9999048 0.0127199 0.0053605
v -8.4972496 0.3397514 -29.5628185 0.992157 0.992157 0.992157
vn -0.9999791 0.0029760 -0.0057452
v -8.4852228 1.0719594 -23.4946671 0.992157 0.992157 0.992157
vn -0.9195584 -0.3925637 0.0174940
v -7.7243390 -3.9367754 -22.9883633 0.992157 0.992157 0.992157
vn -0.7603397 -0.6456410 0.0709312
v -7.1853795 -4.3444257 -16.8460007 0.988235 0.988235 0.988235
vn -0.9997899 0.0194558 -0.0064553
v -8.4984283 0.7835650 -20.4479694 0.992157 0.992157 0.992157
vn -0.9588346 -0.2822364 0.0312870
v -7.9599657 -2.8373897 -13.9146395 0.992157 0.992157 0.992157
vn -0.9897691 -0.1426565 0.0025103
v -8.0118246 -3.0791273 -20.0162258 0.992157 0.992157 0.992157
vn -0.9803034 0.1965085 -0.0197410
v -7.9864645 4.4703379 -20.8706875 0.992157 0.992157 0.992157
vn -0.8058417 0.5903054 -0.0464622
v -6.7474141 7.2914319 -17.9604759 0.992157 0.992157 0.992157
vn -0.9626998 0.2704961 -0.0063943
v -7.7936287 5.3955269 -14.7997780 0.992157 0.992157 0.992157
vn -0.5634111 -0.8039356 0.1904089
v -6.2576113 -4.6144505 -8.0365047 0.992157 0.992157 0.992157
vn -0.7576191 -0.6523192 0.0222053
v -6.7947545 -4.5501299 -13.6195145 0.992157 0.992157 0.992157
vn -0.7668002 0.6401016 -0.0478293
v -5.5648293 9.1900702 -11.9625797 0.992157 0.992157 0.992157
vn -0.9070902 0.4207825 -0.0113755
v -7.3449006 6.8325696 -8.7864370 0.992157 0.992157 0.992157
vn -0.6501510 -0.7493830 0.1254148
v -1.5000000 -6.1678319 -0.4316514 0.992157 0.992157 0.992157
vn -0.7559339 0.6542150 -0.0238056
v -5.5518665 9.3829575 -9.1365366 0.992157 0.992157 0.992157
vn -0.6224301 0.7812454 -0.0472916
v -4.5313745 10.7065887 -3.1030829 0.992157 0.992157 0.992157
vn -0.7058750 -0.6919829 0.1513276
v -1.5000000 -6.7382455 4.9559412 0.992157 0.992157 0.992157
vn -0.5271511 0.8493767 -0.0259002
v -4.2441053 11.1946449 2.0460739 0.992157 0.992157 0.992157
vn -0.1381125 -0.8417575 0.5218900
v -0.9977851 -5.7607141 7.4289689 0.992157 0.992157 0.992157
vn 0.0389453 0.9989026 -0.0260188
v 3.0406642 11.5025415 2.2203169 0.992157 0.992157 0.992157
vn -0.0604292 0.9689580 0.2397266
v -3.1547663 11.4069729 2.3828559 0.984314 0.984314 0.984314
vn -0.5660795 0.1201880 0.8155421
v -1.2500000 -2.8621230 7.7758293 0.992157 0.992157 0.992157
vn -0.1868597 0.2924578 0.9378443
v -3.0999999 4.6613927 2.9611115 0.960784 0.960784 0.960784
vn -0.0196514 0.0753056 0.9969668
v -3.0999999 11.0618219 2.5554945 0.984314 0.984314 0.984314
vn -0.9992337 0.0388606 0.0046838
v -8.4867382 1.5043423 -14.3792620 0.992157 0.992157 0.992157
vn -0.9976989 0.0620013 0.0274365
v -8.4589224 2.5194519 -8.8038626 0.992157 0.992157 0.992157
vn -0.9124996 -0.3511602 0.2098359
v -7.6814389 -3.0548666 -7.7838554 0.992157 0.992157 0.992157
vn -0.8220496 -0.4338247 0.3688232
v -4.5000000 -2.1412499 -0.5948508 0.992157 0.992157 0.992157
vn -0.9454097 -0.2010964 0.2564389
v -8.1427889 3.6977129 -2.4536281 0.980392 0.980392 0.980392
vn -0.8860281 0.4629216 -0.0256475
v -6.5729284 8.5064049 -2.7771356 0.992157 0.992157 0.992157
vn -0.8955935 -0.2335151 0.3786595
v -4.1999998 -1.5256394 2.8696558 0.984314 0.984314 0.984314
vn -0.5576320 -0.2710401 0.7845915
v -5.3542418 4.9502378 2.7457728 0.929412 0.929412 0.929412
vn -0.9410448 0.3316647 -0.0665824
v -7.6155977 6.8484120 0.5518278 0.992157 0.992157 0.992157
vn -0.2800327 -0.7281292 0.6256273
v -7.9594502 5.0521202 2.7024837 0.890196 0.890196 0.890196
vn -0.9751467 0.2198229 0.0276936
v -8.1806326 4.7536330 1.2518555 0.988235 0.988235 0.988235
vn -0.5871719 0.5109617 0.6278116
v -5.2987733 10.1525021 2.4498036 0.996078 0.996078 0.996078
vn -0.7565858 0.4596702 0.4650606
v -7.1058884 7.6582842 2.6199572 0.988235 0.988235 0.988235
# 154 vertices, 0 vertices normals

f 1//1 2//2 3//3
f 4//4 3//3 2//2
f 5//5 1//1 3//3
f 6//6 3//3 4//4
f 7//7 5//5 3//3
f 6//6 7//7 3//3
f 8//8 2//2 1//1
f 9//9 4//4 2//2
f 10//10 2//2 8//8
f 10//10 9//9 2//2
f 11//11 1//1 5//5
f 12//12 8//8 1//1
f 11//11 12//12 1//1
f 13//13 6//6 4//4
f 14//14 4//4 9//9
f 13//13 4//4 14//14
f 15//15 5//5 7//7
f 16//16 11//11 5//5
f 15//15 16//16 5//5
f 17//17 7//7 6//6
f 18//18 15//15 7//7
f 17//17 18//18 7//7
f 19//19 6//6 13//13
f 19//19 17//17 6//6
f 20//20 8//8 12//12
f 21//21 8//8 20//20
f 21//21 10//10 8//8
f 22//22 12//12 11//11
f 23//23 20//20 12//12
f 22//22 23//23 12//12
f 24//24 22//22 11//11
f 16//16 24//24 11//11
f 25//25 20//20 23//23
f 26//26 20//20 25//25
f 27//27 20//20 26//26
f 28//28 20//20 27//27
f 28//28 21//21 20//20
f 29//29 23//23 22//22
f 30//30 25//25 23//23
f 29//29 30//30 23//23
f 31//31 29//29 22//22
f 31//31 22//22 24//24
f 26//26 25//25 30//30
f 26//26 30//30 29//29
f 32//32 26//26 29//29
f 33//33 29//29 31//31
f 34//34 29//29 33//33
f 32//32 29//29 34//34
f 35//35 27//27 26//26
f 36//36 26//26 32//32
f 36//36 35//35 26//26
f 35//35 28//28 27//27
f 37//37 14//14 9//9
f 38//38 37//37 9//9
f 38//38 9//9 10//10
f 13//13 14//14 37//37
f 39//39 13//13 37//37
f 40//40 37//37 38//38
f 40//40 39//39 37//37
f 41//41 19//19 13//13
f 42//42 13//13 39//39
f 41//41 13//13 42//42
f 28//28 38//38 10//10
f 28//28 10//10 21//21
f 43//43 38//38 28//28
f 43//43 40//40 38//38
f 44//44 28//28 35//35
f 44//44 43//43 28//28
f 45//45 31//31 24//24
f 46//46 45//45 24//24
f 16//16 46//46 24//24
f 47//47 31//31 45//45
f 47//47 33//33 31//31
f 48//48 45//45 46//46
f 49//49 47//47 45//45
f 49//49 45//45 48//48
f 50//50 46//46 16//16
f 51//51 46//46 50//50
f 48//48 46//46 51//51
f 50//50 16//16 15//15
f 34//34 33//33 47//47
f 52//52 34//34 47//47
f 49//49 52//52 47//47
f 53//53 32//32 34//34
f 53//53 34//34 52//52
f 54//54 15//15 18//18
f 50//50 15//15 54//54
f 55//55 18//18 17//17
f 56//56 54//54 18//18
f 55//55 56//56 18//18
f 57//57 17//17 19//19
f 57//57 55//55 17//17
f 58//58 36//36 32//32
f 58//58 32//32 53//53
f 59//59 19//19 41//41
f 59//59 57//57 19//19
f 60//60 35//35 36//36
f 60//60 44//44 35//35
f 61//61 60//60 36//36
f 61//61 36//36 58//58
f 62//62 42//42 39//39
f 63//63 39//39 40//40
f 63//63 62//62 39//39
f 64//64 41//41 42//42
f 65//65 42//42 62//62
f 64//64 42//42 65//65
f 66//66 41//41 64//64
f 66//66 59//59 41//41
f 67//67 40//40 43//43
f 67//67 63//63 40//40
f 60//60 43//43 44//44
f 68//68 43//43 60//60
f 69//69 43//43 68//68
f 69//69 67//67 43//43
f 70//70 68//68 60//60
f 71//71 60//60 61//61
f 71//71 70//70 60//60
f 70//70 69//69 68//68
f 72//72 65//65 62//62
f 73//73 72//72 62//62
f 73//73 62//62 63//63
f 64//64 65//65 72//72
f 74//74 64//64 72//72
f 75//75 72//72 73//73
f 75//75 74//74 72//72
f 76//76 66//66 64//64
f 77//77 64//64 74//74
f 76//76 64//64 77//77
f 69//69 73//73 63//63
f 69//69 63//63 67//67
f 78//78 73//73 69//69
f 78//78 75//75 73//73
f 79//79 69//69 70//70
f 79//79 78//78 69//69
f 80//80 50//50 54//54
f 56//56 81//81 54//54
f 80//80 54//54 81//81
f 51//51 50//50 80//80
f 56//56 82//82 81//81
f 80//80 81//81 82//82
f 83//83 82//82 56//56
f 83//83 80//80 82//82
f 84//84 56//56 55//55
f 85//85 83//83 56//56
f 84//84 85//85 56//56
f 86//86 51//51 80//80
f 83//83 87//87 80//80
f 86//86 80//80 87//87
f 88//88 48//48 51//51
f 88//88 51//51 86//86
f 89//89 52//52 48//48
f 49//49 48//48 52//52
f 90//90 89//89 48//48
f 88//88 90//90 48//48
f 53//53 52//52 89//89
f 91//91 53//53 89//89
f 92//92 91//91 89//89
f 92//92 89//89 90//90
f 93//93 55//55 57//57
f 93//93 84//84 55//55
f 94//94 53//53 91//91
f 95//95 58//58 53//53
f 94//94 95//95 53//53
f 94//94 91//91 92//92
f 96//96 57//57 59//59
f 96//96 93//93 57//57
f 97//97 61//61 58//58
f 97//97 58//58 95//95
f 98//98 59//59 66//66
f 98//98 96//96 59//59
f 99//99 71//71 61//61
f 99//99 61//61 97//97
f 100//100 66//66 76//76
f 100//100 98//98 66//66
f 101//101 70//70 71//71
f 101//101 79//79 70//70
f 102//102 101//101 71//71
f 102//102 71//71 99//99
f 103//103 77//77 74//74
f 104//104 103//103 74//74
f 105//105 74//74 75//75
f 106//106 74//74 105//105
f 104//104 74//74 106//106
f 76//76 77//77 103//103
f 104//104 76//76 103//103
f 107//107 76//76 104//104
f 108//108 100//100 76//76
f 108//108 76//76 107//107
f 109//109 75//75 78//78
f 109//109 105//105 75//75
f 101//101 78//78 79//79
f 110//110 78//78 101//101
f 111//111 78//78 110//110
f 111//111 109//109 78//78
f 102//102 110//110 101//101
f 112//112 111//111 110//110
f 113//113 110//110 102//102
f 112//112 110//110 113//113
f 114//114 106//106 105//105
f 111//111 114//114 105//105
f 111//111 105//105 109//109
f 104//104 106//106 114//114
f 115//115 104//104 114//114
f 112//112 114//114 111//111
f 112//112 115//115 114//114
f 116//116 107//107 104//104
f 115//115 116//116 104//104
f 83//83 117//117 87//87
f 86//86 87//87 117//117
f 118//118 117//117 83//83
f 90//90 86//86 117//117
f 92//92 90//90 117//117
f 92//92 117//117 118//118
f 119//119 83//83 85//85
f 118//118 83//83 119//119
f 88//88 86//86 90//90
f 84//84 119//119 85//85
f 120//120 119//119 84//84
f 121//121 118//118 119//119
f 122//122 119//119 120//120
f 122//122 123//123 119//119
f 121//121 119//119 123//123
f 93//93 120//120 84//84
f 124//124 92//92 118//118
f 124//124 118//118 121//121
f 125//125 95//95 92//92
f 94//94 92//92 95//95
f 126//126 125//125 92//92
f 124//124 126//126 92//92
f 122//122 120//120 93//93
f 127//127 93//93 96//96
f 128//128 122//122 93//93
f 127//127 128//128 93//93
f 97//97 95//95 125//125
f 129//129 97//97 125//125
f 130//130 129//129 125//125
f 130//130 125//125 126//126
f 131//131 96//96 98//98
f 131//131 127//127 96//96
f 132//132 97//97 129//129
f 133//133 99//99 97//97
f 132//132 133//133 97//97
f 132//132 129//129 130//130
f 134//134 98//98 100//100
f 134//134 131//131 98//98
f 135//135 102//102 99//99
f 135//135 99//99 133//133
f 136//136 100//100 108//108
f 136//136 134//134 100//100
f 137//137 113//113 102//102
f 138//138 102//102 135//135
f 138//138 137//137 102//102
f 137//137 112//112 113//113
f 108//108 107//107 116//116
f 139//139 108//108 116//116
f 140//140 116//116 115//115
f 140//140 139//139 116//116
f 136//136 108//108 139//139
f 141//141 115//115 112//112
f 141//141 140//140 115//115
f 138//138 141//141 112//112
f 138//138 112//112 137//137
f 122//122 142//142 123//123
f 121//121 123//123 142//142
f 143//143 142//142 122//122
f 126//126 121//121 142//142
f 130//130 126//126 142//142
f 130//130 142//142 143//143
f 144//144 122//122 128//128
f 143//143 122//122 144//144
f 124//124 121//121 126//126
f 127//127 144//144 128//128
f 145//145 144//144 127//127
f 146//146 143//143 144//144
f 146//146 144//144 145//145
f 131//131 145//145 127//127
f 147//147 130//130 143//143
f 147//147 143//143 146//146
f 133//133 130//130 147//147
f 132//132 130//130 133//133
f 148//148 145//145 131//131
f 149//149 146//146 145//145
f 149//149 145//145 148//148
f 134//134 148//148 131//131
f 150//150 147//147 146//146
f 151//151 146//146 149//149
f 151//151 152//152 146//146
f 150//150 146//146 152//152
f 135//135 133//133 147//147
f 153//153 135//135 147//147
f 154//154 153//153 147//147
f 150//150 154//154 147//147
f 139//139 148//148 134//134
f 140//140 149//149 148//148
f 140//140 148//148 139//139
f 136//136 139//139 134//134
f 141//141 153//153 149//149
f 154//154 149//149 153//153
f 141//141 149//149 140//140
f 151//151 149//149 154//154
f 138//138 135//135 153//153
f 138//138 153//153 141//141
f 151//151 154//154 152//152
f 150//150 152//152 154//154
# 304 faces, 0 coords texture

# End of File
