####
#
# OBJ File Generated by Meshlab
#
####
# Object sim_ecub_1-1_r_hand_thumb_2.obj
#
# Vertices: 150
# Faces: 296
#
####
mtllib ./sim_ecub_1-1_r_hand_thumb_2.obj.mtl

vn 5.7241478 2.2902966 -0.2867135
v 7.6657367 6.7186623 0.4782726
vn 3.1766958 1.7817822 2.7006249
v 7.3472786 7.4279451 2.4765079
vn 3.6207309 -1.9237592 0.6835256
v 8.2096434 4.8288941 0.7751135
vn 1.6894603 -1.1784300 1.7160800
v 7.9590445 5.0517988 2.7026546
vn 5.2660217 3.1795905 -0.3063872
v 6.7504907 8.2414465 -2.6791029
vn 1.6746711 -1.4188973 5.1283498
v 5.9610491 4.9764824 2.7648168
vn 5.5592527 -0.4052272 0.9996548
v 8.2492151 3.8151586 -2.4914241
vn 2.6855872 2.3569105 2.7457674
v 5.6448474 9.8928099 2.3845596
vn 6.1371346 0.4486867 0.0836811
v 8.4515667 2.6173186 -8.7484550
vn 2.2521021 4.3453522 1.6566542
v 4.3456159 11.1516247 2.0488002
vn 5.6005292 2.5556235 -0.0713268
v 7.3971338 6.7108164 -8.7111559
vn 3.4635105 4.9804683 -0.3776640
v 4.6157131 10.6348686 -3.0173125
vn 5.0825939 -3.0335083 2.0187287
v 4.4887385 -2.6543489 -1.3396041
vn 5.0816832 -2.5191529 1.1279140
v 7.7314081 -2.9197156 -7.7137637
vn 0.9490258 1.9580204 5.5024133
v 3.4990797 10.9464626 2.5628052
vn 0.3376070 3.5833342 1.1158293
v 3.1564252 11.4171352 2.3705933
vn 5.2675581 -1.3306980 2.1019382
v 4.2527833 -1.4323263 2.8756819
vn 0.8201404 1.0492628 6.0269451
v 3.0999999 4.6704631 2.9605365
vn 5.7559433 -1.9857620 -0.0000533
v 7.9771791 -2.7909365 -13.8576832
vn 4.2394719 -4.4106941 0.5750668
v 6.7873921 -4.5482898 -13.5607262
vn 3.4446599 -4.7760644 0.9149584
v 6.2837873 -4.6057053 -8.0531502
vn 5.3785801 -2.8176138 0.1408918
v 7.3681288 -4.1142516 -16.8271999
vn 1.2043184 -6.0548596 0.4050042
v 3.4196153 -5.7979026 -10.3757238
vn 2.6033731 -5.2357316 0.6503738
v 5.4880114 -6.1069150 -16.4163189
vn 6.0934095 0.5751387 -0.0467865
v 8.4433260 1.9969685 -17.4022312
vn 6.1762986 0.2507729 -0.0788705
v 8.4920912 1.5740830 -14.3229733
vn -0.2625567 -6.0897574 -0.1792798
v 1.2500000 -5.9546213 -3.4415860
vn 2.7332003 -5.1221976 0.1068055
v 1.5000000 -6.1805158 -0.3497428
vn 3.0882084 -4.9795513 0.1163469
v 5.9151278 -6.2593675 -21.7709923
vn 5.6159515 -2.3472135 0.2146558
v 7.7424483 -3.9019988 -22.9686375
vn -0.6984832 -6.1351938 0.7717685
v -2.2526946 -6.1956415 -13.4328928
vn 0.2953630 -6.1200190 0.4504374
v 1.0978242 -7.2195435 -19.4959698
vn -1.7377763 -5.8002667 0.6809527
v -3.7849460 -5.5649695 -8.4270191
vn 5.3358212 3.0191469 -0.2924103
v 6.8684363 7.1095023 -17.9151058
vn 5.8193631 1.9272151 -0.3893034
v 7.7170959 5.5901327 -14.7543707
vn 6.1638598 0.2268406 0.0691727
v 8.4936819 0.9375799 -23.4627991
vn 4.5038495 4.1628904 0.2238866
v 5.7591538 8.9652319 -11.9050331
vn 2.7536619 5.2936440 -0.2791673
v 4.3456159 10.2502537 -12.1743670
vn 4.4034481 4.2196188 -0.3654070
v 5.5515590 9.3875313 -9.0695324
vn 3.3692904 4.9910145 -0.3119214
v 4.7576175 9.5392418 -18.2572613
vn 5.6533027 2.3976245 -0.0565039
v 7.5165882 5.5179052 -23.9440193
vn -2.1817908 -4.8193378 -0.4693399
v -1.2500000 -6.7400150 2.2603197
vn 2.4323034 -3.7572148 0.9405653
v 1.5000000 -6.7355299 5.0495753
vn -4.9265842 -2.7032804 0.8224746
v -4.4029040 -3.1352642 0.4745535
vn 1.3587224 5.9691195 -0.4227906
v 2.7683730 11.1111603 -6.1004772
vn 0.2856086 5.9272447 -0.0382394
v 3.0674736 11.4065456 0.0082587
vn -0.4261446 6.1678257 -0.3874924
v -1.1835340 11.1551428 -9.1586504
vn 0.3296311 6.1474171 -0.4222785
v 0.7674468 10.8179035 -15.2635498
vn -1.2980092 5.6359043 1.0380732
v -3.1762295 11.2057486 -3.0324898
vn 1.5092235 0.2479770 3.9224124
v 1.2500000 -2.8621230 7.7758293
vn -2.0553789 -2.4358635 2.4154103
v -1.5000000 -6.1318688 6.7180114
vn 1.6197158 -1.4316701 2.4141111
v 1.2500000 -5.7607141 7.4289689
vn -5.6381764 -1.6905894 0.9850821
v -4.4122152 -2.5291197 1.8979213
vn -0.5211581 0.3181164 -0.1690814
v -3.0406642 11.5024710 2.2205064
vn -1.5288203 1.4188939 -0.9702628
v 2.8000000 11.1207924 0.2146011
vn -2.5773959 0.7952701 4.8773432
v -1.5000000 -2.0266559 6.9132218
vn -0.1000616 1.8114512 5.8731651
v -3.1655364 5.1993070 2.9270220
vn -5.4644146 -2.1677804 1.9872357
v -4.4772539 -0.5696580 3.0111768
vn -3.2239876 0.4329767 2.5770867
v -7.9868836 5.5111289 2.7141349
vn -1.1128762 2.0950141 1.1036233
v -3.1161654 11.1649456 2.5378554
vn -2.0036359 2.6570833 2.3288321
v -5.6964431 9.8982458 2.3199565
vn -3.0114183 5.1139050 0.3004670
v -4.6341305 10.6288443 -2.8076982
vn 5.7085991 -2.1187708 -0.0566086
v 7.9223895 -3.8928239 -29.0966072
vn 3.9171968 -4.6429644 0.2981715
v 6.7687535 -5.5364838 -28.8045540
vn 4.8462248 -3.4162412 0.1377022
v 7.1683726 -5.3281980 -32.0598335
vn 1.0789958 -6.1525412 -0.0125068
v 3.1702416 -6.8092852 -25.6619492
vn 2.1723135 -5.7191701 0.3624890
v 5.2417164 -6.6380420 -31.7885094
vn 6.1023912 0.4021400 -0.0368394
v 8.4692087 0.6222482 -32.6249962
vn 6.1881366 0.1326213 -0.0863805
v 8.4954233 0.2879910 -29.5514088
vn 2.1430948 -4.3974676 -1.7861249
v 6.4141426 -6.3133674 -36.4586639
vn 2.8673632 -1.8707654 -2.3454792
v 7.6794715 -4.9238520 -37.4160881
vn -0.4476529 -6.1443930 -0.0396696
v -1.1983848 -7.2812252 -28.6617298
vn 0.1740799 -5.3047624 -1.4244323
v 4.5234632 -6.9389253 -34.6304703
vn -1.7340193 -5.7428107 0.0596873
v -3.8646207 -6.9956808 -22.7295628
vn 5.3828192 2.9334240 -0.2800336
v 6.9463563 5.9836326 -33.1509933
vn 5.8720942 1.6728351 -0.4680914
v 7.8946323 4.1248779 -29.9802513
vn 3.9533987 -0.1460118 -2.5752680
v 8.4904585 -0.1811091 -37.8388023
vn 4.5667701 4.0687399 0.2303488
v 5.9001083 7.8386974 -27.1422634
vn 2.7686794 5.2690234 -0.2748616
v 4.3456159 9.2839270 -27.4225101
vn 4.4935560 4.1094213 -0.4040166
v 5.7025766 8.2521544 -24.3069191
vn 3.4372156 4.9405060 -0.3190871
v 4.8242407 8.5082016 -33.4980850
vn 3.8139341 1.2502043 -2.5384903
v 7.5080366 4.6081409 -38.1470985
vn -2.8955455 -5.0266423 0.4144706
v -5.8419204 -5.9999590 -17.0276546
vn 1.4288412 5.9342165 -0.4264337
v 2.7490418 10.1481113 -21.3488617
vn -0.4701111 6.1641173 -0.3738357
v -1.3462695 10.1733723 -24.4057274
vn 0.3699455 6.1430206 -0.4102504
v 0.8319138 9.8475294 -30.5107803
vn -1.5771434 5.9568558 -0.3654411
v -3.4019625 10.1561165 -18.2593784
vn -3.9834611 -4.2913704 0.5248135
v -6.8176055 -4.3307643 -10.4782677
vn -2.7150376 5.3675423 -0.3747176
v -4.3456159 10.2515793 -12.1534500
vn -4.5092411 -3.1795626 0.6065183
v -7.5163665 -3.2461469 -7.1891618
vn -3.1282804 5.1811581 -0.3694949
v -4.5313745 10.5203056 -6.0425267
vn -3.8981001 0.0847030 2.1451395
v -4.5000000 -1.5008262 -1.3219380
vn -5.6490421 -1.2968167 1.0024385
v -8.3794594 -0.3067687 -5.7548609
vn -5.3681617 3.0547774 0.0813491
v -7.0529151 7.9741592 0.4328748
vn -5.1448870 3.4421935 -0.2436189
v -6.4347262 8.5328255 -5.7314563
vn -4.4179525 -1.4003935 3.1306102
v -8.1058521 4.6257000 1.2599630
vn -5.6773973 0.1284477 0.9320911
v -8.2044477 5.0456071 1.2333521
vn -2.0755196 -1.0762570 -3.1899986
v 4.9267025 -5.0865059 -37.7784042
vn -2.2239621 -2.4540980 -1.6981168
v 4.5999999 -6.5113869 -36.4837646
vn 0.5338135 -0.7634045 -5.7507529
v 7.2422471 0.4093989 -38.3228111
vn -2.6480899 -0.7154874 -3.6141174
v 4.4000001 -5.7560301 -35.0861130
vn 0.5867869 -1.9316610 -4.8239474
v -4.5000906 -5.2042384 -37.6675301
vn -1.1273873 -1.8357072 -2.9899883
v 4.4267426 -0.6068435 -35.3721466
vn -0.1052805 -0.4641985 -3.7191191
v -4.5849018 -1.1318843 -36.8007660
vn -2.2742343 -5.5495534 0.2232699
v -5.5416346 -6.5188322 -31.7684822
vn -0.9195622 -5.0923138 -1.6570010
v -4.8792925 -6.7994890 -35.8412628
vn 2.4118772 1.7963549 -3.0063143
v 5.7756162 6.6849313 -38.7236557
vn -0.1852529 0.3648013 -6.1933088
v 0.1941914 8.3418179 -38.8553810
vn -0.4760664 -0.8273582 -0.1889631
v -4.5000906 -2.5397270 -37.8075333
vn 1.5847365 2.8061466 -2.3833587
v 4.2116833 8.5249338 -38.6604652
vn 3.0931551 2.5651529 -2.6124742
v 5.7518625 7.2983661 -38.3426132
vn 0.2246804 2.9365320 -1.7221729
v 0.3926564 9.1715393 -38.7612228
vn 1.3614572 5.9078908 -0.6003361
v 2.6087389 9.2132254 -36.5975075
vn -0.4092688 4.2962418 -2.6929252
v -1.3770123 9.2730846 -38.4133949
vn -1.6613674 5.9180613 -0.3395079
v -3.3255775 9.2025213 -33.5239487
vn -3.9832792 -4.4312377 0.1349795
v -6.7067242 -5.3951936 -25.7205658
vn -2.7474415 5.3370399 -0.3820426
v -4.3456159 9.2852526 -27.4015923
vn -5.0104284 -3.4754922 -0.0279402
v -7.2443333 -4.4547124 -19.6497421
vn -3.1675324 5.1431985 -0.3496385
v -4.5313745 9.5539789 -21.2906685
vn -5.5271921 -2.5089121 0.4643875
v -7.6632900 -3.4532342 -13.5840864
vn -3.8655922 4.8030024 -0.2861552
v -4.9022522 9.4118204 -18.0399532
vn -5.7291994 -1.8271320 -0.0781591
v -8.1652660 -1.9191586 -11.1294069
vn -6.1294665 -0.7602030 0.1934487
v -8.3802967 -0.8236049 -13.9425383
vn -4.9312510 3.7596626 -0.1951649
v -5.9306612 8.7656584 -11.8722696
vn -5.4261813 2.9956768 -0.1283991
v -7.0199523 7.0436087 -14.8087549
vn -5.2490659 3.2662544 -0.2402466
v -6.6654916 7.2292209 -20.9581566
vn -5.9963427 1.3111362 -0.0238671
v -8.2229395 4.1416435 -11.3883677
vn -6.0267339 1.2935529 -0.1395883
v -8.2393637 4.4672933 -5.2816272
vn -6.1027994 1.0194857 -0.0412755
v -8.3107891 3.4955981 -14.4009924
vn -0.2496442 0.7279253 -6.0168061
v -2.8370347 8.0859404 -38.8391647
vn -2.3820093 1.2516503 -3.0998802
v -6.0893159 6.6190486 -38.5993233
vn -1.7756677 2.9093528 -2.8650856
v -4.3762856 8.4402075 -38.6432076
vn -2.1573646 0.2479436 -3.0360351
v -8.0059071 1.6857941 -38.4090462
vn -3.1588383 5.1077371 -0.4633196
v -4.5313745 8.5876522 -36.5388107
vn -2.4969666 -1.3561304 -2.6874580
v -7.8675265 -3.9930623 -37.9779930
vn -4.5821018 -3.7734904 0.1014116
v -7.2331662 -5.4347830 -34.8972778
vn -1.0888171 -2.2349315 -2.0939600
v -7.0139685 -5.7732534 -37.1587791
vn -5.2079401 -2.9620328 0.4209082
v -7.5727010 -4.5731878 -28.8231659
vn -4.0549564 4.6591349 -0.2558645
v -5.1703734 8.1947966 -33.2722092
vn -6.0208673 -1.2549586 0.0365481
v -8.2684116 -1.9666896 -19.9959106
vn -5.6888161 -1.9572188 -0.0423813
v -8.0993433 -3.1563554 -26.0484314
vn -6.0975585 -0.9678689 0.2127250
v -8.3266344 -2.1765032 -29.1662292
vn -5.0080323 3.6458485 -0.1848267
v -6.0891767 7.6006207 -27.1042728
vn -5.5287857 2.8070869 -0.0943076
v -7.2158799 5.7101831 -30.0337009
vn -5.2637792 3.1055911 -0.5504436
v -6.6846128 6.2479162 -36.1979179
vn -6.0406032 1.1204884 -0.0129632
v -8.2993336 2.7576401 -26.6100750
vn -6.0662556 1.0966283 -0.1138504
v -8.3048363 3.1341822 -20.5063457
vn -6.1284728 0.9064450 -0.0214126
v -8.3480434 2.2899427 -29.6352901
vn -5.9623928 -0.9057155 -0.5696143
v -8.3192902 -2.6821122 -36.2431412
vn -6.0182710 1.0144641 -0.4934870
v -8.3480434 1.9031470 -35.7387314
# 150 vertices, 0 vertices normals

f 1//1 2//2 3//3
f 4//4 3//3 2//2
f 5//5 1//1 3//3
f 6//6 3//3 4//4
f 7//7 5//5 3//3
f 6//6 7//7 3//3
f 8//8 2//2 1//1
f 8//8 4//4 2//2
f 8//8 1//1 5//5
f 6//6 4//4 8//8
f 9//9 5//5 7//7
f 10//10 8//8 5//5
f 11//11 5//5 9//9
f 12//12 5//5 11//11
f 10//10 5//5 12//12
f 13//13 7//7 6//6
f 9//9 7//7 14//14
f 13//13 14//14 7//7
f 15//15 6//6 8//8
f 16//16 8//8 10//10
f 16//16 15//15 8//8
f 17//17 13//13 6//6
f 18//18 17//17 6//6
f 15//15 18//18 6//6
f 19//19 14//14 20//20
f 21//21 20//20 14//14
f 22//22 19//19 20//20
f 23//23 20//20 21//21
f 24//24 22//22 20//20
f 23//23 24//24 20//20
f 9//9 14//14 19//19
f 13//13 21//21 14//14
f 25//25 19//19 22//22
f 26//26 9//9 19//19
f 25//25 26//26 19//19
f 27//27 23//23 21//21
f 28//28 21//21 13//13
f 27//27 21//21 28//28
f 29//29 22//22 24//24
f 30//30 25//25 22//22
f 29//29 30//30 22//22
f 31//31 24//24 23//23
f 32//32 29//29 24//24
f 31//31 32//32 24//24
f 33//33 23//23 27//27
f 33//33 31//31 23//23
f 11//11 9//9 26//26
f 34//34 26//26 25//25
f 35//35 11//11 26//26
f 34//34 35//35 26//26
f 36//36 34//34 25//25
f 36//36 25//25 30//30
f 37//37 11//11 35//35
f 38//38 11//11 37//37
f 39//39 12//12 11//11
f 38//38 39//39 11//11
f 37//37 35//35 34//34
f 38//38 37//37 34//34
f 40//40 38//38 34//34
f 41//41 34//34 36//36
f 40//40 34//34 41//41
f 17//17 28//28 13//13
f 42//42 27//27 28//28
f 43//43 28//28 17//17
f 42//42 28//28 43//43
f 44//44 27//27 42//42
f 44//44 33//33 27//27
f 45//45 12//12 39//39
f 46//46 12//12 45//45
f 46//46 10//10 12//12
f 45//45 39//39 38//38
f 47//47 45//45 38//38
f 48//48 38//38 40//40
f 47//47 38//38 48//48
f 49//49 46//46 45//45
f 49//49 45//45 47//47
f 50//50 43//43 17//17
f 18//18 50//50 17//17
f 51//51 42//42 43//43
f 52//52 43//43 50//50
f 51//51 43//43 52//52
f 53//53 42//42 51//51
f 53//53 44//44 42//42
f 54//54 10//10 46//46
f 54//54 16//16 10//10
f 54//54 46//46 55//55
f 49//49 55//55 46//46
f 56//56 52//52 50//50
f 57//57 56//56 50//50
f 57//57 50//50 18//18
f 51//51 52//52 56//56
f 58//58 51//51 56//56
f 59//59 56//56 57//57
f 59//59 58//58 56//56
f 53//53 51//51 58//58
f 60//60 57//57 18//18
f 60//60 18//18 15//15
f 61//61 57//57 60//60
f 61//61 59//59 57//57
f 54//54 60//60 15//15
f 54//54 15//15 16//16
f 54//54 55//55 60//60
f 61//61 60//60 55//55
f 62//62 55//55 49//49
f 61//61 55//55 62//62
f 63//63 30//30 64//64
f 29//29 64//64 30//30
f 65//65 63//63 64//64
f 66//66 64//64 29//29
f 67//67 65//65 64//64
f 66//66 67//67 64//64
f 36//36 30//30 63//63
f 68//68 63//63 65//65
f 69//69 36//36 63//63
f 68//68 69//69 63//63
f 32//32 66//66 29//29
f 70//70 65//65 67//67
f 71//71 68//68 65//65
f 71//71 65//65 70//70
f 72//72 67//67 66//66
f 73//73 70//70 67//67
f 72//72 73//73 67//67
f 74//74 66//66 32//32
f 74//74 72//72 66//66
f 41//41 36//36 69//69
f 75//75 69//69 68//68
f 76//76 41//41 69//69
f 75//75 76//76 69//69
f 77//77 75//75 68//68
f 77//77 68//68 71//71
f 78//78 41//41 76//76
f 79//79 41//41 78//78
f 80//80 40//40 41//41
f 79//79 80//80 41//41
f 78//78 76//76 75//75
f 79//79 78//78 75//75
f 81//81 79//79 75//75
f 82//82 75//75 77//77
f 81//81 75//75 82//82
f 83//83 32//32 31//31
f 83//83 74//74 32//32
f 84//84 40//40 80//80
f 48//48 40//40 84//84
f 84//84 80//80 79//79
f 85//85 84//84 79//79
f 86//86 79//79 81//81
f 85//85 79//79 86//86
f 87//87 48//48 84//84
f 87//87 84//84 85//85
f 88//88 31//31 33//33
f 88//88 83//83 31//31
f 89//89 47//47 48//48
f 89//89 48//48 87//87
f 90//90 33//33 44//44
f 90//90 88//88 33//33
f 91//91 49//49 47//47
f 91//91 47//47 89//89
f 53//53 58//58 44//44
f 92//92 44//44 58//58
f 93//93 44//44 92//92
f 90//90 44//44 93//93
f 91//91 62//62 49//49
f 94//94 61//61 62//62
f 91//91 95//95 62//62
f 94//94 62//62 95//95
f 96//96 92//92 58//58
f 97//97 58//58 59//59
f 96//96 58//58 97//97
f 96//96 93//93 92//92
f 94//94 59//59 61//61
f 94//94 97//97 59//59
f 98//98 71//71 70//70
f 73//73 99//99 70//70
f 98//98 70//70 99//99
f 100//100 71//71 98//98
f 100//100 77//77 71//71
f 73//73 101//101 99//99
f 98//98 99//99 101//101
f 102//102 101//101 73//73
f 103//103 98//98 101//101
f 104//104 103//103 101//101
f 102//102 104//104 101//101
f 105//105 73//73 72//72
f 106//106 102//102 73//73
f 105//105 106//106 73//73
f 100//100 98//98 103//103
f 107//107 77//77 100//100
f 107//107 82//82 77//77
f 104//104 100//100 103//103
f 108//108 107//107 100//100
f 104//104 109//109 100//100
f 108//108 100//100 109//109
f 110//110 82//82 107//107
f 111//111 81//81 82//82
f 110//110 111//111 82//82
f 112//112 110//110 107//107
f 112//112 107//107 108//108
f 113//113 81//81 111//111
f 86//86 81//81 113//113
f 113//113 111//111 110//110
f 114//114 113//113 110//110
f 112//112 114//114 110//110
f 115//115 86//86 113//113
f 115//115 113//113 114//114
f 116//116 72//72 74//74
f 116//116 105//105 72//72
f 117//117 85//85 86//86
f 117//117 86//86 115//115
f 118//118 74//74 83//83
f 118//118 116//116 74//74
f 119//119 87//87 85//85
f 119//119 85//85 117//117
f 120//120 83//83 88//88
f 120//120 118//118 83//83
f 89//89 87//87 121//121
f 119//119 121//121 87//87
f 90//90 93//93 88//88
f 122//122 88//88 93//93
f 123//123 88//88 122//122
f 120//120 88//88 123//123
f 124//124 89//89 121//121
f 125//125 124//124 121//121
f 119//119 126//126 121//121
f 125//125 121//121 126//126
f 91//91 89//89 124//124
f 95//95 124//124 127//127
f 125//125 127//127 124//124
f 91//91 124//124 95//95
f 128//128 122//122 93//93
f 97//97 128//128 93//93
f 96//96 97//97 93//93
f 127//127 122//122 128//128
f 129//129 122//122 127//127
f 129//129 123//123 122//122
f 95//95 127//127 128//128
f 94//94 95//95 128//128
f 94//94 128//128 97//97
f 125//125 129//129 127//127
f 104//104 130//130 109//109
f 108//108 109//109 130//130
f 131//131 130//130 104//104
f 114//114 108//108 130//130
f 132//132 114//114 130//130
f 132//132 130//130 131//131
f 133//133 104//104 102//102
f 131//131 104//104 133//133
f 112//112 108//108 114//114
f 134//134 115//115 114//114
f 132//132 134//134 114//114
f 135//135 102//102 106//106
f 133//133 102//102 135//135
f 136//136 106//106 105//105
f 136//136 137//137 106//106
f 135//135 106//106 137//137
f 138//138 105//105 116//116
f 138//138 136//136 105//105
f 117//117 115//115 139//139
f 134//134 139//139 115//115
f 118//118 140//140 116//116
f 141//141 116//116 140//140
f 142//142 116//116 141//141
f 138//138 116//116 142//142
f 143//143 117//117 139//139
f 144//144 143//143 139//139
f 134//134 145//145 139//139
f 144//144 139//139 145//145
f 119//119 117//117 143//143
f 126//126 143//143 146//146
f 144//144 146//146 143//143
f 119//119 143//143 126//126
f 123//123 140//140 118//118
f 147//147 141//141 140//140
f 129//129 147//147 140//140
f 129//129 140//140 123//123
f 120//120 123//123 118//118
f 146//146 141//141 147//147
f 148//148 141//141 146//146
f 148//148 142//142 141//141
f 126//126 146//146 147//147
f 125//125 126//126 147//147
f 125//125 147//147 129//129
f 144//144 148//148 146//146
f 136//136 149//149 137//137
f 135//135 137//137 149//149
f 142//142 149//149 136//136
f 150//150 135//135 149//149
f 148//148 150//150 149//149
f 148//148 149//149 142//142
f 138//138 142//142 136//136
f 133//133 135//135 150//150
f 145//145 133//133 150//150
f 144//144 145//145 150//150
f 144//144 150//150 148//148
f 131//131 133//133 145//145
f 134//134 131//131 145//145
f 132//132 131//131 134//134
# 296 faces, 0 coords texture

# End of File
