####
#
# OBJ File Generated by Meshlab
#
####
# Object sim_ecub_1-1_r_hand_ring_1.obj
#
# Vertices: 32
# Faces: 58
#
####
mtllib ./sim_ecub_1-1_r_hand_ring_1.obj.mtl

vn 0.2522879879533063 -0.4356041269993677 -0.8640600764273230
v -0.5208056569099426 8.1736106872558594 -43.0007209777832031
vn -0.2768568085540167 0.9551229561414352 -0.1053111874822934
v -4.4732780456542969 10.8894681930541992 -43.1844215393066406
vn 0.4378762664974364 0.8908357983717059 -0.1211443584229644
v 4.6369161605834961 10.8013486862182617 -42.8721771240234375
vn -0.0204886839476843 0.9997800280757823 -0.0044843383993519
v -0.1000951975584030 11.8463964462280273 -14.1293869018554688
vn 0.9085304660538859 0.0622409692727331 -0.4131566942406953
v 8.4638376235961914 3.2552387714385986 -43.0319328308105469
vn -0.9002925210027863 0.3422469560788842 -0.2689617030009770
v -7.3047327995300293 7.3052320480346680 -43.1601448059082031
vn -0.9031031496174887 -0.2562915228012818 -0.3445567536577566
v 4.5667924880981445 0.4973701238632202 -42.5455970764160156
vn 0.9358937127808842 0.3521917671402728 -0.0079948443276697
v 7.9719142913818359 6.4162149429321289 -32.1550636291503906
vn -0.9823956819421369 0.1867403790790033 0.0051725161066991
v -8.2648544311523438 4.9875240325927734 -22.9685859680175781
vn -0.9104245870654885 -0.4061283630343129 -0.0786563665935830
v -8.1004219055175781 -2.0142881870269775 -42.6088027954101562
vn 0.3422236737011936 0.1652183369899504 -0.9249788420719331
v -4.5000905990600586 -1.9451884031295776 -43.1686744689941406
vn -0.7922606795551247 -0.3618436245947511 0.4913168091679594
v 6.6888065338134766 4.8335752487182617 -39.2384529113769531
vn 0.4320115119760135 -0.8991609974961515 0.0698251681123963
v -0.7978942394256592 8.3162374496459961 -39.4497108459472656
vn 0.9880005319414807 0.1418637308382466 -0.0610707029270552
v -4.4000000953674316 -0.3849641978740692 -37.8322982788085938
vn -0.7887234028066330 0.6147464376274130 0.0014870405276194
v -5.5862917900085449 10.3816804885864258 -12.6344776153564453
vn 0.5443289286062882 0.8269607664880068 0.1408613082854862
v 4.6545705795288086 10.9519729614257812 3.1759896278381348
vn -0.3198219143182975 0.8583184134904218 0.4012523447720456
v -4.5832929611206055 11.1418628692626953 3.2270617485046387
vn -0.2794175522172467 0.9143059132690509 -0.2932073131321403
v 4.4000000953674316 -1.8793381452560425 -37.6207275390625000
vn 0.6090324207890651 -0.7340871151431468 -0.3003258527143867
v 6.9723658561706543 -3.7500925064086914 -42.3356742858886719
vn 0.9831131179642854 -0.1829405982816579 -0.0046189595029726
v 8.2940683364868164 -0.6157343983650208 -27.2043876647949219
vn 0.9564154476429739 -0.2698595661369695 0.1115585320549548
v 8.3865547180175781 0.8145919442176819 -4.4400062561035156
vn 0.9420056805561151 0.2191743195646831 0.2541415264048136
v 8.1816625595092773 5.8692030906677246 2.8735008239746094
vn -0.0897496852960760 -0.9930806557812764 -0.0757350982192893
v -2.7594261169433594 -5.2865118980407715 -39.8011779785156250
vn -0.9856846004959626 -0.1617149658914807 0.0476879245913666
v -8.6220321655273438 -0.6379796862602234 -6.5804305076599121
vn -0.8394814979576735 0.2169038467276917 0.4982203687741708
v -8.0761747360229492 5.2895226478576660 3.2393152713775635
vn 0.0088252313759488 0.2788550255971944 0.9602926585111172
v 2.4102730751037598 3.6618633270263672 3.2871174812316895
vn 0.2436179497663064 -0.9698519992747546 0.0061150678183434
v 6.0296263694763184 -4.4399871826171875 -25.2902717590332031
vn 0.5039508301272220 -0.8637323327480635 -0.0001348320152844
v 7.0957999229431152 -3.9276318550109863 -12.2211732864379883
vn -0.3021892276209632 -0.9532302129946948 0.0058165061621373
v -4.8301181793212891 -4.8741793632507324 -9.3949060440063477
vn 0.3289391921723724 -0.3216390173536859 0.8878892669521026
v 0.4280146658420563 -5.2305350303649902 8.9079866409301758
vn 0.1440280143304945 -0.9838763128934793 0.1060345793368721
v -0.1438705772161484 -7.3208050727844238 2.4175570011138916
vn -0.7762176981480263 -0.5708436313802382 0.2676259210061727
v -4.9267268180847168 -1.1578356027603149 1.8472492694854736
# 32 vertices, 0 vertices normals


usemtl material_0
f 1//1 2//2 3//3
f 4//4 3//3 2//2
f 5//5 1//1 3//3
f 1//1 6//6 2//2
f 7//7 1//1 5//5
f 8//8 5//5 3//3
f 9//9 6//6 10//10
f 11//11 6//6 1//1
f 11//11 10//10 6//6
f 7//7 12//12 1//1
f 13//13 1//1 12//12
f 14//14 1//1 13//13
f 11//11 1//1 14//14
f 15//15 2//2 6//6
f 15//15 4//4 2//2
f 9//9 15//15 6//6
f 16//16 3//3 4//4
f 17//17 4//4 15//15
f 18//18 12//12 7//7
f 19//19 7//7 5//5
f 19//19 18//18 7//7
f 16//16 8//8 3//3
f 20//20 5//5 8//8
f 20//20 19//19 5//5
f 21//21 20//20 8//8
f 22//22 8//8 16//16
f 21//21 8//8 22//22
f 23//23 10//10 11//11
f 18//18 11//11 14//14
f 19//19 11//11 18//18
f 19//19 23//23 11//11
f 24//24 9//9 10//10
f 24//24 15//15 9//9
f 25//25 17//17 15//15
f 25//25 15//15 24//24
f 16//16 4//4 17//17
f 26//26 17//17 25//25
f 26//26 16//16 17//17
f 22//22 16//16 26//26
f 27//27 19//19 20//20
f 28//28 20//20 21//21
f 28//28 27//27 20//20
f 23//23 29//29 10//10
f 24//24 10//10 29//29
f 30//30 26//26 25//25
f 27//27 23//23 19//19
f 30//30 22//22 26//26
f 31//31 28//28 21//21
f 30//30 21//21 22//22
f 32//32 24//24 29//29
f 31//31 32//32 29//29
f 25//25 24//24 32//32
f 30//30 25//25 32//32
f 30//30 32//32 31//31
f 27//27 29//29 23//23
f 28//28 29//29 27//27
f 30//30 31//31 21//21
f 28//28 31//31 29//29
# 58 faces, 0 coords texture

# End of File
