####
#
# OBJ File Generated by Meshlab
#
####
# Object sim_ecub_1-1_r_hand_pinkie_2.obj
#
# Vertices: 27
# Faces: 50
#
####
mtllib ./sim_ecub_1-1_r_hand_pinkie_2.obj.mtl

vn -0.2697115118551052 0.9382451481816908 -0.2166835071858272
v -3.1306586265563965 12.4852781295776367 -33.1681480407714844
vn 0.4550400567613702 0.8714749830428437 -0.1829478086042146
v 4.4214487075805664 11.5877771377563477 -36.1526679992675781
vn -0.5070056098558227 0.4695962407918675 -0.7227895144569212
v -4.3834128379821777 4.1244516372680664 -45.2040481567382812
vn 0.4923486109165834 0.4809944568834706 -0.7254220687130256
v 4.1949381828308105 7.5945219993591309 -43.7068214416503906
vn -0.9649871621315189 0.2189106600258751 -0.1444918677586857
v -8.7532339096069336 4.2185592651367188 -36.4184608459472656
vn 0.2772534906291831 -0.3620356013632372 -0.8899779352767644
v 1.8847973346710205 0.0093987835571170 -45.5514068603515625
vn -0.6727935348957326 0.7391072698292850 -0.0327002001217884
v -4.9998860359191895 12.0455083847045898 -24.7324829101562500
vn 0.1349765322978292 0.9908421515356272 0.0036285629527834
v 1.3172078132629395 13.2262592315673828 -4.5424222946166992
vn 0.8360291630347976 0.5486486073815642 -0.0063201403153732
v 7.1322460174560547 10.2669019699096680 -11.7676000595092773
vn -0.9235989551828461 0.3733220923523843 0.0871526554202050
v -7.3357276916503906 8.9098157882690430 -4.9447016716003418
vn -0.9862491685897133 0.1652600555619785 -0.0013005736237979
v -8.3709831237792969 5.7436556816101074 -20.3413467407226562
vn -0.3752247239022236 0.9087412474990026 0.1827450455319010
v -4.3033175468444824 12.4105682373046875 -3.5981783866882324
vn 0.4851638888713585 0.8020305314399250 0.3483719672611615
v 4.6643247604370117 11.4353904724121094 -0.7125119566917419
vn 0.9868372828342274 0.0787612727804353 -0.1412403593820295
v 9.1637430191040039 2.1874992847442627 -37.2938117980957031
vn 0.3567958086326614 -0.9239010820127770 -0.1382155620680444
v 5.7181696891784668 -6.2209496498107910 -39.1975898742675781
vn 0.9952640706078633 0.0574069394390172 0.0784466255571968
v 8.5366449356079102 4.1964755058288574 -4.6010370254516602
vn -0.5528543521474059 -0.7976269405150729 -0.2411292787619049
v -7.1729540824890137 -5.3553295135498047 -39.2806282043457031
vn -0.8602794907441440 -0.5089765652118302 0.0293607539100087
v -7.7285451889038086 -1.3477976322174072 -22.3678607940673828
vn -0.9828445489538474 -0.1308705099273661 0.1299596176627938
v -8.3887100219726562 -0.6453470587730408 0.4773588776588440
vn -0.5203100995850611 0.5605422708516986 0.6442590805399677
v -4.3301486968994141 7.7977275848388672 7.2688522338867188
vn 0.7202323058078394 0.4510056233211563 0.5271236604473548
v 4.8623218536376953 6.1131234169006348 7.7138533592224121
vn 0.4358262301727922 -0.8914210025442583 0.1241937732592172
v 7.5231227874755859 -2.3712348937988281 2.5428998470306396
vn 0.1379643903849407 -0.2806208871637075 0.9498514329478929
v 3.1510474681854248 -0.3319834768772125 11.4337520599365234
vn 0.7235889520369980 -0.6883492825667511 0.0509342093276992
v 7.1926550865173340 -2.6604037284851074 -22.8262844085693359
vn -0.0362328566234006 -0.9958403697734511 0.0836010647682440
v -1.3807650804519653 -3.5055861473083496 -23.9323673248291016
vn -0.1612865644369640 -0.9862822898793454 0.0351267533722630
v -5.3325862884521484 -3.2181956768035889 -7.3208527565002441
vn -0.3437041712933184 -0.8406566143294444 0.4185258646962323
v -4.5550160408020020 -1.9238021373748779 6.7073044776916504
# 27 vertices, 0 vertices normals


usemtl material_0
f 1//1 2//2 3//3
f 4//4 3//3 2//2
f 5//5 1//1 3//3
f 6//6 3//3 4//4
f 7//7 1//1 5//5
f 8//8 2//2 1//1
f 9//9 2//2 8//8
f 10//10 7//7 11//11
f 8//8 1//1 7//7
f 12//12 8//8 7//7
f 10//10 12//12 7//7
f 13//13 9//9 8//8
f 2//2 14//14 4//4
f 6//6 4//4 14//14
f 15//15 6//6 14//14
f 14//14 2//2 9//9
f 16//16 9//9 13//13
f 17//17 5//5 3//3
f 11//11 7//7 5//5
f 18//18 11//11 5//5
f 17//17 18//18 5//5
f 17//17 3//3 6//6
f 15//15 17//17 6//6
f 19//19 10//10 11//11
f 19//19 11//11 18//18
f 13//13 8//8 12//12
f 20//20 12//12 10//10
f 20//20 10//10 19//19
f 20//20 13//13 12//12
f 21//21 13//13 20//20
f 22//22 21//21 23//23
f 21//21 16//16 13//13
f 24//24 15//15 14//14
f 16//16 24//24 14//14
f 16//16 14//14 9//9
f 22//22 24//24 16//16
f 22//22 16//16 21//21
f 25//25 18//18 17//17
f 15//15 25//25 17//17
f 24//24 25//25 15//15
f 26//26 19//19 18//18
f 27//27 20//20 19//19
f 23//23 21//21 20//20
f 27//27 23//23 20//20
f 25//25 24//24 22//22
f 25//25 26//26 18//18
f 22//22 27//27 26//26
f 22//22 26//26 25//25
f 19//19 26//26 27//27
f 23//23 27//27 22//22
# 50 faces, 0 coords texture

# End of File
