####
#
# OBJ File Generated by Meshlab
#
####
# Object sim_ecub_1-1_l_hand_thumb_1.obj
#
# Vertices: 77
# Faces: 150
#
####
mtllib ./sim_ecub_1-1_l_hand_thumb_1.obj.mtl

vn -0.7121187545266320 0.1410239594686830 -0.6877493164716441
v -41.2080917358398438 2.0009064674377441 -6.0938525199890137
vn -0.7824750548018184 0.4615883571302618 0.4179341780408455
v -40.5776557922363281 6.0533394813537598 1.3499217033386230
vn -0.2635822731914800 0.9429658051105032 -0.2033220982862228
v -39.1865653991699219 8.3546705245971680 -6.2765712738037109
vn -0.9866048885049096 -0.0172429031375324 0.1622142912002658
v -41.0910720825195312 -2.6578931808471680 -1.8429298400878906
vn 0.2167679494247621 0.8072950926424187 -0.5488955178334509
v -33.5684356689453125 6.2438874244689941 -6.8529543876647949
vn 0.0346081514065173 0.2361865079041691 -0.9710912466603009
v -32.1711578369140625 -1.2112573385238647 -9.2512674331665039
vn -0.6703223838070812 0.2517974203941418 0.6980443831519939
v -37.9890289306640625 -2.9247376918792725 8.5754823684692383
vn -0.7838534840810678 -0.3752168742699548 0.4947585398525788
v -38.9153213500976562 -7.4966449737548828 6.5906181335449219
vn -0.0881468136619973 0.8524386177931443 0.5153431304831284
v -30.0605983734130859 7.8234643936157227 6.4586019515991211
vn 0.1333497365125403 0.8799802905150773 -0.4559084733551640
v -24.9289073944091797 5.5948624610900879 -3.9894323348999023
vn 0.2000198935866405 0.9492494495200439 0.2427293240535282
v -23.1483364105224609 4.2288303375244141 4.7899942398071289
vn -0.3384933696203062 -0.1769372957615473 0.9241836571221552
v -31.5964508056640625 -6.1468992233276367 12.3909111022949219
vn 0.0965969227832046 0.4896511361815907 0.8665510944802348
v -26.3024120330810547 2.4622604846954346 10.2591886520385742
vn -0.7636395268790311 0.0760257180610742 -0.6411511235124426
v -40.5369071960449219 -4.6852192878723145 -6.5732698440551758
vn -0.8249295756785829 -0.5408915937392861 0.1640959444743484
v -40.9537963867187500 -12.0604600906372070 -3.1653361320495605
vn -0.4040592001538318 -0.4972963230926090 -0.7677450942921207
v -39.9639167785644531 -11.8513803482055664 -8.8586521148681641
vn 0.1528319580582124 0.2496508106813958 -0.9561991765956581
v -24.0275039672851562 -3.2824134826660156 -6.5181050300598145
vn 0.0368914339072156 0.3901712329104701 -0.9200029516873266
v -17.9552173614501953 2.7527332305908203 -4.1165914535522461
vn 0.0657062604873192 0.9462246269125397 -0.3167674900569779
v -6.7763857841491699 4.0230669975280762 -1.9852378368377686
vn 0.2465459086664355 0.1922003873283491 0.9498811115243181
v -25.7382106781005859 -3.6093962192535400 12.6322727203369141
vn -0.0351479387296114 0.3156365686791981 0.9482289696668634
v -22.9077510833740234 -6.2478237152099609 10.1561412811279297
vn -0.2129493178332652 0.5987850097348899 0.7720810191625843
v -16.4448699951171875 -0.9639126062393188 10.9101085662841797
vn -0.3759716266042559 -0.7813069975164615 0.4982014769351472
v -34.8841667175292969 -12.0710201263427734 3.5430169105529785
vn -0.0857596196320343 -0.5683700161668024 0.8182913981969490
v -24.4834918975830078 -7.4830780029296875 11.7994346618652344
vn -0.4032449407119820 0.6518782030876822 -0.6422213996196053
v -13.0666131973266602 1.3349765539169312 -5.4064807891845703
vn -0.1938913545700711 0.9028794942899498 0.3836857586798176
v -14.0154304504394531 4.1004800796508789 6.1013016700744629
vn 0.1261084095488638 0.9915978816819232 -0.0288151016826007
v -7.9784603118896484 5.9760985374450684 2.6268784999847412
vn -0.5176613182511800 0.6484880704123361 0.5581128757870899
v -6.6118741035461426 3.2343451976776123 13.7861871719360352
vn -0.5521948893966941 0.3900468622329220 0.7368475075525631
v -14.6168766021728516 -4.1180682182312012 14.1074094772338867
vn 0.1400090830332323 -0.4642015417711687 -0.8745938401826663
v -32.4509391784667969 -9.9405832290649414 -11.0083656311035156
vn -0.0080512154685674 -0.9923150661020080 -0.1234746432124667
v -31.5655078887939453 -14.4434671401977539 0.2270410358905792
vn 0.2297825305129914 -0.0793735487946292 -0.9699999115581366
v -21.2156963348388672 -8.6386098861694336 -6.6455421447753906
vn 0.0450796303739110 -0.9595195315479608 0.2780109629193306
v -26.9329490661621094 -13.4850673675537109 6.5074305534362793
vn -0.2007896591422855 0.0165297883364163 -0.9794949100832928
v -11.2614307403564453 -3.2489006519317627 -6.5504322052001953
vn 0.0186742615102954 -0.9809997585167284 0.1931081193196334
v -17.2635478973388672 -11.8502531051635742 6.0558252334594727
vn -0.1305611584420646 -0.8767624471489883 0.4628621773007419
v -12.9079322814941406 -9.3580379486083984 14.0695199966430664
vn -0.3071356778554643 0.9063908244869413 -0.2900402535410345
v -7.2624735832214355 2.2030384540557861 -11.3884277343750000
vn -0.5549546919641986 0.2474435729328945 0.7942272773464311
v -10.0962133407592773 -6.3305039405822754 21.3606033325195312
vn 0.0462497950814716 0.9840136839853284 0.1719826333806526
v -7.8359789848327637 5.5026926994323730 7.3192520141601562
vn 0.5606672425494906 0.8210286417070594 0.1075370291044511
v 0.0071303118020296 2.1303737163543701 3.8672821521759033
vn 0.4831174542565399 0.8751342087426215 0.0271595670272180
v 1.6631360054016113 3.6867799758911133 -2.5699629783630371
vn -0.4199343435278275 0.5408827212168413 0.7287667864378269
v -0.9150824546813965 1.0981011390686035 21.6941280364990234
vn 0.3622413426080837 0.9281977536768160 -0.0850302285943409
v -1.3372908830642700 2.7853667736053467 8.3246517181396484
vn -0.0642640806097619 0.9938266611550944 0.0904361405672474
v -4.3871550559997559 3.6476871967315674 17.5439891815185547
vn 0.3351909761872061 0.8562588277534661 0.3930239552201976
v 1.3962892293930054 4.7987856864929199 18.3629283905029297
vn 0.5396795140218169 0.7950902651792399 -0.2767263853744011
v 3.7115299701690674 3.3676688671112061 11.8515062332153320
vn 0.7605298458146330 -0.5746561507494349 -0.3022658797003280
v 1.5702126026153564 -1.4126180410385132 6.4797959327697754
vn 0.9482040314041573 0.0113970355878581 0.3174574340107869
v 4.8543634414672852 -0.0780433267354965 18.6524677276611328
vn 0.2747267550232365 -0.1574005057623234 0.9485516806480115
v 0.8236409425735474 -0.7941171526908875 21.9022865295410156
vn 0.2232827612651084 -0.9162880667804468 -0.3325071235290760
v -27.9039974212646484 -11.5134754180908203 -6.8875575065612793
vn 0.1121410913860361 -0.9227165558932370 -0.3688069049018355
v -21.9862346649169922 -10.9062347412109375 -5.6446328163146973
vn 0.0772028675679149 -0.5544537240057390 -0.8286258414842363
v -7.7056059837341309 -6.0833497047424316 -5.7965812683105469
vn -0.3381788462153913 0.8501178591902119 -0.4036516981981840
v -5.8921079635620117 1.1128045320510864 -26.2358226776123047
vn -0.5542285151765578 -0.8271140735514739 -0.0933437855364514
v -7.7372808456420898 -0.1772855669260025 -16.7965679168701172
vn -0.4000616819455497 0.9164231815247760 0.0109180127727304
v -8.1032276153564453 2.1650111675262451 -14.2689371109008789
vn 0.2663552987191432 0.9590078419554122 -0.0967409629487896
v 1.6537398099899292 3.6253945827484131 -13.2369260787963867
vn 0.8157583874877439 0.4046941081989738 -0.4132322979057096
v 2.6092932224273682 0.5445366501808167 -26.5523014068603516
vn -0.1511700414054274 0.9880190665078805 0.0310796203062040
v -0.3360019028186798 1.5084640979766846 -12.6395454406738281
vn 0.8562321212166071 -0.5154330718606445 -0.0345731547477127
v 2.7555630207061768 -1.6813365221023560 -11.9009370803833008
vn 0.8764512051042612 -0.4776279947959746 0.0608669340320722
v 2.9295399188995361 -2.0035524368286133 0.5423005223274231
vn -0.4929646119486786 -0.6973540068422780 -0.5202723138004836
v -7.3295335769653320 -0.5477619171142578 -11.6259937286376953
vn -0.1704705670252769 -0.6762011845932575 0.7167229197763636
v -7.3067374229431152 -9.1411542892456055 19.4045867919921875
vn -0.0466522401210156 -0.9786279154338878 -0.2002772369122723
v -1.5374860763549805 -2.9751515388488770 -26.0008640289306641
vn 0.8853284281814452 -0.3927380287153740 -0.2488984030775087
v 4.3648738861083984 -1.9670987129211426 11.2830867767333984
vn 0.6239354510022629 -0.3427836662325264 0.7022847792361664
v 0.8932768106460571 -7.0772895812988281 19.5897064208984375
vn 0.1124782831358110 -0.9934354325962348 0.0208489108864766
v -8.8944168090820312 -12.2914466857910156 0.8029716610908508
vn -0.1356486042269610 -0.9906634174210542 -0.0136179864486430
v -1.5984491109848022 -1.9346712827682495 -15.4504022598266602
vn 0.2283230041945505 -0.9102348221783872 -0.3454579196507949
v -2.3962988853454590 -3.1057875156402588 -7.9429049491882324
vn 0.4593595533283111 -0.7666101341098954 -0.4486621257093388
v -4.8589773178100586 -9.7455682754516602 -2.3505191802978516
vn 0.1714297974700217 -0.9353626769481018 -0.3093678831292417
v -7.4356856346130371 -8.0840835571289062 12.6518287658691406
vn 0.6199634200648412 -0.7846130216019763 -0.0052691663592869
v -6.3375091552734375 -6.6094336509704590 6.1200594902038574
vn 0.9694741328622718 0.1470596577563356 0.1961972547502525
v -9.4670419692993164 -8.8080778121948242 6.9338178634643555
vn 0.8408120878278096 -0.4511247328628814 0.2992014511362431
v -5.1555280685424805 -11.0536832809448242 3.6106958389282227
vn 0.3547199483467341 -0.7405510466965057 -0.5707520525426082
v -0.9076737165451050 -6.3556318283081055 15.2723522186279297
vn -0.1504089687485627 -0.9365983108520466 0.3164818260644468
v -1.0030604600906372 -16.0792694091796875 17.7193031311035156
vn 0.6310466836866087 -0.3741846262891353 -0.6795336257000041
v 1.3720300197601318 -11.6988258361816406 15.9600086212158203
vn 0.6910733295175042 -0.6583496385686433 0.2983176270791384
v -1.8261272907257080 -2.8644824028015137 -0.1344835013151169
# 77 vertices, 0 vertices normals


usemtl material_0
f 1//1 2//2 3//3
f 4//4 2//2 1//1
f 5//5 1//1 3//3
f 6//6 1//1 5//5
f 7//7 2//2 4//4
f 8//8 7//7 4//4
f 9//9 3//3 2//2
f 5//5 3//3 9//9
f 10//10 6//6 5//5
f 11//11 5//5 9//9
f 11//11 10//10 5//5
f 9//9 2//2 7//7
f 12//12 9//9 7//7
f 13//13 11//11 9//9
f 1//1 14//14 4//4
f 15//15 14//14 16//16
f 15//15 4//4 14//14
f 14//14 1//1 6//6
f 12//12 7//7 8//8
f 17//17 6//6 10//10
f 18//18 17//17 10//10
f 12//12 13//13 9//9
f 19//19 18//18 10//10
f 20//20 13//13 12//12
f 21//21 13//13 20//20
f 22//22 13//13 21//21
f 6//6 16//16 14//14
f 8//8 4//4 15//15
f 12//12 8//8 23//23
f 24//24 20//20 12//12
f 25//25 18//18 19//19
f 24//24 21//21 20//20
f 26//26 10//10 11//11
f 26//26 27//27 10//10
f 22//22 11//11 13//13
f 19//19 10//10 27//27
f 22//22 26//26 11//11
f 28//28 26//26 22//22
f 28//28 22//22 29//29
f 30//30 16//16 6//6
f 8//8 15//15 23//23
f 31//31 23//23 15//15
f 16//16 31//31 15//15
f 16//16 30//30 31//31
f 32//32 6//6 17//17
f 32//32 30//30 6//6
f 33//33 12//12 23//23
f 33//33 24//24 12//12
f 34//34 17//17 18//18
f 35//35 24//24 33//33
f 34//34 18//18 25//25
f 29//29 21//21 24//24
f 36//36 29//29 24//24
f 36//36 24//24 35//35
f 29//29 22//22 21//21
f 37//37 34//34 25//25
f 37//37 25//25 19//19
f 38//38 28//28 29//29
f 39//39 27//27 26//26
f 19//19 27//27 40//40
f 41//41 19//19 40//40
f 37//37 19//19 41//41
f 28//28 39//39 26//26
f 38//38 42//42 28//28
f 43//43 27//27 39//39
f 44//44 39//39 28//28
f 43//43 39//39 44//44
f 40//40 27//27 43//43
f 42//42 44//44 28//28
f 45//45 46//46 44//44
f 46//46 43//43 44//44
f 47//47 40//40 43//43
f 46//46 47//47 43//43
f 42//42 45//45 44//44
f 48//48 46//46 45//45
f 49//49 45//45 42//42
f 49//49 48//48 45//45
f 50//50 31//31 30//30
f 32//32 50//50 30//30
f 32//32 51//51 50//50
f 31//31 33//33 23//23
f 32//32 17//17 34//34
f 52//52 32//32 34//34
f 53//53 54//54 55//55
f 56//56 53//53 55//55
f 57//57 53//53 56//56
f 55//55 58//58 56//56
f 58//58 55//55 37//37
f 58//58 37//37 56//56
f 37//37 41//41 56//56
f 59//59 56//56 41//41
f 60//60 59//59 41//41
f 60//60 41//41 40//40
f 61//61 55//55 54//54
f 61//61 37//37 55//55
f 61//61 34//34 37//37
f 52//52 34//34 61//61
f 36//36 38//38 29//29
f 38//38 36//36 62//62
f 49//49 42//42 38//38
f 62//62 49//49 38//38
f 59//59 57//57 56//56
f 63//63 57//57 59//59
f 47//47 60//60 40//40
f 64//64 47//47 46//46
f 64//64 46//46 48//48
f 65//65 48//48 49//49
f 65//65 49//49 62//62
f 33//33 50//50 51//51
f 35//35 33//33 51//51
f 31//31 50//50 33//33
f 66//66 36//36 35//35
f 51//51 32//32 52//52
f 67//67 68//68 54//54
f 61//61 54//54 68//68
f 63//63 54//54 53//53
f 67//67 54//54 63//63
f 63//63 53//53 57//57
f 68//68 52//52 61//61
f 69//69 52//52 68//68
f 69//69 51//51 52//52
f 70//70 62//62 36//36
f 71//71 70//70 72//72
f 73//73 71//71 72//72
f 70//70 73//73 72//72
f 74//74 70//70 71//71
f 75//75 62//62 70//70
f 76//76 70//70 74//74
f 76//76 75//75 70//70
f 71//71 77//77 47//47
f 60//60 47//47 77//77
f 73//73 77//77 71//71
f 69//69 60//60 77//77
f 73//73 69//69 77//77
f 74//74 71//71 47//47
f 65//65 62//62 75//75
f 76//76 64//64 65//65
f 48//48 65//65 64//64
f 35//35 51//51 66//66
f 69//69 66//66 51//51
f 73//73 66//66 69//69
f 70//70 36//36 66//66
f 70//70 66//66 73//73
f 59//59 67//67 63//63
f 68//68 67//67 59//59
f 60//60 69//69 68//68
f 59//59 60//60 68//68
f 74//74 47//47 64//64
f 76//76 74//74 64//64
f 76//76 65//65 75//75
# 150 faces, 0 coords texture

# End of File
