####
#
# OBJ File Generated by Meshlab
#
####
# Object sim_ecub_1-1_l_foot_rear.obj
#
# Vertices: 10
# Faces: 16
#
####
mtllib ./sim_ecub_1-1_l_foot_rear.obj.mtl

vn -0.0926902519580820 -0.1883102247288393 0.9777258186498511
v -48.7984352111816406 -49.6887359619140625 -17.1753940582275391
vn 0.0670700327731889 -0.1717026642319973 -0.9828630656400908
v 56.9295272827148438 -49.8994255065917969 -24.0993442535400391
vn 0.1503763514075003 -0.1058470441168895 0.9829462631238216
v 58.4228286743164062 -49.9462585449218750 -16.2999992370605469
vn -0.0039200894830186 -0.0045854868680448 0.9999818029387475
v -1.4787893295288086 -4.2934350967407227 -13.8742437362670898
vn 0.0933318562493369 0.1606100695832982 0.9825953237002003
v 58.0037078857421875 49.9095954895019531 -16.2999973297119141
vn -0.0735128595727043 -0.0440368256951319 -0.9963215432078845
v -58.1585159301757812 -49.7991065979003906 -24.2811527252197266
vn -0.1431487719656671 0.0849016866701649 0.9860528042074027
v -58.3986396789550781 49.9233131408691406 -16.2999992370605469
vn -0.0560072729217170 0.1332970050774280 -0.9894923414646829
v -57.3573532104492188 49.3103141784667969 -24.1412048339843750
vn 0.0598489403443976 0.4067180593265727 -0.9115912047388781
v 55.4387130737304688 49.8704757690429688 -23.0737876892089844
vn 0.0682750710068281 0.0064544207894537 -0.9976456560980382
v 57.5687332153320312 32.2117424011230469 -24.2246780395507812
# 10 vertices, 0 vertices normals


usemtl material_0
f 1//1 2//2 3//3
f 4//4 1//1 3//3
f 4//4 3//3 5//5
f 6//6 2//2 1//1
f 4//4 7//7 1//1
f 7//7 6//6 1//1
f 8//8 6//6 7//7
f 4//4 5//5 7//7
f 8//8 7//7 5//5
f 8//8 5//5 9//9
f 9//9 5//5 10//10
f 10//10 5//5 3//3
f 10//10 3//3 2//2
f 10//10 2//2 6//6
f 8//8 10//10 6//6
f 9//9 10//10 8//8
# 16 faces, 0 coords texture

# End of File
