solid SIM_ECUB_L_UPPERARM
  facet normal -9.078551e-01 -3.521407e-01 -2.275875e-01
    outer loop
      vertex 1.481939e+02 -5.912998e+01 4.604107e+01
      vertex 1.393091e+02 -3.598801e+01 4.567589e+01
      vertex 1.540194e+02 -4.578976e+01 2.162015e+00
    endloop
  endfacet
  facet normal -9.363753e-01 -2.306238e-01 -2.646014e-01
    outer loop
      vertex 1.541638e+02 -3.785866e+01 -5.261458e+00
      vertex 1.540194e+02 -4.578976e+01 2.162015e+00
      vertex 1.393091e+02 -3.598801e+01 4.567589e+01
    endloop
  endfacet
  facet normal -5.940542e-01 -7.442996e-01 -3.051518e-01
    outer loop
      vertex 1.599140e+02 -7.126676e+01 5.282813e+01
      vertex 1.481939e+02 -5.912998e+01 4.604107e+01
      vertex 1.540194e+02 -4.578976e+01 2.162015e+00
    endloop
  endfacet
  facet normal -6.716681e-01 -4.997136e-01 -5.469446e-01
    outer loop
      vertex 1.551230e+02 -3.739553e+01 -6.862595e+00
      vertex 1.540194e+02 -4.578976e+01 2.162015e+00
      vertex 1.541638e+02 -3.785866e+01 -5.261458e+00
    endloop
  endfacet
  facet normal -4.287291e-01 -8.261725e-01 -3.655549e-01
    outer loop
      vertex 1.560328e+02 -4.665770e+01 1.762285e+00
      vertex 1.599140e+02 -7.126676e+01 5.282813e+01
      vertex 1.540194e+02 -4.578976e+01 2.162015e+00
    endloop
  endfacet
  facet normal -4.062641e-01 -6.437618e-01 -6.484753e-01
    outer loop
      vertex 1.551230e+02 -3.739553e+01 -6.862595e+00
      vertex 1.560328e+02 -4.665770e+01 1.762285e+00
      vertex 1.540194e+02 -4.578976e+01 2.162015e+00
    endloop
  endfacet
  facet normal -9.218258e-01 -3.563204e-01 -1.525545e-01
    outer loop
      vertex 1.300517e+02 -3.371010e+01 9.629420e+01
      vertex 1.393091e+02 -3.598801e+01 4.567589e+01
      vertex 1.481939e+02 -5.912998e+01 4.604107e+01
    endloop
  endfacet
  facet normal -9.485576e-01 1.440912e-01 -2.819153e-01
    outer loop
      vertex 1.428497e+02 -5.030955e+00 4.958580e+01
      vertex 1.541638e+02 -3.785866e+01 -5.261458e+00
      vertex 1.393091e+02 -3.598801e+01 4.567589e+01
    endloop
  endfacet
  facet normal -9.771065e-01 1.075889e-01 -1.835414e-01
    outer loop
      vertex 1.330683e+02 -1.448088e+00 9.914629e+01
      vertex 1.393091e+02 -3.598801e+01 4.567589e+01
      vertex 1.300517e+02 -3.371010e+01 9.629420e+01
    endloop
  endfacet
  facet normal -9.699925e-01 1.363605e-01 -2.012965e-01
    outer loop
      vertex 1.330683e+02 -1.448088e+00 9.914629e+01
      vertex 1.428497e+02 -5.030955e+00 4.958580e+01
      vertex 1.393091e+02 -3.598801e+01 4.567589e+01
    endloop
  endfacet
  facet normal -7.117233e-01 -7.019688e-01 -2.626195e-02
    outer loop
      vertex 1.586526e+02 -7.137406e+01 8.988069e+01
      vertex 1.481939e+02 -5.912998e+01 4.604107e+01
      vertex 1.599140e+02 -7.126676e+01 5.282813e+01
    endloop
  endfacet
  facet normal -8.940531e-01 -4.361607e-01 -1.021420e-01
    outer loop
      vertex 1.423939e+02 -5.834494e+01 9.345707e+01
      vertex 1.300517e+02 -3.371010e+01 9.629420e+01
      vertex 1.481939e+02 -5.912998e+01 4.604107e+01
    endloop
  endfacet
  facet normal -6.326528e-01 -7.717356e-01 -6.461080e-02
    outer loop
      vertex 1.586526e+02 -7.137406e+01 8.988069e+01
      vertex 1.423939e+02 -5.834494e+01 9.345707e+01
      vertex 1.481939e+02 -5.912998e+01 4.604107e+01
    endloop
  endfacet
  facet normal -8.545125e-01 2.972714e-01 -4.259555e-01
    outer loop
      vertex 1.655317e+02 -2.475275e+00 -3.372928e+00
      vertex 1.551230e+02 -3.739553e+01 -6.862595e+00
      vertex 1.541638e+02 -3.785866e+01 -5.261458e+00
    endloop
  endfacet
  facet normal -9.559007e-01 1.190853e-01 -2.684633e-01
    outer loop
      vertex 1.521179e+02 -6.922058e+00 1.574619e+01
      vertex 1.541638e+02 -3.785866e+01 -5.261458e+00
      vertex 1.428497e+02 -5.030955e+00 4.958580e+01
    endloop
  endfacet
  facet normal -8.140757e-01 2.884487e-01 -5.040616e-01
    outer loop
      vertex 1.655317e+02 -2.475275e+00 -3.372928e+00
      vertex 1.541638e+02 -3.785866e+01 -5.261458e+00
      vertex 1.521179e+02 -6.922058e+00 1.574619e+01
    endloop
  endfacet
  facet normal 2.277894e-03 -9.007812e-01 -4.342672e-01
    outer loop
      vertex 2.015220e+02 -6.972927e+01 4.985723e+01
      vertex 1.599140e+02 -7.126676e+01 5.282813e+01
      vertex 1.560328e+02 -4.665770e+01 1.762285e+00
    endloop
  endfacet
  facet normal -1.293366e-01 -9.915741e-01 -7.274377e-03
    outer loop
      vertex 1.984482e+02 -7.655268e+01 8.822541e+01
      vertex 1.586526e+02 -7.137406e+01 8.988069e+01
      vertex 1.599140e+02 -7.126676e+01 5.282813e+01
    endloop
  endfacet
  facet normal 2.401740e-02 -9.845978e-01 -1.731770e-01
    outer loop
      vertex 1.984482e+02 -7.655268e+01 8.822541e+01
      vertex 1.599140e+02 -7.126676e+01 5.282813e+01
      vertex 2.015220e+02 -6.972927e+01 4.985723e+01
    endloop
  endfacet
  facet normal 6.400724e-02 -6.767092e-01 -7.334629e-01
    outer loop
      vertex 1.853543e+02 -3.909999e+01 -2.651814e+00
      vertex 1.560328e+02 -4.665770e+01 1.762285e+00
      vertex 1.551230e+02 -3.739553e+01 -6.862595e+00
    endloop
  endfacet
  facet normal -1.515257e-01 -9.394555e-01 -3.073489e-01
    outer loop
      vertex 2.118397e+02 -5.927749e+01 1.282318e+01
      vertex 2.015220e+02 -6.972927e+01 4.985723e+01
      vertex 1.560328e+02 -4.665770e+01 1.762285e+00
    endloop
  endfacet
  facet normal 2.856371e-02 -5.844446e-01 -8.109307e-01
    outer loop
      vertex 1.853543e+02 -3.909999e+01 -2.651814e+00
      vertex 2.118397e+02 -5.927749e+01 1.282318e+01
      vertex 1.560328e+02 -4.665770e+01 1.762285e+00
    endloop
  endfacet
  facet normal 1.135623e-01 6.522230e-02 -9.913877e-01
    outer loop
      vertex 1.971574e+02 4.477156e+00 7.071481e-01
      vertex 1.551230e+02 -3.739553e+01 -6.862595e+00
      vertex 1.655317e+02 -2.475275e+00 -3.372928e+00
    endloop
  endfacet
  facet normal 1.399730e-01 3.835245e-02 -9.894123e-01
    outer loop
      vertex 1.971574e+02 4.477156e+00 7.071481e-01
      vertex 1.853543e+02 -3.909999e+01 -2.651814e+00
      vertex 1.551230e+02 -3.739553e+01 -6.862595e+00
    endloop
  endfacet
  facet normal -8.952272e-01 -4.419345e-01 -5.711510e-02
    outer loop
      vertex 1.256956e+02 -3.116543e+01 1.448834e+02
      vertex 1.300517e+02 -3.371010e+01 9.629420e+01
      vertex 1.423939e+02 -5.834494e+01 9.345707e+01
    endloop
  endfacet
  facet normal -9.954034e-01 3.036190e-02 -9.083087e-02
    outer loop
      vertex 1.263983e+02 1.781037e+00 1.481955e+02
      vertex 1.300517e+02 -3.371010e+01 9.629420e+01
      vertex 1.256956e+02 -3.116543e+01 1.448834e+02
    endloop
  endfacet
  facet normal -9.845132e-01 1.044995e-01 -1.407610e-01
    outer loop
      vertex 1.263983e+02 1.781037e+00 1.481955e+02
      vertex 1.330683e+02 -1.448088e+00 9.914629e+01
      vertex 1.300517e+02 -3.371010e+01 9.629420e+01
    endloop
  endfacet
  facet normal -6.003961e-01 -7.874684e-01 1.393483e-01
    outer loop
      vertex 1.595330e+02 -6.324138e+01 1.396327e+02
      vertex 1.423939e+02 -5.834494e+01 9.345707e+01
      vertex 1.586526e+02 -7.137406e+01 8.988069e+01
    endloop
  endfacet
  facet normal -8.457420e-01 -5.335412e-01 7.368302e-03
    outer loop
      vertex 1.386733e+02 -5.178742e+01 1.412350e+02
      vertex 1.256956e+02 -3.116543e+01 1.448834e+02
      vertex 1.423939e+02 -5.834494e+01 9.345707e+01
    endloop
  endfacet
  facet normal -4.747129e-01 -8.761909e-01 8.329000e-02
    outer loop
      vertex 1.595330e+02 -6.324138e+01 1.396327e+02
      vertex 1.386733e+02 -5.178742e+01 1.412350e+02
      vertex 1.423939e+02 -5.834494e+01 9.345707e+01
    endloop
  endfacet
  facet normal -6.132460e-02 -9.848708e-01 1.620765e-01
    outer loop
      vertex 1.901276e+02 -6.578015e+01 1.357817e+02
      vertex 1.595330e+02 -6.324138e+01 1.396327e+02
      vertex 1.586526e+02 -7.137406e+01 8.988069e+01
    endloop
  endfacet
  facet normal -1.182744e-01 -9.727040e-01 1.996450e-01
    outer loop
      vertex 1.901276e+02 -6.578015e+01 1.357817e+02
      vertex 1.586526e+02 -7.137406e+01 8.988069e+01
      vertex 1.984482e+02 -7.655268e+01 8.822541e+01
    endloop
  endfacet
  facet normal -8.267417e-01 -5.449813e-01 1.396193e-01
    outer loop
      vertex 1.301444e+02 -3.391907e+01 1.604782e+02
      vertex 1.256956e+02 -3.116543e+01 1.448834e+02
      vertex 1.386733e+02 -5.178742e+01 1.412350e+02
    endloop
  endfacet
  facet normal -9.616877e-01 -1.137614e-03 2.741452e-01
    outer loop
      vertex 1.291040e+02 -3.709496e+00 1.569538e+02
      vertex 1.256956e+02 -3.116543e+01 1.448834e+02
      vertex 1.301444e+02 -3.391907e+01 1.604782e+02
    endloop
  endfacet
  facet normal -9.569451e-01 -8.756783e-03 2.901369e-01
    outer loop
      vertex 1.291040e+02 -3.709496e+00 1.569538e+02
      vertex 1.263983e+02 1.781037e+00 1.481955e+02
      vertex 1.256956e+02 -3.116543e+01 1.448834e+02
    endloop
  endfacet
  facet normal -4.548091e-01 -8.604353e-01 2.297821e-01
    outer loop
      vertex 1.599344e+02 -5.549010e+01 1.694524e+02
      vertex 1.386733e+02 -5.178742e+01 1.412350e+02
      vertex 1.595330e+02 -6.324138e+01 1.396327e+02
    endloop
  endfacet
  facet normal -7.936548e-01 -5.792145e-01 1.860715e-01
    outer loop
      vertex 1.416740e+02 -4.848784e+01 1.643050e+02
      vertex 1.301444e+02 -3.391907e+01 1.604782e+02
      vertex 1.386733e+02 -5.178742e+01 1.412350e+02
    endloop
  endfacet
  facet normal -3.960722e-01 -9.003461e-01 1.802881e-01
    outer loop
      vertex 1.599344e+02 -5.549010e+01 1.694524e+02
      vertex 1.416740e+02 -4.848784e+01 1.643050e+02
      vertex 1.386733e+02 -5.178742e+01 1.412350e+02
    endloop
  endfacet
  facet normal 1.406737e-01 -9.586724e-01 2.473019e-01
    outer loop
      vertex 1.829245e+02 -5.104707e+01 1.735984e+02
      vertex 1.599344e+02 -5.549010e+01 1.694524e+02
      vertex 1.595330e+02 -6.324138e+01 1.396327e+02
    endloop
  endfacet
  facet normal -3.245848e-02 -9.333682e-01 3.574496e-01
    outer loop
      vertex 1.829245e+02 -5.104707e+01 1.735984e+02
      vertex 1.595330e+02 -6.324138e+01 1.396327e+02
      vertex 1.901276e+02 -6.578015e+01 1.357817e+02
    endloop
  endfacet
  facet normal -2.836837e-01 2.727831e-02 9.585298e-01
    outer loop
      vertex 1.566422e+02 -4.576946e+01 1.686576e+02
      vertex 1.301444e+02 -3.391907e+01 1.604782e+02
      vertex 1.416740e+02 -4.848784e+01 1.643050e+02
    endloop
  endfacet
  facet normal -2.450655e-01 1.163685e-01 9.624974e-01
    outer loop
      vertex 1.573523e+02 1.122016e+01 1.619482e+02
      vertex 1.301444e+02 -3.391907e+01 1.604782e+02
      vertex 1.566422e+02 -4.576946e+01 1.686576e+02
    endloop
  endfacet
  facet normal -2.267663e-01 1.051510e-01 9.682563e-01
    outer loop
      vertex 1.573523e+02 1.122016e+01 1.619482e+02
      vertex 1.291040e+02 -3.709496e+00 1.569538e+02
      vertex 1.301444e+02 -3.391907e+01 1.604782e+02
    endloop
  endfacet
  facet normal -2.766558e-01 -1.513486e-02 9.608499e-01
    outer loop
      vertex 1.566422e+02 -4.576946e+01 1.686576e+02
      vertex 1.416740e+02 -4.848784e+01 1.643050e+02
      vertex 1.599344e+02 -5.549010e+01 1.694524e+02
    endloop
  endfacet
  facet normal -1.951853e-01 1.407792e-02 9.806653e-01
    outer loop
      vertex 1.966752e+02 -3.683787e+01 1.764973e+02
      vertex 1.566422e+02 -4.576946e+01 1.686576e+02
      vertex 1.599344e+02 -5.549010e+01 1.694524e+02
    endloop
  endfacet
  facet normal -1.706715e-01 -3.572519e-02 9.846801e-01
    outer loop
      vertex 1.966752e+02 -3.683787e+01 1.764973e+02
      vertex 1.599344e+02 -5.549010e+01 1.694524e+02
      vertex 1.829245e+02 -5.104707e+01 1.735984e+02
    endloop
  endfacet
  facet normal -2.376828e-01 1.164925e-01 9.643321e-01
    outer loop
      vertex 2.006188e+02 1.023318e+01 1.727315e+02
      vertex 1.573523e+02 1.122016e+01 1.619482e+02
      vertex 1.566422e+02 -4.576946e+01 1.686576e+02
    endloop
  endfacet
  facet normal -2.117905e-01 9.555661e-02 9.726324e-01
    outer loop
      vertex 2.006188e+02 1.023318e+01 1.727315e+02
      vertex 1.566422e+02 -4.576946e+01 1.686576e+02
      vertex 1.966752e+02 -3.683787e+01 1.764973e+02
    endloop
  endfacet
  facet normal -8.068486e-01 5.348434e-01 -2.508742e-01
    outer loop
      vertex 1.546481e+02 7.524111e+00 3.840676e+01
      vertex 1.521179e+02 -6.922058e+00 1.574619e+01
      vertex 1.428497e+02 -5.030955e+00 4.958580e+01
    endloop
  endfacet
  facet normal -6.924669e-01 7.175378e-01 7.502698e-02
    outer loop
      vertex 1.694302e+02 2.103619e+01 4.561388e+01
      vertex 1.546481e+02 7.524111e+00 3.840676e+01
      vertex 1.428497e+02 -5.030955e+00 4.958580e+01
    endloop
  endfacet
  facet normal -7.983200e-01 5.685248e-01 -1.986574e-01
    outer loop
      vertex 1.461523e+02 1.862879e+01 1.040243e+02
      vertex 1.428497e+02 -5.030955e+00 4.958580e+01
      vertex 1.330683e+02 -1.448088e+00 9.914629e+01
    endloop
  endfacet
  facet normal -8.052190e-01 5.601388e-01 -1.945942e-01
    outer loop
      vertex 1.537842e+02 1.227621e+01 5.415803e+01
      vertex 1.428497e+02 -5.030955e+00 4.958580e+01
      vertex 1.461523e+02 1.862879e+01 1.040243e+02
    endloop
  endfacet
  facet normal -6.157241e-01 5.404847e-01 -5.733760e-01
    outer loop
      vertex 1.694302e+02 2.103619e+01 4.561388e+01
      vertex 1.428497e+02 -5.030955e+00 4.958580e+01
      vertex 1.537842e+02 1.227621e+01 5.415803e+01
    endloop
  endfacet
  facet normal -6.887427e-01 6.437524e-01 -3.334912e-01
    outer loop
      vertex 1.655317e+02 -2.475275e+00 -3.372928e+00
      vertex 1.521179e+02 -6.922058e+00 1.574619e+01
      vertex 1.546481e+02 7.524111e+00 3.840676e+01
    endloop
  endfacet
  facet normal -5.458581e-01 7.714997e-01 -3.268442e-01
    outer loop
      vertex 1.694302e+02 2.103619e+01 4.561388e+01
      vertex 1.655317e+02 -2.475275e+00 -3.372928e+00
      vertex 1.546481e+02 7.524111e+00 3.840676e+01
    endloop
  endfacet
  facet normal -8.973756e-01 4.214213e-01 -1.308475e-01
    outer loop
      vertex 1.713266e+02 1.081126e+01 -3.233148e-01
      vertex 1.655317e+02 -2.475275e+00 -3.372928e+00
      vertex 1.694302e+02 2.103619e+01 4.561388e+01
    endloop
  endfacet
  facet normal 5.679568e-02 3.004016e-01 -9.521203e-01
    outer loop
      vertex 1.996628e+02 1.913486e+01 5.481227e+00
      vertex 1.971574e+02 4.477156e+00 7.071481e-01
      vertex 1.655317e+02 -2.475275e+00 -3.372928e+00
    endloop
  endfacet
  facet normal 1.537669e-01 1.568560e-01 -9.755777e-01
    outer loop
      vertex 1.996628e+02 1.913486e+01 5.481227e+00
      vertex 1.655317e+02 -2.475275e+00 -3.372928e+00
      vertex 1.713266e+02 1.081126e+01 -3.233148e-01
    endloop
  endfacet
  facet normal -7.526602e-01 6.423256e-01 -1.446394e-01
    outer loop
      vertex 1.446858e+02 2.431448e+01 1.531011e+02
      vertex 1.330683e+02 -1.448088e+00 9.914629e+01
      vertex 1.263983e+02 1.781037e+00 1.481955e+02
    endloop
  endfacet
  facet normal -8.243679e-01 5.589518e-01 -8.938985e-02
    outer loop
      vertex 1.446858e+02 2.431448e+01 1.531011e+02
      vertex 1.461523e+02 1.862879e+01 1.040243e+02
      vertex 1.330683e+02 -1.448088e+00 9.914629e+01
    endloop
  endfacet
  facet normal -7.567838e-01 4.225793e-01 4.987033e-01
    outer loop
      vertex 1.446271e+02 2.395702e+01 1.570668e+02
      vertex 1.263983e+02 1.781037e+00 1.481955e+02
      vertex 1.291040e+02 -3.709496e+00 1.569538e+02
    endloop
  endfacet
  facet normal -7.804284e-01 6.236471e-01 4.467378e-02
    outer loop
      vertex 1.446271e+02 2.395702e+01 1.570668e+02
      vertex 1.446858e+02 2.431448e+01 1.531011e+02
      vertex 1.263983e+02 1.781037e+00 1.481955e+02
    endloop
  endfacet
  facet normal -1.702080e-01 -7.590783e-03 9.853789e-01
    outer loop
      vertex 1.624542e+02 2.934868e+01 1.629692e+02
      vertex 1.291040e+02 -3.709496e+00 1.569538e+02
      vertex 1.573523e+02 1.122016e+01 1.619482e+02
    endloop
  endfacet
  facet normal -3.617947e-01 1.992751e-01 9.107107e-01
    outer loop
      vertex 1.624542e+02 2.934868e+01 1.629692e+02
      vertex 1.446271e+02 2.395702e+01 1.570668e+02
      vertex 1.291040e+02 -3.709496e+00 1.569538e+02
    endloop
  endfacet
  facet normal -2.289883e-01 9.627126e-03 9.733816e-01
    outer loop
      vertex 1.882451e+02 2.356159e+01 1.690937e+02
      vertex 1.624542e+02 2.934868e+01 1.629692e+02
      vertex 1.573523e+02 1.122016e+01 1.619482e+02
    endloop
  endfacet
  facet normal -2.407426e-01 4.117295e-02 9.697153e-01
    outer loop
      vertex 1.882451e+02 2.356159e+01 1.690937e+02
      vertex 1.573523e+02 1.122016e+01 1.619482e+02
      vertex 2.006188e+02 1.023318e+01 1.727315e+02
    endloop
  endfacet
  facet normal -5.064897e-01 8.422080e-01 -1.848079e-01
    outer loop
      vertex 1.645736e+02 2.811609e+01 9.677394e+01
      vertex 1.537842e+02 1.227621e+01 5.415803e+01
      vertex 1.461523e+02 1.862879e+01 1.040243e+02
    endloop
  endfacet
  facet normal -4.825129e-01 8.717294e-01 -8.525898e-02
    outer loop
      vertex 1.574497e+02 2.924430e+01 1.486259e+02
      vertex 1.645736e+02 2.811609e+01 9.677394e+01
      vertex 1.461523e+02 1.862879e+01 1.040243e+02
    endloop
  endfacet
  facet normal -3.933494e-01 9.118632e-01 -1.173960e-01
    outer loop
      vertex 1.574497e+02 2.924430e+01 1.486259e+02
      vertex 1.461523e+02 1.862879e+01 1.040243e+02
      vertex 1.446858e+02 2.431448e+01 1.531011e+02
    endloop
  endfacet
  facet normal -5.490537e-01 8.192385e-01 -1.654941e-01
    outer loop
      vertex 1.694302e+02 2.103619e+01 4.561388e+01
      vertex 1.537842e+02 1.227621e+01 5.415803e+01
      vertex 1.645736e+02 2.811609e+01 9.677394e+01
    endloop
  endfacet
  facet normal -1.579560e-01 9.759778e-01 -1.500578e-01
    outer loop
      vertex 1.869781e+02 3.074119e+01 9.026378e+01
      vertex 1.694302e+02 2.103619e+01 4.561388e+01
      vertex 1.645736e+02 2.811609e+01 9.677394e+01
    endloop
  endfacet
  facet normal 8.026975e-02 9.967162e-01 -1.065870e-02
    outer loop
      vertex 1.929045e+02 2.633480e+01 1.435600e+02
      vertex 1.645736e+02 2.811609e+01 9.677394e+01
      vertex 1.574497e+02 2.924430e+01 1.486259e+02
    endloop
  endfacet
  facet normal -8.948298e-02 9.917354e-01 9.194419e-02
    outer loop
      vertex 1.929045e+02 2.633480e+01 1.435600e+02
      vertex 1.869781e+02 3.074119e+01 9.026378e+01
      vertex 1.645736e+02 2.811609e+01 9.677394e+01
    endloop
  endfacet
  facet normal -1.948795e-01 9.556604e-01 -2.207607e-01
    outer loop
      vertex 1.974016e+02 2.581268e+01 4.159893e+01
      vertex 1.713266e+02 1.081126e+01 -3.233148e-01
      vertex 1.694302e+02 2.103619e+01 4.561388e+01
    endloop
  endfacet
  facet normal -1.859714e-01 9.727662e-01 -1.383494e-01
    outer loop
      vertex 1.869781e+02 3.074119e+01 9.026378e+01
      vertex 1.974016e+02 2.581268e+01 4.159893e+01
      vertex 1.694302e+02 2.103619e+01 4.561388e+01
    endloop
  endfacet
  facet normal -3.254534e-01 9.395169e-01 1.067147e-01
    outer loop
      vertex 1.624542e+02 2.934868e+01 1.629692e+02
      vertex 1.574497e+02 2.924430e+01 1.486259e+02
      vertex 1.446858e+02 2.431448e+01 1.531011e+02
    endloop
  endfacet
  facet normal -3.129259e-01 9.463451e-01 8.067438e-02
    outer loop
      vertex 1.624542e+02 2.934868e+01 1.629692e+02
      vertex 1.446858e+02 2.431448e+01 1.531011e+02
      vertex 1.446271e+02 2.395702e+01 1.570668e+02
    endloop
  endfacet
  facet normal 2.383961e-01 9.669688e-01 -9.021442e-02
    outer loop
      vertex 1.882451e+02 2.356159e+01 1.690937e+02
      vertex 1.574497e+02 2.924430e+01 1.486259e+02
      vertex 1.624542e+02 2.934868e+01 1.629692e+02
    endloop
  endfacet
  facet normal 9.890847e-02 9.871805e-01 1.252665e-01
    outer loop
      vertex 1.882451e+02 2.356159e+01 1.690937e+02
      vertex 1.929045e+02 2.633480e+01 1.435600e+02
      vertex 1.574497e+02 2.924430e+01 1.486259e+02
    endloop
  endfacet
  facet normal -1.369925e-01 -9.427013e-01 -3.042159e-01
    outer loop
      vertex 2.345929e+02 -6.761873e+01 2.842484e+01
      vertex 2.015220e+02 -6.972927e+01 4.985723e+01
      vertex 2.118397e+02 -5.927749e+01 1.282318e+01
    endloop
  endfacet
  facet normal 3.989833e-01 -9.077714e-01 -1.294738e-01
    outer loop
      vertex 2.245196e+02 -6.396566e+01 8.031608e+01
      vertex 1.984482e+02 -7.655268e+01 8.822541e+01
      vertex 2.015220e+02 -6.972927e+01 4.985723e+01
    endloop
  endfacet
  facet normal 1.236777e-01 -9.879024e-01 9.355544e-02
    outer loop
      vertex 2.245196e+02 -6.396566e+01 8.031608e+01
      vertex 2.015220e+02 -6.972927e+01 4.985723e+01
      vertex 2.345929e+02 -6.761873e+01 2.842484e+01
    endloop
  endfacet
  facet normal 2.573424e-01 -3.523088e-01 -8.998074e-01
    outer loop
      vertex 2.456391e+02 -4.291390e+01 1.608274e+01
      vertex 2.118397e+02 -5.927749e+01 1.282318e+01
      vertex 1.853543e+02 -3.909999e+01 -2.651814e+00
    endloop
  endfacet
  facet normal 1.418094e-01 -9.667054e-02 -9.851624e-01
    outer loop
      vertex 2.456391e+02 -4.291390e+01 1.608274e+01
      vertex 2.401960e+02 -6.349020e+01 1.731832e+01
      vertex 2.118397e+02 -5.927749e+01 1.282318e+01
    endloop
  endfacet
  facet normal -7.647310e-02 -9.213759e-01 -3.810752e-01
    outer loop
      vertex 2.345929e+02 -6.761873e+01 2.842484e+01
      vertex 2.118397e+02 -5.927749e+01 1.282318e+01
      vertex 2.401960e+02 -6.349020e+01 1.731832e+01
    endloop
  endfacet
  facet normal 3.507511e-01 -2.284003e-02 -9.361902e-01
    outer loop
      vertex 2.320865e+02 8.257120e+00 1.370140e+01
      vertex 1.853543e+02 -3.909999e+01 -2.651814e+00
      vertex 1.971574e+02 4.477156e+00 7.071481e-01
    endloop
  endfacet
  facet normal 2.985901e-01 3.469652e-02 -9.537506e-01
    outer loop
      vertex 2.320865e+02 8.257120e+00 1.370140e+01
      vertex 2.456391e+02 -4.291390e+01 1.608274e+01
      vertex 1.853543e+02 -3.909999e+01 -2.651814e+00
    endloop
  endfacet
  facet normal 4.905513e-01 -8.274571e-01 2.732656e-01
    outer loop
      vertex 2.128143e+02 -5.505993e+01 1.275169e+02
      vertex 1.901276e+02 -6.578015e+01 1.357817e+02
      vertex 1.984482e+02 -7.655268e+01 8.822541e+01
    endloop
  endfacet
  facet normal 4.845812e-01 -8.298171e-01 2.767394e-01
    outer loop
      vertex 2.128143e+02 -5.505993e+01 1.275169e+02
      vertex 1.984482e+02 -7.655268e+01 8.822541e+01
      vertex 2.245196e+02 -6.396566e+01 8.031608e+01
    endloop
  endfacet
  facet normal 4.262050e-01 -8.125048e-01 3.977252e-01
    outer loop
      vertex 2.012756e+02 -4.528449e+01 1.657056e+02
      vertex 1.829245e+02 -5.104707e+01 1.735984e+02
      vertex 1.901276e+02 -6.578015e+01 1.357817e+02
    endloop
  endfacet
  facet normal 5.018388e-01 -7.893444e-01 3.536851e-01
    outer loop
      vertex 2.012756e+02 -4.528449e+01 1.657056e+02
      vertex 1.901276e+02 -6.578015e+01 1.357817e+02
      vertex 2.128143e+02 -5.505993e+01 1.275169e+02
    endloop
  endfacet
  facet normal 6.660730e-01 -6.981473e-01 2.625589e-01
    outer loop
      vertex 2.089826e+02 -2.749650e+01 1.701142e+02
      vertex 1.966752e+02 -3.683787e+01 1.764973e+02
      vertex 1.829245e+02 -5.104707e+01 1.735984e+02
    endloop
  endfacet
  facet normal 4.650496e-01 -3.975367e-01 7.910079e-01
    outer loop
      vertex 2.012756e+02 -4.528449e+01 1.657056e+02
      vertex 2.089826e+02 -2.749650e+01 1.701142e+02
      vertex 1.829245e+02 -5.104707e+01 1.735984e+02
    endloop
  endfacet
  facet normal 1.912091e-01 6.234856e-02 9.795671e-01
    outer loop
      vertex 2.083808e+02 -1.384060e+00 1.719558e+02
      vertex 2.006188e+02 1.023318e+01 1.727315e+02
      vertex 1.966752e+02 -3.683787e+01 1.764973e+02
    endloop
  endfacet
  facet normal 4.895401e-01 -5.011598e-02 8.705394e-01
    outer loop
      vertex 2.083808e+02 -1.384060e+00 1.719558e+02
      vertex 1.966752e+02 -3.683787e+01 1.764973e+02
      vertex 2.089826e+02 -2.749650e+01 1.701142e+02
    endloop
  endfacet
  facet normal 2.958259e-01 2.497398e-01 -9.220179e-01
    outer loop
      vertex 2.262117e+02 1.320949e+01 1.239438e+01
      vertex 1.971574e+02 4.477156e+00 7.071481e-01
      vertex 1.996628e+02 1.913486e+01 5.481227e+00
    endloop
  endfacet
  facet normal 3.309369e-01 1.465507e-01 -9.322037e-01
    outer loop
      vertex 2.262117e+02 1.320949e+01 1.239438e+01
      vertex 2.320865e+02 8.257120e+00 1.370140e+01
      vertex 1.971574e+02 4.477156e+00 7.071481e-01
    endloop
  endfacet
  facet normal 2.087997e-01 4.331539e-01 8.768012e-01
    outer loop
      vertex 1.993358e+02 1.463316e+01 1.708634e+02
      vertex 1.882451e+02 2.356159e+01 1.690937e+02
      vertex 2.006188e+02 1.023318e+01 1.727315e+02
    endloop
  endfacet
  facet normal 7.128327e-01 4.398014e-01 5.463005e-01
    outer loop
      vertex 1.993358e+02 1.463316e+01 1.708634e+02
      vertex 2.006188e+02 1.023318e+01 1.727315e+02
      vertex 2.083808e+02 -1.384060e+00 1.719558e+02
    endloop
  endfacet
  facet normal -2.404254e-01 9.516883e-01 -1.910104e-01
    outer loop
      vertex 1.996628e+02 1.913486e+01 5.481227e+00
      vertex 1.713266e+02 1.081126e+01 -3.233148e-01
      vertex 1.974016e+02 2.581268e+01 4.159893e+01
    endloop
  endfacet
  facet normal 2.672452e-01 9.504217e-01 -1.589922e-01
    outer loop
      vertex 2.206309e+02 1.852936e+01 3.710630e+01
      vertex 1.996628e+02 1.913486e+01 5.481227e+00
      vertex 1.974016e+02 2.581268e+01 4.159893e+01
    endloop
  endfacet
  facet normal 3.559338e-01 9.343303e-01 -1.838673e-02
    outer loop
      vertex 2.173445e+02 1.912182e+01 8.765788e+01
      vertex 1.974016e+02 2.581268e+01 4.159893e+01
      vertex 1.869781e+02 3.074119e+01 9.026378e+01
    endloop
  endfacet
  facet normal 3.006413e-01 9.537006e-01 8.368075e-03
    outer loop
      vertex 2.173445e+02 1.912182e+01 8.765788e+01
      vertex 2.206309e+02 1.852936e+01 3.710630e+01
      vertex 1.974016e+02 2.581268e+01 4.159893e+01
    endloop
  endfacet
  facet normal 2.521719e-01 9.561598e-01 -1.488885e-01
    outer loop
      vertex 2.262117e+02 1.320949e+01 1.239438e+01
      vertex 1.996628e+02 1.913486e+01 5.481227e+00
      vertex 2.206309e+02 1.852936e+01 3.710630e+01
    endloop
  endfacet
  facet normal 4.905147e-01 8.712574e-01 1.748900e-02
    outer loop
      vertex 2.091606e+02 1.740490e+01 1.324911e+02
      vertex 1.869781e+02 3.074119e+01 9.026378e+01
      vertex 1.929045e+02 2.633480e+01 1.435600e+02
    endloop
  endfacet
  facet normal 3.631210e-01 9.261693e-01 1.017527e-01
    outer loop
      vertex 2.091606e+02 1.740490e+01 1.324911e+02
      vertex 2.173445e+02 1.912182e+01 8.765788e+01
      vertex 1.869781e+02 3.074119e+01 9.026378e+01
    endloop
  endfacet
  facet normal 5.963292e-01 7.790856e-01 1.934351e-01
    outer loop
      vertex 1.993358e+02 1.463316e+01 1.708634e+02
      vertex 1.929045e+02 2.633480e+01 1.435600e+02
      vertex 1.882451e+02 2.356159e+01 1.690937e+02
    endloop
  endfacet
  facet normal 5.745239e-01 7.925677e-01 2.043495e-01
    outer loop
      vertex 1.993358e+02 1.463316e+01 1.708634e+02
      vertex 2.091606e+02 1.740490e+01 1.324911e+02
      vertex 1.929045e+02 2.633480e+01 1.435600e+02
    endloop
  endfacet
  facet normal 9.658527e-01 -2.573148e-01 -3.029292e-02
    outer loop
      vertex 2.456391e+02 -4.291390e+01 1.608274e+01
      vertex 2.469397e+02 -4.013752e+01 3.396826e+01
      vertex 2.401960e+02 -6.349020e+01 1.731832e+01
    endloop
  endfacet
  facet normal 8.570748e-01 -4.393435e-01 2.690725e-01
    outer loop
      vertex 2.345929e+02 -6.761873e+01 2.842484e+01
      vertex 2.401960e+02 -6.349020e+01 1.731832e+01
      vertex 2.469397e+02 -4.013752e+01 3.396826e+01
    endloop
  endfacet
  facet normal 9.826746e-01 1.585007e-01 -9.606362e-02
    outer loop
      vertex 2.403929e+02 7.221303e-01 3.441504e+01
      vertex 2.469397e+02 -4.013752e+01 3.396826e+01
      vertex 2.456391e+02 -4.291390e+01 1.608274e+01
    endloop
  endfacet
  facet normal 8.838537e-01 -4.328616e-01 1.772947e-01
    outer loop
      vertex 2.367657e+02 -3.935097e+01 8.660814e+01
      vertex 2.345929e+02 -6.761873e+01 2.842484e+01
      vertex 2.469397e+02 -4.013752e+01 3.396826e+01
    endloop
  endfacet
  facet normal 9.748692e-01 1.216991e-01 1.865994e-01
    outer loop
      vertex 2.315461e+02 2.222469e+00 8.676369e+01
      vertex 2.367657e+02 -3.935097e+01 8.660814e+01
      vertex 2.469397e+02 -4.013752e+01 3.396826e+01
    endloop
  endfacet
  facet normal 9.749044e-01 1.544522e-01 1.603305e-01
    outer loop
      vertex 2.315461e+02 2.222469e+00 8.676369e+01
      vertex 2.469397e+02 -4.013752e+01 3.396826e+01
      vertex 2.403929e+02 7.221303e-01 3.441504e+01
    endloop
  endfacet
  facet normal 9.289734e-01 2.326392e-01 -2.879017e-01
    outer loop
      vertex 2.320865e+02 8.257120e+00 1.370140e+01
      vertex 2.403929e+02 7.221303e-01 3.441504e+01
      vertex 2.456391e+02 -4.291390e+01 1.608274e+01
    endloop
  endfacet
  facet normal 8.559599e-01 -4.769053e-01 1.997345e-01
    outer loop
      vertex 2.245196e+02 -6.396566e+01 8.031608e+01
      vertex 2.345929e+02 -6.761873e+01 2.842484e+01
      vertex 2.367657e+02 -3.935097e+01 8.660814e+01
    endloop
  endfacet
  facet normal 8.159338e-01 -4.859861e-01 3.131606e-01
    outer loop
      vertex 2.222425e+02 -3.263835e+01 1.348652e+02
      vertex 2.245196e+02 -6.396566e+01 8.031608e+01
      vertex 2.367657e+02 -3.935097e+01 8.660814e+01
    endloop
  endfacet
  facet normal 9.583299e-01 3.895536e-02 2.829954e-01
    outer loop
      vertex 2.206821e+02 -1.265597e+00 1.358309e+02
      vertex 2.222425e+02 -3.263835e+01 1.348652e+02
      vertex 2.367657e+02 -3.935097e+01 8.660814e+01
    endloop
  endfacet
  facet normal 9.673812e-01 1.206237e-01 2.227633e-01
    outer loop
      vertex 2.206821e+02 -1.265597e+00 1.358309e+02
      vertex 2.367657e+02 -3.935097e+01 8.660814e+01
      vertex 2.315461e+02 2.222469e+00 8.676369e+01
    endloop
  endfacet
  facet normal 8.428119e-01 -4.507734e-01 2.940601e-01
    outer loop
      vertex 2.128143e+02 -5.505993e+01 1.275169e+02
      vertex 2.245196e+02 -6.396566e+01 8.031608e+01
      vertex 2.222425e+02 -3.263835e+01 1.348652e+02
    endloop
  endfacet
  facet normal 8.065396e-01 -4.606032e-01 3.705922e-01
    outer loop
      vertex 2.089826e+02 -2.749650e+01 1.701142e+02
      vertex 2.128143e+02 -5.505993e+01 1.275169e+02
      vertex 2.222425e+02 -3.263835e+01 1.348652e+02
    endloop
  endfacet
  facet normal 9.358023e-01 -3.296301e-03 3.525098e-01
    outer loop
      vertex 2.083808e+02 -1.384060e+00 1.719558e+02
      vertex 2.089826e+02 -2.749650e+01 1.701142e+02
      vertex 2.222425e+02 -3.263835e+01 1.348652e+02
    endloop
  endfacet
  facet normal 9.459330e-01 3.713100e-02 3.222299e-01
    outer loop
      vertex 2.083808e+02 -1.384060e+00 1.719558e+02
      vertex 2.222425e+02 -3.263835e+01 1.348652e+02
      vertex 2.206821e+02 -1.265597e+00 1.358309e+02
    endloop
  endfacet
  facet normal 8.195325e-01 -4.446612e-01 3.614455e-01
    outer loop
      vertex 2.012756e+02 -4.528449e+01 1.657056e+02
      vertex 2.128143e+02 -5.505993e+01 1.275169e+02
      vertex 2.089826e+02 -2.749650e+01 1.701142e+02
    endloop
  endfacet
  facet normal 6.695376e-01 7.427762e-01 1.707192e-03
    outer loop
      vertex 2.206309e+02 1.852936e+01 3.710630e+01
      vertex 2.403929e+02 7.221303e-01 3.441504e+01
      vertex 2.320865e+02 8.257120e+00 1.370140e+01
    endloop
  endfacet
  facet normal 7.637313e-01 6.359469e-01 1.108427e-01
    outer loop
      vertex 2.173445e+02 1.912182e+01 8.765788e+01
      vertex 2.315461e+02 2.222469e+00 8.676369e+01
      vertex 2.403929e+02 7.221303e-01 3.441504e+01
    endloop
  endfacet
  facet normal 6.716260e-01 7.400636e-01 3.499032e-02
    outer loop
      vertex 2.173445e+02 1.912182e+01 8.765788e+01
      vertex 2.403929e+02 7.221303e-01 3.441504e+01
      vertex 2.206309e+02 1.852936e+01 3.710630e+01
    endloop
  endfacet
  facet normal 6.467748e-01 7.624668e-01 -1.807620e-02
    outer loop
      vertex 2.262117e+02 1.320949e+01 1.239438e+01
      vertex 2.206309e+02 1.852936e+01 3.710630e+01
      vertex 2.320865e+02 8.257120e+00 1.370140e+01
    endloop
  endfacet
  facet normal 8.125420e-01 5.404713e-01 2.183261e-01
    outer loop
      vertex 2.091606e+02 1.740490e+01 1.324911e+02
      vertex 2.206821e+02 -1.265597e+00 1.358309e+02
      vertex 2.315461e+02 2.222469e+00 8.676369e+01
    endloop
  endfacet
  facet normal 7.595833e-01 6.297134e-01 1.627704e-01
    outer loop
      vertex 2.091606e+02 1.740490e+01 1.324911e+02
      vertex 2.315461e+02 2.222469e+00 8.676369e+01
      vertex 2.173445e+02 1.912182e+01 8.765788e+01
    endloop
  endfacet
  facet normal 8.267318e-01 4.861708e-01 2.831122e-01
    outer loop
      vertex 1.993358e+02 1.463316e+01 1.708634e+02
      vertex 2.083808e+02 -1.384060e+00 1.719558e+02
      vertex 2.206821e+02 -1.265597e+00 1.358309e+02
    endloop
  endfacet
  facet normal 8.048406e-01 5.405104e-01 2.451124e-01
    outer loop
      vertex 1.993358e+02 1.463316e+01 1.708634e+02
      vertex 2.206821e+02 -1.265597e+00 1.358309e+02
      vertex 2.091606e+02 1.740490e+01 1.324911e+02
    endloop
  endfacet
endsolid SIM_ECUB_L_UPPERARM
