####
#
# OBJ File Generated by Meshlab
#
####
# Object sim_ecub_1-1_l_hand_index_3.obj
#
# Vertices: 30
# Faces: 56
#
####
mtllib ./sim_ecub_1-1_l_hand_index_3.obj.mtl

vn -0.0562163765975691 -0.9947513884923936 0.0854949945593032
v 0.0534827299416065 -3.6704363822937012 -23.4545574188232422
vn 0.3438919066584787 -0.9385189280402341 0.0303410323655271
v 6.1239995956420898 -6.0833868980407715 -37.8832893371582031
vn 0.4688808692390595 -0.8808798631182556 0.0648181858307313
v 5.8902320861816406 -2.9757161140441895 -23.7038326263427734
vn 0.9914309789165249 0.0687921363339071 -0.1110506912325994
v 9.6437206268310547 0.9826260805130005 -36.6717987060546875
vn -0.4041057600575675 -0.9022897804937441 -0.1502387656526994
v -5.7347230911254883 -5.9405250549316406 -39.8244171142578125
vn 0.3563173522703962 -0.4986913806987055 -0.7901549539728477
v 4.3435535430908203 -3.8849220275878906 -42.8627662658691406
vn 0.9873327779250761 -0.1582555632262196 0.0113649611835766
v 8.0941867828369141 0.0468754842877388 -15.7846536636352539
vn 0.9167169157349561 0.3983314358929029 0.0310187618206740
v 7.2077031135559082 9.4244213104248047 -4.9751520156860352
vn 0.9768311603284999 0.1592623923338871 0.1429558484265811
v 8.5015802383422852 3.7305510044097900 -2.7362604141235352
vn 0.8670952047637809 -0.4572986614816011 0.1975445268358329
v 8.2095451354980469 -1.6125210523605347 0.4750576019287109
vn 0.1012685802630128 -0.9907924261349508 0.0898612428421279
v 2.5862019062042236 -2.5255079269409180 5.4905700683593750
vn 0.7001393984300371 0.5342173137707940 0.4737263813991605
v 3.4648079872131348 8.6696500778198242 6.2419915199279785
vn 0.4522514791434765 -0.0220158663324288 0.8916186972255405
v 3.7611794471740723 0.7764669060707092 11.1415948867797852
vn -0.8004919333268254 -0.5971531452452975 0.0511936109522448
v -7.7339477539062500 -1.4537955522537231 -22.7152614593505859
vn -0.3934518982029923 -0.9189458040939934 0.0270963639351481
v -6.5171008110046387 -2.8799214363098145 -3.2252914905548096
vn -0.4900473481274371 -0.5517675116192237 0.6748379136613446
v -2.3875739574432373 -1.7882807254791260 8.3815469741821289
vn -0.5475296419343286 0.5734287571598262 0.6094183716178918
v -3.4417941570281982 8.8293666839599609 7.0279245376586914
vn -0.9971975480780223 -0.0013965628684086 0.0748003991923521
v -8.5670614242553711 4.1040482521057129 -3.9276921749114990
vn -0.9086383972889031 -0.1132975708200464 0.4019202948577370
v -8.4643049240112305 -0.8206596970558167 1.6183645725250244
vn 0.3897106801406949 0.4357005316473441 -0.8113511154281472
v 3.4432988166809082 5.5874800682067871 -45.8786697387695312
vn -0.5027013819914731 0.0378190352467295 -0.8636324687717973
v -3.8427612781524658 1.9235098361968994 -45.6780624389648438
vn 0.7017558589607890 0.6891045562134526 -0.1807584715029033
v 4.8348889350891113 11.2740383148193359 -37.0158653259277344
vn 0.1080596993646822 0.9932759384745001 -0.0415452936060807
v 3.3553957939147949 13.3198862075805664 -21.9868068695068359
vn 0.2106504380340662 0.9602394537372150 0.1832118567192394
v 3.5181710720062256 13.0395755767822266 -4.5508189201354980
vn -0.9700872959063171 -0.0088894430642159 -0.2425935203651933
v -9.1040058135986328 1.1511435508728027 -37.5168418884277344
vn -0.9698418232098047 0.2424116721859551 -0.0253657079753544
v -8.8667688369750977 4.5171594619750977 -30.9600677490234375
vn -0.9059085751109093 0.4156555774416238 0.0809944101910271
v -7.2889404296875000 9.1606369018554688 -4.2690811157226562
vn -0.2751317836867432 0.9566016999189784 0.0959983818481961
v -4.3659586906433105 12.4048557281494141 -4.7819609642028809
vn -0.6079269556033896 0.7930732891905555 -0.0382043796346392
v -5.8287529945373535 11.5431518554687500 -16.2254047393798828
vn -0.4806710829561291 0.8265494297067016 -0.2928674619368088
v -4.5276803970336914 11.1269302368164062 -36.9200363159179688
# 30 vertices, 0 vertices normals


usemtl material_0
f 1//1 2//2 3//3
f 4//4 3//3 2//2
f 5//5 6//6 2//2
f 5//5 2//2 1//1
f 7//7 3//3 4//4
f 8//8 9//9 7//7
f 10//10 3//3 7//7
f 11//11 3//3 10//10
f 11//11 1//1 3//3
f 9//9 10//10 7//7
f 12//12 10//10 9//9
f 13//13 11//11 10//10
f 12//12 13//13 10//10
f 12//12 9//9 8//8
f 14//14 5//5 1//1
f 14//14 1//1 15//15
f 15//15 1//1 11//11
f 16//16 15//15 11//11
f 16//16 11//11 13//13
f 17//17 13//13 12//12
f 17//17 16//16 13//13
f 18//18 14//14 15//15
f 18//18 15//15 19//19
f 16//16 19//19 15//15
f 17//17 19//19 16//16
f 4//4 2//2 6//6
f 20//20 4//4 6//6
f 21//21 20//20 6//6
f 21//21 6//6 5//5
f 22//22 4//4 20//20
f 8//8 7//7 4//4
f 22//22 8//8 4//4
f 22//22 23//23 8//8
f 24//24 8//8 23//23
f 24//24 12//12 8//8
f 21//21 5//5 25//25
f 25//25 5//5 14//14
f 26//26 25//25 14//14
f 26//26 14//14 18//18
f 27//27 26//26 18//18
f 19//19 17//17 18//18
f 17//17 27//27 18//18
f 28//28 24//24 23//23
f 17//17 24//24 28//28
f 29//29 28//28 23//23
f 12//12 24//24 17//17
f 30//30 21//21 25//25
f 30//30 25//25 26//26
f 27//27 28//28 29//29
f 17//17 28//28 27//27
f 30//30 26//26 29//29
f 27//27 29//29 26//26
f 21//21 30//30 20//20
f 22//22 20//20 30//30
f 23//23 22//22 30//30
f 29//29 23//23 30//30
# 56 faces, 0 coords texture

# End of File
