####
#
# OBJ File Generated by Meshlab
#
####
# Object sim_ecub_1-1_r_foot_rear.obj
#
# Vertices: 11
# Faces: 18
#
####
mtllib ./sim_ecub_1-1_r_foot_rear.obj.mtl

vn 0.0424425873300149 0.0499011992812673 0.9978519414677837
v 29.6275138854980469 22.0723648071289062 -16.1865463256835938
vn 0.1519864881200598 -0.1037653478794554 0.9829205766532647
v 58.4702339172363281 -49.9042663574218750 -16.2999992370605469
vn 0.1261379828634904 0.2854258352813540 0.9500638409249513
v 58.4472122192382812 49.9483413696289062 -16.3000011444091797
vn -0.0007312898411514 -0.0007216166251039 0.9999994722421680
v 2.0687634944915771 -0.8574810624122620 -11.3612737655639648
vn 0.0700631423755242 0.0388431032577044 -0.9967860198707537
v 58.3688087463378906 49.7444343566894531 -24.2986278533935547
vn 0.0672874946999445 -0.1578794797337556 -0.9851631656411052
v 58.2581672668457031 -49.8569374084472656 -24.2977046966552734
vn -0.0417670185461789 -0.0488379399144807 0.9979330497516719
v -28.2814464569091797 -18.3370914459228516 -16.2580547332763672
vn -0.1151845973969625 -0.2684874935620308 0.9563717762059263
v -58.4983291625976562 -49.9750518798828125 -16.2999897003173828
vn -0.1602286577682546 0.1134320092040657 0.9805406450105535
v -58.5950775146484375 49.9347915649414062 -16.3135623931884766
vn -0.0682371518467540 -0.0379035657928254 -0.9969488506478313
v -58.2378768920898438 -49.7850036621093750 -24.2903766632080078
vn -0.0670077870573157 0.1573343634621128 -0.9852694324638582
v -52.4450759887695312 49.9109497070312500 -24.2979660034179688
# 11 vertices, 0 vertices normals


usemtl material_0
f 1//1 2//2 3//3
f 1//1 4//4 2//2
f 5//5 2//2 6//6
f 5//5 3//3 2//2
f 7//7 8//8 2//2
f 6//6 2//2 8//8
f 4//4 7//7 2//2
f 7//7 9//9 8//8
f 10//10 6//6 8//8
f 10//10 8//8 9//9
f 1//1 3//3 9//9
f 11//11 9//9 3//3
f 4//4 1//1 9//9
f 7//7 4//4 9//9
f 11//11 3//3 5//5
f 10//10 5//5 6//6
f 10//10 11//11 5//5
f 9//9 11//11 10//10
# 18 faces, 0 coords texture

# End of File
