####
#
# OBJ File Generated by Meshlab
#
####
# Object sim_ecub_1-1_r_hand_index_1.obj
#
# Vertices: 46
# Faces: 88
#
####
mtllib ./sim_ecub_1-1_r_hand_index_1.obj.mtl

vn -0.2415490645148168 0.5795052005232405 -0.7783493894123227
v -10.3971376419067383 9.0037908554077148 -32.6023292541503906
vn -0.3759123267483132 0.8717947523418795 -0.3141079947849632
v -11.3296623229980469 14.0826683044433594 -25.4770603179931641
vn 0.5286892018031900 0.7445836239611335 -0.4075327653399307
v -6.0339636802673340 12.5704393386840820 -27.7704887390136719
vn 0.2894299998959535 0.9530073856260119 0.0894829486690176
v -6.9671602249145508 14.5730819702148438 -17.3695678710937500
vn -0.4670386281870973 0.8805590038186974 0.0805652566242890
v -11.5590772628784180 14.5228462219238281 -17.3074855804443359
vn -0.6919764902545249 0.6985785117262922 -0.1820895381105353
v -19.2494297027587891 8.6244077682495117 -20.0090179443359375
vn 0.7967162473576963 0.6026236799218104 0.0456937806902143
v -1.4260843992233276 11.1046915054321289 -18.6812553405761719
vn -0.2176937703992348 0.9429001680305186 0.2520886658645826
v -11.5492677688598633 12.8582315444946289 -12.7855358123779297
vn 0.4194083900127955 0.9048952885188960 0.0725335729381846
v -4.7160792350769043 10.4032363891601562 -7.0197429656982422
vn -0.8393231589195845 0.4949218486664612 0.2249199826912283
v -16.5173091888427734 9.6323823928833008 -12.8709936141967773
vn -0.8061494557891568 0.3837251624580090 0.4504198648232792
v -15.8072948455810547 8.4773740768432617 -4.8509516716003418
vn -0.5325857964870704 0.8438947792936125 0.0647608744630432
v -11.8683528900146484 11.7096338272094727 -5.4946961402893066
vn 0.9141598287918200 0.3710055107004000 -0.1632994747488360
v 1.0625467300415039 5.6340708732604980 -23.4698257446289062
vn 0.6772130778208274 0.3290027550860297 -0.6581334472386615
v -0.5424543619155884 1.4272773265838623 -34.4753990173339844
vn -0.4094039452525626 0.4722451610634038 -0.7806234159079758
v -20.0366764068603516 1.6135836839675903 -34.1990356445312500
vn -0.9941415981947155 -0.0800137634027006 0.0726655379460816
v -21.7166805267333984 4.5227608680725098 -26.0094070434570312
vn -0.9808368984121159 -0.0680481080701805 0.1825607671471882
v -19.4743518829345703 3.6558642387390137 -15.1815700531005859
vn -0.0115961276434066 -0.3713944286864677 -0.9284027725962101
v -5.8741030693054199 -2.9144661426544189 -34.9025077819824219
vn 0.2233559228076968 0.9347238272423405 0.2764118277718114
v -8.6928644180297852 18.2912521362304688 8.2261800765991211
vn -0.6740004473335574 -0.1024906564239925 0.7315866745232200
v -12.2713232040405273 8.2576169967651367 -0.9399522542953491
vn -0.1134184552726741 0.0640817151954136 0.9914785866478278
v -8.7935781478881836 8.5120077133178711 2.6705443859100342
vn 0.7317638680926686 -0.5698322878507949 -0.3739155052639361
v -0.7854872941970825 -4.2485079765319824 -31.9521427154541016
vn 0.9878227622783727 -0.1441940926280467 -0.0584316179469611
v 0.2080132365226746 2.3833775520324707 -23.4372329711914062
vn 0.8769899151046826 0.0955966239350837 0.4709033598275719
v -6.0490531921386719 9.4489164352416992 -2.5520892143249512
vn 0.7323320582227741 0.6298549538057707 0.2587904435359344
v -2.0874342918395996 7.9507241249084473 -5.3367362022399902
vn 0.4246620656663179 0.7882407721014265 0.4453522372021533
v -4.1129746437072754 2.5651874542236328 -1.4341236352920532
vn 0.9580320524599508 0.2783483928134739 -0.0685329021531285
v 0.4873226583003998 2.2851066589355469 -12.2914915084838867
vn 0.6841752001885765 0.7062031885264414 -0.1821574921929065
v 5.8846807479858398 0.4089218676090240 0.9839880466461182
vn -0.4057184467826517 -0.7750341681155137 -0.4844735082476297
v -20.2225532531738281 -2.9497721195220947 -33.1454010009765625
vn -0.5132109682985488 -0.8477476599741897 0.1339343384884987
v -17.9638309478759766 -6.5551829338073730 -26.3582286834716797
vn -0.8726270102424620 -0.1924751274145742 0.4488601411598556
v -18.2134933471679688 -2.9691958427429199 -5.9667701721191406
vn -0.5232994292756058 -0.1857828568265027 0.8316504298256621
v -13.2142162322998047 0.9214767813682556 -4.6515970230102539
vn -0.5054941728317436 -0.0295669597391184 0.8623232781996186
v -3.3848118782043457 2.1460580825805664 3.4124877452850342
vn 0.7807550103619918 -0.6224041591465049 0.0550878976888588
v -0.6075819134712219 -6.5057320594787598 -26.1343116760253906
vn 0.3419103622584475 -0.9379507847778904 0.0578414169504591
v -0.9657063484191895 -3.0132174491882324 -15.4411315917968750
vn -0.2527667591074524 0.6876737495342472 0.6805981043845365
v 4.3833665847778320 0.5010147690773010 6.4561295509338379
vn 0.6849238812058785 -0.6740480369786029 -0.2766559610765100
v 2.4162549972534180 -2.9877912998199463 -4.4987559318542480
vn 0.5385284990103225 0.8321080172855413 -0.1326020487127343
v 15.6875963211059570 -0.2981049716472626 11.8816690444946289
vn 0.2010937935929478 -0.9708889286933896 -0.1301382892118959
v 9.8444976806640625 -4.4361510276794434 4.0696945190429688
vn -0.3811180412501249 -0.9174360746844242 0.1142807398528007
v -17.5172462463378906 -3.0389542579650879 -13.5169353485107422
vn 0.0177389011217224 -0.9967970577958681 -0.0779804908710789
v -6.5168876647949219 -6.2862625122070312 -26.0788288116455078
vn -0.2048529862892324 -0.9314311877783420 0.3007843021871494
v -7.3690109252929688 -3.0000245571136475 -1.7180848121643066
vn -0.1735003700779737 -0.9321101582622195 0.3179123691321028
v -1.0386912822723389 -2.9522562026977539 4.6946392059326172
vn 0.0169261261646113 -0.9853231200777475 0.1698583388983666
v -6.4615702629089355 -3.1103370189666748 -10.9549932479858398
vn -0.5456488667450646 -0.4996292742961311 0.6727836966560262
v 11.7234954833984375 -2.6655151844024658 14.9257965087890625
vn 0.5371477536704012 -0.8423181588621241 0.0444118225021609
v 15.5077962875366211 -4.2960238456726074 11.9159698486328125
# 46 vertices, 0 vertices normals


usemtl material_0
f 1//1 2//2 3//3
f 4//4 3//3 2//2
f 5//5 4//4 2//2
f 6//6 5//5 2//2
f 6//6 2//2 1//1
f 7//7 3//3 4//4
f 8//8 4//4 5//5
f 9//9 4//4 8//8
f 10//10 8//8 5//5
f 11//11 8//8 10//10
f 11//11 12//12 8//8
f 9//9 8//8 12//12
f 7//7 13//13 3//3
f 14//14 1//1 3//3
f 13//13 14//14 3//3
f 9//9 7//7 4//4
f 15//15 6//6 1//1
f 16//16 6//6 15//15
f 10//10 5//5 6//6
f 10//10 6//6 17//17
f 14//14 18//18 1//1
f 18//18 15//15 1//1
f 19//19 9//9 12//12
f 20//20 12//12 11//11
f 21//21 19//19 12//12
f 22//22 14//14 23//23
f 22//22 18//18 14//14
f 24//24 9//9 19//19
f 25//25 9//9 24//24
f 26//26 25//25 24//24
f 26//26 24//24 21//21
f 21//21 24//24 19//19
f 23//23 14//14 13//13
f 27//27 13//13 7//7
f 25//25 27//27 7//7
f 25//25 7//7 9//9
f 28//28 27//27 25//25
f 28//28 25//25 26//26
f 16//16 15//15 29//29
f 16//16 29//29 30//30
f 29//29 15//15 18//18
f 17//17 6//6 16//16
f 31//31 11//11 10//10
f 31//31 10//10 17//17
f 32//32 20//20 11//11
f 32//32 11//11 31//31
f 33//33 21//21 20//20
f 12//12 20//20 21//21
f 33//33 26//26 21//21
f 34//34 22//22 23//23
f 35//35 34//34 23//23
f 36//36 28//28 26//26
f 36//36 26//26 33//33
f 23//23 13//13 27//27
f 37//37 23//23 27//27
f 37//37 27//27 28//28
f 38//38 28//28 36//36
f 39//39 28//28 38//38
f 17//17 16//16 30//30
f 40//40 17//17 30//30
f 18//18 41//41 29//29
f 30//30 29//29 41//41
f 22//22 41//41 18//18
f 20//20 32//32 33//33
f 42//42 32//32 31//31
f 34//34 41//41 22//22
f 42//42 33//33 32//32
f 43//43 33//33 42//42
f 35//35 41//41 34//34
f 44//44 41//41 35//35
f 23//23 37//37 35//35
f 43//43 35//35 37//37
f 42//42 44//44 35//35
f 43//43 42//42 35//35
f 36//36 33//33 43//43
f 42//42 40//40 44//44
f 42//42 31//31 40//40
f 17//17 40//40 31//31
f 39//39 36//36 43//43
f 39//39 43//43 37//37
f 39//39 37//37 28//28
f 45//45 38//38 36//36
f 46//46 38//38 45//45
f 46//46 39//39 38//38
f 39//39 45//45 36//36
f 46//46 45//45 39//39
f 44//44 40//40 30//30
f 44//44 30//30 41//41
# 88 faces, 0 coords texture

# End of File
