####
#
# OBJ File Generated by Meshlab
#
####
# Object sim_ecub_1-1_l_hand_middle_1.obj
#
# Vertices: 33
# Faces: 62
#
####
mtllib ./sim_ecub_1-1_l_hand_middle_1.obj.mtl

vn 0.1264501773402720 -0.9915394987823123 0.0293219202156798
v -0.4246847033500671 -7.0738096237182617 2.1546282768249512
vn 0.5640963098034563 -0.8256876306762626 0.0059405230698183
v 6.7964200973510742 -4.1364855766296387 -13.3232307434082031
vn 0.8692602438984961 -0.4731416503792922 0.1432606263210048
v 7.9604711532592773 -0.4746088683605194 -6.2159647941589355
vn 0.9862463637485847 0.1650579430248995 0.0086014787730541
v 8.3492031097412109 4.2117776870727539 -12.8290014266967773
vn 0.7865808548345886 0.0907501864915507 0.6107822545387487
v 8.2148122787475586 4.7621483802795410 3.0828709602355957
vn 0.0470664474357132 -0.4239921211133331 0.9044420549485732
v 0.5512358546257019 -6.4938879013061523 9.4128055572509766
vn 0.6481877457776940 -0.0131514419528856 0.7613669849672964
v 4.8552908897399902 0.7887651324272156 3.3409540653228760
vn -0.2333946941174037 -0.9723518369092837 -0.0076695512896860
v -4.0619945526123047 -5.2359466552734375 -12.2774829864501953
vn 0.0938122046738634 0.2791192798047777 0.9556629625006358
v -2.9968378543853760 6.4115753173828125 3.2314591407775879
vn -0.9456667978755360 0.1633026690901328 0.2811521752785648
v -7.7792243957519531 5.1515202522277832 3.2183861732482910
vn -0.8115632542370010 -0.5558458328672947 0.1800013734845165
v -5.8219347000122070 -2.5147895812988281 -2.0050663948059082
vn -0.9370695397758622 -0.3457197956458849 0.0487698731064744
v -8.1704969406127930 -0.9869123697280884 -12.4141120910644531
vn 0.9923209196574100 -0.1233845272035886 0.0086862452773898
v 8.5640821456909180 1.1647150516510010 -26.8807792663574219
vn 0.5822491738044734 -0.7404631850677466 -0.3357084615605273
v 6.7806100845336914 -3.6224436759948730 -42.3538475036621094
vn 0.6995011646704850 0.1276573548682324 -0.7031370566060939
v 8.8069105148315430 2.7956647872924805 -43.0522346496582031
vn 0.0399296833639292 -0.9989136331803377 -0.0240244424058894
v 1.2287338972091675 -5.3813695907592773 -34.1084938049316406
vn -0.1943858810423216 -0.9425741862992200 -0.2716027109101893
v -6.1263098716735840 -4.3915872573852539 -41.3730697631835938
vn -0.7443060183684822 -0.1420974407928313 -0.6525464491824198
v -8.2689847946166992 -0.7934350371360779 -43.2330207824707031
vn 0.9111521471768393 0.4120687866859280 0.0010391026045253
v 7.2545628547668457 7.4571280479431152 -22.7772235870361328
vn 0.6855443309790340 0.7280158638394754 0.0046767788670339
v 5.2008094787597656 10.6829929351806641 -3.7190399169921875
vn 0.6328685225230920 0.7379359338986792 0.2343672132797651
v 4.6078047752380371 11.2061262130737305 2.9430110454559326
vn -0.4581868446968950 0.7962807766990455 0.3949705558725461
v -3.5994331836700439 11.3132791519165039 3.2051231861114502
vn -0.7345987882123440 -0.6784822144151863 0.0051483083843950
v -7.0520567893981934 -3.8730270862579346 -31.5841884613037109
vn -0.9982474559230026 -0.0579924481750885 0.0117852746218565
v -8.4853372573852539 1.6966549158096313 -27.1501789093017578
vn -0.9878289782225278 0.1551682664981707 0.0108036501141659
v -8.2459049224853516 5.0787014961242676 -12.3827428817749023
vn 0.7527161516137572 0.6478459220961209 -0.1171070293500868
v 5.6810302734375000 10.0319194793701172 -38.4477043151855469
vn 0.3389771363881255 0.9407875126730836 -0.0036547235872020
v 4.3213801383972168 10.9775447845458984 -26.6205444335937500
vn -0.6418922173336240 0.4920549870998010 -0.5880954607856945
v -7.8837742805480957 7.3278956413269043 -43.2264900207519531
vn 0.0112420900017493 0.9999367903483047 -0.0001752721392983
v 0.4354678392410278 11.8216400146484375 -5.4072866439819336
vn -0.9306716715923163 0.3657978506797682 -0.0064940075166082
v -7.6236267089843750 6.9523210525512695 -26.7289581298828125
vn -0.6743625192846402 0.7383265765798704 0.0104431269226098
v -5.1526923179626465 10.5694913864135742 -20.6128349304199219
vn 0.0176480765472986 0.9150199489431026 -0.4030223795651338
v 0.2755520641803741 11.8739194869995117 -43.2013931274414062
vn -0.2948202041172999 0.9553632852752902 -0.0190273590452797
v -2.8316173553466797 11.5676212310791016 -27.2735080718994141
# 33 vertices, 0 vertices normals


usemtl material_0
f 1//1 2//2 3//3
f 4//4 5//5 3//3
f 4//4 3//3 2//2
f 6//6 1//1 3//3
f 7//7 6//6 3//3
f 7//7 3//3 5//5
f 1//1 8//8 2//2
f 9//9 6//6 7//7
f 9//9 7//7 5//5
f 10//10 6//6 9//9
f 11//11 8//8 1//1
f 12//12 8//8 11//11
f 11//11 1//1 6//6
f 10//10 11//11 6//6
f 13//13 14//14 15//15
f 2//2 16//16 14//14
f 13//13 2//2 14//14
f 17//17 14//14 16//16
f 18//18 15//15 14//14
f 18//18 14//14 17//17
f 8//8 16//16 2//2
f 4//4 2//2 13//13
f 19//19 4//4 13//13
f 20//20 4//4 19//19
f 21//21 5//5 4//4
f 21//21 4//4 20//20
f 22//22 9//9 5//5
f 22//22 5//5 21//21
f 8//8 23//23 16//16
f 17//17 16//16 23//23
f 10//10 9//9 22//22
f 18//18 17//17 23//23
f 24//24 18//18 23//23
f 12//12 23//23 8//8
f 25//25 23//23 12//12
f 25//25 24//24 23//23
f 10//10 25//25 12//12
f 10//10 12//12 11//11
f 19//19 13//13 15//15
f 26//26 19//19 15//15
f 26//26 27//27 19//19
f 28//28 15//15 18//18
f 27//27 20//20 19//19
f 20//20 29//29 21//21
f 30//30 18//18 24//24
f 30//30 28//28 18//18
f 30//30 24//24 25//25
f 31//31 30//30 25//25
f 31//31 25//25 10//10
f 22//22 31//31 10//10
f 32//32 26//26 15//15
f 32//32 15//15 28//28
f 32//32 27//27 26//26
f 33//33 29//29 27//27
f 32//32 33//33 27//27
f 31//31 29//29 33//33
f 22//22 29//29 31//31
f 20//20 27//27 29//29
f 21//21 29//29 22//22
f 33//33 30//30 31//31
f 33//33 32//32 28//28
f 30//30 33//33 28//28
# 62 faces, 0 coords texture

# End of File
