####
#
# OBJ File Generated by Meshlab
#
####
# Object sim_ecub_1-1_r_hand_middle_2.obj
#
# Vertices: 28
# Faces: 52
#
####
mtllib ./sim_ecub_1-1_r_hand_middle_2.obj.mtl

vn 0.3796375218231732 0.6735175841117260 -0.6342313583514015
v 3.9300942420959473 7.6539406776428223 -44.5616493225097656
vn -0.6093887553836588 0.5926081367203384 -0.5267456132753303
v -3.9227442741394043 8.2781982421875000 -43.2205696105957031
vn -0.4734345537999197 0.8719222370224190 -0.1249453314617703
v -4.5864439010620117 12.5726509094238281 -33.1946144104003906
vn 0.5062233077953024 0.8548442119983967 -0.1139268882117939
v 4.3895282745361328 12.2017965316772461 -31.2303695678710938
vn -0.4501873372204529 -0.0114645706641748 -0.8928605294366218
v -5.6899471282958984 1.8097487688064575 -44.0266380310058594
vn -0.9865331359148002 0.1024541955548446 -0.1274970962623070
v -9.4661474227905273 1.4692178964614868 -36.0216598510742188
vn -0.9614931704933209 0.2747918510719191 -0.0045079573167860
v -8.3484468460083008 6.4213032722473145 -17.4616031646728516
vn -0.4894385588700766 0.8640591847815421 0.1176929151896547
v -4.5938048362731934 12.4598808288574219 -4.7091107368469238
vn 0.4191395309638746 -0.2227745321140620 -0.8801667804596717
v 5.2896213531494141 -0.2305533140897751 -45.0012702941894531
vn 0.9701037218145400 0.1844651526276556 -0.1577066149140031
v 8.8034601211547852 3.4258000850677490 -36.3537330627441406
vn -0.3967742184483472 -0.8205109206453185 -0.4114997553783905
v -4.6161046028137207 -4.5869684219360352 -42.4688682556152344
vn 0.2344406368038071 0.9707967182553854 0.0509050060367277
v 1.6658701896667480 13.2737464904785156 -6.1345872879028320
vn -0.9406089360029614 0.3138023008916167 0.1295490079719021
v -7.8194541931152344 8.3635091781616211 -6.9813685417175293
vn 0.9368541483810403 0.3179749036460242 0.1455893722513337
v 7.8381900787353516 9.4783172607421875 -4.9845151901245117
vn 0.8375841958258328 0.5457950892068500 -0.0236735189711943
v 7.8019075393676758 8.4896345138549805 -18.2381782531738281
vn 0.9832533597797095 -0.1814673206536108 0.0168060113266859
v 8.8230352401733398 1.9745122194290161 -22.7773132324218750
vn 0.7549834800546107 -0.6074833609619119 -0.2469087098484961
v 5.9140801429748535 -5.7976913452148438 -39.8335838317871094
vn -0.8059230056727671 -0.5909884701699369 0.0349390476912375
v -8.0576534271240234 -1.2334024906158447 -16.1573963165283203
vn 0.3320732588005608 0.8184637948122498 0.4688756416909575
v 3.6401133537292480 8.9466295242309570 6.2994437217712402
vn -0.6739133213961417 0.4191470399787954 0.6084049589885299
v -4.3191328048706055 8.4370956420898438 6.9110150337219238
vn 0.3664303938001651 -0.2244493190961032 0.9029680335741412
v 4.0625658035278320 0.3636884987354279 12.0467138290405273
vn 0.0898321740989138 -0.9849642893330623 0.1475653388681696
v 4.5010352134704590 -6.2031278610229492 -34.9997863769531250
vn 0.2743158456462876 -0.9602909529954837 0.0509126941183413
v 5.9766926765441895 -3.1098768711090088 -24.2766685485839844
vn 0.7538363764215033 -0.6462797692429402 0.1185460984216256
v 7.7370834350585938 -1.9330165386199951 0.8510542511940002
vn -0.3306380187262711 -0.9416398335108013 0.0631895918527451
v -7.6478624343872070 -2.8674437999725342 -30.4947795867919922
vn -0.9236150143008484 -0.2215678886968484 0.3127986190130393
v -8.3522176742553711 -1.0592201948165894 0.7492738366127014
vn -0.0410320931470693 -0.9989619779370619 0.0197821628757656
v -1.1749768257141113 -3.7745063304901123 -11.5723209381103516
vn -0.1279783061001313 -0.9816482143215726 0.1413801134778476
v -2.5242240428924561 -3.1662299633026123 3.0408535003662109
# 28 vertices, 0 vertices normals


usemtl material_0
f 1//1 2//2 3//3
f 4//4 1//1 3//3
f 1//1 5//5 2//2
f 6//6 3//3 2//2
f 5//5 6//6 2//2
f 7//7 8//8 3//3
f 7//7 3//3 6//6
f 9//9 1//1 10//10
f 9//9 5//5 1//1
f 9//9 11//11 5//5
f 4//4 10//10 1//1
f 12//12 4//4 3//3
f 12//12 3//3 8//8
f 13//13 8//8 7//7
f 14//14 15//15 12//12
f 15//15 10//10 4//4
f 16//16 10//10 15//15
f 17//17 9//9 10//10
f 15//15 4//4 12//12
f 11//11 6//6 5//5
f 18//18 7//7 6//6
f 19//19 14//14 12//12
f 20//20 8//8 13//13
f 19//19 12//12 8//8
f 20//20 19//19 8//8
f 21//21 19//19 20//20
f 22//22 17//17 16//16
f 16//16 17//17 10//10
f 22//22 16//16 23//23
f 24//24 23//23 16//16
f 14//14 16//16 15//15
f 24//24 16//16 14//14
f 21//21 24//24 14//14
f 21//21 14//14 19//19
f 11//11 25//25 6//6
f 22//22 25//25 11//11
f 23//23 25//25 22//22
f 22//22 11//11 17//17
f 18//18 6//6 25//25
f 26//26 13//13 7//7
f 26//26 7//7 18//18
f 9//9 17//17 11//11
f 25//25 23//23 27//27
f 26//26 20//20 13//13
f 27//27 23//23 24//24
f 18//18 25//25 27//27
f 28//28 18//18 27//27
f 26//26 18//18 28//28
f 21//21 26//26 28//28
f 20//20 26//26 21//21
f 24//24 28//28 27//27
f 21//21 28//28 24//24
# 52 faces, 0 coords texture

# End of File
