####
#
# OBJ File Generated by Meshlab
#
####
# Object sim_ecub_1-1_r_hand_thumb_2.obj
#
# Vertices: 52
# Faces: 100
#
####
mtllib ./sim_ecub_1-1_r_hand_thumb_2.obj.mtl

vn 0.2806234240086404 0.5193753749677508 0.8071553219639793
v 1.0719439983367920 2.9968793392181396 3.7589375972747803
vn 0.1683278191697445 0.1827982689567685 0.9686333352512533
v 0.0306208487600088 -4.6291909217834473 8.1647357940673828
vn 0.4023769127850134 0.3434787990693968 0.8485959784534962
v 2.7176637649536133 -5.0425834655761719 8.3097791671752930
vn 0.6026510896247065 0.2559441880710137 0.7558467018958431
v 2.8252627849578857 1.9257340431213379 4.1864266395568848
vn 0.2862497320016943 -0.4558435356552231 0.8427738498139958
v 3.2100439071655273 -7.7980175018310547 7.1144757270812988
vn 0.1478725523819019 0.4136487283824721 0.8983476152134124
v -6.9908199310302734 2.3829493522644043 7.9878706932067871
vn 0.0026719082166047 -0.0761809151108307 0.9970904317459667
v -10.6976203918457031 -2.8108456134796143 8.5026197433471680
vn 0.9809808551278086 -0.1429273478539621 0.1313329170777297
v 3.1859748363494873 -5.6507706642150879 4.9486212730407715
vn 0.1601921695591070 -0.9467453616499618 0.2793057267694833
v 3.1024715900421143 -11.4932126998901367 2.7982263565063477
vn 0.9645505884423672 -0.2587604509543619 0.0518188320726965
v 6.7664117813110352 2.3133902549743652 1.2581486701965332
vn 0.0187771121882180 -0.5144899506375004 0.8572907970758193
v -9.7037563323974609 -7.8509621620178223 7.2773003578186035
vn 0.1323490519831372 0.6981376269300280 0.7036246032535203
v 1.8125898838043213 3.7601778507232666 1.9229623079299927
vn 0.0235381379416780 0.9507394276394752 0.3090962581365256
v -9.5317535400390625 4.2717008590698242 5.9760656356811523
vn 0.0007553342387734 0.4009842209362856 0.9160846489437031
v -22.6233043670654297 2.8285024166107178 7.8059463500976562
vn -0.0677331814460942 0.9252701545784550 0.3732122146682133
v 0.2747796475887299 6.5860681533813477 0.6299818754196167
vn 0.0107788875354500 -0.9217035237555751 0.3877453157422464
v -12.2566404342651367 -10.8237972259521484 4.7112789154052734
vn 0.0364051351577731 0.7542107261525050 0.6556224879384899
v 5.3931145668029785 6.9410982131958008 1.3698338270187378
vn 0.8124562023143509 0.4103165433870349 -0.4141922905413115
v 9.1176185607910156 6.2589855194091797 -0.3368974030017853
vn 0.1044982035305525 0.7018688719367673 -0.7045993273237613
v 1.5478725433349609 6.6021308898925781 -1.2500000000000000
vn 0.5497828080845689 -0.4843548431148914 -0.6805433490129745
v 2.6235399246215820 -8.0951824188232422 -6.7840275764465332
vn 0.5216272109413532 -0.7955643555854714 -0.3081921623393732
v 3.2280688285827637 -11.2229356765747070 -3.6961336135864258
vn 0.6212758653425888 0.1988784605004549 -0.7579338078564555
v 2.9430344104766846 -0.2960856556892395 -4.7223472595214844
vn 0.0255644020421938 0.9709116520153019 0.2380693708336759
v -19.8301982879638672 4.8241634368896484 4.7452707290649414
vn 0.0240373423750882 0.9885437069036572 -0.1490085424152560
v -13.9109268188476562 5.2182388305664062 -3.9416837692260742
vn -0.0294902223342449 0.9980971773826276 -0.0541511891606111
v -23.9935531616210938 5.6052384376525879 -0.4775895178318024
vn -0.0149920069155738 -0.4218236684712727 0.9065539324530455
v -29.1920280456542969 -7.9981832504272461 7.3623213768005371
vn -0.0311537654161230 0.0127388559755795 0.9994334217189410
v -36.5963020324707031 -1.0883998870849609 8.4858274459838867
vn -0.0225655077795217 0.9646216398739249 -0.2626706868792028
v -4.5508031845092773 5.2681145668029785 -2.4103894233703613
vn -0.0603513190924777 -0.9537413802924829 0.2945082304479575
v -27.2000885009765625 -11.3819761276245117 3.2814629077911377
vn -0.0095974331971431 -0.9988857724665882 -0.0462071730346504
v -17.5302600860595703 -11.7742643356323242 -0.4459751844406128
vn 0.0048268370569592 -0.9015393581378915 -0.4326701831330007
v -10.7076158523559570 -11.1913785934448242 -4.2643475532531738
vn 0.2397307058271957 0.5028219326939208 -0.8304813620338175
v 0.0678653791546822 2.7536795139312744 -4.3851914405822754
vn 0.1381772688900512 0.0329793800194809 -0.9898582741259565
v 1.4472481012344360 -5.2372140884399414 -8.1333389282226562
vn -0.1849726074499475 0.9065940743436642 0.3793050472352329
v -37.1523666381835938 4.1752934455871582 6.9751648902893066
vn -0.5873911115512382 -0.5405444074534501 0.6023150551342705
v -38.2792701721191406 -6.3028192520141602 7.8218474388122559
vn 0.1225784615516108 0.6906765754146706 -0.7126993678523247
v -6.9222378730773926 1.9096753597259521 -8.0377159118652344
vn 0.3349391485395175 0.4469025768375377 -0.8295142274799100
v -1.8109608888626099 -0.7982646226882935 -4.5000000000000000
vn 0.1098565372404033 0.1330189883612784 -0.9850063400612659
v -4.7052373886108398 -1.2715234756469727 -8.4810495376586914
vn -0.9847930872952495 0.0702838852606630 -0.1588796736154669
v -38.0721664428710938 2.4083640575408936 5.3442721366882324
vn -0.4274133936531493 0.8953853273388216 -0.1249115947870705
v -36.3518066406250000 4.3913788795471191 -5.6300139427185059
vn -0.7082187129661660 -0.6881644287985661 0.1576577734870392
v -37.9676780700683594 -11.6697511672973633 -1.1950117349624634
vn 0.0193839545323711 0.8205486062027930 -0.5712479734452813
v -26.4927482604980469 4.0624785423278809 -6.6458349227905273
vn -0.0014206179508341 -0.7872866126755335 -0.6165855750392822
v -26.7865467071533203 -10.1962814331054688 -5.8361482620239258
vn 0.0627609857741506 -0.9848783410054243 -0.1614797575024820
v -31.4233856201171875 -11.6225509643554688 -1.7772966623306274
vn 0.0006160379789097 0.6770693354993388 -0.7359189734092283
v -18.7744026184082031 3.3319327831268311 -7.1320867538452148
vn -0.0017069265082128 -0.2673944909011877 -0.9635856332664940
v -20.2046337127685547 -5.2460112571716309 -8.2397127151489258
vn -0.9960489383826161 0.0768289682062019 -0.0445401166504307
v -36.6167526245117188 -1.0815769433975220 4.4000000953674316
vn -0.9840609381609192 0.1166168589224593 0.1342556449498901
v -37.4344863891601562 0.5628331899642944 -4.7856302261352539
vn -0.1449617164023488 0.1999089651783025 -0.9690317365386054
v -37.9901580810546875 2.3296949863433838 -7.9233880043029785
vn -0.8590611804561300 -0.4114908388832615 -0.3044489739652119
v -38.2266426086425781 -10.7316246032714844 -4.9706830978393555
vn -0.0022214936394625 0.1675987524690258 -0.9858527897900560
v -26.3656063079833984 0.6214690804481506 -8.2766017913818359
vn -0.2205602846114869 -0.2428453355679204 -0.9446583000455794
v -38.2246818542480469 -4.9426422119140625 -8.1816558837890625
# 52 vertices, 0 vertices normals


usemtl material_0
f 1//1 2//2 3//3
f 4//4 1//1 3//3
f 5//5 3//3 2//2
f 4//4 3//3 5//5
f 6//6 2//2 1//1
f 7//7 5//5 2//2
f 7//7 2//2 6//6
f 8//8 4//4 5//5
f 9//9 8//8 5//5
f 8//8 10//10 4//4
f 11//11 5//5 7//7
f 9//9 5//5 11//11
f 12//12 13//13 6//6
f 12//12 6//6 1//1
f 14//14 6//6 13//13
f 14//14 7//7 6//6
f 12//12 1//1 4//4
f 15//15 13//13 12//12
f 9//9 11//11 16//16
f 17//17 12//12 4//4
f 18//18 17//17 4//4
f 10//10 18//18 4//4
f 15//15 12//12 17//17
f 19//19 15//15 17//17
f 18//18 19//19 17//17
f 20//20 10//10 8//8
f 21//21 8//8 9//9
f 21//21 20//20 8//8
f 22//22 18//18 10//10
f 22//22 10//10 20//20
f 13//13 23//23 14//14
f 24//24 23//23 13//13
f 24//24 25//25 23//23
f 26//26 11//11 7//7
f 27//27 26//26 7//7
f 27//27 7//7 14//14
f 16//16 11//11 26//26
f 28//28 24//24 13//13
f 29//29 16//16 26//26
f 30//30 16//16 29//29
f 31//31 9//9 16//16
f 31//31 16//16 30//30
f 15//15 28//28 13//13
f 28//28 15//15 19//19
f 21//21 9//9 31//31
f 18//18 22//22 19//19
f 32//32 19//19 22//22
f 28//28 19//19 32//32
f 32//32 22//22 33//33
f 27//27 14//14 34//34
f 23//23 34//34 14//14
f 25//25 34//34 23//23
f 35//35 26//26 27//27
f 29//29 26//26 35//35
f 36//36 28//28 32//32
f 24//24 28//28 36//36
f 37//37 32//32 33//33
f 38//38 32//32 37//37
f 36//36 32//32 38//38
f 33//33 38//38 37//37
f 20//20 21//21 31//31
f 33//33 22//22 20//20
f 35//35 27//27 34//34
f 39//39 35//35 34//34
f 40//40 34//34 25//25
f 41//41 35//35 39//39
f 41//41 29//29 35//35
f 42//42 40//40 25//25
f 43//43 30//30 29//29
f 43//43 29//29 44//44
f 45//45 25//25 24//24
f 45//45 42//42 25//25
f 36//36 45//45 24//24
f 31//31 30//30 43//43
f 46//46 33//33 20//20
f 31//31 46//46 20//20
f 39//39 34//34 40//40
f 47//47 39//39 40//40
f 48//48 47//47 40//40
f 49//49 48//48 40//40
f 41//41 39//39 47//47
f 50//50 41//41 47//47
f 48//48 50//50 47//47
f 44//44 29//29 41//41
f 50//50 44//44 41//41
f 43//43 44//44 50//50
f 36//36 38//38 45//45
f 51//51 45//45 38//38
f 42//42 45//45 51//51
f 31//31 43//43 46//46
f 46//46 51//51 38//38
f 33//33 46//46 38//38
f 52//52 50//50 48//48
f 52//52 48//48 49//49
f 42//42 49//49 40//40
f 52//52 46//46 43//43
f 50//50 52//52 43//43
f 46//46 52//52 49//49
f 46//46 49//49 51//51
f 42//42 51//51 49//49
# 100 faces, 0 coords texture

# End of File
