####
#
# OBJ File Generated by Meshlab
#
####
# Object sim_ecub_1-1_l_hand_thumb_3.obj
#
# Vertices: 53
# Faces: 102
#
####
mtllib ./sim_ecub_1-1_l_hand_thumb_3.obj.mtl

vn 0.8414209686302442 -0.5316359747262338 0.0968191299600905
v 39.8627281188964844 -2.0297803878784180 1.6096369028091431
vn 0.9963161215830739 -0.0000566866617889 -0.0857565312981121
v 41.3153152465820312 4.2546849250793457 -0.1522165387868881
vn 0.6675289721827570 -0.0818354506933218 0.7400729898506316
v 38.6855545043945312 0.7134799361228943 5.9021272659301758
vn 0.3253389709496557 0.4860575823054355 0.8111119408964547
v 34.0062294006347656 7.6590919494628906 6.1790909767150879
vn 0.1253481202513361 -0.0041082559184976 0.9921043145671551
v 32.1214485168457031 1.2189297676086426 9.3214244842529297
vn 0.7241762507475337 0.5659505721933541 0.3940415050312089
v 40.8395652770996094 6.5815949440002441 1.6089826822280884
vn 0.1605313226104918 -0.9435274524477525 0.2898027621303503
v 33.4357147216796875 -6.5544552803039551 5.2472476959228516
vn 0.1862770447304819 -0.4312056218833447 0.8828151416138468
v 32.0461006164550781 -3.6851093769073486 7.5129680633544922
vn 0.3862360016314757 0.9137238727543756 0.1262158286526543
v 35.3523750305175781 10.1874179840087891 1.9388356208801270
vn 0.0954003276308141 0.7243623981069485 0.6827868581751438
v 26.9013252258300781 11.9982175827026367 4.5602612495422363
vn -0.0970841253590508 -0.5107141126195390 0.8542515834193722
v 23.2117309570312500 -2.7441730499267578 7.4782881736755371
vn 0.0358699259351518 0.3355757972454946 0.9413300338969629
v 23.6545009613037109 5.5055027008056641 8.5400609970092773
vn 0.5570601032887282 -0.7373917248131396 -0.3820176507716029
v 36.5764846801757812 -4.7555050849914551 -4.3801708221435547
vn 0.8074837993755494 -0.1470822645053194 -0.5712588915842053
v 39.4110679626464844 0.7532406449317932 -5.2141962051391602
vn -0.0773410738297258 -0.9955885512959386 -0.0531205687781953
v 32.3795623779296875 -6.3804965019226074 -1.0772048234939575
vn 0.5931297386050695 0.5634102289889741 -0.5751226191455816
v 37.9752388000488281 7.5409698486328125 -4.4766330718994141
vn 0.3190905028763542 0.8056596621506270 -0.4990929369941562
v 32.2541580200195312 10.8527851104736328 -4.2662978172302246
vn 0.0720235692162232 0.9965196305477456 -0.0419670276567272
v 23.6032466888427734 13.1924715042114258 -0.7179952263832092
vn -0.1370129782934283 -0.9753136862676108 0.1731781081957213
v 20.5767440795898438 -2.8361845016479492 5.6355314254760742
vn -0.2434987139103391 -0.9698898827306530 0.0046895309713338
v 24.4169883728027344 -4.0633807182312012 0.3516573905944824
vn -0.0313992175592380 -0.6631873937136399 0.7477944703967644
v 17.7665863037109375 -1.7697356939315796 7.3505530357360840
vn -0.0391706996061378 0.3112950984375495 0.9495056703259450
v 4.5023603439331055 7.6834726333618164 8.0917205810546875
vn 0.0142588543434741 0.8750469631918101 0.4838279624841899
v 9.1827716827392578 12.2820739746093750 5.1163606643676758
vn -0.0298710817129580 -0.0868432271155248 0.9957740568931585
v 17.2340831756591797 1.5332312583923340 8.4444913864135742
vn 0.2299265444443304 0.0650671474754961 -0.9710304065678331
v 33.5858039855957031 1.0769205093383789 -9.0092172622680664
vn -0.0562892870009433 -0.8474458866799743 -0.5278891790121462
v 30.8769454956054688 -5.7513432502746582 -6.0792722702026367
vn 0.0668902651013525 0.6173016231728791 -0.7838777956179137
v 27.5945053100585938 11.3367595672607422 -5.5695686340332031
vn -0.0092751582460783 -0.9999445449505263 0.0049878315122883
v 18.7669448852539062 -3.2305111885070801 0.6342471837997437
vn -0.0055817717921287 -0.9662853401080407 0.2574130636077911
v 7.4036045074462891 -3.2207303047180176 4.5935001373291016
vn -0.1006437768545986 0.9938798312298746 0.0455380198835870
v 3.9350886344909668 13.2303934097290039 0.9849327802658081
vn -0.0419133259076617 -0.2567012006947099 0.9655815691453790
v 2.3787231445312500 -0.3424939215183258 8.2098531723022461
vn -0.3144586685029892 0.7390885799045208 0.5957044710744128
v 3.9060049057006836 11.5537195205688477 5.5301966667175293
vn -0.1684824696945445 -0.1966674856668219 0.9658858925810633
v -1.2644984722137451 -1.5008796453475952 8.3680448532104492
vn -0.0695856740835273 -0.8949261390440512 -0.4407550789475359
v 19.4080829620361328 -2.7485747337341309 -6.4520626068115234
vn -0.0434403194364052 -0.3377967288836649 -0.9402160967579523
v 23.4267024993896484 -1.2176375389099121 -8.4288835525512695
vn -0.0447466813134317 0.7726252242431011 -0.6332835047391745
v 4.0322628021240234 12.3075685501098633 -4.7860269546508789
vn -0.0547464365724013 -0.9915839913885230 -0.1173201419391797
v 2.7658333778381348 -3.5888030529022217 -2.3695521354675293
vn -0.2273887844322531 0.3070565736166661 0.9241269400429875
v 1.1606303453445435 4.6986460685729980 6.7112488746643066
vn -0.3717914188978902 0.8047927909070901 0.4626874804204996
v -3.5109434127807617 9.9881391525268555 3.8337347507476807
vn -0.2867711537503064 0.3421575192508403 0.8948131298750756
v -4.8074860572814941 7.5344066619873047 5.4662270545959473
vn -0.3690106338387956 0.9251841717533364 -0.0886870929221569
v -1.7945816516876221 10.8234071731567383 -1.7067688703536987
vn -0.5406500451400630 -0.0028995291233641 0.8412426055668547
v -8.6511201858520508 0.6647487282752991 5.6554484367370605
vn -0.2160580252518306 -0.9652654723003126 0.1469064250097105
v -3.2918856143951416 -2.4741399288177490 5.3194813728332520
vn 0.0145001397560308 0.2826633524505230 -0.9591095740990635
v 22.0912342071533203 4.2569131851196289 -8.9331464767456055
vn -0.7690153978149042 0.5197726211976972 -0.3720910374852635
v -7.6629319190979004 8.1519432067871094 -2.9585227966308594
vn -0.9468103546670440 -0.3200148904205039 -0.0337730988276097
v -11.0811805725097656 0.4218528568744659 2.8641669750213623
vn -0.5765865642834489 -0.6976004982918532 -0.4253251446490866
v -7.5366044044494629 -1.6013143062591553 -3.8691494464874268
vn -0.7574228510034520 0.5445873269183210 0.3601878234168394
v -8.2850332260131836 6.9022245407104492 2.5284299850463867
vn -0.0128980679899725 -0.1366705059456909 -0.9905325904010805
v 6.4431114196777344 2.4303312301635742 -8.5329103469848633
vn -0.1111191491229793 0.3370486207122328 -0.9349068199420552
v 4.7860302925109863 7.5607228279113770 -8.1045742034912109
vn -0.1804193322591425 -0.4589560506397417 -0.8699472444512575
v -0.2556342780590057 -0.8835424780845642 -8.6677408218383789
vn -0.3250032653039172 0.6345645233093834 -0.7012137643393250
v -0.7176156044006348 9.1152887344360352 -4.8834986686706543
vn -0.4320475684184270 0.2268401365865188 -0.8728564893824953
v -5.4739027023315430 6.0148358345031738 -5.4206094741821289
# 53 vertices, 0 vertices normals


usemtl material_0
f 1//1 2//2 3//3
f 4//4 5//5 3//3
f 6//6 4//4 3//3
f 6//6 3//3 2//2
f 1//1 3//3 7//7
f 8//8 3//3 5//5
f 8//8 7//7 3//3
f 9//9 4//4 6//6
f 10//10 4//4 9//9
f 11//11 7//7 8//8
f 11//11 8//8 5//5
f 12//12 5//5 4//4
f 10//10 12//12 4//4
f 7//7 13//13 1//1
f 14//14 1//1 13//13
f 14//14 2//2 1//1
f 15//15 13//13 7//7
f 16//16 6//6 2//2
f 16//16 2//2 14//14
f 16//16 9//9 6//6
f 17//17 9//9 16//16
f 18//18 10//10 9//9
f 18//18 9//9 17//17
f 19//19 7//7 11//11
f 19//19 20//20 7//7
f 19//19 11//11 21//21
f 22//22 12//12 10//10
f 23//23 10//10 18//18
f 23//23 22//22 10//10
f 24//24 11//11 5//5
f 12//12 24//24 5//5
f 21//21 11//11 24//24
f 22//22 24//24 12//12
f 25//25 16//16 14//14
f 25//25 14//14 13//13
f 26//26 13//13 15//15
f 26//26 25//25 13//13
f 20//20 26//26 15//15
f 7//7 20//20 15//15
f 27//27 18//18 17//17
f 28//28 20//20 19//19
f 29//29 19//19 21//21
f 29//29 28//28 19//19
f 30//30 23//23 18//18
f 29//29 21//21 31//31
f 30//30 32//32 23//23
f 31//31 21//21 24//24
f 22//22 31//31 24//24
f 33//33 29//29 31//31
f 27//27 17//17 25//25
f 16//16 25//25 17//17
f 34//34 26//26 20//20
f 34//34 35//35 26//26
f 34//34 20//20 28//28
f 36//36 18//18 27//27
f 37//37 28//28 29//29
f 37//37 34//34 28//28
f 38//38 31//31 22//22
f 33//33 31//31 38//38
f 32//32 38//38 22//22
f 32//32 22//22 23//23
f 39//39 38//38 32//32
f 39//39 40//40 38//38
f 40//40 33//33 38//38
f 41//41 32//32 30//30
f 39//39 32//32 41//41
f 40//40 42//42 33//33
f 42//42 43//43 33//33
f 35//35 25//25 26//26
f 44//44 25//25 35//35
f 27//27 25//25 44//44
f 36//36 30//30 18//18
f 43//43 37//37 29//29
f 43//43 29//29 33//33
f 41//41 30//30 36//36
f 45//45 39//39 41//41
f 46//46 43//43 42//42
f 46//46 47//47 43//43
f 48//48 40//40 39//39
f 48//48 39//39 45//45
f 48//48 42//42 40//40
f 48//48 46//46 42//42
f 49//49 44//44 35//35
f 49//49 35//35 34//34
f 50//50 44//44 49//49
f 36//36 27//27 44//44
f 50//50 36//36 44//44
f 51//51 34//34 37//37
f 47//47 37//37 43//43
f 47//47 51//51 37//37
f 41//41 36//36 52//52
f 45//45 41//41 52//52
f 45//45 46//46 48//48
f 51//51 49//49 34//34
f 51//51 50//50 49//49
f 53//53 52//52 50//50
f 51//51 53//53 50//50
f 36//36 50//50 52//52
f 45//45 52//52 53//53
f 45//45 47//47 46//46
f 53//53 51//51 47//47
f 45//45 53//53 47//47
# 102 faces, 0 coords texture

# End of File
