####
#
# OBJ File Generated by Meshlab
#
####
# Object sim_ecub_1-1_r_hand_palm.obj
#
# Vertices: 99
# Faces: 180
#
####
mtllib ./sim_ecub_1-1_r_hand_palm.obj.mtl

vn -0.2058157031190172 -0.9771232421667398 -0.0535729966231402
v -20.3466567993164062 -28.7120151519775391 -55.5201187133789062
vn -0.6911744922231564 -0.7226852401927761 0.0019659368177266
v -46.9243431091308594 -17.7921028137207031 -74.6119003295898438
vn -0.1467267712816654 -0.9415540753240847 -0.3032279304910177
v -20.6761589050292969 -23.6273803710937500 -80.8919067382812500
vn -0.5801989029382509 -0.5772139041980924 -0.5746245224750206
v -40.5680732727050781 -15.0248842239379883 -87.9309616088867188
vn -0.0928901930789645 -0.7745908185578233 -0.6256040887299842
v -17.8677673339843750 -17.0670833587646484 -94.1611709594726562
vn -0.0354629742825853 -0.9824749425892307 -0.1829900670509755
v -2.7192823886871338 -30.0605678558349609 -61.2590141296386719
vn -0.2420177189260855 -0.9621731005312003 0.1251013522708328
v -20.9045333862304688 -27.7449645996093750 -29.6588306427001953
vn -0.9821335660612712 0.1798976333533574 -0.0552313310506948
v -50.6150970458984375 4.1352248191833496 -71.7273101806640625
vn -0.6199852692773371 -0.3821039789730879 -0.6852844775215924
v -40.6283454895019531 -5.2156996726989746 -92.6208572387695312
vn -0.9482828859079641 -0.0198214712302662 0.3168070036667921
v -43.2998466491699219 -4.2880778312683105 -42.7599792480468750
vn 0.0574887040938046 -0.9382567500602876 -0.3411294766916540
v 17.1758556365966797 -25.4309082031250000 -80.4081649780273438
vn -0.0698770008151098 -0.6678532462653862 -0.7410055642232861
v 0.6971246004104614 -13.1175832748413086 -98.2178421020507812
vn 0.1623743719105072 -0.6363492609881243 -0.7541181481615042
v 21.9930858612060547 -15.8941774368286133 -95.4564819335937500
vn 0.5063031383095998 -0.7098192427654519 -0.4897078463101550
v 38.0418167114257812 -16.8887920379638672 -93.9082031250000000
vn -0.0625704531770452 -0.3852092948766021 -0.9207055650586078
v 10.7803821563720703 -5.7582120895385742 -105.5793609619140625
vn 0.0282653703203300 -0.9994012556618854 -0.0199549247580990
v 13.5643386840820312 -31.1269111633300781 -47.2625885009765625
vn 0.3259691009347205 -0.9412356353850012 -0.0884286374270413
v 33.1353492736816406 -26.6257343292236328 -58.6336479187011719
vn 0.1156069727646521 -0.9789574185892069 0.1681588547693793
v 17.9011993408203125 -29.4934825897216797 -25.9692192077636719
vn -0.1819929306865576 -0.3658187824797544 -0.9127185719405231
v -16.6637763977050781 -8.5533256530761719 -98.1199340820312500
vn -0.1721610131917398 0.1435006139056349 -0.9745604954775765
v -12.2544240951538086 4.0525999069213867 -103.3438873291015625
vn -0.0564023544800344 -0.8764136184320375 0.4782446485178601
v 0.1687763184309006 -26.2422122955322266 -16.0512008666992188
vn -0.2624549828490384 -0.3826723284758626 -0.8858212409942383
v -27.2399387359619141 -10.1185712814331055 -93.7622375488281250
vn -0.2109330588299119 0.4806089212566935 -0.8511887625557180
v -24.0924358367919922 4.2729501724243164 -101.1307601928710938
vn -0.4500340990757536 -0.5012957100710010 0.7390344516553242
v -24.8671302795410156 -20.6519126892089844 -15.9419021606445312
vn -0.7757137058355282 -0.5742319962130568 0.2617744470036746
v -34.5807952880859375 -19.5973644256591797 -31.3953361511230469
vn -0.5816469312313699 0.6240810650491084 -0.5217371671984856
v -46.3475990295410156 5.9327459335327148 -93.9230651855468750
vn -0.8470897770483473 -0.0982173969946851 0.5222951776034025
v -33.2458801269531250 -9.2941513061523438 -21.1886539459228516
vn 0.9273598686645892 0.0102073625001376 -0.3740313940582884
v 19.6000003814697266 -2.0353250503540039 -94.0043869018554688
vn 0.7938110389257597 -0.5860486117338733 -0.1625147967552669
v 49.4862327575683594 -14.2877607345581055 -76.6283340454101562
vn 0.7524573126979479 -0.6562349220340442 0.0562469525428223
v 43.7221755981445312 -20.4246006011962891 -50.3720283508300781
vn 0.8094359347757019 -0.1887229981562432 -0.5560549410451314
v 17.9918231964111328 -2.3210215568542480 -104.1831283569335938
vn -0.0270208705175612 0.9249325775948429 -0.3791696183243496
v 35.5239601135253906 -3.9000000953674316 -68.4456558227539062
vn -0.0083002658394794 0.9771509265974729 -0.2123844915164334
v 38.9286308288574219 -14.2103738784790039 -90.5281753540039062
vn -0.3102640811139941 0.8575892926361002 0.4102155593421615
v 32.4630393981933594 -17.6118144989013672 -88.3073959350585938
vn 0.9522189635118400 0.1243372293352972 0.2789611064819948
v 17.9240665435791016 -2.7755639553070068 -84.1079559326171875
vn 0.4481900458545742 -0.8707358045598751 0.2023483171522355
v 37.1207351684570312 -23.6374130249023438 -25.0395431518554688
vn 0.8286180459547968 -0.1847425701660288 -0.5284527572891489
v 18.1499938964843750 -0.2092343121767044 -106.3741912841796875
vn 0.0545565790271905 0.8169147157538402 -0.5741723842799062
v 16.1221923828125000 5.4334740638732910 -105.7608261108398438
vn 0.1665639712553080 -0.5906051674239056 0.7895834216166404
v 24.3238487243652344 -21.1520690917968750 -12.2004346847534180
vn 0.0694969806840968 -0.3065365498292291 0.9493184467261693
v 1.2342003583908081 -18.5943603515625000 -10.6464242935180664
vn -0.2242227340677576 -0.1462329307308348 0.9635040713443044
v -9.2617988586425781 -21.2607402801513672 -12.4706020355224609
vn -0.5877489467626662 0.1577999720989623 0.7935051004152041
v -27.6733455657958984 11.5055189132690430 -14.3435335159301758
vn -0.3904145997840121 0.9140763062187801 0.1097312475319612
v -43.5776214599609375 10.4102210998535156 -54.6985588073730469
vn 0.9888431746882892 0.1090629202509008 -0.1014615951911429
v 51.5101661682128906 3.4975562095642090 -80.0706253051757812
vn -0.4737951829611636 0.8803917002131227 0.0207021447836793
v 45.1299896240234375 -12.2881050109863281 -84.7569808959960938
vn -0.2852270136302704 -0.4726776294255154 -0.8337993819476198
v 49.2022705078125000 0.6332082152366638 -82.7816238403320312
vn -0.0581484266960707 0.9956707837918723 0.0725151761774743
v 47.5708541870117188 -12.6893224716186523 -77.2907791137695312
vn -0.9639501453749795 -0.2642775036520106 0.0309437925118673
v 49.7468833923339844 -2.6132950782775879 -74.7077102661132812
vn 0.9378262390345646 -0.1139446233087393 0.3278697427292022
v 50.6011505126953125 -6.5135245323181152 -59.6117858886718750
vn 0.8939790157240377 0.1522192158890052 0.4214627264174344
v 41.5828857421875000 -17.4668865203857422 -25.0540657043457031
vn 0.9200048668196017 -0.1516369078480505 0.3613824749576667
v 44.0359764099121094 -15.6322326660156250 -44.2249946594238281
vn 0.5644689362689123 0.5278567382066082 0.6346196371980014
v 27.2168807983398438 -17.8731269836425781 -13.7816247940063477
vn 0.5633585279057396 -0.8182446376722131 -0.1144678206158681
v 28.0240783691406250 6.0000000000000000 -81.8228530883789062
vn 0.1412100069823374 -0.9422763344270914 -0.3036034313157419
v 27.2245883941650391 4.5586342811584473 -71.2643814086914062
vn 0.5915756998250917 0.4482904193207720 -0.6701297570781792
v 27.0344467163085938 7.9144921302795410 -87.7288055419921875
vn 0.3420311320481805 0.9176860241494132 0.2021560431713149
v 42.2205772399902344 -16.2643508911132812 -34.8457183837890625
vn -0.7913409589117754 0.6046770868998742 -0.0902502483479902
v 39.9899902343750000 -20.9427623748779297 -46.6326484680175781
vn -0.1616359941054118 0.4749913957718745 -0.8650184849771949
v 38.9968528747558594 -21.1364364624023438 -36.9186553955078125
vn -0.1367401719988106 0.8906523983231867 0.4336362885217188
v 26.2301578521728516 -15.3195772171020508 -19.3937530517578125
vn -0.9687760297811618 -0.1821810836652209 -0.1681756726640779
v 30.9339447021484375 -25.4579868316650391 -35.5071983337402344
vn -0.2335443793302831 -0.0755026551584411 -0.9694103217664120
v 29.7668094635009766 -24.5056953430175781 -24.7175331115722656
vn 0.7095388209031414 0.4979568844082798 0.4985916193657681
v 27.0532321929931641 -1.7869890928268433 -33.6966552734375000
vn 0.9024546524545425 0.1943817318860938 0.3844363960034398
v 21.8576545715332031 -2.5000000000000000 -24.7137031555175781
vn 0.5172221665346198 -0.2866664780431266 -0.8064140132782809
v 18.0256595611572266 -19.0509357452392578 -21.2879123687744141
vn 0.9666925815867329 -0.2407124514485220 -0.0869653288547845
v 17.1829357147216797 -17.4500007629394531 -35.2968254089355469
vn 0.8472672924541027 -0.5280343427534619 -0.0576009375827651
v 21.0257129669189453 -3.0000000000000000 -32.3673934936523438
vn 0.0827261708834678 0.2649564967301692 0.9607051761552214
v 7.6871070861816406 -1.5000000000000000 -7.5000028610229492
vn -0.8209036526193870 0.5560237025007289 -0.1302107344788809
v 9.5072145462036133 -18.1114044189453125 -12.3800230026245117
vn -0.1027956963464511 0.9000458265791840 -0.4234979986612002
v -13.4075956344604492 8.7380809783935547 -91.9698410034179688
vn 0.4728651020552211 -0.0922121281898128 0.8762964787519182
v 2.9185612201690674 -9.8942193984985352 -13.2819242477416992
vn 0.4797810320750975 0.6142652362722254 0.6264889310820911
v 9.3581037521362305 -7.3498835563659668 -13.8469772338867188
vn -0.1125087441452280 -0.1864835852279054 0.9759947002578500
v 2.1593096256256104 -1.8037788867950439 -6.6989221572875977
vn -0.1961652035491350 0.9635181496175370 -0.1820768746275161
v -34.5127716064453125 12.3198289871215820 -78.4633712768554688
vn -0.0258356647109589 0.9952560260707990 -0.0937974466534357
v -10.2666120529174805 12.5660324096679688 -86.6897888183593750
vn -0.2109523716478291 0.2677161030038605 0.9401208353656367
v -11.1833486557006836 9.4689245223999023 -11.5422916412353516
vn -0.3840842070964404 0.9217715598518458 0.0530708329253838
v -32.7502937316894531 15.5751829147338867 -31.1706333160400391
vn -0.3715497640461563 -0.8057429786618775 -0.4612255686476315
v 37.6144905090332031 -1.3999999761581421 -68.1781463623046875
vn -0.2942112899906893 -0.9157547175880292 -0.2735562356395546
v 37.7579803466796875 7.9000000953674316 -83.0043182373046875
vn 0.7619715155513062 0.3074349304725649 0.5699852392946461
v 32.2584724426269531 4.3468146324157715 -47.0898818969726562
vn 0.2524944834511191 -0.9283535861272947 0.2727749162796028
v 39.5493240356445312 -5.3205389976501465 -58.0299911499023438
vn -0.5643941122493952 -0.8185946959010088 0.1065927291186040
v 28.9760818481445312 0.4886817634105682 -45.9253425598144531
vn 0.0523393393217293 0.9846528533486016 -0.1664912969251610
v 4.9912047386169434 12.5427160263061523 -86.4482727050781250
vn 0.0679823981100150 0.9890692200187465 -0.1308452198542983
v 35.3183212280273438 12.3661470413208008 -85.1120986938476562
vn 0.7943655905342434 0.0649254453243339 0.6039602595573815
v 10.5481595993041992 -4.8491010665893555 -22.6167678833007812
vn 0.6633062077335586 0.2413883567549789 0.7083477507589446
v 12.7402601242065430 5.4356355667114258 -19.6698341369628906
vn 0.5862946097741578 0.7596860653996567 0.2813107047151896
v 26.5738086700439453 7.3223094940185547 -25.7069282531738281
vn 0.5763046383559129 0.2926421020208543 0.7630423080893196
v 6.2811188697814941 4.1308550834655762 -4.9393014907836914
vn -0.0036410668920726 0.9996033902766304 0.0279249848586143
v -7.3607702255249023 11.2601671218872070 -66.4362640380859375
vn -0.0382458755468306 0.9881805957378179 -0.1484464994902470
v -37.1431541442871094 11.5535192489624023 -49.1575851440429688
vn 0.0062975101379779 0.9900604328048388 -0.1405015329466454
v -21.3970737457275391 11.8430871963500977 -50.8748512268066406
vn 0.3485574743238045 0.9350433990786990 -0.0648192018800226
v 45.9361228942871094 11.5168094635009766 -79.5170288085937500
vn 0.5572249494349522 0.7429307450844953 0.3708830863431383
v 46.4674873352050781 8.0657577514648438 -61.2595214843750000
vn 0.2981066124472649 0.9368249710321080 0.1830066153610463
v 26.0247402191162109 6.1941680908203125 -47.3630180358886719
vn 0.1158607751395688 0.9758676111594076 0.1850910215923222
v 29.9078559875488281 10.3445606231689453 -64.1162948608398438
vn 0.0222072430488300 0.9991474040416259 0.0348037836025060
v 20.0331611633300781 10.8328666687011719 -58.5355072021484375
vn 0.1965392342374431 0.9773678531604167 -0.0782586034500837
v 19.3390331268310547 10.7951583862304688 -52.9322547912597656
vn -0.0551872536955103 0.9576273260329844 0.2826734360785665
v -19.7499179840087891 15.7681369781494141 -19.3615264892578125
vn 0.2417850343830752 0.8317633792956901 0.4997095936751554
v 4.6021347045898438 14.5700092315673828 -16.0595455169677734
vn 0.1249175706830793 0.9914971079070344 -0.0364566255518028
v 7.6348490715026855 16.2231998443603516 -26.6275539398193359
# 99 vertices, 0 vertices normals


usemtl material_0
f 1//1 2//2 3//3
f 4//4 3//3 2//2
f 4//4 5//5 3//3
f 6//6 1//1 3//3
f 7//7 2//2 1//1
f 8//8 9//9 4//4
f 8//8 4//4 2//2
f 8//8 2//2 10//10
f 3//3 5//5 11//11
f 12//12 13//13 11//11
f 5//5 12//12 11//11
f 14//14 11//11 13//13
f 15//15 13//13 12//12
f 6//6 3//3 11//11
f 16//16 6//6 11//11
f 17//17 16//16 11//11
f 18//18 16//16 17//17
f 19//19 12//12 5//5
f 20//20 12//12 19//19
f 1//1 6//6 16//16
f 7//7 16//16 18//18
f 7//7 1//1 16//16
f 21//21 7//7 18//18
f 22//22 19//19 5//5
f 22//22 5//5 4//4
f 23//23 19//19 22//22
f 24//24 7//7 21//21
f 24//24 25//25 7//7
f 9//9 22//22 4//4
f 9//9 23//23 22//22
f 26//26 23//23 9//9
f 20//20 19//19 23//23
f 25//25 2//2 7//7
f 27//27 25//25 24//24
f 26//26 9//9 8//8
f 10//10 2//2 25//25
f 27//27 10//10 25//25
f 28//28 14//14 13//13
f 17//17 11//11 14//14
f 29//29 17//17 14//14
f 29//29 30//30 17//17
f 28//28 13//13 31//31
f 32//32 33//33 34//34
f 35//35 34//34 33//33
f 36//36 18//18 17//17
f 30//30 36//36 17//17
f 31//31 13//13 15//15
f 37//37 31//31 15//15
f 20//20 15//15 12//12
f 37//37 28//28 31//31
f 38//38 37//37 15//15
f 38//38 15//15 20//20
f 39//39 18//18 36//36
f 39//39 21//21 18//18
f 40//40 21//21 39//39
f 41//41 21//21 40//40
f 24//24 21//21 41//41
f 42//42 24//24 41//41
f 27//27 24//24 42//42
f 43//43 8//8 10//10
f 29//29 14//14 44//44
f 44//44 14//14 45//45
f 33//33 45//45 14//14
f 46//46 44//44 45//45
f 32//32 45//45 33//33
f 47//47 45//45 32//32
f 48//48 45//45 47//47
f 46//46 45//45 48//48
f 30//30 29//29 49//49
f 50//50 30//30 51//51
f 35//35 33//33 14//14
f 28//28 35//35 14//14
f 50//50 36//36 30//30
f 52//52 39//39 36//36
f 50//50 52//52 36//36
f 53//53 35//35 28//28
f 53//53 54//54 35//35
f 55//55 28//28 37//37
f 53//53 28//28 55//55
f 56//56 57//57 58//58
f 56//56 51//51 57//57
f 59//59 60//60 61//61
f 62//62 60//60 59//59
f 62//62 56//56 58//58
f 55//55 37//37 38//38
f 63//63 64//64 65//65
f 66//66 63//63 65//65
f 63//63 61//61 64//64
f 63//63 59//59 61//61
f 67//67 40//40 39//39
f 67//67 68//68 40//40
f 38//38 20//20 69//69
f 70//70 40//40 68//68
f 67//67 71//71 68//68
f 70//70 68//68 71//71
f 72//72 40//40 70//70
f 72//72 41//41 40//40
f 23//23 69//69 20//20
f 73//73 69//69 23//23
f 74//74 69//69 73//73
f 75//75 42//42 41//41
f 75//75 41//41 72//72
f 73//73 23//23 26//26
f 73//73 26//26 8//8
f 42//42 10//10 27//27
f 76//76 10//10 42//42
f 43//43 73//73 8//8
f 76//76 43//43 10//10
f 49//49 29//29 44//44
f 77//77 46//46 48//48
f 78//78 46//46 77//77
f 30//30 49//49 51//51
f 50//50 51//51 56//56
f 79//79 80//80 49//49
f 78//78 77//77 54//54
f 51//51 81//81 80//80
f 79//79 51//51 80//80
f 59//59 50//50 56//56
f 62//62 59//59 56//56
f 52//52 50//50 59//59
f 78//78 54//54 53//53
f 82//82 55//55 38//38
f 82//82 83//83 55//55
f 55//55 78//78 53//53
f 79//79 81//81 51//51
f 62//62 81//81 79//79
f 71//71 52//52 63//63
f 67//67 39//39 52//52
f 67//67 52//52 71//71
f 62//62 63//63 66//66
f 84//84 71//71 63//63
f 85//85 84//84 63//63
f 85//85 63//63 86//86
f 74//74 82//82 38//38
f 74//74 38//38 69//69
f 87//87 71//71 84//84
f 72//72 70//70 71//71
f 72//72 71//71 87//87
f 87//87 84//84 85//85
f 82//82 74//74 88//88
f 43//43 88//88 74//74
f 73//73 43//43 74//74
f 89//89 88//88 43//43
f 90//90 88//88 89//89
f 76//76 89//89 43//43
f 76//76 90//90 89//89
f 91//91 44//44 46//46
f 92//92 44//44 91//91
f 92//92 49//49 44//44
f 92//92 79//79 49//49
f 55//55 46//46 78//78
f 83//83 46//46 55//55
f 91//91 46//46 83//83
f 93//93 79//79 92//92
f 94//94 83//83 95//95
f 94//94 93//93 92//92
f 96//96 93//93 94//94
f 95//95 96//96 94//94
f 86//86 79//79 93//93
f 86//86 62//62 79//79
f 88//88 95//95 83//83
f 86//86 93//93 96//96
f 88//88 83//83 82//82
f 90//90 95//95 88//88
f 96//96 95//95 90//90
f 75//75 72//72 87//87
f 42//42 75//75 97//97
f 97//97 76//76 42//42
f 75//75 98//98 97//97
f 83//83 94//94 91//91
f 94//94 92//92 91//91
f 85//85 86//86 99//99
f 99//99 86//86 96//96
f 98//98 85//85 99//99
f 87//87 85//85 98//98
f 90//90 99//99 96//96
f 75//75 87//87 98//98
f 76//76 99//99 90//90
f 97//97 99//99 76//76
f 98//98 99//99 97//97
# 180 faces, 0 coords texture

# End of File
